<svg width="772" height="881" viewBox="0 0 772 881" fill="none" xmlns="http://www.w3.org/2000/svg">
<path d="M722.072 122.745L720.95 120.903C711.478 105.34 694.358 95.9556 676.305 97.0929C673.978 97.2311 671.664 97.5389 669.382 98.0138C652.968 101.522 638.686 113.899 632.768 129.757C629.288 139.082 628.314 149.819 621.69 157.223C613.091 166.856 598.496 167.16 585.659 166.759C572.822 166.359 558.217 166.699 549.655 176.374C544.337 182.447 542.634 191.085 543.063 199.175C544.208 220.651 559.219 239.852 578.292 249.397C597.365 258.942 619.835 259.798 640.712 255.599C669.963 249.714 697.779 233.562 714.497 208.633C731.216 183.704 735.449 149.677 722.072 122.745Z" fill="white"/>
<path d="M351.5 702.392C540.18 702.392 693.135 693.462 693.135 682.446C693.135 671.43 540.18 662.5 351.5 662.5C162.821 662.5 9.86621 671.43 9.86621 682.446C9.86621 693.462 162.821 702.392 351.5 702.392Z" fill="#F5F5F5"/>
<path d="M194.382 149.1L200.954 157.593H502.009L508.634 149.1H194.382Z" fill="#19B690"/>
<g opacity="0.4">
<path opacity="0.4" d="M194.382 149.1L200.954 157.593H502.009L508.634 149.1H194.382Z" fill="black"/>
</g>
<path d="M502.08 138.159H200.338V673.067H502.08V138.159Z" fill="#ADE3D6"/>
<g opacity="0.4">
<path opacity="0.4" d="M502.298 214.091H200.702V672.857H502.298V214.091Z" fill="white"/>
</g>
<g opacity="0.8">
<path opacity="0.8" d="M212.566 151.321C212.682 152.098 212.63 152.891 212.413 153.646C212.195 154.401 211.818 155.101 211.307 155.697C210.796 156.294 210.162 156.774 209.449 157.104C208.736 157.434 207.96 157.607 207.174 157.611C205.484 157.544 203.874 156.873 202.639 155.718C201.403 154.563 200.624 153.002 200.443 151.321C200.322 150.538 200.37 149.739 200.586 148.978C200.801 148.216 201.179 147.51 201.692 146.908C202.206 146.305 202.844 145.821 203.562 145.488C204.28 145.155 205.061 144.981 205.853 144.977C207.548 145.05 209.16 145.731 210.393 146.896C211.626 148.061 212.398 149.632 212.566 151.321Z" fill="#F0F0F0"/>
<path opacity="0.8" d="M223.684 151.321C223.792 152.102 223.732 152.898 223.507 153.654C223.282 154.411 222.899 155.11 222.381 155.706C221.864 156.302 221.225 156.78 220.508 157.108C219.79 157.437 219.011 157.608 218.222 157.611C216.544 157.528 214.952 156.849 213.73 155.696C212.509 154.542 211.74 152.991 211.562 151.321C211.446 150.536 211.499 149.737 211.719 148.975C211.939 148.213 212.32 147.508 212.836 146.907C213.353 146.305 213.992 145.821 214.712 145.489C215.431 145.156 216.214 144.981 217.006 144.977C218.695 145.058 220.299 145.743 221.525 146.907C222.751 148.072 223.517 149.638 223.684 151.321Z" fill="#F0F0F0"/>
<path opacity="0.8" d="M234.785 151.321C234.888 152.104 234.823 152.901 234.594 153.657C234.364 154.413 233.977 155.112 233.457 155.707C232.937 156.302 232.296 156.78 231.578 157.108C230.859 157.436 230.078 157.608 229.288 157.611C227.607 157.549 226.007 156.876 224.787 155.718C223.567 154.559 222.812 152.996 222.663 151.321C222.555 150.534 222.617 149.732 222.843 148.971C223.069 148.209 223.456 147.505 223.976 146.905C224.496 146.304 225.139 145.822 225.86 145.49C226.582 145.157 227.366 144.983 228.16 144.977C229.85 145.041 231.457 145.722 232.678 146.891C233.899 148.06 234.649 149.636 234.785 151.321Z" fill="#F0F0F0"/>
<path opacity="0.8" d="M245.886 151.321C245.978 152.107 245.903 152.903 245.666 153.658C245.43 154.413 245.037 155.11 244.514 155.703C243.99 156.297 243.347 156.773 242.628 157.102C241.908 157.43 241.127 157.604 240.336 157.611C238.661 157.548 237.067 156.872 235.856 155.713C234.645 154.554 233.9 152.991 233.764 151.321C233.667 150.53 233.738 149.727 233.973 148.966C234.208 148.204 234.601 147.501 235.127 146.902C235.653 146.303 236.299 145.822 237.024 145.49C237.748 145.159 238.535 144.984 239.332 144.977C241.013 145.043 242.612 145.726 243.821 146.896C245.031 148.067 245.766 149.642 245.886 151.321Z" fill="#F0F0F0"/>
<path opacity="0.8" d="M257.004 151.321C257.087 152.109 257.005 152.907 256.762 153.662C256.519 154.417 256.122 155.113 255.594 155.705C255.066 156.298 254.421 156.773 253.699 157.101C252.977 157.43 252.194 157.603 251.401 157.611C249.73 157.55 248.14 156.874 246.937 155.714C245.734 154.553 245.002 152.988 244.881 151.321C244.79 150.528 244.866 149.724 245.105 148.963C245.344 148.201 245.741 147.499 246.27 146.901C246.798 146.302 247.446 145.822 248.172 145.491C248.899 145.159 249.686 144.985 250.484 144.977C252.165 145.036 253.764 145.717 254.969 146.89C256.174 148.063 256.9 149.642 257.004 151.321Z" fill="#F0F0F0"/>
<path opacity="0.8" d="M268.104 151.321C268.18 152.112 268.09 152.911 267.841 153.666C267.592 154.421 267.189 155.116 266.657 155.708C266.126 156.299 265.477 156.774 264.752 157.101C264.028 157.429 263.243 157.602 262.448 157.611C260.781 157.553 259.196 156.877 258.001 155.714C256.805 154.551 256.086 152.985 255.982 151.321C255.898 150.525 255.982 149.72 256.227 148.959C256.473 148.197 256.875 147.496 257.407 146.898C257.94 146.301 258.591 145.822 259.319 145.491C260.048 145.16 260.838 144.985 261.638 144.977C263.314 145.033 264.909 145.715 266.106 146.89C267.304 148.064 268.017 149.645 268.104 151.321Z" fill="#F0F0F0"/>
<path opacity="0.8" d="M279.258 151.321C279.326 152.115 279.229 152.915 278.974 153.67C278.718 154.425 278.31 155.12 277.774 155.71C277.239 156.301 276.587 156.774 275.86 157.101C275.133 157.428 274.346 157.602 273.549 157.611C271.886 157.556 270.305 156.879 269.117 155.714C267.93 154.55 267.222 152.982 267.135 151.321C267.057 150.523 267.145 149.718 267.395 148.956C267.645 148.195 268.05 147.493 268.585 146.897C269.12 146.3 269.774 145.822 270.504 145.491C271.234 145.161 272.025 144.986 272.826 144.977C274.499 145.033 276.09 145.717 277.282 146.892C278.473 148.068 279.179 149.649 279.258 151.321Z" fill="#F0F0F0"/>
<path opacity="0.8" d="M290.323 151.321C290.383 152.119 290.279 152.922 290.017 153.678C289.754 154.435 289.339 155.129 288.798 155.719C288.256 156.309 287.599 156.781 286.867 157.106C286.135 157.432 285.345 157.604 284.544 157.611C282.885 157.559 281.308 156.882 280.128 155.715C278.948 154.548 278.253 152.978 278.183 151.321C278.115 150.521 278.213 149.716 278.47 148.955C278.726 148.195 279.137 147.495 279.676 146.9C280.215 146.305 280.87 145.827 281.601 145.497C282.333 145.166 283.124 144.989 283.927 144.977C285.599 145.025 287.19 145.708 288.378 146.886C289.566 148.063 290.261 149.649 290.323 151.321Z" fill="#F0F0F0"/>
<path opacity="0.8" d="M301.424 151.321C301.477 152.119 301.367 152.92 301.1 153.674C300.834 154.428 300.417 155.121 299.875 155.709C299.333 156.297 298.677 156.769 297.946 157.096C297.216 157.423 296.427 157.598 295.627 157.611C293.971 157.563 292.395 156.886 291.22 155.717C290.045 154.549 289.359 152.977 289.302 151.321C289.241 150.517 289.347 149.709 289.611 148.947C289.875 148.185 290.292 147.485 290.837 146.891C291.381 146.297 292.042 145.82 292.778 145.491C293.514 145.162 294.31 144.987 295.116 144.977C296.78 145.027 298.361 145.712 299.535 146.892C300.708 148.072 301.384 149.657 301.424 151.321Z" fill="#F0F0F0"/>
<path opacity="0.8" d="M312.541 151.321C312.584 152.122 312.465 152.925 312.19 153.679C311.916 154.434 311.492 155.126 310.945 155.713C310.397 156.3 309.737 156.771 309.003 157.097C308.269 157.423 307.477 157.598 306.674 157.611C305.02 157.571 303.445 156.894 302.277 155.723C301.109 154.551 300.437 152.975 300.401 151.321C300.349 150.515 300.46 149.708 300.729 148.947C300.998 148.186 301.419 147.488 301.966 146.895C302.513 146.302 303.175 145.826 303.912 145.496C304.648 145.166 305.444 144.99 306.251 144.977C307.916 145.018 309.5 145.701 310.673 146.883C311.845 148.066 312.515 149.656 312.541 151.321Z" fill="#F0F0F0"/>
<path opacity="0.8" d="M323.643 151.321C323.678 152.124 323.552 152.926 323.273 153.679C322.994 154.433 322.567 155.123 322.017 155.71C321.467 156.296 320.805 156.766 320.071 157.092C319.336 157.419 318.544 157.595 317.74 157.611C316.092 157.566 314.526 156.886 313.367 155.714C312.208 154.543 311.547 152.968 311.52 151.321C311.475 150.513 311.593 149.704 311.868 148.943C312.143 148.182 312.569 147.484 313.121 146.892C313.672 146.3 314.337 145.825 315.076 145.496C315.816 145.167 316.614 144.99 317.423 144.977C319.081 145.019 320.657 145.704 321.819 146.888C322.98 148.072 323.634 149.662 323.643 151.321Z" fill="#F0F0F0"/>
<path opacity="0.8" d="M334.743 151.321C334.771 152.126 334.638 152.929 334.353 153.683C334.068 154.437 333.636 155.127 333.082 155.713C332.527 156.298 331.862 156.767 331.125 157.093C330.388 157.419 329.593 157.595 328.787 157.611C327.145 157.565 325.584 156.884 324.434 155.711C323.283 154.538 322.633 152.964 322.62 151.321C322.585 150.511 322.712 149.702 322.994 148.942C323.275 148.181 323.707 147.485 324.261 146.894C324.816 146.303 325.484 145.829 326.225 145.5C326.966 145.171 327.765 144.993 328.576 144.977C330.23 145.014 331.804 145.7 332.958 146.887C334.111 148.073 334.752 149.666 334.743 151.321Z" fill="#F0F0F0"/>
<path opacity="0.8" d="M345.862 151.321C345.883 152.129 345.744 152.933 345.453 153.687C345.162 154.442 344.724 155.131 344.166 155.716C343.608 156.3 342.939 156.769 342.199 157.094C341.459 157.419 340.662 157.595 339.853 157.611C338.213 157.574 336.652 156.894 335.509 155.717C334.365 154.541 333.729 152.962 333.739 151.321C333.711 150.508 333.845 149.698 334.132 148.938C334.42 148.177 334.856 147.482 335.415 146.891C335.975 146.301 336.646 145.828 337.389 145.499C338.133 145.171 338.935 144.993 339.747 144.977C341.396 145.019 342.961 145.708 344.106 146.895C345.25 148.082 345.881 149.672 345.862 151.321Z" fill="#F0F0F0"/>
<path opacity="0.8" d="M356.962 151.321C356.907 152.506 356.505 153.649 355.806 154.608C355.107 155.567 354.143 156.3 353.031 156.716C351.92 157.131 350.711 157.212 349.555 156.947C348.398 156.682 347.344 156.084 346.525 155.226C345.705 154.368 345.155 153.289 344.943 152.121C344.731 150.954 344.867 149.75 345.333 148.659C345.798 147.567 346.574 146.637 347.564 145.983C348.554 145.328 349.714 144.979 350.9 144.977C351.716 144.993 352.52 145.17 353.266 145.498C354.013 145.826 354.687 146.299 355.251 146.888C355.814 147.478 356.255 148.173 356.549 148.934C356.842 149.694 356.983 150.505 356.962 151.321Z" fill="#F0F0F0"/>
<path opacity="0.8" d="M368.062 151.321C368.076 152.96 367.445 154.539 366.304 155.716C365.163 156.893 363.605 157.574 361.966 157.611C361.157 157.595 360.36 157.419 359.62 157.094C358.88 156.769 358.211 156.3 357.653 155.716C357.094 155.131 356.657 154.442 356.366 153.687C356.075 152.933 355.936 152.129 355.957 151.321C355.929 149.672 356.554 148.08 357.697 146.891C358.839 145.702 360.406 145.014 362.054 144.977C362.867 144.993 363.668 145.171 364.412 145.499C365.156 145.828 365.827 146.301 366.386 146.891C366.945 147.482 367.381 148.177 367.669 148.938C367.957 149.698 368.09 150.508 368.062 151.321Z" fill="#F0F0F0"/>
<path opacity="0.8" d="M379.181 151.321C379.177 152.966 378.53 154.545 377.377 155.721C376.225 156.896 374.659 157.574 373.014 157.611C372.208 157.595 371.413 157.419 370.676 157.093C369.939 156.767 369.274 156.298 368.719 155.713C368.165 155.127 367.733 154.437 367.448 153.683C367.163 152.929 367.03 152.126 367.058 151.321C367.049 149.669 367.687 148.079 368.837 146.893C369.987 145.707 371.556 145.019 373.208 144.977C374.019 144.993 374.819 145.171 375.561 145.5C376.303 145.829 376.972 146.303 377.528 146.893C378.084 147.484 378.517 148.18 378.801 148.94C379.085 149.701 379.214 150.51 379.181 151.321Z" fill="#F0F0F0"/>
<path opacity="0.8" d="M390.263 151.321C390.241 152.967 389.583 154.541 388.427 155.713C387.272 156.886 385.707 157.566 384.061 157.611C383.257 157.595 382.464 157.419 381.728 157.093C380.993 156.766 380.33 156.296 379.778 155.711C379.227 155.125 378.798 154.435 378.517 153.681C378.236 152.927 378.108 152.125 378.141 151.321C378.149 149.662 378.804 148.072 379.965 146.888C381.126 145.704 382.703 145.019 384.361 144.977C385.169 144.993 385.966 145.171 386.704 145.501C387.442 145.83 388.106 146.305 388.657 146.897C389.208 147.489 389.634 148.186 389.91 148.946C390.186 149.706 390.306 150.513 390.263 151.321Z" fill="#F0F0F0"/>
<path opacity="0.8" d="M401.4 151.321C401.36 152.973 400.686 154.547 399.519 155.718C398.352 156.889 396.779 157.566 395.127 157.611C394.325 157.598 393.533 157.423 392.801 157.097C392.068 156.77 391.408 156.299 390.862 155.712C390.316 155.124 389.894 154.433 389.621 153.678C389.349 152.923 389.232 152.122 389.277 151.321C389.299 149.66 389.963 148.073 391.128 146.891C392.294 145.708 393.872 145.023 395.532 144.977C396.34 144.99 397.136 145.167 397.874 145.496C398.611 145.825 399.274 146.301 399.823 146.894C400.371 147.487 400.794 148.185 401.065 148.946C401.336 149.707 401.45 150.514 401.4 151.321Z" fill="#F0F0F0"/>
<path opacity="0.8" d="M412.501 151.321C412.442 152.986 411.749 154.565 410.563 155.735C409.377 156.905 407.788 157.576 406.122 157.611C405.321 157.598 404.532 157.423 403.801 157.096C403.069 156.77 402.412 156.298 401.869 155.71C401.325 155.122 400.907 154.43 400.638 153.675C400.37 152.921 400.257 152.12 400.308 151.321C400.347 149.657 401.024 148.072 402.197 146.892C403.371 145.712 404.952 145.027 406.615 144.977C407.428 144.978 408.231 145.145 408.975 145.47C409.72 145.795 410.389 146.27 410.941 146.865C411.494 147.461 411.917 148.164 412.186 148.93C412.454 149.697 412.561 150.511 412.501 151.321Z" fill="#F0F0F0"/>
<path opacity="0.8" d="M423.601 151.321C423.535 152.977 422.844 154.547 421.667 155.714C420.49 156.881 418.914 157.559 417.258 157.611C416.452 157.611 415.654 157.444 414.916 157.122C414.177 156.8 413.512 156.329 412.963 155.739C412.415 155.149 411.993 154.452 411.726 153.692C411.458 152.932 411.35 152.124 411.408 151.321C411.465 149.654 412.154 148.071 413.335 146.893C414.517 145.715 416.101 145.03 417.769 144.977C418.579 144.977 419.38 145.145 420.122 145.47C420.864 145.796 421.53 146.272 422.078 146.868C422.626 147.464 423.045 148.168 423.307 148.934C423.569 149.701 423.669 150.513 423.601 151.321Z" fill="#F0F0F0"/>
<path opacity="0.8" d="M434.719 151.321C434.632 152.982 433.924 154.55 432.737 155.714C431.549 156.879 429.968 157.556 428.305 157.611C427.508 157.602 426.721 157.428 425.994 157.101C425.267 156.774 424.615 156.301 424.08 155.71C423.544 155.12 423.135 154.425 422.88 153.67C422.625 152.915 422.528 152.115 422.596 151.321C422.667 149.649 423.367 148.066 424.557 146.889C425.747 145.712 427.337 145.029 429.01 144.977C429.811 144.989 430.601 145.165 431.331 145.497C432.061 145.828 432.714 146.306 433.25 146.902C433.786 147.497 434.194 148.197 434.446 148.958C434.699 149.718 434.792 150.523 434.719 151.321Z" fill="#F0F0F0"/>
<path opacity="0.8" d="M445.82 151.321C445.72 152.983 445.004 154.549 443.811 155.713C442.619 156.876 441.036 157.553 439.371 157.611C438.575 157.602 437.79 157.429 437.064 157.101C436.339 156.774 435.689 156.3 435.156 155.709C434.623 155.118 434.218 154.423 433.967 153.667C433.716 152.912 433.624 152.113 433.697 151.321C433.785 149.645 434.498 148.064 435.695 146.89C436.892 145.715 438.487 145.033 440.164 144.977C440.964 144.985 441.753 145.16 442.482 145.491C443.21 145.822 443.862 146.301 444.394 146.898C444.927 147.496 445.329 148.197 445.574 148.959C445.82 149.72 445.903 150.525 445.82 151.321Z" fill="#F0F0F0"/>
<path opacity="0.8" d="M456.92 151.321C456.807 152.988 456.08 154.554 454.879 155.717C453.678 156.879 452.088 157.554 450.418 157.611C449.632 157.591 448.858 157.408 448.146 157.075C447.433 156.742 446.797 156.265 446.278 155.674C445.758 155.084 445.366 154.392 445.127 153.643C444.887 152.894 444.805 152.103 444.885 151.321C444.989 149.642 445.715 148.063 446.92 146.89C448.125 145.717 449.724 145.036 451.405 144.977C452.195 144.997 452.973 145.18 453.689 145.517C454.405 145.854 455.042 146.336 455.561 146.933C456.08 147.53 456.469 148.228 456.703 148.984C456.937 149.739 457.011 150.535 456.92 151.321Z" fill="#F0F0F0"/>
<path opacity="0.8" d="M468.038 151.321C467.906 152.99 467.165 154.552 465.957 155.712C464.749 156.871 463.157 157.547 461.484 157.611C460.691 157.606 459.908 157.435 459.186 157.107C458.464 156.779 457.82 156.303 457.294 155.71C456.769 155.116 456.375 154.418 456.137 153.662C455.899 152.906 455.824 152.108 455.916 151.321C456.032 149.641 456.766 148.063 457.976 146.892C459.187 145.721 460.787 145.039 462.47 144.977C463.267 144.984 464.054 145.159 464.778 145.49C465.503 145.822 466.149 146.303 466.675 146.902C467.201 147.501 467.594 148.204 467.829 148.966C468.064 149.727 468.135 150.53 468.038 151.321Z" fill="#F0F0F0"/>
<path opacity="0.8" d="M479.138 151.321C478.99 152.993 478.237 154.554 477.021 155.712C475.805 156.87 474.209 157.545 472.531 157.611C471.741 157.604 470.961 157.431 470.243 157.102C469.525 156.773 468.884 156.296 468.364 155.702C467.843 155.108 467.454 154.41 467.221 153.655C466.989 152.9 466.919 152.105 467.016 151.321C467.152 149.639 467.9 148.065 469.117 146.896C470.334 145.728 471.937 145.045 473.623 144.977C474.418 144.983 475.203 145.158 475.925 145.49C476.648 145.822 477.291 146.304 477.813 146.904C478.334 147.504 478.722 148.208 478.951 148.97C479.18 149.731 479.243 150.533 479.138 151.321Z" fill="#F0F0F0"/>
<path opacity="0.8" d="M490.258 151.321C490.081 152.982 489.319 154.527 488.109 155.679C486.899 156.831 485.318 157.516 483.65 157.611C482.861 157.608 482.082 157.437 481.364 157.108C480.647 156.78 480.008 156.302 479.491 155.706C478.974 155.11 478.59 154.411 478.365 153.654C478.14 152.898 478.08 152.102 478.188 151.321C478.355 149.641 479.118 148.077 480.341 146.913C481.563 145.749 483.162 145.062 484.848 144.977C485.637 144.989 486.414 145.169 487.128 145.505C487.842 145.841 488.476 146.325 488.988 146.926C489.499 147.526 489.877 148.228 490.096 148.986C490.315 149.744 490.37 150.54 490.258 151.321Z" fill="#F0F0F0"/>
<path opacity="0.8" d="M501.358 151.321C501.178 152.999 500.401 154.558 499.169 155.712C497.937 156.867 496.331 157.54 494.645 157.611C493.858 157.607 493.082 157.434 492.368 157.104C491.654 156.774 491.02 156.294 490.507 155.698C489.994 155.102 489.615 154.402 489.396 153.647C489.177 152.892 489.122 152.099 489.235 151.321C489.403 149.632 490.175 148.061 491.408 146.896C492.641 145.731 494.253 145.05 495.948 144.977C496.74 144.981 497.522 145.155 498.24 145.488C498.958 145.821 499.595 146.305 500.109 146.908C500.622 147.51 501 148.216 501.215 148.978C501.431 149.739 501.48 150.538 501.358 151.321Z" fill="#F0F0F0"/>
</g>
<path d="M194.364 140.502H508.652L508.635 149.101H194.382L194.364 140.502Z" fill="#19B690"/>
<path d="M194.347 131.903L200.901 140.502H502.045L508.67 131.903H194.347Z" fill="#19B690"/>
<g opacity="0.4">
<path opacity="0.4" d="M194.347 131.903L200.901 140.502H502.045L508.67 131.903H194.347Z" fill="black"/>
</g>
<path d="M194.312 123.27H508.688L508.67 131.903H194.347L194.312 123.27Z" fill="#19B690"/>
<g opacity="0.8">
<path opacity="0.8" d="M200.884 131.903H502.062L502.045 140.502H200.901L200.884 131.903Z" fill="white"/>
</g>
<g opacity="0.7">
<path opacity="0.7" d="M502.151 309.777H200.426V313.566H502.151V309.777Z" fill="white"/>
</g>
<g opacity="0.8">
<path opacity="0.8" d="M502.134 497.8H201.043V501.571H502.134V497.8Z" fill="white"/>
</g>
<path d="M300.26 174.068H262.959V214.365H300.26V174.068Z" fill="#F1F1F1"/>
<path d="M371.903 174.068H334.602V214.365H371.903V174.068Z" fill="#F1F1F1"/>
<path d="M443.547 174.068H406.245V214.365H443.547V174.068Z" fill="#F1F1F1"/>
<path d="M300.26 234.399H262.959V274.696H300.26V234.399Z" fill="#F1F1F1"/>
<path d="M371.903 234.399H334.602V274.696H371.903V234.399Z" fill="#F1F1F1"/>
<path d="M443.547 234.399H406.245V274.696H443.547V234.399Z" fill="#F1F1F1"/>
<path d="M300.26 526.82H262.959V567.117H300.26V526.82Z" fill="#F1F1F1"/>
<path d="M371.903 526.82H334.602V567.117H371.903V526.82Z" fill="#F1F1F1"/>
<path d="M443.547 526.82H406.245V567.117H443.547V526.82Z" fill="#F1F1F1"/>
<path d="M260.299 611.661H222.997V651.958H260.299V611.661Z" fill="#F1F1F1"/>
<path d="M479.456 611.661H442.154V651.958H479.456V611.661Z" fill="#F1F1F1"/>
<path d="M300.26 345.317H262.959V385.614H300.26V345.317Z" fill="#F1F1F1"/>
<path d="M371.903 345.317H334.602V385.614H371.903V345.317Z" fill="#F1F1F1"/>
<path d="M443.547 345.317H406.245V385.614H443.547V345.317Z" fill="#F1F1F1"/>
<path d="M300.26 405.648H262.959V445.945H300.26V405.648Z" fill="#F1F1F1"/>
<path d="M371.903 405.648H334.602V445.945H371.903V405.648Z" fill="#F1F1F1"/>
<path d="M443.547 405.648H406.245V445.945H443.547V405.648Z" fill="#F1F1F1"/>
<g opacity="0.8">
<path opacity="0.8" d="M308.066 616.383H346.671L346.513 656.468H307.802L308.066 616.383Z" fill="white"/>
</g>
<g opacity="0.8">
<path opacity="0.8" d="M354.125 616.383H394.316L392.413 656.468H353.702L354.125 616.383Z" fill="white"/>
</g>
<path d="M400.466 664.538H298.604L298.199 656.469H400.853L400.466 664.538Z" fill="#19B690"/>
<g opacity="0.1">
<path opacity="0.1" d="M400.466 664.538H298.604L298.199 656.469H400.853L400.466 664.538Z" fill="white"/>
</g>
<path d="M404.571 673.066H295.01L294.569 665.12H404.976L404.571 673.066Z" fill="#F1F1F1"/>
<g opacity="0.4">
<path opacity="0.4" d="M408.2 602.181H291.098L290.587 593.107H408.659L408.2 602.181Z" fill="white"/>
</g>
<path d="M291.098 602.181L308.066 616.383H394.316L408.2 602.181H291.098Z" fill="#263238"/>
<path d="M299.027 608.824L305.018 656.398H309.776L307.855 608.824C306.492 608.124 304.982 607.758 303.45 607.758C301.918 607.758 300.408 608.124 299.045 608.824H299.027Z" fill="#F1F1F1"/>
<path d="M401.928 608.824L396.06 656.398H391.303L393.065 608.824C394.374 607.966 395.905 607.509 397.47 607.509C399.035 607.509 400.566 607.966 401.875 608.824H401.928Z" fill="#F1F1F1"/>
<path d="M251.841 110.196C251.841 102.407 257.814 96.8924 265.937 96.8924C268.021 96.7926 270.099 97.1766 272.01 98.0141C273.92 98.8517 275.611 100.12 276.949 101.72L272.351 105.879C271.639 104.95 270.725 104.198 269.677 103.679C268.629 103.159 267.476 102.887 266.307 102.883C264.367 102.883 262.508 103.654 261.136 105.025C259.765 106.396 258.995 108.256 258.995 110.196C258.995 112.135 259.765 113.995 261.136 115.366C262.508 116.737 264.367 117.508 266.307 117.508C267.477 117.508 268.631 117.238 269.679 116.718C270.728 116.198 271.642 115.444 272.351 114.512L276.949 118.688C275.608 120.285 273.917 121.552 272.007 122.389C270.097 123.226 268.02 123.612 265.937 123.516C257.814 123.516 251.841 118.054 251.841 110.196Z" fill="#263238"/>
<path d="M278.271 110.196C278.271 102.531 284.315 96.8925 292.508 96.8925C300.702 96.8925 306.728 102.531 306.728 110.196C306.728 117.86 300.702 123.516 292.508 123.516C284.315 123.516 278.271 117.878 278.271 110.196ZM299.415 110.196C299.34 108.844 298.87 107.545 298.063 106.458C297.257 105.371 296.15 104.544 294.879 104.079C293.608 103.615 292.229 103.533 290.911 103.844C289.594 104.154 288.397 104.844 287.468 105.828C286.538 106.812 285.918 108.047 285.682 109.379C285.447 110.712 285.608 112.085 286.144 113.327C286.68 114.57 287.569 115.628 288.7 116.371C289.831 117.114 291.155 117.509 292.508 117.508C293.453 117.517 294.389 117.331 295.258 116.962C296.127 116.592 296.911 116.047 297.559 115.361C298.208 114.674 298.708 113.861 299.027 112.972C299.346 112.083 299.479 111.138 299.415 110.196Z" fill="#263238"/>
<path d="M333.633 123.005V109.438L327.043 120.486H323.836L317.282 109.808V123.005H310.586V97.4034H316.559L325.545 112.169L334.355 97.4034H340.311V123.005H333.633Z" fill="#263238"/>
<path d="M368.468 106.883C368.468 112.68 364.08 116.31 357.103 116.31H352.628V123.005H345.403V97.4034H357.103C364.08 97.4034 368.468 101.016 368.468 106.883ZM361.156 106.883C361.156 104.504 359.658 103.112 356.662 103.112H352.628V110.601H356.662C359.658 110.601 361.156 109.244 361.156 106.883Z" fill="#263238"/>
<path d="M387.85 118.054H377.014L375.005 123.04H367.622L378.917 97.4386H386.053L397.312 123.005H389.788L387.85 118.054ZM385.718 112.768L382.423 104.592L379.146 112.768H385.718Z" fill="#263238"/>
<path d="M423.741 97.4034V123.005H417.786L406.491 109.367V123.005H399.443V97.4034H405.399L416.693 111.006V97.4034H423.741Z" fill="#263238"/>
<path d="M442.595 113.825V123.005H435.353V113.72L425.592 97.4034H433.239L439.318 107.57L445.379 97.4034H452.427L442.595 113.825Z" fill="#263238"/>
<path d="M200.884 131.903H502.062L502.045 140.502H200.901L200.884 131.903Z" fill="#19B690"/>
<path d="M549.161 407.251C539.7 420.008 536.035 425.875 532.37 429.487C528.37 433.434 487.527 430.421 482.593 428.36C478.823 426.774 481.43 421.876 483.21 422.122C489.941 423.056 515.208 418.598 522.696 415.356C524 414.775 536.792 399.216 536.792 399.216L549.161 407.251Z" fill="#B97964"/>
<path d="M533.621 398.811C541.621 384.133 557.39 373.368 562.165 372.751C569.037 371.852 571.345 373.227 569.337 378.742C565.919 388.133 559.628 398 550.765 409.947L533.621 398.811Z" fill="#19B690"/>
<g opacity="0.1">
<path opacity="0.1" d="M533.621 398.811C541.621 384.133 557.39 373.368 562.165 372.751C569.037 371.852 571.345 373.227 569.337 378.742C565.919 388.133 559.628 398 550.765 409.947L533.621 398.811Z" fill="black"/>
</g>
<path d="M562.166 372.751C566.029 371.347 569.971 370.17 573.971 369.227C581.279 367.47 588.705 366.245 596.19 365.562C600.544 365.094 604.92 364.853 609.299 364.84C609.744 364.834 610.187 364.882 610.621 364.981C612.269 365.391 613.695 366.425 614.598 367.863C615.501 369.302 615.813 371.035 615.466 372.698C608.119 411.55 607.766 428.783 608.823 448.799L564.104 450.385C563.535 450.388 562.984 450.186 562.551 449.818C562.118 449.449 561.831 448.938 561.743 448.376C559.752 438.298 553.567 415.903 553.567 415.903C547.982 410.528 547.048 403.903 546.519 400.045C546.202 397.948 550.889 395.675 555.981 384.574C555.893 384.574 559.875 373.544 562.166 372.751Z" fill="#19B690"/>
<path d="M590.428 449.416L574.129 450.015C571.698 430.633 572.156 413.524 573.002 394.247C577.848 412.927 583.665 431.341 590.428 449.416Z" fill="#263238"/>
<path d="M595.15 598.481C594.744 597.582 594.339 596.719 593.952 595.697C576.367 553.673 562.94 468.692 562.94 468.692L594.286 452.834C594.286 452.834 603.202 527.508 615.43 576.086C617.298 583.486 619.219 590.182 621.21 596.049L599.801 605.881L595.15 598.481Z" fill="#B97964"/>
<g opacity="0.8">
<path opacity="0.8" d="M595.15 598.481C594.744 597.582 594.339 596.719 593.952 595.697C576.367 553.673 562.94 468.692 562.94 468.692L594.286 452.834C594.286 452.834 603.202 527.508 615.43 576.086C617.298 583.486 619.219 590.182 621.21 596.049L599.801 605.881L595.15 598.481Z" fill="#263238"/>
</g>
<path d="M565.249 457.732C565.249 457.732 550.906 558.166 554.289 599.239C557.813 642.531 570.676 716.658 570.676 716.658L581.248 715.936C584.837 677.27 583.956 638.319 578.622 599.855C602.85 537.498 605.563 459.318 605.563 459.318L565.249 457.732Z" fill="#B97964"/>
<path opacity="0.8" d="M565.249 457.732C565.249 457.732 550.906 558.166 554.289 599.239C557.813 642.531 570.676 716.658 570.676 716.658L581.248 715.936C584.837 677.27 583.956 638.319 578.622 599.855C602.85 537.498 605.563 459.318 605.563 459.318L565.249 457.732Z" fill="#263238"/>
<path d="M582.622 719.248C583.358 720.653 583.761 722.209 583.802 723.794C584.084 729.591 584.49 745.044 584.49 745.044L583.221 745.132C583.221 745.132 582.446 737.555 581.565 733.767C580.684 729.979 580.102 733.238 578.164 737.379C576.226 741.52 570.781 745.766 562.5 746.542C552.791 747.44 548.827 747.264 551.487 744.533C554.148 741.802 560.509 739.758 560.509 739.758C560.509 739.758 568.966 725.292 568.473 715.53C567.944 705.117 579.979 714.896 582.305 713.434C583.133 713.61 582.146 718.403 582.622 719.248Z" fill="#263238"/>
<path d="M616.135 579.698C609.986 581.02 604.523 585.548 588.366 587.169H587.397C586.71 587.169 586.005 587.292 585.265 587.327C580.93 587.557 556.104 586.394 551.505 583.698C555.505 542.379 563.381 454.578 563.381 454.578L582.322 452.323L606.761 451.583C606.761 451.583 633.72 479.423 627.518 504.69C618.267 542.485 622.848 548.352 616.135 579.698Z" fill="#263238"/>
<path d="M608.594 428.941C607.946 428.291 607.452 427.504 607.147 426.638C606.842 425.773 606.735 424.85 606.832 423.937C606.832 423.937 606.832 421.153 606.744 416.889C606.603 404.555 606.497 379.887 607.783 376.61C610.603 369.562 615.431 365.703 617.95 369.826C620.91 374.654 621.122 411.286 621.122 411.286C620.364 435.531 611.484 432.324 608.594 428.941Z" fill="#B97964"/>
<path d="M602.726 364.117L601.246 366.778C595.537 377.068 582.322 390.477 577.16 391.781C575.954 388.988 574.099 386.524 571.75 384.592C570.377 385.27 569.156 386.222 568.162 387.388C567.168 388.555 566.423 389.911 565.971 391.375C561.548 384.186 561.936 375.094 563.046 370.601C565.654 369.808 568.438 368.998 571.081 368.346C578.395 366.653 585.82 365.475 593.299 364.822C596.424 364.389 599.572 364.154 602.726 364.117Z" fill="#19B690"/>
<path opacity="0.8" d="M602.727 364.117L601.246 366.778C595.538 377.068 582.323 390.477 577.16 391.781C576.187 389.284 575.369 386.73 574.711 384.134C571.944 385.508 569.9 389.42 568.984 392.38C564.544 385.191 561.936 375.094 563.046 370.601C565.654 369.808 568.438 368.998 571.081 368.346C578.396 366.653 585.82 365.475 593.3 364.822C596.424 364.389 599.573 364.154 602.727 364.117Z" fill="white"/>
<path d="M568.72 414.528L562.588 406.212L557.108 417.065C557.108 417.065 562.712 420.202 567.363 419.145L568.72 414.528Z" fill="#B97964"/>
<path d="M552.879 403.657L550.271 412.431L557.108 417.013L562.588 406.212L552.879 403.657Z" fill="#B97964"/>
<path d="M608.753 453.909L586.111 454.525H584.208L579.31 454.666H577.442L564.139 455.019C563.734 455.019 563.364 454.807 563.346 454.543L562.817 450.279C562.817 449.997 563.152 449.733 563.61 449.715L576.755 449.187H578.323L584.825 448.94H586.358L608.171 448.077C608.321 448.06 608.473 448.082 608.611 448.141C608.75 448.199 608.872 448.292 608.964 448.411L609.493 453.257C609.704 453.539 609.317 453.891 608.753 453.909Z" fill="#19B690"/>
<path opacity="0.2" d="M608.753 453.909L586.111 454.525H584.208L579.31 454.666H577.442L564.139 455.019C563.734 455.019 563.364 454.807 563.346 454.543L562.817 450.279C562.817 449.997 563.152 449.733 563.61 449.715L576.755 449.187H578.323L584.825 448.94H586.358L608.171 448.077C608.321 448.06 608.473 448.082 608.611 448.141C608.75 448.199 608.872 448.292 608.964 448.411L609.493 453.257C609.704 453.539 609.317 453.891 608.753 453.909Z" fill="white"/>
<path d="M570.447 455.495H571.891C571.949 455.507 572.008 455.508 572.065 455.495C572.123 455.483 572.177 455.459 572.224 455.423C572.27 455.388 572.309 455.343 572.337 455.292C572.365 455.24 572.381 455.183 572.385 455.125L571.574 449.081C571.574 448.905 571.292 448.746 570.993 448.746H569.548C569.249 448.746 569.037 448.922 569.055 449.099L569.865 455.16C569.913 455.271 569.996 455.363 570.101 455.423C570.205 455.483 570.327 455.508 570.447 455.495Z" fill="#263238"/>
<path d="M595.678 455.125H597.052C597.105 455.137 597.159 455.139 597.212 455.13C597.265 455.121 597.315 455.101 597.36 455.071C597.405 455.041 597.443 455.002 597.472 454.957C597.501 454.911 597.52 454.861 597.528 454.807L596.7 448.728C596.7 448.57 596.418 448.411 596.154 448.429H594.78C594.498 448.429 594.304 448.57 594.321 448.764L595.132 454.79C595.15 455.001 595.396 455.125 595.678 455.125Z" fill="#263238"/>
<path d="M603.185 481.22L599.661 479.969L615.342 433.047C617.844 425.593 616.893 418.475 607.642 415.215C598.991 412.167 592.19 416.519 589.67 424.025L573.812 470.806L570.288 469.555L586.146 422.81C589.071 414.158 594.709 408.291 608.312 413.101C621.915 417.911 621.65 425.664 618.743 434.351L603.185 481.22Z" fill="#19B690"/>
<path d="M612.047 510.169L543.329 485.501L558.905 440.007C559.251 438.953 559.803 437.978 560.529 437.14C561.256 436.302 562.142 435.617 563.136 435.125C564.13 434.633 565.212 434.343 566.319 434.274C567.426 434.205 568.535 434.356 569.583 434.721L619.659 452.517C622.396 453.529 624.633 455.565 625.899 458.194C627.164 460.824 627.359 463.842 626.443 466.613L612.047 510.169Z" fill="#19B690"/>
<path opacity="0.4" d="M604.436 507.456L550.889 488.215C548.866 487.453 547.222 485.929 546.309 483.969C545.397 482.009 545.289 479.77 546.008 477.731L558.924 440.007C559.269 438.953 559.821 437.978 560.548 437.14C561.274 436.302 562.16 435.617 563.154 435.125C564.148 434.633 565.23 434.343 566.337 434.274C567.444 434.205 568.554 434.356 569.601 434.721L619.677 452.517C622.414 453.529 624.651 455.565 625.917 458.194C627.182 460.824 627.377 463.842 626.461 466.613L614.638 502.329C614.32 503.345 613.8 504.287 613.11 505.099C612.421 505.91 611.575 506.575 610.623 507.054C609.672 507.532 608.633 507.814 607.57 507.883C606.508 507.952 605.442 507.807 604.436 507.456Z" fill="white"/>
<g opacity="0.3">
<path opacity="0.3" d="M603.184 481.22L600.418 483.634L599.696 479.969L615.377 433.047C617.879 425.593 616.928 418.475 607.678 415.215C599.026 412.167 592.225 416.519 589.705 424.025L573.847 470.806L570.993 473.185L570.376 469.555L586.234 422.81C589.159 414.158 594.797 408.291 608.4 413.101C622.003 417.911 621.738 425.664 618.831 434.351L603.184 481.22Z" fill="white"/>
</g>
<path d="M580.983 452.975L575.257 450.931L575.979 448.764L581.706 450.808L580.983 452.975Z" fill="#19B690"/>
<path d="M576.226 467.036L570.481 464.992L571.222 462.824L576.948 464.868L576.226 467.036Z" fill="#19B690"/>
<path d="M610.427 463.476L604.683 461.433L605.405 459.248L611.149 461.292L610.427 463.476Z" fill="#19B690"/>
<path d="M605.722 477.59L599.96 475.529L600.682 473.344L606.444 475.405L605.722 477.59Z" fill="#19B690"/>
<path d="M599.061 460.816L586.763 456.428L588.313 451.777L600.612 456.164L599.061 460.816Z" fill="white"/>
<path d="M613.897 431.108C608.382 434.28 586.075 430.703 567.204 419.356C566.323 418.81 565.442 418.88 565.108 418.669C563.927 417.805 566.87 415.814 568.632 414.898C569.601 414.405 611.237 419.673 614.109 420.061C617.369 428.554 614.426 428.448 613.897 431.108Z" fill="#B97964"/>
<path d="M596.119 601.882C599.15 610.533 609.317 614.339 616.435 608.93C616.723 608.709 617 608.474 617.263 608.225C648.098 579.68 687.32 538.079 687.32 538.079L680.713 529.71C657.611 543.099 635.788 558.581 615.519 575.963C608.471 582.006 601.159 588.614 594.04 595.662L596.119 601.882Z" fill="#B97964"/>
<path opacity="0.8" d="M596.119 601.882C599.15 610.533 609.317 614.339 616.435 608.93C616.723 608.709 617 608.474 617.263 608.225C648.098 579.68 687.32 538.079 687.32 538.079L680.713 529.71C657.611 543.099 635.788 558.581 615.519 575.963C608.471 582.006 601.159 588.614 594.04 595.662L596.119 601.882Z" fill="#263238"/>
<path d="M676.713 530.767C677.148 529.351 677.922 528.063 678.969 527.014C682.669 523.155 692.677 513.218 692.677 513.218L693.576 514.116C693.576 514.116 689.065 519.402 687.127 522.433C685.188 525.464 687.743 523.843 691.778 522.697C695.813 521.552 702.262 522.944 708.288 528.618C715.336 535.296 717.909 538.379 714.332 538.08C710.755 537.78 705.134 534.362 705.134 534.362C705.134 534.362 689.858 537.163 683.655 543.7C676.995 550.748 675.55 535.472 673.083 534.644C672.555 533.886 676.449 531.648 676.713 530.767Z" fill="#263238"/>
<path d="M570.887 362.831C574.199 366.778 576.772 371.641 572.367 377.368C571.401 378.59 570.89 380.109 570.922 381.667C571.028 384.151 572.684 386.477 580.296 381.156C591.396 373.474 589.881 365.774 589.881 365.774C583.679 364.329 579.168 351.678 577.265 344.506L570.887 362.831Z" fill="#B97964"/>
<path opacity="0.2" d="M577.371 355.554C578.463 358.62 575.521 363.835 573.16 365.985C572.507 364.866 571.752 363.81 570.904 362.831L574.675 351.977C575.805 352.976 576.722 354.192 577.371 355.554Z" fill="black"/>
<path d="M544.405 329.194C541.445 340.7 545.85 353.316 553.972 361.985C562.183 352.981 577.707 354.937 586.34 346.339C592.12 340.63 593.177 331.045 589.6 323.75C585.759 315.891 574.412 308.315 565.461 309.548C555.435 310.94 546.889 319.503 544.405 329.194Z" fill="#263238"/>
<path d="M578.605 325.283C577.411 323.529 575.883 322.027 574.108 320.864C572.333 319.701 570.346 318.899 568.261 318.505C566.176 318.11 564.034 318.131 561.957 318.565C559.88 319 557.909 319.839 556.157 321.036C545.743 328.084 547.682 345.705 552.333 355.66C557.443 366.796 572.367 367.254 579.327 356.329C583.996 349.052 583.01 344.083 581.283 332.26C580.941 329.759 580.025 327.371 578.605 325.283Z" fill="#B97964"/>
<path d="M558.218 349.951C557.667 350.21 557.065 350.345 556.456 350.345C555.847 350.345 555.246 350.21 554.694 349.951C555.718 347.8 556.436 345.517 556.826 343.167L558.218 349.951Z" fill="#864718"/>
<path d="M567.258 348.876C567.275 348.842 567.284 348.804 567.285 348.766C567.286 348.728 567.279 348.69 567.264 348.654C567.249 348.619 567.226 348.588 567.198 348.562C567.169 348.536 567.135 348.517 567.099 348.506C567.029 348.482 566.952 348.485 566.883 348.514C566.815 348.543 566.76 348.597 566.729 348.665C566.218 349.758 565.452 350.713 564.495 351.448C563.538 352.184 562.419 352.68 561.231 352.893C561.16 352.917 561.1 352.966 561.061 353.031C561.022 353.095 561.008 353.171 561.02 353.246C561.026 353.281 561.039 353.314 561.059 353.344C561.079 353.374 561.104 353.399 561.133 353.419C561.163 353.439 561.196 353.452 561.231 353.459C561.266 353.465 561.302 353.465 561.337 353.457C561.792 353.369 562.24 353.246 562.676 353.087C563.683 352.728 564.607 352.17 565.394 351.446C566.181 350.723 566.815 349.849 567.258 348.876Z" fill="#263238"/>
<path d="M558.888 315.662C557.954 317.162 557.353 318.844 557.126 320.596C570.887 323.767 581.036 338.216 584.948 351.907C588.666 347.008 595.96 341.017 598.797 335.132C601.951 328.525 597.74 321.036 591.397 317.336C585.781 314.564 579.947 312.26 573.953 310.447C571.219 309.521 568.255 309.531 565.528 310.475C562.8 311.419 560.464 313.244 558.888 315.662Z" fill="#263238"/>
<path d="M586.463 339.379C586.363 338.876 586.163 338.399 585.877 337.973C585.591 337.548 585.224 337.183 584.797 336.9C584.37 336.617 583.891 336.42 583.388 336.323C582.884 336.225 582.367 336.228 581.865 336.331C578.957 336.965 577.9 341.035 578.076 343.643C578.323 346.515 580.561 348.506 583.028 346.709C584.909 345.345 586.176 343.293 586.552 341C586.629 340.459 586.599 339.908 586.463 339.379Z" fill="#B97964"/>
<path d="M563.787 338.304C564.104 339.449 563.787 340.559 562.976 340.771C562.165 340.982 561.373 340.207 561.073 339.009C560.773 337.811 561.073 336.753 561.866 336.56C562.659 336.366 563.469 337.053 563.787 338.304Z" fill="#263238"/>
<path d="M553.285 341.987C553.602 343.132 553.285 344.242 552.474 344.436C551.664 344.63 550.871 343.872 550.554 342.674C550.237 341.476 550.554 340.418 551.364 340.207C552.175 339.996 552.985 340.806 553.285 341.987Z" fill="#263238"/>
<path d="M551.717 340.225H548.739C548.739 340.225 550.73 341.951 551.717 340.225Z" fill="#263238"/>
<path d="M566.006 333.018C566.094 332.967 566.166 332.894 566.218 332.807C566.3 332.677 566.33 332.521 566.301 332.37C566.271 332.219 566.185 332.085 566.059 331.996C565.16 331.378 564.124 330.987 563.041 330.858C561.957 330.73 560.859 330.866 559.839 331.256C559.702 331.325 559.595 331.442 559.539 331.586C559.484 331.729 559.484 331.888 559.54 332.031C559.605 332.168 559.72 332.274 559.86 332.33C560.001 332.385 560.157 332.386 560.298 332.331C561.145 332.018 562.054 331.914 562.95 332.028C563.845 332.141 564.7 332.469 565.443 332.983C565.527 333.033 565.622 333.063 565.72 333.069C565.818 333.075 565.916 333.058 566.006 333.018Z" fill="#263238"/>
<path d="M548.298 339.308C548.366 339.234 548.425 339.151 548.474 339.062C548.785 338.215 549.292 337.455 549.954 336.842C550.615 336.23 551.412 335.783 552.28 335.538C552.432 335.512 552.567 335.427 552.656 335.301C552.745 335.176 552.781 335.02 552.756 334.868C552.739 334.792 552.708 334.721 552.663 334.658C552.618 334.594 552.562 334.541 552.496 334.5C552.43 334.459 552.357 334.431 552.281 334.419C552.204 334.406 552.126 334.409 552.051 334.428C550.994 334.709 550.02 335.237 549.208 335.969C548.396 336.702 547.77 337.617 547.382 338.639C547.349 338.708 547.33 338.783 547.327 338.86C547.323 338.937 547.335 339.013 547.361 339.085C547.387 339.157 547.428 339.223 547.479 339.28C547.531 339.336 547.594 339.382 547.663 339.414C547.767 339.457 547.881 339.471 547.993 339.456C548.104 339.44 548.209 339.396 548.298 339.326V339.308Z" fill="#263238"/>
<path d="M562.218 336.542H559.24C559.24 336.542 561.178 338.181 562.218 336.542Z" fill="#263238"/>
<path d="M546.677 345.81C548.034 353.052 553.901 363.043 560.157 366.954C555.945 370.143 548.404 366.531 543.964 363.695C541.784 362.195 539.949 360.249 538.579 357.986C537.209 355.723 536.335 353.194 536.017 350.568C535.402 345.301 536.116 339.964 538.096 335.044C541.328 327.08 546.686 320.156 553.584 315.028C554.923 313.936 557.214 313.072 558.095 314.552C558.712 315.574 558.007 316.861 557.337 317.83C550.836 327.239 545.726 333.864 546.677 345.81Z" fill="#263238"/>
<path d="M579.381 359.043H579.275C579.163 359.014 579.068 358.942 579.008 358.843C578.949 358.744 578.931 358.626 578.958 358.514C583.662 339.502 563.276 325.036 556.915 320.983C556.818 320.922 556.749 320.825 556.723 320.713C556.696 320.601 556.715 320.483 556.774 320.384C556.803 320.334 556.842 320.291 556.888 320.257C556.934 320.222 556.987 320.198 557.043 320.185C557.099 320.171 557.158 320.17 557.214 320.18C557.271 320.19 557.325 320.212 557.373 320.243C563.875 324.314 584.667 339.132 579.821 358.725C579.794 358.82 579.735 358.902 579.655 358.96C579.576 359.017 579.479 359.047 579.381 359.043Z" fill="#263238"/>
<path d="M582.957 345.264L582.569 351.977L584.367 353.457L585.248 351.396L582.957 345.264Z" fill="#19B690"/>
<path d="M612.646 365.439C611.241 365.081 609.766 365.097 608.368 365.487C606.971 365.876 605.7 366.625 604.682 367.659C602.437 370.13 601.02 373.241 600.63 376.557C599.978 381.632 601.264 386.777 602.638 391.728C604.321 396.611 605.26 401.719 605.422 406.881C610.814 403.939 618.655 398.071 626.196 397.296C625.157 385.297 623.765 377.297 621.439 373.333C620.236 370.972 618.619 368.848 616.664 367.06C615.447 366.256 614.081 365.705 612.646 365.439Z" fill="#19B690"/>
<g opacity="0.1">
<path opacity="0.1" d="M612.646 365.439C611.241 365.081 609.766 365.097 608.368 365.487C606.971 365.876 605.7 366.625 604.682 367.659C602.437 370.13 601.02 373.241 600.63 376.557C599.978 381.632 601.264 386.777 602.638 391.728C604.321 396.611 605.26 401.719 605.422 406.881C610.814 403.939 618.655 398.071 626.196 397.296C625.157 385.297 623.765 377.297 621.439 373.333C620.236 370.972 618.619 368.848 616.664 367.06C615.447 366.256 614.081 365.705 612.646 365.439Z" fill="white"/>
</g>
<path d="M484.232 421.999C484.232 421.999 470.929 424.202 470.752 424.801C470.576 425.4 470.647 432.888 470.647 432.888L482.593 428.36L484.232 421.999Z" fill="#B97964"/>
<path d="M470.647 432.888L459.405 422.299L464.427 420.836L472.761 425.365L470.647 432.888Z" fill="#B97964"/>
</svg>
