<svg width="768" height="768" viewBox="0 0 768 768" fill="none" xmlns="http://www.w3.org/2000/svg">
<path d="M197.345 539.566C179.881 510.075 195.809 459.126 210.754 436.132C227.957 409.682 258.263 398.392 286.556 389.821C322.253 379.069 342.681 370.929 356.167 332.314C368.041 298.322 372.848 262.164 388.147 229.663C419.42 163.2 470.707 95.7542 549.627 119.946C622.003 142.141 665.441 216.714 625.766 287.37C592.281 347.013 513.362 298.721 502.256 379.761C491.904 455.24 577.828 520.259 528.722 591.729C479.877 662.83 412.953 556.585 360.683 527.57C327.122 508.938 322.007 553.682 295.357 569.211C263.163 587.935 219.433 576.891 197.345 539.566Z" fill="#19B690"/>
<path opacity="0.9" d="M197.345 539.566C179.881 510.075 195.809 459.126 210.754 436.132C227.957 409.682 258.263 398.392 286.556 389.821C322.253 379.069 342.681 370.929 356.167 332.314C368.041 298.322 372.848 262.164 388.147 229.663C419.42 163.2 470.707 95.7542 549.627 119.946C622.003 142.141 665.441 216.714 625.766 287.37C592.281 347.013 513.362 298.721 502.256 379.761C491.904 455.24 577.828 520.259 528.722 591.729C479.877 662.83 412.953 556.585 360.683 527.57C327.122 508.938 322.007 553.682 295.357 569.211C263.163 587.935 219.433 576.891 197.345 539.566Z" fill="white"/>
<path d="M384 656.732C219.522 656.732 86.1853 648.948 86.1853 639.345C86.1853 629.742 219.522 621.957 384 621.957C548.479 621.957 681.815 629.742 681.815 639.345C681.815 648.948 548.479 656.732 384 656.732Z" fill="#F5F5F5"/>
<path d="M414.52 635.32C414.365 635.794 414.328 636.298 414.411 636.789C414.494 637.281 414.696 637.744 414.998 638.14C415.3 638.536 415.694 638.853 416.146 639.063C416.598 639.273 417.095 639.369 417.592 639.345H631.557C638.239 639.345 638.239 595.83 631.557 595.83H417.531C417.035 595.806 416.541 595.903 416.09 596.112C415.64 596.321 415.247 596.636 414.945 597.03C414.643 597.424 414.441 597.885 414.356 598.374C414.272 598.864 414.307 599.366 414.459 599.839C417.132 608.133 417.132 627.041 414.52 635.32Z" fill="#19B690"/>
<path opacity="0.8" d="M414.828 600.914H544.666C549.781 600.914 549.781 634.26 544.666 634.26H414.828C417.024 625.889 417.024 609.27 414.828 600.914Z" fill="white"/>
<path opacity="0.2" d="M551.132 635.32C550.977 635.794 550.94 636.298 551.023 636.789C551.106 637.281 551.307 637.744 551.61 638.14C551.912 638.536 552.306 638.853 552.758 639.063C553.21 639.273 553.707 639.369 554.204 639.345H631.557C638.239 639.345 638.239 595.83 631.557 595.83H554.143C553.647 595.806 553.153 595.903 552.702 596.112C552.252 596.321 551.859 596.636 551.557 597.03C551.255 597.424 551.053 597.885 550.968 598.374C550.884 598.864 550.919 599.366 551.071 599.839C553.743 608.133 553.743 627.041 551.132 635.32Z" fill="black"/>
<path d="M598.564 595.83H616.244C622.925 595.83 622.925 639.345 616.244 639.345H598.564C605.184 639.345 605.184 595.83 598.564 595.83Z" fill="#19B690"/>
<path d="M584.632 595.83H591.575C598.256 595.83 598.256 639.345 591.575 639.345H584.632C591.36 639.345 591.36 595.83 584.632 595.83Z" fill="#19B690"/>
<path d="M644.029 592.22C644.767 594.002 642.954 595.83 640.497 595.83H448.066C440.218 595.83 440.218 556.708 448.066 556.708H640.512C642.97 556.708 644.782 558.52 644.045 560.317C640.973 567.767 640.973 584.77 644.029 592.22Z" fill="#263238"/>
<path opacity="0.2" d="M644.029 592.22C644.767 594.002 642.954 595.83 640.497 595.83H546.14C538.291 595.83 538.291 556.708 546.14 556.708H640.512C642.97 556.708 644.782 558.52 644.045 560.317C640.973 567.767 640.973 584.77 644.029 592.22Z" fill="black"/>
<path opacity="0.8" d="M643.691 561.27H549.995C543.99 561.27 543.99 591.252 549.995 591.252H643.691C641.111 583.68 641.111 568.796 643.691 561.27Z" fill="white"/>
<path opacity="0.2" d="M518.876 565.432C519.46 563.697 517.77 562.007 515.435 562.007H461.568C455.854 562.007 455.854 590.515 461.568 590.515H515.435C517.77 590.515 519.46 588.841 518.876 587.105C517.033 579.999 517.033 572.539 518.876 565.432Z" fill="white"/>
<path d="M129.439 574.756C129.269 575.275 129.22 575.827 129.296 576.368C129.373 576.91 129.572 577.426 129.879 577.878C130.186 578.331 130.592 578.707 131.067 578.978C131.542 579.248 132.073 579.407 132.618 579.441H358.717C365.783 579.441 365.783 528.753 358.717 528.753H132.618C132.081 528.79 131.56 528.947 131.093 529.213C130.625 529.48 130.224 529.848 129.918 530.291C129.613 530.733 129.411 531.239 129.328 531.771C129.245 532.302 129.283 532.846 129.439 533.361C132.188 543.114 132.188 565.125 129.439 574.756Z" fill="#19B690"/>
<path opacity="0.5" d="M129.439 574.756C129.269 575.275 129.22 575.827 129.296 576.368C129.373 576.91 129.572 577.426 129.879 577.878C130.186 578.331 130.592 578.707 131.067 578.978C131.542 579.248 132.073 579.407 132.618 579.441H358.717C365.783 579.441 365.783 528.753 358.717 528.753H132.618C132.081 528.79 131.56 528.947 131.093 529.213C130.625 529.48 130.224 529.848 129.918 530.291C129.613 530.733 129.411 531.239 129.328 531.771C129.245 532.302 129.283 532.846 129.439 533.361C132.188 543.114 132.188 565.125 129.439 574.756Z" fill="white"/>
<path opacity="0.8" d="M129.746 534.712H266.926C272.333 534.712 272.333 573.512 266.926 573.512H129.746C132.096 563.789 132.096 544.451 129.746 534.712Z" fill="white"/>
<path opacity="0.6" d="M273.761 574.756C273.591 575.275 273.543 575.827 273.619 576.368C273.695 576.91 273.894 577.426 274.201 577.878C274.508 578.331 274.915 578.707 275.39 578.978C275.865 579.248 276.395 579.407 276.941 579.441H358.717C365.783 579.441 365.783 528.753 358.717 528.753H276.941C276.404 528.79 275.883 528.947 275.415 529.213C274.948 529.48 274.546 529.848 274.241 530.291C273.935 530.733 273.733 531.239 273.65 531.771C273.567 532.302 273.605 532.846 273.761 533.361C276.48 543.114 276.48 565.125 273.761 574.756Z" fill="#19B690"/>
<path opacity="0.5" d="M306.939 532.547C306.778 532.15 306.714 531.721 306.749 531.294C306.785 530.868 306.921 530.456 307.145 530.091C307.369 529.727 307.676 529.42 308.04 529.195C308.404 528.971 308.816 528.835 309.243 528.799H340.423C347.489 528.799 347.489 579.487 340.423 579.487H309.243C308.816 579.448 308.404 579.31 308.039 579.084C307.675 578.858 307.369 578.55 307.145 578.184C306.921 577.818 306.786 577.405 306.75 576.978C306.714 576.551 306.779 576.121 306.939 575.724C310.087 566.308 310.087 541.932 306.939 532.547Z" fill="white"/>
<path d="M145.659 633.769C145.477 634.443 145.458 635.15 145.604 635.832C145.75 636.515 146.056 637.152 146.498 637.693C146.939 638.233 147.503 638.661 148.142 638.94C148.782 639.219 149.479 639.342 150.175 639.299H385.091C395.121 639.299 395.136 579.394 385.091 579.394H150.083C149.386 579.351 148.69 579.474 148.05 579.753C147.411 580.032 146.847 580.46 146.406 581C145.964 581.541 145.658 582.178 145.512 582.861C145.366 583.543 145.385 584.25 145.567 584.924C149.576 596.337 149.561 622.372 145.659 633.769Z" fill="#19B690"/>
<path opacity="0.2" d="M145.659 633.769C145.477 634.443 145.458 635.15 145.604 635.832C145.75 636.515 146.056 637.152 146.498 637.693C146.939 638.233 147.503 638.661 148.142 638.94C148.782 639.219 149.479 639.342 150.175 639.299H385.091C395.121 639.299 395.136 579.394 385.091 579.394H150.083C149.386 579.351 148.69 579.474 148.05 579.753C147.411 580.032 146.847 580.46 146.406 581C145.964 581.541 145.658 582.178 145.512 582.861C145.366 583.543 145.385 584.25 145.567 584.924C149.576 596.337 149.561 622.372 145.659 633.769Z" fill="white"/>
<path opacity="0.8" d="M146.119 586.399H288.153C295.833 586.399 295.833 632.294 288.153 632.294H146.104C149.391 620.79 149.391 597.919 146.119 586.399Z" fill="white"/>
<path opacity="0.6" d="M297.861 633.8C297.676 634.472 297.655 635.179 297.798 635.862C297.942 636.545 298.247 637.183 298.687 637.724C299.127 638.265 299.691 638.693 300.33 638.972C300.969 639.251 301.666 639.374 302.362 639.329H385.091C395.121 639.329 395.136 579.425 385.091 579.425H302.362C301.665 579.382 300.969 579.504 300.329 579.784C299.69 580.063 299.126 580.49 298.685 581.031C298.243 581.571 297.937 582.209 297.791 582.892C297.645 583.574 297.664 584.281 297.846 584.955C301.763 596.367 301.763 622.387 297.861 633.8Z" fill="#19B690"/>
<path opacity="0.5" d="M347.412 581.514C347.284 581.295 347.219 581.044 347.224 580.79C347.229 580.536 347.304 580.289 347.44 580.074C347.577 579.86 347.77 579.688 347.998 579.576C348.226 579.464 348.48 579.417 348.733 579.441H362.788C372.803 579.441 372.803 639.345 362.788 639.345H348.672C348.419 639.368 348.164 639.321 347.936 639.209C347.708 639.098 347.515 638.925 347.379 638.711C347.242 638.497 347.168 638.249 347.163 637.995C347.158 637.741 347.223 637.49 347.351 637.271C353.449 628.009 353.449 590.761 347.412 581.514Z" fill="white"/>
<path opacity="0.5" d="M325.479 581.514C325.352 581.294 325.288 581.043 325.294 580.789C325.299 580.535 325.374 580.287 325.51 580.072C325.646 579.857 325.838 579.683 326.065 579.569C326.292 579.455 326.546 579.406 326.8 579.425H340.854C350.869 579.425 350.869 639.329 340.854 639.329H326.8C326.548 639.35 326.296 639.301 326.07 639.187C325.844 639.074 325.653 638.902 325.519 638.688C325.384 638.474 325.311 638.228 325.307 637.975C325.302 637.723 325.367 637.474 325.494 637.256C331.515 628.009 331.515 590.746 325.479 581.514Z" fill="white"/>
<path d="M147.963 496.927C148.235 492.661 149.238 488.473 150.928 484.547L149.545 483.871C147.789 487.964 146.75 492.328 146.473 496.773L147.963 496.927Z" fill="#19B690"/>
<path d="M157.594 477.896H195.748V479.432H157.594V477.896Z" fill="#19B690"/>
<path d="M406.257 524.605C407.04 526.694 405.12 528.799 402.524 528.799H157.594C149.315 528.799 149.315 483.272 157.594 483.272H402.524C405.12 483.272 407.04 485.391 406.257 487.48C403.031 496.128 403.031 515.927 406.257 524.605Z" fill="#19B690"/>
<path opacity="0.2" d="M406.257 524.605C407.04 526.694 405.12 528.799 402.524 528.799H261.212C252.918 528.799 252.918 483.272 261.212 483.272H402.524C405.12 483.272 407.04 485.391 406.257 487.48C403.031 496.128 403.031 515.927 406.257 524.605Z" fill="black"/>
<path opacity="0.8" d="M405.888 488.602H265.313C258.954 488.602 258.954 523.484 265.313 523.484H405.888C403.169 514.729 403.169 497.357 405.888 488.602Z" fill="white"/>
<path opacity="0.2" d="M232.412 493.425C233.027 491.412 231.245 489.462 228.787 489.462H171.863C165.826 489.462 165.826 522.624 171.863 522.624H228.787C231.245 522.624 233.027 520.673 232.412 518.646C230.4 512.271 230.4 499.814 232.412 493.425Z" fill="white"/>
<path d="M429.158 150.528C436.086 157.947 452.997 150.528 455.578 170.957C458.373 192.983 447.775 203.566 461.46 209.357C482.964 218.342 498.324 254.254 468.465 267.725C438.605 281.195 375.014 267.08 382.172 239.631C389.33 212.183 387.917 197.453 379.469 184.52C368.333 167.424 370.714 145.459 379.791 137.503C393.922 125.061 413.445 133.632 429.158 150.528Z" fill="#263238"/>
<path d="M392.201 238.894C392.319 238.899 392.433 238.858 392.522 238.781C392.61 238.704 392.666 238.596 392.678 238.479C392.688 238.418 392.687 238.354 392.672 238.293C392.658 238.232 392.631 238.175 392.594 238.125C392.556 238.074 392.509 238.032 392.455 238.001C392.401 237.969 392.34 237.949 392.278 237.942C386.349 237.128 382.816 235.668 381.158 233.334C379.099 230.431 379.99 226.115 381.158 220.646C382.97 211.753 385.474 199.572 377.487 184.182C367.794 165.519 371.343 145.06 380.42 138.363C380.522 138.289 380.59 138.178 380.61 138.055C380.63 137.931 380.6 137.804 380.528 137.702C380.451 137.6 380.338 137.532 380.212 137.512C380.086 137.492 379.957 137.521 379.852 137.595C370.39 144.522 366.735 165.535 376.642 184.627C384.46 199.711 382.002 211.707 380.221 220.462C379.053 226.145 378.132 230.646 380.436 233.887C382.248 236.452 385.981 238.034 392.186 238.894H392.201Z" fill="#263238"/>
<path d="M469.647 212.291C470.617 212.286 471.586 212.225 472.55 212.106C472.612 212.099 472.673 212.079 472.728 212.047C472.783 212.016 472.831 211.974 472.87 211.924C472.908 211.874 472.936 211.817 472.953 211.756C472.969 211.695 472.973 211.631 472.964 211.569C472.957 211.506 472.937 211.445 472.906 211.39C472.874 211.335 472.832 211.287 472.782 211.249C472.732 211.21 472.675 211.182 472.614 211.165C472.553 211.149 472.489 211.145 472.427 211.154C468.064 211.692 464.9 211.046 462.765 209.172C458.772 205.655 458.71 198.298 458.664 189.773C458.664 180.127 458.526 169.206 452.274 161.756C452.234 161.708 452.185 161.668 452.129 161.638C452.073 161.609 452.012 161.591 451.949 161.585C451.886 161.58 451.823 161.586 451.763 161.605C451.703 161.624 451.647 161.654 451.599 161.695C451.55 161.735 451.51 161.785 451.481 161.84C451.452 161.896 451.434 161.957 451.428 162.02C451.422 162.083 451.429 162.146 451.448 162.206C451.466 162.266 451.497 162.322 451.537 162.371C457.574 169.559 457.681 180.296 457.681 189.788C457.681 198.528 457.789 206.085 462.105 209.894C464.233 211.604 466.922 212.458 469.647 212.291Z" fill="#263238"/>
<path d="M318.889 483.241C329.134 483.118 333.158 482.473 337.874 482.55C342.589 482.627 343.71 483.456 348.626 483.241C351.943 483.103 351.959 479.155 350.684 476.452C349.685 474.332 348.457 472.197 347.32 469.555L334.325 470.507C332.574 475.453 323.881 477.573 316.262 479.324C313.236 480.046 314.787 483.287 318.889 483.241Z" fill="#19B690"/>
<path d="M386.642 294.543C386.642 294.543 352.266 324.111 317.522 355.476C302.837 368.763 333.634 470.062 333.634 470.062C334.279 472.228 345.738 469.14 347.458 467.435C347.458 467.435 349.209 388.808 341.76 372.971C418.805 353.495 430.848 315.663 430.848 315.663L425.318 292.193L386.642 294.543Z" fill="#263238"/>
<path opacity="0.2" d="M425.764 324.987C421.451 331.015 416.341 336.43 410.573 341.084C402.893 332.099 405.043 317.583 405.043 317.583L425.764 324.987Z" fill="black"/>
<path d="M330.962 465.684C331.177 467.22 331.545 469.939 331.745 471.951C331.776 472.277 331.93 472.579 332.175 472.796C332.42 473.012 332.739 473.128 333.066 473.119C338.206 472.716 343.297 471.831 348.272 470.477C348.512 470.41 348.724 470.268 348.876 470.072C349.028 469.875 349.113 469.635 349.117 469.386L349.225 463.78C349.225 463.597 349.188 463.417 349.115 463.25C349.042 463.083 348.934 462.933 348.8 462.81C348.665 462.687 348.506 462.594 348.334 462.536C348.161 462.478 347.978 462.457 347.796 462.474L331.945 464.394C331.794 464.411 331.648 464.458 331.516 464.533C331.384 464.608 331.269 464.708 331.177 464.829C331.085 464.95 331.019 465.088 330.982 465.235C330.945 465.382 330.938 465.535 330.962 465.684Z" fill="#263238"/>
<path opacity="0.3" d="M330.962 465.684C331.177 467.22 331.545 469.939 331.745 471.951C331.776 472.277 331.93 472.579 332.175 472.796C332.42 473.012 332.739 473.128 333.066 473.119C338.206 472.716 343.297 471.831 348.272 470.477C348.512 470.41 348.724 470.268 348.876 470.072C349.028 469.875 349.113 469.635 349.117 469.386L349.225 463.78C349.225 463.597 349.188 463.417 349.115 463.25C349.042 463.083 348.934 462.933 348.8 462.81C348.665 462.687 348.506 462.594 348.334 462.536C348.161 462.478 347.978 462.457 347.796 462.474L331.945 464.394C331.794 464.411 331.648 464.458 331.516 464.533C331.384 464.608 331.269 464.708 331.177 464.829C331.085 464.95 331.019 465.088 330.982 465.235C330.945 465.382 330.938 465.535 330.962 465.684Z" fill="white"/>
<path d="M469.294 556.708C479.708 556.708 483.118 552.791 488.939 551.716C493.854 550.794 495.16 551.224 499.123 550.533C502.441 549.949 502.702 547.676 500.659 544.312C499.326 541.987 498.196 539.551 497.28 537.032L481.49 538.076C479.846 542.3 476.052 550.886 470.261 551.9C464.809 552.96 465.146 556.708 469.294 556.708Z" fill="#19B690"/>
<path d="M389.023 294.451C389.023 294.451 425.349 359.04 439.972 398.991C455.332 440.955 479.785 509.583 481.551 538.076C484.162 539.32 492.733 538.844 497.341 537.032C497.341 537.032 501.611 438.728 472.043 399.345C464.993 315.003 453.289 301.517 440.847 291.241L389.023 294.451Z" fill="#263238"/>
<path d="M479.647 532.255C479.835 534.199 479.887 536.155 479.8 538.107C479.779 538.447 479.893 538.781 480.118 539.037C480.342 539.293 480.659 539.45 480.998 539.474C486.881 540.011 495.083 538.122 497.679 537.477C497.921 537.417 498.135 537.279 498.291 537.085C498.446 536.89 498.533 536.65 498.539 536.402L498.739 530.903C498.742 530.722 498.707 530.543 498.636 530.376C498.566 530.21 498.462 530.06 498.33 529.935C498.199 529.811 498.043 529.716 497.873 529.655C497.703 529.594 497.522 529.569 497.341 529.582L480.691 531.01C480.54 531.022 480.393 531.064 480.259 531.133C480.124 531.202 480.005 531.297 479.907 531.413C479.81 531.529 479.737 531.663 479.692 531.808C479.647 531.952 479.632 532.104 479.647 532.255Z" fill="#263238"/>
<path opacity="0.3" d="M479.647 532.255C479.835 534.199 479.887 536.155 479.8 538.107C479.779 538.447 479.893 538.781 480.118 539.037C480.342 539.293 480.659 539.45 480.998 539.474C486.881 540.011 495.083 538.122 497.679 537.477C497.921 537.417 498.135 537.279 498.291 537.085C498.446 536.89 498.533 536.65 498.539 536.402L498.739 530.903C498.742 530.722 498.707 530.543 498.636 530.376C498.566 530.21 498.462 530.06 498.33 529.935C498.199 529.811 498.043 529.716 497.873 529.655C497.703 529.594 497.522 529.569 497.341 529.582L480.691 531.01C480.54 531.022 480.393 531.064 480.259 531.133C480.124 531.202 480.005 531.297 479.907 531.413C479.81 531.529 479.737 531.663 479.692 531.808C479.647 531.952 479.632 532.104 479.647 532.255Z" fill="white"/>
<path d="M379.392 231.091C377.856 233.994 376.197 237.235 374.508 240.307C372.818 243.379 371.113 246.451 369.393 249.446C365.921 255.483 362.296 261.396 358.41 266.972L360.499 265.114C358.958 266.197 357.258 267.036 355.461 267.602C353.287 268.331 351.057 268.886 348.795 269.261C346.429 269.691 343.972 269.983 341.468 270.213C338.964 270.444 336.338 270.582 333.942 270.735H333.619C332.622 270.793 331.675 271.196 330.942 271.875C330.209 272.554 329.736 273.468 329.603 274.458C329.47 275.449 329.687 276.454 330.215 277.303C330.743 278.151 331.551 278.789 332.498 279.107C335.242 280.02 338.051 280.728 340.9 281.226C343.763 281.735 346.657 282.048 349.563 282.163C352.646 282.282 355.732 282.096 358.779 281.61C362.217 281.092 365.542 279.991 368.609 278.354C369.247 278.006 369.815 277.542 370.284 276.987L370.698 276.495C373.14 273.577 375.521 270.597 377.702 267.54C379.883 264.484 382.019 261.396 384 258.324C385.981 255.252 387.901 251.981 389.714 248.74C391.526 245.499 393.247 242.289 394.89 238.74C395.753 236.724 395.813 234.455 395.058 232.396C394.304 230.336 392.791 228.643 390.829 227.663C388.868 226.682 386.605 226.487 384.505 227.119C382.405 227.751 380.625 229.16 379.53 231.06L379.392 231.091Z" fill="#B97964"/>
<path d="M387.871 218.696C377.84 221.998 376.212 226.499 370.713 243.118C374.369 253.087 389.145 258.14 389.145 258.14C389.145 258.14 406.594 229.724 387.871 218.696Z" fill="#19B690"/>
<path d="M374.139 240.323C374.707 245.821 376.12 252.38 379.085 265.267C381.389 276.203 381.419 297.523 385.106 298.644C392.187 302.147 409.912 300.795 440.847 291.241C439.864 275.267 438.006 264.422 443.32 227.773C443.655 225.852 443.557 223.88 443.033 222.002C442.509 220.123 441.574 218.385 440.294 216.914C439.014 215.442 437.422 214.275 435.633 213.496C433.845 212.718 431.906 212.348 429.957 212.413C427.714 212.413 425.349 212.598 422.938 212.813C414.43 213.324 405.97 214.449 397.624 216.177C394.906 216.791 392.095 217.513 389.422 218.25C384.715 219.595 380.62 222.529 377.833 226.553C375.047 230.578 373.741 235.444 374.139 240.323Z" fill="#19B690"/>
<path d="M482.427 303.851L479.355 301.041C478.783 300.518 478.345 299.866 478.078 299.139C477.81 298.412 477.722 297.631 477.819 296.863L478.663 289.536C478.825 288.096 479.327 286.715 480.129 285.508C480.93 284.3 482.007 283.301 483.271 282.593L484.807 281.718C490.291 286.034 493.04 294.728 493.04 294.728L494.1 297.124C494.333 297.608 494.468 298.134 494.496 298.671C494.523 299.208 494.444 299.745 494.263 300.251C494.081 300.757 493.801 301.222 493.438 301.618C493.075 302.015 492.637 302.335 492.15 302.561L487.434 304.712C486.605 305.065 485.692 305.172 484.804 305.019C483.915 304.867 483.09 304.461 482.427 303.851Z" fill="#B97964"/>
<path d="M321.193 266.957L325.125 265.421C325.852 265.146 326.635 265.05 327.408 265.141C328.181 265.231 328.92 265.507 329.564 265.943L335.708 270.06C336.914 270.871 337.907 271.959 338.605 273.234C339.303 274.509 339.684 275.933 339.717 277.386V279.214C333.373 282.102 324.357 280.535 324.357 280.535L321.746 280.381C321.208 280.364 320.68 280.24 320.191 280.016C319.702 279.793 319.261 279.475 318.896 279.081C318.53 278.687 318.246 278.224 318.061 277.72C317.875 277.216 317.791 276.679 317.813 276.142L318.059 270.966C318.13 270.064 318.465 269.202 319.022 268.49C319.58 267.777 320.334 267.244 321.193 266.957Z" fill="#B97964"/>
<path d="M434.165 232.719L436.131 233.626L438.282 234.609C439.71 235.3 441.123 236.022 442.537 236.759C445.378 238.295 448.143 239.831 450.862 241.444C453.58 243.057 456.207 244.854 458.757 246.682C461.306 248.509 463.672 250.506 465.976 252.549L464.962 251.259C465.711 252.36 466.369 253.521 466.928 254.73C467.604 256.128 468.234 257.649 468.848 259.2C470.077 262.272 471.275 265.559 472.381 268.861C473.487 272.164 474.608 275.512 475.699 278.861L479.017 288.952C479.338 289.944 480.009 290.784 480.904 291.318C481.799 291.852 482.857 292.043 483.882 291.855C484.907 291.668 485.829 291.114 486.477 290.298C487.125 289.481 487.454 288.457 487.403 287.416C487.234 283.715 486.896 280.12 486.482 276.495C486.067 272.87 485.545 269.261 484.946 265.636C484.346 262.011 483.563 258.371 482.565 254.684C482.073 252.841 481.536 250.998 480.86 249.062C480.146 246.932 479.23 244.875 478.126 242.918C477.932 242.598 477.711 242.295 477.465 242.012L477.097 241.628C474.566 238.839 471.857 236.217 468.986 233.779C466.157 231.375 463.193 229.133 460.108 227.067C457.064 225.003 453.911 223.106 450.662 221.384C449.034 220.523 447.39 219.709 445.716 218.911C444.871 218.527 444.042 218.127 443.166 217.759C442.291 217.39 441.492 217.067 440.402 216.653C438.31 215.817 435.973 215.836 433.896 216.707C431.818 217.577 430.166 219.23 429.295 221.307C428.424 223.385 428.405 225.722 429.242 227.813C430.078 229.905 431.703 231.584 433.766 232.489L434.165 232.719Z" fill="#B97964"/>
<path d="M419.328 216.407C426.854 211.016 431.432 210.432 449.648 218.342C451.814 229.801 444.718 246.62 444.718 246.62C444.718 246.62 420.48 233.994 419.328 216.407Z" fill="#19B690"/>
<path d="M417.361 184.489C416.24 192.922 415.518 208.205 421.539 212.936C421.539 212.936 413.675 212.797 398.637 225.101C393 218.957 396.226 216.299 396.226 216.299C405.181 212.905 404.551 206.131 402.6 199.941L417.361 184.489Z" fill="#B97964"/>
<path d="M401.817 222.612C407.301 222.612 410.081 230.584 410.081 230.584C410.081 230.584 423.26 220.078 425.057 212.69C423.307 211.984 421.595 211.19 419.926 210.309C419.926 210.309 404.551 219.08 401.817 222.612Z" fill="white"/>
<path d="M396.564 222.413C396.564 222.413 392.417 223.949 391.05 230.093C388.239 218.388 393.722 216.545 393.722 216.545C395.096 215.515 396.805 215.033 398.515 215.194C397.393 215.976 396.584 217.129 396.227 218.449C395.87 219.769 395.989 221.172 396.564 222.413Z" fill="white"/>
<path opacity="0.2" d="M411.341 190.786L402.617 200.002C403.092 201.443 403.436 202.924 403.646 204.426C407.086 203.458 411.633 198.989 411.786 195.21C411.912 193.721 411.761 192.221 411.341 190.786Z" fill="black"/>
<path d="M426.823 172.216C423.751 185.334 422.63 190.94 414.75 196.931C402.907 205.931 387.532 200.095 386.703 186.516C385.965 174.228 391.219 154.875 405.135 151.188C408.084 150.302 411.216 150.219 414.207 150.948C417.199 151.676 419.942 153.191 422.153 155.334C424.364 157.478 425.962 160.173 426.783 163.14C427.604 166.108 427.618 169.241 426.823 172.216Z" fill="#B97964"/>
<path d="M424.258 181.647C419.435 179.282 414.32 167.654 421.186 162.155C415.518 163.215 409.021 161.695 403.015 157.056C395.182 150.912 383.646 166.164 387.44 157.21C392.908 144.307 409.39 141.082 424.304 151.803C439.219 162.524 438.159 175.565 424.258 181.647Z" fill="#263238"/>
<path d="M428.344 179.021C428.397 179.016 428.446 178.994 428.485 178.958C428.524 178.923 428.55 178.876 428.561 178.824C428.571 178.773 428.564 178.719 428.542 178.672C428.52 178.624 428.483 178.585 428.436 178.56C424.596 176.901 408.299 173.43 407.608 173.291C407.577 173.282 407.544 173.28 407.512 173.285C407.479 173.289 407.448 173.3 407.421 173.318C407.393 173.335 407.37 173.358 407.352 173.386C407.334 173.413 407.322 173.444 407.316 173.476C407.307 173.537 407.321 173.599 407.355 173.65C407.389 173.701 407.441 173.738 407.501 173.752C407.67 173.752 424.397 177.362 428.252 179.005L428.344 179.021Z" fill="white"/>
<path opacity="0.2" d="M408.576 173.568C410.223 172.844 412.089 172.8 413.768 173.445C412.061 173.823 410.298 173.865 408.576 173.568Z" fill="black"/>
<path opacity="0.2" d="M408.714 174.735C409.513 174.567 410.339 174.574 411.135 174.757C411.931 174.94 412.677 175.294 413.322 175.795C411.729 175.77 410.159 175.409 408.714 174.735Z" fill="black"/>
<path d="M405.719 173.384C405.503 174.505 404.751 175.334 404.029 175.242C403.307 175.15 402.908 174.182 403.123 173.061C403.338 171.94 404.106 171.126 404.812 171.203C405.519 171.279 405.934 172.278 405.719 173.384Z" fill="#263238"/>
<path d="M392.233 171.924C392.018 173.03 391.25 173.86 390.543 173.783C389.837 173.706 389.422 172.708 389.637 171.602C389.852 170.496 390.605 169.651 391.327 169.743C392.049 169.835 392.448 170.803 392.233 171.924Z" fill="#263238"/>
<path d="M391.68 169.851L389.191 168.745C389.191 168.745 390.144 171.003 391.68 169.851Z" fill="#263238"/>
<path d="M394.752 174.06C393.422 176.565 391.781 178.893 389.867 180.987C390.391 181.427 391.006 181.744 391.667 181.917C392.329 182.09 393.02 182.113 393.692 181.985L394.752 174.06Z" fill="#84522D"/>
<path d="M399.59 186.947C398.972 186.999 398.35 186.999 397.732 186.947C397.689 186.941 397.649 186.927 397.613 186.905C397.576 186.883 397.545 186.854 397.52 186.819C397.496 186.785 397.479 186.745 397.47 186.704C397.461 186.662 397.462 186.619 397.47 186.578C397.486 186.49 397.534 186.41 397.605 186.356C397.676 186.302 397.765 186.277 397.854 186.286C399.245 186.454 400.655 186.312 401.983 185.868C403.311 185.424 404.524 184.691 405.534 183.721C405.564 183.69 405.6 183.666 405.64 183.649C405.679 183.633 405.722 183.624 405.765 183.624C405.808 183.624 405.85 183.633 405.89 183.649C405.929 183.666 405.965 183.69 405.995 183.721C406.054 183.783 406.086 183.866 406.086 183.951C406.086 184.037 406.054 184.119 405.995 184.182C404.268 185.852 401.99 186.835 399.59 186.947Z" fill="#263238"/>
<path d="M429.941 183.967C429.201 185.023 428.25 185.914 427.147 186.583C426.044 187.252 424.815 187.684 423.536 187.853C420.341 188.114 419.65 184.397 421.278 181.094C422.738 178.13 426.163 174.397 428.958 175.688C431.754 176.978 432.015 181.248 429.941 183.967Z" fill="#B97964"/>
<path d="M410.035 164.92C409.95 164.92 409.865 164.901 409.788 164.864C409.711 164.827 409.643 164.772 409.59 164.705C409.096 164.073 408.453 163.572 407.719 163.248C406.985 162.923 406.181 162.786 405.381 162.847C405.298 162.86 405.213 162.855 405.132 162.834C405.05 162.813 404.974 162.775 404.908 162.723C404.842 162.672 404.787 162.607 404.747 162.533C404.706 162.459 404.682 162.378 404.675 162.294C404.668 162.117 404.724 161.944 404.834 161.806C404.944 161.668 405.1 161.574 405.274 161.541C406.284 161.452 407.301 161.614 408.234 162.013C409.167 162.412 409.986 163.037 410.619 163.83C410.693 163.935 410.737 164.058 410.745 164.186C410.753 164.314 410.725 164.442 410.664 164.556C410.604 164.669 410.513 164.763 410.402 164.827C410.29 164.892 410.164 164.924 410.035 164.92Z" fill="#263238"/>
<path d="M389.744 164.352C389.662 164.361 389.579 164.354 389.5 164.33C389.421 164.306 389.347 164.267 389.283 164.214C389.222 164.154 389.173 164.082 389.14 164.003C389.107 163.924 389.09 163.839 389.09 163.753C389.09 163.667 389.107 163.582 389.14 163.503C389.173 163.424 389.222 163.352 389.283 163.292C389.947 162.459 390.794 161.789 391.758 161.337C392.723 160.884 393.779 160.659 394.844 160.681C394.929 160.688 395.011 160.713 395.086 160.754C395.16 160.795 395.225 160.852 395.276 160.92C395.327 160.989 395.363 161.067 395.381 161.15C395.399 161.233 395.399 161.32 395.381 161.403C395.355 161.576 395.265 161.734 395.128 161.845C394.992 161.956 394.819 162.012 394.644 162.002C393.8 161.993 392.964 162.178 392.203 162.543C391.441 162.908 390.773 163.442 390.251 164.106C390.19 164.182 390.113 164.243 390.025 164.286C389.938 164.328 389.842 164.351 389.744 164.352Z" fill="#263238"/>
<path d="M401.556 180.342C404.797 180.342 407.608 176.901 407.915 172.493C408.101 170.416 407.622 168.335 406.548 166.548C406.124 165.791 405.525 165.146 404.8 164.668C404.076 164.19 403.248 163.892 402.385 163.799C398.991 163.569 396.011 167.086 395.688 171.648C395.366 176.21 397.869 180.096 401.233 180.326L401.556 180.342ZM402.063 164.352H402.339C403.129 164.443 403.887 164.72 404.549 165.16C405.211 165.601 405.76 166.192 406.148 166.886C407.168 168.586 407.62 170.565 407.439 172.539C407.147 176.824 404.367 180.127 401.295 179.927C398.223 179.727 395.903 176.041 396.195 171.755C396.487 167.47 399.067 164.352 402.063 164.352Z" fill="white"/>
<path d="M387.194 179.512C390.435 179.512 393.262 176.087 393.569 171.679C393.748 169.603 393.269 167.524 392.202 165.734C391.774 164.977 391.172 164.332 390.446 163.854C389.719 163.376 388.889 163.078 388.024 162.985C384.66 162.755 381.649 166.272 381.342 170.819C381.164 172.894 381.642 174.974 382.709 176.763C383.135 177.522 383.736 178.168 384.463 178.646C385.19 179.125 386.022 179.422 386.887 179.512H387.194ZM387.701 163.461H387.993C388.783 163.552 389.541 163.829 390.203 164.269C390.865 164.71 391.414 165.302 391.802 165.996C392.809 167.7 393.26 169.676 393.093 171.648C392.801 175.795 390.19 179.036 387.194 179.036H386.918C386.127 178.949 385.368 178.674 384.705 178.233C384.042 177.792 383.495 177.198 383.109 176.502C382.097 174.805 381.646 172.833 381.818 170.865C382.11 166.702 384.721 163.461 387.701 163.461Z" fill="white"/>
<path d="M393.215 172.308C393.256 172.306 393.296 172.294 393.33 172.272C393.365 172.251 393.394 172.221 393.415 172.186C393.998 171.264 395.703 172.262 395.719 172.262C395.745 172.279 395.774 172.29 395.804 172.295C395.835 172.301 395.866 172.3 395.896 172.292C395.926 172.285 395.955 172.272 395.98 172.254C396.005 172.235 396.025 172.212 396.041 172.186C396.08 172.141 396.102 172.084 396.102 172.024C396.102 171.965 396.08 171.908 396.041 171.863C395.949 171.863 393.922 170.604 393.092 171.863C393.073 171.888 393.06 171.917 393.053 171.948C393.047 171.979 393.047 172.012 393.055 172.042C393.062 172.073 393.076 172.102 393.096 172.127C393.116 172.151 393.141 172.172 393.169 172.186C393.168 172.208 393.172 172.231 393.18 172.252C393.187 172.273 393.2 172.292 393.215 172.308Z" fill="white"/>
<path d="M405.119 171.31L402.646 170.219C402.646 170.219 403.583 172.477 405.119 171.31Z" fill="#263238"/>
</svg>
