<svg width="305" height="560" viewBox="0 0 305 560" fill="none" xmlns="http://www.w3.org/2000/svg">
<path d="M166.941 540.339C215.151 540.339 254.233 517.803 254.233 490.004C254.233 462.204 215.151 439.668 166.941 439.668C118.731 439.668 79.6494 462.204 79.6494 490.004C79.6494 517.803 118.731 540.339 166.941 540.339Z" fill="#F5F5F5"/>
<path d="M71.1031 433.721L82.4226 427.265C82.4226 427.265 87.8363 397.427 83.7842 371.768C78.0753 335.721 53.484 323.252 44.5596 326.84C35.6353 330.428 33.5354 341.112 49.6616 361.954C59.1766 374.242 71.4148 400.246 71.1031 433.721Z" fill="#1BC89E"/>
<g opacity="0.15">
<path opacity="0.15" d="M71.1031 433.721L82.4226 427.265C82.4226 427.265 87.8363 397.427 83.7842 371.768C78.0753 335.721 53.484 323.252 44.5596 326.84C35.6353 330.428 33.5354 341.112 49.6616 361.954C59.1766 374.242 71.4148 400.246 71.1031 433.721Z" fill="black"/>
</g>
<path d="M75.2042 419.4H75.0893C74.9854 419.386 74.8854 419.351 74.7951 419.298C74.7048 419.245 74.626 419.175 74.5633 419.091C74.5007 419.007 74.4554 418.911 74.4303 418.809C74.4051 418.708 74.4005 418.602 74.4167 418.499C79.0758 384.729 65.4923 347.731 50.2028 332.821C50.1078 332.752 50.0289 332.663 49.9713 332.561C49.9136 332.458 49.8786 332.345 49.8687 332.228C49.8587 332.111 49.874 331.994 49.9135 331.883C49.9531 331.773 50.0159 331.672 50.0977 331.588C50.1796 331.504 50.2786 331.438 50.3881 331.395C50.4975 331.353 50.6149 331.334 50.7321 331.341C50.8494 331.347 50.9639 331.379 51.0679 331.434C51.1718 331.488 51.2628 331.565 51.3347 331.657C66.8868 346.764 80.7491 384.45 76.0244 418.695C75.9966 418.892 75.898 419.072 75.7471 419.202C75.5962 419.332 75.4032 419.402 75.2042 419.4Z" fill="white"/>
<path d="M39.7364 451.826C37.9482 452.842 34.2735 450.614 32.8626 449.663C30.4426 447.997 28.4888 445.741 27.1865 443.109C25.732 440.138 25.239 436.788 25.7756 433.524C26.0596 431.799 26.4653 430.096 26.9896 428.428L28.4168 423.513C28.9791 421.938 29.2244 420.267 29.1387 418.597C28.7121 415.205 25.6936 412.846 22.9703 410.798C19.9354 408.537 16.802 405.555 16.8184 401.475C17.0301 398.314 18.2948 395.314 20.4111 392.954C22.3469 390.48 24.6601 388.301 26.4318 385.696C27.8206 383.867 28.5335 381.615 28.4496 379.322C28.2617 377.926 27.793 376.583 27.0716 375.373C25.412 372.853 23.9634 370.201 22.7407 367.443C21.74 364.592 21.8876 361.052 24.1187 359.004C25.1116 358.263 26.2427 357.728 27.4456 357.43C28.6486 357.131 29.8991 357.076 31.1237 357.267C33.4531 357.542 35.6935 358.325 37.6857 359.561C44.1657 363.15 47.8569 370.818 54.7306 373.587C57.4521 374.434 60.2247 375.107 63.0316 375.602C64.4405 375.863 65.7788 376.417 66.9601 377.227C68.1413 378.037 69.1391 379.085 69.8889 380.305C72.4153 385.335 67.7399 391.529 69.5116 396.87C71.1521 401.589 75.6799 403.424 78.2555 407.668C79.3114 409.545 79.7369 411.71 79.4695 413.845C79.2405 417.459 78.3567 421.001 76.8611 424.299C75.1783 427.578 73.2536 430.727 71.1029 433.721C71.0045 433.835 40.0152 451.63 39.7364 451.826Z" fill="#1BC89E"/>
<path d="M58.0938 442.061C57.986 442.056 57.8802 442.031 57.7822 441.986C57.6843 441.941 57.5963 441.877 57.5232 441.798C57.45 441.719 57.3932 441.626 57.356 441.525C57.3188 441.424 57.3019 441.316 57.3063 441.209C58.6351 409.258 43.5588 374.029 32.6002 363.707C32.4509 363.556 32.3672 363.353 32.3672 363.141C32.3672 362.93 32.4509 362.726 32.6002 362.576C32.7535 362.426 32.9597 362.342 33.1744 362.342C33.3891 362.342 33.5952 362.426 33.7486 362.576C44.8548 372.981 60.2592 408.864 58.8976 441.291C58.8891 441.498 58.8007 441.694 58.6509 441.837C58.501 441.981 58.3014 442.061 58.0938 442.061Z" fill="white"/>
<path d="M53.3035 404.293H53.0574C45.4775 402.211 37.6946 400.953 29.8442 400.541C29.6266 400.541 29.418 400.454 29.2642 400.301C29.1103 400.147 29.0239 399.939 29.0239 399.721C29.0239 399.504 29.1103 399.296 29.2642 399.142C29.418 398.988 29.6266 398.902 29.8442 398.902C37.8338 399.317 45.7547 400.597 53.4675 402.72C53.5688 402.75 53.6632 402.8 53.7453 402.866C53.8273 402.933 53.8954 403.015 53.9457 403.107C53.996 403.2 54.0275 403.302 54.0383 403.407C54.0491 403.512 54.0392 403.618 54.0089 403.719C53.9611 403.874 53.8686 404.011 53.7431 404.113C53.6175 404.215 53.4646 404.277 53.3035 404.293Z" fill="white"/>
<path d="M125.195 449.205C125.359 444.289 121.815 396.248 121.815 396.248L145.242 413.223C140.435 441.864 139.401 448.631 139.319 453.317C139.419 453.708 139.463 454.111 139.451 454.513C139.451 460.084 133.135 463.083 128.23 466.802C124.06 470.058 119.62 472.953 114.958 475.454C111.398 477.24 104.147 477.403 103.261 475.11C109.232 470.554 117.911 463.738 122.668 458.544C124.932 456.054 125.014 454.087 125.195 449.205Z" fill="#985952"/>
<path d="M93.0736 481.123C92.808 481.888 92.7609 482.711 92.9376 483.502C93.1144 484.292 93.508 485.017 94.0743 485.596C98.3766 488.695 103.732 489.967 108.97 489.135C116.418 488.169 120.454 486.055 123.423 483.564C126.392 481.074 130.576 477.567 133.955 476.83C136.642 476.319 139.197 475.271 141.469 473.75C142.469 472.783 142.338 468.49 142.338 468.49L93.0736 481.123Z" fill="#263238"/>
<path d="M139.369 451.957C139.645 451.966 139.909 452.07 140.116 452.253C140.322 452.435 140.459 452.684 140.501 452.957C140.73 454.137 140.976 457.577 141.469 459.511C142.23 462.929 142.473 466.442 142.19 469.932C141.78 472.144 136.695 473.668 133.43 474.847C129.591 476.517 126.028 478.76 122.865 481.5C118.3 484.91 112.851 486.94 107.166 487.349C101.424 487.349 94.9601 485.449 93.4673 482.794C91.6463 479.517 93.0736 477.6 101.588 473.651C103.228 472.914 108.855 469.555 110.791 468.343C116.008 465.065 121.175 460.494 123.587 454.694C123.781 453.984 124.209 453.361 124.801 452.924C125.318 452.701 125.891 452.644 126.442 452.76C127.863 452.967 129.246 453.387 130.543 454.005C131.675 454.546 133.299 455.185 133.282 456.643C133.248 457.149 133.137 457.646 132.954 458.118C132.856 458.429 132.774 458.823 132.954 459.003C133.135 459.183 133.529 459.003 133.758 458.774C134.593 457.92 135.356 457 136.039 456.021C136.442 455.52 136.898 455.064 137.4 454.661C137.902 454.377 138.384 454.059 138.844 453.711C139.467 453.268 139.336 452.646 139.369 451.957Z" fill="#455A64"/>
<path d="M122.865 481.582C124.358 480.369 125.933 479.173 127.508 478.125C127.508 478.125 117.501 484.203 113.465 481.402C112.716 480.927 112.168 480.194 111.926 479.341C111.684 478.489 111.765 477.578 112.153 476.781C112.153 476.093 105.787 473.127 103.261 472.832C102.556 473.225 101.965 473.537 101.621 473.7C93.1063 477.649 91.6791 479.55 93.5 482.843C94.9929 485.498 99.6684 487.579 107.083 487.579C111.907 487.677 119.42 484.4 122.865 481.582Z" fill="#37474F"/>
<path d="M112.858 474.798C107.559 476.912 109.823 477.895 111.299 478.075C112.776 478.256 121.684 473.16 127.13 468.801C132.577 464.443 136.366 459.413 138.466 457.774C139.254 457.168 140.107 456.414 140.861 455.71C140.714 454.546 140.599 453.481 140.5 452.924C140.458 452.652 140.322 452.403 140.115 452.22C139.909 452.037 139.644 451.933 139.368 451.925C139.368 452.613 139.467 453.252 138.942 453.76C138.482 454.108 138 454.426 137.498 454.71C136.997 455.113 136.54 455.569 136.137 456.07C135.454 457.049 134.691 457.97 133.856 458.823C127.953 465.45 120.823 470.875 112.858 474.798Z" fill="#263238"/>
<path d="M111.677 477.338C111.798 477.333 111.914 477.287 112.005 477.207C112.058 477.165 112.103 477.114 112.136 477.055C112.169 476.996 112.19 476.931 112.197 476.864C112.205 476.797 112.199 476.728 112.18 476.664C112.161 476.599 112.129 476.538 112.087 476.486C110.839 475.192 109.328 474.18 107.655 473.519C105.983 472.857 104.188 472.562 102.391 472.652C102.251 472.668 102.122 472.739 102.033 472.85C101.944 472.96 101.902 473.101 101.916 473.242C101.932 473.378 102.001 473.502 102.109 473.588C102.216 473.674 102.353 473.714 102.49 473.7C104.112 473.633 105.73 473.905 107.241 474.497C108.752 475.09 110.123 475.99 111.267 477.141C111.317 477.202 111.379 477.251 111.45 477.285C111.521 477.319 111.598 477.337 111.677 477.338Z" fill="#F5F5F5"/>
<path d="M116.287 474.569C116.412 474.574 116.534 474.533 116.631 474.454C116.724 474.354 116.776 474.222 116.776 474.086C116.776 473.949 116.724 473.817 116.631 473.717C115.381 472.427 113.869 471.42 112.196 470.761C110.524 470.103 108.731 469.809 106.936 469.899C106.796 469.914 106.669 469.984 106.581 470.093C106.494 470.202 106.453 470.342 106.468 470.481C106.483 470.62 106.553 470.747 106.662 470.835C106.772 470.922 106.911 470.963 107.05 470.948C108.673 470.877 110.292 471.146 111.804 471.739C113.316 472.331 114.686 473.234 115.827 474.389C115.883 474.454 115.954 474.505 116.034 474.536C116.114 474.568 116.201 474.579 116.287 474.569Z" fill="#F5F5F5"/>
<path d="M120.913 471.8C121.032 471.801 121.148 471.761 121.241 471.685C121.338 471.587 121.393 471.455 121.393 471.316C121.393 471.178 121.338 471.046 121.241 470.948C119.99 469.659 118.478 468.652 116.806 467.994C115.134 467.335 113.34 467.041 111.545 467.13C111.476 467.136 111.409 467.156 111.348 467.188C111.287 467.22 111.232 467.264 111.188 467.318C111.144 467.371 111.111 467.433 111.09 467.499C111.07 467.565 111.063 467.635 111.07 467.703C111.076 467.772 111.096 467.84 111.128 467.901C111.16 467.962 111.204 468.016 111.258 468.061C111.311 468.105 111.373 468.138 111.439 468.158C111.505 468.178 111.575 468.185 111.644 468.179C113.266 468.107 114.886 468.377 116.398 468.97C117.909 469.562 119.28 470.465 120.421 471.62C120.482 471.688 120.558 471.74 120.644 471.771C120.73 471.802 120.822 471.812 120.913 471.8Z" fill="#F5F5F5"/>
<path d="M125.195 468.736C125.314 468.737 125.43 468.697 125.523 468.621C125.573 468.574 125.613 468.516 125.64 468.453C125.668 468.39 125.682 468.321 125.682 468.252C125.682 468.183 125.668 468.115 125.64 468.052C125.613 467.988 125.573 467.931 125.523 467.884C124.274 466.593 122.762 465.584 121.09 464.925C119.417 464.267 117.623 463.974 115.828 464.066C115.691 464.082 115.566 464.152 115.481 464.259C115.395 464.366 115.354 464.503 115.368 464.639C115.385 464.776 115.454 464.9 115.561 464.986C115.669 465.072 115.806 465.112 115.942 465.098C117.564 465.034 119.181 465.307 120.692 465.899C122.203 466.491 123.574 467.39 124.719 468.539C124.775 468.61 124.848 468.665 124.931 468.7C125.014 468.734 125.105 468.747 125.195 468.736Z" fill="#F5F5F5"/>
<path d="M129.378 465.672C129.496 465.666 129.61 465.626 129.706 465.557C129.803 465.459 129.857 465.326 129.857 465.188C129.857 465.05 129.803 464.918 129.706 464.82C128.353 463.413 126.697 462.334 124.863 461.664C123.029 460.994 121.067 460.751 119.124 460.953C119.055 460.957 118.987 460.975 118.925 461.006C118.864 461.038 118.809 461.083 118.766 461.137C118.723 461.191 118.691 461.254 118.674 461.321C118.656 461.388 118.653 461.458 118.665 461.526C118.682 461.663 118.751 461.787 118.858 461.873C118.966 461.959 119.102 461.999 119.239 461.985C121.005 461.811 122.787 462.033 124.455 462.634C126.124 463.235 127.637 464.2 128.885 465.459C128.943 465.533 129.018 465.591 129.104 465.628C129.19 465.665 129.284 465.68 129.378 465.672Z" fill="#F5F5F5"/>
<path d="M169.324 418.122L192.964 417.696C192.619 433.458 190.109 450.941 189.683 465.721C189.683 468.506 189.683 487.349 188.699 493.084C187.058 501.686 176.887 500.523 176.345 495.378C175.804 490.233 177.002 468.228 176.969 465.885C177.067 456.414 172.622 440.406 170.276 423.382C170.177 422.611 169.439 418.941 169.324 418.122Z" fill="#985952"/>
<path d="M172.507 498.95C172.068 502.893 172.632 506.883 174.147 510.551C174.898 512.007 176.108 513.176 177.591 513.875C179.074 514.574 180.747 514.765 182.35 514.418C185.844 513.91 190.454 512.042 191.865 507.864C193.201 504.015 193.671 499.92 193.243 495.87L172.507 498.95Z" fill="#263238"/>
<path d="M189.749 463.918C191.143 464.164 190.881 470.964 191.012 477.797C191.16 485.137 193.013 488.349 193.194 494.362C193.407 501.244 192.735 504.193 189.913 508.093C187.091 511.993 178.282 515.139 174.722 508.847C171.818 503.718 172.212 498.393 173.212 491.642C174.213 484.892 175.001 479.779 175.263 474.438C175.526 469.096 175.64 464.361 176.904 463.918C176.904 464.672 176.904 465.639 176.904 466.376C176.904 467.114 176.789 469.653 177.576 469.817C177.698 469.185 177.769 468.544 177.79 467.9C177.753 467.305 177.947 466.718 178.331 466.262C178.805 465.912 179.382 465.728 179.971 465.737C181.377 465.579 182.79 465.503 184.204 465.508C184.909 465.508 185.631 465.508 186.32 465.623C186.926 465.669 187.52 465.818 188.076 466.065C188.239 466.135 188.386 466.238 188.508 466.368C188.629 466.497 188.722 466.651 188.781 466.819C188.83 467.079 188.83 467.345 188.781 467.605C188.723 468.073 188.723 468.546 188.781 469.014C188.781 469.227 188.929 469.489 189.142 469.457C189.355 469.424 189.388 469.227 189.404 469.063C189.503 468.244 189.404 467.638 189.503 466.688C189.503 466.245 189.503 465.639 189.503 465.197C189.503 464.754 189.732 464.361 189.749 463.918Z" fill="#455A64"/>
<path d="M193.079 492.396C193.079 493.395 193.292 499.966 191.439 500.949C189.585 501.932 188.863 496.82 188.863 496.82C188.863 496.82 184.516 495.001 177.691 497.197C177.921 498.278 176.576 501.654 174.853 500.736C173.131 499.818 173.213 492.33 173.213 492.232C172.278 498.786 171.982 503.866 174.853 508.847C178.413 515.139 187.255 511.96 190.044 508.093C192.833 504.226 193.506 501.244 193.325 494.362C193.243 493.674 193.128 493.035 193.079 492.396Z" fill="#37474F"/>
<path d="M188.321 497.197C188.108 499.655 190.602 499.081 191.061 495.558C191.52 492.036 190.438 483.695 191.061 477.731C190.93 470.899 191.192 464.099 189.798 463.853C189.806 463.935 189.806 464.017 189.798 464.099L189.634 467.556C189.666 468.047 189.666 468.54 189.634 469.031C189.174 474.045 188.896 483.777 188.879 488.398C188.85 491.339 188.664 494.276 188.321 497.197Z" fill="#263238"/>
<path d="M178.478 497.197C178.157 494.297 177.998 491.381 178.003 488.464C178.003 483.876 177.707 474.258 177.248 469.211C177.07 468.277 176.999 467.326 177.035 466.376C177.035 465.688 177.035 464.738 177.035 464.082C177.035 464.082 177.035 463.984 177.035 463.918C176.116 464.263 175.788 466.966 175.591 470.374C175.591 472.357 175.591 474.815 175.771 477.797C176.395 483.761 175.312 492.216 175.771 495.673C176.231 499.13 178.642 499.655 178.478 497.197Z" fill="#263238"/>
<path d="M177.51 497.377H177.691C181.235 496.155 185.088 496.155 188.633 497.377C188.698 497.402 188.766 497.414 188.836 497.412C188.905 497.41 188.973 497.394 189.036 497.366C189.099 497.338 189.156 497.298 189.204 497.248C189.252 497.198 189.289 497.138 189.314 497.074C189.338 497.009 189.35 496.941 189.348 496.872C189.347 496.802 189.331 496.734 189.303 496.671C189.275 496.608 189.234 496.551 189.184 496.503C189.134 496.456 189.075 496.419 189.01 496.394C185.228 495.045 181.095 495.045 177.313 496.394C177.249 496.417 177.19 496.454 177.14 496.501C177.09 496.548 177.05 496.604 177.022 496.667C176.995 496.73 176.98 496.797 176.979 496.866C176.979 496.934 176.992 497.002 177.018 497.066C177.058 497.162 177.127 497.243 177.215 497.299C177.303 497.354 177.406 497.382 177.51 497.377Z" fill="#F5F5F5"/>
<path d="M176.838 491.937C176.897 491.952 176.959 491.952 177.018 491.937C181.004 490.701 185.271 490.701 189.256 491.937C189.322 491.96 189.392 491.97 189.461 491.966C189.531 491.962 189.599 491.944 189.661 491.914C189.724 491.883 189.78 491.841 189.826 491.789C189.872 491.736 189.907 491.675 189.929 491.609C189.952 491.545 189.962 491.477 189.958 491.408C189.953 491.34 189.935 491.273 189.905 491.212C189.874 491.151 189.831 491.096 189.779 491.052C189.727 491.008 189.666 490.974 189.601 490.954C185.391 489.615 180.868 489.615 176.657 490.954C176.542 490.997 176.445 491.079 176.384 491.185C176.323 491.292 176.302 491.416 176.323 491.537C176.345 491.658 176.408 491.768 176.502 491.847C176.596 491.926 176.715 491.969 176.838 491.97V491.937Z" fill="#F5F5F5"/>
<path d="M189.47 486.792C189.57 486.79 189.668 486.759 189.752 486.704C189.836 486.649 189.903 486.572 189.946 486.481C190.001 486.355 190.005 486.212 189.956 486.083C189.907 485.954 189.809 485.85 189.683 485.793C185.539 484.165 180.937 484.136 176.772 485.711C176.708 485.734 176.649 485.771 176.599 485.818C176.549 485.864 176.509 485.921 176.481 485.984C176.454 486.047 176.439 486.114 176.438 486.183C176.438 486.251 176.451 486.319 176.477 486.383C176.528 486.51 176.627 486.612 176.753 486.667C176.879 486.722 177.021 486.726 177.15 486.678C177.15 486.678 183.581 484.154 189.24 486.678C189.307 486.733 189.386 486.772 189.47 486.792Z" fill="#F5F5F5"/>
<path d="M189.585 481.975C189.684 481.976 189.781 481.948 189.865 481.896C189.95 481.844 190.017 481.769 190.061 481.68C190.117 481.556 190.123 481.415 190.077 481.286C190.031 481.158 189.937 481.052 189.814 480.992C187.758 480.056 185.528 479.559 183.268 479.533C181.008 479.508 178.768 479.955 176.69 480.844C176.628 480.872 176.572 480.913 176.526 480.963C176.48 481.013 176.444 481.072 176.421 481.136C176.398 481.201 176.388 481.269 176.392 481.337C176.396 481.405 176.414 481.471 176.444 481.533C176.472 481.595 176.513 481.651 176.563 481.697C176.613 481.743 176.672 481.779 176.737 481.802C176.801 481.824 176.869 481.834 176.937 481.83C177.005 481.826 177.072 481.809 177.133 481.778C179.082 480.972 181.175 480.57 183.284 480.595C185.393 480.62 187.475 481.073 189.404 481.926C189.461 481.952 189.522 481.969 189.585 481.975Z" fill="#F5F5F5"/>
<path d="M189.7 476.584C189.82 476.586 189.937 476.547 190.031 476.473C190.126 476.399 190.192 476.294 190.219 476.177C190.246 476.06 190.232 475.938 190.179 475.83C190.126 475.722 190.038 475.636 189.929 475.585C183.679 472.504 176.936 475.454 176.657 475.585C176.592 475.609 176.533 475.647 176.484 475.697C176.434 475.746 176.396 475.805 176.371 475.87C176.346 475.935 176.336 476.004 176.34 476.074C176.344 476.143 176.363 476.211 176.395 476.273C176.452 476.398 176.557 476.496 176.686 476.545C176.815 476.594 176.958 476.591 177.084 476.535C177.084 476.535 183.646 473.668 189.454 476.535C189.529 476.574 189.615 476.591 189.7 476.584Z" fill="#F5F5F5"/>
<path d="M185.188 264.839C193.522 287.892 192.062 302.361 190.635 326.529C189.322 348.681 187.239 368.196 187.239 368.196C187.567 372.129 193.046 379.797 193.801 397.165C194.043 409.395 193.495 421.627 192.16 433.786C192.16 433.786 181.251 437.768 172.031 433.786C172.031 433.786 162.598 392.184 160.023 371.85C157.792 354.105 153.887 331.428 153.887 331.428L145.685 371.768C147.288 377.19 148.111 382.812 148.129 388.465C148.129 397.952 143.716 424.332 143.716 424.332C143.716 424.332 131.494 428.281 123.751 421.415C123.751 421.415 120.683 383.451 119.601 368.983C118.157 349.681 120.257 296.773 124.899 269.689L185.188 264.839Z" fill="#455A64"/>
<path d="M153.789 331.362L150.376 301.017C150.376 301.017 135.103 298.985 128.18 292.48C130.166 295.583 132.813 298.209 135.933 300.172C139.052 302.135 142.567 303.385 146.226 303.835L151.147 332.083L145.57 371.703L153.789 331.362Z" fill="#37474F"/>
<path d="M116.024 242.342C123.456 234.706 136.875 217.436 136.875 217.436L144.454 191.22C142.76 191.308 141.063 191.308 139.369 191.22C131.166 191.761 128.754 192.465 123.652 198.036C119.6 202.477 104.147 223.548 98.7823 230.643L84.5262 212.504C81.0976 207.343 81.6553 201.559 79.8836 197.348C78.1118 193.137 75.241 191.285 72.9442 187.517C70.6475 183.748 70.1061 181.225 68.2196 183.175C66.333 185.125 68.5149 190.368 68.7937 191.564C69.0726 192.76 71.9599 196.316 67.1532 194.464C62.3465 192.613 54.9314 183.847 53.0284 182.061C51.1254 180.275 50.1083 183.044 50.5349 185.239C50.9614 187.435 48.8944 192.383 49.649 196.004C50.1187 199.647 51.9321 202.983 54.7346 205.36C58.1961 208.834 66.6611 213.111 69.9749 217.682C73.2887 222.253 80.3593 236.459 84.7395 245.012C90.2352 255.892 94.9107 259.481 101.145 255.81C107.379 252.14 113.284 245.176 116.024 242.342Z" fill="#985952"/>
<path d="M142.043 190.941C137.848 190.523 133.614 191.084 129.673 192.58C125.227 194.579 122.209 198.872 117.862 204.688C113.514 210.505 105.755 220.68 105.755 220.68C105.755 220.68 107.854 229.512 121.7 237.442L144.307 214.192L142.043 190.941Z" fill="#37474F"/>
<path d="M98.7824 230.626C101.487 233.174 103.298 236.523 103.95 240.179C103.95 240.179 105.591 234.919 99.9964 229.004L98.7824 230.626Z" fill="#8A4646"/>
<path d="M125.67 237.492C115.581 229.201 118.911 218.403 122.586 211.128C129.952 196.594 137.613 190.876 140.812 190.925L160.876 191.122C170.456 192.432 177.871 191.777 180.184 192.318C186.09 193.71 186.221 198.56 186.451 204.836C186.697 211.718 190.224 210.554 188.436 221.926C186.327 226.152 184.475 230.502 182.891 234.952C181.808 238.884 178.757 245.144 180.381 251.501C181.005 253.959 182.678 256.417 185.188 263.151C188.034 270.72 190.149 278.544 191.504 286.516C191.504 286.516 185.647 285.156 178.987 278.078C178.987 278.078 169.882 290.252 147.981 289.023C125.26 287.745 123.259 275.915 123.259 275.915L126.737 254.614C126.212 246.012 125.982 242.899 125.67 237.492Z" fill="#1BC89E"/>
<path opacity="0.1" d="M138.778 235.345C138.778 235.345 146.981 241.899 156.61 238.753C159.293 237.95 161.725 236.474 163.675 234.467C165.625 232.459 167.027 229.986 167.75 227.284C167.75 227.284 168.57 238.18 156.463 241.686C153.224 242.667 149.755 242.581 146.57 241.438C143.385 240.296 140.652 238.16 138.778 235.345Z" fill="black"/>
<path d="M196.212 181.569C199.182 179.406 215.177 200.789 207.696 206.147C200.215 211.505 192.242 196.316 193.85 189.139C195.458 181.962 196.212 181.569 196.212 181.569Z" fill="#37474F"/>
<path d="M210.731 170.951C206.728 165.413 204.005 161.235 200.346 156.483C198.279 153.78 196.951 151.863 194.965 149.094C193.587 147.193 192.784 145.587 191.242 144.981C189.52 144.224 187.981 143.106 186.73 141.704C185.964 140.817 185.257 139.881 184.614 138.902C182.302 135.704 179.539 132.856 176.411 130.447C173.13 127.908 169.538 125.941 166.191 123.516C164.206 122.074 162.073 119.699 164.55 117.552C165.32 116.931 166.234 116.514 167.208 116.34C173.18 115.143 178.347 117.29 184.155 118.879C186.68 119.567 189.148 120.449 191.537 121.517C192.723 121.998 193.829 122.656 194.818 123.467C196.192 124.901 197.302 126.565 198.099 128.383C200.642 133.052 206.006 137.214 209.763 140.868C214.176 145.161 218.113 149.061 223.149 153.829C227.677 158.089 232.123 162.021 236.274 166.675C239.702 170.509 238.373 173.458 237.914 174.458C234.961 180.258 231.746 182.306 227.874 185.927C226.595 187.107 225.299 188.271 224.003 189.434C218.983 193.956 213.963 198.184 208.746 202.542C203.168 207.13 200.871 209.358 195.901 213.815C192.764 216.693 190.15 220.091 188.174 223.859C179.561 225.285 171.096 212.127 178.478 196.742C179.693 194.254 181.529 192.12 183.81 190.548C192.898 184.076 210.731 170.951 210.731 170.951Z" fill="#985952"/>
<path d="M210.731 170.951C213.418 174.359 217.028 176.924 221.132 178.341C221.132 178.341 215.636 179.652 208.254 172.787L210.731 170.951Z" fill="#8A4646"/>
<path d="M179.496 192.187C181.513 190.794 186.419 187.828 196.212 181.569C196.212 181.569 194.703 184.731 197.082 192.678C199.461 200.625 204.481 205.655 207.63 206.229C207.63 206.229 202.151 210.554 197.098 215.437C192.046 220.32 187.895 223.777 184.975 229.447C184.975 229.447 177.757 227.595 176.116 215.372C174.968 206.802 175.657 196.742 179.496 192.187Z" fill="#455A64"/>
<path d="M124.702 152.829C123.26 149.785 122.625 146.422 122.857 143.062C123.09 139.703 124.183 136.459 126.031 133.642C132.248 124.811 142.731 120.534 154.313 120.665H157.906C173.54 120.927 187.747 134.331 188.026 149.421C188.026 160.039 188.026 169.854 182.169 177.096C176.772 183.83 168.356 186.042 161.253 187.124C147.669 189.188 132.413 187.615 126.244 178.374C126.244 178.374 134.447 180.012 133.413 171.525C133.266 170.181 134.545 168.707 136.793 167.183C135.218 164.459 133.366 161.906 131.264 159.564C128.951 157.253 126.277 155.959 124.702 152.829Z" fill="#263238"/>
<path d="M128.754 160.58C128.836 176.391 133.906 180.373 136.448 181.553C138.991 182.732 143.978 182.11 148.818 181.405L148.654 190.892C148.654 190.892 142.994 196.611 143.322 200.969C143.65 205.328 151.984 205.885 158.3 201.805C161.779 199.503 164.935 196.748 167.684 193.612C168.208 193.005 168.504 192.234 168.52 191.433L168.914 169.133C168.914 169.133 171.506 171.967 176.231 168.854C177.251 168.231 178.131 167.403 178.814 166.422C179.497 165.441 179.969 164.329 180.199 163.157C180.428 161.984 180.412 160.777 180.149 159.611C179.887 158.445 179.385 157.347 178.675 156.385C178.008 155.737 177.206 155.243 176.327 154.938C175.447 154.633 174.511 154.524 173.585 154.619C172.659 154.714 171.766 155.011 170.967 155.489C170.168 155.967 169.484 156.614 168.963 157.384C167.52 160.072 167.651 161.972 165.682 161.661C163.714 161.35 163.632 159.22 163.5 157.696C163.369 156.172 163.5 155.68 163.303 153.681C158.628 152.682 153.788 146.177 153.247 141.425C150.08 142.981 146.589 143.767 143.06 143.719C137.826 143.359 135.119 142.31 132.544 138.542C131.93 139.404 131.439 140.347 131.084 141.343C130.355 143.361 129.806 145.439 129.443 147.553C128.859 151.869 128.629 156.226 128.754 160.58Z" fill="#985952"/>
<path d="M148.818 181.405C153.92 180.815 164.435 177.997 166.142 173.901C165.452 175.98 164.141 177.799 162.385 179.111C159.202 181.733 148.769 184.567 148.769 184.567L148.818 181.405Z" fill="#8A4646"/>
<path d="M143.683 172.885C143.674 173.297 143.787 173.703 144.008 174.05C144.23 174.398 144.55 174.673 144.927 174.839C145.305 175.005 145.724 175.055 146.13 174.983C146.537 174.911 146.912 174.72 147.21 174.434C147.508 174.148 147.713 173.781 147.802 173.378C147.89 172.975 147.856 172.556 147.705 172.172C147.554 171.788 147.292 171.458 146.953 171.223C146.614 170.989 146.212 170.86 145.8 170.853C145.25 170.844 144.719 171.053 144.322 171.434C143.926 171.814 143.696 172.336 143.683 172.885Z" fill="#B16668"/>
<path d="M146.357 157.319C146.33 157.61 146.361 157.903 146.448 158.182C146.535 158.46 146.676 158.719 146.864 158.943C147.052 159.167 147.282 159.352 147.541 159.486C147.8 159.621 148.084 159.703 148.375 159.728C148.824 159.775 149.276 159.688 149.675 159.477C150.074 159.266 150.4 158.941 150.613 158.544C150.825 158.146 150.914 157.694 150.867 157.246C150.821 156.798 150.641 156.374 150.352 156.028C150.062 155.683 149.676 155.431 149.242 155.306C148.809 155.182 148.348 155.189 147.919 155.328C147.489 155.467 147.111 155.73 146.833 156.085C146.555 156.44 146.389 156.869 146.357 157.319Z" fill="#263238"/>
<path d="M131.56 156.385C131.519 156.919 131.691 157.447 132.038 157.855C132.385 158.264 132.879 158.518 133.413 158.564C133.683 158.597 133.956 158.572 134.214 158.49C134.473 158.408 134.71 158.272 134.911 158.09C135.112 157.908 135.271 157.685 135.378 157.436C135.485 157.187 135.536 156.918 135.53 156.647C135.557 156.382 135.53 156.114 135.452 155.859C135.374 155.604 135.245 155.367 135.074 155.163C134.903 154.958 134.693 154.79 134.455 154.668C134.218 154.545 133.959 154.472 133.692 154.452C133.154 154.429 132.628 154.62 132.229 154.981C131.83 155.343 131.589 155.847 131.56 156.385Z" fill="#263238"/>
<path d="M141.78 154.337L140.205 167.543L133.43 164.725L141.78 154.337Z" fill="#8A4646"/>
<path d="M154.265 151.617L150.327 147.881C149.837 148.426 149.576 149.138 149.597 149.87C149.618 150.602 149.921 151.298 150.442 151.814C150.702 152.06 151.009 152.25 151.345 152.374C151.681 152.498 152.038 152.552 152.396 152.534C152.753 152.516 153.103 152.425 153.424 152.267C153.746 152.11 154.032 151.888 154.265 151.617Z" fill="#263238"/>
<path d="M134.562 146.669L130.198 149.946C130.399 150.241 130.658 150.493 130.96 150.685C131.262 150.877 131.6 151.006 131.954 151.063C132.307 151.119 132.668 151.103 133.015 151.015C133.362 150.928 133.687 150.77 133.971 150.552C134.543 150.099 134.921 149.447 135.031 148.726C135.14 148.006 134.973 147.271 134.562 146.669Z" fill="#263238"/>
<path d="M197.459 26.6471C194.314 26.048 191.098 25.9045 187.911 26.2211C184.866 26.4878 181.893 27.2981 179.135 28.6133C176.488 29.8753 174.148 31.6981 172.277 33.9549C170.305 36.3702 168.994 39.255 168.471 42.3277C167.98 44.7388 167.98 47.2243 168.471 49.6355C168.912 51.7342 169.664 53.7554 170.702 55.6325C171.71 57.4591 172.88 59.1919 174.197 60.8102C175.509 62.4487 176.756 63.9561 177.921 65.4144C179.035 66.7869 180.023 68.2565 180.874 69.8057C181.656 71.181 182.036 72.7476 181.973 74.328C181.963 75.0627 182.15 75.7867 182.514 76.4253C182.686 76.7271 182.922 76.9877 183.205 77.1887C183.489 77.3897 183.813 77.5262 184.155 77.5886L191.881 79.0469C192.248 79.1198 192.626 79.1183 192.993 79.0422C193.359 78.9662 193.707 78.8174 194.014 78.6045C194.334 78.4214 194.605 78.163 194.802 77.8517C194.999 77.5405 195.117 77.1858 195.146 76.8185C195.523 74.3942 195.4 71.9187 194.785 69.5435C194.202 67.4271 193.347 65.3949 192.242 63.4974C191.174 61.6902 189.95 59.9796 188.584 58.3852C187.222 56.7467 185.992 55.272 184.86 53.8301C183.819 52.5352 182.918 51.1347 182.17 49.6519C181.526 48.3651 181.324 46.9027 181.595 45.49C181.813 44.245 182.332 43.0718 183.107 42.0725C183.882 41.0731 184.889 40.2776 186.041 39.7552C188.9 38.4578 192.11 38.1521 195.162 38.8868C200.915 39.9791 204.606 43.6603 206.236 49.9304C206.379 50.5914 206.635 51.2231 206.991 51.7983C207.446 52.3235 208.086 52.6523 208.779 52.7159L216.981 54.2725C217.548 54.3732 218.132 54.2624 218.622 53.9612C218.879 53.7912 219.099 53.5693 219.265 53.3097C219.432 53.0501 219.542 52.7585 219.59 52.4537C219.944 49.869 219.662 47.2371 218.769 44.7855C217.841 41.9538 216.419 39.308 214.57 36.9697C212.496 34.4094 210.026 32.1968 207.253 30.4157C204.264 28.5363 200.938 27.2563 197.459 26.6471ZM182.481 83.5856C181.752 83.4596 181.002 83.6216 180.39 84.0373C179.778 84.4531 179.351 85.0901 179.2 85.814L177.56 94.7603C177.485 95.1189 177.486 95.489 177.562 95.8473C177.638 96.2056 177.788 96.5441 178.003 96.8412C178.204 97.146 178.465 97.4074 178.769 97.61C179.073 97.8127 179.415 97.9524 179.774 98.021L188.518 99.6595C188.88 99.7346 189.253 99.734 189.615 99.6579C189.976 99.5817 190.318 99.4316 190.618 99.2171C190.923 99.0158 191.185 98.7555 191.388 98.4516C191.591 98.1477 191.731 97.8062 191.799 97.4475L193.44 88.5012C193.509 88.1413 193.503 87.7713 193.424 87.4136C193.345 87.0559 193.194 86.7179 192.981 86.4202C192.784 86.1109 192.525 85.846 192.22 85.6428C191.915 85.4397 191.57 85.3026 191.209 85.2405L182.481 83.5856Z" fill="#1BC89E"/>
<path d="M114.089 63.5629C112.154 64.6344 110.386 65.9811 108.839 67.5609C107.336 69.0412 106.118 70.7852 105.246 72.7058C104.41 74.5427 103.979 76.5376 103.983 78.5553C103.985 80.706 104.551 82.8187 105.624 84.6834C106.427 86.1778 107.514 87.5021 108.823 88.5831C109.995 89.4923 111.294 90.2264 112.678 90.7623C114.023 91.2873 115.412 91.6931 116.828 91.9748L120.831 92.7613C122.032 92.9918 123.208 93.3375 124.342 93.7936C125.363 94.1719 126.255 94.8308 126.917 95.6942C127.24 96.091 127.666 96.3914 128.148 96.5627C128.374 96.6474 128.617 96.6811 128.858 96.6612C129.099 96.6414 129.333 96.5686 129.542 96.4479L134.283 93.7936C134.744 93.5416 135.087 93.1174 135.235 92.6138C135.315 92.3746 135.34 92.12 135.305 91.8698C135.271 91.6197 135.18 91.3809 135.038 91.1719C134.164 89.7233 133.003 88.4686 131.626 87.4853C130.377 86.6143 129.021 85.9093 127.59 85.388C126.218 84.9004 124.808 84.5277 123.374 84.2738C121.947 84.028 120.618 83.7822 119.371 83.52C118.246 83.2852 117.147 82.9394 116.09 82.4878C115.178 82.086 114.419 81.4025 113.925 80.5379C113.494 79.7776 113.254 78.9243 113.225 78.0512C113.197 77.178 113.38 76.3109 113.761 75.5241C114.698 73.5727 116.263 71.9918 118.206 71.0345C119.88 70.0684 121.812 69.6412 123.738 69.8113C125.663 69.9813 127.49 70.7404 128.968 71.9849C129.334 72.2817 129.751 72.5094 130.198 72.6567C130.668 72.7345 131.15 72.6289 131.544 72.3617L136.596 69.5435C136.954 69.3426 137.223 69.0153 137.351 68.6259C137.415 68.4223 137.435 68.2075 137.409 67.9956C137.384 67.7838 137.314 67.5798 137.203 67.397C136.246 65.8738 134.935 64.6036 133.381 63.694C131.613 62.6279 129.668 61.8845 127.639 61.4984C125.418 61.0635 123.141 60.9915 120.897 61.2853C118.502 61.6002 116.19 62.3736 114.089 63.5629ZM131.38 100.348C131.157 100.471 130.961 100.637 130.803 100.837C130.645 101.037 130.529 101.266 130.461 101.511C130.388 101.753 130.365 102.006 130.394 102.257C130.422 102.508 130.501 102.75 130.625 102.969L133.693 108.458C133.942 108.905 134.358 109.235 134.849 109.376C135.341 109.518 135.869 109.458 136.318 109.212L141.682 106.214C141.908 106.097 142.106 105.932 142.261 105.731C142.417 105.53 142.527 105.298 142.584 105.05C142.662 104.81 142.69 104.557 142.664 104.306C142.639 104.054 142.561 103.811 142.437 103.592L139.369 98.1029C139.245 97.8829 139.077 97.6898 138.877 97.5351C138.677 97.3804 138.449 97.267 138.204 97.2017C137.963 97.1252 137.708 97.1002 137.457 97.1285C137.205 97.1567 136.962 97.2375 136.744 97.3655L131.38 100.348Z" fill="#1BC89E"/>
<g opacity="0.2">
<path opacity="0.2" d="M114.089 63.5629C112.154 64.6344 110.386 65.9811 108.839 67.5609C107.336 69.0412 106.118 70.7852 105.246 72.7058C104.41 74.5427 103.979 76.5376 103.983 78.5553C103.985 80.706 104.551 82.8187 105.624 84.6834C106.427 86.1778 107.514 87.5021 108.823 88.5831C109.995 89.4923 111.294 90.2264 112.678 90.7623C114.023 91.2873 115.412 91.6931 116.828 91.9748L120.831 92.7613C122.032 92.9918 123.208 93.3375 124.342 93.7936C125.363 94.1719 126.255 94.8308 126.917 95.6942C127.24 96.091 127.666 96.3914 128.148 96.5627C128.374 96.6474 128.617 96.6811 128.858 96.6612C129.099 96.6414 129.333 96.5686 129.542 96.4479L134.283 93.7936C134.744 93.5416 135.087 93.1174 135.235 92.6138C135.315 92.3746 135.34 92.12 135.305 91.8698C135.271 91.6197 135.18 91.3809 135.038 91.1719C134.164 89.7233 133.003 88.4686 131.626 87.4853C130.377 86.6143 129.021 85.9093 127.59 85.388C126.218 84.9004 124.808 84.5277 123.374 84.2738C121.947 84.028 120.618 83.7822 119.371 83.52C118.246 83.2852 117.147 82.9394 116.09 82.4878C115.178 82.086 114.419 81.4025 113.925 80.5379C113.494 79.7776 113.254 78.9243 113.225 78.0512C113.197 77.178 113.38 76.3109 113.761 75.5241C114.698 73.5727 116.263 71.9918 118.206 71.0345C119.88 70.0684 121.812 69.6412 123.738 69.8113C125.663 69.9813 127.49 70.7404 128.968 71.9849C129.334 72.2817 129.751 72.5094 130.198 72.6567C130.668 72.7345 131.15 72.6289 131.544 72.3617L136.596 69.5435C136.954 69.3426 137.223 69.0153 137.351 68.6259C137.415 68.4223 137.435 68.2075 137.409 67.9956C137.384 67.7838 137.314 67.5798 137.203 67.397C136.246 65.8738 134.935 64.6036 133.381 63.694C131.613 62.6279 129.668 61.8845 127.639 61.4984C125.418 61.0635 123.141 60.9915 120.897 61.2853C118.502 61.6002 116.19 62.3736 114.089 63.5629ZM131.38 100.348C131.157 100.471 130.961 100.637 130.803 100.837C130.645 101.037 130.529 101.266 130.461 101.511C130.388 101.753 130.365 102.006 130.394 102.257C130.422 102.508 130.501 102.75 130.625 102.969L133.693 108.458C133.942 108.905 134.358 109.235 134.849 109.376C135.341 109.518 135.869 109.458 136.318 109.212L141.682 106.214C141.908 106.097 142.106 105.932 142.261 105.731C142.417 105.53 142.527 105.298 142.584 105.05C142.662 104.81 142.69 104.557 142.664 104.306C142.639 104.054 142.561 103.811 142.437 103.592L139.369 98.1029C139.245 97.8829 139.077 97.6898 138.877 97.5351C138.677 97.3804 138.449 97.267 138.204 97.2017C137.963 97.1252 137.708 97.1002 137.457 97.1285C137.205 97.1567 136.962 97.2375 136.744 97.3655L131.38 100.348Z" fill="black"/>
</g>
<path d="M229.646 123.729C229.428 123.523 229.17 123.363 228.888 123.259C228.606 123.155 228.306 123.109 228.005 123.123C227.698 123.127 227.394 123.193 227.112 123.317C226.83 123.441 226.576 123.62 226.365 123.844L221.312 129.317C221.104 129.54 220.943 129.802 220.837 130.088C220.731 130.374 220.682 130.678 220.695 130.982C220.707 131.287 220.779 131.586 220.908 131.863C221.036 132.139 221.218 132.388 221.443 132.594L226.791 137.509C227.015 137.717 227.277 137.878 227.564 137.984C227.85 138.09 228.154 138.138 228.459 138.126C228.764 138.114 229.064 138.042 229.341 137.913C229.618 137.785 229.866 137.603 230.073 137.378L235.125 131.906C235.335 131.683 235.499 131.422 235.606 131.135C235.713 130.849 235.762 130.545 235.75 130.239C235.738 129.934 235.664 129.634 235.535 129.358C235.405 129.081 235.221 128.833 234.994 128.628L229.646 123.729ZM264.753 90.7131C262.835 88.9225 260.669 87.4161 258.322 86.24C256.094 85.1151 253.683 84.3939 251.202 84.1099C248.821 83.8473 246.411 84.0931 244.132 84.8309C241.71 85.6563 239.545 87.0961 237.849 89.0091C236.429 90.4497 235.313 92.1602 234.568 94.0393C233.966 95.6877 233.612 97.416 233.518 99.1679C233.424 100.873 233.479 102.584 233.682 104.28C233.895 105.919 234.092 107.557 234.272 109.081C234.45 110.516 234.5 111.963 234.42 113.407C234.365 114.704 233.944 115.959 233.206 117.028C232.888 117.517 232.707 118.083 232.681 118.666C232.667 118.953 232.718 119.24 232.832 119.504C232.946 119.768 233.119 120.003 233.337 120.19L238.062 124.565C238.51 124.971 239.098 125.188 239.702 125.171C240.002 125.182 240.3 125.121 240.572 124.993C240.843 124.864 241.079 124.673 241.261 124.434C242.573 122.91 243.566 121.138 244.181 119.223C244.695 117.504 244.981 115.725 245.034 113.931C245.085 112.2 244.986 110.467 244.739 108.753C244.493 107.115 244.296 105.476 244.132 104.002C243.985 102.646 243.985 101.278 244.132 99.9216C244.239 98.7535 244.729 97.6534 245.526 96.7921C246.22 96.0244 247.09 95.4368 248.062 95.0799C249.033 94.7231 250.078 94.6078 251.104 94.7439C253.635 95.0709 255.988 96.2228 257.797 98.021C261.319 101.298 262.287 105.454 260.701 110.49C260.506 111.015 260.406 111.569 260.406 112.129C260.446 112.404 260.541 112.669 260.685 112.908C260.828 113.147 261.018 113.356 261.242 113.521L266.279 118.175C266.631 118.514 267.102 118.702 267.591 118.699C267.842 118.695 268.088 118.637 268.315 118.53C268.541 118.422 268.742 118.268 268.903 118.076C270.298 116.465 271.273 114.534 271.741 112.456C272.298 110.078 272.426 107.62 272.119 105.198C271.782 102.542 271.017 99.9579 269.855 97.5458C268.617 94.9577 266.883 92.6365 264.753 90.7131Z" fill="#1BC89E"/>
<g opacity="0.6">
<path opacity="0.6" d="M229.646 123.729C229.428 123.523 229.17 123.363 228.888 123.259C228.606 123.155 228.306 123.109 228.005 123.123C227.698 123.127 227.394 123.193 227.112 123.317C226.83 123.441 226.576 123.62 226.365 123.844L221.312 129.317C221.104 129.54 220.943 129.802 220.837 130.088C220.731 130.374 220.682 130.678 220.695 130.982C220.707 131.287 220.779 131.586 220.908 131.863C221.036 132.139 221.218 132.388 221.443 132.594L226.791 137.509C227.015 137.717 227.277 137.878 227.564 137.984C227.85 138.09 228.154 138.138 228.459 138.126C228.764 138.114 229.064 138.042 229.341 137.913C229.618 137.785 229.866 137.603 230.073 137.378L235.125 131.906C235.335 131.683 235.499 131.422 235.606 131.135C235.713 130.849 235.762 130.545 235.75 130.239C235.738 129.934 235.664 129.634 235.535 129.358C235.405 129.081 235.221 128.833 234.994 128.628L229.646 123.729ZM264.753 90.7131C262.835 88.9225 260.669 87.4161 258.322 86.24C256.094 85.1151 253.683 84.3939 251.202 84.1099C248.821 83.8473 246.411 84.0931 244.132 84.8309C241.71 85.6563 239.545 87.0961 237.849 89.0091C236.429 90.4497 235.313 92.1602 234.568 94.0393C233.966 95.6877 233.612 97.416 233.518 99.1679C233.424 100.873 233.479 102.584 233.682 104.28C233.895 105.919 234.092 107.557 234.272 109.081C234.45 110.516 234.5 111.963 234.42 113.407C234.365 114.704 233.944 115.959 233.206 117.028C232.888 117.517 232.707 118.083 232.681 118.666C232.667 118.953 232.718 119.24 232.832 119.504C232.946 119.768 233.119 120.003 233.337 120.19L238.062 124.565C238.51 124.971 239.098 125.188 239.702 125.171C240.002 125.182 240.3 125.121 240.572 124.993C240.843 124.864 241.079 124.673 241.261 124.434C242.573 122.91 243.566 121.138 244.181 119.223C244.695 117.504 244.981 115.725 245.034 113.931C245.085 112.2 244.986 110.467 244.739 108.753C244.493 107.115 244.296 105.476 244.132 104.002C243.985 102.646 243.985 101.278 244.132 99.9216C244.239 98.7535 244.729 97.6534 245.526 96.7921C246.22 96.0244 247.09 95.4368 248.062 95.0799C249.033 94.7231 250.078 94.6078 251.104 94.7439C253.635 95.0709 255.988 96.2228 257.797 98.021C261.319 101.298 262.287 105.454 260.701 110.49C260.506 111.015 260.406 111.569 260.406 112.129C260.446 112.404 260.541 112.669 260.685 112.908C260.828 113.147 261.018 113.356 261.242 113.521L266.279 118.175C266.631 118.514 267.102 118.702 267.591 118.699C267.842 118.695 268.088 118.637 268.315 118.53C268.541 118.422 268.742 118.268 268.903 118.076C270.298 116.465 271.273 114.534 271.741 112.456C272.298 110.078 272.426 107.62 272.119 105.198C271.782 102.542 271.017 99.9579 269.855 97.5458C268.617 94.9577 266.883 92.6365 264.753 90.7131Z" fill="white"/>
</g>
</svg>
