<svg width="597" height="710" viewBox="0 0 597 710" fill="none" xmlns="http://www.w3.org/2000/svg">
<path d="M83.8836 233.696L110.839 156.387C113.865 147.691 118.588 139.681 124.734 132.822C130.88 125.962 138.327 120.389 146.643 116.425C154.96 112.462 163.98 110.186 173.183 109.73C182.386 109.274 191.588 110.648 200.256 113.77L296.566 148.529C309.536 153.2 323.601 153.921 336.981 150.599C350.361 147.278 362.453 140.064 371.727 129.871L399.134 99.7765C405.538 92.7396 413.317 87.0888 421.992 83.1729C430.666 79.257 440.052 77.1591 449.569 77.0087C459.086 76.8583 468.534 78.6586 477.328 82.2984C486.122 85.9383 494.076 91.3405 500.699 98.1715L577.466 177.67C585.273 185.752 591.005 195.601 594.175 206.377C597.344 217.153 597.856 228.536 595.666 239.553C593.476 250.569 588.649 260.893 581.599 269.641C574.549 278.388 565.484 285.301 555.179 289.788C546.353 293.636 538.422 299.27 531.887 306.336C525.351 313.402 520.353 321.746 517.208 330.839C514.063 339.933 512.84 349.58 513.616 359.17C514.391 368.761 517.149 378.086 521.714 386.557L538.949 418.591C543.575 427.178 546.344 436.64 547.075 446.365C547.806 456.09 546.483 465.86 543.192 475.041C539.901 484.222 534.716 492.609 527.972 499.659C521.228 506.709 513.076 512.263 504.045 515.962L392.09 561.806C383.057 565.503 373.347 567.262 363.59 566.969C353.832 566.676 344.246 564.337 335.451 560.105C326.656 555.872 318.849 549.84 312.537 542.4C306.224 534.96 301.547 526.277 298.808 516.915L261.512 389.182C257.992 377.158 251.289 366.306 242.109 357.772C232.93 349.238 221.614 343.339 209.358 340.697L134.967 324.647C125.32 322.567 116.225 318.463 108.285 312.606C100.346 306.75 93.7421 299.274 88.9122 290.674C84.0822 282.075 81.1362 272.548 80.2693 262.725C79.4024 252.902 80.6343 243.007 83.8836 233.696Z" fill="white"/>
<path d="M357 679C482.921 679 585 669.822 585 658.5C585 647.178 482.921 638 357 638C231.079 638 129 647.178 129 658.5C129 669.822 231.079 679 357 679Z" fill="#EAF2FF"/>
<path d="M232.221 126.651L85.3564 142.087L98.6735 268.79L245.538 253.354L232.221 126.651Z" fill="#1BC89E"/>
<path opacity="0.6" d="M232.221 126.651L85.3564 142.087L98.6735 268.79L245.538 253.354L232.221 126.651Z" fill="white"/>
<path d="M229.744 102.935L82.8789 118.371L85.3709 142.081L232.236 126.645L229.744 102.935Z" fill="#1BC89E"/>
<path d="M104.462 108.193C104.304 107.193 103.769 106.293 102.966 105.677C102.164 105.061 101.155 104.777 100.149 104.883C99.143 104.99 98.2162 105.479 97.5601 106.249C96.904 107.019 96.5687 108.011 96.6235 109.021L98.2813 124.663C98.3345 125.176 98.4884 125.674 98.7341 126.128C98.9798 126.582 99.3126 126.984 99.7133 127.309C100.114 127.635 100.575 127.878 101.07 128.025C101.565 128.173 102.084 128.221 102.597 128.168C103.111 128.114 103.609 127.961 104.063 127.715C104.517 127.469 104.918 127.136 105.243 126.736C105.569 126.335 105.812 125.874 105.959 125.379C106.107 124.884 106.155 124.365 106.102 123.852C106.012 122.735 104.57 109.292 104.462 108.193Z" fill="#1BC89E"/>
<path d="M132.718 105.219C132.608 104.182 132.09 103.231 131.279 102.576C130.468 101.92 129.43 101.613 128.393 101.723C127.356 101.833 126.405 102.351 125.749 103.162C125.094 103.973 124.787 105.011 124.897 106.048L126.537 121.689C126.562 122.226 126.697 122.751 126.932 123.233C127.168 123.716 127.499 124.145 127.906 124.495C128.313 124.845 128.787 125.108 129.299 125.268C129.811 125.429 130.351 125.483 130.885 125.428C131.419 125.373 131.936 125.209 132.404 124.947C132.873 124.685 133.283 124.331 133.61 123.905C133.936 123.479 134.173 122.991 134.304 122.471C134.436 121.95 134.46 121.409 134.375 120.879C134.249 119.761 132.844 106.336 132.718 105.219Z" fill="#1BC89E"/>
<path d="M160.991 102.246C160.937 101.732 160.782 101.235 160.535 100.781C160.288 100.327 159.954 99.9268 159.553 99.6022C159.151 99.2776 158.689 99.0352 158.194 98.889C157.699 98.7428 157.18 98.6955 156.666 98.7499C156.153 98.8044 155.655 98.9594 155.201 99.2062C154.748 99.453 154.347 99.7867 154.023 100.188C153.367 100.999 153.06 102.038 153.17 103.075L154.81 118.734C154.865 119.248 155.02 119.745 155.266 120.199C155.513 120.653 155.847 121.053 156.249 121.378C156.65 121.702 157.112 121.945 157.607 122.091C158.102 122.237 158.621 122.284 159.135 122.23C159.648 122.176 160.146 122.021 160.6 121.774C161.053 121.527 161.454 121.193 161.779 120.792C162.103 120.39 162.346 119.928 162.492 119.433C162.638 118.938 162.685 118.419 162.631 117.905C162.523 116.824 161.099 103.363 160.991 102.246Z" fill="#1BC89E"/>
<path d="M189.264 99.2726C189.107 98.2733 188.571 97.3728 187.768 96.757C186.966 96.1412 185.957 95.8572 184.951 95.9635C183.945 96.0699 183.018 96.5586 182.362 97.3287C181.706 98.0987 181.371 99.0914 181.426 100.102C181.57 101.489 182.939 114.373 183.084 115.761C183.138 116.274 183.293 116.772 183.54 117.226C183.787 117.679 184.12 118.08 184.522 118.405C184.923 118.729 185.385 118.972 185.88 119.118C186.376 119.264 186.895 119.311 187.408 119.257C187.922 119.202 188.42 119.047 188.873 118.801C189.327 118.554 189.727 118.22 190.052 117.818C190.377 117.417 190.619 116.955 190.765 116.46C190.911 115.965 190.959 115.446 190.904 114.932C190.706 113.833 189.373 100.39 189.264 99.2726Z" fill="#1BC89E"/>
<path d="M217.52 96.2995C217.465 95.786 217.31 95.2882 217.064 94.8346C216.817 94.381 216.483 93.9805 216.081 93.6559C215.68 93.3313 215.218 93.0889 214.723 92.9427C214.228 92.7965 213.709 92.7492 213.195 92.8036C212.682 92.8581 212.184 93.0131 211.73 93.2599C211.277 93.5067 210.876 93.8404 210.551 94.242C210.227 94.6436 209.984 95.1052 209.838 95.6005C209.692 96.0957 209.645 96.6149 209.699 97.1284L211.339 112.788C211.497 113.787 212.032 114.688 212.835 115.303C213.638 115.919 214.646 116.203 215.652 116.097C216.658 115.991 217.585 115.502 218.241 114.732C218.897 113.962 219.232 112.969 219.178 111.959C219.052 110.86 217.736 97.4168 217.52 96.2995Z" fill="#1BC89E"/>
<g opacity="0.7">
<path opacity="0.7" d="M104.462 108.193C104.304 107.194 103.769 106.293 102.966 105.677C102.164 105.061 101.155 104.777 100.149 104.884C99.143 104.99 98.2162 105.479 97.5601 106.249C96.904 107.019 96.5687 108.012 96.6235 109.022L98.2813 124.663C98.3345 125.177 98.4884 125.675 98.7341 126.129C98.9798 126.583 99.3126 126.984 99.7133 127.309C100.114 127.635 100.575 127.878 101.07 128.025C101.565 128.173 102.084 128.221 102.597 128.168C103.111 128.115 103.609 127.961 104.063 127.715C104.517 127.469 104.918 127.137 105.243 126.736C105.569 126.335 105.812 125.874 105.959 125.379C106.107 124.885 106.155 124.366 106.102 123.852C106.012 122.735 104.57 109.292 104.462 108.193Z" fill="white"/>
<path opacity="0.7" d="M132.718 105.219C132.608 104.182 132.09 103.231 131.279 102.576C130.468 101.92 129.43 101.614 128.393 101.724C127.356 101.833 126.405 102.351 125.749 103.162C125.094 103.973 124.787 105.011 124.897 106.048L126.537 121.69C126.562 122.226 126.697 122.751 126.932 123.234C127.168 123.716 127.499 124.145 127.906 124.495C128.313 124.845 128.787 125.108 129.299 125.269C129.811 125.429 130.351 125.483 130.885 125.428C131.419 125.373 131.936 125.209 132.404 124.947C132.873 124.686 133.283 124.331 133.61 123.905C133.936 123.479 134.173 122.991 134.304 122.471C134.436 121.951 134.46 121.409 134.375 120.879C134.249 119.762 132.844 106.337 132.718 105.219Z" fill="white"/>
<path opacity="0.7" d="M160.991 102.246C160.937 101.733 160.782 101.235 160.535 100.781C160.288 100.328 159.954 99.927 159.553 99.6024C159.151 99.2778 158.689 99.0355 158.194 98.8892C157.699 98.743 157.18 98.6957 156.666 98.7502C156.153 98.8046 155.655 98.9596 155.201 99.2064C154.748 99.4532 154.347 99.787 154.023 100.189C153.367 101 153.06 102.038 153.17 103.075L154.81 118.734C154.865 119.248 155.02 119.746 155.266 120.199C155.513 120.653 155.847 121.053 156.249 121.378C156.65 121.703 157.112 121.945 157.607 122.091C158.102 122.237 158.621 122.285 159.135 122.23C159.648 122.176 160.146 122.021 160.6 121.774C161.053 121.527 161.454 121.193 161.779 120.792C162.103 120.39 162.346 119.929 162.492 119.433C162.638 118.938 162.685 118.419 162.631 117.905C162.523 116.824 161.099 103.363 160.991 102.246Z" fill="white"/>
<path opacity="0.7" d="M189.264 99.2729C189.107 98.2736 188.571 97.3731 187.768 96.7572C186.966 96.1414 185.957 95.8574 184.951 95.9638C183.945 96.0702 183.018 96.5589 182.362 97.3289C181.706 98.099 181.371 99.0916 181.426 100.102C181.57 101.489 182.939 114.374 183.084 115.761C183.138 116.275 183.293 116.772 183.54 117.226C183.787 117.68 184.12 118.08 184.522 118.405C184.924 118.729 185.385 118.972 185.88 119.118C186.376 119.264 186.895 119.311 187.408 119.257C187.922 119.203 188.42 119.048 188.873 118.801C189.327 118.554 189.727 118.22 190.052 117.819C190.377 117.417 190.619 116.955 190.765 116.46C190.911 115.965 190.959 115.446 190.904 114.932C190.706 113.833 189.373 100.39 189.264 99.2729Z" fill="white"/>
<path opacity="0.7" d="M217.519 96.2995C217.465 95.786 217.31 95.2882 217.063 94.8346C216.816 94.381 216.483 93.9805 216.081 93.6559C215.679 93.3313 215.218 93.0889 214.723 92.9427C214.227 92.7965 213.708 92.7492 213.195 92.8036C212.681 92.8581 212.183 93.0131 211.73 93.2599C211.276 93.5067 210.876 93.8404 210.551 94.242C210.226 94.6436 209.984 95.1052 209.838 95.6005C209.691 96.0957 209.644 96.6149 209.699 97.1284L211.338 112.788C211.496 113.787 212.032 114.688 212.834 115.303C213.637 115.919 214.646 116.203 215.652 116.097C216.658 115.991 217.584 115.502 218.241 114.732C218.897 113.962 219.232 112.969 219.177 111.959C219.051 110.86 217.736 97.4168 217.519 96.2995Z" fill="white"/>
</g>
<path d="M249.469 249.343L102.606 264.786L85.3608 142.088L232.224 126.645L249.469 249.343Z" fill="#1BC89E"/>
<path opacity="0.8" d="M249.469 249.343L102.606 264.786L85.3608 142.088L232.224 126.645L249.469 249.343Z" fill="white"/>
<path d="M202.581 160.342L129.888 167.983L126.861 146.395L199.554 138.754L202.581 160.342Z" fill="#1BC89E"/>
<path opacity="0.6" d="M202.581 160.342L129.888 167.983L126.861 146.395L199.554 138.754L202.581 160.342Z" fill="white"/>
<path d="M121.563 197.175L102.156 199.212L99.4346 179.858L118.86 177.822L121.563 197.175Z" fill="white"/>
<path d="M149.116 194.274L129.69 196.31L126.987 176.975L146.395 174.939L149.116 194.274Z" fill="white"/>
<path d="M125.239 223.268L105.813 225.305L103.11 205.969L122.518 203.915L125.239 223.268Z" fill="#1BC89E"/>
<path d="M128.897 249.361L109.49 251.398L106.769 232.044L126.176 230.008L128.897 249.361Z" fill="#1BC89E"/>
<path d="M152.792 220.367L133.366 222.403L130.645 203.068L150.071 201.031L152.792 220.367Z" fill="#1BC89E"/>
<path opacity="0.2" d="M152.792 220.367L133.366 222.403L130.645 203.068L150.071 201.031L152.792 220.367Z" fill="white"/>
<path d="M180.326 217.466L160.919 219.52L158.198 200.167L177.605 198.13L180.326 217.466Z" fill="#1BC89E"/>
<path opacity="0.2" d="M180.326 217.466L160.919 219.52L158.198 200.167L177.605 198.13L180.326 217.466Z" fill="white"/>
<path d="M207.879 214.582L188.453 216.619L185.732 197.283L205.158 195.229L207.879 214.582Z" fill="#1BC89E"/>
<path opacity="0.2" d="M207.879 214.582L188.453 216.619L185.732 197.283L205.158 195.229L207.879 214.582Z" fill="white"/>
<path d="M235.414 211.681L216.006 213.718L213.285 194.382L232.693 192.346L235.414 211.681Z" fill="#1BC89E"/>
<path opacity="0.2" d="M235.414 211.681L216.006 213.718L213.285 194.382L232.693 192.346L235.414 211.681Z" fill="white"/>
<path d="M156.45 246.46L137.042 248.496L134.321 229.161L153.729 227.125L156.45 246.46Z" fill="#1BC89E"/>
<path opacity="0.2" d="M156.45 246.46L137.042 248.496L134.321 229.161L153.729 227.125L156.45 246.46Z" fill="white"/>
<path d="M184.003 243.577L164.577 245.613L161.856 226.26L181.282 224.223L184.003 243.577Z" fill="#1BC89E"/>
<path opacity="0.2" d="M184.003 243.577L164.577 245.613L161.856 226.26L181.282 224.223L184.003 243.577Z" fill="white"/>
<path d="M211.537 240.675L192.13 242.712L189.409 223.376L208.816 221.322L211.537 240.675Z" fill="#1BC89E"/>
<path opacity="0.2" d="M211.537 240.675L192.13 242.712L189.409 223.376L208.816 221.322L211.537 240.675Z" fill="white"/>
<path d="M176.668 191.373L157.242 193.427L154.521 174.074L173.947 172.038L176.668 191.373Z" fill="#1BC89E"/>
<path opacity="0.2" d="M176.668 191.373L157.242 193.427L154.521 174.074L173.947 172.038L176.668 191.373Z" fill="white"/>
<path d="M204.203 188.49L184.795 190.526L182.074 171.172L201.482 169.136L204.203 188.49Z" fill="#1BC89E"/>
<path opacity="0.2" d="M204.203 188.49L184.795 190.526L182.074 171.172L201.482 169.136L204.203 188.49Z" fill="white"/>
<path d="M231.755 185.588L212.33 187.625L209.609 168.289L229.034 166.253L231.755 185.588Z" fill="#1BC89E"/>
<path opacity="0.2" d="M231.755 185.588L212.33 187.625L209.609 168.289L229.034 166.253L231.755 185.588Z" fill="white"/>
<path d="M239.089 237.774L219.664 239.811L216.943 220.475L236.368 218.439L239.089 237.774Z" fill="white"/>
<path d="M290.014 57.3581C290.217 58.2698 290.058 59.2246 289.571 60.0213C289.083 60.818 288.305 61.3943 287.401 61.6289C286.49 61.8316 285.535 61.6725 284.738 61.1851C283.942 60.6977 283.365 59.92 283.131 59.016L282.067 54.6011L264.048 58.9259C264.588 61.1424 265.021 62.9804 265.111 63.3408C265.329 63.8241 265.438 64.3498 265.43 64.8802C265.422 65.4106 265.298 65.9328 265.064 66.4093C264.831 66.8858 264.496 67.3051 264.082 67.637C263.668 67.969 263.187 68.2055 262.671 68.3297C262.155 68.4539 261.618 68.4628 261.099 68.3556C260.579 68.2484 260.09 68.0278 259.665 67.7096C259.241 67.3915 258.892 66.9835 258.643 66.5149C258.395 66.0462 258.252 65.5285 258.227 64.9986L257.164 60.5837L239.144 64.9085C239.684 67.125 240.117 68.963 240.207 69.3234C240.247 70.1612 239.994 70.9867 239.491 71.6578C238.988 72.3289 238.266 72.8036 237.451 73C236.636 73.1963 235.777 73.1022 235.024 72.7337C234.27 72.3652 233.669 71.7455 233.323 70.9813L232.26 66.5664L214.24 70.8912C214.781 73.1076 215.213 74.9457 215.303 75.3061C215.522 75.7894 215.631 76.3151 215.623 76.8455C215.615 77.3759 215.49 77.898 215.257 78.3746C215.024 78.8511 214.689 79.2703 214.275 79.6023C213.861 79.9343 213.379 80.1708 212.864 80.295C212.348 80.4192 211.811 80.428 211.291 80.3209C210.772 80.2137 210.282 79.9931 209.858 79.6749C209.433 79.3567 209.085 78.9488 208.836 78.4801C208.587 78.0115 208.445 77.4938 208.42 76.9639L207.357 72.549L189.337 76.8738C189.859 79.0903 190.31 80.9283 190.4 81.2887C190.451 82.1342 190.203 82.9708 189.699 83.6517C189.195 84.3326 188.468 84.8142 187.644 85.012C186.821 85.2099 185.954 85.1113 185.195 84.7336C184.437 84.3559 183.836 83.7232 183.498 82.9465L182.453 78.5317L171.028 81.2707L199.338 198.995L328.559 167.929L300.394 50.1501L288.969 52.8892C289.492 55.1237 289.942 56.9617 290.014 57.3581Z" fill="#1BC89E"/>
<path opacity="0.8" d="M290.014 57.3581C290.217 58.2698 290.058 59.2246 289.571 60.0213C289.083 60.818 288.305 61.3943 287.401 61.6289C286.49 61.8316 285.535 61.6725 284.738 61.1851C283.942 60.6977 283.365 59.92 283.131 59.016L282.067 54.6011L264.048 58.9259C264.588 61.1424 265.021 62.9804 265.111 63.3408C265.329 63.8241 265.438 64.3498 265.43 64.8802C265.422 65.4106 265.298 65.9328 265.064 66.4093C264.831 66.8858 264.496 67.3051 264.082 67.637C263.668 67.969 263.187 68.2055 262.671 68.3297C262.155 68.4539 261.618 68.4628 261.099 68.3556C260.579 68.2484 260.09 68.0278 259.665 67.7096C259.241 67.3915 258.892 66.9835 258.643 66.5149C258.395 66.0462 258.252 65.5285 258.227 64.9986L257.164 60.5837L239.144 64.9085C239.684 67.125 240.117 68.963 240.207 69.3234C240.247 70.1612 239.994 70.9867 239.491 71.6578C238.988 72.3289 238.266 72.8036 237.451 73C236.636 73.1963 235.777 73.1022 235.024 72.7337C234.27 72.3652 233.669 71.7455 233.323 70.9813L232.26 66.5664L214.24 70.8912C214.781 73.1076 215.213 74.9457 215.303 75.3061C215.522 75.7894 215.631 76.3151 215.623 76.8455C215.615 77.3759 215.49 77.898 215.257 78.3746C215.024 78.8511 214.689 79.2703 214.275 79.6023C213.861 79.9343 213.379 80.1708 212.864 80.295C212.348 80.4192 211.811 80.428 211.291 80.3209C210.772 80.2137 210.282 79.9931 209.858 79.6749C209.433 79.3567 209.085 78.9488 208.836 78.4801C208.587 78.0115 208.445 77.4938 208.42 76.9639L207.357 72.549L189.337 76.8738C189.859 79.0903 190.31 80.9283 190.4 81.2887C190.451 82.1342 190.203 82.9708 189.699 83.6517C189.195 84.3326 188.468 84.8142 187.644 85.012C186.821 85.2099 185.954 85.1113 185.195 84.7336C184.437 84.3559 183.836 83.7232 183.498 82.9465L182.453 78.5317L171.028 81.2707L199.338 198.995L328.559 167.929L300.394 50.1501L288.969 52.8892C289.492 55.1237 289.942 56.9617 290.014 57.3581Z" fill="white"/>
<path d="M274.648 74.2646L210.68 89.6455L215.264 108.708L279.232 93.327L274.648 74.2646Z" fill="#1BC89E"/>
<path opacity="0.6" d="M274.648 74.2646L210.68 89.6455L215.264 108.708L279.232 93.327L274.648 74.2646Z" fill="white"/>
<path d="M206.318 118.851L189.236 122.958L193.343 140.041L210.426 135.933L206.318 118.851Z" fill="white"/>
<path d="M230.56 113.021L213.477 117.129L217.585 134.212L234.667 130.104L230.56 113.021Z" fill="#1BC89E"/>
<path d="M254.796 107.193L237.713 111.3L241.821 128.383L258.903 124.275L254.796 107.193Z" fill="#1BC89E"/>
<path d="M279.019 101.363L261.936 105.471L266.044 122.554L283.126 118.446L279.019 101.363Z" fill="#1BC89E"/>
<path d="M303.242 95.5563L286.159 99.6638L290.267 116.746L307.349 112.639L303.242 95.5563Z" fill="#1BC89E"/>
<path d="M211.842 141.894L194.759 146.002L198.867 163.085L215.949 158.977L211.842 141.894Z" fill="#1BC89E"/>
<path d="M236.083 136.083L219 140.191L223.107 157.273L240.19 153.166L236.083 136.083Z" fill="#1BC89E"/>
<path d="M260.319 130.236L243.237 134.344L247.344 151.426L264.427 147.319L260.319 130.236Z" fill="#1BC89E"/>
<path d="M284.56 124.425L267.478 128.533L271.585 145.615L288.668 141.508L284.56 124.425Z" fill="#1BC89E"/>
<path d="M308.796 118.578L291.714 122.686L295.821 139.768L312.904 135.661L308.796 118.578Z" fill="#1BC89E"/>
<path d="M217.4 164.934L200.318 169.042L204.425 186.124L221.508 182.017L217.4 164.934Z" fill="#1BC89E"/>
<path d="M241.642 159.123L224.559 163.23L228.667 180.313L245.749 176.205L241.642 159.123Z" fill="#1BC89E"/>
<path d="M265.86 153.294L248.777 157.401L252.885 174.484L269.967 170.377L265.86 153.294Z" fill="#1BC89E"/>
<path opacity="0.2" d="M230.56 113.021L213.477 117.129L217.585 134.212L234.667 130.104L230.56 113.021Z" fill="white"/>
<path opacity="0.2" d="M254.796 107.193L237.713 111.3L241.821 128.383L258.903 124.275L254.796 107.193Z" fill="white"/>
<path opacity="0.2" d="M279.019 101.363L261.936 105.471L266.044 122.554L283.126 118.446L279.019 101.363Z" fill="white"/>
<path opacity="0.2" d="M303.242 95.5563L286.159 99.6638L290.267 116.746L307.349 112.639L303.242 95.5563Z" fill="white"/>
<path opacity="0.2" d="M236.083 136.083L219 140.191L223.107 157.273L240.19 153.166L236.083 136.083Z" fill="white"/>
<path opacity="0.2" d="M260.319 130.236L243.237 134.344L247.344 151.426L264.427 147.319L260.319 130.236Z" fill="white"/>
<path opacity="0.2" d="M284.56 124.425L267.478 128.533L271.585 145.615L288.668 141.508L284.56 124.425Z" fill="white"/>
<path opacity="0.2" d="M308.796 118.578L291.714 122.686L295.821 139.768L312.904 135.661L308.796 118.578Z" fill="white"/>
<path opacity="0.2" d="M241.642 159.123L224.559 163.23L228.667 180.313L245.749 176.205L241.642 159.123Z" fill="white"/>
<path opacity="0.2" d="M265.86 153.294L248.777 157.401L252.885 174.484L269.967 170.377L265.86 153.294Z" fill="white"/>
<path d="M290.101 147.465L273.018 151.572L277.126 168.655L294.208 164.547L290.101 147.465Z" fill="white"/>
<path d="M314.337 141.618L297.254 145.725L301.362 162.808L318.445 158.7L314.337 141.618Z" fill="white"/>
<path d="M171.172 81.2346L196.22 203.554L328.703 167.893L199.482 198.977L171.172 81.2346Z" fill="#1BC89E"/>
<path opacity="0.5" d="M171.172 81.2346L196.22 203.554L328.703 167.893L199.482 198.977L171.172 81.2346Z" fill="white"/>
<path d="M289.348 10.0016C289.692 10.401 289.945 10.8713 290.088 11.3791C290.231 11.887 290.261 12.4202 290.176 12.9408C290.09 13.4615 289.891 13.9571 289.593 14.3925C289.295 14.8279 288.905 15.1925 288.451 15.4607C287.996 15.7288 287.488 15.8938 286.963 15.9442C286.438 15.9945 285.908 15.9289 285.411 15.7519C284.914 15.575 284.462 15.2911 284.086 14.9202C283.711 14.5493 283.422 14.1005 283.239 13.6056L280.932 9.69522L264.984 19.0476L267.273 22.9579C267.566 23.7501 267.571 24.6198 267.288 25.4154C267.005 26.211 266.451 26.8819 265.724 27.311C264.996 27.7401 264.141 27.9001 263.308 27.7632C262.475 27.6263 261.716 27.2012 261.164 26.5619L258.876 22.6516L242.964 31.968C244.135 33.9502 245.072 35.572 245.271 35.8783C245.563 36.6704 245.568 37.5402 245.285 38.3358C245.002 39.1313 244.449 39.8022 243.721 40.2313C242.994 40.6604 242.139 40.8205 241.306 40.6836C240.472 40.5467 239.714 40.1215 239.162 39.4823L236.855 35.572L220.908 44.9424L223.142 48.8347C223.487 49.2341 223.74 49.7044 223.883 50.2122C224.026 50.7201 224.056 51.2533 223.97 51.7739C223.885 52.2946 223.686 52.7902 223.388 53.2256C223.09 53.661 222.7 54.0257 222.245 54.2938C221.791 54.5619 221.283 54.727 220.758 54.7773C220.232 54.8276 219.703 54.762 219.205 54.5851C218.708 54.4081 218.256 54.1242 217.881 53.7533C217.505 53.3824 217.216 52.9336 217.033 52.4387L214.745 48.5103L198.797 57.8807L201.086 61.791C201.378 62.5832 201.383 63.4529 201.1 64.2485C200.817 65.0441 200.263 65.715 199.536 66.1441C198.809 66.5732 197.954 66.7332 197.121 66.5963C196.287 66.4594 195.529 66.0343 194.977 65.3951L192.688 61.4847L182.543 67.4313L243.811 171.947L358.454 104.697L297.186 0.180664L287.041 6.12726L289.348 10.0016Z" fill="#1BC89E"/>
<path opacity="0.8" d="M289.348 10.0016C289.692 10.401 289.945 10.8713 290.088 11.3791C290.231 11.887 290.261 12.4202 290.176 12.9408C290.09 13.4615 289.891 13.9571 289.593 14.3925C289.295 14.8279 288.905 15.1925 288.451 15.4607C287.996 15.7288 287.488 15.8938 286.963 15.9442C286.438 15.9945 285.908 15.9289 285.411 15.7519C284.914 15.575 284.462 15.2911 284.086 14.9202C283.711 14.5493 283.422 14.1005 283.239 13.6056L280.932 9.69522L264.984 19.0476L267.273 22.9579C267.566 23.7501 267.571 24.6198 267.288 25.4154C267.005 26.211 266.451 26.8819 265.724 27.311C264.996 27.7401 264.141 27.9001 263.308 27.7632C262.475 27.6263 261.716 27.2012 261.164 26.5619L258.876 22.6516L242.964 31.968C244.135 33.9502 245.072 35.572 245.271 35.8783C245.563 36.6704 245.568 37.5402 245.285 38.3358C245.002 39.1313 244.449 39.8022 243.721 40.2313C242.994 40.6604 242.139 40.8205 241.306 40.6836C240.472 40.5467 239.714 40.1215 239.162 39.4823L236.855 35.572L220.908 44.9424L223.142 48.8347C223.487 49.2341 223.74 49.7044 223.883 50.2122C224.026 50.7201 224.056 51.2533 223.97 51.7739C223.885 52.2946 223.686 52.7902 223.388 53.2256C223.09 53.661 222.7 54.0257 222.245 54.2938C221.791 54.5619 221.283 54.727 220.758 54.7773C220.232 54.8276 219.703 54.762 219.205 54.5851C218.708 54.4081 218.256 54.1242 217.881 53.7533C217.505 53.3824 217.216 52.9336 217.033 52.4387L214.745 48.5103L198.797 57.8807L201.086 61.791C201.378 62.5832 201.383 63.4529 201.1 64.2485C200.817 65.0441 200.263 65.715 199.536 66.1441C198.809 66.5732 197.954 66.7332 197.121 66.5963C196.287 66.4594 195.529 66.0343 194.977 65.3951L192.688 61.4847L182.543 67.4313L243.811 171.947L358.454 104.697L297.186 0.180664L287.041 6.12726L289.348 10.0016Z" fill="white"/>
<path d="M279.539 30.6282L222.793 63.9207L232.723 80.8464L289.469 47.554L279.539 30.6282Z" fill="#1BC89E"/>
<path opacity="0.6" d="M279.539 30.6282L222.793 63.9207L232.723 80.8464L289.469 47.554L279.539 30.6282Z" fill="white"/>
<path d="M227.008 91.4302L211.898 100.391L220.859 115.5L235.969 106.54L227.008 91.4302Z" fill="white"/>
<path d="M248.415 78.7544L233.306 87.7148L242.266 102.825L257.376 93.8642L248.415 78.7544Z" fill="white"/>
<path d="M270.092 67.9198L254.938 76.8105L263.829 91.9645L278.983 83.0737L270.092 67.9198Z" fill="#1BC89E"/>
<path d="M291.586 55.2977L276.432 64.1885L285.322 79.3424L300.476 70.4517L291.586 55.2977Z" fill="#1BC89E"/>
<path d="M312.599 40.7537L297.489 49.7141L306.45 64.8239L321.56 55.8634L312.599 40.7537Z" fill="#1BC89E"/>
<path d="M239.05 111.776L223.94 120.737L232.9 135.847L248.01 126.886L239.05 111.776Z" fill="#1BC89E"/>
<path d="M260.587 100.96L245.433 109.851L254.324 125.005L269.478 116.114L260.587 100.96Z" fill="#1BC89E"/>
<path d="M281.853 86.449L266.744 95.4094L275.704 110.519L290.814 101.559L281.853 86.449Z" fill="#1BC89E"/>
<path d="M303.583 75.7494L288.429 84.6401L297.32 99.7941L312.474 90.9033L303.583 75.7494Z" fill="#1BC89E"/>
<path d="M325.077 63.1271L309.923 72.0178L318.814 87.1717L333.968 78.281L325.077 63.1271Z" fill="#1BC89E"/>
<path d="M251.098 132.111L235.988 141.071L244.949 156.181L260.058 147.221L251.098 132.111Z" fill="#1BC89E"/>
<path d="M272.488 119.453L257.378 128.414L266.338 143.523L281.448 134.563L272.488 119.453Z" fill="#1BC89E"/>
<path d="M293.895 106.777L278.785 115.738L287.746 130.848L302.855 121.887L293.895 106.777Z" fill="#1BC89E"/>
<path opacity="0.2" d="M270.092 67.9198L254.938 76.8105L263.829 91.9645L278.983 83.0737L270.092 67.9198Z" fill="white"/>
<path opacity="0.2" d="M291.586 55.2977L276.432 64.1885L285.322 79.3424L300.476 70.4517L291.586 55.2977Z" fill="white"/>
<path opacity="0.2" d="M312.599 40.7537L297.489 49.7141L306.45 64.8239L321.56 55.8634L312.599 40.7537Z" fill="white"/>
<path opacity="0.2" d="M260.587 100.96L245.433 109.851L254.324 125.005L269.478 116.114L260.587 100.96Z" fill="white"/>
<path opacity="0.2" d="M281.853 86.449L266.744 95.4094L275.704 110.519L290.814 101.559L281.853 86.449Z" fill="white"/>
<path opacity="0.2" d="M303.583 75.7494L288.429 84.6401L297.32 99.7941L312.474 90.9033L303.583 75.7494Z" fill="white"/>
<path opacity="0.2" d="M325.077 63.1271L309.923 72.0178L318.814 87.1717L333.968 78.281L325.077 63.1271Z" fill="white"/>
<path opacity="0.2" d="M272.488 119.453L257.378 128.414L266.338 143.523L281.448 134.563L272.488 119.453Z" fill="white"/>
<path opacity="0.2" d="M293.895 106.777L278.785 115.738L287.746 130.848L302.855 121.887L293.895 106.777Z" fill="white"/>
<path d="M315.285 94.1194L300.175 103.08L309.135 118.19L324.245 109.229L315.285 94.1194Z" fill="white"/>
<path d="M337.083 83.5629L321.929 92.4536L330.819 107.608L345.973 98.7168L337.083 83.5629Z" fill="white"/>
<path d="M182.417 67.4673L241.882 177.245L358.31 104.661L243.684 171.911L182.417 67.4673Z" fill="#1BC89E"/>
<path opacity="0.5" d="M182.417 67.4673L241.882 177.245L358.31 104.661L243.684 171.911L182.417 67.4673Z" fill="white"/>
<path d="M451.383 620.321L453.221 633.944L440.301 637.278L437.184 622.555L451.383 620.321Z" fill="#985952"/>
<path d="M433.057 639.999C431.521 640.488 429.859 640.392 428.39 639.728C428.188 639.531 428.052 639.276 428 638.999C427.949 638.722 427.984 638.435 428.101 638.179C428.278 637.713 428.626 637.332 429.074 637.115C431.453 635.908 437.328 637.89 437.58 637.98C437.651 638 437.715 638.042 437.76 638.1C437.806 638.159 437.831 638.231 437.832 638.305C437.834 638.381 437.813 638.457 437.771 638.521C437.729 638.586 437.669 638.636 437.598 638.665C436.127 639.243 434.607 639.689 433.057 639.999ZM430.065 637.602C429.834 637.641 429.609 637.714 429.399 637.818C429.258 637.871 429.132 637.956 429.029 638.065C428.926 638.174 428.849 638.305 428.804 638.449C428.624 638.953 428.804 639.152 428.894 639.26C429.777 640.107 433.597 639.368 436.354 638.467C434.331 637.785 432.198 637.491 430.065 637.602Z" fill="#1BC89E"/>
<path d="M437.58 638.665C437.558 638.678 437.533 638.685 437.508 638.685C437.483 638.685 437.458 638.678 437.436 638.665C435.454 638.215 431.183 635.656 431.165 633.89C431.165 633.475 431.327 632.917 432.3 632.629C432.648 632.52 433.014 632.483 433.377 632.52C433.739 632.557 434.09 632.668 434.409 632.845C436.643 634.052 437.869 638.053 437.923 638.251C437.942 638.315 437.942 638.383 437.922 638.447C437.903 638.511 437.866 638.568 437.814 638.611C437.746 638.659 437.662 638.678 437.58 638.665ZM432.679 633.259H432.462C431.832 633.439 431.832 633.71 431.832 633.818C431.94 634.845 434.823 636.953 436.931 637.692C436.412 636.007 435.386 634.522 433.994 633.439C433.592 633.222 433.127 633.152 432.679 633.241V633.259Z" fill="#1BC89E"/>
<path d="M438.733 636.232L455.222 632.971C455.526 632.915 455.841 632.963 456.115 633.107C456.389 633.25 456.608 633.482 456.735 633.764L462.376 646.594C462.502 646.902 462.56 647.234 462.547 647.567C462.534 647.9 462.449 648.226 462.299 648.524C462.148 648.821 461.936 649.083 461.675 649.291C461.415 649.499 461.113 649.648 460.79 649.729C454.807 650.793 449.455 651.531 442.049 652.991C433.309 654.793 435.742 655.334 425.489 657.496C419.308 658.812 416.785 652 419.344 651.135C431.057 647.243 431.597 643.368 435.382 638.143C436.236 637.127 437.424 636.449 438.733 636.232Z" fill="#263238"/>
<path opacity="0.2" d="M438.86 630.502L452.465 628.303L451.528 621.366L437.652 624.735L438.86 630.502Z" fill="black"/>
<path d="M307.35 619.528L303.385 632.683L290.249 630.358L293.51 615.672L307.35 619.528Z" fill="#985952"/>
<path d="M282.608 629.835C280.806 629.385 278.896 628.592 278.463 627.655C278.367 627.386 278.353 627.095 278.423 626.819C278.494 626.543 278.646 626.294 278.86 626.105C279.211 625.757 279.681 625.557 280.175 625.546C282.842 625.456 287.383 629.673 287.563 629.871C287.619 629.919 287.657 629.983 287.674 630.055C287.69 630.126 287.683 630.201 287.654 630.268C287.622 630.337 287.572 630.396 287.508 630.438C287.444 630.479 287.369 630.502 287.293 630.502C285.715 630.414 284.148 630.191 282.608 629.835ZM280.914 626.357C280.682 626.311 280.443 626.311 280.211 626.357C280.06 626.346 279.909 626.369 279.768 626.425C279.628 626.482 279.502 626.569 279.4 626.682C279.04 627.06 279.076 627.294 279.148 627.438C279.617 628.592 283.383 629.511 286.266 629.817C284.689 628.319 282.834 627.143 280.806 626.357H280.914Z" fill="#1BC89E"/>
<path d="M287.149 630.484C287.103 630.502 287.051 630.502 287.005 630.484C285.401 629.258 282.572 625.078 283.293 623.546C283.419 623.15 283.851 622.735 284.842 622.861C285.2 622.911 285.544 623.033 285.853 623.218C286.163 623.404 286.432 623.651 286.644 623.943C288.176 625.961 287.617 630.105 287.599 630.286C287.595 630.352 287.57 630.415 287.528 630.467C287.486 630.518 287.429 630.556 287.365 630.574C287.286 630.566 287.21 630.535 287.149 630.484ZM284.932 623.546H284.734C284.067 623.438 283.977 623.69 283.923 623.78C283.599 624.772 285.347 627.871 286.951 629.421C287.171 627.675 286.857 625.903 286.05 624.339C285.783 623.965 285.383 623.707 284.932 623.618V623.546Z" fill="#1BC89E"/>
<path d="M289.239 628.754L305.601 632.646C305.902 632.716 306.169 632.886 306.359 633.129C306.549 633.371 306.651 633.671 306.647 633.98L306.448 647.999C306.439 648.584 306.203 649.143 305.789 649.556C305.375 649.97 304.817 650.206 304.232 650.216C304.076 650.234 303.919 650.234 303.763 650.216C297.889 648.72 292.717 647.152 285.365 645.422C276.697 643.368 278.644 644.918 268.426 642.647C262.263 641.278 262.786 634.016 265.471 634.304C277.743 635.619 279.887 632.322 285.455 629.15C286.627 628.564 287.972 628.423 289.239 628.754Z" fill="#263238"/>
<path opacity="0.2" d="M305.511 625.619L307.259 619.871L295.888 616.321L293.51 615.672L292.194 621.564L305.511 625.619Z" fill="black"/>
<path d="M422.84 342.2L359.103 327.532L348.183 369.122L313.296 467.998L289.636 616.518L313.296 622.663L347.354 476.99L388.493 382.925L422.84 386.313V342.2Z" fill="#263238"/>
<path opacity="0.3" d="M383.214 394.981L379.916 374.33L376.745 409.775L383.214 394.981Z" fill="black"/>
<path d="M289.636 612.536L314.774 618.987L313.602 624.177L288.519 616.987L289.636 612.536Z" fill="#1BC89E"/>
<path d="M431.219 472.052L421.254 367.248L415.325 350.219L399.81 350.832L377.717 360.526L396.422 477.494L429.507 625.583L455.51 619.78L431.219 472.052Z" fill="#263238"/>
<path d="M428.354 624.844L456.122 618.753L456.825 622.663L429.056 628.808L428.354 624.844Z" fill="#1BC89E"/>
<path d="M422.894 315.044C424.48 297.114 429.723 245.36 429.723 245.36C424.953 242.834 419.911 240.857 414.695 239.468C408.478 242.495 394.602 248.983 389.971 248.82C385.845 248.694 383.25 240.495 382.043 235.359C375.468 235.479 368.913 236.111 362.437 237.251L356.742 255.578C356.742 255.578 345.318 301.817 351.03 350.183C351.03 350.183 367.248 361.896 399.828 361.896C408.016 361.802 416.152 360.589 424.011 358.292C424.011 358.292 421.921 326.288 422.894 315.044Z" fill="#1BC89E"/>
<path d="M409.469 238.135C405.072 233.017 409.289 213.087 409.289 213.087L393.719 218.799C393.719 218.799 392.098 232.602 388.187 235.413C386.655 236.513 384.349 235.413 382.367 235.413L386.475 248.55L396.747 249.559L415.542 239.774C413.685 239.18 410.928 239.846 409.469 238.135Z" fill="#985952"/>
<path opacity="0.1" d="M391.809 228.332C395.579 228.035 399.186 226.666 402.203 224.386C405.22 222.106 407.523 219.011 408.838 215.465C409.108 214.006 409.288 213.087 409.288 213.087L393.719 218.799C393.304 222.017 392.666 225.202 391.809 228.332Z" fill="black"/>
<path d="M384.241 234.404L390.926 249.163L379.538 255.794L379.231 234.512L384.241 234.404Z" fill="#1BC89E"/>
<path opacity="0.5" d="M384.241 234.404L390.926 249.163L379.538 255.794L379.231 234.512L384.241 234.404Z" fill="white"/>
<path d="M413.992 237.954L388.998 248.532L397.576 259.813L418.461 239.973L413.992 237.954Z" fill="#1BC89E"/>
<path opacity="0.5" d="M413.992 237.954L388.998 248.532L397.576 259.813L418.461 239.973L413.992 237.954Z" fill="white"/>
<path d="M338.722 251.974L308.989 267.291C300.414 257.377 292.788 246.681 286.212 235.341C286.212 235.341 288.014 224.656 284.716 221.646C281.419 218.637 276.301 209.032 276.301 209.032L268.787 211.357L264.228 217.736L269.634 227.647L277.743 237.936C277.743 237.936 289.167 285.005 306.286 285.005C323.405 285.005 349.282 267.597 349.282 267.597L338.722 251.974Z" fill="#985952"/>
<path d="M368.996 236.297C368.996 236.297 359.445 234.26 332.704 251.091L345.029 273.904L361.536 265.795L374.15 245.973L368.996 236.297Z" fill="#1BC89E"/>
<path d="M327.604 251.992L332.704 249.505L346.525 273.904L342.02 276.643L327.604 251.992Z" fill="#1BC89E"/>
<path opacity="0.5" d="M327.604 251.992L332.704 249.505L346.525 273.904L342.02 276.643L327.604 251.992Z" fill="white"/>
<path opacity="0.2" d="M356.742 255.578L357.013 254.677C352.886 259.11 350.147 268.895 349.426 271.724L353.967 269.507C355.463 260.804 356.742 255.578 356.742 255.578Z" fill="black"/>
<path d="M446.482 262.516L460.646 275.616C460.646 275.616 473.872 257.74 483.783 246.009C483.783 246.009 481.675 237.864 486.18 233.071L488.577 225.629L495.496 223.827L504.506 236.296L492.487 251.163C492.487 251.163 470.863 294.411 463.655 295.312C456.447 296.213 436.463 276.715 436.463 276.715L446.482 262.516Z" fill="#985952"/>
<path d="M419.722 241.883C419.722 241.883 429.489 241.576 452.843 262.822L436.625 283.13L421.795 272.318L412.785 250.604L419.722 241.883Z" fill="#1BC89E"/>
<path d="M457.726 264.606L453.131 261.272L435.237 282.86L439.184 286.356L457.726 264.606Z" fill="#1BC89E"/>
<path opacity="0.5" d="M457.726 264.606L453.131 261.272L435.237 282.86L439.184 286.356L457.726 264.606Z" fill="white"/>
<path opacity="0.2" d="M427.976 262.678C427.579 266.696 427.129 271.147 426.678 275.76L431.958 279.635C431.466 273.818 430.124 268.105 427.976 262.678Z" fill="black"/>
<path d="M392.026 169.316C392.026 169.316 376.096 169.1 386.62 184.633L398.819 171.677L392.026 169.316Z" fill="#263238"/>
<path d="M436.282 180.056C436.606 180.875 436.753 181.753 436.715 182.633C436.599 183.727 436.118 184.75 435.35 185.538C434.582 186.326 433.571 186.832 432.48 186.975C432.388 187.014 432.312 187.086 432.268 187.176C432.224 187.266 432.214 187.37 432.241 187.467C432.267 187.564 432.328 187.648 432.412 187.703C432.496 187.759 432.597 187.782 432.697 187.768C433.83 187.593 434.885 187.085 435.729 186.309C436.573 185.532 437.167 184.522 437.436 183.408C437.643 182.194 437.512 180.947 437.057 179.804C436.877 179.317 436.084 179.533 436.282 180.02V180.056Z" fill="#263238"/>
<path d="M421.452 195.319C415.956 208.636 413.92 214.384 404.657 218.997C390.71 225.971 375.555 216.294 376.943 201.608C378.222 188.381 387.016 168.739 402.171 167.983C407.372 167.667 412.486 169.43 416.389 172.883C420.292 176.336 422.664 181.198 422.984 186.399C423.168 189.451 422.644 192.504 421.452 195.319Z" fill="#985952"/>
<path d="M398.531 191.445C398.152 192.544 397.251 193.247 396.53 193.012C395.81 192.778 395.521 191.661 395.9 190.544C396.278 189.426 397.179 188.742 397.9 188.976C398.621 189.21 398.837 190.381 398.531 191.445Z" fill="#263238"/>
<path d="M386.007 187.192C385.61 188.309 384.727 188.994 384.007 188.76C383.286 188.525 382.997 187.39 383.376 186.291C383.754 185.192 384.655 184.489 385.376 184.741C386.097 184.994 386.385 186.075 386.007 187.192Z" fill="#263238"/>
<path d="M389.178 190.508C387.327 192.703 385.18 194.631 382.799 196.238C383.229 196.835 383.784 197.331 384.425 197.692C385.066 198.053 385.778 198.27 386.511 198.328L389.178 190.508Z" fill="#833A38"/>
<path d="M404.423 190.706C404.28 190.683 404.148 190.615 404.047 190.511C403.946 190.407 403.882 190.273 403.864 190.129C403.566 189.05 403.049 188.043 402.346 187.172C401.642 186.301 400.766 185.584 399.774 185.066C399.61 184.981 399.485 184.836 399.425 184.662C399.365 184.487 399.373 184.297 399.449 184.129C399.534 183.969 399.677 183.849 399.848 183.792C400.019 183.735 400.205 183.746 400.368 183.822C401.568 184.43 402.621 185.291 403.455 186.346C404.289 187.4 404.883 188.624 405.198 189.931C405.213 190.019 405.21 190.109 405.189 190.196C405.168 190.283 405.129 190.364 405.075 190.435C405.021 190.506 404.952 190.565 404.874 190.609C404.796 190.652 404.71 190.679 404.621 190.688H404.405L404.423 190.706Z" fill="#263238"/>
<path d="M384.241 180.128C384.118 180.105 384.002 180.052 383.905 179.973C383.807 179.895 383.731 179.793 383.682 179.678C383.651 179.592 383.636 179.502 383.64 179.411C383.644 179.32 383.666 179.231 383.705 179.149C383.743 179.067 383.798 178.993 383.865 178.933C383.932 178.872 384.011 178.825 384.097 178.795C385.12 178.37 386.233 178.204 387.336 178.311C388.439 178.418 389.498 178.794 390.422 179.407C390.56 179.512 390.653 179.664 390.683 179.835C390.714 180.005 390.678 180.181 390.584 180.326C390.534 180.4 390.469 180.462 390.394 180.509C390.319 180.557 390.234 180.588 390.147 180.602C390.059 180.615 389.969 180.611 389.883 180.588C389.797 180.565 389.717 180.525 389.647 180.47C388.914 180.01 388.082 179.732 387.219 179.66C386.357 179.587 385.49 179.723 384.691 180.056C384.556 180.137 384.395 180.163 384.241 180.128Z" fill="#263238"/>
<path d="M387.124 204.275C390.16 205.026 393.333 205.026 396.368 204.275C396.368 204.275 396.08 210.294 388.53 209.068L387.124 208.726C387.505 207.267 387.505 205.734 387.124 204.275Z" fill="#263238"/>
<path d="M388.421 204.527V205.915C390.867 206.715 393.497 206.765 395.972 206.059C396.231 205.49 396.389 204.88 396.44 204.257C393.824 204.966 391.079 205.059 388.421 204.527Z" fill="white"/>
<path d="M395.107 207.41C394.463 207.313 393.812 207.265 393.161 207.266C390.602 207.266 388.511 208.005 388.187 208.978L388.601 209.068C392.115 209.645 394.044 208.726 395.107 207.41Z" fill="#833A38"/>
<path d="M415.56 185.913C415.56 185.913 413.758 187.913 416.587 190.039C416.587 190.039 408.55 197.553 411.667 205.699C414.785 213.844 422.479 205.879 424.732 203.446C426.984 201.013 438.211 186.958 429.111 178.218C420.01 169.478 398.242 163.442 397.377 152.702C397.377 152.702 393.773 159.91 397.864 162.216C397.864 162.216 388.277 166.595 386.89 159.603C386.89 159.603 381.934 167.118 388.692 167.82C388.692 167.82 384.871 173.226 391.737 173.226C398.603 173.226 410.892 177.515 415.56 185.913Z" fill="#263238"/>
<path d="M421.56 207.05C419.87 209.194 417.404 210.586 414.695 210.924C411.091 211.303 409.865 207.933 411.343 204.816C412.713 202.023 416.227 198.455 419.614 199.41C420.195 199.598 420.734 199.898 421.198 200.294C421.663 200.691 422.045 201.174 422.323 201.718C422.601 202.262 422.769 202.855 422.817 203.464C422.866 204.073 422.794 204.685 422.606 205.266C422.391 205.93 422.034 206.538 421.56 207.05Z" fill="#985952"/>
</svg>
