<svg width="571" height="571" viewBox="0 0 571 571" fill="none" xmlns="http://www.w3.org/2000/svg">
<path d="M216.696 29.2976L216.061 27.979C210.737 16.8739 199.897 9.44896 187.749 9.01803C186.186 8.96489 184.621 9.02827 183.068 9.20764C171.885 10.5177 161.511 17.9555 156.526 28.2375C153.594 34.2964 152.24 41.4714 147.349 46.0306C140.975 51.9645 131.193 51.2018 122.637 50.1159C114.081 49.0299 104.287 48.2973 97.9383 54.2571C93.9647 57.9933 92.2672 63.6902 92.0315 69.1845C91.4057 83.7327 100.176 97.6475 112.337 105.322C124.497 112.997 139.444 115.027 153.68 113.553C173.621 111.489 193.27 102.409 206.069 86.6803C218.869 70.9513 223.897 48.3146 216.696 29.2976Z" fill="white"/>
<path d="M357.972 278.831C357.561 278.9 357.144 278.93 356.727 278.922L353.187 278.991L340.134 279.128L297.08 279.242H293.654V278.831C293.654 262.751 293.746 248.339 293.78 237.833C293.837 232.682 293.871 228.503 293.906 225.511C293.906 224.129 293.963 223.01 293.985 222.176C293.972 221.794 293.999 221.411 294.065 221.034C294.117 221.413 294.139 221.794 294.134 222.176C294.134 223.01 294.134 224.129 294.214 225.511C294.214 228.503 294.282 232.682 294.339 237.833C294.339 248.339 294.419 262.751 294.465 278.831L294.065 278.431H297.126L340.179 278.545L353.232 278.682L356.773 278.751C357.174 278.753 357.574 278.779 357.972 278.831Z" fill="white"/>
<path d="M350.857 235.046C350.272 235.704 349.634 236.311 348.949 236.862L343.559 241.601C338.991 245.576 332.607 251.034 325.538 257.007L324.476 257.921L324.202 258.149L323.94 257.898L315.946 250.463H316.448L304.686 260.159L301.26 262.888C300.865 263.235 300.437 263.542 299.98 263.802C300.322 263.384 300.704 263.001 301.122 262.66L304.4 259.759L315.968 249.835L316.22 249.618L316.471 249.847L324.522 257.247H323.985L325.047 256.345C332.116 250.361 338.546 244.982 343.217 241.122L348.778 236.554C349.43 235.997 350.125 235.493 350.857 235.046Z" fill="white"/>
<path d="M350.857 248.442C350.637 247.126 350.545 245.791 350.583 244.457C350.515 241.978 350.458 238.552 350.458 234.727L350.857 235.138H350.172C346.198 235.138 342.589 235.138 339.985 235.012C338.575 235.057 337.163 234.962 335.771 234.727C337.163 234.492 338.575 234.396 339.985 234.441C342.589 234.373 346.198 234.327 350.172 234.327H351.314V234.727C351.314 238.552 351.314 241.978 351.188 244.457C351.219 245.793 351.108 247.129 350.857 248.442V248.442Z" fill="white"/>
<path d="M270.049 522.659L272.824 545.682C272.824 545.682 250.898 554.683 251 559L295.287 556.771L292.432 520.752L270.049 522.659Z" fill="#19B690"/>
<path d="M286.232 542.678C286.676 542.777 287.069 543.034 287.336 543.402C287.603 543.771 287.726 544.224 287.682 544.677C287.606 545.127 287.359 545.53 286.994 545.802C286.628 546.074 286.171 546.195 285.718 546.139C285.245 546.037 284.827 545.763 284.544 545.371C284.261 544.979 284.134 544.495 284.188 544.014C284.319 543.555 284.623 543.164 285.036 542.923C285.449 542.683 285.939 542.611 286.403 542.724" fill="#E0E0E0"/>
<path d="M295.5 558.5L295.059 553.893L251.5 557C251.125 557.279 251.234 558.096 251 558.5C250.766 558.905 250.054 558.53 250 558.994L295.5 558.5Z" fill="#263238"/>
<path d="M272.424 545.876C272.424 546.093 273.566 546.104 274.708 546.721C275.85 547.338 276.513 548.217 276.707 548.114C276.901 548.012 276.467 546.767 275.062 546.036C273.658 545.305 272.356 545.67 272.424 545.876Z" fill="#263238"/>
<path d="M267.857 548.229C267.857 548.446 268.805 548.731 269.639 549.61C270.473 550.49 270.781 551.449 270.987 551.415C271.192 551.38 271.238 550.124 270.187 549.062C269.137 548 267.846 548.012 267.857 548.229Z" fill="#263238"/>
<path d="M265.642 554.121C265.847 554.121 266.064 552.979 265.39 551.837C264.717 550.695 263.655 550.284 263.575 550.478C263.495 550.672 264.191 551.266 264.717 552.225C265.242 553.185 265.425 554.121 265.642 554.121Z" fill="#263238"/>
<path d="M272.378 540.509C272.481 540.703 273.52 540.314 274.719 540.292C275.918 540.269 277.003 540.589 277.083 540.383C277.163 540.177 276.181 539.481 274.708 539.526C273.234 539.572 272.252 540.349 272.378 540.509Z" fill="#263238"/>
<path d="M271.156 535.598C271.921 535.746 272.711 535.678 273.44 535.404C274.236 535.184 275.003 534.87 275.724 534.467C276.159 534.234 276.575 533.966 276.969 533.668C277.213 533.51 277.429 533.313 277.609 533.086C277.729 532.92 277.794 532.72 277.794 532.515C277.794 532.309 277.729 532.109 277.609 531.944C277.483 531.803 277.328 531.692 277.154 531.619C276.98 531.546 276.792 531.512 276.604 531.521C276.315 531.548 276.03 531.613 275.758 531.715C275.288 531.869 274.832 532.068 274.4 532.309C273.663 532.719 272.996 533.244 272.424 533.862C271.465 534.913 271.168 535.769 271.282 535.804C271.396 535.838 271.841 535.141 272.846 534.25C273.427 533.732 274.072 533.291 274.765 532.937C275.172 532.734 275.596 532.565 276.033 532.435C276.501 532.263 276.9 532.229 277.049 532.435C277.197 532.64 277.106 532.537 277.049 532.686C276.915 532.853 276.757 532.999 276.581 533.12C276.214 533.402 275.832 533.665 275.439 533.908C274.767 534.31 274.06 534.65 273.326 534.924C272.587 535.094 271.862 535.32 271.156 535.598V535.598Z" fill="#263238"/>
<g opacity="0.3">
<path opacity="0.3" d="M293.586 534.559L293.94 539.686L272.299 541.354L271.945 536.694L293.586 534.559Z" fill="black"/>
</g>
<path d="M333.819 520.021L335.749 556.257L316.221 557.684L314.223 521.392L333.819 520.021Z" fill="#19B690"/>
<path d="M326.03 555.594C325.87 555.594 325.413 547.669 325.013 537.882C324.614 528.095 324.431 520.147 324.591 520.147C324.751 520.147 325.208 528.072 325.607 537.859C326.007 547.646 326.19 555.583 326.03 555.594Z" fill="#263238"/>
<path d="M336.001 556L316.084 555.126L316.221 558.5H336.001V556Z" fill="#263238"/>
<path d="M315.58 546.082C315.58 546.082 315.706 545.762 316.048 545.271C316.532 544.568 317.082 543.914 317.693 543.318C318.601 542.417 319.632 541.649 320.753 541.034C322.134 540.265 323.674 539.827 325.253 539.755C326.683 539.682 328.113 539.905 329.453 540.41C330.793 540.915 332.015 541.691 333.041 542.69C333.657 543.294 334.183 543.982 334.606 544.734C334.784 544.999 334.905 545.299 334.96 545.613C334.318 544.674 333.591 543.795 332.79 542.987C330.743 541.153 328.055 540.201 325.31 540.337C322.575 540.559 320 541.712 318.013 543.603C316.414 545.042 315.671 546.15 315.58 546.082Z" fill="#263238"/>
<g opacity="0.3">
<path opacity="0.3" d="M334.754 534.65L334.789 539.641L315.238 539.755L314.986 535.233L334.754 534.65Z" fill="black"/>
</g>
<path d="M286.642 113.629L287.259 113.481C288.235 111.814 289.613 110.419 291.266 109.421C292.92 108.424 294.797 107.856 296.726 107.771C300.599 107.694 304.351 109.118 307.198 111.745C309.197 113.503 310.773 115.707 312.783 117.455C314.792 119.202 317.453 120.527 320.057 119.978C320.377 120.949 318.561 121.532 318.675 122.548C318.728 122.787 318.857 123.003 319.042 123.163C319.227 123.323 319.459 123.42 319.703 123.439C320.417 123.501 321.136 123.501 321.85 123.439C322.208 123.415 322.564 123.504 322.869 123.692C323.174 123.881 323.412 124.159 323.552 124.489C323.612 124.834 323.581 125.189 323.46 125.517C322.785 128.597 321.33 131.452 319.235 133.808C318.177 134.973 316.852 135.863 315.374 136.402C313.896 136.942 312.309 137.113 310.75 136.903C308.283 136.435 306.182 134.824 304.263 133.26L293.117 124.33C291.342 123.024 289.748 121.488 288.378 119.762C287.02 118.023 286.397 115.821 286.642 113.629V113.629Z" fill="#263238"/>
<path d="M288.927 114.2C287.431 112.941 285.651 112.063 283.742 111.642C282.788 111.432 281.801 111.418 280.841 111.601C279.881 111.783 278.968 112.159 278.157 112.704C276.786 113.901 275.627 115.322 274.731 116.906C274.281 117.694 273.677 118.383 272.955 118.932C272.233 119.481 271.408 119.88 270.529 120.104C270.21 120.106 269.899 120.206 269.638 120.39C269.227 120.778 269.524 121.532 270.038 121.76C270.575 121.943 271.157 121.943 271.694 121.76C270.795 122.805 269.558 123.5 268.199 123.724C268.277 124.057 268.42 124.372 268.621 124.648C268.822 124.925 269.076 125.159 269.369 125.336C269.662 125.512 269.987 125.628 270.326 125.677C270.664 125.726 271.009 125.707 271.34 125.62C270.732 127.705 270.387 129.857 270.312 132.027C270.238 134.214 270.978 136.35 272.39 138.022C274.023 139.781 276.661 140.751 277.369 143.035" fill="#263238"/>
<path d="M304.538 190.714L275.543 190.349L278.786 165.59C278.786 165.59 276.799 165.167 276.674 154.421C276.548 143.675 276.045 125.426 276.045 125.426C282.156 122.807 288.855 121.868 295.45 122.705C302.046 123.543 308.297 126.126 313.56 130.188L315.148 131.421L304.538 190.714Z" fill="#8F6752"/>
<path d="M311.767 144.611C311.949 144.531 319.155 142.43 318.916 149.773C318.676 157.116 311.355 155.369 311.355 155.163C311.355 154.958 311.767 144.611 311.767 144.611Z" fill="#8F6752"/>
<path d="M277.289 143.081C277.106 143.001 270.563 141.243 270.791 148.586C271.019 155.929 278.351 154.17 278.362 153.964C278.374 153.759 277.289 143.081 277.289 143.081Z" fill="#8F6752"/>
<path d="M314.166 143.801C313.024 149.945 313.286 153.188 312.27 157.288C310.66 163.797 307.428 168.788 301.569 172.031C295.711 175.274 287.785 175.217 282.749 170.798C279.255 167.737 276.788 164.265 276.263 159.64C275.737 155.015 274.39 146.347 274.355 141.699C274.298 133.317 274.572 125.791 274.572 125.791L298.554 121.463L312.178 129.56L314.166 143.801Z" fill="#263238"/>
<path d="M289.451 175.742C290.791 176.253 292.246 176.379 293.654 176.108C295.08 176.057 296.466 175.618 297.662 174.84C297.594 174.657 295.823 175.206 293.574 175.445C291.324 175.685 289.474 175.548 289.451 175.742Z" fill="#263238"/>
<path d="M312.999 154.261C313.707 147.946 314.141 140.74 315.146 134.094C315.511 131.593 316.402 127.995 316.185 125.483C315.968 122.97 315.272 123.736 314.164 121.463C312.771 118.608 307.449 116.701 304.331 116.073C301.214 115.445 300.825 112.761 298.439 114.851C297.561 113.538 296.305 112.524 294.837 111.942C293.369 111.361 291.759 111.24 290.221 111.596C288.682 111.951 287.289 112.767 286.225 113.934C285.162 115.101 284.478 116.564 284.266 118.128C283.407 117.307 282.301 116.792 281.12 116.664C279.938 116.535 278.748 116.799 277.732 117.416C276.716 118.032 275.931 118.967 275.5 120.074C275.069 121.182 275.015 122.4 275.347 123.542C274.483 123.686 273.668 124.043 272.976 124.581C272.284 125.119 271.737 125.821 271.385 126.624C271.032 127.426 270.885 128.304 270.957 129.177C271.029 130.051 271.317 130.893 271.796 131.627C272.938 133.328 274.902 134.276 276.124 135.898C276.818 136.851 277.223 137.984 277.287 139.161C277.352 140.339 277.075 141.51 276.489 142.533" fill="#263238"/>
<path d="M282.144 152.948C281.91 155.137 282.196 157.35 282.977 159.407C283.759 161.465 285.015 163.309 286.643 164.791C286.803 164.654 284.85 162.507 283.617 159.16C282.383 155.814 282.349 152.937 282.144 152.948Z" fill="#455A64"/>
<path d="M278.923 147.592C278.25 149.463 278.081 151.478 278.434 153.435C278.786 155.391 279.648 157.22 280.933 158.738C280.163 156.996 279.551 155.188 279.106 153.336C278.535 150.184 279.129 147.626 278.923 147.592Z" fill="#455A64"/>
<path d="M309.094 122.194C307.358 119.239 304.743 116.899 301.614 115.502C300.048 114.832 298.332 114.591 296.642 114.803C294.952 115.016 293.349 115.675 291.998 116.712" fill="#263238"/>
<path d="M308.488 138.456C308.435 137.725 308.512 136.99 308.717 136.286C309.059 134.613 309.247 132.912 309.276 131.204C309.261 129.514 308.871 127.849 308.134 126.328C307.552 125.186 306.992 124.581 307.072 124.478C307.152 124.375 307.894 124.855 308.659 126.031C309.601 127.587 310.092 129.374 310.076 131.193C310.067 132.967 309.794 134.73 309.265 136.423C309.139 137.144 308.875 137.834 308.488 138.456V138.456Z" fill="#455A64"/>
<path d="M303.532 140.888C303.315 140.763 303.909 139.313 304.491 137.462C305.074 135.612 305.428 134.116 305.633 134.139C305.839 134.162 305.873 135.818 305.268 137.725C304.663 139.632 303.772 141.003 303.532 140.888Z" fill="#455A64"/>
<path d="M280.532 138.993C279.76 138.282 279.189 137.38 278.877 136.378C277.92 134.014 277.674 131.422 278.169 128.92C278.668 126.422 279.891 124.127 281.686 122.32C282.366 121.517 283.238 120.9 284.221 120.527C284.301 120.641 283.342 121.315 282.131 122.719C280.551 124.534 279.473 126.73 279.002 129.089C278.532 131.449 278.685 133.89 279.448 136.172C280.019 137.931 280.647 138.924 280.532 138.993Z" fill="#455A64"/>
<path d="M306.707 111.676C305.887 111.436 305.098 111.102 304.354 110.683C302.553 109.798 300.582 109.314 298.576 109.267C297.596 109.247 296.624 109.434 295.721 109.813C294.819 110.193 294.005 110.757 293.334 111.471C292.833 112.13 292.386 112.829 291.998 113.56C291.906 113.56 291.872 112.418 292.866 111.094C293.457 110.309 294.218 109.668 295.093 109.221C296.16 108.699 297.33 108.422 298.519 108.41C300.653 108.449 302.74 109.047 304.571 110.146C306.056 110.945 306.764 111.585 306.707 111.676Z" fill="#455A64"/>
<path d="M273.954 118.482C273.863 118.482 274.034 117.626 274.81 116.541C275.843 115.117 277.321 114.076 279.01 113.584C280.699 113.092 282.504 113.176 284.141 113.823C285.385 114.337 285.968 114.965 285.911 114.965C285.854 114.965 285.146 114.68 283.958 114.348C282.421 113.901 280.788 113.901 279.251 114.348C277.714 114.795 276.336 115.671 275.279 116.872C274.445 117.832 274.08 118.54 273.954 118.482Z" fill="#455A64"/>
<path d="M281.857 145.479C281.857 145.377 282.999 145.057 284.975 144.189C287.596 143.008 289.995 141.385 292.067 139.393L293.449 138.045L292.695 139.826C292.216 140.948 291.868 142.12 291.656 143.321C291.542 143.915 291.439 144.68 291.656 144.783C291.873 144.886 292.478 144.646 293.026 144.257C294.878 143.06 296.537 141.589 297.948 139.895L299.227 138.376L298.645 140.272L297.023 145.525L296.475 145.194C298.266 143.412 299.841 141.427 301.169 139.278C301.007 139.96 300.729 140.61 300.346 141.197C299.416 142.84 298.263 144.346 296.92 145.673L296.018 146.564L296.361 145.331L297.857 140.043L298.553 140.409C297.104 142.188 295.386 143.729 293.46 144.977C293.157 145.181 292.84 145.364 292.512 145.525C292.298 145.639 292.056 145.694 291.814 145.684C291.571 145.674 291.335 145.599 291.13 145.468C290.954 145.311 290.818 145.114 290.735 144.893C290.651 144.672 290.622 144.435 290.651 144.2C290.651 143.812 290.742 143.504 290.799 143.173C291.03 141.912 291.413 140.685 291.941 139.518L292.569 139.952C290.416 141.981 287.887 143.567 285.124 144.623C284.088 145.083 282.985 145.372 281.857 145.479V145.479Z" fill="#455A64"/>
<path d="M295.87 117.158C295.628 116.722 295.301 116.34 294.909 116.032C294.516 115.724 294.067 115.497 293.586 115.365C292.61 115.119 291.592 115.096 290.606 115.296C288.17 115.743 285.963 117.018 284.359 118.905C284.005 119.339 283.685 120.047 284.062 120.412C284.294 120.601 284.585 120.702 284.884 120.698C288.496 120.997 292.13 120.867 295.71 120.31" fill="#263238"/>
<path d="M311.972 187.596C311.456 187.615 310.939 187.576 310.43 187.482L306.262 186.991C302.745 186.58 297.868 186.066 292.478 185.666C287.088 185.267 282.2 185.072 278.649 184.97L274.446 184.844C273.93 184.859 273.413 184.821 272.904 184.73C273.414 184.644 273.93 184.606 274.446 184.616C275.44 184.616 276.878 184.547 278.66 184.547C282.212 184.547 287.111 184.673 292.524 185.072C297.937 185.472 302.802 186.055 306.319 186.58C308.078 186.831 309.494 187.071 310.465 187.254C310.977 187.319 311.482 187.434 311.972 187.596Z" fill="#455A64"/>
<path d="M324.98 329.41L337.382 534.559L307.69 535.769C307.69 535.769 300.198 455.932 293.986 421.352C287.774 386.773 286.209 372.555 286.209 372.555L291.691 332.916L324.98 329.41Z" fill="#263238"/>
<path d="M249.105 336.376C247.319 355.081 247.319 373.914 249.105 392.62C252.04 424.31 266.086 539.469 266.086 539.469L297.16 537.025C297.16 537.025 288.024 400.545 292.889 378.607L314.222 358.2L317.271 325.927L249.105 336.376Z" fill="#263238"/>
<path d="M315.729 353.529C315.605 353.685 315.467 353.83 315.318 353.963L314.062 355.105L309.311 359.444L293.049 374.051L293.152 373.845C293.095 376.38 293.026 379.007 292.958 381.702C292.661 392.3 292.387 401.881 292.181 408.905C292.056 412.331 291.953 415.128 291.884 417.138C291.827 418.063 291.793 418.806 291.77 419.422C291.769 419.683 291.743 419.943 291.69 420.199C291.663 419.937 291.663 419.673 291.69 419.411V417.127C291.69 415.106 291.759 412.308 291.804 408.882C291.964 401.858 292.17 392.266 292.41 381.679C292.478 378.984 292.547 376.358 292.615 373.822V373.697L292.718 373.605L309.106 359.148L313.97 354.934L315.284 353.792C315.422 353.688 315.572 353.6 315.729 353.529V353.529Z" fill="#455A64"/>
<path d="M333.328 199.062C333.328 199.062 341.379 205.982 342.647 212.298C343.915 218.613 347.9 281.674 346.427 287.567C344.954 293.46 329.297 329.41 329.297 329.41L324.969 294.293V259.234L333.328 199.062Z" fill="#263238"/>
<path d="M224.153 340.156L222.543 346.152L239.901 349.909L241.249 344.142L224.153 340.156Z" fill="white"/>
<path d="M245.314 342.748V351.074L307.508 349.452C307.508 349.452 310.648 329.65 311.002 330.712C311.356 331.774 317.009 349.452 317.009 349.452H335.864L326.613 271.853L333.385 199.062L309.997 186.5L307.565 181.464C307.565 181.464 282.338 178.929 275.589 180.128L273.191 186.146L264.215 189.344L249.106 271.842L245.314 342.748Z" fill="#263238"/>
<path d="M249.254 192.438L267.697 185.712L275.189 178.986C279.661 177.243 284.299 175.958 289.03 175.149C297.481 173.607 305.931 177.65 305.931 177.65L310.739 184.559L334.607 201.86L332.323 267.947L260.377 273.144L249.254 192.438Z" fill="#263238"/>
<path d="M235.402 261.895C235.984 261.118 238.497 206.245 239.456 201.826C240.415 197.406 245.988 192.221 249.254 192.416C252.52 192.61 269.045 204.509 269.045 226.036C269.045 247.563 260.206 290.216 260.206 290.216L242.334 344.393L222.543 339.825L235.607 260.661" fill="#263238"/>
<path d="M267.947 186.146C281.963 181.582 297.003 181.185 311.24 185.004Z" fill="#263238"/>
<path d="M311.241 185.004C310.665 184.959 310.095 184.855 309.54 184.696C308.455 184.456 306.879 184.147 304.972 183.816C299.877 182.982 294.716 182.622 289.555 182.743C284.397 182.893 279.265 183.536 274.229 184.661C272.299 185.095 270.735 185.484 269.661 185.803C269.115 185.985 268.553 186.115 267.982 186.192C268.501 185.941 269.039 185.734 269.593 185.575C270.643 185.21 272.185 184.753 274.161 184.262C284.283 181.745 294.83 181.457 305.075 183.417C307.039 183.805 308.603 184.17 309.643 184.49C310.189 184.616 310.724 184.788 311.241 185.004V185.004Z" fill="#455A64"/>
<path d="M331.101 220.908V221.194C331.101 221.411 331.101 221.685 331.044 222.005C330.976 222.77 330.896 223.821 330.781 225.145C330.53 227.863 330.188 231.803 329.788 236.679C329.023 246.409 328.075 259.896 328.337 274.799C328.642 287.521 329.68 300.214 331.444 312.817C332.083 317.613 332.586 321.519 332.985 324.237C333.157 325.55 333.294 326.601 333.397 327.354C333.397 327.685 333.454 327.948 333.488 328.177C333.522 328.405 333.488 328.451 333.488 328.451C333.45 328.363 333.423 328.271 333.408 328.177C333.408 327.96 333.317 327.697 333.26 327.377L332.746 324.271C332.3 321.576 331.695 317.67 331.01 312.851C329.133 300.251 328.046 287.546 327.755 274.811C327.611 262.069 328.156 249.328 329.388 236.645C329.834 231.769 330.233 227.84 330.53 225.122C330.69 223.809 330.816 222.759 330.907 221.993C330.907 221.674 330.987 221.4 331.01 221.183C331.026 221.087 331.057 220.994 331.101 220.908V220.908Z" fill="#455A64"/>
<path d="M269.045 226.036C269.045 247.551 260.206 290.216 260.206 290.216L242.334 344.393L222.543 339.825L235.607 260.661" fill="#263238"/>
<path d="M235.606 260.616C235.621 260.749 235.621 260.883 235.606 261.015C235.606 261.29 235.514 261.666 235.446 262.157L234.761 266.566C234.144 270.437 233.242 276.044 232.123 283.067C229.839 297.16 226.595 316.951 222.861 339.825L222.644 339.505L242.435 344.073L242.092 344.267L245.427 334.126C250.646 318.355 255.591 303.395 259.988 290.091C263.79 271.305 266.326 255.283 267.662 243.943C268.37 238.233 268.667 233.779 268.872 230.695C268.964 229.165 268.975 227.977 269.021 227.178C269.021 226.801 269.021 226.493 269.021 226.276C269.006 226.174 269.006 226.07 269.021 225.967C269.033 226.07 269.033 226.173 269.021 226.276V227.258C269.021 228.057 269.021 229.245 269.021 230.787C268.872 233.87 268.621 238.381 267.97 244.057C266.714 255.477 264.259 271.465 260.49 290.274C256.116 303.578 251.194 318.549 245.998 334.32C244.856 337.804 243.714 341.23 242.652 344.461L242.561 344.724L242.298 344.656L222.519 340.088L222.256 340.019V339.756L231.723 283.022C232.865 276.021 233.87 270.46 234.521 266.554C234.864 264.658 235.115 263.185 235.297 262.157C235.389 261.678 235.457 261.301 235.514 261.015C235.572 260.73 235.606 260.616 235.606 260.616Z" fill="#455A64"/>
<path d="M235.4 261.895C235.983 261.118 238.495 206.245 239.454 201.826Z" fill="#263238"/>
<path d="M239.455 201.826C239.481 202.03 239.481 202.238 239.455 202.442C239.455 202.899 239.41 203.482 239.318 204.19C239.215 205.788 239.078 207.97 238.907 210.619C238.599 216.135 238.176 223.615 237.765 231.872C237.354 240.128 236.829 247.688 236.44 253.124C236.052 258.56 235.687 261.929 235.504 261.895C235.504 261.895 235.504 261.689 235.504 261.29C235.504 260.89 235.572 260.239 235.618 259.531C235.709 257.932 235.824 255.751 235.972 253.101C236.269 247.574 236.68 240.105 237.114 231.837C237.548 223.569 238.062 216.021 238.496 210.596C238.702 207.878 238.907 205.674 239.09 204.167C239.181 203.402 239.273 202.819 239.341 202.419C239.351 202.217 239.389 202.017 239.455 201.826V201.826Z" fill="#455A64"/>
<path d="M266.451 213.828C266.337 213.828 266.097 212.264 265.309 209.842C264.817 208.423 264.214 207.044 263.505 205.72C262.634 204.113 261.625 202.584 260.49 201.152C259.329 199.729 258.049 198.407 256.665 197.201C255.523 196.23 254.309 195.348 253.033 194.563C250.852 193.215 249.356 192.633 249.401 192.53C249.773 192.595 250.134 192.71 250.475 192.872C251.435 193.235 252.364 193.679 253.25 194.197C254.58 194.949 255.841 195.817 257.019 196.789C258.455 197.99 259.774 199.325 260.958 200.775C262.115 202.25 263.132 203.829 263.996 205.491C264.687 206.852 265.26 208.27 265.709 209.728C265.915 210.345 266.029 210.927 266.155 211.43C266.261 211.859 266.341 212.293 266.394 212.732C266.457 213.094 266.477 213.462 266.451 213.828Z" fill="#455A64"/>
<path d="M332.014 199.439C332.275 200.173 332.418 200.944 332.436 201.723C332.807 205.453 332.588 209.218 331.786 212.88C331.68 213.651 331.448 214.4 331.1 215.096C330.929 215.096 331.717 211.67 331.957 207.296C332.197 202.922 331.843 199.462 332.014 199.439Z" fill="#455A64"/>
<path d="M319.212 255.511C319.327 255.637 310.842 263.619 300.278 273.361C289.715 283.102 281.035 290.89 280.933 290.765C280.83 290.639 289.292 282.656 299.867 272.915C310.442 263.174 319.11 255.397 319.212 255.511Z" fill="#455A64"/>
<path d="M309.985 329.41C309.929 328.817 309.929 328.221 309.985 327.628C309.985 326.372 309.985 324.739 310.042 322.775C310.042 318.675 310.099 313.011 309.939 306.787C309.779 300.563 309.46 294.876 309.197 290.799C309.071 288.835 308.957 287.202 308.877 285.957C308.822 285.364 308.822 284.768 308.877 284.175C309.018 284.753 309.109 285.341 309.151 285.934C309.3 287.076 309.471 288.72 309.654 290.765C310.031 294.853 310.408 300.517 310.579 306.753C310.75 312.988 310.659 318.686 310.51 322.741C310.43 324.785 310.339 326.452 310.259 327.594C310.217 328.206 310.125 328.813 309.985 329.41Z" fill="#455A64"/>
<path d="M335.862 349.452H335.531H334.526L330.689 349.52L316.551 349.669H316.391V349.52L310.076 330.986H310.612C309.756 336.696 308.82 342.965 307.837 349.498V349.749H307.586L305.302 349.806L262.945 350.811L250.109 351.051H246.626H245.713H245.404H245.713H246.615L250.109 350.902L262.934 350.48L305.291 349.338L307.575 349.281L307.198 349.452L310.007 330.952L310.179 329.81L310.544 330.952L316.756 349.452L316.551 349.303H330.689H334.526H335.531L335.862 349.452Z" fill="#455A64"/>
<path d="M224.711 346.62C224.711 346.62 220.771 357.32 222.05 359.376C223.329 361.432 229.736 369.894 231.106 369.894C232.477 369.894 239.34 367.838 239.34 367.838C239.34 367.838 244.822 360.427 244.137 359.844C243.451 359.262 241.624 357.16 240.025 359.844L236.131 364.115L234.761 358.634C234.761 358.634 237.604 352.924 239.203 349.852L224.711 346.62Z" fill="#8F6752"/>
<path d="M221.708 372.783L216.958 373.046L204.887 441.052L260.102 442.514L268.028 441.497L259.269 371.081L221.708 372.783Z" fill="#455A64"/>
<path d="M212.002 401.63H254.336L256.049 371.23L258.219 442.514" fill="#455A64"/>
<path d="M258.218 442.514C258.205 442.388 258.205 442.262 258.218 442.137C258.218 441.863 258.218 441.509 258.218 441.063C258.218 440.081 258.103 438.688 258.035 436.918C257.898 433.286 257.704 428.079 257.475 421.661C257.064 408.745 256.482 390.941 255.854 371.241H256.448C256.448 371.47 256.448 371.721 256.448 371.972C255.842 382.581 255.306 392.654 254.757 401.664V401.927H254.495L223.958 401.813L215.267 401.744H212.983H212.389H212.184H212.389H212.983H215.267L223.958 401.664L254.495 401.55L254.232 401.813C254.723 392.825 255.283 382.753 255.865 372.121C255.865 371.869 255.865 371.618 255.865 371.39H256.459C257.019 391.089 257.532 408.893 257.909 421.82C258.058 428.239 258.183 433.446 258.275 437.089C258.275 438.859 258.332 440.241 258.343 441.234V442.308C258.306 442.379 258.264 442.448 258.218 442.514V442.514Z" fill="#263238"/>
<path d="M234.898 359.216C234.898 359.216 237.182 357.297 239.295 358.725C241.408 360.152 244.708 371.744 244.902 371.732C245.096 371.721 238.633 373.046 238.633 373.046L234.898 359.216Z" fill="#455A64"/>
<path d="M226.196 364.96C225.113 367.52 224.543 370.267 224.518 373.046H229.143L229.52 368.763L226.196 364.96Z" fill="#455A64"/>
<path d="M322.149 83.5384C334.685 71.0019 334.685 50.6763 322.149 38.1398C309.612 25.6033 289.286 25.6034 276.75 38.1398C264.214 50.6763 264.214 71.0019 276.75 83.5384C289.287 96.0748 309.612 96.0748 322.149 83.5384Z" fill="#FAFAFA"/>
<path d="M267.502 63.3353C267.502 63.3353 267.502 63.1526 267.502 62.81C267.502 62.4674 267.502 61.9535 267.502 61.2911C267.502 60.96 267.502 60.5831 267.502 60.1491C267.502 59.7152 267.559 59.2926 267.593 58.8016C267.627 58.3105 267.673 57.7852 267.718 57.2256C267.736 56.9377 267.774 56.6514 267.833 56.3691C267.833 56.0722 267.935 55.7639 267.993 55.4555C268.499 52.4112 269.466 49.4616 270.859 46.7078C272.677 43.0481 275.182 39.7721 278.236 37.0579L279.527 35.9159C279.984 35.5619 280.475 35.2307 280.954 34.8881L281.674 34.3628C281.913 34.182 282.165 34.018 282.427 33.8717L284.015 32.9467L284.826 32.4785L285.682 32.0902L287.418 31.3022C288.012 31.051 288.64 30.8797 289.245 30.6513L290.182 30.3315L290.65 30.1831L291.141 30.0689C292.446 29.7203 293.774 29.4608 295.115 29.2923C295.8 29.2124 296.485 29.0867 297.182 29.0525H299.295C299.649 29.0525 300.003 29.0525 300.357 29.0525L301.43 29.1324C302.15 29.2009 302.869 29.2238 303.589 29.3151C305.054 29.5253 306.503 29.8304 307.928 30.2287L309.002 30.5371L309.55 30.6855L310.075 30.8911L312.211 31.7248C312.907 32.0331 313.581 32.41 314.278 32.7526C314.62 32.9353 314.974 33.0837 315.306 33.2893L316.299 33.9174C317.639 34.7599 318.921 35.6908 320.136 36.7039L321.884 38.3484L322.329 38.7709C322.466 38.9079 322.592 39.0678 322.729 39.2163L323.528 40.1299L324.339 41.0549L325.058 42.0484L325.778 43.0534L326.143 43.5559L326.452 44.0812L327.708 46.2396C328.05 47.0047 328.404 47.7584 328.747 48.5236C330.052 51.6628 330.872 54.982 331.179 58.3676C331.39 61.7785 331.082 65.2016 330.266 68.52C330.049 69.3308 329.82 70.1302 329.592 70.941C329.364 71.7519 328.987 72.4942 328.69 73.225L328.461 73.8075L328.187 74.3556L327.628 75.4976L327.068 76.6396L326.417 77.6788L325.766 78.7066L325.435 79.2205L325.07 79.7002L323.597 81.5959C322.549 82.7846 321.423 83.9024 320.228 84.942L319.348 85.7185C319.051 85.9698 318.72 86.1753 318.412 86.4151C317.784 86.8605 317.167 87.3287 316.528 87.7513L314.552 88.8933L314.049 89.076C313.89 89.1674 313.707 89.2359 313.547 89.3158L312.519 89.784C311.181 90.3988 309.804 90.9252 308.397 91.36C307.688 91.5656 306.98 91.7026 306.284 91.8739L305.233 92.1137C304.886 92.1808 304.535 92.2303 304.183 92.2622L302.093 92.5363C301.396 92.6048 300.699 92.5363 300.014 92.6162C298.661 92.6592 297.307 92.6096 295.96 92.4677H295.458L294.978 92.3878L294.007 92.2165C293.356 92.0909 292.717 92.0109 292.089 91.8625L290.25 91.36L289.348 91.1088L288.48 90.7776L286.767 90.1152C286.485 90.0082 286.21 89.8823 285.945 89.7384L285.145 89.3387C284.62 89.0646 284.095 88.8133 283.581 88.5393L282.131 87.6142C278.689 85.4091 275.707 82.5588 273.349 79.2205L272.572 78.1471L271.932 77.0051C271.715 76.651 271.51 76.297 271.304 75.943C271.213 75.7717 271.099 75.6004 271.007 75.4291L270.768 74.8924L269.843 72.8824C269.569 72.2429 269.386 71.592 269.157 70.9981C269.055 70.7012 268.963 70.4043 268.86 70.1188C268.754 69.8482 268.67 69.5694 268.609 69.2851L268.244 67.7549C268.141 67.2752 268.015 66.8413 267.947 66.4416C267.878 66.0419 267.844 65.665 267.798 65.2996C267.707 64.6372 267.639 64.1576 267.581 63.7921C267.524 63.4267 267.502 63.2782 267.502 63.2782C267.502 63.2782 267.502 63.4495 267.502 63.7921C267.502 64.1347 267.604 64.6486 267.673 65.2996C267.673 65.6422 267.764 66.0076 267.81 66.4416C267.856 66.8755 268.004 67.2866 268.107 67.7663C268.21 68.2459 268.335 68.7598 268.461 69.308C268.516 69.5925 268.596 69.8715 268.701 70.1416L268.998 71.021C269.214 71.6262 269.397 72.2772 269.66 72.9281L270.585 74.9495L270.825 75.4862C270.916 75.6575 271.019 75.8288 271.122 76.0001L271.738 77.0736C271.955 77.439 272.161 77.8159 272.389 78.2156C272.618 78.6153 272.892 78.935 273.154 79.3576C275.553 82.7187 278.582 85.5811 282.073 87.7855L283.535 88.7106C284.038 88.9961 284.574 89.2473 285.111 89.5214L285.911 89.9211C286.173 90.0733 286.448 90.2032 286.733 90.3094L288.457 90.9717C288.743 91.0859 289.04 91.2115 289.337 91.3143L290.25 91.5656L292.1 92.0909C292.728 92.2508 293.368 92.3307 294.019 92.4563L295.001 92.6276L295.492 92.7076H295.994C297.348 92.8568 298.71 92.914 300.071 92.8789C300.768 92.8789 301.465 92.8789 302.173 92.7989L304.274 92.5248C304.628 92.5248 304.993 92.4449 305.347 92.3764L306.398 92.1251C307.106 91.9538 307.826 91.8168 308.522 91.6112C309.949 91.179 311.345 90.6525 312.702 90.0353L313.73 89.5671L314.255 89.3272L314.746 89.0303L316.733 87.8883C317.384 87.4658 318.001 86.9976 318.64 86.5408C318.964 86.3252 319.277 86.0927 319.577 85.8441L320.467 85.0676C321.684 84.0029 322.829 82.8584 323.893 81.6416L325.378 79.723L325.755 79.232L326.086 78.7181L326.737 77.6788L327.399 76.6396L327.97 75.4976L328.53 74.3556L328.815 73.796L329.044 73.2136C329.341 72.4371 329.649 71.6605 329.957 70.9296C330.266 70.1987 330.414 69.308 330.643 68.4857C331.443 65.1222 331.732 61.6573 331.499 58.2077C331.192 54.7766 330.368 51.4116 329.055 48.2267C328.701 47.4615 328.359 46.685 328.005 45.9427L326.611 43.8871C326.509 43.7043 326.406 43.5216 326.292 43.3503L325.926 42.8364L325.207 41.8315L324.476 40.8265L323.665 39.9015L322.854 38.9765L322.443 38.5197L321.998 38.0971L320.228 36.4298C319 35.4127 317.707 34.4781 316.356 33.6319L315.351 33.0038C315.02 32.7868 314.655 32.6384 314.312 32.4556C313.615 32.113 312.93 31.7362 312.222 31.4278L310.075 30.5942L309.55 30.3772L309.002 30.2287L307.86 29.9204C306.423 29.522 304.962 29.2168 303.486 29.0068C302.766 28.9154 302.036 28.8926 301.305 28.8241L300.231 28.7441C299.866 28.7441 299.512 28.7441 299.158 28.7441H297.022C296.326 28.7441 295.629 28.9154 294.944 28.9954C293.591 29.1632 292.251 29.4266 290.935 29.7834L290.444 29.8976L289.976 30.0574L289.04 30.3772C288.412 30.6056 287.783 30.7883 287.19 31.0396L285.499 31.976L284.643 32.3643L283.832 32.8325L282.233 33.7689C281.967 33.9192 281.712 34.0871 281.468 34.2714L280.749 34.7967C280.258 35.1508 279.778 35.4819 279.31 35.8474L278.019 36.9894C274.966 39.7111 272.465 42.9951 270.653 46.6621C269.271 49.4337 268.316 52.3983 267.821 55.4555C267.821 55.7753 267.718 56.0836 267.673 56.3691C267.614 56.6553 267.576 56.9453 267.559 57.237C267.559 57.808 267.479 58.379 267.444 58.813C267.41 59.247 267.376 59.7609 267.364 60.172C267.353 60.5831 267.364 60.96 267.364 61.314C267.364 61.9763 267.364 62.456 267.422 62.8328C267.479 63.2097 267.502 63.3353 267.502 63.3353Z" fill="#263238"/>
<path d="M291.57 53.9147L296.137 53.8354C296.125 53.317 296.217 52.8014 296.408 52.3194C296.6 51.8374 296.886 51.3989 297.251 51.0301C297.615 50.6613 298.05 50.3698 298.53 50.1729C299.01 49.976 299.524 49.8778 300.043 49.8842C300.799 49.8383 301.551 50.0272 302.196 50.4249C302.841 50.8225 303.347 51.4096 303.645 52.1059C303.896 52.6983 304.004 53.3415 303.959 53.9833C303.915 54.6252 303.72 55.2474 303.39 55.7996C302.635 57.0919 300.965 58.2745 297.896 57.791L298.075 68.0675L302.573 67.9893L302.47 62.0176C304.298 61.4398 305.888 60.2792 306.995 58.7131C308.102 57.147 308.666 55.2616 308.601 53.3447C308.485 46.6879 302.498 45.25 299.94 45.2944C297.987 45.3055 291.339 45.8893 291.57 53.9147Z" fill="#19B690"/>
<path d="M302.72 74.3945L298.152 74.4738L298.078 70.2148L302.646 70.1355L302.72 74.3945Z" fill="#19B690"/>
<path d="M284.688 98.2805C284.688 98.2805 284.882 97.995 285.339 97.5953C285.888 97.1182 286.551 96.7925 287.264 96.6503C287.977 96.5081 288.715 96.5544 289.405 96.7845C290.032 97.0063 290.582 97.4025 290.992 97.9265C291.491 98.5205 291.797 99.2531 291.868 100.026C291.939 100.799 291.772 101.575 291.389 102.25C291.006 102.925 290.426 103.466 289.726 103.802C289.026 104.138 288.241 104.251 287.475 104.128C286.809 104.049 286.18 103.784 285.659 103.362C285.207 102.982 284.844 102.506 284.597 101.969C284.229 101.186 284.113 100.308 284.266 99.4568C284.38 98.8629 284.551 98.5546 284.517 98.5432C284.483 98.5317 284.517 98.6117 284.391 98.7601C284.341 98.8473 284.299 98.9391 284.266 99.0342C284.213 99.1627 284.174 99.2968 284.152 99.4339C283.949 100.31 284.037 101.228 284.403 102.049C284.662 102.63 285.053 103.142 285.545 103.545C286.095 104.012 286.77 104.31 287.486 104.402C288.264 104.496 289.054 104.377 289.77 104.059C290.571 103.733 291.239 103.146 291.665 102.394C292.092 101.642 292.253 100.768 292.123 99.9136C292.027 99.1246 291.715 98.3776 291.22 97.7552C290.779 97.1837 290.18 96.7547 289.496 96.5218C288.904 96.3272 288.275 96.2687 287.657 96.3505C286.76 96.4666 285.924 96.8668 285.271 97.4925C285.17 97.5862 285.078 97.6895 284.997 97.8009C284.927 97.8782 284.866 97.9624 284.814 98.0521C284.761 98.1217 284.719 98.1986 284.688 98.2805V98.2805Z" fill="#263238"/>
<path d="M491.689 99.3426H374.816V360.895H491.689V99.3426Z" fill="#19B690"/>
<path d="M491.7 87.8198H378.094H367.279V99.3426V360.895H378.094V99.3426H491.7V360.895H503.429V99.3426V87.8198H491.7Z" fill="#19B690"/>
<path d="M503.44 87.8198C501.601 89.7636 499.657 91.605 497.616 93.3356C495.983 94.8317 494.521 96.2021 493.505 97.2184C493.103 97.6176 492.722 98.0369 492.363 98.4746C492.235 98.6369 492.121 98.8087 492.02 98.9885C492.02 98.9885 491.952 98.7145 492.168 98.349C492.46 97.8453 492.804 97.3743 493.196 96.9444C494.452 95.5193 495.79 94.1694 497.205 92.9017C498.849 91.4057 500.379 90.1038 501.51 89.1902C502.087 88.6464 502.736 88.1852 503.44 87.8198Z" fill="#455A64"/>
<path d="M378.094 99.571C376.08 97.8122 374.202 95.9034 372.475 93.861C370.596 91.9666 368.859 89.9359 367.279 87.7856C369.296 89.5458 371.178 91.4545 372.909 93.4956C374.784 95.3911 376.517 97.4217 378.094 99.571V99.571Z" fill="#455A64"/>
<path d="M385.095 253.284C384.578 253.284 384.066 253.182 383.589 252.984C383.111 252.786 382.678 252.496 382.313 252.13C381.948 251.764 381.659 251.329 381.462 250.851C381.265 250.373 381.165 249.861 381.166 249.344V222.279C381.166 221.237 381.58 220.238 382.317 219.501C383.053 218.764 384.053 218.35 385.095 218.35C386.137 218.35 387.138 218.764 387.876 219.5C388.615 220.237 389.031 221.236 389.034 222.279V249.344C389.034 250.389 388.619 251.391 387.88 252.13C387.142 252.869 386.139 253.284 385.095 253.284V253.284Z" fill="#263238"/>
<path d="M386.694 244.708C386.701 244.47 386.645 244.235 386.53 244.027C386.416 243.819 386.247 243.645 386.042 243.525C385.838 243.404 385.604 243.341 385.367 243.341C385.129 243.342 384.896 243.406 384.692 243.528C384.488 243.649 384.32 243.823 384.207 244.032C384.093 244.241 384.037 244.476 384.046 244.713C384.054 244.951 384.126 245.182 384.255 245.381C384.383 245.581 384.563 245.743 384.775 245.85V247.392C384.775 247.549 384.838 247.7 384.949 247.811C385.06 247.923 385.211 247.985 385.369 247.985V247.985C385.526 247.985 385.678 247.923 385.789 247.811C385.9 247.7 385.963 247.549 385.963 247.392V245.85C386.177 245.744 386.358 245.582 386.487 245.38C386.616 245.179 386.687 244.947 386.694 244.708V244.708Z" fill="#455A64"/>
<path d="M404.554 234.293H387.139C386.864 234.293 386.592 234.239 386.339 234.134C386.085 234.029 385.855 233.875 385.661 233.681C385.467 233.487 385.313 233.256 385.208 233.003C385.103 232.749 385.049 232.477 385.049 232.203V232.203C385.049 231.649 385.269 231.117 385.661 230.725C386.053 230.333 386.584 230.113 387.139 230.113H404.611C404.886 230.113 405.157 230.167 405.411 230.272C405.665 230.377 405.895 230.531 406.089 230.725C406.283 230.919 406.437 231.15 406.542 231.403C406.647 231.657 406.701 231.928 406.701 232.203C406.701 232.482 406.645 232.759 406.537 233.016C406.428 233.273 406.269 233.506 406.069 233.701C405.869 233.896 405.632 234.049 405.371 234.15C405.111 234.252 404.833 234.3 404.554 234.293V234.293Z" fill="#263238"/>
<path d="M392.848 234.418C392.041 234.559 391.223 234.632 390.404 234.635C389.506 234.694 388.604 234.675 387.709 234.578C387.119 234.562 386.54 234.41 386.019 234.132C385.498 233.855 385.048 233.46 384.705 232.979C384.544 232.692 384.453 232.37 384.439 232.041C384.425 231.712 384.489 231.384 384.626 231.084C384.76 230.786 384.989 230.541 385.276 230.387C385.516 230.254 385.768 230.147 386.03 230.067C386.914 229.819 387.832 229.718 388.748 229.77C389.573 229.744 390.398 229.821 391.204 229.999C390.395 230.152 389.571 230.218 388.748 230.193C387.889 230.198 387.035 230.329 386.213 230.581C385.745 230.753 385.311 230.935 385.151 231.335C385.059 231.553 385.019 231.788 385.033 232.024C385.047 232.259 385.114 232.489 385.231 232.694C385.528 233.094 385.911 233.422 386.352 233.653C386.792 233.884 387.28 234.013 387.777 234.03C388.644 234.155 389.518 234.22 390.393 234.224C391.216 234.164 392.044 234.229 392.848 234.418V234.418Z" fill="#455A64"/>
<path opacity="0.3" d="M491.7 87.8198H378.094H367.279V99.3426V360.895H378.094V99.3426H491.7V360.895H503.429V99.3426V87.8198H491.7Z" fill="black"/>
<path d="M491.7 359.89C491.7 359.89 491.7 359.445 491.7 358.588C491.7 357.732 491.7 356.441 491.7 354.774C491.7 351.348 491.7 346.449 491.7 340.031C491.7 327.183 491.643 308.534 491.608 285.215C491.608 238.632 491.551 173.561 491.506 99.5253L491.803 99.8222H378.002L378.299 99.5253C378.299 173.093 378.219 237.707 378.196 283.924C378.196 307.015 378.128 325.527 378.105 338.272C378.105 344.621 378.105 349.543 378.105 352.889C378.105 354.545 378.105 355.802 378.105 356.669C378.105 357.537 378.105 357.948 378.105 357.948C378.105 357.948 378.105 357.515 378.105 356.669C378.105 355.824 378.105 354.545 378.105 352.889C378.105 349.543 378.105 344.621 378.048 338.272C378.048 325.527 378.048 307.015 377.957 283.924C377.957 237.696 377.899 173.15 377.865 99.5253V99.2398H492.065V99.5253C492.065 173.561 491.997 238.632 491.962 285.215C491.962 308.488 491.905 327.137 491.882 340.031C491.882 346.449 491.882 351.451 491.882 354.774C491.882 356.441 491.882 357.72 491.882 358.588C491.882 359.456 491.7 359.89 491.7 359.89Z" fill="#263238"/>
<path d="M202.626 99.2626H85.7539V360.815H202.626V99.2626Z" fill="#19B690"/>
<path d="M202.626 87.7398H89.0198H78.2051V99.2626V360.815H89.0198V99.2626H202.626V360.815H214.366V99.2626V87.7398H202.626Z" fill="#19B690"/>
<path d="M214.366 87.7398C212.526 89.6857 210.582 91.5308 208.542 93.2671C206.909 94.7631 205.447 96.1221 204.431 97.1499C203.928 97.6638 203.529 98.0863 203.289 98.3947C203.049 98.703 202.992 98.9086 202.946 98.9086C202.901 98.9086 202.878 98.6345 203.095 98.2805C203.385 97.7728 203.73 97.298 204.123 96.8644C205.383 95.4395 206.725 94.0897 208.142 92.8217C209.775 91.3599 211.272 90.0238 212.414 89.0759C213.007 88.5521 213.663 88.1033 214.366 87.7398V87.7398Z" fill="#455A64"/>
<path d="M89.0765 99.5024C87.0656 97.74 85.1876 95.8314 83.4578 93.7924C81.5798 91.8928 79.8431 89.8584 78.2617 87.7056C80.2779 89.4662 82.1598 91.3748 83.8918 93.4156C85.7721 95.3099 87.5054 97.3447 89.0765 99.5024V99.5024Z" fill="#455A64"/>
<path d="M96.0203 253.204C94.9784 253.204 93.9792 252.79 93.2424 252.054C92.5057 251.317 92.0918 250.318 92.0918 249.276V222.21C92.0918 221.167 92.5053 220.167 93.2417 219.428C93.9781 218.69 94.9773 218.273 96.0203 218.27V218.27C97.0652 218.27 98.0673 218.686 98.8062 219.424C99.5451 220.163 99.9602 221.165 99.9602 222.21V249.276C99.9602 249.793 99.8582 250.304 99.66 250.782C99.4619 251.259 99.1715 251.693 98.8055 252.058C98.4395 252.423 98.0051 252.712 97.5272 252.908C97.0492 253.105 96.5371 253.206 96.0203 253.204Z" fill="#263238"/>
<path d="M97.6195 244.628C97.627 244.39 97.5705 244.155 97.4559 243.947C97.3413 243.739 97.1729 243.565 96.9682 243.445C96.7636 243.324 96.5302 243.261 96.2926 243.261C96.0551 243.262 95.822 243.326 95.6178 243.448C95.4137 243.569 95.246 243.743 95.1323 243.952C95.0186 244.161 94.9631 244.396 94.9716 244.633C94.98 244.871 95.0522 245.102 95.1806 245.301C95.3089 245.501 95.4886 245.663 95.7009 245.77V247.311C95.7009 247.469 95.7635 247.62 95.8748 247.731C95.9862 247.843 96.1373 247.905 96.2948 247.905V247.905C96.4523 247.905 96.6033 247.843 96.7147 247.731C96.826 247.62 96.8886 247.469 96.8886 247.311V245.77C97.1028 245.664 97.284 245.502 97.4128 245.3C97.5416 245.099 97.6131 244.867 97.6195 244.628V244.628Z" fill="#455A64"/>
<path d="M115.481 234.213H98.0081C97.4569 234.213 96.9282 233.994 96.5384 233.604C96.1487 233.214 95.9297 232.686 95.9297 232.134V232.134C95.9297 231.58 96.1499 231.049 96.5418 230.657C96.9337 230.265 97.4653 230.044 98.0195 230.044H115.492C116.046 230.044 116.578 230.265 116.97 230.657C117.362 231.049 117.582 231.58 117.582 232.134V232.134C117.582 232.409 117.528 232.681 117.422 232.935C117.316 233.189 117.161 233.419 116.965 233.612C116.77 233.805 116.538 233.958 116.283 234.061C116.028 234.164 115.756 234.216 115.481 234.213V234.213Z" fill="#263238"/>
<path d="M103.785 234.338C102.98 234.497 102.162 234.573 101.341 234.567C100.443 234.621 99.5409 234.598 98.6462 234.498C98.0554 234.485 97.476 234.334 96.9544 234.056C96.4328 233.778 95.9835 233.382 95.6427 232.899C95.4843 232.613 95.3947 232.294 95.3808 231.967C95.3669 231.64 95.4292 231.314 95.5628 231.015C95.7 230.717 95.9278 230.469 96.2137 230.307C96.4557 230.172 96.7124 230.064 96.9788 229.987C97.8582 229.738 98.773 229.638 99.6854 229.69C100.511 229.656 101.337 229.736 102.141 229.93C101.331 230.076 100.508 230.137 99.6854 230.113C98.8254 230.123 97.9714 230.257 97.1501 230.513C96.9187 230.539 96.6978 230.623 96.5086 230.759C96.3194 230.895 96.1683 231.077 96.0697 231.288C95.9711 231.499 95.9284 231.732 95.9456 231.964C95.9628 232.196 96.0394 232.42 96.168 232.614C96.4704 233.011 96.8561 233.338 97.2979 233.571C97.7398 233.804 98.2273 233.937 98.7261 233.962C99.5892 234.078 100.459 234.139 101.33 234.144C102.153 234.082 102.982 234.147 103.785 234.338V234.338Z" fill="#455A64"/>
<path opacity="0.3" d="M202.626 87.7398H89.0198H78.2051V99.2626V360.815H89.0198V99.2626H202.626V360.815H214.366V99.2626V87.7398H202.626Z" fill="black"/>
<path d="M202.626 359.81C202.626 359.81 202.626 359.376 202.626 358.508C202.626 357.64 202.626 356.372 202.626 354.694C202.626 351.325 202.626 346.369 202.626 339.962C202.626 327.114 202.569 308.454 202.535 285.146C202.535 238.564 202.535 173.493 202.432 99.4681L202.729 99.7536H88.9631L89.26 99.4681C89.26 173.036 89.18 237.65 89.1572 283.855C89.0773 306.992 89.0773 325.47 89.0773 338.238C89.0773 344.598 89.0773 349.509 89.0773 352.855C89.0773 354.511 89.0773 355.779 89.0773 356.635C89.0773 357.492 89.0773 357.926 89.0773 357.926C89.0773 357.926 89.0773 357.492 89.0773 356.635C89.0773 355.779 89.0773 354.511 89.0773 352.855C89.0773 349.509 89.0773 344.598 89.0773 338.238C89.0773 325.493 89.0773 306.992 88.9973 283.89C88.9973 237.673 88.9288 173.116 88.8945 99.5024V99.2055H203.095V99.5024C203.095 173.527 203.026 238.598 203.003 285.18C203.003 308.454 202.935 327.114 202.912 339.996C202.912 346.403 202.912 351.359 202.855 354.728C202.855 356.407 202.855 357.674 202.855 358.542C202.855 359.41 202.626 359.81 202.626 359.81Z" fill="#263238"/>
<path d="M535.598 360.792C535.598 360.952 425.372 361.089 289.429 361.089C153.485 361.089 43.2363 360.952 43.2363 360.792C43.2363 360.632 153.439 360.495 289.429 360.495C425.418 360.495 535.598 360.621 535.598 360.792Z" fill="#263238"/>
<path d="M535.598 558.792C535.598 558.952 425.372 559.089 289.429 559.089C153.485 559.089 43.2363 558.952 43.2363 558.792C43.2363 558.632 153.439 558.495 289.429 558.495C425.418 558.495 535.598 558.621 535.598 558.792Z" fill="#263238"/>
</svg>
