<svg width="496" height="607" viewBox="0 0 496 607" fill="none" xmlns="http://www.w3.org/2000/svg">
<g clip-path="url(#clip0_133_2470)">
<path d="M480.644 117.461L481.588 115.791C489.513 101.718 489.341 84.4288 480.649 70.978C479.528 69.248 478.282 67.6017 476.922 66.0521C467.09 54.8993 451.331 49.2417 436.484 51.563C427.768 52.924 419.046 56.8351 410.459 54.9457C399.283 52.4881 392.718 41.3442 387.47 31.2644C382.221 21.1846 375.619 10.0457 364.43 7.63608C357.422 6.1292 350.028 8.55081 343.944 12.4124C327.861 22.6001 319.504 42.5352 320.396 61.4092C321.288 80.2831 330.364 97.9982 342.667 112.3C359.9 132.332 384.443 146.803 410.983 148.881C437.523 150.959 465.631 139.477 480.644 117.461Z" fill="white"/>
<path d="M269.922 606.506C218.106 606.506 176.102 582.255 176.102 552.34C176.102 522.426 218.106 498.175 269.922 498.175C321.737 498.175 363.742 522.426 363.742 552.34C363.742 582.255 321.737 606.506 269.922 606.506Z" fill="#F5F5F5"/>
<path d="M193.332 541.155C192.995 542.18 192.876 543.264 192.982 544.338C193.089 545.412 193.419 546.452 193.951 547.39C196.731 549.768 199.969 551.55 203.465 552.626C206.961 553.703 210.641 554.051 214.277 553.649C222.142 552.883 229.709 550.239 236.339 545.939C241.422 542.811 247.354 541.347 253.309 541.75C259.473 541.75 264.043 540.56 264.566 538.966C265.495 536.134 265.566 534.349 264.209 534.373L193.332 541.155Z" fill="#263238"/>
<path d="M259.71 514.763C256.691 517.04 253.077 518.393 249.305 518.659C245.533 518.925 241.765 518.092 238.456 516.262L237.171 475.923H263.756L259.71 514.763Z" fill="#985952"/>
<path d="M198.854 533.111C208.458 529.787 217.65 525.371 226.248 519.951C228.056 518.666 229.461 517.571 230.651 516.571C233.34 513.858 234.982 507.98 236.148 507.314C237.315 506.647 239.266 508.789 240.194 509.289C242.134 510.362 244.257 511.065 246.454 511.36C252.951 512.192 253.213 510.884 253.404 513.002C253.463 513.794 253.463 514.589 253.404 515.381C256.855 514.929 259.592 513.93 259.806 512.621L260.377 508.48C263.804 508.289 263.804 514.429 264.661 521.355C265.375 526.947 266.565 531.041 264.875 535.087C259.52 539.418 250.428 537.966 245.192 538.633C237.791 539.585 234.149 544.892 223.772 548.152C207.112 553.245 196.902 546.272 193.927 543.273C191.951 539.442 193.07 535.277 198.854 533.111Z" fill="#37474F"/>
<path d="M293.769 576.948C294.055 579.471 294.435 586.467 307.264 588.276C320.092 590.085 328.16 585.706 331.564 579.518C334.967 573.33 334.158 568.309 334.682 562.597C335.205 556.886 339.918 553.816 341.274 550.865C343.25 546.533 340.298 539.798 340.298 539.798L293.769 576.948Z" fill="#263238"/>
<path d="M337.275 529.875C335.728 541.583 313.023 540.727 314.856 531.374L310.714 502.982L336.395 503.696L337.275 529.875Z" fill="#985952"/>
<path d="M294.673 571.117C296.49 568.623 298.453 566.239 300.552 563.978C308.2 554.158 312.793 542.307 313.761 529.898C313.761 529.208 313.903 527.875 314.57 527.518C315.236 527.161 315.974 527.685 316.688 527.994C317.96 528.541 319.309 528.886 320.686 529.018C324.255 529.12 327.826 528.969 331.373 528.565C332.253 528.684 332.539 531.397 332.491 534.372C334.086 533.325 334.61 531.302 336.061 530.112C336.847 529.47 337.204 529.446 337.18 528.399C337.156 527.352 337.18 527.114 337.18 526.424C338.346 526.067 339.346 530.541 340.298 533.944C341.44 537.894 342.821 542.345 341.297 546.367C340.324 548.559 339.119 550.641 337.704 552.578C335.264 555.939 333.679 559.843 333.086 563.954C332.92 565.739 333.086 567.571 332.801 569.356C332.399 572.378 331.135 575.22 329.16 577.541C327.184 579.863 324.581 581.566 321.662 582.445C313.856 584.825 302.099 584.563 295.196 579.114C292.745 577.257 293.554 573.235 294.673 571.117Z" fill="#37474F"/>
<path d="M324.757 266.591C329.851 313.427 330.684 396.698 330.684 396.698C330.684 396.698 338.395 418.497 338.371 434.775C338.371 468.902 337.49 515.69 337.49 515.69C329.336 518.661 320.458 519.01 312.096 516.69C312.096 516.69 299.101 440.535 293.317 412.976C288.248 389.011 280.108 334.322 280.108 334.322L268.898 401.315C271.322 413.72 272.391 426.352 272.088 438.988C271.564 451.886 261.996 501.435 261.996 501.435C257.807 505.386 242.552 502.078 237.173 498.651C237.173 498.651 233.412 415.142 232.27 401.6C230.77 383.751 228.033 255.858 228.033 255.858L324.757 266.591Z" fill="#37474F"/>
<path d="M280.107 334.275L273.848 305.478C265.213 303.348 257.08 299.548 249.905 294.293C249.905 294.293 253.57 303.479 268.945 310.524L275.324 337.487L269.85 396.698L280.107 334.275Z" fill="#263238"/>
<path d="M50.5067 138.745C51.8633 134.652 59.3366 138.174 67.1668 141.958C74.3069 145.433 88.2538 152.096 89.2534 150.668C90.253 149.24 89.4438 143.243 91.1812 139.34C92.9186 135.437 97.5358 134.224 97.512 137.698C97.512 139.697 98.7259 146.337 99.1305 149.383C99.5351 152.429 100.297 156.523 103.295 158.331C106.294 160.14 164.747 169.16 164.747 169.16C164.747 169.16 210.206 142.196 219.488 136.056C228.77 129.916 236.148 123.99 249.952 124.68C268.04 131.177 261.852 147.836 254.165 158.498C249.904 164.352 248.334 164.21 232.554 170.873C213.514 178.941 183.431 196.171 167.223 198.599C149.016 196.742 101.034 183.32 96.322 182.558C90.7052 181.63 87.1351 182.725 82.5893 181.963C77.1391 181.011 72.4743 180.464 67.5476 177.537C66.8057 177.188 66.1488 176.681 65.6227 176.052C65.0965 175.424 64.7138 174.688 64.5012 173.896C64.3584 173.087 64.5012 172.254 64.5012 171.516C64.0634 170.208 63.7136 168.872 63.454 167.518C63.454 165.733 65.4294 164.043 65.3342 162.258C65.3342 161.473 64.1442 159.379 64.3584 158.617C64.846 157.478 65.4779 156.406 66.2386 155.428C66.5956 154.762 67.6666 153.619 66.9526 152.905C66.2386 152.191 63.6444 151.049 58.4084 147.432C53.1723 143.814 49.5785 141.458 50.5067 138.745Z" fill="#985952"/>
<path d="M250.691 123.514C242.599 123.514 237.578 122.229 215.134 136.389C192.69 150.55 164.535 168.446 164.535 168.446L135.023 164.353C135.023 164.353 138.878 175.324 131.167 191.198C131.167 191.198 158.609 198.623 165.035 199.765C171.461 200.907 170.699 200.455 180.671 196.671C190.644 192.887 241.338 169.208 241.338 169.208L250.691 123.514Z" fill="#13A581"/>
<path d="M75.3316 155.024C79.6632 157.856 85.1611 159.784 85.4467 162.758C85.4679 163.348 85.3612 163.936 85.134 164.481C84.9068 165.026 84.5644 165.515 84.1303 165.915C83.6963 166.315 83.1808 166.617 82.6192 166.799C82.0577 166.981 81.4633 167.04 80.877 166.971C81.4064 167.442 81.8034 168.044 82.0289 168.716C82.2543 169.388 82.3003 170.107 82.1622 170.802C81.9923 171.471 81.6396 172.079 81.1435 172.558C80.6475 173.037 80.0277 173.369 79.3538 173.515C79.6086 173.98 79.7653 174.493 79.8142 175.021C79.8631 175.549 79.8032 176.082 79.6382 176.586C79.4731 177.09 79.2064 177.555 78.8546 177.952C78.5027 178.349 78.0732 178.669 77.5926 178.894C79.2348 178.894 82.3526 177.966 81.353 174.896C81.353 174.896 85.3276 172.516 83.733 169.065C83.733 169.065 85.3752 173.087 91.8965 174.063C88.9495 172.639 86.5742 170.256 85.161 167.304C85.9615 166.601 86.5551 165.694 86.878 164.679C87.2009 163.664 87.2409 162.58 86.9937 161.545C85.9702 158.189 75.3316 155.024 75.3316 155.024Z" fill="#582525"/>
<path d="M284.296 124.467C297.386 126.442 312.356 127.489 321.519 128.75C331.539 130.107 335.133 138.27 335.133 155.452C335.133 180.679 322.209 222.755 322.209 222.755L324.756 266.687C313.022 279.252 257.758 283.798 227.77 265.402C227.77 265.402 226.985 179.846 227.77 165.448C229.198 140.078 243.883 123.824 253.236 123.11C253.236 122.967 261.804 120.944 284.296 124.467Z" fill="#1BC89E"/>
<path d="M296.957 45.931C296.957 45.931 304.097 46.9306 306.763 52.3328C309.143 57.0925 308.239 68.373 305.168 80.7483C303.447 88.7549 300.861 96.5509 297.457 103.999C296.267 106.112 294.305 107.681 291.983 108.378L292.34 93.6947L292.887 83.4851C292.887 83.4851 286.319 74.5131 285.581 67.1593C284.653 57.6399 286.652 53.8321 286.652 53.8321L296.957 45.931Z" fill="#263238"/>
<path d="M298.649 47.74L308.764 43.1231C308.154 41.7215 307.025 40.611 305.613 40.0251C304.202 39.4392 302.618 39.4236 301.195 39.9817C300.513 40.3175 299.904 40.7863 299.405 41.3604C298.906 41.9346 298.527 42.6026 298.29 43.3253C298.053 44.0479 297.962 44.8107 298.024 45.5688C298.085 46.3269 298.298 47.0651 298.649 47.74Z" fill="#263238"/>
<path d="M285.391 60.2104C285.376 65.6337 283.754 70.931 280.728 75.4322C277.703 79.9333 273.41 83.4361 268.394 85.4974C263.377 87.5586 257.861 88.0858 252.545 87.0122C247.229 85.9385 242.35 83.3123 238.527 79.4658C234.703 75.6193 232.107 70.7252 231.065 65.4028C230.024 60.0803 230.585 54.5686 232.676 49.5648C234.768 44.5611 238.297 40.2901 242.817 37.2922C247.337 34.2944 252.644 32.7043 258.068 32.7231C265.335 32.7483 272.296 35.6577 277.419 40.8119C282.542 45.966 285.41 52.9433 285.391 60.2104Z" fill="#263238"/>
<path d="M292.484 81.8669C294.864 84.0087 296.958 78.4637 299.053 76.298C301.147 74.1323 307.883 71.2051 311.238 78.3209C314.594 85.4366 308.121 95.4082 303.075 97.7643C295.673 101.191 292.341 93.7185 292.341 93.7185L291.556 124.657C283.749 138.698 268.398 138.412 265.971 144.838C264.519 139.126 256.451 132.01 261.734 125.799V115.756C257.649 116.385 253.509 116.584 249.382 116.351C242.646 115.28 239.124 110.187 237.101 102.905C233.864 91.1721 232.555 71.4669 237.101 48.6917C244.646 42.861 270.826 43.932 286.653 53.856C285.487 74.0609 290.033 79.725 292.484 81.8669Z" fill="#985952"/>
<path d="M233.339 32.5564C233.426 32.3562 233.564 32.1826 233.74 32.053C233.915 31.9234 234.122 31.8426 234.339 31.8186C234.675 31.8387 234.994 31.973 235.243 32.1994C237.126 33.7123 239.133 35.0656 241.241 36.2452C240.729 33.5403 240.729 30.7634 241.241 28.0585C241.55 26.3926 242.002 22.561 244.073 22.1564C245.287 21.8946 246.453 22.918 247.262 23.7747C255.497 31.4855 266.302 27.9157 276.179 28.2251C284.486 28.5106 294.506 31.8662 298.242 39.9577C299.956 43.6465 300.265 47.5257 296.862 50.0721C293.834 52.1105 290.369 53.4069 286.747 53.8561C270.087 56.7357 246.524 63.5421 234.386 48.1206C232.597 45.8145 231.694 42.944 231.84 40.0291C231.819 37.4771 232.38 34.9539 233.482 32.6516C233.479 32.6358 233.473 32.6208 233.464 32.6074C233.455 32.594 233.444 32.5825 233.431 32.5736C233.417 32.5647 233.402 32.5586 233.387 32.5556C233.371 32.5527 233.355 32.5529 233.339 32.5564Z" fill="#263238"/>
<path d="M261.782 115.756C261.782 115.756 276.848 112.758 282.107 109.997C285.197 108.394 287.74 105.909 289.414 102.858C288.612 105.934 287.195 108.816 285.249 111.33C281.393 116.232 261.782 119.802 261.782 119.802V115.756Z" fill="#582525"/>
<path d="M265.328 77.2975C265.315 77.7015 265.383 78.1039 265.528 78.4814C265.672 78.859 265.89 79.204 266.169 79.4963C266.448 79.7887 266.783 80.0226 267.153 80.1844C267.524 80.3463 267.923 80.4327 268.327 80.4389C268.954 80.4674 269.574 80.3077 270.109 79.9803C270.645 79.6529 271.069 79.1728 271.329 78.6019C271.589 78.0309 271.672 77.3953 271.567 76.7768C271.463 76.1584 271.175 75.5854 270.742 75.1316C270.309 74.6779 269.75 74.3642 269.137 74.231C268.524 74.0977 267.885 74.1511 267.303 74.3841C266.72 74.617 266.221 75.019 265.869 75.5383C265.517 76.0575 265.329 76.6702 265.328 77.2975Z" fill="#263238"/>
<path d="M266.471 66.0648L273.206 69.0634C273.588 68.1457 273.601 67.116 273.241 66.1892C272.882 65.2625 272.179 64.5102 271.278 64.0895C270.834 63.8921 270.355 63.7867 269.869 63.7798C269.384 63.7728 268.901 63.8644 268.452 64.0491C268.003 64.2337 267.595 64.5075 267.255 64.854C266.914 65.2004 266.648 65.6123 266.471 66.0648Z" fill="#263238"/>
<path d="M264.21 97.4076L254.689 101.001C254.898 101.646 255.234 102.242 255.678 102.753C256.122 103.265 256.665 103.682 257.273 103.98C257.882 104.277 258.544 104.449 259.221 104.485C259.897 104.522 260.574 104.421 261.211 104.19C262.486 103.66 263.508 102.661 264.066 101.398C264.624 100.136 264.676 98.707 264.21 97.4076Z" fill="#B16668"/>
<path d="M261.116 104.19C260.265 104.507 259.342 104.581 258.45 104.404C258.523 103.192 259.057 102.053 259.942 101.222C260.827 100.39 261.996 99.9277 263.211 99.9299C263.656 99.9274 264.098 99.9998 264.52 100.144C264.362 101.06 263.964 101.917 263.366 102.628C262.768 103.339 261.991 103.878 261.116 104.19Z" fill="#582525"/>
<path d="M237.816 67.9923L244.789 65.4221C244.66 64.9354 244.429 64.4817 244.112 64.0912C243.794 63.7006 243.397 63.3822 242.947 63.1571C242.496 62.9319 242.003 62.8053 241.5 62.7855C240.997 62.7657 240.496 62.8532 240.029 63.0422C239.091 63.4197 238.335 64.1467 237.922 65.0702C237.509 65.9936 237.471 67.0412 237.816 67.9923Z" fill="#263238"/>
<path d="M240.434 76.2984C240.457 76.8905 240.654 77.4628 241 77.9439C241.346 78.425 241.826 78.7938 242.38 79.0045C242.934 79.2151 243.537 79.2582 244.116 79.1285C244.694 78.9988 245.221 78.702 245.632 78.2749C246.043 77.8479 246.319 77.3095 246.427 76.7266C246.534 76.1438 246.468 75.5423 246.236 74.9969C246.004 74.4516 245.617 73.9864 245.123 73.6592C244.628 73.3321 244.049 73.1574 243.456 73.157C243.051 73.1632 242.651 73.2495 242.279 73.411C241.908 73.5725 241.572 73.8061 241.291 74.0981C241.01 74.3901 240.789 74.7349 240.642 75.1126C240.495 75.4902 240.424 75.8932 240.434 76.2984Z" fill="#263238"/>
<path d="M255.355 75.5602L254.356 92.7665L244.836 89.5061L254.356 75.3698C254.699 75.3604 255.04 75.4254 255.355 75.5602Z" fill="#582525"/>
<path d="M291.675 115.947C293.603 116.089 294.436 116.375 296.007 119.493C297.768 123.039 299.291 126.275 299.291 126.275C298.883 131.478 296.589 136.352 292.841 139.983C289.095 143.821 284.833 147.121 280.179 149.788C278.519 147.535 276.664 145.433 274.634 143.505C273.65 142.468 272.297 141.86 270.868 141.811C269.439 141.762 268.047 142.276 266.994 143.244C267.873 141.303 269.027 139.499 270.421 137.889C271.588 136.651 276.324 135.223 282.798 131.154C286.884 128.364 289.99 124.359 291.675 119.707V115.947Z" fill="#13A581"/>
<path d="M265.328 143.053C265.096 140.462 264.139 137.987 262.567 135.914C260.901 132.677 261.806 130.131 261.782 127.394C261.758 124.657 261.782 118.541 261.782 118.541C260.585 118.548 259.425 118.955 258.485 119.697C257.545 120.438 256.879 121.472 256.593 122.634C255.213 126.037 252.333 130.25 252.333 137.936C252.333 144.838 252.976 146.123 252.976 146.123C254.998 144.248 257.198 142.574 259.545 141.125C260.035 140.803 260.592 140.596 261.174 140.519C261.756 140.443 262.348 140.5 262.904 140.686C263.461 140.871 263.969 141.181 264.388 141.591C264.808 142.001 265.13 142.501 265.328 143.053Z" fill="#13A581"/>
<path d="M321.519 128.655C334.871 128.655 343.987 137.579 352.936 152.454C359.885 163.948 385.827 207.904 391.016 220.303C395.776 231.584 396.062 236.248 387.731 244.102C381.091 250.48 341.226 284.559 334.086 291.151C328.95 296.348 322.057 299.437 314.76 299.814C303.883 300.48 298.695 296.482 296.839 294.079C285.724 279.657 306.93 276.991 314.594 272.493C318.328 270.285 321.719 267.543 324.661 264.354L324.304 258.476C324.304 258.476 332.682 258.69 335.3 256.667C337.918 254.645 359.266 228.3 359.266 228.3L324.042 177.68C316.855 169.327 312.166 140.412 321.519 128.655Z" fill="#985952"/>
<path d="M319.283 128.655C329.945 127.036 340.084 129.63 350.77 146.527C361.457 163.424 388.541 211.593 391.635 219.137C394.729 226.681 399.204 234.606 390.35 242.793C381.496 250.979 372.595 258.642 372.595 258.642C370.358 252.026 360.481 240.555 352.341 236.867L357.482 228.942C357.482 228.942 326.542 182.939 320.877 174.872C315.213 166.804 310.715 148.265 319.283 128.655Z" fill="#13A581"/>
</g>
<defs>
<clipPath id="clip0_133_2470">
<rect width="496" height="607" fill="white" transform="matrix(-1 0 0 1 496 0)"/>
</clipPath>
</defs>
</svg>
