<svg width="732" height="715" viewBox="0 0 732 715" fill="none" xmlns="http://www.w3.org/2000/svg">
<g clip-path="url(#clip0_133_2585)">
<path d="M554.731 230.796C559.94 186.182 488.495 70.8321 425.124 36.5338C342.977 -7.96871 242.068 20.739 202.692 114.16C166.118 200.938 219.356 282.373 306.662 303.994C384.414 323.19 551.053 284.699 554.731 230.796Z" fill="white"/>
<path d="M377.972 704.286C580.893 704.286 745.392 694.68 745.392 682.831C745.392 670.982 580.893 661.377 377.972 661.377C175.052 661.377 10.5527 670.982 10.5527 682.831C10.5527 694.68 175.052 704.286 377.972 704.286Z" fill="#EBEBEB"/>
<path d="M500.332 459.418H338.632C335.566 459.418 333.08 461.904 333.08 464.971V471.339C333.08 474.406 335.566 476.893 338.632 476.893H500.332C503.398 476.893 505.884 474.406 505.884 471.339V464.971C505.884 461.904 503.398 459.418 500.332 459.418Z" fill="#263238"/>
<path d="M498.797 671.46H505.884L497.736 476.892H487.92L498.797 671.46Z" fill="#1BC89E"/>
<path opacity="0.6" d="M498.797 671.46H505.884L497.736 476.892H487.92L498.797 671.46Z" fill="white"/>
<path d="M433.552 671.46H426.465L434.613 476.892H444.429L433.552 671.46Z" fill="#1BC89E"/>
<path opacity="0.6" d="M433.552 671.46H426.465L434.613 476.892H444.429L433.552 671.46Z" fill="white"/>
<path d="M405.43 671.46H412.517L404.35 476.892H394.553L405.43 671.46Z" fill="#1BC89E"/>
<path opacity="0.6" d="M405.43 671.46H412.517L404.35 476.892H394.553L405.43 671.46Z" fill="white"/>
<path d="M340.167 671.46H333.08L341.247 476.892H351.045L340.167 671.46Z" fill="#1BC89E"/>
<path opacity="0.6" d="M340.167 671.46H333.08L341.247 476.892H351.045L340.167 671.46Z" fill="white"/>
<g opacity="0.3">
<path opacity="0.3" d="M497.734 476.874H487.918L488.373 485.156H498.075L497.734 476.874Z" fill="#1BC89E"/>
<path opacity="0.3" d="M434.271 485.156H443.955L444.429 476.874H434.613L434.271 485.156Z" fill="#1BC89E"/>
<path opacity="0.3" d="M394.553 476.874L395.008 485.156H404.71L404.35 476.874H394.553Z" fill="#1BC89E"/>
<path opacity="0.3" d="M340.887 485.156H350.608L351.063 476.874H341.247L340.887 485.156Z" fill="#1BC89E"/>
</g>
<path d="M400.864 642.861L384.832 651.389L359.553 617.256L375.603 608.727L400.864 642.861Z" fill="#FFB573"/>
<path d="M379.034 646.12L395.785 634.483C395.922 634.367 396.082 634.28 396.255 634.229C396.428 634.177 396.609 634.163 396.788 634.186C396.966 634.209 397.138 634.27 397.292 634.363C397.445 634.457 397.578 634.582 397.68 634.73L407.705 647.409C408.187 648.108 408.376 648.968 408.23 649.804C408.085 650.641 407.617 651.387 406.928 651.882C401.035 655.824 398.382 657.208 390.669 661.794C385.913 664.599 374.543 671.27 367.55 674.322C360.558 677.373 357.753 670.361 360.444 668.446C366.83 663.936 375.282 655.066 377.196 648.831C377.491 647.748 378.138 646.795 379.034 646.12Z" fill="#263238"/>
<path opacity="0.2" d="M375.622 608.746L359.553 617.256L371.738 633.707L387.428 624.685L375.622 608.746Z" fill="black"/>
<path d="M414.337 406.559C414.337 406.559 289.76 402.674 289.268 454.737C288.661 529.562 359.666 627.831 359.666 627.831L387.447 609.352C387.447 609.352 338.784 537.92 338.367 479.508C375.073 469.141 461.541 475.717 472.741 445.204C481.912 420.3 477.118 406.559 477.118 406.559H414.337Z" fill="#1BC89E"/>
<path opacity="0.2" d="M414.337 406.559C414.337 406.559 289.76 402.674 289.268 454.737C288.661 529.562 359.666 627.831 359.666 627.831L387.447 609.352C387.447 609.352 338.784 537.92 338.367 479.508C375.073 469.141 461.541 475.717 472.741 445.204C481.912 420.3 477.118 406.559 477.118 406.559H414.337Z" fill="black"/>
<path d="M394.988 614.109L361.94 634.351L351.574 623.832L387.882 600.956L394.988 614.109Z" fill="#263238"/>
<path d="M375.566 652.394C376.889 651.437 378.097 650.33 379.166 649.096C379.223 649.036 379.26 648.96 379.273 648.878C379.286 648.796 379.275 648.713 379.24 648.637C379.206 648.562 379.15 648.499 379.079 648.456C379.009 648.413 378.927 648.391 378.844 648.395C378.143 648.395 371.927 648.395 370.601 650.423C370.449 650.649 370.357 650.911 370.334 651.183C370.311 651.455 370.357 651.728 370.468 651.977C370.594 652.37 370.821 652.723 371.127 652.999C371.434 653.275 371.808 653.466 372.212 653.55C373.434 653.591 374.628 653.179 375.566 652.394ZM377.859 649.267C375.566 651.655 373.538 652.925 372.363 652.716C372.1 652.658 371.858 652.528 371.664 652.341C371.47 652.153 371.331 651.916 371.264 651.655C371.194 651.541 371.156 651.41 371.156 651.276C371.156 651.142 371.194 651.011 371.264 650.897C372.022 649.835 375.376 649.361 377.859 649.267Z" fill="#1BC89E"/>
<path d="M379.09 649.172C379.144 649.13 379.189 649.079 379.223 649.02C379.26 648.957 379.279 648.885 379.279 648.812C379.279 648.738 379.26 648.666 379.223 648.603C379.109 648.414 376.456 643.903 373.955 643.486C373.618 643.421 373.271 643.436 372.941 643.532C372.612 643.627 372.31 643.8 372.06 644.036C371.775 644.248 371.568 644.55 371.472 644.893C371.376 645.236 371.396 645.601 371.53 645.931C372.325 647.826 376.703 649.361 378.806 649.229L379.09 649.172ZM372.856 644.472C372.993 644.37 373.149 644.297 373.316 644.258C373.482 644.219 373.654 644.214 373.822 644.244C375.319 644.49 377.139 646.859 378.086 648.3C376.021 648.11 372.913 646.784 372.401 645.552C372.306 645.324 372.25 645.002 372.723 644.585C372.761 644.623 372.799 644.566 372.856 644.472Z" fill="#1BC89E"/>
<path d="M371.207 663.784L353.204 662.932L350.248 620.421L368.25 621.274L371.207 663.784Z" fill="#FFB573"/>
<path d="M352.787 659.861L373.158 659.217C373.502 659.19 373.842 659.301 374.105 659.525C374.368 659.749 374.531 660.067 374.56 660.411L376.057 676.502C376.088 677.353 375.78 678.182 375.201 678.807C374.623 679.432 373.82 679.803 372.968 679.837C365.881 679.837 362.47 679.629 353.507 679.837C347.992 680.008 337.153 680.823 329.592 679.837C322.031 678.852 323.187 671.441 326.465 671.157C334.254 670.531 344.695 665.149 349.698 660.96C350.578 660.264 351.664 659.877 352.787 659.861Z" fill="#263238"/>
<path d="M346.458 663.216C348.087 663.128 349.701 662.861 351.271 662.42C351.35 662.399 351.421 662.356 351.476 662.295C351.531 662.234 351.566 662.159 351.578 662.078C351.59 661.998 351.578 661.915 351.544 661.841C351.51 661.767 351.454 661.705 351.385 661.662C350.798 661.283 345.548 657.871 343.369 658.857C343.12 658.965 342.903 659.135 342.737 659.351C342.571 659.566 342.463 659.82 342.422 660.089C342.31 660.486 342.305 660.906 342.408 661.305C342.511 661.705 342.719 662.07 343.009 662.363C344.01 663.073 345.242 663.378 346.458 663.216ZM350.077 661.851C346.856 662.59 344.392 662.571 343.597 661.756C343.412 661.56 343.281 661.318 343.218 661.056C343.155 660.793 343.161 660.519 343.237 660.259C343.252 660.127 343.303 660.001 343.383 659.895C343.463 659.789 343.569 659.705 343.691 659.653C344.866 659.141 347.936 660.562 350.077 661.851Z" fill="#1BC89E"/>
<path d="M351.177 662.439C351.239 662.456 351.304 662.456 351.366 662.439C351.428 662.405 351.48 662.356 351.516 662.296C351.553 662.236 351.573 662.168 351.575 662.097C351.575 661.87 351.84 656.639 349.945 654.933C349.697 654.696 349.394 654.523 349.064 654.43C348.733 654.338 348.385 654.328 348.05 654.403C347.687 654.423 347.342 654.565 347.07 654.805C346.799 655.046 346.616 655.372 346.553 655.729C346.193 657.625 349.016 661.415 350.854 662.439C350.959 662.473 351.072 662.473 351.177 662.439ZM348.467 655.161C348.634 655.151 348.801 655.176 348.958 655.235C349.115 655.293 349.257 655.384 349.376 655.502C350.513 656.525 350.741 659.501 350.76 661.188C349.13 659.899 347.235 657.094 347.481 655.786C347.481 655.54 347.652 655.237 348.258 655.142L348.467 655.161Z" fill="#1BC89E"/>
<path opacity="0.2" d="M368.269 621.274L350.248 620.421L351.935 644.737L369.899 644.718L368.269 621.274Z" fill="black"/>
<path d="M458.642 406.559C458.642 406.559 328.305 418.878 333.042 458.129C339.902 514.722 343.275 636.701 343.275 636.701L376.494 638.008C376.494 638.008 390.574 528.083 383.297 470.031C417.028 470.031 499.612 472.457 507.135 452.14C513.786 434.173 511.418 406.654 511.418 406.654L458.642 406.559Z" fill="#1BC89E"/>
<path d="M380.17 640.055L340.3 638.084L338.859 620.724L382.596 623.737L380.17 640.055Z" fill="#263238"/>
<path d="M429.725 291.592C429.478 294.776 429.232 297.543 428.872 300.462C428.512 303.381 428.133 306.148 427.678 309.104C426.788 314.79 425.651 320.476 424.324 326.295C421.741 338.317 417.54 349.933 411.836 360.826C410.134 363.886 408.175 366.796 405.981 369.525C403.528 372.606 400.628 375.302 397.377 377.523C391.123 381.677 383.891 384.121 376.4 384.612C369.84 385.041 363.254 384.401 356.9 382.717C353.902 381.949 350.953 381 348.07 379.874C346.629 379.324 345.227 378.718 343.844 377.978C342.46 377.239 341.172 376.633 339.58 375.78L344.564 363.101L348.183 363.555L351.973 363.934C354.513 364.143 357.014 364.276 359.553 364.276C364.157 364.353 368.751 363.825 373.216 362.703C376.794 361.844 380.106 360.119 382.862 357.68C384.043 356.575 385.098 355.341 386.007 354.003C387.127 352.279 388.127 350.481 389.001 348.621C391.006 344.272 392.647 339.765 393.909 335.145C395.35 330.35 396.506 325.328 397.548 320.211C398.59 315.094 399.443 309.919 400.296 304.707L401.414 296.861C401.755 294.284 402.134 291.516 402.38 289.28L429.725 291.592Z" fill="#FFB573"/>
<path d="M429.839 276.146C416.574 263.277 400.088 270.877 393.531 295.099C389.82 308.029 387.283 321.267 385.951 334.653L428.153 343.371C435.827 320.268 443.483 289.337 429.839 276.146Z" fill="#263238"/>
<path opacity="0.3" d="M416.251 302.491C419.264 299.781 427.829 311.967 433.059 326.997C431.581 332.682 429.895 338.16 428.17 343.296L402.777 338.046C404.805 323.035 409.486 308.593 416.251 302.491Z" fill="black"/>
<path d="M341.702 357.415L332.227 353.795L331.811 373.904C331.811 373.904 347.729 380.783 350.969 372.88L349.832 367.858C349.284 365.645 348.277 363.572 346.876 361.773C345.476 359.974 343.713 358.489 341.702 357.415Z" fill="#FFB573"/>
<path d="M321.047 354.326L315.457 371.193L331.887 373.904L332.303 353.795L321.047 354.326Z" fill="#FFB573"/>
<path d="M335.373 367.763C335.173 367.766 334.976 367.713 334.805 367.609C334.634 367.505 334.496 367.354 334.407 367.175L317.485 334.596C317.35 334.339 317.323 334.04 317.408 333.763C317.493 333.486 317.684 333.254 317.939 333.117C318.199 332.99 318.498 332.968 318.774 333.056C319.05 333.144 319.28 333.336 319.417 333.591L336.283 366.114C336.417 366.371 336.445 366.67 336.359 366.947C336.274 367.223 336.083 367.456 335.828 367.592C335.689 367.678 335.535 367.736 335.373 367.763Z" fill="#263238"/>
<path d="M428.265 263.239L448.504 257.553L474.503 256.341C478.452 256.151 482.353 257.266 485.606 259.512C488.859 261.759 491.284 265.013 492.505 268.773C497.451 283.936 501.98 305.769 505.334 324.665C509.124 345.873 511.019 377.732 511.417 406.654H414.337C412.12 346.29 404.445 310.602 401.072 290.853C400.399 286.983 401.014 282.999 402.821 279.511C404.628 276.023 407.528 273.223 411.078 271.541L428.265 263.239Z" fill="#263238"/>
<path opacity="0.3" d="M505.334 324.589C502.719 309.711 499.346 292.957 495.593 279.102C478.292 276.184 469.916 314.127 475.052 332.947C480.187 351.767 507.57 340.357 507.57 340.357C506.925 334.69 506.167 329.365 505.334 324.589Z" fill="black"/>
<path d="M445.055 218.037C449.224 228.272 446.723 247.035 438.498 241.728C430.274 236.421 442.516 211.821 445.055 218.037Z" fill="#263238"/>
<path d="M440.507 224.595L432.643 236.611L421.955 252.967C423.336 254.366 424.453 256.003 425.253 257.8C427.148 261.742 428.834 264.68 420.553 270.327C419.664 270.898 418.957 271.712 418.517 272.673C418.076 273.634 417.922 274.701 418.071 275.748C418.563 278.306 421.103 280.789 430.028 279.216C438.63 277.569 446.479 273.212 452.427 266.783C455.402 263.808 454.72 261.571 451.858 258.482C443.672 249.764 441.246 235.834 440.507 224.595Z" fill="#FFB573"/>
<path opacity="0.2" d="M424.513 248.93L431.07 237.274C431.208 237.578 431.36 237.9 431.524 238.241C432.107 239.68 432.576 241.163 432.927 242.676C434.12 247.85 430.103 255.242 425.688 258.767L425.176 257.762C424.381 256.084 423.361 254.522 422.144 253.119C422.067 253.042 421.977 252.978 421.879 252.929L424.513 248.93Z" fill="black"/>
<path d="M385.154 210.456C382.71 215.971 391.37 231.588 401.281 225.277C411.191 218.966 389.475 200.696 385.154 210.456Z" fill="#263238"/>
<path d="M432.927 282.571C432.796 282.573 432.669 282.528 432.569 282.445C432.468 282.362 432.4 282.245 432.378 282.116C431.657 277.435 428.588 274.535 425.12 271.01C420.723 266.708 415.74 261.818 414.11 252.247C414.085 252.106 414.117 251.961 414.198 251.844C414.28 251.727 414.405 251.647 414.546 251.621C414.686 251.596 414.831 251.628 414.949 251.71C415.066 251.792 415.146 251.917 415.171 252.057C416.763 261.287 421.614 266.044 425.878 270.233C429.384 273.663 432.681 276.904 433.458 281.946C433.471 282.017 433.47 282.09 433.454 282.161C433.438 282.231 433.408 282.298 433.366 282.357C433.323 282.415 433.269 282.465 433.206 282.501C433.144 282.538 433.075 282.562 433.003 282.571H432.927Z" fill="white"/>
<path d="M436.963 204.903C440.753 222.074 443.709 231.949 437.588 242.809C428.341 259.24 405.222 257.004 396.429 241.198C388.508 226.983 383.79 201.283 398.514 190.196C401.808 187.746 405.667 186.168 409.734 185.607C413.8 185.046 417.943 185.521 421.777 186.988C425.611 188.455 429.013 190.866 431.668 193.997C434.323 197.129 436.144 200.88 436.963 204.903Z" fill="#FFB573"/>
<path d="M442.061 216.692C436.148 225.088 420.647 209.679 421.917 199.331C406.53 208.087 389.816 219.781 379.678 209.925C367.967 198.554 371.169 182.255 384.889 180.795C382.463 185.533 396.259 187.637 403.593 180.321C416.005 168.04 435.618 170.599 435.258 180.549C444.714 176.796 455.042 198.251 442.061 216.692Z" fill="#263238"/>
<path d="M433.437 183.335C437.095 180.606 434.669 170.883 426.18 168.04C434.252 169.083 442.609 175.091 433.437 183.335Z" fill="#263238"/>
<path d="M447.538 215.933C447.701 219.859 446.42 223.709 443.938 226.755C440.678 230.64 435.657 227.551 434.463 222.699C433.42 218.359 434.766 211.631 439.049 209.546C443.331 207.461 447.311 211.043 447.538 215.933Z" fill="#FFB573"/>
<path d="M412.328 218.833C412.783 220.217 412.442 221.619 411.533 221.941C410.623 222.264 409.638 221.411 409.088 220.046C408.539 218.681 408.974 217.26 409.884 216.919C410.794 216.578 411.874 217.431 412.328 218.833Z" fill="#263238"/>
<path d="M396.789 224.519C397.263 225.922 396.903 227.324 395.993 227.647C395.084 227.969 394.003 227.116 393.549 225.751C393.094 224.387 393.454 222.965 394.345 222.643C395.235 222.321 396.334 223.136 396.789 224.519Z" fill="#263238"/>
<path d="M402.114 223.723C402.176 227.868 401.692 232.004 400.674 236.023C403.459 237.047 406.529 234.64 406.529 234.64L402.114 223.723Z" fill="#ED893E"/>
<path d="M410.434 242.354C412.047 241.823 413.536 240.97 414.81 239.846C416.084 238.722 417.116 237.35 417.843 235.815C417.887 235.709 417.888 235.59 417.846 235.484C417.803 235.378 417.721 235.292 417.616 235.246C417.507 235.208 417.388 235.212 417.283 235.258C417.177 235.303 417.093 235.387 417.047 235.493C416.233 237.148 415.049 238.594 413.587 239.718C412.125 240.842 410.423 241.614 408.614 241.975C408.555 241.982 408.498 242.002 408.447 242.033C408.395 242.063 408.351 242.104 408.316 242.153C408.281 242.201 408.257 242.256 408.244 242.315C408.232 242.373 408.231 242.434 408.243 242.492C408.255 242.551 408.278 242.606 408.312 242.656C408.346 242.705 408.39 242.746 408.441 242.778C408.492 242.809 408.549 242.83 408.608 242.838C408.667 242.847 408.727 242.843 408.785 242.827C409.344 242.706 409.895 242.548 410.434 242.354Z" fill="#263238"/>
<path d="M413.749 212.806C413.881 212.744 413.992 212.645 414.071 212.522C414.192 212.328 414.232 212.094 414.183 211.871C414.133 211.647 413.997 211.453 413.805 211.328C412.684 210.571 411.394 210.103 410.049 209.964C408.704 209.825 407.345 210.02 406.093 210.532C405.988 210.579 405.894 210.646 405.816 210.73C405.738 210.815 405.677 210.914 405.638 211.022C405.6 211.129 405.583 211.244 405.589 211.359C405.596 211.473 405.625 211.585 405.676 211.688C405.778 211.893 405.956 212.049 406.172 212.124C406.389 212.198 406.626 212.185 406.832 212.086C407.82 211.705 408.886 211.567 409.938 211.686C410.991 211.805 411.999 212.176 412.877 212.769C413.004 212.857 413.153 212.907 413.307 212.914C413.462 212.921 413.615 212.883 413.749 212.806Z" fill="#263238"/>
<path d="M393.719 215.535C393.755 215.392 393.755 215.243 393.719 215.1C393.627 214.889 393.456 214.724 393.244 214.639C393.031 214.554 392.793 214.556 392.582 214.645C391.32 215.134 390.199 215.928 389.319 216.957C388.44 217.986 387.829 219.216 387.541 220.539C387.504 220.763 387.556 220.992 387.688 221.177C387.819 221.362 388.019 221.487 388.242 221.524C388.466 221.562 388.695 221.509 388.88 221.378C389.065 221.246 389.19 221.047 389.228 220.823C389.474 219.79 389.969 218.832 390.669 218.033C391.369 217.234 392.253 216.617 393.245 216.237C393.377 216.17 393.49 216.07 393.573 215.947C393.656 215.825 393.706 215.683 393.719 215.535Z" fill="#263238"/>
<path d="M489.152 269.209C491.047 272.28 492.563 275.047 494.135 278.003C495.708 280.96 497.224 283.841 498.702 286.798C501.696 292.692 504.387 298.757 507.002 304.935C509.618 311.114 511.91 317.482 513.881 324.115C516.037 331.078 517.485 338.24 518.202 345.494C518.585 349.728 518.438 353.994 517.766 358.192C517.333 360.961 516.49 363.651 515.265 366.171C513.845 369.019 511.874 371.558 509.466 373.638C507.298 375.523 504.824 377.023 502.151 378.073C499.908 378.955 497.577 379.59 495.197 379.969C491.178 380.597 487.096 380.705 483.05 380.291C479.437 379.984 475.851 379.407 472.324 378.566C468.957 377.799 465.63 376.863 462.356 375.761C455.924 373.631 449.675 370.982 443.672 367.839L448.466 355.084C460.253 357.32 472.912 359.386 483.542 358.742C485.867 358.62 488.17 358.226 490.402 357.567C492.297 356.998 493.264 356.145 493.188 355.88C493.112 355.615 493.074 355.88 493.036 355.69C492.998 355.501 493.036 355.482 493.036 354.515C493.154 352.385 493.027 350.248 492.657 348.147C491.751 342.738 490.336 337.427 488.432 332.284C486.537 326.788 484.244 321.234 481.761 315.738C479.279 310.242 476.607 304.727 473.897 299.23C472.533 296.476 471.124 293.753 469.671 291.062L465.388 283.121L489.152 269.209Z" fill="#FFB573"/>
<path d="M480.302 256.53C461.997 253.744 452.996 269.456 461.618 292.919C466.07 305.611 471.664 317.873 478.332 329.555L517.804 312.251C510.622 289.034 499.025 259.392 480.302 256.53Z" fill="#263238"/>
<path d="M438.309 353.34L429.857 355.88L441.853 372.937C441.853 372.937 459.628 366.569 455.989 358.836L451.517 356.297C447.689 354.079 442.838 351.786 438.309 353.34Z" fill="#FFB573"/>
<path d="M422.371 367.631L430.842 376.084L441.852 372.919L429.856 355.88L422.371 367.631Z" fill="#FFB573"/>
<path d="M440.848 221.354C442.355 221.354 443.577 219.878 443.577 218.057C443.577 216.235 442.355 214.759 440.848 214.759C439.341 214.759 438.119 216.235 438.119 218.057C438.119 219.878 439.341 221.354 440.848 221.354Z" fill="white"/>
<path d="M443.102 226.774L441.529 226.717L440.562 219.117L443.557 218.454L443.102 226.774Z" fill="white"/>
<path d="M453.98 370.037C448.295 370.037 443.255 369.184 440.204 366.417C439.066 365.321 438.18 363.991 437.607 362.518C437.034 361.045 436.789 359.466 436.887 357.889C437.061 350.073 438.278 342.316 440.507 334.823C443.141 324.494 445.225 316.344 438.896 306.281C428.815 290.303 431.828 267.958 438.896 253.952C444.297 243.244 442.402 231.304 441.72 226.907C441.625 226.338 441.549 225.883 441.511 225.58C441.503 225.509 441.51 225.437 441.531 225.368C441.551 225.3 441.586 225.236 441.632 225.181C441.678 225.126 441.735 225.081 441.799 225.049C441.863 225.017 441.932 224.997 442.004 224.993C442.147 224.977 442.29 225.017 442.404 225.106C442.517 225.194 442.591 225.324 442.61 225.467C442.61 225.751 442.705 226.187 442.781 226.736C443.501 231.304 445.377 243.415 439.806 254.445C432.889 268.186 429.933 290.076 439.806 305.617C446.381 316.06 444.145 324.835 441.549 334.994C439.366 342.384 438.174 350.032 438.005 357.737C437.903 359.162 438.113 360.592 438.62 361.928C439.127 363.263 439.92 364.472 440.943 365.47C446.059 370.075 457.353 368.9 468.268 367.763C473.157 367.27 478.217 366.739 482.67 366.739C482.816 366.739 482.956 366.797 483.059 366.9C483.162 367.004 483.22 367.143 483.22 367.289C483.22 367.435 483.162 367.575 483.059 367.678C482.956 367.781 482.816 367.839 482.67 367.839C478.274 367.839 473.195 368.35 468.382 368.862C463.604 369.496 458.797 369.888 453.98 370.037Z" fill="white"/>
<path d="M505.352 365.982H483.787C483.159 365.982 482.65 366.491 482.65 367.119V368.635C482.65 369.263 483.159 369.772 483.787 369.772H505.352C505.98 369.772 506.489 369.263 506.489 368.635V367.119C506.489 366.491 505.98 365.982 505.352 365.982Z" fill="white"/>
<path d="M640.693 382.395H115.25C113.578 382.39 111.976 381.724 110.793 380.541C109.611 379.359 108.944 377.756 108.939 376.084C108.944 374.412 109.611 372.809 110.793 371.627C111.976 370.444 113.578 369.778 115.25 369.773H640.693C642.365 369.778 643.967 370.444 645.149 371.627C646.332 372.809 646.998 374.412 647.003 376.084C646.998 377.756 646.332 379.359 645.149 380.541C643.967 381.724 642.365 382.39 640.693 382.395Z" fill="#1BC89E"/>
<path opacity="0.3" d="M640.693 382.395H517.689C516.017 382.39 514.415 381.724 513.233 380.541C512.05 379.359 511.384 377.756 511.379 376.084C511.384 374.412 512.05 372.809 513.233 371.627C514.415 370.444 516.017 369.778 517.689 369.773H640.693C642.365 369.778 643.967 370.444 645.15 371.627C646.332 372.809 646.998 374.412 647.003 376.084C646.998 377.756 646.332 379.359 645.15 380.541C643.967 381.724 642.365 382.39 640.693 382.395Z" fill="#263238"/>
<path d="M634.895 679.762H647.004L633.076 382.395H616.324L634.895 679.762Z" fill="#263238"/>
<path opacity="0.1" d="M634.895 679.762H647.004L633.076 382.395H616.324L634.895 679.762Z" fill="white"/>
<path d="M523.488 679.762H511.379L525.307 382.395H542.059L523.488 679.762Z" fill="#263238"/>
<path opacity="0.2" d="M523.488 679.762H511.379L525.307 382.395H542.059L523.488 679.762Z" fill="white"/>
<path d="M232.475 679.762H244.565L230.636 382.395H213.885L232.475 679.762Z" fill="#263238"/>
<path opacity="0.1" d="M232.475 679.762H244.565L230.636 382.395H213.885L232.475 679.762Z" fill="white"/>
<path d="M121.048 679.762H108.939L122.868 382.395H139.619L121.048 679.762Z" fill="#263238"/>
<path opacity="0.2" d="M121.048 679.762H108.939L122.868 382.395H139.619L121.048 679.762Z" fill="white"/>
<path d="M530.499 398.22H126.393V423.143H530.499V398.22Z" fill="#263238"/>
<path opacity="0.2" d="M530.499 398.22H126.393V423.143H530.499V398.22Z" fill="white"/>
<path d="M192.887 353.018C192.187 353.018 191.515 353.295 191.018 353.789C190.521 354.282 190.239 354.952 190.234 355.653V367.024C190.234 367.728 190.514 368.403 191.011 368.9C191.509 369.398 192.184 369.677 192.887 369.677H278.825C279.053 369.678 279.272 369.588 279.435 369.429C279.598 369.269 279.692 369.053 279.697 368.825V353.776C279.692 353.548 279.598 353.331 279.435 353.172C279.272 353.013 279.053 352.923 278.825 352.923L192.887 353.018Z" fill="#1BC89E"/>
<path opacity="0.9" d="M243.75 354.611H279.755V368.181H243.75C243.343 368.181 242.952 368.019 242.664 367.731C242.377 367.443 242.215 367.053 242.215 366.646V356.127C242.22 355.723 242.384 355.337 242.671 355.054C242.958 354.77 243.346 354.611 243.75 354.611Z" fill="white"/>
<path d="M237.836 353.019H151.026C149.561 353.019 148.373 354.206 148.373 355.672V367.138C148.373 368.604 149.561 369.792 151.026 369.792H237.836C239.301 369.792 240.489 368.604 240.489 367.138V355.672C240.489 354.206 239.301 353.019 237.836 353.019Z" fill="#1BC89E"/>
<path opacity="0.2" d="M237.836 353.019H151.026C149.561 353.019 148.373 354.206 148.373 355.672V367.138C148.373 368.604 149.561 369.792 151.026 369.792H237.836C239.301 369.792 240.489 368.604 240.489 367.138V355.672C240.489 354.206 239.301 353.019 237.836 353.019Z" fill="black"/>
<path opacity="0.5" d="M195.143 353.019H181.973C181.376 353.019 180.893 353.502 180.893 354.099V368.711C180.893 369.308 181.376 369.792 181.973 369.792H195.143C195.74 369.792 196.223 369.308 196.223 368.711V354.099C196.223 353.502 195.74 353.019 195.143 353.019Z" fill="#1BC89E"/>
<path opacity="0.5" d="M214.149 353.019H200.998C200.402 353.019 199.918 353.502 199.918 354.099V368.711C199.918 369.308 200.402 369.792 200.998 369.792H214.149C214.746 369.792 215.229 369.308 215.229 368.711V354.099C215.229 353.502 214.746 353.019 214.149 353.019Z" fill="#1BC89E"/>
<path d="M177.348 332.36C177 332.36 176.655 332.429 176.333 332.562C176.011 332.696 175.719 332.891 175.472 333.138C175.226 333.384 175.031 333.676 174.897 333.998C174.764 334.32 174.695 334.665 174.695 335.014V350.365C174.695 350.714 174.764 351.059 174.897 351.381C175.031 351.703 175.226 351.995 175.472 352.242C175.719 352.488 176.011 352.683 176.333 352.817C176.655 352.95 177 353.019 177.348 353.019H270.449C270.677 353.014 270.894 352.92 271.053 352.757C271.213 352.594 271.302 352.375 271.302 352.147V333.194C271.302 332.966 271.213 332.747 271.053 332.584C270.894 332.421 270.677 332.327 270.449 332.323L177.348 332.36Z" fill="#1BC89E"/>
<path opacity="0.9" d="M228.268 333.971H271.36V351.426H228.268C227.861 351.426 227.47 351.264 227.182 350.976C226.895 350.689 226.733 350.298 226.733 349.891V335.544C226.728 335.339 226.764 335.135 226.839 334.945C226.914 334.754 227.026 334.58 227.169 334.434C227.312 334.287 227.483 334.171 227.672 334.091C227.86 334.012 228.063 333.971 228.268 333.971Z" fill="white"/>
<path d="M222.279 332.36H149.284C147.819 332.36 146.631 333.548 146.631 335.013V350.346C146.631 351.811 147.819 352.999 149.284 352.999H222.279C223.744 352.999 224.932 351.811 224.932 350.346V335.013C224.932 333.548 223.744 332.36 222.279 332.36Z" fill="#1BC89E"/>
<path opacity="0.2" d="M222.279 332.36H149.284C147.819 332.36 146.631 333.548 146.631 335.013V350.346C146.631 351.811 147.819 352.999 149.284 352.999H222.279C223.744 352.999 224.932 351.811 224.932 350.346V335.013C224.932 333.548 223.744 332.36 222.279 332.36Z" fill="white"/>
<path opacity="0.6" d="M215.438 336.454H161.98C161.09 336.454 160.369 337.175 160.369 338.065V347.295C160.369 348.185 161.09 348.906 161.98 348.906H215.438C216.327 348.906 217.048 348.185 217.048 347.295V338.065C217.048 337.175 216.327 336.454 215.438 336.454Z" fill="#1BC89E"/>
<path d="M204.655 322.486C203.196 322.486 202.002 323.187 202.002 324.04V330.806C202.002 331.659 203.196 332.36 204.655 332.36H290.612C291.085 332.36 291.464 332.133 291.464 331.867V322.997C291.464 322.713 291.085 322.486 290.612 322.486H204.655Z" fill="#1BC89E"/>
<path opacity="0.9" d="M255.175 323.415H291.464V331.413H255.175C254.863 331.413 254.564 331.289 254.344 331.068C254.124 330.848 254 330.549 254 330.237V324.552C254.01 324.247 254.138 323.957 254.357 323.745C254.576 323.533 254.87 323.414 255.175 323.415Z" fill="white"/>
<path d="M250.23 322.486H162.17C161.05 322.486 160.143 323.394 160.143 324.514V330.351C160.143 331.471 161.05 332.379 162.17 332.379H250.23C251.35 332.379 252.258 331.471 252.258 330.351V324.514C252.258 323.394 251.35 322.486 250.23 322.486Z" fill="#1BC89E"/>
<path opacity="0.2" d="M250.23 322.486H162.17C161.05 322.486 160.143 323.394 160.143 324.514V330.351C160.143 331.471 161.05 332.379 162.17 332.379H250.23C251.35 332.379 252.258 331.471 252.258 330.351V324.514C252.258 323.394 251.35 322.486 250.23 322.486Z" fill="black"/>
<path opacity="0.5" d="M173.236 322.486H170.488C170.268 322.486 170.09 322.664 170.09 322.884V331.981C170.09 332.201 170.268 332.379 170.488 332.379H173.236C173.455 332.379 173.633 332.201 173.633 331.981V322.884C173.633 322.664 173.455 322.486 173.236 322.486Z" fill="#1BC89E"/>
<path opacity="0.5" d="M244.716 322.486H242.025C241.805 322.486 241.627 322.664 241.627 322.884V331.981C241.627 332.201 241.805 332.379 242.025 332.379H244.716C244.936 332.379 245.114 332.201 245.114 331.981V322.884C245.114 322.664 244.936 322.486 244.716 322.486Z" fill="#1BC89E"/>
<path d="M189.116 308.195C187.657 308.195 186.463 308.897 186.463 309.749V320.913C186.463 321.784 187.657 322.486 189.116 322.486H282.217C282.691 322.486 283.088 322.258 283.088 321.974V308.707C283.088 308.423 282.691 308.195 282.217 308.195H189.116Z" fill="#1BC89E"/>
<path opacity="0.9" d="M239.636 309.124H283.088V321.538H239.636C239.324 321.538 239.025 321.414 238.805 321.194C238.585 320.974 238.461 320.675 238.461 320.363V310.299C238.461 309.988 238.585 309.689 238.805 309.468C239.025 309.248 239.324 309.124 239.636 309.124Z" fill="white"/>
<path d="M234.672 308.195H160.426C159.306 308.195 158.398 309.103 158.398 310.223V320.458C158.398 321.578 159.306 322.486 160.426 322.486H234.672C235.792 322.486 236.699 321.578 236.699 320.458V310.223C236.699 309.103 235.792 308.195 234.672 308.195Z" fill="#1BC89E"/>
<path opacity="0.1" d="M234.672 308.195H160.426C159.306 308.195 158.398 309.103 158.398 310.223V320.458C158.398 321.578 159.306 322.486 160.426 322.486H234.672C235.792 322.486 236.699 321.578 236.699 320.458V310.223C236.699 309.103 235.792 308.195 234.672 308.195Z" fill="black"/>
<path d="M396.771 366.626H318.564C318.146 366.626 317.744 366.792 317.446 367.086C317.148 367.381 316.978 367.781 316.973 368.2C316.978 368.618 317.148 369.019 317.446 369.313C317.744 369.608 318.146 369.773 318.564 369.773H396.771C397.188 369.773 397.588 369.607 397.883 369.312C398.178 369.017 398.344 368.617 398.344 368.2C398.344 367.782 398.178 367.382 397.883 367.087C397.588 366.792 397.188 366.626 396.771 366.626Z" fill="white"/>
<path d="M549.772 362.873H601.164L605.807 369.602H545.129L549.772 362.873Z" fill="#263238"/>
<path d="M629.134 248.04C629.134 249.408 628.729 250.746 627.969 251.883C627.208 253.021 626.128 253.908 624.864 254.431C623.601 254.955 622.21 255.092 620.868 254.825C619.526 254.558 618.294 253.899 617.327 252.932C616.359 251.964 615.701 250.732 615.434 249.39C615.167 248.048 615.304 246.657 615.827 245.393C616.351 244.129 617.237 243.048 618.375 242.288C619.512 241.528 620.85 241.122 622.218 241.122C623.127 241.12 624.027 241.297 624.867 241.644C625.708 241.991 626.471 242.5 627.114 243.143C627.757 243.786 628.266 244.549 628.613 245.39C628.96 246.23 629.137 247.131 629.134 248.04Z" fill="black"/>
<path d="M577.172 367.422C576.812 367.421 576.458 367.331 576.14 367.161C575.823 366.991 575.552 366.745 575.351 366.446C575.151 366.146 575.028 365.802 574.991 365.443C574.955 365.085 575.008 364.723 575.145 364.39L624.661 247.187C624.916 246.697 625.347 246.322 625.866 246.135C626.386 245.948 626.957 245.964 627.465 246.179C627.974 246.394 628.383 246.792 628.611 247.295C628.839 247.798 628.87 248.368 628.697 248.892L579.181 366.076C579.014 366.472 578.735 366.811 578.378 367.05C578.021 367.289 577.602 367.419 577.172 367.422Z" fill="#263238"/>
<path d="M626.671 250.257C626.2 250.252 625.743 250.1 625.363 249.821L535.446 182.369C534.984 182.022 534.678 181.506 534.596 180.934C534.514 180.361 534.663 179.78 535.01 179.318C535.357 178.855 535.873 178.549 536.445 178.468C537.017 178.386 537.599 178.535 538.061 178.882L627.997 246.296C628.361 246.575 628.628 246.961 628.761 247.399C628.895 247.838 628.888 248.307 628.742 248.741C628.596 249.175 628.318 249.553 627.946 249.822C627.575 250.09 627.129 250.236 626.671 250.238V250.257Z" fill="#263238"/>
<path d="M633.585 248.04C633.585 249.408 633.18 250.746 632.42 251.883C631.66 253.021 630.579 253.908 629.316 254.431C628.052 254.955 626.661 255.092 625.319 254.825C623.978 254.558 622.745 253.899 621.778 252.932C620.811 251.964 620.152 250.732 619.885 249.39C619.618 248.048 619.755 246.657 620.278 245.393C620.802 244.129 621.688 243.048 622.826 242.288C623.963 241.528 625.301 241.122 626.669 241.122C627.578 241.12 628.478 241.297 629.319 241.644C630.159 241.991 630.922 242.5 631.565 243.143C632.208 243.786 632.717 244.549 633.064 245.39C633.411 246.23 633.588 247.131 633.585 248.04Z" fill="#263238"/>
<path d="M536.753 187.524C540.563 187.524 543.651 184.435 543.651 180.625C543.651 176.815 540.563 173.726 536.753 173.726C532.944 173.726 529.855 176.815 529.855 180.625C529.855 184.435 532.944 187.524 536.753 187.524Z" fill="#263238"/>
<path d="M527.089 212.163C524.926 214.326 522.171 215.799 519.171 216.395C516.172 216.992 513.063 216.686 510.237 215.515C507.412 214.345 504.997 212.362 503.297 209.819C501.598 207.276 500.691 204.286 500.691 201.227C500.691 198.168 501.598 195.178 503.297 192.635C504.997 190.092 507.412 188.109 510.237 186.939C513.063 185.768 516.172 185.462 519.171 186.059C522.171 186.656 524.926 188.129 527.089 190.291C529.984 193.194 531.61 197.127 531.61 201.227C531.61 205.327 529.984 209.26 527.089 212.163Z" fill="#1BC89E"/>
<path opacity="0.7" d="M527.089 212.163C524.926 214.326 522.171 215.799 519.171 216.395C516.172 216.992 513.063 216.686 510.237 215.515C507.412 214.345 504.997 212.362 503.297 209.819C501.598 207.276 500.691 204.286 500.691 201.227C500.691 198.168 501.598 195.178 503.297 192.635C504.997 190.092 507.412 188.109 510.237 186.939C513.063 185.768 516.172 185.462 519.171 186.059C522.171 186.656 524.926 188.129 527.089 190.291C529.984 193.194 531.61 197.127 531.61 201.227C531.61 205.327 529.984 209.26 527.089 212.163Z" fill="white"/>
<path d="M536.752 180.625C533.678 177.547 530.027 175.105 526.008 173.438C521.989 171.772 517.681 170.915 513.33 170.915C508.98 170.915 504.672 171.772 500.653 173.438C496.634 175.105 492.983 177.547 489.908 180.625L536.752 227.514C539.834 224.437 542.278 220.783 543.946 216.76C545.614 212.737 546.473 208.425 546.473 204.07C546.473 199.715 545.614 195.402 543.946 191.38C542.278 187.357 539.834 183.702 536.752 180.625Z" fill="#263238"/>
<g opacity="0.2">
<path opacity="0.2" d="M489.89 180.625L293.152 369.773H494.988L536.753 227.495L489.89 180.625Z" fill="#1BC89E"/>
<path opacity="0.7" d="M489.89 180.625L293.152 369.773H494.988L536.753 227.495L489.89 180.625Z" fill="white"/>
</g>
</g>
<defs>
<clipPath id="clip0_133_2585">
<rect width="732" height="715" fill="white"/>
</clipPath>
</defs>
</svg>
