<svg width="524" height="566" viewBox="0 0 524 566" fill="none" xmlns="http://www.w3.org/2000/svg">
<g clip-path="url(#clip0_133_1714)">
<path d="M14.062 264.341C36.0942 284.159 69.4662 288.994 97.5295 279.479C125.593 269.964 148.233 247.59 161.473 221.129C170.937 202.243 176.006 180.524 171.97 159.783C167.933 139.041 153.638 119.678 133.559 112.985C125.974 110.454 117.356 109.84 110.198 113.389C98.7808 119.053 94.6223 132.938 91.6318 145.326C88.6414 157.714 84.5279 171.601 73.1306 177.312C64.3742 181.703 53.9297 179.838 44.1661 180.737C27.5583 182.264 12.0711 192.699 4.4387 207.492C3.37893 209.544 2.47303 211.671 1.72844 213.857C-4.09292 230.835 0.318995 249.665 12.6099 262.778L14.062 264.341Z" fill="white"/>
<path d="M144.65 549.219C195.022 549.219 235.856 525.622 235.856 496.514C235.856 467.406 195.022 443.81 144.65 443.81C94.2792 443.81 53.4453 467.406 53.4453 496.514C53.4453 525.622 94.2792 549.219 144.65 549.219Z" fill="#F5F5F5"/>
<path d="M280.867 459.062L263.641 452.01C261.476 437.106 260.229 422.083 259.904 407.026C259.904 378.855 277.439 344.405 299.688 350.17C321.936 355.934 293.414 387.451 288.786 411.796C284.158 436.141 280.867 459.062 280.867 459.062Z" fill="#1BC89E"/>
<path opacity="0.3" d="M280.867 459.062L263.641 452.01C261.476 437.106 260.229 422.083 259.904 407.026C259.904 378.855 277.439 344.405 299.688 350.17C321.936 355.934 293.414 387.451 288.786 411.796C284.158 436.141 280.867 459.062 280.867 459.062Z" fill="black"/>
<path d="M272.519 456.883C272.708 456.857 272.878 456.758 272.994 456.607C273.11 456.456 273.161 456.265 273.136 456.076C264.926 394.313 292.677 360 292.951 359.709C293.074 359.561 293.133 359.37 293.115 359.179C293.097 358.987 293.005 358.811 292.857 358.688C292.709 358.565 292.519 358.506 292.327 358.524C292.136 358.541 291.96 358.634 291.837 358.782C291.563 359.125 263.401 393.85 271.697 456.265C271.709 456.36 271.741 456.452 271.789 456.535C271.837 456.617 271.902 456.689 271.978 456.747C272.055 456.805 272.142 456.846 272.235 456.87C272.328 456.893 272.425 456.897 272.519 456.883Z" fill="white"/>
<path d="M289.713 463.179L280.714 459.096C278.019 445.219 278.429 430.917 281.914 417.217C287.69 395.017 306.922 381.326 316.606 383.59C328.45 386.353 329.599 397.316 326.136 404.95C322.006 413.992 293.518 438.474 289.713 463.179Z" fill="#1BC89E"/>
<path opacity="0.1" d="M289.713 463.179L280.714 459.096C278.019 445.219 278.429 430.917 281.914 417.217C287.69 395.017 306.922 381.326 316.606 383.59C328.45 386.353 329.599 397.316 326.136 404.95C322.006 413.992 293.518 438.474 289.713 463.179Z" fill="black"/>
<path d="M285.032 461.755C285.225 461.734 285.402 461.637 285.523 461.486C285.645 461.335 285.703 461.142 285.684 460.949C281.639 421.764 315.8 391.637 316.16 391.345C316.29 391.205 316.362 391.022 316.362 390.83C316.362 390.639 316.29 390.456 316.16 390.316C316.093 390.247 316.013 390.193 315.924 390.156C315.836 390.119 315.741 390.1 315.646 390.1C315.55 390.1 315.455 390.119 315.367 390.156C315.278 390.193 315.198 390.247 315.131 390.316C314.771 390.625 280.062 421.197 284.158 461.172C284.2 461.364 284.314 461.532 284.477 461.641C284.64 461.75 284.84 461.791 285.032 461.755Z" fill="white"/>
<path d="M189.731 485.637L173.756 483.801L169.625 451.581L189.148 457.38L189.731 485.637Z" fill="#985952"/>
<path d="M154.729 511.921C154.499 512.555 154.404 513.232 154.451 513.906C154.499 514.58 154.687 515.236 155.004 515.832C156.718 517.822 161.14 520.156 167.174 520.585C172.95 520.996 178.092 520.224 181.469 518.08C182.937 517.32 184.194 516.208 185.127 514.843C186.061 513.477 186.641 511.901 186.817 510.256C187.142 506.98 186.817 503.806 188.342 501.284C189.868 498.762 192.079 496.308 192.576 495.039C193.169 492.848 193.169 490.538 192.576 488.348L154.729 511.921Z" fill="#263238"/>
<path d="M170.515 483.235C170.464 484.478 170.239 485.709 169.847 486.889C168.963 489.43 167.778 491.855 166.316 494.112C165.598 495.311 164.796 496.458 163.916 497.544C162.202 499.62 160.008 501.335 158.157 503.325C156.193 505.202 154.934 507.698 154.592 510.394C154.352 514.923 161.551 516.467 165.339 517.136C169.425 517.851 173.618 517.64 177.612 516.519C179.709 515.972 181.603 514.831 183.069 513.234C184.534 511.636 185.508 509.649 185.873 507.512C186.096 506.242 186.011 504.955 186.165 503.703C186.664 500.811 187.871 498.087 189.679 495.777C190.729 494.443 191.631 492.999 192.37 491.47C193.552 488.674 192.61 485.517 191.855 482.738C191.204 480.319 190.416 477.591 189.559 477.779C189.559 479.032 189.559 479.203 188.719 480.044C187.879 480.885 187.553 482.738 186.353 483.681C186.736 482.636 187.017 481.555 187.193 480.456C187.268 480.015 187.176 479.563 186.936 479.186C186.538 478.83 186.063 478.571 185.548 478.431C183.765 477.834 181.928 477.415 180.063 477.179C177.517 476.887 174.947 476.887 172.401 477.179C171.871 477.274 171.391 477.553 171.047 477.968C170.738 478.424 170.571 478.961 170.567 479.512C170.481 480.164 170.55 482.034 170.515 483.235Z" fill="#455A64"/>
<path d="M165.699 495.073C167.413 493.804 173.464 493.786 175.521 494.009C177.617 494.189 179.634 494.897 181.383 496.068C181.639 496.251 181.952 496.337 182.265 496.312C182.579 496.287 182.873 496.152 183.097 495.931C183.227 495.802 183.327 495.647 183.392 495.476C183.456 495.304 183.483 495.121 183.469 494.939C183.456 494.756 183.404 494.579 183.316 494.418C183.228 494.258 183.107 494.118 182.96 494.009C181.039 492.59 178.758 491.74 176.378 491.556C173.409 491.338 170.423 491.511 167.499 492.071C167.499 492.071 165.202 493.563 165.699 495.073Z" fill="#F5F5F5"/>
<path d="M161.826 499.774C163.952 498.521 170.397 498.693 172.471 498.916C174.526 499.127 176.49 499.879 178.161 501.095C178.419 501.274 178.73 501.359 179.043 501.334C179.355 501.309 179.65 501.176 179.875 500.958C180.005 500.829 180.106 500.674 180.17 500.502C180.234 500.331 180.261 500.148 180.248 499.965C180.235 499.783 180.182 499.605 180.094 499.445C180.006 499.285 179.885 499.145 179.738 499.036C176.927 497.578 173.859 496.681 170.705 496.394C165.563 496.034 164.312 497.063 164.312 497.063C163.722 497.301 163.192 497.668 162.762 498.137C162.332 498.606 162.012 499.165 161.826 499.774Z" fill="#F5F5F5"/>
<path d="M178.4 486.701C175.501 486.369 172.565 486.549 169.727 487.232C168.836 487.73 168.236 489.154 168.819 489.514C171.409 488.815 174.096 488.548 176.772 488.725C178.672 488.916 180.527 489.426 182.257 490.235C182.703 490.441 183.217 490.698 183.663 490.955C183.806 491.047 183.967 491.106 184.135 491.129C184.303 491.153 184.475 491.139 184.637 491.091C184.8 491.042 184.95 490.958 185.078 490.846C185.205 490.734 185.307 490.596 185.377 490.441C185.499 490.188 185.522 489.898 185.443 489.629C185.364 489.359 185.188 489.129 184.948 488.982C182.953 487.763 180.721 486.985 178.4 486.701Z" fill="#F5F5F5"/>
<path d="M130.167 470.985L114.98 466.748V436.021L133.818 436.844L130.167 470.985Z" fill="#985952"/>
<path d="M82.8932 487.438C82.465 488.763 82.5444 490.2 83.116 491.47C83.6817 492.637 89.8352 496.12 98.1312 495.553C104.276 495.112 110.193 493.04 115.272 489.549C118.426 487.456 121.717 487.061 125.83 486.838C129.944 486.615 135.326 484.539 136.235 482.617C136.697 480.897 136.65 479.079 136.098 477.385L82.8932 487.438Z" fill="#263238"/>
<path d="M116.319 461.532L115.667 461.395C115.307 461.31 114.931 461.31 114.57 461.395C114.172 461.526 113.816 461.763 113.542 462.081C112.732 463.125 112.026 464.246 111.433 465.427C109.719 468.258 106.034 470.574 102.058 472.753C99.3493 474.211 96.6926 475.343 93.8986 476.596C91.1047 477.848 87.248 478.672 85.0198 480.181C81.7631 482.377 81.3345 487.885 85.0198 490.063C88.2079 491.951 96.6411 493.992 105.469 491.487C110.268 490.115 115.616 484.985 121.924 484.488C125.934 484.162 133.528 483.046 136.116 479.993C137.076 478.637 135.79 474.348 134.745 470.642C133.596 466.593 132.516 460.348 131.179 460.64C131.191 460.93 131.133 461.218 131.011 461.48C130.889 461.743 130.706 461.972 130.477 462.15C129.98 462.665 129.311 462.991 128.763 463.454C127.827 464.375 127.071 465.463 126.534 466.662C126.316 467.196 125.915 467.634 125.403 467.897C124.717 468.138 124.22 467.726 123.689 467.451C122.936 467.106 122.084 467.045 121.289 467.28C121.372 466.475 121.516 465.678 121.718 464.895C121.794 464.649 121.794 464.386 121.718 464.14C121.621 463.891 121.438 463.684 121.204 463.557C119.735 462.547 118.07 461.858 116.319 461.532Z" fill="#455A64"/>
<path d="M105.861 470.505C106.148 469.95 106.57 469.476 107.089 469.129C107.607 468.781 108.205 468.57 108.827 468.515C110.644 468.172 113.866 469.527 115.871 471.174C116.063 471.327 116.213 471.525 116.31 471.75C116.407 471.975 116.447 472.22 116.427 472.464C116.407 472.708 116.326 472.944 116.194 473.15C116.061 473.356 115.88 473.526 115.666 473.645C115.396 473.797 115.086 473.861 114.778 473.827C114.471 473.793 114.181 473.664 113.952 473.456C111.739 471.459 108.838 470.401 105.861 470.505Z" fill="#F5F5F5"/>
<path d="M100.188 473.679C100.585 473.117 101.112 472.658 101.723 472.341C102.335 472.025 103.013 471.86 103.701 471.86C106.52 471.984 109.226 472.999 111.432 474.76C111.612 474.91 111.754 475.102 111.844 475.319C111.935 475.536 111.971 475.772 111.951 476.006C111.931 476.24 111.854 476.466 111.728 476.664C111.602 476.863 111.43 477.027 111.226 477.145C110.959 477.305 110.647 477.374 110.337 477.34C110.028 477.306 109.738 477.171 109.512 476.956C108.299 475.749 106.833 474.829 105.22 474.262C103.607 473.695 101.887 473.496 100.188 473.679Z" fill="#F5F5F5"/>
<path d="M94.0352 476.527C94.4876 476.009 95.0466 475.595 95.6738 475.314C96.3011 475.033 96.9817 474.89 97.669 474.897C100.382 475.064 102.974 476.085 105.074 477.814C105.254 477.966 105.396 478.159 105.486 478.377C105.576 478.596 105.613 478.833 105.593 479.068C105.572 479.303 105.496 479.53 105.37 479.73C105.244 479.93 105.072 480.096 104.868 480.216C104.601 480.376 104.289 480.445 103.979 480.411C103.67 480.377 103.38 480.242 103.154 480.027C102.008 478.777 100.588 477.811 99.0059 477.203C97.4236 476.596 95.722 476.364 94.0352 476.527Z" fill="#F5F5F5"/>
<path d="M186.234 270.512C187.279 302.2 187.348 370.826 187.348 370.826C187.674 374.772 188.016 381.772 188.308 395.977C188.736 416.565 189.73 467.4 189.73 467.4C189.73 467.4 179.909 472.015 170.876 468.258C170.876 468.258 158.329 396.784 155.758 376.402C153.512 358.611 149.21 316.886 149.21 316.886L143.279 369.848C143.279 369.848 143.279 383.573 142.474 395.686C141.805 405.122 132.652 453.726 132.652 453.726C126.674 455.316 120.36 455.107 114.5 453.126C114.5 453.126 113.678 378.512 113.506 369.848C113.318 360 115.854 253.527 115.854 253.527L186.234 270.512Z" fill="#455A64"/>
<path d="M149.244 316.886L146.981 298.923C139.675 297.054 132.765 293.88 126.584 289.556C126.584 289.556 130.938 295.389 143.725 301.565L146.604 317.864L143.347 369.848L149.244 316.886Z" fill="#37474F"/>
<path d="M115.049 181.59C110.421 187.664 86.613 220.364 86.613 220.364L64.6216 203.31C59.4794 199.279 57.9539 193.994 54.7315 190.34C51.5091 186.686 47.9781 185.811 44.3614 182.757C40.7447 179.703 39.3564 177.387 38.1223 179.995C36.8881 182.603 40.8819 187.149 41.5504 188.247C42.2189 189.345 46.3497 191.97 40.899 191.678C35.4483 191.387 24.9583 185.159 22.4215 184.009C19.8847 182.86 19.8161 186 21.0159 188.058C22.2158 190.117 21.6159 195.847 23.0214 199.536C24.4269 203.225 26.8952 205.489 31.9174 207.977C36.5968 210.31 47.9781 211.769 51.6805 214.102C59.8051 222.44 75.1288 238.001 79.0026 240.883C84.3333 244.846 89.4926 248.501 97.6515 240.643C105.81 232.785 129.447 201.955 129.447 201.955L134.332 172.635C126.311 172.343 120.637 174.265 115.049 181.59Z" fill="#985952"/>
<path d="M86.6133 220.364C89.63 222.594 92.7667 227.604 93.0581 229.851C93.0228 227.722 92.5478 225.623 91.6628 223.686C90.7779 221.749 89.5022 220.016 87.9159 218.597L86.6133 220.364Z" fill="#84463F"/>
<path d="M136.217 171.914C136.217 171.914 124.904 171.777 119.934 175.26C114.963 178.742 111.278 183.838 103.204 195.59C96.1254 205.884 92.6973 210.825 92.6973 210.825C97.3313 217.686 104.079 222.843 111.912 225.511L133.029 199.33L136.217 171.914Z" fill="#37474F"/>
<path d="M158.107 171.365C164.517 171.983 173.533 172.051 179.875 172.703C184.28 174.522 192.782 181.934 192.148 187.218C189.783 206.965 185 239.339 185 239.339L186.577 273.652C177.75 282.47 136.441 285.919 115.152 271.816C115.152 271.816 115.838 210.19 117.312 199.759C119.935 181.076 122.231 174.144 131.864 172.497C141.497 170.85 158.107 171.365 158.107 171.365Z" fill="#1BC89E"/>
<path d="M194.411 182.088C199.039 188.161 222.864 220.862 222.864 220.862L244.873 203.808C250.015 199.759 251.541 194.475 254.763 190.838C257.986 187.201 261.517 186.308 265.133 183.255C268.75 180.201 270.138 177.885 271.372 180.475C272.606 183.066 268.613 187.647 267.944 188.745C267.276 189.843 263.145 192.468 268.596 192.176C274.046 191.884 284.519 185.639 287.073 184.49C289.627 183.34 289.661 186.48 288.479 188.539C287.296 190.598 287.862 196.345 286.473 200.034C285.085 203.722 282.599 205.97 277.577 208.475C272.898 210.808 261.516 212.266 257.814 214.599C249.689 222.92 234.366 238.498 230.492 241.364C225.161 245.327 220.002 248.981 211.843 241.14C203.684 233.3 185.035 208.886 185.035 208.886L175.162 173.132C183.167 172.841 188.84 174.762 194.411 182.088Z" fill="#985952"/>
<path d="M222.863 220.862C219.846 223.092 216.709 228.102 216.418 230.349C216.451 228.217 216.925 226.114 217.81 224.174C218.695 222.234 219.972 220.499 221.56 219.077L222.863 220.862Z" fill="#84463F"/>
<path d="M174.03 172.274C174.03 172.274 184.194 171.64 189.542 175.706C194.358 179.411 198.112 184.284 206.271 196.036C213.35 206.33 216.778 211.271 216.778 211.271C212.134 218.13 205.382 223.286 197.547 225.957L183.165 208.217C175.675 198.712 168.253 184.25 174.03 172.274Z" fill="#37474F"/>
<path d="M159.701 124.905C159.735 128.841 158.602 132.699 156.445 135.99C154.289 139.282 151.205 141.859 147.585 143.397C143.965 144.934 139.971 145.363 136.108 144.628C132.244 143.893 128.685 142.029 125.881 139.27C123.076 136.51 121.152 132.981 120.352 129.127C119.551 125.274 119.911 121.269 121.384 117.619C122.857 113.97 125.379 110.84 128.63 108.625C131.88 106.41 135.714 105.21 139.647 105.176C142.258 105.153 144.848 105.645 147.269 106.625C149.69 107.604 151.894 109.051 153.756 110.883C155.619 112.715 157.102 114.896 158.122 117.302C159.142 119.708 159.679 122.292 159.701 124.905Z" fill="#263238"/>
<path d="M174.321 138.939C174.321 138.939 171.219 154.123 169.951 156.611C169.106 158.155 167.701 159.316 166.025 159.853L166.145 149.182L174.321 138.939Z" fill="#263238"/>
<path d="M170.088 117.271C171.212 117.126 172.354 117.242 173.426 117.607C174.499 117.973 175.474 118.58 176.276 119.381C178.95 122.075 177.544 130.584 174.322 138.939L168.254 139.694L170.088 117.271Z" fill="#263238"/>
<path d="M166.437 139.712C167.654 140.432 169.368 137.996 170.859 136.486C172.351 134.976 177.218 132.712 179.721 137.841C182.224 142.971 177.664 150.057 173.825 151.292C167.191 153.454 166.146 149.182 166.146 149.182L165.871 173.921C157.712 184.61 134.761 183.907 144.223 172.755V165.446C141.268 165.942 138.268 166.12 135.275 165.978C130.373 165.275 127.271 161.432 125.728 156.147C123.277 147.672 122.3 140.81 124.185 124.048C126.242 105.69 147.548 105.313 159.118 112.467C170.688 119.621 166.437 139.712 166.437 139.712Z" fill="#985952"/>
<path d="M166.453 141.753C167.053 141.753 169.35 137.876 170.859 136.486C172.933 134.547 170.087 117.271 170.087 117.271C170.799 115.738 171.033 114.025 170.758 112.357C170.483 110.689 169.711 109.143 168.545 107.921C165.648 104.781 161.603 100.955 148.576 102.602C139.268 103.786 129.173 106.788 120.962 102.842C120.231 105.518 120.314 108.35 121.199 110.978C122.085 113.607 123.733 115.911 125.933 117.597C125.933 117.597 128.916 119.484 136.715 120.359C143.905 120.833 151.124 120.631 158.277 119.759C160.54 119.433 161.037 121.611 162.305 127.599C163.42 132.832 164.397 141.736 166.453 141.753Z" fill="#263238"/>
<path d="M170.088 118.609L177.407 114.594C177.169 114.099 176.833 113.657 176.419 113.295C176.005 112.934 175.522 112.66 174.999 112.492C174.477 112.323 173.925 112.263 173.378 112.315C172.831 112.367 172.301 112.529 171.819 112.793C170.838 113.353 170.111 114.27 169.788 115.354C169.466 116.437 169.573 117.603 170.088 118.609Z" fill="#263238"/>
<path d="M144.172 165.446C144.172 165.446 155.073 163.147 158.861 161.088C161.095 159.9 162.917 158.064 164.089 155.821C163.536 158.056 162.539 160.157 161.158 161.998C158.399 165.601 144.206 168.346 144.206 168.346L144.172 165.446Z" fill="#84463F"/>
<path d="M143.297 137.962C143.293 138.254 143.346 138.544 143.454 138.815C143.562 139.086 143.723 139.334 143.927 139.543C144.13 139.752 144.374 139.918 144.642 140.032C144.911 140.147 145.199 140.207 145.491 140.209C145.947 140.226 146.397 140.106 146.784 139.864C147.171 139.623 147.476 139.271 147.661 138.853C147.846 138.436 147.901 137.973 147.82 137.524C147.739 137.075 147.526 136.661 147.207 136.334C146.889 136.008 146.48 135.784 146.033 135.693C145.586 135.602 145.122 135.647 144.701 135.822C144.28 135.997 143.922 136.295 143.671 136.676C143.421 137.057 143.291 137.505 143.297 137.962Z" fill="#263238"/>
<path d="M149.793 130.43L144.925 128.217C144.642 128.883 144.627 129.633 144.882 130.31C145.138 130.988 145.644 131.541 146.296 131.854C146.618 131.997 146.966 132.073 147.318 132.078C147.671 132.084 148.02 132.018 148.347 131.885C148.673 131.752 148.969 131.555 149.218 131.305C149.466 131.055 149.662 130.757 149.793 130.43Z" fill="#263238"/>
<path d="M128.968 127.736L124.734 131.065C124.934 131.353 125.192 131.597 125.49 131.782C125.789 131.967 126.122 132.088 126.47 132.138C126.817 132.188 127.171 132.165 127.51 132.072C127.848 131.979 128.164 131.817 128.437 131.596C128.999 131.141 129.367 130.489 129.465 129.772C129.564 129.055 129.386 128.327 128.968 127.736Z" fill="#263238"/>
<path d="M126.413 137.43C126.433 137.839 126.573 138.234 126.816 138.565C127.058 138.896 127.392 139.148 127.777 139.29C128.161 139.432 128.579 139.458 128.978 139.365C129.377 139.271 129.74 139.063 130.021 138.765C130.303 138.466 130.491 138.092 130.562 137.688C130.632 137.284 130.583 136.868 130.419 136.492C130.256 136.116 129.986 135.796 129.642 135.572C129.299 135.349 128.897 135.231 128.487 135.234C128.207 135.24 127.93 135.303 127.674 135.417C127.417 135.531 127.186 135.695 126.993 135.899C126.8 136.103 126.65 136.344 126.55 136.606C126.451 136.869 126.404 137.149 126.413 137.43Z" fill="#263238"/>
<path d="M137.761 135.663L136.526 148.787L129.756 146.179L137.761 135.663Z" fill="#84463F"/>
<path d="M141.481 153.711C141.477 154.129 141.598 154.539 141.828 154.888C142.057 155.238 142.385 155.511 142.77 155.673C143.155 155.835 143.579 155.88 143.99 155.8C144.4 155.721 144.777 155.521 145.073 155.227C145.37 154.932 145.572 154.556 145.655 154.146C145.738 153.737 145.697 153.311 145.538 152.925C145.379 152.538 145.109 152.208 144.762 151.975C144.415 151.742 144.007 151.618 143.589 151.618C143.033 151.618 142.499 151.838 142.104 152.23C141.709 152.622 141.485 153.154 141.481 153.711Z" fill="#84463F"/>
<path d="M194.994 13.9375C198.262 14.6661 201.413 15.85 204.353 17.4546C207.164 18.9694 209.683 20.9737 211.792 23.3736C213.82 25.6987 215.318 28.4388 216.18 31.4028C217.081 34.5447 217.152 37.8672 216.385 41.0448C215.878 43.5671 214.876 45.9637 213.437 48.0961C212.145 49.9307 210.591 51.5664 208.826 52.9513C207.099 54.2931 205.258 55.4814 203.324 56.5027L197.874 59.385C196.229 60.2444 194.668 61.2553 193.211 62.4045C191.895 63.4042 190.885 64.7535 190.297 66.299C190.002 66.9881 189.521 67.5819 188.909 68.0147C188.615 68.2394 188.275 68.3947 187.913 68.469C187.55 68.5432 187.176 68.5346 186.818 68.4436L178.796 66.728C178.411 66.6467 178.046 66.4895 177.722 66.2657C177.399 66.0418 177.123 65.7557 176.911 65.4241C176.686 65.1135 176.538 64.7543 176.479 64.3757C176.419 63.9971 176.45 63.6098 176.568 63.2452C177.236 60.7494 178.402 58.4149 179.996 56.3826C181.432 54.589 183.091 52.9862 184.932 51.6131C186.711 50.3105 188.598 49.1625 190.572 48.1818C192.526 47.2039 194.343 46.2603 196.022 45.3339C197.558 44.5217 199.001 43.5437 200.325 42.4173C201.479 41.4445 202.28 40.1178 202.604 38.6428C202.901 37.3547 202.881 36.0139 202.546 34.7351C202.212 33.4563 201.573 32.2777 200.685 31.2999C198.469 28.8756 195.506 27.263 192.269 26.7191C186.281 25.3809 181.219 27.3996 177.082 32.7753C176.685 33.3639 176.179 33.8706 175.591 34.2679C175.273 34.4301 174.925 34.5273 174.569 34.5538C174.213 34.5803 173.855 34.5356 173.517 34.4224L164.946 32.518C164.644 32.4597 164.357 32.3417 164.101 32.1708C163.845 32 163.625 31.7797 163.455 31.5229C163.269 31.2601 163.143 30.9591 163.086 30.6417C163.03 30.3242 163.045 29.9982 163.13 29.6872C163.85 27.0504 165.203 24.6298 167.072 22.6359C169.169 20.3188 171.658 18.3906 174.425 16.9399C177.457 15.3465 180.728 14.2571 184.11 13.7145C187.718 13.0791 191.415 13.1549 194.994 13.9375ZM185.944 74.9116C186.32 74.992 186.675 75.1493 186.988 75.3737C187.301 75.5981 187.564 75.8847 187.761 76.2155C187.971 76.5357 188.115 76.8955 188.183 77.273C188.251 77.6505 188.241 78.0378 188.155 78.4115L186.098 87.7103C185.926 88.4526 185.472 89.0987 184.832 89.5118C184.192 89.9249 183.416 90.0725 182.67 89.9235L173.585 87.9162C173.211 87.8359 172.857 87.6804 172.545 87.4592C172.233 87.2381 171.969 86.9558 171.768 86.6295C171.555 86.3105 171.409 85.9507 171.341 85.5728C171.274 85.1948 171.285 84.8069 171.374 84.4334L173.431 75.1175C173.603 74.3752 174.057 73.7291 174.697 73.316C175.337 72.9029 176.112 72.7553 176.859 72.9043L185.944 74.9116Z" fill="#1BC89E"/>
<path d="M221.94 101.418C224.207 101.044 226.516 100.998 228.796 101.281C230.988 101.53 233.119 102.169 235.087 103.168C236.966 104.131 238.614 105.488 239.92 107.149C241.304 108.928 242.197 111.04 242.508 113.273C242.864 115.011 242.864 116.803 242.508 118.54C242.152 120.052 241.574 121.503 240.794 122.847C240.03 124.142 239.159 125.37 238.189 126.518L235.429 129.778C234.599 130.753 233.853 131.798 233.201 132.9C232.62 133.881 232.324 135.003 232.344 136.143C232.341 136.678 232.187 137.202 231.898 137.653C231.767 137.868 231.59 138.053 231.38 138.192C231.17 138.331 230.931 138.423 230.681 138.459L225.076 139.386C224.535 139.471 223.982 139.341 223.534 139.025C223.314 138.882 223.13 138.689 222.996 138.463C222.863 138.237 222.783 137.983 222.762 137.721C222.528 135.963 222.662 134.175 223.157 132.472C223.601 130.943 224.253 129.482 225.094 128.131C225.896 126.837 226.808 125.615 227.819 124.477C228.83 123.344 229.739 122.281 230.596 121.251C231.368 120.336 232.04 119.341 232.601 118.283C233.092 117.364 233.267 116.309 233.098 115.281C232.959 114.377 232.602 113.521 232.058 112.785C231.515 112.05 230.801 111.458 229.979 111.06C227.947 110.067 225.64 109.789 223.431 110.271C221.433 110.566 219.574 111.47 218.107 112.861C216.641 114.252 215.639 116.061 215.238 118.043C215.129 118.527 214.931 118.986 214.655 119.398C214.323 119.763 213.862 119.985 213.369 120.016L207.405 120.994C206.981 121.064 206.547 120.972 206.188 120.736C206 120.615 205.841 120.454 205.723 120.264C205.604 120.074 205.529 119.861 205.502 119.638C205.295 117.764 205.548 115.868 206.239 114.114C206.983 112.086 208.086 110.209 209.496 108.573C211.033 106.777 212.851 105.241 214.878 104.026C217.04 102.706 219.439 101.82 221.94 101.418ZM231.727 142.92C231.99 142.876 232.259 142.885 232.518 142.947C232.777 143.009 233.021 143.122 233.235 143.28C233.45 143.433 233.631 143.627 233.77 143.85C233.908 144.074 234 144.324 234.041 144.584L235.104 151.069C235.148 151.332 235.139 151.601 235.077 151.861C235.015 152.12 234.902 152.364 234.744 152.579C234.593 152.796 234.4 152.979 234.176 153.118C233.952 153.256 233.702 153.348 233.441 153.385L227.099 154.432C226.839 154.475 226.573 154.465 226.317 154.403C226.061 154.341 225.82 154.228 225.608 154.071C225.388 153.923 225.202 153.73 225.06 153.506C224.918 153.281 224.825 153.03 224.785 152.768L223.722 146.265C223.644 145.731 223.78 145.187 224.101 144.753C224.423 144.319 224.903 144.03 225.436 143.949L231.727 142.92Z" fill="#1BC89E"/>
<g opacity="0.2">
<path opacity="0.2" d="M221.94 101.418C224.207 101.044 226.516 100.998 228.796 101.281C230.988 101.53 233.119 102.169 235.087 103.168C236.966 104.131 238.614 105.488 239.92 107.149C241.304 108.928 242.197 111.04 242.508 113.273C242.864 115.011 242.864 116.803 242.508 118.54C242.152 120.052 241.574 121.503 240.794 122.847C240.03 124.142 239.159 125.37 238.189 126.518L235.429 129.778C234.599 130.753 233.853 131.798 233.201 132.9C232.62 133.881 232.324 135.003 232.344 136.143C232.341 136.678 232.187 137.202 231.898 137.653C231.767 137.868 231.59 138.053 231.38 138.192C231.17 138.331 230.931 138.423 230.681 138.459L225.076 139.386C224.535 139.471 223.982 139.341 223.534 139.025C223.314 138.882 223.13 138.689 222.996 138.463C222.863 138.237 222.783 137.983 222.762 137.721C222.528 135.963 222.662 134.175 223.157 132.472C223.601 130.943 224.253 129.482 225.094 128.131C225.896 126.837 226.808 125.615 227.819 124.477C228.83 123.344 229.739 122.281 230.596 121.251C231.368 120.336 232.04 119.341 232.601 118.283C233.092 117.364 233.267 116.309 233.098 115.281C232.959 114.377 232.602 113.521 232.058 112.785C231.515 112.05 230.801 111.458 229.979 111.06C227.947 110.067 225.64 109.789 223.431 110.271C221.433 110.566 219.574 111.47 218.107 112.861C216.641 114.252 215.639 116.061 215.238 118.043C215.129 118.527 214.931 118.986 214.655 119.398C214.323 119.763 213.862 119.985 213.369 120.016L207.405 120.994C206.981 121.064 206.547 120.972 206.188 120.736C206 120.615 205.841 120.454 205.723 120.264C205.604 120.074 205.529 119.861 205.502 119.638C205.295 117.764 205.548 115.868 206.239 114.114C206.983 112.086 208.086 110.209 209.496 108.573C211.033 106.777 212.851 105.241 214.878 104.026C217.04 102.706 219.439 101.82 221.94 101.418ZM231.727 142.92C231.99 142.876 232.259 142.885 232.518 142.947C232.777 143.009 233.021 143.122 233.235 143.28C233.45 143.433 233.631 143.627 233.77 143.85C233.908 144.074 234 144.324 234.041 144.584L235.104 151.069C235.148 151.332 235.139 151.601 235.077 151.861C235.015 152.12 234.902 152.364 234.744 152.579C234.593 152.796 234.4 152.979 234.176 153.118C233.952 153.256 233.702 153.348 233.441 153.385L227.099 154.432C226.839 154.475 226.573 154.465 226.317 154.403C226.061 154.341 225.82 154.228 225.608 154.071C225.388 153.923 225.202 153.73 225.06 153.506C224.918 153.281 224.825 153.03 224.785 152.768L223.722 146.265C223.644 145.731 223.78 145.187 224.101 144.753C224.423 144.319 224.903 144.03 225.436 143.949L231.727 142.92Z" fill="black"/>
</g>
<path d="M280.388 119.827C280.897 120.199 281.241 120.755 281.347 121.376C281.453 121.998 281.312 122.636 280.954 123.156L276.429 129.503C276.058 130.013 275.502 130.357 274.881 130.463C274.26 130.569 273.622 130.428 273.104 130.07L266.899 125.66C266.643 125.481 266.426 125.252 266.261 124.987C266.096 124.721 265.986 124.425 265.939 124.116C265.849 123.515 265.989 122.902 266.333 122.401L270.858 116.036C271.225 115.524 271.78 115.179 272.401 115.075C273.004 114.984 273.619 115.132 274.115 115.487L280.388 119.827ZM306.579 76.7817C308.817 78.3617 310.814 80.257 312.51 82.409C314.148 84.4568 315.407 86.7807 316.229 89.2715C317.015 91.652 317.278 94.1743 317.001 96.666C316.679 99.3192 315.675 101.843 314.087 103.992C312.903 105.729 311.388 107.216 309.63 108.367C308.067 109.338 306.369 110.072 304.591 110.546C302.867 111.006 301.106 111.316 299.329 111.472L294.289 111.901C292.784 112.039 291.294 112.303 289.833 112.69C288.526 113.036 287.339 113.736 286.405 114.715C285.955 115.152 285.4 115.466 284.793 115.624C284.499 115.694 284.192 115.698 283.896 115.635C283.6 115.573 283.321 115.446 283.079 115.264L277.594 111.369C277.071 110.992 276.714 110.426 276.6 109.791C276.535 109.491 276.539 109.18 276.614 108.883C276.688 108.585 276.83 108.309 277.029 108.075C278.304 106.401 279.908 105.005 281.742 103.975C283.393 103.069 285.157 102.388 286.987 101.95C288.744 101.525 290.533 101.25 292.335 101.127C294.049 101.024 295.763 100.886 297.34 100.732C298.756 100.61 300.153 100.328 301.506 99.8914C302.684 99.5322 303.71 98.7896 304.419 97.7812C305.057 96.9075 305.471 95.8912 305.626 94.8208C305.782 93.7503 305.673 92.6581 305.311 91.6391C304.417 89.1107 302.703 86.9546 300.443 85.5143C296.363 82.5977 291.907 82.5005 287.073 85.2226C286.585 85.5344 286.045 85.7552 285.479 85.8746C285.185 85.8955 284.889 85.8577 284.61 85.7635C284.33 85.6693 284.072 85.5204 283.851 85.3256L278.023 81.1737C277.598 80.8849 277.303 80.4417 277.2 79.9384C277.15 79.6811 277.157 79.416 277.219 79.1613C277.281 78.9066 277.397 78.6684 277.56 78.463C278.917 76.7082 280.683 75.3122 282.702 74.3969C285.021 73.3235 287.51 72.6673 290.056 72.4582C292.844 72.2307 295.65 72.4508 298.369 73.1102C301.322 73.7771 304.113 75.0251 306.579 76.7817Z" fill="#1BC89E"/>
<g opacity="0.6">
<path opacity="0.6" d="M280.388 119.827C280.897 120.199 281.241 120.755 281.347 121.376C281.453 121.998 281.312 122.636 280.954 123.156L276.429 129.503C276.058 130.013 275.502 130.357 274.881 130.463C274.26 130.569 273.622 130.428 273.104 130.07L266.899 125.66C266.643 125.481 266.426 125.252 266.261 124.987C266.096 124.721 265.986 124.425 265.939 124.116C265.849 123.515 265.989 122.902 266.333 122.401L270.858 116.036C271.225 115.524 271.78 115.179 272.401 115.075C273.004 114.984 273.619 115.132 274.115 115.487L280.388 119.827ZM306.579 76.7817C308.817 78.3617 310.814 80.257 312.51 82.409C314.148 84.4568 315.407 86.7807 316.229 89.2715C317.015 91.652 317.278 94.1743 317.001 96.666C316.679 99.3192 315.675 101.843 314.087 103.992C312.903 105.729 311.388 107.216 309.63 108.367C308.067 109.338 306.369 110.072 304.591 110.546C302.867 111.006 301.106 111.316 299.329 111.472L294.289 111.901C292.784 112.039 291.294 112.303 289.833 112.69C288.526 113.036 287.339 113.736 286.405 114.715C285.955 115.152 285.4 115.466 284.793 115.624C284.499 115.694 284.192 115.698 283.896 115.635C283.6 115.573 283.321 115.446 283.079 115.264L277.594 111.369C277.071 110.992 276.714 110.426 276.6 109.791C276.535 109.491 276.539 109.18 276.614 108.883C276.688 108.585 276.83 108.309 277.029 108.075C278.304 106.401 279.908 105.005 281.742 103.975C283.393 103.069 285.157 102.388 286.987 101.95C288.744 101.525 290.533 101.25 292.335 101.127C294.049 101.024 295.763 100.886 297.34 100.732C298.756 100.61 300.153 100.328 301.506 99.8914C302.684 99.5322 303.71 98.7896 304.419 97.7812C305.057 96.9075 305.471 95.8912 305.626 94.8208C305.782 93.7503 305.673 92.6581 305.311 91.6391C304.417 89.1107 302.703 86.9546 300.443 85.5143C296.363 82.5977 291.907 82.5005 287.073 85.2226C286.585 85.5344 286.045 85.7552 285.479 85.8746C285.185 85.8955 284.889 85.8577 284.61 85.7635C284.33 85.6693 284.072 85.5204 283.851 85.3256L278.023 81.1737C277.598 80.8849 277.303 80.4417 277.2 79.9384C277.15 79.6811 277.157 79.416 277.219 79.1613C277.281 78.9066 277.397 78.6684 277.56 78.463C278.917 76.7082 280.683 75.3122 282.702 74.3969C285.021 73.3235 287.51 72.6673 290.056 72.4582C292.844 72.2307 295.65 72.4508 298.369 73.1102C301.322 73.7771 304.113 75.0251 306.579 76.7817Z" fill="white"/>
</g>
</g>
<defs>
<clipPath id="clip0_133_1714">
<rect width="524" height="566" fill="white"/>
</clipPath>
</defs>
</svg>
