<svg width="536" height="536" viewBox="0 0 536 536" fill="none" xmlns="http://www.w3.org/2000/svg">
<path d="M472.001 109.901C446.681 72.1349 403.715 45.2813 358.262 44.5845C312.809 43.8877 266.842 72.0384 251.534 114.854C244.03 135.715 243.826 158.399 239.441 180.117C235.057 201.836 224.894 224.445 205.02 234.253C178.091 247.525 146.167 232.356 116.194 233.792C82.2649 235.411 51.4556 260.217 39.5349 292.002C27.6143 323.787 33.3924 360.878 51.5949 389.554C69.7975 418.23 99.3847 438.716 131.663 449.297C163.941 459.877 240.01 466.031 273.67 461.507C289.547 460.853 305.284 458.254 320.528 453.767C366.817 440.013 404.497 416.901 435.821 384.408C473.159 345.656 496.443 293.857 501.663 240.3C505.984 195.04 497.311 147.668 472.001 109.901Z" fill="#E8F9F5"/>
<path d="M504.665 497.161C504.665 497.322 398.698 497.44 268.01 497.44C137.323 497.44 31.334 497.322 31.334 497.161C31.334 497.001 137.28 496.883 268.01 496.883C398.741 496.883 504.665 497.011 504.665 497.161Z" fill="#263238"/>
<path d="M99.31 469.322C100.382 465.377 97.7342 461.421 94.8398 458.602C91.9454 455.782 88.4828 453.188 86.9713 449.404C84.5271 443.272 87.8074 435.339 83.6481 430.226C81.1932 427.224 76.798 426.216 74.6218 423C73.6157 421.228 72.9503 419.283 72.6601 417.265C70.347 407.081 65.3373 397.706 58.1559 390.122C57.6718 399.194 59.638 408.229 63.8482 416.279C65.5313 419.495 67.611 422.625 68.1362 426.216C69.0474 432.037 65.7886 438.008 67.225 443.754C68.8652 450.294 76.2084 454.678 76.5514 461.41C76.8516 467.103 71.8882 472.13 72.2634 477.79C72.5641 480.214 73.4428 482.531 74.8255 484.544C79.2207 491.866 85.6956 496.904 95.4937 496.743L107.5 497.161L99.31 469.322Z" fill="#1BC89E"/>
<g opacity="0.3">
<path opacity="0.3" d="M99.31 469.322C100.382 465.377 97.7342 461.421 94.8398 458.602C91.9454 455.782 88.4828 453.188 86.9713 449.404C84.5271 443.272 87.8074 435.339 83.6481 430.226C81.1932 427.224 76.798 426.216 74.6218 423C73.6157 421.228 72.9503 419.283 72.6601 417.265C70.347 407.081 65.3373 397.706 58.1559 390.122C57.6718 399.194 59.638 408.229 63.8482 416.279C65.5313 419.495 67.611 422.625 68.1362 426.216C69.0474 432.037 65.7886 438.008 67.225 443.754C68.8652 450.294 76.2084 454.678 76.5514 461.41C76.8516 467.103 71.8882 472.13 72.2634 477.79C72.5641 480.214 73.4428 482.531 74.8255 484.544C79.2207 491.866 85.6956 496.904 95.4937 496.743L107.5 497.161L99.31 469.322Z" fill="black"/>
</g>
<path d="M109.923 497.408C111.023 497.578 112.144 497.556 113.236 497.344C114.562 497.142 115.865 496.812 117.127 496.357C118.87 495.751 120.5 494.86 121.951 493.72C122.824 493.018 123.506 492.108 123.934 491.072C124.293 489.912 124.481 488.706 124.492 487.492C124.516 486.194 124.613 484.899 124.781 483.611C125.007 482.241 125.503 480.929 126.239 479.752C127.654 477.265 130.013 474.907 130.763 471.53C131.513 468.153 130.999 464.616 130.441 461.014C129.884 457.412 129.369 453.51 130.72 449.736C132.071 445.963 134.644 442.586 135.962 438.362C137.281 434.139 136.659 429.486 136.938 424.952C137.02 422.648 137.552 420.383 138.503 418.284C139.468 416.14 140.818 414.157 141.869 411.927C144.013 407.403 144.377 402.279 144.956 397.251C145.246 394.721 145.525 392.159 145.814 389.586C145.996 386.985 146.445 384.409 147.154 381.9C147.967 379.37 148.927 376.89 150.027 374.471C150.594 373.22 151.06 371.926 151.421 370.601C151.622 369.23 151.751 367.848 151.806 366.463C151.934 363.69 151.827 360.91 151.485 358.155C151.163 355.389 150.659 352.645 150.359 349.869C150.359 349.697 150.359 349.536 150.359 349.386L150.295 348.84L149.813 349.075C147.278 350.376 145.077 352.243 143.381 354.532C141.717 356.773 140.378 359.238 139.403 361.854C137.399 367.01 136.681 372.413 135.673 377.569C134.665 382.725 133.379 387.796 130.742 392.084C129.423 394.228 127.826 396.179 126.454 398.259C124.964 400.288 123.945 402.625 123.473 405.098C122.755 410.179 125.553 414.639 124.974 419.141C124.713 421.347 123.982 423.471 122.83 425.37C121.758 427.288 120.461 429.068 119.239 430.848C118 432.593 116.924 434.448 116.023 436.39C115.175 438.29 114.674 440.327 114.544 442.404C114.254 446.456 114.822 450.294 114.544 453.917C114.209 457.371 113.2 460.725 111.574 463.79C110.127 466.738 108.508 469.407 107.158 472.002C106.482 473.288 105.85 474.553 105.335 475.829C104.848 477.053 104.489 478.325 104.263 479.624C103.904 481.891 103.876 484.198 104.177 486.474C104.492 489.647 105.68 492.671 107.608 495.21C107.903 495.594 108.229 495.953 108.583 496.282C108.82 496.531 109.082 496.754 109.366 496.947C109.816 497.279 110.052 497.429 110.052 497.429C109.195 496.752 108.415 495.983 107.726 495.135C105.885 492.587 104.774 489.585 104.51 486.452C104.237 484.205 104.287 481.931 104.66 479.699C104.886 478.431 105.245 477.192 105.732 476C106.275 474.711 106.887 473.451 107.565 472.227C108.926 469.654 110.556 466.995 112.035 464.026C113.71 460.913 114.752 457.499 115.101 453.981C115.423 450.283 114.865 446.424 115.165 442.479C115.304 440.469 115.793 438.498 116.613 436.658C117.519 434.756 118.595 432.941 119.829 431.233C121.051 429.454 122.348 427.674 123.463 425.713C124.686 423.742 125.469 421.529 125.757 419.227C126.336 414.435 123.559 409.954 124.277 405.227C124.747 402.862 125.732 400.629 127.161 398.688C128.523 396.64 130.131 394.689 131.449 392.491C134.183 388.085 135.501 382.918 136.498 377.741C137.495 372.563 138.235 367.203 140.207 362.143C141.156 359.6 142.459 357.204 144.077 355.025C145.709 352.829 147.826 351.038 150.263 349.794L149.716 349.483C149.716 349.644 149.716 349.804 149.77 349.976C150.07 352.784 150.574 355.529 150.842 358.273C151.18 360.986 151.284 363.722 151.153 366.452C151.098 367.794 150.977 369.132 150.788 370.462C150.442 371.744 149.99 372.995 149.437 374.203C148.331 376.648 147.365 379.153 146.543 381.707C145.828 384.256 145.376 386.871 145.192 389.511C144.913 392.095 144.624 394.657 144.345 397.187C143.766 402.236 143.391 407.274 141.344 411.637C140.272 413.781 138.985 415.829 137.988 418.016C137.007 420.194 136.461 422.543 136.38 424.93C136.112 429.561 136.713 434.096 135.458 438.191C134.204 442.286 131.599 445.695 130.281 449.565C128.962 453.435 129.445 457.53 130.023 461.121C130.602 464.712 131.181 468.25 130.409 471.433C129.637 474.617 127.429 476.997 125.993 479.548C125.235 480.777 124.729 482.143 124.503 483.568C124.341 484.87 124.255 486.18 124.245 487.492C124.247 488.676 124.074 489.854 123.731 490.987C123.334 491.969 122.696 492.835 121.876 493.506C120.464 494.644 118.874 495.543 117.17 496.164C115.925 496.645 114.636 497.004 113.322 497.236C112.518 497.382 111.704 497.461 110.888 497.472C110.213 497.408 109.923 497.408 109.923 497.408Z" fill="#263238"/>
<path d="M147.849 356.011C147.792 356.126 147.752 356.249 147.732 356.376L147.474 357.448C147.238 358.402 146.949 359.828 146.499 361.607C146.049 363.387 144.944 365.402 144.012 367.878C142.919 370.666 141.968 373.507 141.16 376.39C140.238 379.606 139.434 383.144 138.577 386.96C137.848 391.025 136.556 394.968 134.739 398.677C133.753 400.628 132.595 402.6 131.769 404.766C130.904 406.977 130.324 409.29 130.044 411.648C129.434 416.532 128.568 421.381 127.449 426.174C125.048 436.004 122.754 445.373 120.664 453.906C118.573 462.439 116.601 470.072 114.971 476.525C113.342 482.979 112.109 488.125 111.208 491.801C110.79 493.56 110.458 494.942 110.222 495.961C110.126 496.4 110.04 496.754 109.976 497.033C109.964 497.158 109.964 497.283 109.976 497.408C110.038 497.297 110.085 497.178 110.115 497.054C110.19 496.765 110.297 496.422 110.426 495.982C110.694 494.985 111.069 493.602 111.552 491.855C112.516 488.21 113.878 483.033 115.561 476.654C117.244 470.276 119.206 462.557 121.403 454.078C123.601 445.598 125.831 436.165 128.253 426.324C129.365 421.518 130.209 416.654 130.783 411.755C131.057 409.454 131.619 407.195 132.456 405.034C133.302 402.89 134.385 400.971 135.371 398.998C137.515 395.086 138.362 390.883 139.209 387.099C140.056 383.315 140.806 379.735 141.685 376.54C142.564 373.345 143.486 370.494 144.408 368.028C145.33 365.563 146.349 363.526 146.788 361.682C147.228 359.838 147.431 358.466 147.624 357.48C147.696 357.037 147.76 356.679 147.817 356.408C147.849 356.14 147.871 356.011 147.849 356.011Z" fill="#263238"/>
<path d="M112.046 497.462C119.882 492.798 122.134 478.648 118.864 470.136C115.594 461.625 109.87 453.842 108.991 444.762C108.305 437.783 110.599 430.622 108.991 423.804C106.793 414.596 97.8099 407.467 97.9171 398.001C97.9707 392.695 100.994 387.7 100.747 382.393C100.458 375.897 95.4623 370.73 92.3749 365.005C87.6367 356.226 87.3258 345.859 85.7071 336.061C84.0883 326.263 80.3471 315.693 71.621 310.859C70.3346 319.209 68.137 324.934 68.8231 336.244C69.0803 340.306 73.7972 348.036 74.4404 356.987C74.8263 362.347 75.0835 367.642 75.4159 372.96C75.7482 378.277 76.0698 383.422 77.9244 388.268C79.3501 391.988 81.6335 395.364 82.6947 399.202C84.6779 406.417 82.0623 414.21 83.6703 421.543C85.0317 427.739 89.3197 433.067 90.1987 439.348C91.4208 448.171 85.7178 457.347 88.6336 465.763C90.0915 469.943 93.522 473.267 94.4975 477.608C95.2586 480.953 94.4332 484.501 95.1192 487.856C96.1912 493.281 106.547 497.504 112.068 497.151" fill="#1BC89E"/>
<path d="M73.7649 319.102C73.7502 319.259 73.7502 319.417 73.7649 319.574C73.7649 319.928 73.8721 320.378 73.9364 320.946C74.1186 322.157 74.3223 323.926 74.7297 326.22C75.137 328.514 76.3591 331.109 77.3025 334.239C78.2458 337.369 79.2964 340.95 80.1754 344.959C81.0545 348.968 81.8263 353.438 82.6089 358.23C83.3914 363.022 84.249 368.243 86.6289 373.238C87.7009 375.736 88.9658 378.244 89.8449 380.924C90.7456 383.668 91.3002 386.513 91.4958 389.393C91.934 395.505 92.7034 401.589 93.8006 407.617C96.2018 419.988 98.4852 431.769 100.565 442.5C102.645 453.231 104.735 462.804 106.407 470.908C108.08 479.012 109.452 485.487 110.406 490.054L111.478 495.253C111.606 495.811 111.703 496.25 111.789 496.593C111.818 496.75 111.861 496.905 111.917 497.054C111.936 496.898 111.936 496.739 111.917 496.583C111.853 496.229 111.778 495.789 111.682 495.221C111.446 493.978 111.113 492.22 110.695 489.99C109.795 485.412 108.551 478.873 106.933 470.801C105.314 462.729 103.395 453.049 101.262 442.361C99.1284 431.673 96.9737 419.849 94.5617 407.489C93.4639 401.46 92.6909 395.376 92.2462 389.265C92.0421 386.324 91.4695 383.422 90.5417 380.624C89.5876 377.901 88.3334 375.382 87.2292 372.895C84.8708 367.975 84.0132 362.84 83.1985 358.069C82.3838 353.299 81.6012 348.818 80.6686 344.787C79.7359 340.757 78.7175 337.155 77.667 334.067C76.6164 330.98 75.4479 328.364 74.9762 326.124C74.5046 323.883 74.2794 322.082 74.0543 320.892C73.9471 320.335 73.8614 319.885 73.797 319.531C73.7948 319.388 73.7841 319.244 73.7649 319.102Z" fill="#263238"/>
<path d="M451.817 95.1614H447.529C447.532 95.6477 447.437 96.1297 447.25 96.5788C447.064 97.0279 446.789 97.435 446.442 97.7759C446.095 98.1167 445.683 98.3845 445.231 98.5634C444.779 98.7422 444.295 98.8284 443.809 98.8169C443.091 98.8427 442.383 98.6438 441.783 98.2479C441.184 97.8521 440.723 97.279 440.464 96.6086C440.238 96.0504 440.148 95.4466 440.2 94.8467C440.252 94.2467 440.446 93.6677 440.764 93.1568C441.493 91.9561 443.08 90.8734 445.953 91.3772V81.7292H441.74V87.368C440.011 87.8769 438.497 88.939 437.43 90.3914C436.363 91.8437 435.802 93.6061 435.833 95.408C435.833 101.647 441.429 103.094 443.83 103.094C445.663 103.137 451.903 102.698 451.817 95.1614Z" fill="#1BC89E"/>
<path d="M441.707 79.7783H445.984V75.7797H441.707V79.7783Z" fill="#1BC89E"/>
<path d="M475.197 89.4584C475.211 89.2764 475.211 89.0936 475.197 88.9117C475.197 88.5258 475.197 88.0005 475.197 87.3251C475.197 86.9821 475.197 86.5854 475.143 86.1566C475.089 85.7278 475.025 85.2562 474.95 84.763C474.875 84.2699 474.8 83.691 474.714 83.1229L474.264 81.3005C473.468 78.162 472.164 75.1747 470.405 72.4565C467.85 68.4309 464.406 65.0447 460.338 62.5582C456.27 60.0716 451.686 58.551 446.939 58.1131C445.513 57.9872 444.08 57.9585 442.651 58.0274C441.932 58.0274 441.193 58.0273 440.507 58.1667L438.298 58.499C435.268 59.0622 432.336 60.0624 429.594 61.4685C426.731 62.9835 424.099 64.9004 421.779 67.1608C419.403 69.5683 417.418 72.3315 415.894 75.3509C414.254 78.4636 413.179 81.8428 412.72 85.3312C412.587 86.215 412.511 87.1067 412.495 88.0005C412.424 88.8955 412.406 89.794 412.442 90.6912C412.675 96.4419 414.473 102.02 417.641 106.825V106.492C416.151 110.212 414.682 113.868 413.246 117.427L412.988 118.081L413.664 117.888L425.349 114.672L425.07 114.608C429.005 117.587 433.59 119.592 438.448 120.461C440.702 120.881 443 121.021 445.288 120.879C446.391 120.862 447.492 120.758 448.579 120.568L450.176 120.321C450.701 120.225 451.248 120.064 451.72 119.946C458.92 118.121 465.236 113.793 469.536 107.736C471.14 105.505 472.428 103.062 473.364 100.479C473.567 99.9104 473.76 99.4066 473.942 98.8491C474.125 98.2917 474.221 97.7771 474.339 97.2947C474.457 96.8123 474.586 96.3192 474.693 95.869C474.8 95.4187 474.832 94.9792 474.896 94.5611C474.993 93.7357 475.143 93.0067 475.175 92.4171C475.207 91.8275 475.175 91.2593 475.175 90.8091C475.175 90.3589 475.175 90.0802 475.175 89.8336C475.175 89.587 475.175 89.5013 475.175 89.5013C475.159 89.6114 475.159 89.7234 475.175 89.8336C475.175 90.0802 475.175 90.4018 475.1 90.8091C475.025 91.2165 475.036 91.7846 474.993 92.4064C474.95 93.0282 474.789 93.7571 474.661 94.5504C473.638 100.483 470.915 105.992 466.821 110.407C462.728 114.822 457.441 117.953 451.602 119.421C451.098 119.539 450.594 119.689 450.08 119.785L448.504 120.021C447.441 120.199 446.366 120.295 445.288 120.311C443.041 120.429 440.789 120.281 438.577 119.871C433.832 118.998 429.357 117.026 425.509 114.114L425.381 114.007H425.22L413.524 117.223L413.932 117.684L418.338 106.76L418.402 106.589L418.306 106.428C416.195 103.234 414.697 99.6754 413.889 95.9333C413.519 94.1971 413.296 92.4327 413.224 90.659C413.188 89.7833 413.206 88.9062 413.278 88.0326C413.285 87.1602 413.356 86.2895 413.492 85.4277C413.904 82.0211 414.916 78.7145 416.483 75.6618C417.973 72.711 419.907 70.0066 422.218 67.6432C424.489 65.4241 427.066 63.5431 429.872 62.0581C432.554 60.6634 435.425 59.6702 438.395 59.1101L440.539 58.7778C441.257 58.6706 441.975 58.6813 442.683 58.6277C444.08 58.5612 445.48 58.5863 446.874 58.7027C451.544 59.1115 456.059 60.579 460.077 62.9937C464.095 65.4084 467.509 68.7069 470.062 72.6387C471.831 75.3095 473.156 78.2491 473.985 81.3433L474.468 83.1443C474.564 83.7125 474.65 84.2163 474.736 84.7523C474.821 85.2883 474.886 85.7171 474.961 86.1459C475.036 86.5747 475.014 86.9606 475.047 87.3037C475.047 87.9683 475.132 88.4936 475.164 88.8795C475.144 89.073 475.155 89.2684 475.197 89.4584Z" fill="#263238"/>
<path d="M155.516 215.879H217.424C217.424 215.879 217.424 163.898 271.442 162.976C299.496 162.483 314.043 180.868 319.96 194.943C326.821 211.291 324.741 229.923 315.544 245.091C305.049 262.404 282.43 279.803 240.707 272.449L240.311 410.383H301.533V328.611C301.533 328.611 387.389 306.42 387.389 211.763C387.389 121.232 314.182 101.679 274.829 100.414C252.939 99.7174 245.006 98.7741 217.927 102.623C183.42 107.554 154.787 147.625 155.516 215.879Z" fill="#1BC89E"/>
<path d="M302.272 439.134H240.139V497.161H302.272V439.134Z" fill="#1BC89E"/>
<path opacity="0.1" d="M302.272 439.134H240.139V497.161H302.272V439.134Z" fill="black"/>
<path opacity="0.1" d="M155.516 215.879H217.424C217.424 215.879 217.424 163.898 271.442 162.976C299.496 162.483 314.043 180.868 319.96 194.943C326.821 211.291 324.741 229.923 315.544 245.091C305.049 262.404 282.43 279.803 240.707 272.449L240.311 410.383H301.533V328.611C301.533 328.611 387.389 306.42 387.389 211.763C387.389 121.232 314.182 101.679 274.829 100.414C252.939 99.7174 245.006 98.7741 217.927 102.623C183.42 107.554 154.787 147.625 155.516 215.879Z" fill="black"/>
<path d="M129.863 215.879H191.781C191.781 215.879 191.781 163.897 245.8 162.975C273.854 162.482 288.401 180.867 294.308 194.942C301.179 211.29 299.099 229.922 289.902 245.091C279.407 262.403 256.391 278.14 214.669 270.819V410.382H275.891V328.61C275.891 328.61 361.747 306.42 361.747 211.762C361.747 121.232 280.554 100.21 245.81 100.21C219.235 100.242 128.694 106.663 129.863 215.879Z" fill="#1BC89E"/>
<path opacity="0.3" d="M129.863 215.879H191.781C191.781 215.879 191.781 163.897 245.8 162.975C273.854 162.482 288.401 180.867 294.308 194.942C301.179 211.29 299.099 229.922 289.902 245.091C279.407 262.403 256.391 278.14 214.669 270.819V410.382H275.891V328.61C275.891 328.61 361.747 306.42 361.747 211.762C361.747 121.232 280.554 100.21 245.81 100.21C219.235 100.242 128.694 106.663 129.863 215.879Z" fill="black"/>
<path d="M276.631 439.134H214.498V497.161H276.631V439.134Z" fill="#1BC89E"/>
<path opacity="0.3" d="M276.631 439.134H214.498V497.161H276.631V439.134Z" fill="black"/>
<path d="M252.789 163.255C252.483 163.281 252.174 163.281 251.867 163.255C251.256 163.255 250.377 163.051 249.23 163.04C245.987 162.881 242.736 163.018 239.518 163.448C234.745 164.052 230.049 165.155 225.507 166.739C222.829 167.675 220.221 168.8 217.703 170.105C214.98 171.465 212.417 173.123 210.059 175.047C207.718 176.988 205.619 179.206 203.81 181.65C202.094 183.911 200.529 186.281 199.125 188.747C196.781 192.947 194.921 197.399 193.583 202.018C192.675 205.136 192.051 208.329 191.717 211.559C191.589 212.696 191.557 213.596 191.525 214.196C191.525 214.506 191.496 214.814 191.439 215.118C191.411 214.812 191.411 214.503 191.439 214.196C191.439 213.585 191.439 212.685 191.535 211.538C191.782 208.273 192.353 205.041 193.24 201.89C194.529 197.217 196.364 192.712 198.707 188.468C200.114 185.976 201.686 183.58 203.413 181.297C205.238 178.812 207.362 176.562 209.738 174.597C212.124 172.646 214.72 170.967 217.478 169.59C220.012 168.261 222.638 167.115 225.335 166.16C229.919 164.582 234.66 163.504 239.475 162.944C242.715 162.546 245.986 162.471 249.241 162.719C250.125 162.775 251.006 162.883 251.878 163.04C252.187 163.09 252.491 163.162 252.789 163.255Z" fill="#263238"/>
<path d="M346.074 152.224C346.074 152.224 345.999 152.149 345.87 151.988C345.741 151.827 345.548 151.549 345.334 151.238L343.286 148.343C342.847 147.722 342.375 147.003 341.818 146.264L339.888 143.916L337.68 141.204C336.876 140.261 335.932 139.349 334.989 138.352C334.046 137.355 333.081 136.294 331.988 135.276C330.894 134.257 329.726 133.217 328.525 132.145C327.925 131.609 327.335 131.073 326.692 130.505L324.698 128.929C323.337 127.857 321.986 126.785 320.517 125.713C314.116 121.134 307.326 117.123 300.224 113.728L294.575 111.177L288.968 109.033C287.135 108.272 285.27 107.736 283.469 107.136C281.668 106.535 279.91 105.924 278.109 105.506L272.985 104.166C271.323 103.727 269.672 103.459 268.096 103.094C266.52 102.73 264.998 102.408 263.508 102.226L259.22 101.604C256.508 101.143 254.021 101.047 251.856 100.832C250.784 100.747 249.712 100.629 248.822 100.586L246.27 100.521L242.733 100.404H241.811H241.5C241.603 100.387 241.708 100.387 241.811 100.404H242.733H246.27H248.832C249.765 100.404 250.784 100.532 251.877 100.607C254.021 100.789 256.551 100.864 259.263 101.304L263.551 101.883C265.041 102.054 266.563 102.44 268.15 102.73C269.736 103.019 271.366 103.319 273.07 103.802L278.216 105.131C279.996 105.538 281.754 106.203 283.576 106.75C285.398 107.296 287.253 107.822 289.086 108.636L294.725 110.78L300.406 113.343C307.545 116.745 314.362 120.785 320.774 125.413C322.254 126.485 323.604 127.632 324.966 128.694L326.96 130.141C327.603 130.677 328.193 131.213 328.793 131.792L332.245 135.008C333.317 136.08 334.282 137.152 335.236 138.127C336.19 139.103 337.101 140.057 337.905 141.011L340.049 143.744L341.957 146.124C342.504 146.875 342.965 147.604 343.394 148.268C344.23 149.523 344.884 150.509 345.345 151.216L345.848 151.999C345.933 152.064 346.009 152.14 346.074 152.224Z" fill="#263238"/>
<path d="M339.621 285.152C339.493 285.384 339.338 285.6 339.16 285.795L337.68 287.543C337.069 288.325 336.297 289.258 335.343 290.298C334.389 291.337 333.371 292.559 332.127 293.824C330.884 295.089 329.554 296.504 328.043 297.93C326.531 299.356 324.891 300.857 323.144 302.422C315.48 309.111 307.078 314.905 298.102 319.692C296.022 320.764 294.061 321.836 292.163 322.661C290.266 323.487 288.497 324.334 286.867 325.02C285.238 325.706 283.737 326.274 282.429 326.778C281.121 327.282 279.974 327.689 279.031 327.989L276.887 328.686C276.638 328.785 276.379 328.857 276.115 328.9C276.346 328.768 276.591 328.66 276.844 328.579L278.988 327.785C279.921 327.453 281.046 327.024 282.344 326.488C283.641 325.952 285.141 325.416 286.749 324.655C288.357 323.894 290.137 323.176 291.992 322.243C293.846 321.311 295.829 320.324 297.898 319.242C301.983 316.99 306.389 314.353 310.837 311.309C315.286 308.264 319.285 305.059 322.844 302.036C324.591 300.492 326.263 299.045 327.753 297.587C329.244 296.129 330.637 294.811 331.87 293.546C333.103 292.281 334.185 291.112 335.15 290.083C336.115 289.054 336.908 288.154 337.552 287.403L339.052 285.699C339.227 285.501 339.417 285.319 339.621 285.152Z" fill="#263238"/>
<path d="M274.807 405.516C274.646 405.516 274.518 388.3 274.518 367.064C274.518 345.827 274.646 328.6 274.807 328.6C274.968 328.6 275.086 345.816 275.086 367.064C275.086 388.311 274.957 405.516 274.807 405.516Z" fill="#263238"/>
<path d="M277.165 493.227C277.005 493.227 276.887 481.146 276.887 466.245C276.887 451.344 277.005 439.252 277.165 439.252C277.326 439.252 277.444 451.333 277.444 466.245C277.444 481.156 277.315 493.227 277.165 493.227Z" fill="#263238"/>
<path d="M338.109 207.657C337.037 209.801 341.035 211.559 343.34 212.256C345.691 212.833 348.125 213 350.533 212.749C353.749 212.578 357.04 212.277 359.817 210.691C362.248 209.184 364.192 207.006 365.412 204.42C366.616 201.841 367.568 199.152 368.253 196.39C368.253 196.39 342.922 198.041 338.109 207.657Z" fill="#1BC89E"/>
<g opacity="0.4">
<path opacity="0.4" d="M338.109 207.657C337.037 209.801 341.035 211.559 343.34 212.256C345.691 212.833 348.125 213 350.533 212.749C353.749 212.578 357.04 212.277 359.817 210.691C362.248 209.184 364.192 207.006 365.412 204.42C366.616 201.841 367.568 199.152 368.253 196.39C368.253 196.39 342.922 198.041 338.109 207.657Z" fill="black"/>
</g>
<path d="M409.655 200.796C413.831 203.758 418.836 205.327 423.955 205.277C426.41 205.414 428.83 204.652 430.762 203.133C431.588 202.372 432.21 201.407 433.057 200.678C433.635 200.185 434.311 199.81 434.857 199.285C435.146 199.036 435.369 198.72 435.505 198.365C435.642 198.009 435.688 197.626 435.64 197.248C435.428 196.317 434.907 195.485 434.161 194.89C431.256 193.239 427.782 193.303 424.438 193.378C421.09 193.523 417.784 194.17 414.629 195.297C412.035 196.176 409.322 197.441 408.004 199.799" fill="#1BC89E"/>
<g opacity="0.4">
<path opacity="0.4" d="M435.64 197.248C435.261 196.344 434.594 195.59 433.743 195.104C430.837 193.453 427.782 193.303 424.438 193.378C421.09 193.523 417.784 194.17 414.629 195.297C412.035 196.176 409.322 197.441 408.004 199.799L409.655 200.796C413.831 203.758 418.836 205.327 423.955 205.277C426.41 205.414 428.83 204.652 430.762 203.133C431.588 202.372 432.21 201.407 433.057 200.678C433.635 200.185 434.311 199.81 434.857 199.285C435.146 199.036 435.369 198.72 435.505 198.365C435.642 198.009 435.688 197.626 435.64 197.248Z" fill="black"/>
</g>
<path d="M360.192 239.27L413.631 239.978C413.74 239.978 413.847 239.952 413.944 239.903C414.041 239.854 414.125 239.782 414.19 239.695C414.255 239.607 414.298 239.506 414.316 239.399C414.335 239.291 414.328 239.181 414.296 239.077L408.025 219.524C408.025 219.524 408.946 209.748 410.222 197.998C412.162 180.15 414.746 157.713 414.778 157.777C411.123 147.529 389.554 145.792 389.554 145.792L364.973 147.25L364.115 145.803L357.04 149.094C355.497 149.812 354.013 150.65 352.602 151.602C347.928 154.722 336.672 161.893 334.614 169.88C329.865 188.372 337.905 209.008 337.905 209.008L343.072 204.966C344.374 203.963 345.742 203.05 347.167 202.233L357.523 229.987C356.906 230.375 356.384 230.896 355.995 231.512C355.606 232.128 355.358 232.823 355.271 233.546C355.186 235.797 356.343 238.499 360.192 239.27Z" fill="#1BC89E"/>
<g opacity="0.3">
<path opacity="0.3" d="M383.121 206.553C384.815 197.441 383.925 188.072 383.014 178.852C380.055 186.356 380.163 194.932 377.022 202.372C376.637 203.158 376.356 203.99 376.185 204.848C376.104 205.279 376.125 205.724 376.248 206.145C376.371 206.566 376.592 206.952 376.893 207.271C377.751 208.054 379.037 207.625 380.173 207.496C381.191 207.302 382.18 206.985 383.121 206.553Z" fill="black"/>
</g>
<g opacity="0.4">
<path opacity="0.4" d="M363.408 227.65C367.696 229.14 372.262 226.364 376.797 225.87C379.799 225.549 382.8 226.235 385.78 226.717C391.807 227.692 397.937 227.844 404.004 227.168C404.935 227.116 405.847 226.879 406.684 226.471C407.117 226.176 407.472 225.779 407.716 225.316C407.961 224.852 408.089 224.336 408.089 223.812C397.991 222.74 387.903 222.161 377.805 221.121C375.291 220.693 372.717 220.776 370.236 221.368C367.192 222.311 364.876 224.702 362.732 227.071" fill="black"/>
</g>
<path d="M434.096 193.732C429.733 183.902 414.349 156.716 414.349 156.716L402.439 171.649L405.216 200.968C405.216 200.968 411.509 193.946 429.1 193.807C430.379 193.858 431.629 194.195 432.761 194.792C433.892 195.389 434.876 196.232 435.639 197.259L434.096 193.732Z" fill="#1BC89E"/>
<path d="M362.583 188.533C361.733 186.448 361.059 184.297 360.567 182.101C359.902 179.961 359.414 177.771 359.109 175.551C359.947 177.638 360.617 179.789 361.114 181.983C361.78 184.123 362.271 186.313 362.583 188.533Z" fill="#263238"/>
<path d="M401.539 169.665C401.926 169.939 402.285 170.252 402.611 170.598C403.558 171.513 404.446 172.487 405.269 173.514C408.041 176.902 409.99 180.887 410.961 185.156C411.466 187.515 411.578 189.942 411.294 192.338C411.026 194.536 410.608 196.465 410.329 198.095C410.05 199.724 409.879 201.054 409.793 201.975C409.791 202.455 409.74 202.932 409.643 203.401C409.567 202.923 409.545 202.437 409.579 201.954C409.626 200.64 409.747 199.33 409.943 198.031C410.168 196.39 410.543 194.439 410.79 192.285C411.038 189.943 410.911 187.576 410.415 185.274C409.455 181.085 407.592 177.156 404.958 173.76C402.996 171.123 401.453 169.751 401.539 169.665Z" fill="#263238"/>
<path d="M390.626 236.912C390.253 237.078 389.86 237.193 389.457 237.255C388.999 237.376 388.534 237.465 388.064 237.523C387.517 237.598 386.895 237.716 386.198 237.748C384.565 237.898 382.922 237.898 381.289 237.748C379.29 237.543 377.316 237.148 375.393 236.569C373.479 235.954 371.627 235.161 369.861 234.2C368.429 233.401 367.07 232.479 365.798 231.445C365.241 231.016 364.79 230.566 364.383 230.191C364.032 229.874 363.699 229.538 363.386 229.183C363.088 228.907 362.832 228.589 362.625 228.24C362.7 228.164 363.847 229.451 366.045 231.134C367.328 232.111 368.687 232.985 370.108 233.75C371.853 234.667 373.675 235.431 375.553 236.033C377.444 236.602 379.381 237.004 381.342 237.234C382.944 237.406 384.557 237.456 386.166 237.384C388.921 237.234 390.604 236.826 390.626 236.912Z" fill="#263238"/>
<path d="M407.123 230.823C407.376 231.308 407.518 231.842 407.541 232.388C407.712 233.695 407.614 235.023 407.252 236.29C406.884 237.587 406.137 238.744 405.108 239.613C404.325 240.267 403.725 240.471 403.693 240.417C403.661 240.364 404.165 240.01 404.84 239.345C405.707 238.441 406.337 237.336 406.673 236.129C407.531 233.299 406.92 230.834 407.123 230.823Z" fill="#263238"/>
<path d="M404.22 234.596C404.452 235.699 404.359 236.845 403.952 237.896C403.545 238.947 402.841 239.856 401.926 240.514C401.808 240.396 402.805 239.335 403.426 237.695C404.048 236.054 404.059 234.607 404.22 234.596Z" fill="#263238"/>
<path d="M394.657 199.328C394.089 200.288 393.452 201.205 392.749 202.072C392.195 203.04 391.568 203.965 390.873 204.838C391.079 203.706 391.566 202.645 392.288 201.75C392.859 200.755 393.675 199.921 394.657 199.328Z" fill="#263238"/>
<path d="M357.974 173.364C357.157 172.884 356.366 172.362 355.605 171.799C351.792 169.294 347.465 167.678 342.944 167.071C341.998 167.002 341.056 166.877 340.125 166.696C341.075 166.565 342.038 166.565 342.987 166.696C347.632 167.092 352.079 168.749 355.851 171.488C356.642 172.012 357.357 172.643 357.974 173.364Z" fill="#263238"/>
<path d="M414.349 156.362C412.43 157.907 410.638 159.603 408.989 161.432C407.47 163.386 406.112 165.458 404.926 167.629C405.053 166.899 405.303 166.195 405.665 165.549C406.442 163.942 407.414 162.436 408.56 161.068C409.709 159.702 411.028 158.488 412.483 157.455C413.038 156.986 413.669 156.616 414.349 156.362Z" fill="#263238"/>
<path d="M392.288 147.529C392.385 147.683 392.464 147.849 392.523 148.022C392.733 148.507 392.901 149.009 393.027 149.523C393.479 151.433 393.479 153.422 393.027 155.333C392.36 158.185 390.833 160.763 388.653 162.719C385.902 165.05 382.396 166.3 378.791 166.235C375.183 166.247 371.667 165.093 368.768 162.944C366.458 161.18 364.584 158.91 363.29 156.308C362.418 154.566 361.804 152.706 361.468 150.788C361.369 150.271 361.305 149.748 361.275 149.222C361.244 149.038 361.244 148.85 361.275 148.665C361.275 148.665 361.393 149.415 361.693 150.745C362.11 152.609 362.769 154.411 363.654 156.105C364.962 158.628 366.819 160.826 369.089 162.537C371.883 164.605 375.262 165.731 378.737 165.753C382.212 165.816 385.595 164.629 388.268 162.408C390.373 160.524 391.867 158.052 392.556 155.311C393.033 153.461 393.098 151.529 392.749 149.651C392.545 148.236 392.223 147.55 392.288 147.529Z" fill="#263238"/>
<g opacity="0.3">
<path opacity="0.3" d="M396.04 201.225C396.04 200.689 395.954 200.057 395.483 199.789C395.333 199.713 395.168 199.674 395 199.674C394.833 199.674 394.667 199.713 394.518 199.789C394.218 199.951 393.952 200.169 393.735 200.432C392.475 201.743 391.5 203.302 390.873 205.009L396.126 204.548C396.094 203.466 396.072 202.329 396.04 201.225Z" fill="black"/>
</g>
<g opacity="0.3">
<path opacity="0.3" d="M413.48 190.173C412.952 187.167 411.635 184.355 409.664 182.026C411.937 189.444 411.176 193.635 409.9 198.717L410.179 198.009C411.647 195.04 413.877 193.174 413.48 190.173Z" fill="black"/>
</g>
<path d="M402.986 439.37L399.781 487.449L378.877 487.203L375.586 437.215L402.986 439.37Z" fill="#FFBE9D"/>
<path d="M400.37 481.124V482.518C400.37 482.518 423.954 491.994 424.179 496.454L377.344 496.197L378.073 480.62C385.051 483.89 392.352 484.297 400.37 481.124Z" fill="#1BC89E"/>
<path d="M382.823 485.616C382.378 485.75 381.998 486.042 381.753 486.437C381.509 486.832 381.416 487.302 381.493 487.76C381.608 488.217 381.895 488.612 382.295 488.862C382.695 489.112 383.176 489.197 383.637 489.1C384.114 488.957 384.521 488.643 384.779 488.217C385.037 487.79 385.126 487.284 385.031 486.795C384.861 486.332 384.518 485.954 384.073 485.739C383.629 485.525 383.119 485.493 382.651 485.648" fill="white"/>
<path d="M377.344 496.197L377.515 492.455L422.368 494.085C422.368 494.085 424.447 495.007 424.201 496.465L377.344 496.197Z" fill="#263238"/>
<path d="M400.541 482.647C400.541 482.872 399.384 482.968 398.258 483.719C397.132 484.469 396.521 485.402 396.318 485.316C396.114 485.23 396.457 483.901 397.84 483.043C399.223 482.186 400.595 482.4 400.541 482.647Z" fill="#263238"/>
<path d="M405.441 484.705C405.494 484.93 404.497 485.305 403.715 486.27C402.932 487.235 402.707 488.253 402.471 488.242C402.235 488.232 402.107 486.935 403.104 485.766C404.101 484.598 405.43 484.544 405.441 484.705Z" fill="#263238"/>
<path d="M408.196 490.601C407.982 490.601 407.671 489.529 408.271 488.253C408.871 486.977 409.933 486.516 410.029 486.699C410.126 486.881 409.461 487.556 408.957 488.596C408.453 489.636 408.432 490.579 408.196 490.601Z" fill="#263238"/>
<path d="M399.169 87.7432C400.38 84.7416 398.912 81.1075 396.307 79.1672C393.561 77.3599 390.214 76.7089 386.991 77.3555C383.812 78.0221 380.734 79.1034 377.836 80.5715C376.489 79.2126 374.79 78.255 372.93 77.8055C371.07 77.3561 369.121 77.4325 367.302 78.0263C365.483 78.6201 363.864 79.7079 362.628 81.1682C361.391 82.6285 360.584 84.4038 360.298 86.296C359.139 86.0043 357.922 86.0336 356.779 86.3809C355.635 86.7282 354.608 87.3804 353.807 88.2674C353.006 89.1544 352.461 90.2429 352.232 91.4159C352.002 92.5888 352.097 93.8022 352.505 94.9256L366.998 100.018L382.821 127.89C385.159 129.885 388.144 130.961 391.217 130.917C394.291 130.874 397.243 129.713 399.524 127.653C401.805 125.592 403.259 122.772 403.614 119.719C403.968 116.666 403.2 113.588 401.452 111.059C402.339 110.271 403.092 109.344 403.682 108.315C404.946 107.567 406.05 106.576 406.927 105.398C407.805 104.22 408.44 102.879 408.795 101.454C410.2 95.2472 405.397 88.4722 399.169 87.7432Z" fill="#263238"/>
<path d="M389.575 145.792C388.675 141.257 388.053 138.149 388.064 138.181C388.074 138.213 396.64 134.858 396.018 122.926C395.718 116.987 393.456 107.629 391.355 100.039C389.468 93.1997 383.089 85.6635 376.347 87.8397L355.904 97.8093C353.856 98.4739 353.502 100.403 353.985 102.494V103.566L361.928 136.433L365.284 151.12C365.999 154.135 367.817 156.774 370.381 158.516C372.944 160.258 376.067 160.977 379.134 160.532C380.809 160.296 382.418 159.721 383.863 158.841C385.307 157.961 386.557 156.795 387.535 155.415C388.513 154.034 389.198 152.469 389.549 150.814C389.9 149.159 389.909 147.45 389.575 145.792Z" fill="#FFBE9D"/>
<path d="M391.28 107.972C391.366 108.352 391.303 108.751 391.104 109.086C390.904 109.421 390.584 109.667 390.208 109.773C390.019 109.826 389.821 109.84 389.626 109.814C389.431 109.788 389.243 109.723 389.074 109.623C388.904 109.523 388.757 109.39 388.641 109.231C388.524 109.073 388.441 108.892 388.397 108.701C388.311 108.322 388.374 107.924 388.574 107.591C388.774 107.258 389.094 107.014 389.469 106.911C389.657 106.856 389.855 106.84 390.05 106.865C390.245 106.889 390.433 106.953 390.602 107.052C390.772 107.151 390.919 107.284 391.036 107.442C391.152 107.6 391.236 107.781 391.28 107.972Z" fill="#263238"/>
<path d="M390.348 105.688C390.198 105.924 388.901 105.335 387.314 105.688C385.728 106.042 384.72 107.071 384.506 106.911C384.291 106.75 384.506 106.45 384.945 105.978C385.535 105.355 386.302 104.928 387.143 104.756C387.972 104.577 388.837 104.671 389.608 105.024C390.209 105.27 390.412 105.592 390.348 105.688Z" fill="#263238"/>
<path d="M375.714 111.488C375.8 111.867 375.736 112.264 375.537 112.598C375.337 112.931 375.017 113.175 374.642 113.278C374.457 113.332 374.263 113.349 374.071 113.327C373.88 113.306 373.694 113.246 373.526 113.153C373.357 113.059 373.209 112.933 373.09 112.781C372.97 112.63 372.882 112.456 372.83 112.271C372.744 111.89 372.808 111.491 373.007 111.156C373.207 110.821 373.527 110.575 373.902 110.47C374.088 110.416 374.283 110.4 374.475 110.422C374.667 110.444 374.853 110.505 375.022 110.599C375.19 110.694 375.338 110.821 375.457 110.974C375.576 111.127 375.663 111.301 375.714 111.488Z" fill="#263238"/>
<path d="M374.932 109.473C374.793 109.708 373.485 109.108 371.898 109.473C370.312 109.837 369.304 110.845 369.09 110.695C368.875 110.545 369.09 110.234 369.529 109.751C370.122 109.134 370.888 108.711 371.727 108.54C372.555 108.364 373.418 108.454 374.192 108.797C374.761 109.055 375.007 109.344 374.932 109.473Z" fill="#263238"/>
<path d="M383.004 119.549C383.79 119.116 384.625 118.778 385.491 118.542C385.888 118.413 386.263 118.252 386.273 117.963C386.217 117.537 386.034 117.137 385.748 116.816L383.894 113.964C381.299 109.901 379.327 106.535 379.488 106.46C379.648 106.385 381.889 109.569 384.483 113.632L386.295 116.505C386.651 116.945 386.844 117.494 386.842 118.059C386.81 118.214 386.744 118.359 386.65 118.485C386.555 118.611 386.434 118.714 386.295 118.788C386.085 118.899 385.862 118.982 385.63 119.035C384.782 119.325 383.899 119.498 383.004 119.549Z" fill="#263238"/>
<path d="M388.064 138.181C382.642 139.406 376.986 139.102 371.727 137.302C371.727 137.302 377.344 144.634 388.675 141.129L388.064 138.181Z" fill="#EB996E"/>
<path d="M375.2 107.2C375.093 107.661 373.452 107.65 371.587 108.111C369.722 108.572 368.243 109.269 367.942 108.904C367.814 108.733 368.028 108.283 368.596 107.832C369.351 107.197 370.249 106.752 371.212 106.535C372.167 106.309 373.162 106.309 374.117 106.535C374.878 106.675 375.275 106.986 375.2 107.2Z" fill="#263238"/>
<path d="M389.735 100.629C389.478 101.057 388.106 100.95 386.519 101.261C384.933 101.572 383.679 102.108 383.303 101.797C383.132 101.636 383.303 101.229 383.764 100.725C384.472 100.13 385.328 99.7372 386.241 99.5888C387.139 99.4079 388.069 99.4746 388.931 99.7818C389.585 100.082 389.843 100.414 389.735 100.629Z" fill="#263238"/>
<path d="M360.953 90.1338C361.19 91.2951 361.68 92.3899 362.388 93.3404C363.096 94.2909 364.005 95.0739 365.05 95.6336C366.094 96.1933 367.25 96.5161 368.433 96.579C369.617 96.6419 370.8 96.4434 371.898 95.9976C373.592 95.3115 375.35 94.0251 377.065 94.6469C378.78 95.2687 379.488 97.7128 381.128 98.624C383.54 99.9747 386.488 97.6378 389.179 97.8736C391.323 98.0559 392.941 99.696 394.603 101.09C396.264 102.483 398.559 103.534 400.435 102.526C400.005 100.736 399.368 99.0018 398.537 97.3591C397.699 95.7052 396.312 94.3941 394.614 93.6499C393.67 93.2747 392.652 93.1461 391.751 92.6851C389.811 91.6989 388.943 89.4691 387.538 87.7861C386.616 86.7255 385.454 85.9 384.149 85.378C382.844 84.856 381.434 84.6525 380.034 84.7845C377.719 85.0203 375.521 86.1888 373.184 86.0923C371.458 86.0173 369.808 85.2455 368.082 85.2776C364.726 85.2776 362.207 88.2792 360.342 91.0771" fill="#263238"/>
<path d="M372.251 92.5886C370.707 92.4707 367.556 92.1491 366.516 91.0557C365.459 89.8741 364.111 88.9908 362.606 88.4941C361.101 87.9975 359.492 87.9049 357.94 88.2256C356.4 88.6848 355.048 89.6263 354.083 90.9116C353.118 92.1968 352.591 93.758 352.58 95.3651C350.704 95.8228 348.987 96.7786 347.61 98.1315C346.232 99.4844 345.246 101.184 344.754 103.051C344.255 105.006 344.238 107.053 344.705 109.015C345.172 110.978 346.109 112.797 347.434 114.318C348.078 115.123 348.666 115.972 349.192 116.859C348.465 117.76 347.826 118.73 347.284 119.753C344.829 125.177 351.486 127.257 351.486 127.257C351.486 130.902 354.863 130.88 357.018 130.87C359.173 130.859 360.363 136.616 362.046 136.391L360.341 118.628C360.591 118.725 360.856 118.775 361.124 118.778C365.187 118.853 364.125 111.156 362.817 109.13C364.028 107.623 365.05 105.974 365.862 104.22C366.598 101.538 366.649 98.715 366.012 96.0083C367.373 95.8368 372.916 92.6315 372.251 92.5886Z" fill="#263238"/>
<path d="M360.879 119.571C360.74 119.006 360.461 118.486 360.067 118.059C359.674 117.631 359.178 117.311 358.627 117.127C358.076 116.943 357.487 116.901 356.915 117.006C356.344 117.111 355.808 117.359 355.358 117.727C354.286 118.649 353.718 120.193 354.361 122.776C356.098 129.68 362.669 126.517 362.626 126.324C362.583 126.132 361.629 122.422 360.879 119.571Z" fill="#FFBE9D"/>
<path d="M359.86 124.234C359.86 124.234 359.763 124.352 359.581 124.491C359.328 124.686 359.009 124.774 358.691 124.738C357.898 124.652 356.987 123.666 356.644 122.412C356.48 121.826 356.447 121.211 356.547 120.611C356.558 120.378 356.625 120.151 356.743 119.949C356.86 119.747 357.025 119.577 357.223 119.453C357.353 119.383 357.503 119.36 357.648 119.39C357.793 119.419 357.923 119.498 358.016 119.614C358.155 119.775 358.144 119.925 358.187 119.935C358.23 119.946 358.305 119.775 358.187 119.507C358.105 119.348 357.973 119.22 357.812 119.142C357.585 119.05 357.332 119.05 357.105 119.142C356.835 119.27 356.603 119.464 356.429 119.705C356.254 119.947 356.144 120.229 356.108 120.525C355.969 121.2 355.994 121.899 356.183 122.562C356.302 123.184 356.603 123.758 357.048 124.21C357.492 124.662 358.06 124.972 358.68 125.102C358.882 125.111 359.083 125.073 359.269 124.994C359.454 124.914 359.62 124.794 359.752 124.641C359.892 124.406 359.892 124.245 359.86 124.234Z" fill="#EB996E"/>
<path d="M397.894 109.934C397.894 109.934 398.527 109.451 399.406 108.379C400.619 106.835 401.363 104.974 401.55 103.019C401.692 101.685 401.561 100.335 401.164 99.0528C400.706 97.582 399.858 96.263 398.709 95.2365C397.383 94.0784 395.777 93.2871 394.051 92.9411C392.325 92.5951 390.538 92.7064 388.868 93.264C388.547 93.3712 388.246 93.532 387.946 93.6607C387.646 93.7893 387.378 93.9823 387.099 94.1431L386.671 94.3789V93.9072C386.661 93.0768 386.353 92.2775 385.802 91.656C385.238 91.0528 384.546 90.5839 383.776 90.2839C382.32 89.6771 380.707 89.5568 379.177 89.9408C376.219 90.6162 373.71 91.9669 371.341 92.2456C369.483 92.5685 367.572 92.1862 365.981 91.1736C365.561 90.8848 365.198 90.5215 364.909 90.1016C364.737 89.8122 364.652 89.6514 364.673 89.6407C365.062 90.17 365.536 90.6303 366.077 91.0021C367.643 91.9055 369.481 92.2139 371.255 91.8704C372.49 91.6382 373.697 91.2789 374.857 90.7984C376.22 90.2538 377.616 89.799 379.038 89.437C379.831 89.2452 380.646 89.1623 381.461 89.1904C382.321 89.2358 383.166 89.4318 383.958 89.7693C384.778 90.1195 385.51 90.6467 386.102 91.313C386.736 92.0387 387.093 92.9652 387.11 93.9287L386.681 93.6928L387.571 93.1783C387.903 93.0496 388.214 92.8781 388.557 92.7602C390.317 92.1574 392.205 92.0313 394.03 92.3947C395.854 92.7581 397.55 93.598 398.945 94.8291C400.151 95.9206 401.033 97.3223 401.496 98.8813C401.977 100.534 402.042 102.279 401.685 103.963C401.328 105.646 400.56 107.215 399.449 108.529C399.096 108.932 398.696 109.292 398.259 109.601C398.151 109.726 398.029 109.838 397.894 109.934Z" fill="#455A64"/>
<path d="M396.5 85.6957C395.796 85.3384 395.046 85.0822 394.27 84.9346C393.384 84.8134 392.482 84.8978 391.633 85.1811C390.534 85.5173 389.58 86.2117 388.921 87.1536L388.653 87.5288L388.492 87.1C387.933 85.7822 387.032 84.6376 385.882 83.784C384.733 82.9304 383.376 82.3987 381.953 82.2439C379.718 82.1598 377.515 82.7989 375.671 84.0663C374.101 85.09 372.431 85.952 370.686 86.6391C369.484 87.0939 368.189 87.2485 366.913 87.0893C366.573 87.0265 366.239 86.9332 365.916 86.8106C365.702 86.7141 365.584 86.6605 365.594 86.6391C365.605 86.6176 366.077 86.7784 366.945 86.8642C368.178 86.9412 369.413 86.7397 370.558 86.2746C372.253 85.5355 373.878 84.6457 375.414 83.616C376.363 83.0269 377.368 82.5349 378.416 82.1474C379.567 81.7276 380.797 81.5701 382.017 81.6864C383.538 81.8524 384.985 82.4276 386.204 83.3507C387.424 84.2738 388.37 85.5102 388.943 86.9285H388.524C389.262 85.9211 390.314 85.1891 391.515 84.8488C392.428 84.5842 393.39 84.5365 394.324 84.7095C394.916 84.8218 395.482 85.0397 395.996 85.3527C396.18 85.4424 396.349 85.5579 396.5 85.6957Z" fill="#455A64"/>
<path d="M382.382 122.723C382.131 122.513 381.84 122.359 381.526 122.27C381.212 122.182 380.882 122.161 380.559 122.208C380.182 122.289 379.826 122.448 379.513 122.675C379.201 122.902 378.94 123.192 378.748 123.527C378.748 123.527 378.694 123.58 378.683 123.612C378.536 123.857 378.468 124.142 378.49 124.427C378.537 124.738 378.659 125.032 378.846 125.284C379.033 125.537 379.279 125.739 379.562 125.874C380.016 126.104 380.529 126.188 381.031 126.115C381.534 126.042 382.002 125.816 382.371 125.467C382.721 125.097 382.918 124.607 382.92 124.097C382.922 123.587 382.729 123.096 382.382 122.723Z" fill="#1BC89E"/>
<path d="M382.918 126.056C382.832 126.056 382.735 125.735 382.446 125.295C382.097 124.706 381.576 124.238 380.953 123.954C380.33 123.671 379.635 123.585 378.962 123.709C378.437 123.784 378.115 123.934 378.083 123.859C378.051 123.784 378.297 123.527 378.876 123.323C379.634 123.079 380.455 123.125 381.181 123.452C381.913 123.778 382.493 124.372 382.8 125.113C383.025 125.671 382.993 126.046 382.918 126.056Z" fill="#263238"/>
<path d="M361.04 127.386C361.04 127.386 361.35 127.922 360.943 128.736C360.713 129.224 360.307 129.607 359.807 129.808C359.495 129.92 359.161 129.958 358.832 129.919C358.502 129.88 358.187 129.765 357.909 129.583C357.627 129.412 357.389 129.178 357.212 128.899C357.035 128.62 356.925 128.304 356.891 127.975C356.859 127.446 357.014 126.922 357.33 126.496C357.888 125.788 358.51 125.767 358.51 125.831C358.51 125.896 358.038 126.078 357.663 126.721C357.446 127.081 357.355 127.504 357.405 127.922C357.446 128.166 357.538 128.4 357.677 128.605C357.816 128.81 357.997 128.983 358.209 129.112C358.419 129.246 358.654 129.334 358.9 129.371C359.145 129.408 359.396 129.392 359.635 129.326C360.031 129.184 360.372 128.922 360.611 128.576C361.029 127.911 360.954 127.386 361.04 127.386Z" fill="#1BC89E"/>
<path d="M357.426 126.968C357.479 126.968 357.426 127.332 356.922 127.568C356.674 127.671 356.402 127.701 356.138 127.654C355.874 127.607 355.629 127.486 355.432 127.305C355.235 127.123 355.094 126.889 355.025 126.63C354.957 126.371 354.964 126.097 355.046 125.842C355.151 125.552 355.351 125.306 355.614 125.145C356.053 124.877 356.386 124.984 356.375 125.049C356.364 125.113 356.118 125.188 355.85 125.456C355.718 125.621 355.637 125.821 355.619 126.031C355.6 126.241 355.644 126.452 355.745 126.638C355.845 126.823 355.998 126.975 356.185 127.074C356.372 127.172 356.583 127.214 356.793 127.193C357.157 127.118 357.35 126.925 357.426 126.968Z" fill="#1BC89E"/>
<path d="M369.208 222.172C369.208 222.172 395.751 223.716 411.445 223.855C423.59 223.973 429.015 220.746 431.437 212.931C433.474 206.381 429.1 193.807 429.1 193.807C420.878 193.807 415.808 194.986 410.523 197.462L411.927 203.208L369.133 206.896L369.208 222.172Z" fill="#FFBE9D"/>
<path d="M420.845 209.34C419.694 207.843 418.35 206.506 416.847 205.363C415.234 204.377 413.496 203.612 411.68 203.09C412.252 203.008 412.835 203.059 413.384 203.24C414.733 203.559 416.012 204.122 417.158 204.902C418.305 205.684 419.298 206.673 420.084 207.818C420.684 208.697 420.91 209.308 420.845 209.34Z" fill="#EB996E"/>
<path d="M359.495 197.419C359.495 197.419 351.283 199.392 345.248 203.423L351.68 220.853C353.824 226.578 360.374 229.429 365.616 226.428C373.688 221.807 376.54 208.343 376.54 208.343L385.405 169.88L370.708 160.671L359.549 197.419" fill="#FFBE9D"/>
<path d="M370.655 160.671L371.256 148.022L367.965 135.158C367.782 134.45 367.697 133.56 368.275 133.132C368.563 132.912 368.917 132.798 369.279 132.809C369.64 132.821 369.986 132.958 370.259 133.196C371.148 134.118 375.436 145.363 375.436 145.363C375.436 145.363 381.943 141.461 383.101 141.268C384.259 141.075 385.706 144.581 385.803 144.849C385.845 145.634 385.845 146.422 385.803 147.207C385.803 147.207 389.823 147.325 390.187 147.872C390.479 148.989 390.634 150.137 390.648 151.291C390.648 151.291 392.353 151.838 392.621 153.124C392.889 154.411 393.446 156.533 392.621 157.005C391.795 157.477 390.123 158.399 390.123 158.399C390.123 158.399 389.447 164.959 389.265 165.56C389.083 166.16 385.32 169.848 385.32 169.848L370.655 160.671Z" fill="#FFBE9D"/>
<path d="M356.977 226.685C356.977 226.685 357.373 226.921 358.209 227.189C359.432 227.573 360.726 227.675 361.994 227.489C364.03 227.199 365.938 226.319 367.482 224.959C369.523 223.108 371.246 220.935 372.585 218.527C373.373 217.112 374.037 215.63 374.568 214.1C375.126 212.416 375.587 210.701 375.951 208.965C376.787 205.352 377.698 201.461 378.663 197.323C380.593 189.058 382.758 179.817 385.095 169.858V169.783H385.149C385.888 169.054 386.628 168.315 387.368 167.543C387.732 167.157 388.097 166.771 388.44 166.374C388.611 166.171 388.794 165.967 388.933 165.763C389.041 165.562 389.104 165.338 389.115 165.109C389.405 162.965 389.63 160.746 389.866 158.506V158.367L389.994 158.302L392.042 157.155C392.192 157.059 392.428 156.952 392.524 156.866C392.627 156.773 392.695 156.648 392.717 156.512C392.767 156.156 392.767 155.796 392.717 155.44C392.613 154.654 392.452 153.876 392.235 153.114C391.87 152.447 391.258 151.95 390.53 151.731L390.348 151.667V151.484C390.348 150.863 390.284 150.219 390.209 149.587C390.179 149.27 390.133 148.955 390.069 148.644C390.044 148.506 390.001 148.373 389.941 148.247C389.941 148.172 389.941 148.247 389.876 148.183C389.818 148.152 389.757 148.127 389.694 148.108C388.405 147.827 387.09 147.679 385.77 147.668H385.492V147.389C385.492 146.725 385.492 145.985 385.492 145.245C385.448 144.993 385.36 144.75 385.234 144.527C385.127 144.27 384.999 144.023 384.87 143.766C384.619 143.269 384.325 142.796 383.991 142.351C383.839 142.143 383.655 141.962 383.444 141.815C383.367 141.749 383.271 141.708 383.17 141.697C383.069 141.685 382.967 141.704 382.876 141.751C382.357 141.949 381.852 142.182 381.365 142.447C379.371 143.519 377.42 144.591 375.511 145.749L375.233 145.921L375.115 145.62C374.107 143.08 373.099 140.571 372.113 138.116C371.62 136.884 371.138 135.651 370.645 134.44C370.568 134.168 370.418 133.924 370.209 133.734C370 133.544 369.743 133.417 369.465 133.368C369.209 133.282 368.932 133.287 368.678 133.381C368.425 133.474 368.211 133.651 368.072 133.882C367.938 134.112 367.882 134.379 367.911 134.643C367.911 134.879 368.061 135.244 368.125 135.533C368.297 136.155 368.458 136.766 368.618 137.377C368.94 138.61 369.251 139.821 369.573 141.022C370.201 143.437 370.82 145.796 371.427 148.097V148.172C371.213 152.574 371.009 156.791 370.816 160.821V160.8L361.05 192.574L358.295 201.418C357.974 202.415 357.727 203.198 357.555 203.744C357.384 204.291 357.277 204.527 357.277 204.527C357.277 204.527 357.33 204.248 357.48 203.723L358.156 201.375C358.778 199.306 359.667 196.315 360.793 192.499C363.108 184.824 366.399 173.868 370.377 160.661V160.714C370.562 156.698 370.752 152.481 370.945 148.065V148.14C370.334 145.835 369.701 143.476 369.069 141.075L368.104 137.43C367.943 136.819 367.782 136.198 367.611 135.587C367.519 135.266 367.443 134.94 367.386 134.611C367.346 134.239 367.425 133.864 367.611 133.539C367.809 133.205 368.115 132.948 368.479 132.81C368.839 132.705 369.22 132.693 369.585 132.775C369.951 132.858 370.29 133.032 370.57 133.282C370.839 133.534 371.038 133.852 371.148 134.204L372.617 137.881C373.614 140.346 374.611 142.855 375.629 145.385L375.233 145.245C377.152 144.109 379.081 142.973 381.118 141.911C381.633 141.642 382.163 141.402 382.705 141.193C382.874 141.123 383.058 141.097 383.241 141.118C383.424 141.145 383.6 141.21 383.755 141.311C384.013 141.496 384.241 141.72 384.43 141.976C384.789 142.445 385.101 142.947 385.363 143.476C385.503 143.744 385.631 144.002 385.749 144.27C385.902 144.554 386.003 144.862 386.049 145.181C386.049 145.942 386.049 146.65 386.049 147.325L385.781 147.036C387.159 147.045 388.532 147.203 389.876 147.507C389.969 147.539 390.058 147.579 390.144 147.625C390.262 147.689 390.359 147.786 390.423 147.904C390.506 148.078 390.567 148.261 390.605 148.451C390.67 148.794 390.712 149.115 390.755 149.448C390.82 150.101 390.863 150.745 390.895 151.388L390.702 151.131C391.14 151.259 391.548 151.476 391.9 151.767C392.252 152.058 392.541 152.418 392.749 152.824C392.984 153.639 393.156 154.47 393.264 155.311C393.338 155.741 393.338 156.179 393.264 156.608C393.217 156.868 393.08 157.104 392.878 157.273C392.702 157.391 392.519 157.498 392.331 157.595L390.294 158.656L390.434 158.452C390.187 160.693 389.962 162.89 389.662 165.067L389.598 165.485C389.573 165.654 389.502 165.813 389.394 165.946C389.236 166.18 389.06 166.402 388.869 166.61C388.504 167.018 388.14 167.414 387.797 167.8C387.057 168.572 386.317 169.312 385.567 170.041L385.642 169.912C383.283 179.86 381.097 189.101 379.135 197.366C378.159 201.493 377.227 205.384 376.369 208.986C376.002 210.736 375.53 212.461 374.954 214.153C374.402 215.698 373.721 217.194 372.917 218.624C371.548 221.063 369.784 223.258 367.697 225.12C366.106 226.489 364.15 227.361 362.069 227.628C360.773 227.802 359.455 227.67 358.22 227.243C357.906 227.127 357.601 226.987 357.309 226.824L356.977 226.685Z" fill="#EB996E"/>
<path d="M385.813 147.239C385.813 147.314 385.449 147.357 384.881 147.379C384.159 147.392 383.441 147.478 382.737 147.636C382.057 147.803 381.43 148.138 380.914 148.611C380.528 148.976 380.357 149.287 380.271 149.255C380.185 149.222 380.271 148.836 380.625 148.343C381.124 147.719 381.819 147.281 382.597 147.1C383.348 146.915 384.127 146.878 384.891 146.993C385.47 147.068 385.813 147.164 385.813 147.239Z" fill="#EB996E"/>
<path d="M382.704 147.357C382.565 147.303 382.554 146.971 382.704 146.617C382.854 146.264 383.069 146.017 383.208 146.071C383.347 146.124 383.369 146.457 383.208 146.81C383.047 147.164 382.811 147.411 382.704 147.357Z" fill="#EB996E"/>
<path d="M390.83 151.248C389.79 151.57 388.703 151.719 387.614 151.688C387.272 151.677 386.931 151.747 386.622 151.895C386.312 152.042 386.042 152.262 385.835 152.535C385.556 152.974 385.653 153.339 385.567 153.36C385.481 153.382 385.224 153.007 385.492 152.363C385.639 152.001 385.909 151.702 386.253 151.516C386.65 151.299 387.088 151.167 387.539 151.131C388.634 150.963 389.75 151.003 390.83 151.248Z" fill="#EB996E"/>
<path d="M390.123 155.108C390.273 155.108 390.359 155.901 390.316 156.876C390.273 157.852 390.112 158.624 389.962 158.624C389.812 158.624 389.715 157.82 389.758 156.844C389.801 155.869 389.962 155.097 390.123 155.108Z" fill="#EB996E"/>
<path d="M394.57 183.977L395.524 180.696C395.568 180.546 395.65 180.41 395.762 180.301C395.875 180.192 396.013 180.115 396.165 180.076C396.316 180.037 396.475 180.038 396.626 180.079C396.777 180.12 396.914 180.2 397.025 180.31L398.279 181.586L399.051 178.488C399.097 178.309 399.196 178.148 399.336 178.028C399.476 177.907 399.649 177.832 399.833 177.814C400.016 177.795 400.201 177.833 400.363 177.923C400.524 178.013 400.654 178.15 400.734 178.316L402.482 181.983L394.57 183.977Z" fill="white"/>
<path d="M402.505 183.387C401.305 183.967 400.032 184.378 398.72 184.609C397.452 185.024 396.131 185.255 394.797 185.295C397.265 184.304 399.859 183.662 402.505 183.387Z" fill="white"/>
<path d="M338.752 165.088C338.752 165.088 338.355 165.495 337.798 166.364C337.049 167.6 336.557 168.975 336.351 170.405C336.045 172.535 335.98 174.693 336.158 176.837C336.276 179.271 336.469 181.929 336.769 184.716C337.277 189.476 338.032 194.207 339.031 198.888C339.406 200.689 339.749 202.104 339.985 203.176C340.092 203.626 340.188 204.002 340.263 204.323C340.339 204.645 340.349 204.731 340.349 204.731C340.349 204.731 340.296 204.602 340.221 204.345C340.146 204.087 340.028 203.637 339.91 203.198C339.642 202.201 339.277 200.764 338.838 198.963C337.796 194.283 337.019 189.548 336.511 184.781C336.211 181.993 336.029 179.324 335.922 176.891C335.759 174.745 335.838 172.587 336.158 170.459C336.388 169.01 336.913 167.623 337.701 166.385C337.992 165.908 338.345 165.471 338.752 165.088Z" fill="white"/>
<path d="M361.318 150.487L361.071 150.616L360.363 150.959C359.752 151.248 358.863 151.677 357.801 152.267C355.035 153.81 352.348 155.491 349.751 157.305C346.685 159.449 343.973 161.4 341.989 162.815L339.642 164.477L338.988 164.916C338.915 164.975 338.836 165.025 338.752 165.067C338.813 164.995 338.885 164.933 338.966 164.884L339.588 164.413L341.893 162.687C343.855 161.24 346.556 159.224 349.622 157.123C352.224 155.301 354.93 153.633 357.726 152.128C358.798 151.559 359.699 151.152 360.331 150.884L361.05 150.584C361.264 150.509 361.264 150.477 361.318 150.487Z" fill="white"/>
<path d="M412.44 157.466C412.373 157.429 412.312 157.382 412.258 157.327L411.776 156.909C411.178 156.404 410.552 155.935 409.9 155.504C407.723 154.117 405.414 152.95 403.007 152.02C400.606 151.07 398.155 150.254 395.663 149.576C394.699 149.308 393.927 149.115 393.38 148.987L392.769 148.826C392.695 148.81 392.623 148.785 392.555 148.751H392.78L393.402 148.869C393.948 148.976 394.731 149.147 395.696 149.394C398.211 150.029 400.682 150.827 403.092 151.784C405.514 152.714 407.826 153.907 409.985 155.344C410.884 155.952 411.708 156.665 412.44 157.466Z" fill="white"/>
<path d="M361.618 239.292C361.472 239.266 361.331 239.219 361.2 239.152C360.827 238.989 360.469 238.795 360.128 238.574C359.55 238.228 359.047 237.771 358.646 237.23C358.245 236.69 357.954 236.075 357.791 235.422C357.496 234.104 357.643 232.725 358.209 231.498C358.372 231.117 358.581 230.757 358.831 230.426C359.002 230.201 359.12 230.094 359.131 230.105C358.838 230.562 358.577 231.038 358.348 231.531C357.85 232.735 357.734 234.064 358.016 235.336C358.323 236.593 359.087 237.69 360.16 238.413C361.05 239.056 361.639 239.249 361.618 239.292Z" fill="white"/>
<path d="M358.209 227.682C358.437 228.108 358.606 228.562 358.713 229.033C358.881 229.484 358.982 229.957 359.013 230.437C358.769 230.022 358.596 229.569 358.498 229.097C358.323 228.645 358.225 228.167 358.209 227.682Z" fill="white"/>
<path d="M372.701 468.035L405.397 467.874L404.808 354.832L404.497 239.839L360.191 239.27L352.226 254.278C348.967 260.312 346.89 266.912 346.105 273.724C345.569 278.934 349.471 295.872 350.822 300.16L363.01 338.816L372.701 468.035Z" fill="#263238"/>
<path d="M414.091 239.978L450.025 337.927C452.154 344.238 452.861 350.941 452.096 357.557C451.33 364.174 449.111 370.539 445.598 376.197L403.875 457.669L380.42 428.318L415.324 355.422L384.558 305.52L389.736 240.128L404.229 239.892L414.091 239.978Z" fill="#263238"/>
<path d="M401.518 272.792C401.518 272.792 401.518 272.963 401.518 273.296C401.518 273.628 401.571 274.143 401.614 274.775C401.689 276.094 401.786 277.991 401.914 280.446C402.161 285.409 402.504 292.538 402.986 301.339C403.469 310.14 403.876 320.635 404.412 332.32C404.669 338.152 404.948 344.273 405.227 350.619C405.43 353.835 405.345 357.051 405.377 360.267C405.409 363.483 405.377 366.871 405.377 370.237C405.377 397.176 405.463 421.564 405.495 439.241C405.495 448.053 405.495 455.193 405.495 460.156C405.495 462.611 405.495 464.519 405.495 465.848C405.495 466.47 405.495 466.92 405.495 467.328C405.495 467.735 405.495 467.832 405.495 467.832C405.495 467.832 405.495 467.66 405.495 467.328V465.848C405.495 464.519 405.495 462.632 405.43 460.156C405.43 455.193 405.345 448.064 405.28 439.252C405.205 421.575 405.109 397.187 405.002 370.247C405.002 366.881 405.002 363.558 405.002 360.278C405.002 356.997 405.066 353.76 404.862 350.63C404.594 344.294 404.326 338.173 404.08 332.341C403.587 320.678 403.136 310.183 402.772 301.35C402.407 292.517 402.139 285.42 401.936 280.457C401.85 278.013 401.786 276.104 401.743 274.775C401.743 274.143 401.743 273.703 401.743 273.296C401.743 272.888 401.518 272.792 401.518 272.792Z" fill="#455A64"/>
<path d="M400.691 241.908C400.817 242.252 400.893 242.613 400.917 242.98C401.035 243.666 401.163 244.663 401.313 245.906C401.592 248.382 401.892 251.824 402.064 255.629C402.235 259.435 402.246 262.887 402.192 265.384C402.192 266.628 402.117 267.646 402.064 268.343C402.075 268.705 402.031 269.066 401.935 269.415C401.8 268.076 401.753 266.729 401.796 265.384C401.796 262.887 401.678 259.456 401.506 255.651C401.335 251.845 401.099 248.425 400.917 246.003C400.764 244.643 400.689 243.276 400.691 241.908Z" fill="#455A64"/>
<path d="M393.489 244.116C393.543 244.191 392.932 244.47 392.76 245.338C392.712 245.573 392.725 245.817 392.798 246.046C392.872 246.275 393.002 246.482 393.178 246.646C393.39 246.843 393.655 246.975 393.94 247.026C394.225 247.078 394.519 247.046 394.786 246.935C395.043 246.803 395.258 246.601 395.405 246.353C395.553 246.104 395.628 245.82 395.622 245.531C395.613 245.291 395.541 245.058 395.416 244.853C395.29 244.648 395.114 244.479 394.904 244.362C394.468 244.151 393.982 244.066 393.5 244.116C393.5 244.116 393.607 243.976 393.886 243.891C394.288 243.793 394.711 243.834 395.086 244.009C395.386 244.133 395.645 244.338 395.834 244.602C396.023 244.865 396.136 245.175 396.158 245.499C396.201 245.898 396.117 246.3 395.919 246.649C395.721 246.998 395.418 247.276 395.054 247.445C394.689 247.613 394.281 247.662 393.887 247.586C393.493 247.51 393.133 247.312 392.857 247.021C392.629 246.794 392.467 246.51 392.39 246.198C392.312 245.886 392.322 245.559 392.417 245.252C392.525 244.851 392.767 244.499 393.103 244.255C393.318 244.105 393.478 244.084 393.489 244.116Z" fill="#455A64"/>
<path d="M376.337 242.176C376.495 242.513 376.593 242.876 376.626 243.248C376.799 244.21 376.831 245.192 376.723 246.163C376.568 247.61 376.151 249.016 375.49 250.312C374.691 251.924 373.51 253.315 372.048 254.364C370.586 255.413 368.89 256.086 367.107 256.326C365.68 256.539 364.226 256.484 362.819 256.165C361.867 255.958 360.95 255.615 360.096 255.147C359.773 254.994 359.476 254.791 359.217 254.546C360.402 255.08 361.637 255.493 362.904 255.779C364.429 256.096 366.003 256.094 367.527 255.772C369.05 255.45 370.491 254.816 371.757 253.909C373.023 253.003 374.088 251.843 374.883 250.505C375.679 249.166 376.188 247.677 376.38 246.131C376.506 244.815 376.491 243.489 376.337 242.176Z" fill="#455A64"/>
<path d="M418.401 251.566C417.701 251.647 416.993 251.562 416.332 251.32C414.713 250.81 413.258 249.877 412.119 248.618C410.969 247.365 410.18 245.824 409.836 244.159C409.667 243.479 409.667 242.769 409.836 242.09C409.932 242.09 409.943 242.872 410.264 244.073C410.699 245.624 411.489 247.053 412.572 248.246C413.655 249.439 415.001 250.363 416.503 250.944C417.618 251.384 418.412 251.459 418.401 251.566Z" fill="#455A64"/>
<path d="M431.169 357.158C430.632 357.771 429.989 358.283 429.272 358.67C428.519 359.147 427.699 359.509 426.839 359.742C425.756 360.029 424.614 359.999 423.547 359.656C421.675 358.95 420.071 357.675 418.959 356.011C418.449 355.386 418.027 354.693 417.705 353.953C418.284 354.505 418.808 355.112 419.27 355.765C420.409 357.274 421.946 358.436 423.708 359.12C424.608 359.36 425.547 359.415 426.469 359.28C427.39 359.146 428.275 358.825 429.068 358.337C429.746 357.904 430.447 357.511 431.169 357.158Z" fill="#455A64"/>
<path d="M422.978 363.408C421.711 362.096 420.58 360.659 419.601 359.12C418.474 357.687 417.49 356.146 416.664 354.521C417.94 355.829 419.075 357.266 420.052 358.809C421.188 360.234 422.169 361.775 422.978 363.408Z" fill="#455A64"/>
<path d="M368.05 276.576C367.9 276.63 367.525 276.019 367.193 275.193C366.86 274.368 366.721 273.671 366.86 273.607C367 273.542 367.386 274.164 367.707 274.989C368.029 275.815 368.19 276.576 368.05 276.576Z" fill="#FAFAFA"/>
<path d="M388.804 279.556C388.643 279.556 388.525 279.031 388.525 278.377C388.525 277.723 388.643 277.187 388.804 277.187C388.965 277.187 389.083 277.723 389.083 278.377C389.083 279.031 388.954 279.556 388.804 279.556Z" fill="#FAFAFA"/>
<path d="M380.27 290.834C380.12 290.834 379.949 290.19 379.895 289.365C379.841 288.54 379.895 287.875 380.066 287.864C380.238 287.853 380.399 288.507 380.452 289.333C380.506 290.158 380.42 290.823 380.27 290.834Z" fill="#FAFAFA"/>
<path d="M364.684 299.088C364.555 299.184 364.116 298.788 363.537 298.38C362.958 297.973 362.465 297.662 362.465 297.512C362.465 297.362 363.172 297.448 363.826 297.92C364.48 298.391 364.813 299.088 364.684 299.088Z" fill="#FAFAFA"/>
<path d="M392.158 309.604C392.029 309.519 392.158 309.058 392.522 308.532C392.887 308.007 393.219 307.707 393.348 307.793C393.477 307.878 393.348 308.35 392.983 308.865C392.619 309.379 392.287 309.69 392.158 309.604Z" fill="#FAFAFA"/>
<path d="M375.201 312.574C375.051 312.574 374.922 311.684 374.922 310.601C374.922 309.519 375.051 308.618 375.201 308.618C375.351 308.618 375.479 309.508 375.479 310.601C375.479 311.695 375.319 312.574 375.201 312.574Z" fill="#FAFAFA"/>
<path d="M369.646 324.602C369.56 324.719 369.003 324.473 368.403 324.033C367.802 323.594 367.331 323.144 367.47 323.015C367.609 322.886 368.124 323.144 368.724 323.583C369.324 324.023 369.743 324.473 369.646 324.602Z" fill="#FAFAFA"/>
<path d="M386.82 328.782C386.885 328.922 386.542 329.211 386.048 329.436C385.555 329.661 385.105 329.715 385.041 329.576C384.976 329.436 385.33 329.147 385.823 328.922C386.316 328.697 386.767 328.643 386.82 328.782Z" fill="#FAFAFA"/>
<path d="M375.2 348.4C375.071 348.464 374.513 347.639 373.967 346.545C373.42 345.452 373.088 344.509 373.227 344.401C373.366 344.294 373.924 345.163 374.46 346.256C374.996 347.349 375.296 348.282 375.2 348.4Z" fill="#FAFAFA"/>
<path d="M394.143 346.578C394.003 346.503 394.25 345.784 394.679 344.959C395.107 344.133 395.59 343.533 395.751 343.608C395.911 343.683 395.643 344.401 395.204 345.227C394.764 346.052 394.271 346.653 394.143 346.578Z" fill="#FAFAFA"/>
<path d="M385.834 363.183C385.673 363.183 385.695 362.315 385.523 361.307C385.352 360.299 385.094 359.495 385.244 359.42C385.395 359.345 385.909 360.106 386.081 361.221C386.252 362.336 385.984 363.215 385.834 363.183Z" fill="#FAFAFA"/>
<path d="M376.937 372.67C376.829 372.777 376.293 372.37 375.747 371.77C375.2 371.169 374.846 370.601 374.964 370.494C375.082 370.387 375.607 370.794 376.154 371.394C376.701 371.995 377.054 372.563 376.937 372.67Z" fill="#FAFAFA"/>
<path d="M398.527 376.272C398.42 376.165 398.817 375.586 399.417 374.975C400.017 374.364 400.575 373.967 400.693 374.074C400.811 374.182 400.403 374.771 399.814 375.372C399.224 375.972 398.645 376.379 398.527 376.272Z" fill="#FAFAFA"/>
<path d="M386.113 390.476C385.962 390.476 385.962 389.629 386.113 388.643C386.263 387.657 386.498 386.885 386.659 386.906C386.82 386.928 386.809 387.742 386.659 388.729C386.509 389.715 386.263 390.497 386.113 390.476Z" fill="#FAFAFA"/>
<path d="M377.761 397.369C377.622 397.444 377.15 396.887 376.689 396.125C376.228 395.364 375.992 394.689 376.121 394.614C376.249 394.539 376.721 395.086 377.193 395.847C377.664 396.608 377.89 397.283 377.761 397.369Z" fill="#FAFAFA"/>
<path d="M397.884 406.063C397.981 406.192 397.434 406.738 396.662 407.285C395.89 407.832 395.215 408.175 395.118 408.046C395.022 407.917 395.579 407.371 396.34 406.824C397.102 406.277 397.798 405.945 397.884 406.063Z" fill="#FAFAFA"/>
<path d="M381.117 417.351C380.967 417.297 381.117 416.44 381.256 415.368C381.396 414.296 381.31 413.417 381.471 413.395C381.632 413.374 381.91 414.274 381.803 415.421C381.696 416.569 381.256 417.415 381.117 417.351Z" fill="#FAFAFA"/>
<path d="M387.817 433.56C387.688 433.656 387.238 433.292 386.799 432.745C386.359 432.198 386.113 431.673 386.231 431.576C386.348 431.48 386.799 431.844 387.238 432.391C387.678 432.938 387.935 433.463 387.817 433.56Z" fill="#FAFAFA"/>
<path d="M380.495 444.43C380.366 444.516 379.776 443.883 379.176 443.004C378.576 442.125 378.201 441.353 378.319 441.267C378.436 441.182 379.037 441.814 379.637 442.693C380.237 443.572 380.623 444.344 380.495 444.43Z" fill="#FAFAFA"/>
<path d="M400.659 430.783C400.52 430.73 400.53 430.333 400.659 429.904C400.788 429.475 401.077 429.154 401.227 429.207C401.377 429.261 401.356 429.658 401.227 430.097C401.099 430.537 400.809 430.848 400.659 430.783Z" fill="#FAFAFA"/>
<path d="M391.763 456.672C391.624 456.597 391.892 455.836 392.106 454.882C392.321 453.928 392.396 453.124 392.556 453.113C392.717 453.102 392.878 453.971 392.653 455C392.428 456.029 391.892 456.758 391.763 456.672Z" fill="#FAFAFA"/>
<path d="M397.552 291.005C397.412 291.069 397.069 290.641 396.791 290.04C396.512 289.44 396.394 288.904 396.533 288.84C396.673 288.775 397.016 289.204 397.294 289.805C397.573 290.405 397.713 290.941 397.552 291.005Z" fill="#FAFAFA"/>
<path d="M382.704 257.623C382.79 257.752 382.04 258.352 381.236 259.21C380.432 260.067 379.885 260.861 379.746 260.785C379.606 260.71 379.971 259.713 380.818 258.834C381.665 257.955 382.597 257.484 382.704 257.623Z" fill="#FAFAFA"/>
<path d="M395.922 257.28C395.761 257.28 395.515 256.669 395.14 255.94C394.764 255.211 394.421 254.611 394.539 254.504C394.657 254.396 395.236 254.868 395.611 255.683C395.986 256.497 396.061 257.194 395.922 257.28Z" fill="#FAFAFA"/>
<path d="M354.649 268.118C354.51 268.054 354.649 267.346 354.982 266.531C355.314 265.717 355.679 265.084 355.829 265.148C355.979 265.213 355.829 265.91 355.496 266.735C355.164 267.56 354.832 268.172 354.649 268.118Z" fill="#FAFAFA"/>
<path d="M355.99 284.305C355.883 284.423 355.272 284.08 354.618 283.533C353.964 282.987 353.546 282.461 353.61 282.333C353.674 282.204 354.328 282.558 354.982 283.104C355.636 283.651 356.086 284.187 355.99 284.305Z" fill="#FAFAFA"/>
<path d="M383.068 244.77C382.929 244.77 382.629 244.427 382.414 243.88C382.2 243.333 382.136 242.808 382.275 242.808C382.414 242.808 382.715 243.151 382.929 243.698C383.143 244.244 383.208 244.716 383.068 244.77Z" fill="#FAFAFA"/>
<path d="M408.999 252.681C408.849 252.681 408.86 252.006 408.999 251.245C409.139 250.484 409.417 249.883 409.567 249.915C409.717 249.948 409.707 250.601 409.567 251.363C409.428 252.124 409.149 252.713 408.999 252.681Z" fill="#FAFAFA"/>
<path d="M415.088 264.934C414.949 264.87 415.142 264.076 415.528 263.144C415.914 262.211 416.332 261.514 416.471 261.568C416.61 261.622 416.471 262.426 416.042 263.358C415.613 264.291 415.238 264.988 415.088 264.934Z" fill="#FAFAFA"/>
<path d="M410.747 274.818C410.608 274.882 410.093 274.143 409.6 273.167C409.107 272.192 408.828 271.323 408.967 271.259C409.107 271.195 409.611 271.934 410.104 272.91C410.597 273.885 410.886 274.743 410.747 274.818Z" fill="#FAFAFA"/>
<path d="M420.03 284.702C419.891 284.648 420.03 284.026 420.266 283.319C420.502 282.611 420.877 282.075 421.027 282.129C421.177 282.183 421.027 282.804 420.791 283.512C420.555 284.219 420.223 284.755 420.03 284.702Z" fill="#FAFAFA"/>
<path d="M411.735 294.382C411.606 294.468 411.274 294.178 411.006 293.749C410.738 293.321 410.609 292.892 410.748 292.806C410.888 292.72 411.199 293.01 411.477 293.449C411.756 293.889 411.863 294.307 411.735 294.382Z" fill="#FAFAFA"/>
<path d="M413.502 314.364C413.395 314.46 412.719 313.935 412.012 313.163C411.304 312.392 410.822 311.695 410.94 311.587C411.058 311.48 411.722 312.016 412.43 312.788C413.137 313.56 413.62 314.257 413.502 314.364Z" fill="#FAFAFA"/>
<path d="M424.383 302.883C424.265 302.979 423.675 302.443 423.075 301.671C422.475 300.9 422.089 300.214 422.207 300.117C422.325 300.021 422.914 300.567 423.515 301.328C424.115 302.09 424.512 302.797 424.383 302.883Z" fill="#FAFAFA"/>
<path d="M430.353 318.716C430.214 318.652 430.461 317.848 430.9 316.926C431.34 316.004 431.801 315.297 431.972 315.361C432.144 315.425 431.876 316.24 431.436 317.162C430.997 318.084 430.493 318.791 430.353 318.716Z" fill="#FAFAFA"/>
<path d="M417.661 331.752C417.522 331.827 417.029 331.237 416.343 330.605C415.657 329.972 415.024 329.533 415.089 329.372C415.153 329.211 415.968 329.501 416.718 330.197C417.468 330.894 417.79 331.677 417.661 331.752Z" fill="#FAFAFA"/>
<path d="M418.455 345.184C418.455 345.334 417.919 345.463 417.265 345.463C416.611 345.463 416.086 345.334 416.086 345.184C416.086 345.034 416.611 344.905 417.265 344.905C417.919 344.905 418.455 345.034 418.455 345.184Z" fill="#FAFAFA"/>
<path d="M431.5 341.432C431.361 341.357 431.64 340.682 431.843 339.845C432.047 339.009 432.133 338.28 432.294 338.27C432.455 338.259 432.626 339.041 432.39 339.974C432.154 340.907 431.618 341.518 431.5 341.432Z" fill="#FAFAFA"/>
<path d="M444.462 345.945C444.322 345.999 443.926 345.238 443.583 344.262C443.24 343.287 443.079 342.45 443.218 342.408C443.357 342.365 443.765 343.104 444.108 344.08C444.451 345.055 444.612 345.892 444.462 345.945Z" fill="#FAFAFA"/>
<path d="M442.393 364.384C442.264 364.308 442.597 363.408 443.133 362.368C443.669 361.328 444.205 360.546 444.365 360.621C444.526 360.696 444.172 361.596 443.626 362.625C443.079 363.655 442.532 364.48 442.393 364.384Z" fill="#FAFAFA"/>
<path d="M430.569 375.2C430.429 375.254 429.99 374.514 429.583 373.538C429.175 372.563 428.971 371.727 429.122 371.662C429.272 371.598 429.7 372.348 430.097 373.324C430.494 374.299 430.708 375.2 430.569 375.2Z" fill="#FAFAFA"/>
<path d="M417.47 379.392C417.47 379.542 417.019 379.67 416.473 379.67C415.926 379.67 415.486 379.542 415.486 379.392C415.486 379.241 415.937 379.113 416.473 379.113C417.009 379.113 417.47 379.241 417.47 379.392Z" fill="#FAFAFA"/>
<path d="M424.972 396.64C424.833 396.64 424.533 396.05 424.308 395.236C424.083 394.421 424.04 393.713 424.19 393.681C424.34 393.649 424.629 394.271 424.854 395.086C425.08 395.9 425.122 396.554 424.972 396.64Z" fill="#FAFAFA"/>
<path d="M415.486 390.851C415.358 390.776 415.486 390.272 415.84 389.726C416.194 389.179 416.548 388.804 416.676 388.879C416.805 388.954 416.676 389.468 416.322 390.015C415.969 390.562 415.626 390.937 415.486 390.851Z" fill="#FAFAFA"/>
<path d="M415.293 409.836C415.143 409.836 414.928 409.118 414.821 408.185C414.714 407.253 414.746 406.492 414.896 406.47C415.046 406.449 415.26 407.188 415.368 408.121C415.475 409.054 415.443 409.815 415.293 409.836Z" fill="#FAFAFA"/>
</svg>
