<svg width="625" height="550" viewBox="0 0 625 550" fill="none" xmlns="http://www.w3.org/2000/svg">
<path d="M551.563 262.492L550.37 260.524C540.29 243.885 522.071 233.859 502.86 235.104C500.383 235.247 497.92 235.576 495.492 236.088C478.024 239.832 462.826 253.061 456.529 270.004C452.825 279.966 451.789 291.439 444.74 299.35C435.589 309.641 420.057 309.961 406.396 309.538C392.736 309.115 377.194 309.474 368.082 319.805C362.423 326.28 360.611 335.465 361.067 344.148C362.286 367.093 378.26 387.613 398.557 397.811C418.853 408.01 442.765 408.92 464.983 404.433C496.111 398.151 525.711 380.893 543.502 354.253C561.294 327.613 565.798 291.262 551.563 262.492Z" fill="white"/>
<path d="M136.113 69.4076C143.928 61.5922 143.928 48.921 136.113 41.1056C128.298 33.2902 115.626 33.2902 107.811 41.1056C99.9958 48.921 99.9958 61.5922 107.811 69.4076C115.626 77.2229 128.298 77.2229 136.113 69.4076Z" fill="#F5F5F5"/>
<path d="M567.85 527.113C567.85 527.288 453.513 527.438 312.513 527.438C171.513 527.438 57.1504 527.288 57.1504 527.113C57.1504 526.938 171.463 526.788 312.513 526.788C453.563 526.788 567.85 526.938 567.85 527.113Z" fill="#DEDEDE"/>
<path d="M176.25 162.7C179.795 171.384 180.684 180.924 178.803 190.113C176.922 199.303 172.356 207.727 165.684 214.319C159.012 220.912 150.534 225.376 141.323 227.147C132.112 228.917 122.583 227.915 113.942 224.266C105.301 220.617 97.9378 214.485 92.7842 206.648C87.6305 198.811 84.9186 189.621 84.9917 180.242C85.0648 170.863 87.9197 161.716 93.1949 153.96C98.4701 146.205 105.928 140.189 114.625 136.675C126.249 131.964 139.267 132.058 150.822 136.938C162.376 141.818 171.521 151.083 176.25 162.7Z" fill="#19B690"/>
<path d="M165.85 166.937C168.547 173.554 169.221 180.823 167.786 187.823C166.351 194.823 162.871 201.24 157.787 206.262C152.704 211.284 146.244 214.684 139.227 216.033C132.21 217.382 124.95 216.619 118.367 213.841C111.783 211.062 106.172 206.393 102.244 200.424C98.3155 194.455 96.2461 187.454 96.2978 180.309C96.3495 173.163 98.52 166.194 102.534 160.282C106.549 154.371 112.227 149.783 118.85 147.1C127.713 143.499 137.644 143.565 146.458 147.285C155.272 151.006 162.247 158.075 165.85 166.937Z" fill="#19B690"/>
<path d="M165.85 166.937C165.749 166.772 165.657 166.601 165.575 166.425L164.812 164.875L164.262 163.75C164.037 163.337 163.762 162.912 163.475 162.437C162.852 161.338 162.15 160.285 161.375 159.287C159.326 156.487 156.864 154.013 154.075 151.95C150.396 149.201 146.225 147.181 141.787 146C136.415 144.545 130.775 144.374 125.325 145.5C117.393 147.185 110.245 151.454 105 157.637C104.45 158.3 103.962 159.012 103.425 159.712C102.898 160.405 102.418 161.132 101.987 161.887C101.048 163.399 100.212 164.974 99.4871 166.6C98.7992 168.274 98.2311 169.995 97.7871 171.75C96.8398 175.343 96.4852 179.067 96.7371 182.775C97.1946 190.474 100.163 197.811 105.187 203.662C107.596 206.495 110.445 208.922 113.625 210.85C115.165 211.793 116.769 212.629 118.425 213.35C120.054 214.013 121.724 214.572 123.425 215.025C126.748 215.915 130.188 216.286 133.625 216.125C140.015 215.886 146.227 213.953 151.625 210.525C155.901 207.787 159.55 204.175 162.332 199.927C165.113 195.678 166.964 190.89 167.762 185.875C168.338 182.453 168.389 178.962 167.912 175.525C167.777 174.259 167.547 173.006 167.225 171.775C167.1 171.237 167.012 170.737 166.887 170.3C166.762 169.862 166.6 169.462 166.487 169.05C166.262 168.362 166.087 167.8 165.962 167.412C165.888 167.231 165.834 167.043 165.8 166.85C165.893 167.021 165.968 167.201 166.025 167.387C166.175 167.787 166.375 168.312 166.625 169L167.062 170.187C167.2 170.637 167.312 171.137 167.45 171.675C167.795 172.904 168.046 174.157 168.2 175.425C168.74 178.887 168.74 182.412 168.2 185.875C167.424 190.973 165.574 195.847 162.772 200.177C159.971 204.506 156.282 208.191 151.95 210.987C146.507 214.512 140.227 216.531 133.75 216.837C132.015 216.903 130.278 216.858 128.55 216.7C126.793 216.495 125.051 216.174 123.337 215.737C121.581 215.284 119.857 214.716 118.175 214.037C116.487 213.316 114.849 212.481 113.275 211.537C110.027 209.567 107.115 207.09 104.65 204.2C99.5167 198.228 96.4865 190.736 96.0246 182.875C95.776 179.091 96.139 175.293 97.0996 171.625C97.9747 168.082 99.4184 164.705 101.375 161.625C101.806 160.845 102.3 160.101 102.85 159.4C103.387 158.7 103.887 157.975 104.45 157.3C105.57 155.968 106.781 154.715 108.075 153.55C112.931 149.211 118.855 146.243 125.237 144.95C130.292 143.944 135.503 144.024 140.524 145.186C145.546 146.348 150.263 148.564 154.362 151.687C157.166 153.794 159.625 156.324 161.65 159.187C162.423 160.2 163.113 161.275 163.712 162.4C163.987 162.887 164.262 163.312 164.475 163.737C164.687 164.162 164.837 164.537 164.987 164.887C165.275 165.55 165.512 166.137 165.675 166.462C165.744 166.616 165.803 166.775 165.85 166.937Z" fill="#263238"/>
<g opacity="0.3">
<path opacity="0.3" d="M165.737 167.388C165.537 167.475 164.8 166.063 163.237 163.725C161.049 160.412 158.358 157.46 155.262 154.975C153.139 153.291 150.838 151.845 148.4 150.663C145.619 149.33 142.678 148.364 139.65 147.788C138.001 147.46 136.329 147.263 134.65 147.2C132.92 147.115 131.185 147.161 129.462 147.338C127.682 147.526 125.919 147.848 124.187 148.3C122.413 148.785 120.675 149.395 118.987 150.125C117.303 150.882 115.677 151.763 114.125 152.763C112.622 153.734 111.197 154.82 109.862 156.013C108.572 157.168 107.372 158.422 106.275 159.763C105.206 161.041 104.236 162.399 103.375 163.825C101.768 166.461 100.508 169.292 99.6247 172.25C98.8579 174.848 98.3759 177.522 98.1872 180.225C97.9424 184.178 98.3049 188.145 99.2622 191.988C99.9372 194.725 100.512 196.225 100.287 196.313C100.062 196.4 99.2622 195.063 98.2372 192.3C96.842 188.404 96.1685 184.287 96.2497 180.15C96.3342 177.274 96.7537 174.417 97.4997 171.638C98.3308 168.436 99.5923 165.362 101.25 162.5C102.143 160.953 103.154 159.478 104.275 158.088C106.657 155.121 109.492 152.548 112.675 150.463C114.341 149.38 116.088 148.428 117.9 147.613C119.724 146.824 121.604 146.172 123.525 145.663C127.194 144.711 130.991 144.344 134.775 144.575C136.558 144.679 138.33 144.921 140.075 145.3C143.308 145.984 146.433 147.107 149.362 148.638C151.906 149.973 154.284 151.6 156.45 153.488C159.577 156.206 162.172 159.482 164.1 163.15C165.475 165.763 165.875 167.325 165.737 167.388Z" fill="black"/>
</g>
<g opacity="0.3">
<path opacity="0.3" d="M144.25 198.925L146.75 204.725L141.575 206.912L139.137 201.25C133.887 203.112 128.3 203.575 124.512 202.5L124.687 195C128.537 195.821 132.535 195.628 136.287 194.437L132.637 185.8C126.3 186.825 119.075 187.612 115.95 180.212C113.637 174.725 115.637 168.337 123.45 163.962L121.025 158.212L126.2 156.025L128.587 161.675C132.379 160.327 136.436 159.899 140.425 160.425L140.525 167.925C137.495 167.54 134.419 167.761 131.475 168.575L135.225 177.325C141.475 176.237 148.65 175.5 151.737 182.787C153.925 188.2 151.962 194.512 144.25 198.925ZM129.425 178.237L126.325 170.887C123.825 172.662 123.387 174.637 124.112 176.337C124.837 178.037 126.837 178.475 129.425 178.237ZM143.587 186.987C142.825 185.175 140.912 184.825 138.35 184.987L141.375 192.137C143.75 190.437 144.287 188.612 143.587 186.95V186.987Z" fill="black"/>
</g>
<path d="M288.038 67.4999C289.596 76.7448 288.377 86.2442 284.535 94.7961C280.693 103.348 274.401 110.568 266.454 115.543C258.508 120.518 249.264 123.024 239.893 122.743C230.522 122.463 221.445 119.41 213.809 113.969C206.174 108.528 200.325 100.945 197.001 92.1788C193.676 83.4126 193.027 73.8574 195.135 64.7221C197.243 55.5869 202.014 47.2822 208.843 40.8589C215.672 34.4356 224.253 30.1824 233.5 28.6374C239.633 27.6061 245.909 27.7933 251.97 29.1884C258.03 30.5836 263.757 33.1593 268.821 36.7683C273.886 40.3774 278.19 44.949 281.487 50.2221C284.784 55.4952 287.01 61.3663 288.038 67.4999Z" fill="#19B690"/>
<path d="M276.925 69.3249C278.115 76.3701 277.189 83.6101 274.264 90.1289C271.338 96.6476 266.545 102.152 260.49 105.946C254.435 109.739 247.391 111.651 240.249 111.44C233.107 111.228 226.188 108.903 220.368 104.758C214.548 100.613 210.089 94.8351 207.554 88.1548C205.019 81.4744 204.523 74.1923 206.128 67.2298C207.733 60.2674 211.368 53.9376 216.572 49.0415C221.775 44.1454 228.315 40.9031 235.362 39.7249C244.799 38.1405 254.478 40.3686 262.272 45.9194C270.066 51.4701 275.337 59.889 276.925 69.3249Z" fill="#19B690"/>
<path d="M276.924 69.3249C276.849 69.1432 276.79 68.9549 276.749 68.7624C276.649 68.3499 276.525 67.7999 276.35 67.0874C276.262 66.7249 276.162 66.3124 276.062 65.8374C275.962 65.3624 275.75 64.9124 275.587 64.3874C275.207 63.1793 274.747 61.9976 274.212 60.8499C272.821 57.6691 270.954 54.7187 268.675 52.0999C265.363 48.2575 261.277 45.1578 256.684 43.0037C252.092 40.8496 247.096 39.6897 242.025 39.5999C235.632 39.4895 229.324 41.0814 223.75 44.2124C222.273 45.0461 220.853 45.9774 219.5 46.9999C218.812 47.5249 218.187 48.1124 217.512 48.6749C216.845 49.2337 216.218 49.8394 215.637 50.4874C214.402 51.7634 213.254 53.1206 212.2 54.5499C211.176 56.039 210.249 57.5921 209.425 59.1999C207.723 62.5051 206.566 66.0634 206 69.7374C204.783 77.3565 206.1 85.1644 209.75 91.9624C211.483 95.253 213.737 98.2416 216.425 100.812C218.978 103.363 221.934 105.474 225.175 107.062C226.718 107.862 228.318 108.547 229.962 109.112C231.577 109.642 233.227 110.059 234.9 110.362C243.079 111.868 251.527 110.49 258.804 106.462C266.08 102.434 271.734 96.006 274.799 88.2748C276.092 85.0792 276.9 81.7089 277.2 78.2749C277.332 77.0295 277.378 75.7765 277.337 74.5249C277.337 73.9749 277.337 73.4624 277.337 72.9999C277.337 72.5374 277.25 72.1249 277.212 71.7499C277.137 71.0374 277.087 70.4999 277.05 70.0499C277.027 69.8547 277.027 69.6576 277.05 69.4624C277.094 69.6519 277.127 69.8439 277.15 70.0374C277.15 70.4499 277.287 71.0249 277.387 71.7374C277.387 72.1124 277.487 72.5374 277.549 72.9874C277.612 73.4374 277.549 73.9624 277.549 74.5124C277.615 75.7875 277.59 77.0658 277.475 78.3374C277.239 81.8316 276.463 85.2683 275.175 88.5249C273.327 93.3319 270.476 97.6899 266.811 101.309C263.147 104.928 258.754 107.724 253.925 109.512C246.141 112.323 237.642 112.455 229.775 109.887C228.1 109.308 226.467 108.615 224.887 107.812C223.272 106.993 221.714 106.066 220.225 105.037C218.733 103.947 217.317 102.757 215.987 101.475C213.249 98.8443 210.95 95.7934 209.175 92.4374C205.484 85.4861 204.167 77.519 205.425 69.7499C206.011 65.9974 207.197 62.3635 208.937 58.9874C209.78 57.3487 210.728 55.7662 211.775 54.2499C212.791 52.7569 213.91 51.3367 215.125 49.9999C215.722 49.3392 216.366 48.721 217.05 48.1499C217.737 47.5749 218.375 46.9749 219.075 46.4499C220.458 45.4062 221.912 44.4581 223.425 43.6124C229.105 40.4356 235.53 38.8304 242.037 38.9624C247.19 39.0793 252.259 40.2912 256.908 42.5174C261.556 44.7437 265.678 47.9334 269 51.8749C271.277 54.5408 273.128 57.543 274.487 60.7749C274.989 61.939 275.407 63.138 275.737 64.3624C275.9 64.8874 276.062 65.3749 276.187 65.8249C276.312 66.2749 276.362 66.6999 276.437 67.0749C276.575 67.7874 276.687 68.3249 276.775 68.7624C276.836 68.9467 276.886 69.1345 276.924 69.3249Z" fill="#263238"/>
<g opacity="0.3">
<path opacity="0.3" d="M276.7 69.7375C276.487 69.7375 276.075 68.2499 275.05 65.6124C273.63 61.9154 271.644 58.4616 269.162 55.375C267.46 53.2707 265.531 51.3593 263.412 49.6749C260.979 47.7877 258.316 46.2168 255.487 44.9999C253.967 44.3272 252.395 43.7755 250.787 43.3499C249.119 42.8903 247.419 42.5601 245.7 42.3624C243.92 42.1592 242.128 42.0882 240.337 42.1499C238.499 42.2376 236.67 42.4548 234.862 42.7999C233.056 43.1697 231.28 43.6753 229.55 44.3124C227.868 44.9325 226.238 45.6848 224.675 46.5624C223.166 47.404 221.724 48.361 220.362 49.4249C219.029 50.4361 217.776 51.5477 216.612 52.7499C212.566 56.9317 209.601 62.0377 207.975 67.6249C206.869 71.4318 206.358 75.387 206.462 79.35C206.525 82.175 206.725 83.75 206.462 83.7874C206.2 83.825 205.737 82.3125 205.337 79.425C204.819 75.3118 205.061 71.1384 206.05 67.1125C207.524 61.0752 210.539 55.5236 214.8 51C216.01 49.6619 217.332 48.4284 218.75 47.3124C220.207 46.1434 221.753 45.0902 223.375 44.1624C225.045 43.1866 226.792 42.3504 228.6 41.6624C232.327 40.2454 236.264 39.4596 240.25 39.3374C245.844 39.1574 251.405 40.2695 256.5 42.5874C262.148 45.1581 267.038 49.1402 270.7 54.1499C273.152 57.4876 274.973 61.2451 276.075 65.2375C276.812 68.1 276.862 69.7125 276.7 69.7375Z" fill="black"/>
</g>
<g opacity="0.3">
<path opacity="0.3" d="M255.25 83.9374L261.325 89.0749C257.812 93.8374 252.287 96.5749 245.4 96.9124C235.4 97.3999 227.225 92.1249 224.212 83.7249L217.837 84.0249L217.612 79.2874L223.137 79.0124C223.062 78.5124 223.037 77.9999 223.012 77.4999C222.981 76.9879 222.981 76.4744 223.012 75.9624L217.5 76.2499L217.275 71.4999L223.65 71.1999C225.85 62.5374 233.487 56.5124 243.475 56.0374C250.375 55.7124 256.137 57.9249 260.075 62.2874L254.525 67.9874C253.231 66.586 251.644 65.4874 249.876 64.77C248.109 64.0527 246.205 63.7342 244.3 63.8374C242.023 63.8613 239.798 64.5212 237.876 65.7426C235.955 66.9641 234.413 68.6985 233.425 70.7499L247.712 70.0749L247.937 74.8124L232.237 75.5624C232.237 76.0749 232.237 76.5874 232.237 77.0874C232.247 77.5979 232.289 78.1072 232.362 78.6124L248.062 77.8624L248.287 82.6124L234 83.2874C235.178 85.2369 236.879 86.8178 238.909 87.8516C240.939 88.8854 243.218 89.3308 245.487 89.1374C247.4 89.0558 249.27 88.5463 250.959 87.6464C252.649 86.7464 254.115 85.479 255.25 83.9374Z" fill="black"/>
</g>
<path d="M440.825 90.9C437.988 99.8369 432.565 107.732 425.24 113.585C417.916 119.438 409.019 122.987 399.677 123.783C390.335 124.578 380.967 122.584 372.758 118.053C364.549 113.523 357.869 106.658 353.563 98.3297C349.257 90.0009 347.518 80.5819 348.567 71.2647C349.616 61.9474 353.405 53.1508 359.455 45.9879C365.506 38.825 373.545 33.618 382.555 31.0257C391.566 28.4333 401.143 28.5723 410.075 31.425C416 33.309 421.497 36.3422 426.249 40.3514C431.002 44.3605 434.918 49.267 437.774 54.7904C440.63 60.3138 442.369 66.3458 442.893 72.5417C443.416 78.7375 442.713 84.9758 440.825 90.9Z" fill="#19B690"/>
<path d="M430.087 87.4998C427.929 94.3156 423.797 100.338 418.215 104.804C412.632 109.27 405.85 111.98 398.727 112.589C391.604 113.199 384.46 111.681 378.2 108.228C371.94 104.775 366.845 99.5427 363.56 93.1926C360.276 86.8425 358.949 79.6606 359.749 72.5562C360.548 65.4518 363.438 58.7443 368.051 53.283C372.665 47.8217 378.795 43.8522 385.666 41.877C392.537 39.9018 399.84 40.0098 406.65 42.1873C415.764 45.0913 423.353 51.4955 427.748 59.9922C432.142 68.4889 432.984 78.3829 430.087 87.4998Z" fill="#19B690"/>
<path d="M430.087 87.4998C430.107 87.3052 430.145 87.1128 430.2 86.9248C430.3 86.5123 430.425 85.9624 430.6 85.2624C430.687 84.8874 430.787 84.4873 430.9 84.0123C431.012 83.5373 431.05 83.0498 431.137 82.4998C431.362 81.2613 431.496 80.0079 431.537 78.7498C431.756 75.2853 431.444 71.8076 430.612 68.4373C428.694 60.3421 424.022 53.1652 417.395 48.1349C410.769 43.1047 402.6 40.5338 394.287 40.8624C392.589 40.9203 390.898 41.0957 389.225 41.3873C388.387 41.5498 387.55 41.7874 386.725 41.9749C385.874 42.168 385.038 42.4229 384.225 42.7374C382.543 43.3056 380.902 43.9863 379.312 44.7748C377.719 45.629 376.182 46.5851 374.712 47.6373C371.69 49.8046 369.036 52.4422 366.85 55.4498C364.617 58.5559 362.868 61.9823 361.662 65.6123C360.55 69.2589 359.986 73.0501 359.987 76.8623C360.019 80.5823 360.657 84.2722 361.875 87.7873C362.455 89.4979 363.149 91.1682 363.95 92.7873C364.789 94.3531 365.733 95.8607 366.775 97.2998C367.786 98.7071 368.893 100.044 370.087 101.3C376.505 107.889 385.205 111.765 394.396 112.13C403.586 112.495 412.567 109.321 419.487 103.262C422.117 101.002 424.389 98.3548 426.225 95.4123C426.924 94.354 427.546 93.247 428.087 92.0998C428.325 91.6123 428.575 91.1623 428.762 90.7373C428.95 90.3123 429.087 89.9248 429.225 89.5623C429.5 88.8998 429.712 88.3124 429.862 87.9749C429.928 87.7883 430.012 87.6083 430.112 87.4373C430.071 87.6297 430.012 87.818 429.937 87.9998L429.375 89.6248L428.937 90.8123C428.762 91.2498 428.525 91.6998 428.287 92.1998C427.768 93.3646 427.162 94.4886 426.475 95.5623C424.664 98.5634 422.404 101.27 419.775 103.587C415.922 107.008 411.387 109.571 406.469 111.107C401.552 112.644 396.364 113.118 391.25 112.5C384.786 111.702 378.653 109.19 373.487 105.225C372.109 104.176 370.806 103.031 369.587 101.8C368.368 100.519 367.236 99.1573 366.2 97.7248C365.137 96.2566 364.172 94.7199 363.312 93.1248C362.486 91.4718 361.776 89.7635 361.187 88.0124C359.941 84.4254 359.286 80.6595 359.25 76.8623C359.134 69.0061 361.592 61.3278 366.25 54.9998C368.486 51.9291 371.205 49.2402 374.3 47.0373C377.238 44.8519 380.515 43.1628 384 42.0373C384.834 41.7225 385.691 41.4677 386.562 41.2748C387.425 41.0748 388.275 40.8373 389.137 40.6748C390.844 40.3838 392.569 40.2084 394.3 40.1499C400.806 39.9173 407.256 41.4231 412.987 44.5123C417.514 46.9757 421.466 50.3723 424.582 54.4773C427.698 58.5824 429.907 63.3023 431.062 68.3249C431.863 71.7381 432.137 75.2537 431.875 78.7498C431.811 80.01 431.652 81.2636 431.4 82.4998C431.3 83.0498 431.225 83.5623 431.125 84.0123L430.787 85.2624C430.587 85.9624 430.425 86.5123 430.312 86.9123C430.26 87.1162 430.184 87.3133 430.087 87.4998Z" fill="#263238"/>
<g opacity="0.3">
<path opacity="0.3" d="M429.7 87.7374C429.487 87.7374 429.825 86.1249 430.125 83.3124C430.542 79.3734 430.352 75.3938 429.562 71.5124C429.009 68.8671 428.171 66.2895 427.062 63.8249C425.086 59.4936 422.26 55.6039 418.75 52.3874C416.147 50.0085 413.196 48.0401 410 46.5499C408.325 45.7762 406.596 45.1285 404.825 44.6124C403.05 44.1182 401.241 43.7547 399.412 43.5249C395.91 43.1205 392.367 43.2385 388.9 43.8749C387.267 44.1705 385.658 44.5884 384.087 45.1249C381.161 46.1154 378.375 47.4809 375.8 49.1874C373.531 50.6889 371.435 52.4371 369.55 54.3999C366.829 57.2769 364.569 60.5573 362.85 64.1249C361.6 66.6249 361.075 68.1749 360.862 68.1124C360.65 68.0499 360.862 66.4624 361.862 63.7124C363.273 59.8156 365.392 56.2133 368.112 53.0874C369.993 50.9144 372.125 48.9718 374.462 47.2999C377.162 45.389 380.105 43.8462 383.212 42.7124C384.902 42.0941 386.636 41.6052 388.4 41.2499C392.13 40.4909 395.956 40.3264 399.737 40.7624C401.709 41.005 403.66 41.3936 405.575 41.9249C407.486 42.4766 409.35 43.1788 411.15 44.0249C412.891 44.847 414.563 45.8085 416.15 46.8999C417.695 47.9478 419.15 49.1227 420.5 50.4124C421.805 51.6289 423.012 52.9454 424.112 54.3499C427.964 59.2168 430.495 64.9944 431.462 71.1249C432.118 75.2127 432.017 79.3863 431.162 83.4374C430.55 86.3249 429.85 87.7874 429.7 87.7374Z" fill="black"/>
</g>
<g opacity="0.3">
<path opacity="0.3" d="M405.85 89.1374L401.287 92.8874C400.475 93.1624 399.812 92.8874 396.637 90.5374C395.862 89.9749 395.012 89.2874 394.062 88.6999C394.98 86.6085 395.687 84.4311 396.175 82.1999C396.274 81.6637 396.328 81.1202 396.337 80.5749L401.825 82.0499L403.925 74.2624L394.075 71.6124C393.764 70.6345 393.542 69.6304 393.412 68.6124C393.355 67.4373 393.548 66.2634 393.979 65.1686C394.41 64.0738 395.069 63.0832 395.912 62.2624C397.475 60.9249 399.725 60.6374 402.575 61.4124C403.46 61.5846 404.3 61.9363 405.044 62.4458C405.788 62.9554 406.419 63.6119 406.9 64.3749C408.562 67.2624 407.537 71.3249 407.525 71.3749L407.25 72.3874L415.012 74.5499L415.3 73.5124C415.375 73.2249 417.275 66.2874 413.925 60.4124C412.928 58.7094 411.593 57.2286 410.002 56.0613C408.411 54.8939 406.598 54.0648 404.675 53.6249C397.737 51.7624 393.237 53.9499 390.687 56.1249C388.86 57.7739 387.429 59.8139 386.501 62.093C385.572 64.3721 385.17 66.8313 385.325 69.2874L382.362 68.4874L380.312 76.2499L387.812 78.2624C388.113 79.0313 388.27 79.8492 388.275 80.6749C387.937 82.1963 387.456 83.6822 386.837 85.1124C384.571 84.63 382.211 84.8711 380.089 85.8018C377.968 86.7326 376.192 88.3059 375.012 90.2999L374.475 91.2124L381.412 95.2874L381.962 94.3874C382.7 93.1374 384.162 92.1124 386.962 93.7249C388.662 94.7334 390.302 95.8395 391.875 97.0374C393.821 98.676 396.049 99.9468 398.45 100.787C399.825 101.17 401.273 101.211 402.667 100.906C404.061 100.601 405.36 99.9595 406.45 99.0374L411.025 95.3499L405.85 89.1374Z" fill="black"/>
</g>
<path d="M521.25 177.375C524.791 186.06 525.675 195.601 523.792 204.789C521.908 213.978 517.341 222.401 510.668 228.992C503.995 235.583 495.517 240.047 486.306 241.818C477.096 243.589 467.566 242.587 458.925 238.94C450.284 235.292 442.919 229.163 437.763 221.328C432.607 213.493 429.891 204.305 429.959 194.926C430.027 185.546 432.876 176.398 438.146 168.639C443.416 160.88 450.869 154.859 459.562 151.337C465.322 148.996 471.487 147.811 477.705 147.852C483.923 147.893 490.071 149.159 495.8 151.577C501.528 153.995 506.724 157.518 511.091 161.944C515.458 166.371 518.91 171.614 521.25 177.375Z" fill="#19B690"/>
<path d="M510.787 181.6C513.481 188.216 514.153 195.483 512.717 202.48C511.28 209.478 507.801 215.893 502.718 220.913C497.636 225.933 491.178 229.332 484.163 230.682C477.148 232.031 469.891 231.27 463.308 228.494C456.726 225.718 451.115 221.052 447.185 215.087C443.255 209.121 441.183 202.124 441.23 194.981C441.277 187.837 443.442 180.868 447.451 174.955C451.459 169.042 457.131 164.451 463.75 161.762C468.141 159.975 472.841 159.07 477.581 159.1C482.322 159.13 487.01 160.093 491.379 161.935C495.747 163.778 499.709 166.463 503.039 169.837C506.37 173.211 509.002 177.208 510.787 181.6Z" fill="#19B690"/>
<path d="M510.788 181.6C510.671 181.441 510.575 181.269 510.5 181.087L509.738 179.55L509.2 178.412C508.975 178.012 508.688 177.575 508.413 177.162C507.789 176.059 507.087 175.002 506.313 174C504.252 171.209 501.787 168.741 499 166.675C492.348 161.676 484.165 159.146 475.853 159.518C467.541 159.889 459.617 163.14 453.438 168.712C452.176 169.851 450.991 171.07 449.888 172.362C449.338 173.025 448.85 173.737 448.325 174.425C447.787 175.114 447.307 175.845 446.888 176.612C445.951 178.126 445.115 179.7 444.388 181.325C443.709 182.998 443.141 184.715 442.688 186.462C441.753 190.062 441.399 193.788 441.638 197.5C442.095 205.197 445.068 212.532 450.1 218.375C452.504 221.211 455.349 223.642 458.525 225.575C460.069 226.511 461.673 227.346 463.325 228.075C464.974 228.741 466.665 229.297 468.388 229.737C470.068 230.175 471.776 230.496 473.5 230.7C475.191 230.858 476.891 230.903 478.588 230.837C486.897 230.525 494.842 227.341 501.067 221.827C507.292 216.313 511.412 208.811 512.725 200.6C513.295 197.177 513.346 193.688 512.875 190.25C512.734 188.985 512.505 187.732 512.188 186.5C512.063 185.962 511.963 185.462 511.838 185.012C511.713 184.562 511.563 184.175 511.438 183.762C511.225 183.075 511.05 182.512 510.913 182.137C510.844 181.951 510.794 181.758 510.763 181.562C510.849 181.736 510.924 181.916 510.988 182.1L511.588 183.712C511.713 184.075 511.863 184.475 512.025 184.962C512.188 185.45 512.263 185.9 512.4 186.437C512.75 187.666 513.005 188.92 513.163 190.187C513.696 193.65 513.696 197.174 513.163 200.637C512.484 205.243 510.913 209.671 508.538 213.675C504.568 220.484 498.478 225.807 491.199 228.829C483.919 231.852 475.85 232.408 468.225 230.412C466.472 229.969 464.751 229.405 463.075 228.725C461.381 227.983 459.74 227.127 458.163 226.162C454.911 224.203 452.001 221.724 449.55 218.825C444.407 212.858 441.371 205.364 440.913 197.5C440.661 193.716 441.029 189.916 442 186.25C442.455 184.461 443.035 182.707 443.738 181C444.463 179.346 445.298 177.743 446.238 176.2C446.678 175.426 447.171 174.682 447.713 173.975C448.25 173.262 448.763 172.537 449.313 171.875C450.437 170.543 451.653 169.29 452.95 168.125C457.799 163.782 463.719 160.813 470.1 159.525C475.158 158.511 480.373 158.586 485.4 159.746C490.426 160.906 495.148 163.123 499.25 166.25C502.055 168.359 504.517 170.889 506.55 173.75C507.313 174.772 507.999 175.85 508.6 176.975C508.875 177.45 509.15 177.887 509.363 178.3L509.875 179.462C510.175 180.125 510.4 180.65 510.575 181.037C510.661 181.219 510.732 181.407 510.788 181.6Z" fill="#263238"/>
<g opacity="0.3">
<path opacity="0.3" d="M510.662 182.062C510.462 182.15 509.725 180.737 508.162 178.387C505.962 175.08 503.268 172.129 500.175 169.637C498.054 167.96 495.757 166.518 493.325 165.337C490.543 164.007 487.602 163.036 484.575 162.45C482.924 162.135 481.253 161.939 479.575 161.862C477.848 161.782 476.118 161.832 474.4 162.012C472.619 162.194 470.855 162.516 469.125 162.975C465.555 163.913 462.158 165.416 459.062 167.425C456.103 169.349 453.453 171.709 451.2 174.425C450.135 175.699 449.17 177.053 448.312 178.475C446.709 181.112 445.448 183.943 444.562 186.9C443.801 189.499 443.323 192.173 443.137 194.875C442.884 198.828 443.247 202.796 444.212 206.637C444.887 209.387 445.462 210.887 445.237 210.962C445.012 211.037 444.2 209.712 443.187 206.95C441.776 203.054 441.103 198.93 441.2 194.787C441.259 191.914 441.653 189.057 442.375 186.275C443.206 183.081 444.467 180.016 446.125 177.162C447.014 175.611 448.03 174.135 449.162 172.75C450.317 171.287 451.592 169.924 452.975 168.675C454.401 167.37 455.931 166.183 457.55 165.125C459.219 164.041 460.97 163.088 462.787 162.275C464.609 161.478 466.49 160.822 468.412 160.312C470.283 159.832 472.189 159.502 474.112 159.325C475.965 159.14 477.83 159.111 479.687 159.237C481.475 159.355 483.251 159.61 485 160C491.071 161.266 496.709 164.088 501.362 168.187C504.486 170.908 507.083 174.179 509.025 177.837C510.412 180.437 510.812 182 510.662 182.062Z" fill="black"/>
</g>
<g opacity="0.3">
<path opacity="0.3" d="M495.237 175.5H486.912L478.675 191.2H476.575L467.825 175.5L459.362 175.487L468.112 191.2H461.237V198.587H472.237L473.225 200.375H461.137V207.775H473.987V223.237H481.387V207.775H494.037V200.375H482.087L483.037 198.587H494.137V191.2H486.937L495.237 175.5Z" fill="black"/>
</g>
<path d="M126.812 480.15C126.812 480.15 102.3 451.938 93.0622 423.725C83.8247 395.513 88.2122 398.725 88.2122 398.725C88.2122 398.725 100.712 426.138 110.175 439.375C119.637 452.613 136.537 472.038 136.537 472.038L126.812 480.15Z" fill="#455A64"/>
<path d="M131.7 403.137C131.531 402.853 131.27 402.636 130.96 402.522C130.65 402.408 130.31 402.404 129.997 402.511C129.685 402.618 129.419 402.83 129.244 403.11C129.069 403.39 128.996 403.722 129.037 404.05C130.537 413.962 133.775 437.212 133.637 452.3C133.475 471.9 133.637 479.475 133.637 479.475H143.837C143.837 479.475 142.025 438.962 139.725 426.612C138.112 417.95 134.687 408.337 131.7 403.137Z" fill="#455A64"/>
<path d="M137.262 476.175C141.541 466.488 144.372 456.224 145.662 445.712C146.5 438.5 145 428.75 142.775 415.712C141.928 410.955 141.51 406.132 141.525 401.3C141.524 400.759 141.703 400.233 142.035 399.806C142.367 399.38 142.833 399.076 143.357 398.944C143.881 398.811 144.435 398.858 144.93 399.077C145.424 399.295 145.832 399.673 146.087 400.15C147.337 402.35 150.887 409.862 151.787 414.562C154.287 427.412 157.062 433.837 154.925 446.012C152.787 458.187 144.925 476.975 144.925 476.975L137.262 476.175Z" fill="#455A64"/>
<path d="M146.45 477C146.45 477 173.375 419.163 175.2 410.575C177.025 401.988 183.412 382.225 184.15 383.338C184.887 384.45 186.025 394.9 181.175 406.85C176.325 418.8 155.65 478.75 155.65 478.75H146.45" fill="#455A64"/>
<path d="M134.312 474.413C134.051 474.259 133.8 474.088 133.562 473.9C133.087 473.538 132.312 473.025 131.475 472.3C128.959 470.296 126.547 468.164 124.25 465.913C116.665 458.453 110.096 450.026 104.712 440.85C99.3448 431.68 94.8821 422.009 91.3873 411.975C90.0373 408.138 89.0498 404.988 88.3998 402.813C88.0748 401.725 87.8498 400.863 87.6873 400.313C87.5923 400.024 87.5253 399.727 87.4873 399.425C87.6126 399.7 87.7171 399.984 87.7998 400.275C87.9998 400.9 88.2748 401.725 88.6248 402.775C89.3248 404.938 90.3748 408.063 91.7748 411.875C95.3685 421.848 99.8664 431.471 105.212 440.625C110.584 449.73 117.072 458.128 124.525 465.625C127.412 468.488 129.875 470.625 131.625 472.125C132.475 472.875 133.175 473.375 133.637 473.8C133.88 473.983 134.106 474.188 134.312 474.413Z" fill="#263238"/>
<path d="M137.262 446.663C137.133 446.104 137.054 445.535 137.025 444.963C136.887 443.713 136.725 442.213 136.525 440.325C136.1 436.413 135.437 431.025 134.487 425.088C133.537 419.15 132.462 413.838 131.65 409.975C131.25 408.125 130.912 406.6 130.662 405.425C130.518 404.871 130.418 404.307 130.362 403.738C130.586 404.261 130.757 404.806 130.875 405.363C131.187 406.425 131.575 407.975 132.037 409.888C132.962 413.725 134.087 419.05 135.05 425C136.012 430.95 136.612 436.363 136.925 440.288C137.087 442.25 137.2 443.85 137.25 444.95C137.297 445.52 137.302 446.092 137.262 446.663Z" fill="#263238"/>
<path d="M143.562 399.725C143.698 399.958 143.807 400.205 143.887 400.463C144.087 401.013 144.362 401.713 144.687 402.613C145.012 403.513 145.462 404.688 145.849 406.05C146.237 407.413 146.762 408.95 147.099 410.688L147.774 413.413C147.999 414.35 148.162 415.35 148.362 416.388C148.799 418.438 149.074 420.663 149.399 423C149.975 428.087 150.192 433.208 150.049 438.325C149.826 443.443 149.245 448.538 148.312 453.575C147.812 455.888 147.387 458.088 146.799 460.1C146.512 461.113 146.287 462.1 145.987 463.038C145.687 463.975 145.412 464.85 145.137 465.7C144.624 467.413 143.987 468.9 143.499 470.225C143.012 471.55 142.524 472.725 142.099 473.575C141.674 474.425 141.387 475.138 141.137 475.663C141.031 475.908 140.91 476.146 140.774 476.375C140.833 476.112 140.921 475.856 141.037 475.613L141.887 473.488C142.287 472.575 142.737 471.45 143.137 470.113C143.537 468.775 144.199 467.288 144.687 465.575C144.949 464.725 145.224 463.838 145.499 462.913C145.774 461.988 145.999 461 146.274 459.988C146.837 457.975 147.249 455.775 147.724 453.475C148.627 448.465 149.191 443.399 149.412 438.313C149.558 433.222 149.358 428.126 148.812 423.063C148.499 420.738 148.249 418.513 147.837 416.475C147.637 415.45 147.487 414.45 147.274 413.5C147.062 412.55 146.849 411.65 146.649 410.788C146.287 409.038 145.799 407.513 145.399 406.15C144.999 404.788 144.662 403.65 144.337 402.688C144.012 401.725 143.812 401.05 143.637 400.5C143.595 400.244 143.57 399.985 143.562 399.725Z" fill="#263238"/>
<path d="M183.887 384.5C183.893 384.587 183.893 384.675 183.887 384.762L183.762 385.512C183.65 386.175 183.5 387.15 183.237 388.387C182.712 390.887 181.85 394.463 180.5 398.8C179.15 403.138 177.325 408.25 175.15 413.8C172.975 419.35 170.45 425.5 168.062 432C165.675 438.5 163.762 444.813 162.012 450.563C160.262 456.313 158.612 461.463 157.012 465.725C155.778 469.096 154.359 472.397 152.762 475.613C152.212 476.763 151.712 477.613 151.387 478.2L151.012 478.863C150.975 478.939 150.929 479.01 150.875 479.075C150.875 479.075 150.875 478.988 150.962 478.838L151.287 478.15C151.575 477.538 152.037 476.675 152.537 475.513C153.612 473.225 155.037 469.85 156.6 465.575C158.162 461.3 159.75 456.163 161.462 450.4C163.175 444.638 165.05 438.3 167.487 431.8C169.925 425.3 172.412 419.2 174.612 413.613C176.812 408.025 178.687 402.963 180.075 398.613C181.462 394.263 182.4 390.737 182.975 388.262C183.275 387.012 183.462 386.062 183.612 385.412C183.687 385.125 183.75 384.875 183.787 384.675C183.814 384.613 183.848 384.555 183.887 384.5Z" fill="#263238"/>
<path d="M100.888 371.725C100.513 371.397 100.042 371.199 99.5457 371.16C99.0492 371.121 98.5534 371.243 98.1321 371.509C97.7108 371.774 97.3864 372.169 97.2072 372.633C97.028 373.098 97.0035 373.608 97.1375 374.087C98.0577 377.079 99.1854 380.003 100.513 382.837C104.263 390.7 115.088 418.912 120.175 434.412C125.263 449.912 132.425 478.812 132.425 478.812L143.3 477.05C143.3 477.05 133.3 429.55 123.638 412.438C115.775 398.638 107.975 378.75 100.888 371.725Z" fill="#455A64"/>
<path d="M123.087 444.05C123.31 444.448 123.494 444.867 123.637 445.3C123.962 446.15 124.4 447.4 124.887 448.95C125.887 452.05 127.112 456.375 128.337 461.188C129.562 466 130.6 470.375 131.312 473.55C131.637 475.05 131.912 476.313 132.125 477.3C132.253 477.757 132.328 478.226 132.35 478.7C132.16 478.265 132.014 477.813 131.912 477.35C131.65 476.363 131.312 475.113 130.912 473.6C130.087 470.325 129 466.1 127.787 461.275C126.575 456.45 125.387 452.138 124.5 449.013C124.062 447.55 123.7 446.313 123.412 445.263C123.268 444.869 123.159 444.463 123.087 444.05Z" fill="#263238"/>
<path d="M137.825 477.887C137.794 477.79 137.773 477.689 137.762 477.587L137.637 476.737C137.525 475.987 137.425 474.875 137.2 473.45C136.8 470.587 136.087 466.475 134.912 461.462C133.528 455.589 131.834 449.794 129.837 444.1C127.6 437.662 124.837 430.712 121.637 423.512C115.25 409.137 108.862 396.375 104.662 386.95C102.55 382.237 100.912 378.4 99.825 375.7C99.275 374.375 98.875 373.325 98.575 372.612C98.45 372.287 98.35 372.012 98.275 371.8C98.2331 371.708 98.2037 371.612 98.1875 371.512C98.2475 371.592 98.294 371.68 98.325 371.775C98.425 371.987 98.5375 372.25 98.6875 372.562L99.9375 375.612C101.087 378.262 102.787 382.075 104.937 386.75C109.225 396.137 115.662 408.85 122.062 423.25C125.237 430.462 128.025 437.437 130.237 443.9C132.229 449.636 133.898 455.478 135.237 461.4C136.145 465.373 136.846 469.391 137.337 473.437C137.537 474.875 137.6 475.937 137.675 476.75C137.675 477.1 137.675 477.387 137.75 477.612C137.788 477.7 137.814 477.793 137.825 477.887Z" fill="#263238"/>
<path d="M143.237 477C143.056 476.405 142.93 475.794 142.862 475.175C142.65 473.925 142.362 472.213 142.025 470.175C141.275 465.975 140.125 460.175 138.487 453.863C136.85 447.55 135.025 441.925 133.612 437.888L131.912 433.113C131.677 432.54 131.485 431.951 131.337 431.35C131.643 431.891 131.906 432.456 132.125 433.038C132.587 434.138 133.25 435.75 134 437.75C135.951 442.978 137.62 448.306 139 453.713C140.403 459.119 141.533 464.593 142.387 470.113C142.687 472.238 142.925 473.95 143.05 475.113C143.157 475.737 143.22 476.367 143.237 477Z" fill="#263238"/>
<path d="M165.537 475.438H123.125V527.113H165.537V475.438Z" fill="#19B690"/>
<g opacity="0.3">
<path opacity="0.3" d="M165.537 475.438H123.125V527.113H165.537V475.438Z" fill="black"/>
</g>
<path d="M152 475.438H114.375V527.113H152V475.438Z" fill="#19B690"/>
<path d="M368.487 305.5L383.25 373L426.05 417.912L395.975 487.275L407.925 506.562C407.925 506.562 472.325 434.837 470.55 417.15C467.5 386.337 402.187 321.725 387.5 309.588C382.562 305.5 368.487 305.5 368.487 305.5Z" fill="#985952"/>
<path d="M448.525 407.825C448.525 407.988 447.012 407.825 444.662 408.025C438.465 408.558 432.712 411.459 428.6 416.125C427.037 417.9 426.287 419.2 426.1 419.112C426.476 417.842 427.124 416.669 428 415.675C429.968 413.133 432.478 411.063 435.347 409.614C438.217 408.165 441.373 407.375 444.587 407.3C445.922 407.181 447.267 407.361 448.525 407.825Z" fill="#664534"/>
<path d="M370.212 315.95C370.212 315.95 382.937 353.562 383.3 374.7C383.475 384.6 379.05 441.437 379.05 471.312L400.125 527.125H225.275L244.425 464.562L228.75 351.462L251.775 324.412L370.212 315.95Z" fill="#455A64"/>
<path d="M284.125 159.137C277.212 152.475 261.387 154.587 257.875 159.5C254.971 158.357 251.74 158.376 248.849 159.551C245.959 160.726 243.632 162.968 242.35 165.812L225.687 170.625C222.837 171.45 219.862 172.337 217.775 174.437C215.687 176.537 214.887 180.225 216.875 182.425C211.012 184.362 209.262 193.387 213.962 197.425C213.435 198.123 213.057 198.922 212.849 199.772C212.642 200.622 212.611 201.505 212.757 202.368C212.903 203.23 213.224 204.054 213.7 204.788C214.176 205.522 214.797 206.152 215.525 206.637C211.215 212.557 207.947 219.168 205.862 226.187C205 229.112 204.362 232.362 205.612 235.15C206.862 237.937 210.75 239.662 213.112 237.65C212.359 238.879 211.977 240.299 212.01 241.74C212.043 243.181 212.491 244.582 213.3 245.775C210.437 246.037 209.875 250.512 211.975 252.462C214.075 254.412 217.287 254.425 220.15 254.175C223.012 253.925 226.087 253.562 228.55 255.037C228.548 255.389 228.475 255.736 228.335 256.058C228.196 256.38 227.992 256.671 227.737 256.912C223.087 261.237 222.137 268.162 226.162 273.162C226.537 273.625 226.887 274.037 227.187 274.412C229 276.65 233.237 278.537 235.875 279.7C242.575 282.65 246.375 281.75 253.675 282.325C252.012 287.112 264.412 296.65 277.162 285.637C304.425 291.075 323.9 292.537 351.637 290.787C355.6 290.537 360.312 289.687 361.837 286.025C365.1 286.675 368.462 284.95 370.687 282.475C372.762 279.853 374.369 276.893 375.437 273.725C378.792 272.511 381.689 270.287 383.728 267.359C385.767 264.431 386.849 260.943 386.825 257.375C389.023 255.394 390.785 252.978 391.999 250.279C393.212 247.58 393.851 244.659 393.875 241.7C400.4 239.2 403.5 230.35 399.925 224.35C397.956 216.261 394.657 208.556 390.162 201.55C394.637 200.3 395.95 194.05 393.8 189.912C391.65 185.775 387.35 183.325 383.275 181.087C386.725 181.762 389.4 177.337 388.362 173.95C387.325 170.562 384.112 168.437 380.975 166.825C376.386 164.47 371.53 162.677 366.512 161.487C364.5 155.612 356.425 149.325 350.662 147.037C327.412 137.85 311.437 136.187 284.087 159.125" fill="#263238"/>
<path d="M350.237 242.138C351.042 241.094 352.089 240.262 353.287 239.713H353.037C353.256 239.631 353.482 239.568 353.712 239.525C354.114 239.374 354.542 239.304 354.971 239.319C355.4 239.334 355.822 239.434 356.212 239.613C357.67 239.995 358.931 240.909 359.749 242.175C360.397 243.305 360.723 244.591 360.692 245.893C360.662 247.195 360.275 248.464 359.574 249.563C359.082 250.548 358.303 251.36 357.339 251.894C356.376 252.427 355.273 252.656 354.177 252.55C353.081 252.445 352.043 252.01 351.199 251.302C350.355 250.595 349.745 249.648 349.449 248.588C349.025 247.533 348.875 246.389 349.012 245.261C349.15 244.133 349.571 243.059 350.237 242.138Z" fill="#455A64"/>
<path d="M349.737 197.987C346.912 182.587 334.375 164.762 319.1 168.225L272.25 186.15C270.012 186.66 268.046 187.99 266.741 189.879C265.436 191.767 264.886 194.076 265.2 196.35L279.087 299.637C279.968 306.164 283.074 312.186 287.882 316.687C292.69 321.187 298.905 323.89 305.475 324.337C309.556 324.613 313.649 324.009 317.477 322.567C321.305 321.125 324.778 318.879 327.664 315.979C330.549 313.08 332.778 309.595 334.201 305.76C335.624 301.925 336.208 297.83 335.912 293.75C335.387 286.625 335 281.25 335 281.25C335 281.25 354.45 275.612 355.487 249.25C356.012 236.125 352.862 215.112 349.737 197.987Z" fill="#985952"/>
<path d="M339.637 218.75C339.752 219.617 339.523 220.494 339 221.195C338.477 221.896 337.701 222.364 336.837 222.5C336.421 222.579 335.993 222.575 335.578 222.488C335.163 222.4 334.77 222.231 334.421 221.99C334.072 221.75 333.774 221.442 333.545 221.085C333.316 220.729 333.161 220.33 333.087 219.912C332.965 219.045 333.191 218.164 333.715 217.461C334.24 216.759 335.02 216.292 335.887 216.162C336.303 216.081 336.732 216.084 337.147 216.171C337.563 216.258 337.957 216.427 338.306 216.668C338.655 216.909 338.953 217.217 339.181 217.575C339.41 217.932 339.565 218.332 339.637 218.75Z" fill="#263238"/>
<path d="M344.2 208.75C343.85 209.225 341.112 207.662 337.537 208.1C333.962 208.537 331.562 210.6 331.125 210.237C330.912 210.062 331.237 209.225 332.287 208.262C333.701 207.008 335.471 206.226 337.35 206.025C339.207 205.791 341.091 206.159 342.725 207.075C343.925 207.737 344.387 208.475 344.2 208.75Z" fill="#263238"/>
<path d="M305 221.937C305.118 222.807 304.889 223.687 304.363 224.389C303.836 225.091 303.055 225.557 302.187 225.687C301.771 225.77 301.343 225.769 300.928 225.684C300.512 225.599 300.118 225.431 299.769 225.191C299.419 224.951 299.121 224.643 298.893 224.286C298.664 223.929 298.509 223.53 298.437 223.112C298.319 222.247 298.544 221.369 299.065 220.668C299.586 219.967 300.362 219.498 301.225 219.362C301.642 219.281 302.071 219.283 302.487 219.369C302.904 219.455 303.299 219.622 303.65 219.862C304.001 220.101 304.301 220.408 304.533 220.764C304.764 221.121 304.923 221.519 305 221.937Z" fill="#263238"/>
<path d="M310.35 213.012C309.988 213.5 307.25 211.937 303.688 212.362C300.125 212.787 297.713 214.862 297.275 214.5C297.063 214.325 297.388 213.5 298.438 212.537C299.848 211.277 301.619 210.49 303.5 210.287C305.359 210.062 307.241 210.434 308.875 211.35C310.063 212.062 310.538 212.8 310.35 213.012Z" fill="#263238"/>
<path d="M327.5 239.275C327.5 239.075 329.625 238.437 333.175 237.55C334.075 237.337 334.912 237.062 334.987 236.425C334.958 235.471 334.635 234.55 334.062 233.787L330.55 227.162C325.625 217.725 321.962 209.912 322.337 209.725C322.712 209.537 327.012 217.025 331.925 226.462C333.175 228.8 334.262 231.012 335.337 233.137C336.044 234.169 336.363 235.418 336.237 236.662C336.144 237 335.975 237.311 335.744 237.573C335.512 237.835 335.223 238.041 334.9 238.175C334.412 238.376 333.899 238.511 333.375 238.575C329.812 239.2 327.575 239.475 327.5 239.275Z" fill="#263238"/>
<path d="M335 281.25C322.841 282.879 310.469 281.101 299.262 276.113C299.262 276.113 309.775 292.888 335.375 287.363L335 281.25Z" fill="#664534"/>
<path d="M328.012 247.837C327.068 246.755 325.875 245.918 324.536 245.398C323.197 244.878 321.752 244.69 320.325 244.85C319.393 244.971 318.505 245.318 317.738 245.86C316.972 246.403 316.349 247.124 315.925 247.962C315.461 248.929 315.302 250.014 315.469 251.074C315.637 252.133 316.122 253.116 316.861 253.893C317.6 254.67 318.558 255.204 319.607 255.424C320.657 255.644 321.748 255.54 322.737 255.125C324.649 254.243 326.321 252.914 327.612 251.25C328.038 250.835 328.367 250.332 328.575 249.775C328.681 249.473 328.704 249.148 328.642 248.834C328.581 248.519 328.437 248.227 328.225 247.987" fill="#664534"/>
<path d="M317.312 242.988C317.887 242.888 318.362 246.737 322 249.125C325.637 251.512 329.725 250.563 329.812 251.1C329.9 251.338 328.987 251.962 327.25 252.225C324.981 252.524 322.68 252.015 320.75 250.788C318.897 249.608 317.578 247.751 317.075 245.612C316.725 244.012 317.05 243 317.312 242.988Z" fill="#263238"/>
<path d="M311.25 199.45C311.012 200.462 307.387 200.425 303.262 201.425C299.137 202.425 295.875 203.925 295.225 203.162C294.925 202.775 295.4 201.787 296.662 200.662C298.348 199.293 300.325 198.326 302.441 197.836C304.558 197.347 306.758 197.347 308.875 197.837C310.5 198.3 311.375 198.962 311.25 199.45Z" fill="#263238"/>
<path d="M343.749 197.375C343.212 198.25 340.649 197.7 337.687 198.012C334.724 198.325 332.287 199.262 331.612 198.425C331.312 198.05 331.612 197.175 332.612 196.287C333.966 195.177 335.628 194.509 337.374 194.375C339.111 194.2 340.859 194.572 342.374 195.437C343.537 196.15 343.974 196.937 343.749 197.375Z" fill="#263238"/>
<path d="M362.312 209.612C361.916 205.507 360.104 201.666 357.187 198.75C355.549 197.225 353.524 196.125 352.037 194.45C348.837 190.825 348.85 185.462 347.275 180.9C346.224 177.955 344.487 175.303 342.206 173.163C339.926 171.024 337.168 169.46 334.162 168.6C329.162 167.212 323.649 167.85 318.899 165.762C315.399 164.212 312.649 161.3 308.999 159.962C302 157.362 294.4 161.412 288.275 165.687C287.375 170.862 290.925 175.025 294.325 179.025C296.053 181.008 298.19 182.594 300.59 183.673C302.989 184.752 305.594 185.298 308.225 185.275C312.3 185.275 316.974 183.95 320.024 186.637C323.074 189.325 322.525 194.912 325.2 198.225C329.087 202.95 336.975 200.462 342.475 203.162C346.712 205.25 348.725 209.987 351.15 214.087C353.575 218.187 357.399 222.362 362.074 221.787C362.618 217.751 362.698 213.667 362.312 209.612Z" fill="#263238"/>
<path d="M299.075 174.2C287.175 174.903 275.524 177.9 264.762 183.025C261.562 184.55 258.287 186.437 256.625 189.575C255.175 192.325 255.212 195.6 255.475 198.712C256.3 208.425 261.1 220.037 265.475 228.712L278.162 235.087C287.35 232.187 281.912 216.337 280.825 208.3C283.968 206.572 286.564 203.998 288.319 200.869C290.073 197.741 290.915 194.183 290.75 190.6C293.277 188.664 295.337 186.186 296.778 183.347C298.219 180.509 299.004 177.383 299.075 174.2Z" fill="#263238"/>
<path d="M277.725 231.662C276.937 226.125 270.037 225.55 265.462 228.762C262.962 230.525 261.212 233.762 261.987 239.662C264.037 255.35 279.362 250.05 279.325 249.587C279.287 249.125 278.625 238.137 277.725 231.662Z" fill="#985952"/>
<path d="M273.75 244.275C273.675 244.275 273.5 244.513 273.062 244.775C272.451 245.145 271.719 245.257 271.025 245.088C269.287 244.7 267.55 242.25 267.1 239.438C266.888 238.098 266.973 236.728 267.35 235.425C267.432 234.915 267.638 234.433 267.95 234.022C268.261 233.61 268.669 233.28 269.137 233.063C269.439 232.938 269.774 232.924 270.085 233.022C270.396 233.12 270.662 233.325 270.837 233.6C271.112 234 271.05 234.338 271.137 234.35C271.225 234.363 271.437 234.038 271.225 233.413C271.089 233.037 270.829 232.72 270.487 232.513C270.013 232.243 269.452 232.171 268.925 232.313C268.303 232.526 267.747 232.896 267.309 233.386C266.871 233.876 266.567 234.471 266.425 235.113C265.936 236.56 265.807 238.104 266.05 239.613C266.562 242.763 268.55 245.5 270.925 245.863C271.371 245.935 271.828 245.905 272.261 245.775C272.694 245.645 273.092 245.419 273.425 245.113C273.75 244.663 273.812 244.3 273.75 244.275Z" fill="#664534"/>
<path d="M265.212 248.45C266.02 247.409 267.066 246.577 268.262 246.025H268.012C268.232 245.945 268.458 245.883 268.687 245.838C269.098 245.678 269.537 245.603 269.977 245.618C270.418 245.633 270.851 245.737 271.25 245.925C272.707 246.308 273.969 247.222 274.787 248.488C275.435 249.618 275.761 250.903 275.73 252.206C275.699 253.508 275.313 254.777 274.612 255.875C274.12 256.86 273.34 257.673 272.377 258.206C271.414 258.739 270.311 258.968 269.215 258.863C268.119 258.757 267.08 258.322 266.236 257.615C265.392 256.907 264.783 255.961 264.487 254.9C264.057 253.85 263.899 252.709 264.025 251.582C264.152 250.455 264.56 249.378 265.212 248.45Z" fill="#455A64"/>
<path d="M272.5 251.025V251.237C272.48 251.453 272.425 251.664 272.337 251.862C271.981 252.625 271.377 253.246 270.625 253.625C269.435 254.252 268.129 254.626 266.787 254.725C265.956 254.804 265.119 254.804 264.287 254.725C263.322 254.663 262.373 254.448 261.475 254.087L261.65 253.987C261.53 255.337 261.064 256.632 260.295 257.747C259.527 258.863 258.483 259.761 257.265 260.353C256.047 260.946 254.696 261.213 253.345 261.13C251.993 261.046 250.685 260.613 249.55 259.875L249.812 259.812C249.386 260.561 248.68 261.109 247.85 261.337C247.014 261.587 246.123 261.587 245.287 261.337C244.415 261.088 243.65 260.556 243.112 259.825C242.577 259.087 242.233 258.228 242.112 257.325C241.911 255.431 242.384 253.528 243.45 251.95C244.552 250.349 245.844 248.888 247.3 247.6V247.962C246.616 247.596 246.016 247.091 245.538 246.48C245.06 245.869 244.715 245.165 244.525 244.412C244.106 242.876 244.145 241.251 244.637 239.737C245.2 238.212 246.049 236.808 247.137 235.6C248.232 234.387 249.401 233.243 250.637 232.175V232.5C250.029 231.929 249.546 231.237 249.221 230.468C248.896 229.7 248.735 228.872 248.75 228.037C248.738 226.326 249.239 224.65 250.187 223.225C252.025 220.5 254.862 218.85 257.475 217.3L257.362 217.587C256.833 215.976 256.703 214.261 256.982 212.588C257.261 210.916 257.942 209.336 258.966 207.984C259.989 206.632 261.326 205.549 262.86 204.826C264.394 204.104 266.081 203.765 267.775 203.837L267.55 204.125C267.197 202.79 267.154 201.392 267.425 200.037C267.696 198.683 268.273 197.409 269.112 196.312C269.848 195.262 270.802 194.384 271.909 193.736C273.015 193.089 274.249 192.689 275.525 192.562L275.35 192.775C275.285 191.433 275.527 190.093 276.058 188.858C276.589 187.624 277.394 186.526 278.412 185.65C279.277 184.85 280.293 184.233 281.402 183.836C282.51 183.439 283.687 183.269 284.862 183.337L284.7 183.512C284.68 182.074 285.015 180.653 285.675 179.375C286.224 178.24 286.959 177.205 287.85 176.312C289.237 174.85 291.071 173.892 293.062 173.587L293.662 173.5H294.212C294.55 173.48 294.888 173.48 295.225 173.5C295.74 173.565 296.25 173.669 296.75 173.812L297.662 174.125L297.962 174.237C297.855 174.229 297.749 174.204 297.65 174.162L296.737 173.9C296.236 173.772 295.727 173.68 295.212 173.625C294.879 173.605 294.545 173.605 294.212 173.625H293.675L293.087 173.712C291.168 174.052 289.413 175.009 288.087 176.437C287.224 177.322 286.514 178.344 285.987 179.462C285.363 180.698 285.045 182.066 285.062 183.45V183.625H284.887C283.756 183.562 282.625 183.73 281.561 184.119C280.497 184.508 279.523 185.11 278.7 185.887C277.731 186.731 276.965 187.784 276.461 188.966C275.956 190.148 275.726 191.429 275.787 192.712V192.912H275.6C274.383 193.041 273.209 193.43 272.156 194.053C271.103 194.677 270.197 195.52 269.5 196.525C268.691 197.576 268.136 198.8 267.878 200.101C267.62 201.402 267.666 202.745 268.012 204.025L268.1 204.325H267.787C266.161 204.241 264.54 204.556 263.063 205.241C261.586 205.927 260.3 206.963 259.314 208.258C258.329 209.554 257.674 211.071 257.408 212.677C257.142 214.284 257.272 215.93 257.787 217.475L257.85 217.65L257.687 217.75C255.075 219.3 252.312 220.925 250.562 223.537C249.667 224.881 249.192 226.46 249.2 228.075C249.183 228.841 249.328 229.602 249.625 230.309C249.922 231.015 250.365 231.651 250.925 232.175L251.137 232.35L250.925 232.525C248.512 234.687 246.075 236.95 245.087 239.887C244.624 241.313 244.589 242.843 244.987 244.287C245.152 244.978 245.459 245.626 245.89 246.19C246.321 246.754 246.865 247.222 247.487 247.562L247.775 247.7L247.55 247.925C246.131 249.183 244.872 250.61 243.8 252.175C242.795 253.674 242.352 255.481 242.55 257.275C242.604 258.114 242.906 258.919 243.418 259.586C243.93 260.254 244.628 260.754 245.425 261.025C246.148 261.304 246.943 261.332 247.685 261.106C248.426 260.879 249.069 260.411 249.512 259.775L249.6 259.6L249.775 259.7C250.96 260.464 252.334 260.884 253.744 260.915C255.154 260.946 256.545 260.586 257.762 259.875C258.773 259.256 259.629 258.413 260.264 257.412C260.899 256.411 261.296 255.278 261.425 254.1V253.925L261.587 253.987C262.46 254.344 263.384 254.559 264.325 254.625C265.156 254.706 265.994 254.706 266.825 254.625C268.13 254.54 269.404 254.195 270.575 253.612C271.315 253.253 271.917 252.66 272.287 251.925C272.5 251.325 272.5 251.025 272.5 251.025Z" fill="#455A64"/>
<path d="M211.25 238.562C210.997 238.283 210.775 237.977 210.588 237.65C210.032 236.715 209.67 235.678 209.525 234.6C209.277 232.877 209.602 231.12 210.45 229.6C211.024 228.583 211.804 227.697 212.741 227C213.677 226.303 214.749 225.809 215.888 225.55L215.775 225.75C215.052 223.112 215.356 220.298 216.625 217.875C217.308 216.514 218.281 215.319 219.475 214.375C220.779 213.459 222.169 212.671 223.625 212.025C224.346 211.664 225.012 211.201 225.6 210.65C226.167 210.071 226.595 209.369 226.85 208.6C227.438 207.05 227.525 205.237 228.3 203.6C229.12 201.873 230.438 200.431 232.084 199.46C233.73 198.489 235.63 198.032 237.538 198.15L237.288 198.425C236.878 196.531 236.909 194.569 237.377 192.689C237.846 190.809 238.739 189.062 239.989 187.582C241.238 186.101 242.811 184.927 244.586 184.15C246.36 183.373 248.29 183.014 250.225 183.1L249.975 183.387C249.595 181.302 249.819 179.152 250.621 177.19C251.422 175.228 252.769 173.536 254.5 172.314C256.232 171.092 258.277 170.391 260.395 170.293C262.512 170.195 264.613 170.705 266.45 171.762H266.2C267.659 170.148 269.45 168.869 271.45 168.012C273.223 167.205 275.092 166.629 277.013 166.3C280.117 165.743 283.296 165.743 286.4 166.3C288.395 166.619 290.324 167.26 292.113 168.2C292.583 168.444 293.035 168.724 293.463 169.037C293.763 169.237 293.9 169.35 293.9 169.35C293.9 169.35 293.275 168.937 292.05 168.3C290.253 167.418 288.33 166.819 286.35 166.525C283.274 166.029 280.134 166.08 277.075 166.675C275.187 167.01 273.351 167.59 271.613 168.4C269.656 169.264 267.912 170.544 266.5 172.15L266.388 172.275L266.25 172.187C264.483 171.179 262.466 170.697 260.434 170.796C258.403 170.894 256.442 171.571 254.781 172.746C253.121 173.92 251.83 175.545 251.061 177.427C250.291 179.31 250.075 181.373 250.438 183.375V183.662H250.138C248.271 183.572 246.408 183.913 244.694 184.657C242.98 185.402 241.46 186.53 240.252 187.956C239.043 189.382 238.179 191.066 237.726 192.88C237.273 194.693 237.242 196.586 237.638 198.412L237.713 198.725H237.388C235.581 198.626 233.785 199.064 232.228 199.985C230.67 200.907 229.421 202.269 228.638 203.9C227.9 205.487 227.8 207.275 227.175 208.9C226.884 209.727 226.405 210.476 225.775 211.087C225.156 211.667 224.457 212.156 223.7 212.537C222.258 213.163 220.88 213.929 219.588 214.825C218.437 215.727 217.498 216.871 216.838 218.175C215.595 220.515 215.278 223.237 215.95 225.8V225.962H215.788C214.684 226.201 213.642 226.668 212.729 227.333C211.816 227.998 211.053 228.847 210.488 229.825C209.642 231.305 209.3 233.021 209.513 234.712C209.641 235.778 209.972 236.809 210.488 237.75C211.038 238.25 211.25 238.55 211.25 238.562Z" fill="#455A64"/>
<path d="M362.212 231.85C362.099 231.665 362.026 231.458 361.998 231.242C361.97 231.027 361.988 230.808 362.05 230.6C362.204 230.079 362.488 229.606 362.875 229.225C363.418 228.732 364.056 228.353 364.75 228.112C365.602 227.813 366.406 227.392 367.137 226.862C367.938 226.173 368.495 225.244 368.725 224.212C368.999 223.019 369.045 221.785 368.862 220.575C368.712 219.325 368.4 217.912 368.3 216.437C368.05 213.462 369.1 210.337 369.625 206.987C369.914 205.26 369.859 203.493 369.462 201.787C369.266 200.897 368.88 200.06 368.329 199.333C367.779 198.605 367.078 198.006 366.275 197.575C364.46 196.849 362.562 196.354 360.625 196.1C359.593 195.899 358.604 195.523 357.7 194.987C356.789 194.405 356.041 193.6 355.525 192.65C354.614 190.704 353.91 188.668 353.425 186.575C353.132 185.545 352.69 184.564 352.112 183.662C351.511 182.779 350.631 182.124 349.612 181.8C348.163 181.52 346.685 181.424 345.212 181.512C344.446 181.514 343.684 181.383 342.962 181.125C342.239 180.849 341.601 180.387 341.112 179.787C340.287 178.58 339.634 177.263 339.175 175.875C338.679 174.592 337.917 173.428 336.937 172.462C336.009 171.536 334.899 170.811 333.677 170.334C332.455 169.856 331.148 169.636 329.837 169.687C327.382 169.808 325.061 170.847 323.337 172.6L323.137 172.8L323 172.55C321.958 170.675 320.526 169.046 318.801 167.771C317.076 166.497 315.098 165.607 313 165.162C311.255 164.794 309.455 164.769 307.7 165.087C306.207 165.337 304.772 165.854 303.462 166.612C301.129 167.993 299.358 170.153 298.462 172.712C298.401 172.843 298.346 172.976 298.3 173.112L298.237 173.25C298.237 173.25 298.237 173.25 298.237 173.1C298.237 172.95 298.325 172.862 298.375 172.687C298.538 172.147 298.743 171.621 298.987 171.112C299.923 169.155 301.414 167.516 303.275 166.4C304.604 165.612 306.065 165.07 307.587 164.8C309.375 164.45 311.213 164.45 313 164.8C315.141 165.25 317.162 166.152 318.928 167.445C320.693 168.739 322.162 170.394 323.237 172.3H322.912C324.706 170.457 327.131 169.363 329.7 169.237C331.071 169.183 332.439 169.411 333.719 169.907C334.999 170.404 336.162 171.159 337.137 172.125C338.162 173.134 338.963 174.348 339.487 175.687C339.931 177.02 340.562 178.283 341.362 179.437C341.827 179.967 342.406 180.383 343.056 180.654C343.706 180.925 344.409 181.043 345.112 181C346.627 180.903 348.148 181.004 349.637 181.3C350.749 181.659 351.709 182.381 352.362 183.35C352.972 184.287 353.435 185.311 353.737 186.387C354.217 188.449 354.908 190.456 355.8 192.375C356.275 193.263 356.967 194.015 357.812 194.562C358.673 195.064 359.61 195.419 360.587 195.612C362.564 195.878 364.5 196.391 366.35 197.137C367.233 197.59 367.992 198.25 368.562 199.062C369.103 199.848 369.497 200.724 369.725 201.65C370.141 203.408 370.192 205.234 369.875 207.012C369.325 210.412 368.275 213.487 368.5 216.387C368.587 217.825 368.887 219.187 369.025 220.5C369.21 221.75 369.15 223.023 368.85 224.25C368.594 225.329 367.998 226.298 367.15 227.012C366.382 227.55 365.54 227.971 364.65 228.262C363.965 228.476 363.334 228.834 362.8 229.312C362.424 229.653 362.14 230.083 361.975 230.562C361.893 231.006 361.978 231.465 362.212 231.85Z" fill="#455A64"/>
<path d="M391 205.225L390.825 204.95L390.325 204.1L388.45 200.8C387.625 199.375 386.7 197.575 385.4 195.637C384.038 193.382 382.066 191.558 379.712 190.375C378.387 189.775 376.887 189.425 375.362 188.875C374.569 188.605 373.813 188.236 373.112 187.775C372.381 187.28 371.78 186.615 371.362 185.837C370.5 184.25 370.337 182.4 369.612 180.762C369.281 179.925 368.701 179.209 367.95 178.712C367.135 178.242 366.248 177.908 365.325 177.725C364.345 177.53 363.387 177.241 362.462 176.862C361.491 176.434 360.681 175.707 360.15 174.787C359.062 172.95 358.9 170.787 358.362 168.787C358.138 167.772 357.713 166.811 357.112 165.962C356.46 165.153 355.519 164.629 354.487 164.5C352.387 164.225 350.212 165.112 347.887 164.912C346.716 164.797 345.613 164.311 344.737 163.525C343.92 162.78 343.194 161.941 342.575 161.025C341.985 160.125 341.342 159.261 340.65 158.437C339.991 157.623 339.129 156.997 338.15 156.625C336.212 155.9 334.112 156.512 332.212 157.112C330.32 157.853 328.291 158.177 326.262 158.062C324.365 157.73 322.544 157.057 320.887 156.075C319.357 155.171 317.741 154.422 316.062 153.837C312.972 153.04 309.716 153.171 306.7 154.212C304.2 155.051 301.923 156.444 300.037 158.287C298.634 159.7 297.453 161.319 296.537 163.087C295.982 164.22 295.518 165.394 295.15 166.6L294.85 167.537C294.828 167.647 294.79 167.752 294.737 167.85C294.746 167.738 294.771 167.629 294.812 167.525C294.812 167.287 294.95 166.962 295.062 166.562C295.389 165.337 295.828 164.144 296.375 163C297.266 161.196 298.434 159.542 299.837 158.1C301.74 156.206 304.048 154.77 306.587 153.9C309.669 152.808 313.004 152.652 316.175 153.45C317.881 154.039 319.526 154.793 321.087 155.7C322.702 156.645 324.471 157.297 326.312 157.625C328.28 157.731 330.248 157.402 332.075 156.662C333.063 156.338 334.074 156.087 335.1 155.912C336.177 155.729 337.282 155.824 338.312 156.187C339.349 156.598 340.265 157.265 340.975 158.125C341.7 158.95 342.3 159.862 342.937 160.75C343.528 161.662 344.224 162.501 345.012 163.25C345.818 163.962 346.829 164.4 347.9 164.5C350.062 164.7 352.237 163.812 354.525 164.1C355.676 164.244 356.726 164.831 357.45 165.737C358.096 166.631 358.551 167.648 358.787 168.725C359.325 170.787 359.512 172.912 360.512 174.625C361.004 175.457 361.742 176.117 362.625 176.512C363.524 176.886 364.458 177.17 365.412 177.362C366.377 177.556 367.303 177.911 368.15 178.412C368.973 178.954 369.61 179.735 369.975 180.65C370.725 182.387 370.875 184.225 371.687 185.712C372.531 187.109 373.87 188.136 375.437 188.587C376.925 189.137 378.45 189.5 379.812 190.125C382.205 191.355 384.203 193.235 385.575 195.55C386.825 197.525 387.762 199.3 388.562 200.775L390.362 204.112L390.812 204.987C390.883 205.06 390.946 205.139 391 205.225Z" fill="#455A64"/>
<path d="M373.037 190L373.325 189.937C373.614 189.903 373.907 189.946 374.175 190.062C374.668 190.328 375.088 190.711 375.398 191.177C375.707 191.644 375.897 192.18 375.95 192.737C376.005 193.533 375.946 194.333 375.775 195.112C375.573 196.018 375.506 196.949 375.575 197.875C375.759 198.915 376.211 199.889 376.887 200.7C377.575 201.6 378.425 202.475 379.125 203.562C379.536 204.121 379.812 204.767 379.931 205.45C380.05 206.134 380.01 206.835 379.812 207.5C379.412 208.875 378.562 210.075 378.137 211.475C377.829 212.951 378.098 214.49 378.887 215.775C379.6 217.162 380.587 218.5 381.3 220.05C381.683 220.833 381.916 221.681 381.987 222.55C382.042 223.452 381.906 224.355 381.587 225.2C380.838 226.848 379.943 228.425 378.912 229.912C377.866 231.398 377.42 233.224 377.662 235.025C378.216 236.835 378.984 238.572 379.95 240.2C380.391 241.092 380.662 242.058 380.75 243.05C380.787 244.04 380.603 245.027 380.212 245.937C379.374 247.619 378.342 249.196 377.137 250.637C376.018 252.009 375.193 253.596 374.712 255.3C374.408 256.993 373.99 258.663 373.462 260.3C373.143 261.1 372.648 261.818 372.012 262.4C371.375 262.94 370.647 263.364 369.862 263.65C369.138 263.925 368.429 264.238 367.737 264.587C367.098 264.965 366.514 265.427 366 265.962C365.071 267.042 364.289 268.24 363.675 269.525C363.037 270.775 362.425 271.95 361.762 273.037C360.561 275.041 358.74 276.599 356.575 277.475C354.957 278.145 353.21 278.444 351.462 278.35C350.367 278.285 349.287 278.054 348.262 277.662C347.904 277.523 347.557 277.355 347.225 277.162C348.57 277.746 350.01 278.085 351.475 278.162C353.19 278.227 354.899 277.906 356.475 277.225C358.568 276.348 360.322 274.818 361.475 272.862C362.137 271.787 362.725 270.587 363.337 269.35C363.964 268.03 364.763 266.799 365.712 265.687C366.249 265.121 366.864 264.633 367.537 264.237C368.235 263.864 368.958 263.538 369.7 263.262C370.437 262.995 371.122 262.601 371.725 262.1C372.311 261.556 372.765 260.885 373.05 260.137C373.579 258.501 373.997 256.83 374.3 255.137C374.786 253.372 375.638 251.728 376.8 250.312C377.979 248.897 378.99 247.349 379.812 245.7C380.18 244.858 380.347 243.942 380.3 243.025C380.221 242.094 379.966 241.186 379.55 240.35C378.56 238.69 377.779 236.914 377.225 235.062C377.05 234.1 377.11 233.109 377.4 232.175C377.694 231.297 378.093 230.458 378.587 229.675C379.602 228.21 380.485 226.658 381.225 225.037C381.537 224.243 381.67 223.389 381.612 222.537C381.551 221.713 381.335 220.907 380.975 220.162C380.287 218.662 379.312 217.325 378.587 215.887C377.749 214.51 377.476 212.862 377.825 211.287C378.25 209.8 379.15 208.612 379.537 207.325C379.722 206.71 379.764 206.061 379.657 205.428C379.551 204.795 379.3 204.195 378.925 203.675C378.25 202.625 377.412 201.737 376.725 200.812C376.025 199.949 375.56 198.92 375.375 197.825C375.325 196.876 375.409 195.925 375.625 195C375.806 194.243 375.878 193.464 375.837 192.687C375.796 192.153 375.626 191.637 375.344 191.183C375.061 190.728 374.673 190.348 374.212 190.075C373.836 189.937 373.428 189.911 373.037 190Z" fill="#455A64"/>
<path d="M211.612 238.013C211.197 238.06 210.778 238.06 210.362 238.013C209.149 237.866 207.981 237.461 206.937 236.825C205.242 235.835 203.946 234.283 203.275 232.438C202.841 231.21 202.682 229.902 202.809 228.605C202.937 227.309 203.347 226.057 204.012 224.938C204.86 223.689 205.832 222.529 206.912 221.475C208.094 220.375 209.009 219.02 209.587 217.513C210.013 215.828 209.795 214.045 208.975 212.513C208.25 210.863 207.2 209.288 206.475 207.513C205.688 205.503 205.331 203.351 205.425 201.195C205.518 199.039 206.062 196.927 207.02 194.993C207.978 193.06 209.329 191.347 210.988 189.967C212.646 188.586 214.575 187.567 216.65 186.975L216.525 187.363C215.728 186.39 215.175 185.242 214.912 184.013C214.67 182.774 214.67 181.501 214.912 180.263C215.141 179.002 215.59 177.792 216.237 176.688C216.918 175.577 217.76 174.574 218.737 173.713C221.643 171.3 225.064 169.59 228.737 168.713C232.18 167.794 235.737 167.373 239.3 167.463L239.062 167.7C239.002 166.205 239.243 164.712 239.77 163.311C240.298 161.911 241.101 160.63 242.133 159.546C243.165 158.462 244.404 157.596 245.777 156.999C247.149 156.403 248.628 156.089 250.125 156.075C251.921 156.142 253.698 156.471 255.4 157.05C256.215 157.278 257.054 157.408 257.9 157.438C258.703 157.439 259.5 157.29 260.25 157C261.683 156.39 263.035 155.605 264.275 154.663C265.459 153.799 266.749 153.089 268.112 152.55C269.381 152.082 270.712 151.804 272.062 151.725C274.358 151.562 276.656 151.993 278.737 152.975C280.274 153.729 281.656 154.764 282.812 156.025C283.535 156.809 284.16 157.678 284.675 158.613C284.85 158.931 285.004 159.261 285.137 159.6C285.137 159.6 284.962 159.275 284.6 158.65C284.06 157.75 283.422 156.912 282.7 156.15C281.535 154.933 280.158 153.938 278.637 153.213C276.594 152.238 274.333 151.808 272.075 151.963C270.758 152.054 269.461 152.336 268.225 152.8C266.89 153.336 265.63 154.042 264.475 154.9C263.215 155.863 261.842 156.669 260.387 157.3C259.593 157.619 258.743 157.776 257.887 157.763C257.021 157.744 256.16 157.618 255.325 157.388C253.66 156.821 251.92 156.501 250.162 156.438C248.32 156.47 246.514 156.964 244.912 157.875C243.215 158.86 241.819 160.29 240.874 162.011C239.929 163.731 239.471 165.676 239.55 167.638V167.888H239.3C235.783 167.803 232.272 168.224 228.875 169.138C225.26 169.977 221.889 171.641 219.025 174C218.097 174.828 217.296 175.788 216.65 176.85C216.035 177.909 215.612 179.069 215.4 180.275C215.175 181.456 215.175 182.669 215.4 183.85C215.645 185.002 216.164 186.078 216.912 186.988L217.15 187.275L216.8 187.375C214.781 187.941 212.903 188.925 211.287 190.261C209.671 191.598 208.354 193.259 207.42 195.137C206.486 197.014 205.956 199.067 205.864 201.162C205.772 203.257 206.121 205.348 206.887 207.3C207.562 209.075 208.6 210.663 209.387 212.3C210.227 213.898 210.446 215.751 210 217.5C209.401 219.057 208.451 220.456 207.225 221.588C206.148 222.618 205.18 223.758 204.337 224.988C203.683 226.071 203.274 227.286 203.14 228.545C203.006 229.804 203.15 231.078 203.562 232.275C204.204 234.083 205.449 235.615 207.087 236.613C208.107 237.253 209.247 237.678 210.437 237.863C211.25 238.013 211.625 237.988 211.612 238.013Z" fill="#263238"/>
<path d="M377.787 178.75C377.748 178.655 377.727 178.553 377.725 178.45L377.575 177.562C377.437 176.762 377.25 175.637 377 174.187C376.75 172.737 376.4 170.937 375.85 168.912C375.246 166.603 374.378 164.372 373.262 162.262C371.906 159.719 370.022 157.494 367.737 155.737C366.456 154.782 365.029 154.04 363.512 153.537C361.865 153.099 360.196 152.749 358.512 152.487C356.699 152.212 354.955 151.592 353.375 150.662C351.788 149.595 350.34 148.335 349.062 146.912C347.737 145.525 346.462 144.062 345 142.75C343.54 141.405 341.845 140.342 340 139.612C336.296 138.293 332.359 137.753 328.437 138.025C324.773 138.167 321.126 138.585 317.525 139.275C311.386 140.376 305.472 142.488 300.025 145.525C296.381 147.595 293.09 150.233 290.275 153.337C289.787 153.9 289.337 154.375 289.025 154.825C288.712 155.275 288.4 155.662 288.15 155.975L287.612 156.687L287.412 156.912C287.456 156.821 287.506 156.734 287.562 156.65L288.075 155.925L288.912 154.737C289.262 154.275 289.7 153.787 290.162 153.212C292.953 150.04 296.242 147.342 299.9 145.225C305.334 142.123 311.249 139.952 317.4 138.8C321.025 138.103 324.698 137.685 328.387 137.55C332.373 137.256 336.375 137.801 340.137 139.15C342.034 139.904 343.776 141.001 345.275 142.387C346.762 143.712 348.037 145.2 349.362 146.575C350.604 147.955 352.015 149.173 353.562 150.2C355.096 151.119 356.794 151.731 358.562 152C360.249 152.259 361.918 152.618 363.562 153.075C365.12 153.597 366.584 154.365 367.9 155.35C370.218 157.155 372.123 159.435 373.487 162.037C374.581 164.178 375.42 166.439 375.987 168.775C376.512 170.825 376.825 172.625 377.062 174.1C377.3 175.575 377.45 176.712 377.537 177.487C377.537 177.862 377.612 178.15 377.637 178.375C377.709 178.49 377.759 178.617 377.787 178.75Z" fill="#263238"/>
<path d="M381.25 318.65C381.25 318.65 377.5 304.512 376.25 304.512L336.7 294.512C336.7 294.512 323.162 309.425 307.2 307.75C291.237 306.075 278.25 293.012 278.25 293.012L234.162 303.537C230.975 304.175 225.137 306.2 219.575 314.162C213.325 323.037 180.625 369.275 180.625 369.275L231.387 393.587L383.35 369.537L381.25 318.65Z" fill="#455A64"/>
<path d="M376.25 304.512C376.25 304.512 389.725 305.887 406.25 323.375C414.825 332.5 438.625 357.5 438.625 357.5L393.625 399.587L376.25 372.787L376.612 326.712L376.25 304.512Z" fill="#455A64"/>
<path d="M179.549 318.275C178.649 317.55 182.599 303.125 182.599 303.125C182.599 303.125 172.137 286.937 171.862 281.712C171.587 276.487 175.987 265.787 175.987 265.787L205.987 258.475C205.987 258.475 215.624 275.437 217.537 281.45C219.449 287.462 214.237 307.825 214.237 307.825L209.162 318.275C209.162 318.275 193.837 329.762 179.549 318.275Z" fill="#985952"/>
<path d="M171.925 284.837C170.75 282.791 169.695 280.68 168.762 278.512C166.875 274.237 164.537 270.05 168.762 267.662C169.43 267.247 170.176 266.972 170.954 266.853C171.732 266.735 172.526 266.777 173.287 266.975C173.287 266.975 172.637 263.387 174.9 262.037C175.566 261.644 176.311 261.406 177.082 261.341C177.852 261.276 178.628 261.386 179.35 261.662C179.35 261.662 178.625 256.587 181.85 254.437C183.09 253.671 184.512 253.246 185.969 253.207C187.427 253.167 188.87 253.514 190.15 254.212C190.15 254.212 187.575 232 187.35 230.825C186.525 226.512 188.212 222.687 192.737 223.75C194.4 224.137 195.325 225.8 197.262 233.037C199.2 240.275 202.337 252.612 202.337 252.612C202.337 252.612 207.6 261.362 210.087 266.012C212.575 270.662 217.487 281.45 217.9 284.287C218.962 291.637 214.425 301.362 214.425 301.362L182.562 303.125C182.562 303.125 173.137 286.937 171.925 284.837Z" fill="#985952"/>
<path d="M173.913 267.938C174.832 268.961 175.667 270.056 176.413 271.212L178.913 274.85C179.436 275.567 179.896 276.328 180.288 277.125C180.734 278.018 180.866 279.035 180.663 280.012C180.556 280.531 180.314 281.011 179.96 281.404C179.606 281.798 179.154 282.09 178.65 282.25C177.686 282.483 176.671 282.363 175.788 281.912C175.04 281.566 174.329 281.147 173.663 280.662C173.038 280.237 172.413 279.825 171.95 279.412C170.913 278.65 170.113 278 169.563 277.525C169.013 277.05 168.75 276.775 168.775 276.738C168.8 276.7 170.1 277.625 172.225 279.062C173.416 279.917 174.67 280.682 175.975 281.35C176.723 281.718 177.576 281.815 178.388 281.625C178.784 281.495 179.137 281.261 179.41 280.946C179.683 280.631 179.865 280.248 179.938 279.837C180.112 278.991 179.997 278.111 179.613 277.337C179.257 276.571 178.839 275.835 178.363 275.137L175.963 271.387C175.186 270.296 174.5 269.142 173.913 267.938Z" fill="#664534"/>
<path d="M200 270.575C199.718 268.988 199.834 267.356 200.337 265.825C200.63 264.225 201.313 262.723 202.325 261.45C202.5 261.525 201.612 263.462 200.987 265.975C200.362 268.487 200.25 270.575 200 270.575Z" fill="#664534"/>
<path d="M212.687 277.075C209.703 274.341 206.007 272.508 202.025 271.787C198.021 271.054 193.933 270.907 189.887 271.35C186.637 271.625 182.937 272.425 181.462 275.175C179.987 277.925 181.775 281.662 184.65 283.3C187.525 284.937 191.075 284.987 194.412 284.7C197.75 284.412 201.125 283.825 204.412 284.312" fill="#985952"/>
<path d="M204.425 284.312C204.425 284.312 203.525 284.237 201.925 284.25C200.325 284.262 197.987 284.525 195.1 284.862C193.511 285.054 191.911 285.12 190.312 285.062C188.454 285.018 186.624 284.593 184.937 283.812C183.092 282.913 181.664 281.337 180.95 279.412C180.58 278.404 180.502 277.313 180.725 276.262C181 275.166 181.617 274.185 182.487 273.462C184.279 272.154 186.4 271.37 188.612 271.2C190.621 270.973 192.641 270.861 194.662 270.862C198.097 270.803 201.519 271.292 204.8 272.312C206.986 273.007 209.043 274.059 210.887 275.425C211.374 275.814 211.837 276.231 212.275 276.675C212.575 276.975 212.712 277.137 212.7 277.162C212.687 277.187 212.037 276.575 210.725 275.675C208.856 274.413 206.808 273.44 204.65 272.787C201.401 271.857 198.027 271.436 194.65 271.537C192.652 271.549 190.658 271.674 188.675 271.912C186.595 272.069 184.6 272.8 182.912 274.025C182.139 274.671 181.592 275.547 181.35 276.525C181.152 277.463 181.221 278.437 181.55 279.337C182.199 281.12 183.511 282.584 185.212 283.425C186.814 284.183 188.553 284.608 190.325 284.675C191.892 284.747 193.462 284.709 195.025 284.562C197.305 284.276 199.601 284.134 201.9 284.137C202.527 284.155 203.153 284.209 203.775 284.3C203.991 284.27 204.21 284.274 204.425 284.312Z" fill="#664534"/>
<path d="M174.15 268.288C177.45 273.222 180.5 278.321 183.287 283.563C183.977 285.144 185.083 286.51 186.487 287.513C187.737 288.225 190.7 286.938 192.037 286.5L182.825 266.613" fill="#985952"/>
<path d="M182.825 266.613C183.153 267.077 183.43 267.576 183.65 268.1C184.175 269.175 184.9 270.6 185.687 272.263C187.387 275.8 189.737 280.763 192.337 286.375L192.487 286.688L192.15 286.8C191.15 287.138 190.087 287.563 188.937 287.838C188.474 287.949 188.001 288.016 187.525 288.038C187.273 288.051 187.02 288.025 186.775 287.963C186.524 287.898 186.287 287.787 186.075 287.638C185.341 287.135 184.712 286.494 184.225 285.75C183.275 284.338 182.612 282.925 181.862 281.613C180.412 278.963 179.087 276.613 177.937 274.625C176.787 272.638 175.825 271.088 175.15 270C174.766 269.46 174.432 268.887 174.15 268.288C174.611 268.775 175.03 269.302 175.4 269.863C176.137 270.913 177.175 272.463 178.375 274.413C179.575 276.363 180.95 278.713 182.425 281.338C183.187 282.588 183.887 284.088 184.787 285.413C185.238 286.08 185.811 286.657 186.475 287.113C186.834 287.289 187.226 287.39 187.626 287.409C188.026 287.428 188.425 287.366 188.8 287.225C189.887 286.963 190.925 286.55 191.95 286.2L191.762 286.625C189.175 281.013 186.9 276.025 185.312 272.425C184.55 270.713 183.937 269.288 183.45 268.188C183.193 267.683 182.983 267.156 182.825 266.613Z" fill="#664534"/>
<path d="M180.35 260.7C183.316 267.75 186.275 274.796 189.225 281.837C189.768 283.378 190.576 284.812 191.612 286.075C192.157 286.717 192.847 287.22 193.625 287.542C194.404 287.864 195.248 287.995 196.087 287.925C197.201 287.683 198.198 287.067 198.914 286.181C199.63 285.294 200.022 284.189 200.025 283.05C199.955 280.815 199.387 278.624 198.362 276.637C195.712 270.228 193.584 263.615 192 256.862" fill="#985952"/>
<path d="M192 256.862C192.106 257.062 192.182 257.277 192.225 257.5L192.75 259.375C193.212 260.987 193.875 263.337 194.812 266.2C195.75 269.062 196.962 272.45 198.487 276.2C199.432 278.102 200.061 280.145 200.35 282.25C200.44 283.408 200.207 284.568 199.675 285.6C199.134 286.739 198.183 287.632 197.012 288.1C196.4 288.308 195.752 288.389 195.108 288.34C194.463 288.29 193.836 288.111 193.262 287.812C192.203 287.268 191.303 286.458 190.65 285.462C189.586 283.633 188.686 281.713 187.962 279.725C186.45 275.975 185.075 272.712 183.912 269.887C182.75 267.062 181.9 264.887 181.237 263.25L180.537 261.425C180.44 261.219 180.373 261 180.337 260.775C180.473 260.959 180.582 261.161 180.662 261.375L181.475 263.15L184.35 269.725C185.6 272.537 186.962 275.85 188.537 279.5C189.286 281.406 190.193 283.246 191.25 285C191.845 285.901 192.663 286.634 193.625 287.125C194.108 287.383 194.64 287.539 195.186 287.582C195.733 287.625 196.282 287.554 196.8 287.375C197.816 286.966 198.644 286.196 199.125 285.212C199.605 284.271 199.817 283.216 199.737 282.162C199.453 280.126 198.85 278.148 197.95 276.3C196.45 272.55 195.287 269.175 194.4 266.3C193.512 263.425 192.912 261.05 192.537 259.4C192.35 258.575 192.212 257.937 192.125 257.5C192.057 257.293 192.015 257.079 192 256.862Z" fill="#664534"/>
<path d="M181.062 310.262C181.062 310.262 160.725 367.162 159.925 370L200.762 383.362L214.512 306.5L181.062 310.262Z" fill="#985952"/>
<path d="M200.862 301.425C200.215 301.492 199.561 301.411 198.95 301.188C197.455 300.754 196.073 299.999 194.9 298.975C193.749 297.979 192.839 296.735 192.237 295.338C191.939 294.791 191.797 294.172 191.825 293.55C192.673 295.425 193.869 297.122 195.35 298.55C197.004 299.825 198.87 300.799 200.862 301.425Z" fill="#664534"/>
<path d="M159.925 370C159.925 370 153.25 386.587 153.675 397.812C154.1 409.037 159.925 430.312 176.325 430.187C188.15 430.125 199.987 425.437 212.65 410.937C219.675 402.887 228.55 392.35 228.55 392.35L191.05 374.425L159.925 370Z" fill="#985952"/>
<path d="M192.25 413.9C192.323 413.604 192.433 413.319 192.575 413.05L193.612 410.662C194.087 409.65 194.462 408.312 195.012 406.812C195.562 405.312 196.05 403.55 196.625 401.612C198.875 393.862 201.312 382.962 203.625 370.862C205.937 358.762 207.725 347.737 209.012 339.762C209.637 335.825 210.15 332.612 210.525 330.312C210.7 329.25 210.837 328.4 210.95 327.75C210.983 327.444 211.046 327.143 211.137 326.85C211.16 327.154 211.16 327.459 211.137 327.762L210.837 330.35C210.55 332.587 210.112 335.837 209.587 339.837C208.412 347.825 206.675 358.862 204.375 370.987C202.075 383.112 199.537 394 197.187 401.737C196.575 403.675 196.075 405.487 195.475 406.925C194.875 408.362 194.475 409.75 193.962 410.762L192.8 413.1C192.638 413.38 192.454 413.648 192.25 413.9Z" fill="#664534"/>
<path d="M225.275 340.55C225.408 340.848 225.512 341.157 225.587 341.475C225.775 342.15 226.037 343.05 226.35 344.162C226.975 346.525 227.812 349.937 228.75 354.162C230.637 362.65 232.912 374.437 235.15 387.525C237.387 400.612 239.075 412.525 240.087 421.137C240.587 425.45 240.925 428.95 241.112 431.375C241.187 432.55 241.237 433.475 241.275 434.175C241.297 434.499 241.297 434.825 241.275 435.15C241.194 434.835 241.143 434.512 241.125 434.187C241.05 433.487 240.962 432.562 240.837 431.4C240.575 428.987 240.162 425.5 239.587 421.187C238.462 412.575 236.662 400.712 234.462 387.625C232.262 374.537 230.037 362.762 228.212 354.25C227.325 350 226.562 346.575 226.012 344.25C225.75 343.125 225.537 342.212 225.375 341.537C225.323 341.21 225.29 340.881 225.275 340.55Z" fill="#263238"/>
<path d="M381.15 406.338C381.122 406.097 381.122 405.853 381.15 405.613C381.15 405.063 381.25 404.363 381.312 403.537C381.475 401.65 381.7 399.063 381.962 395.9C382.726 387.523 383.03 379.11 382.875 370.7C382.73 366.074 382.338 361.459 381.7 356.875C381.35 354.775 381.062 352.763 380.637 350.913C380.425 349.988 380.262 349.088 380.05 348.238C379.837 347.388 379.612 346.575 379.412 345.738C379.037 344.163 378.55 342.788 378.162 341.563C377.775 340.338 377.412 339.3 377.087 338.45C376.762 337.6 376.562 337.013 376.387 336.5C376.286 336.277 376.214 336.042 376.175 335.8C376.315 335.999 376.425 336.218 376.5 336.45L377.325 338.363C377.687 339.2 378.1 340.225 378.5 341.45C378.9 342.675 379.437 344.038 379.837 345.613C380.062 346.4 380.287 347.213 380.525 348.113C380.762 349.013 380.937 349.875 381.15 350.8C381.612 352.663 381.912 354.675 382.287 356.788C382.965 361.39 383.382 366.026 383.537 370.675C383.707 379.115 383.34 387.557 382.437 395.95C382.112 399.163 381.812 401.763 381.575 403.563C381.462 404.4 381.362 405.088 381.287 405.625C381.278 405.868 381.232 406.108 381.15 406.338Z" fill="#263238"/>
<path d="M363 470.663C363 470.663 360.912 465.163 365.5 464.725C367.995 464.548 370.499 464.498 373 464.575C374.984 464.61 376.909 465.266 378.502 466.449C380.096 467.633 381.28 469.285 381.887 471.175L383.75 477.125L390.062 483.438H397.025L407.912 506.6C407.912 506.6 398.55 514.5 393.1 511.925C387.65 509.35 386.85 509.775 386.85 509.775C386.85 509.775 365.3 522.4 363.775 521.75C362.25 521.1 359.65 518.775 363.775 515.213C367.9 511.65 382.275 501.725 382.275 501.725L354.85 511.925C354.85 511.925 350.287 510.863 352.9 507.375C355.512 503.888 378.575 493.15 378.575 493.15L376.837 491.275C376.837 491.275 354.637 499.55 353.087 498.463C351.537 497.375 348 495.188 352.062 492.363C356.125 489.538 376.162 481.488 376.162 481.488L373.112 474.3L370 472.775C370 472.775 363.637 472.65 363 470.663Z" fill="#985952"/>
<path d="M403.987 491.85C403.687 491.925 403.062 489.25 400.849 486.85C398.637 484.45 396.062 483.6 396.162 483.3C396.262 483 399.212 483.45 401.637 486.125C404.062 488.8 404.275 491.875 403.987 491.85Z" fill="#664534"/>
<path d="M386.062 485.275C385.812 485.462 384.25 483.262 381.312 482.237C378.375 481.212 375.775 481.937 375.712 481.625C375.65 481.312 376.262 481.125 377.35 480.9C378.793 480.627 380.282 480.74 381.667 481.227C383.052 481.714 384.283 482.559 385.237 483.675C385.95 484.537 386.175 485.2 386.062 485.275Z" fill="#664534"/>
<path d="M386.363 493.6C386.188 493.85 384.45 492.825 382.1 492.937C379.75 493.05 378.075 494.187 377.888 493.9C377.7 493.612 379.288 491.95 382.063 491.862C384.838 491.775 386.588 493.412 386.363 493.6Z" fill="#664534"/>
<path d="M390.225 501.337C390.137 501.637 388.062 501.175 385.55 501.55C383.037 501.925 381.175 502.9 381 502.637C380.825 502.375 382.612 500.875 385.4 500.487C388.187 500.1 390.337 501.087 390.225 501.337Z" fill="#664534"/>
<g opacity="0.3">
<path opacity="0.3" d="M377.1 338.05V338.563C382.725 351.25 382.962 370.375 383.025 384.7C385.933 377.023 387.62 368.937 388.025 360.738C388.087 353.275 383.45 341.963 377.1 338.05Z" fill="black"/>
</g>
</svg>
