<svg width="630" height="592" viewBox="0 0 630 592" fill="none" xmlns="http://www.w3.org/2000/svg">
<g clip-path="url(#clip0_34_6631)">
<path d="M421.844 141.051L419.589 137.338C400.548 105.967 366.132 87.0515 329.841 89.344C325.162 89.6226 320.51 90.243 315.922 91.2003C282.925 98.2727 254.215 123.221 242.32 155.186C235.323 173.981 233.365 195.625 220.049 210.55C202.762 229.967 173.422 230.579 147.616 229.772C121.811 228.964 92.4513 229.651 75.2384 249.151C64.5488 261.393 61.1248 278.805 61.9877 295.113C64.289 338.401 94.4649 377.105 132.807 396.345C171.148 415.585 216.319 417.312 258.289 408.847C317.091 396.985 373.008 364.426 406.617 314.177C440.226 263.927 448.735 195.338 421.844 141.051Z" fill="white"/>
<path d="M331.027 470.676C336.377 484.945 335.836 500.753 329.522 514.624C323.209 528.495 311.64 539.291 297.361 544.638C294.194 545.829 290.928 546.741 287.603 547.365C276.859 549.319 265.78 548.172 255.665 544.059C245.549 539.946 236.817 533.036 230.492 524.141C224.167 515.245 220.51 504.732 219.951 493.833C219.392 482.935 221.954 472.103 227.336 462.608C232.718 453.113 240.698 445.348 250.339 440.223C259.98 435.097 270.884 432.825 281.772 433.672C292.659 434.519 303.08 438.449 311.812 445.003C320.543 451.557 327.224 460.462 331.072 470.676H331.027Z" fill="#19B690"/>
<path d="M319.89 475.543C322.969 483.652 323.572 492.491 321.622 500.942C319.672 509.393 315.256 517.076 308.934 523.018C302.612 528.96 294.668 532.894 286.108 534.322C277.547 535.75 268.755 534.608 260.844 531.041C252.933 527.474 246.26 521.641 241.668 514.282C237.076 506.922 234.772 498.367 235.049 489.698C235.325 481.03 238.169 472.639 243.22 465.586C248.272 458.534 255.303 453.137 263.425 450.08C274.292 445.977 286.345 446.355 296.933 451.13C307.522 455.905 315.779 464.686 319.89 475.543Z" fill="#19B690"/>
<path d="M318.196 475.543C318.071 475.344 317.966 475.134 317.881 474.914C317.656 474.45 317.371 473.821 316.997 473.027C316.817 472.608 316.607 472.143 316.367 471.634C316.112 471.125 315.782 470.601 315.453 470.016C314.732 468.663 313.91 467.367 312.994 466.137C310.592 462.675 307.676 459.599 304.346 457.015C296.429 450.736 286.569 447.411 276.464 447.61C266.358 447.81 256.638 451.522 248.975 458.109C247.403 459.442 245.925 460.884 244.553 462.422C243.864 463.201 243.249 464.055 242.59 464.879C241.92 465.704 241.309 466.574 240.761 467.485C239.603 469.297 238.556 471.177 237.628 473.117C236.755 475.134 236.014 477.205 235.41 479.318C234.153 483.65 233.607 488.157 233.791 492.664C234.131 502.017 237.514 511.004 243.429 518.262C246.264 521.773 249.645 524.808 253.442 527.249C255.289 528.436 257.212 529.502 259.198 530.439C261.176 531.298 263.209 532.023 265.284 532.611C269.289 533.802 273.457 534.357 277.635 534.258C287.736 534.139 297.483 530.52 305.212 524.018C312.94 517.517 318.17 508.536 320.009 498.61C320.809 494.475 320.976 490.243 320.504 486.058C320.375 484.545 320.134 483.043 319.785 481.565C319.65 480.921 319.545 480.307 319.41 479.767L318.96 478.269C318.72 477.431 318.525 476.772 318.376 476.277C318.294 476.049 318.234 475.813 318.196 475.573C318.301 475.786 318.391 476.007 318.465 476.232L319.14 478.21L319.635 479.707C319.785 480.247 319.904 480.861 320.054 481.505C320.44 483.005 320.711 484.532 320.864 486.073C321.402 490.295 321.285 494.574 320.519 498.76C319.422 504.917 317.029 510.771 313.5 515.935C309.97 521.099 305.384 525.455 300.044 528.716C291.433 533.901 281.332 536.052 271.354 534.828C269.223 534.534 267.114 534.093 265.044 533.51C262.93 532.905 260.857 532.164 258.838 531.293C256.808 530.345 254.844 529.259 252.962 528.042C249.074 525.563 245.616 522.467 242.725 518.876C239.758 515.174 237.372 511.043 235.65 506.623C234.033 502.166 233.098 497.49 232.877 492.753C232.699 488.15 233.261 483.549 234.541 479.123C235.7 474.828 237.553 470.75 240.027 467.051C240.589 466.128 241.21 465.243 241.885 464.4C242.56 463.561 243.204 462.692 243.894 461.898C245.291 460.335 246.794 458.869 248.391 457.509C254.412 452.388 261.693 448.965 269.481 447.594C275.65 446.531 281.975 446.789 288.037 448.351C294.099 449.913 299.76 452.744 304.645 456.656C307.978 459.303 310.885 462.445 313.264 465.972C314.167 467.23 314.969 468.557 315.662 469.942C315.992 470.526 316.307 471.065 316.547 471.574C316.787 472.083 316.967 472.563 317.146 472.997L317.926 474.929C318.035 475.125 318.125 475.331 318.196 475.543Z" fill="#263238"/>
<g opacity="0.3">
<path opacity="0.3" d="M318.046 476.098C317.806 476.202 316.952 474.465 315.048 471.604C312.482 467.535 309.302 463.887 305.62 460.79C303.102 458.68 300.357 456.856 297.436 455.353C294.113 453.656 290.587 452.393 286.943 451.593C284.969 451.155 282.965 450.865 280.947 450.724C278.852 450.56 276.747 450.56 274.652 450.724C272.486 450.891 270.336 451.227 268.221 451.728C266.044 452.248 263.909 452.934 261.836 453.78C259.768 454.633 257.764 455.635 255.84 456.776C253.989 457.916 252.226 459.193 250.564 460.595C248.949 461.972 247.445 463.475 246.067 465.089C244.729 466.599 243.512 468.212 242.425 469.912C240.389 473.061 238.767 476.459 237.598 480.022C236.587 483.15 235.924 486.38 235.62 489.653C235.196 494.441 235.514 499.266 236.564 503.957C237.299 507.312 237.913 509.14 237.673 509.245C237.433 509.349 236.459 507.657 235.305 504.302C233.722 499.531 233.031 494.509 233.266 489.488C233.417 486.003 233.985 482.548 234.96 479.198C236.079 475.344 237.718 471.661 239.832 468.249C240.963 466.397 242.241 464.639 243.654 462.992C245.103 461.251 246.692 459.633 248.406 458.154C250.18 456.617 252.075 455.225 254.072 453.99C256.131 452.725 258.286 451.624 260.517 450.694C262.753 449.792 265.052 449.056 267.397 448.493C269.684 447.96 272.01 447.615 274.352 447.459C276.607 447.279 278.872 447.279 281.127 447.459C283.29 447.642 285.435 447.992 287.543 448.508C291.448 449.433 295.21 450.884 298.725 452.821C301.768 454.527 304.605 456.578 307.179 458.932C310.888 462.34 313.937 466.403 316.172 470.915C317.776 474.12 318.226 476.023 318.046 476.098Z" fill="black"/>
</g>
<g opacity="0.3">
<path opacity="0.3" d="M291.005 513.708L293.793 520.823L287.393 523.309L284.68 516.389C278.25 518.471 271.444 518.876 266.873 517.528L267.322 508.406C271.959 509.531 276.81 509.433 281.397 508.121L277.23 497.532C269.511 498.58 260.742 499.329 257.145 490.252C254.507 483.527 257.145 475.828 266.708 470.78L263.935 463.741L270.29 461.239L273.003 468.159C277.649 466.631 282.59 466.225 287.423 466.976L287.318 475.963C283.648 475.397 279.903 475.571 276.301 476.472L280.543 487.257C288.232 486.148 296.911 485.459 300.419 494.401C303.072 500.992 300.494 508.586 291.005 513.708ZM273.633 488.155L270.08 479.168C267.083 481.25 266.408 483.662 267.232 485.714C268.057 487.766 270.485 488.365 273.633 488.155ZM290.556 499.134C289.686 496.903 287.378 496.423 284.26 496.543L287.708 505.305C290.616 503.388 291.365 501.186 290.556 499.134Z" fill="black"/>
</g>
<path d="M431.844 384.146H304.15V407.317H431.844V384.146Z" fill="#19B690"/>
<path d="M316.652 407.482C316.367 407.482 316.127 402.329 316.127 395.994C316.127 389.658 316.367 384.49 316.652 384.49C316.936 384.49 317.191 389.643 317.191 395.994C317.191 402.344 316.951 407.482 316.652 407.482Z" fill="#263238"/>
<path d="M309.667 407.482C309.382 407.482 309.143 402.329 309.143 395.994C309.143 389.658 309.382 384.49 309.667 384.49C309.952 384.49 310.207 389.643 310.207 395.994C310.207 402.344 309.967 407.482 309.667 407.482Z" fill="#263238"/>
<path d="M332.001 407.482C331.701 407.482 331.461 402.329 331.461 395.994C331.461 389.658 331.701 384.49 332.001 384.49C332.3 384.49 332.525 389.643 332.525 395.994C332.525 402.344 332.36 407.482 332.001 407.482Z" fill="#263238"/>
<path d="M325.016 407.482C324.716 407.482 324.491 402.329 324.491 395.994C324.491 389.658 324.716 384.49 325.016 384.49C325.316 384.49 325.541 389.643 325.541 395.994C325.541 402.344 325.316 407.482 325.016 407.482Z" fill="#263238"/>
<path d="M347.35 407.482C347.065 407.482 346.825 402.329 346.825 395.994C346.825 389.658 347.065 384.49 347.35 384.49C347.635 384.49 347.889 389.643 347.889 395.994C347.889 402.344 347.635 407.482 347.35 407.482Z" fill="#263238"/>
<path d="M340.365 407.482C340.065 407.482 339.825 402.329 339.825 395.994C339.825 389.658 340.065 384.49 340.365 384.49C340.665 384.49 340.889 389.643 340.889 395.994C340.889 402.344 340.65 407.482 340.365 407.482Z" fill="#263238"/>
<path d="M362.684 407.482C362.384 407.482 362.159 402.329 362.159 395.994C362.159 389.658 362.384 384.49 362.684 384.49C362.984 384.49 363.223 389.643 363.223 395.994C363.223 402.344 362.984 407.482 362.684 407.482Z" fill="#263238"/>
<path d="M355.698 407.482C355.414 407.482 355.174 402.329 355.174 395.994C355.174 389.658 355.414 384.49 355.698 384.49C355.983 384.49 356.238 389.643 356.238 395.994C356.238 402.344 355.998 407.482 355.698 407.482Z" fill="#263238"/>
<path d="M378.033 407.482C377.733 407.482 377.493 402.329 377.493 395.994C377.493 389.658 377.733 384.49 378.033 384.49C378.333 384.49 378.557 389.643 378.557 395.994C378.557 402.344 378.318 407.482 378.033 407.482Z" fill="#263238"/>
<path d="M371.047 407.482C370.748 407.482 370.508 402.329 370.508 395.994C370.508 389.658 370.748 384.49 371.047 384.49C371.347 384.49 371.572 389.643 371.572 395.994C371.572 402.344 371.332 407.482 371.047 407.482Z" fill="#263238"/>
<path d="M393.366 407.482C393.082 407.482 392.842 402.329 392.842 395.994C392.842 389.658 393.082 384.49 393.366 384.49C393.651 384.49 393.906 389.643 393.906 395.994C393.906 402.344 393.666 407.482 393.366 407.482Z" fill="#263238"/>
<path d="M386.321 407.482C386.037 407.482 385.797 402.329 385.797 395.994C385.797 389.658 386.037 384.49 386.321 384.49C386.606 384.49 386.861 389.643 386.861 395.994C386.861 402.344 386.681 407.482 386.321 407.482Z" fill="#263238"/>
<path d="M408.715 407.482C408.416 407.482 408.176 402.329 408.176 395.994C408.176 389.658 408.416 384.49 408.715 384.49C409.015 384.49 409.24 389.643 409.24 395.994C409.24 402.344 409 407.482 408.715 407.482Z" fill="#263238"/>
<path d="M401.731 407.482C401.431 407.482 401.191 402.329 401.191 395.994C401.191 389.658 401.431 384.49 401.731 384.49C402.031 384.49 402.256 389.643 402.256 395.994C402.256 402.344 402.016 407.482 401.731 407.482Z" fill="#263238"/>
<path d="M424.05 407.482C423.765 407.482 423.525 402.329 423.525 395.994C423.525 389.658 423.765 384.49 424.05 384.49C424.335 384.49 424.59 389.643 424.59 395.994C424.59 402.344 424.35 407.482 424.05 407.482Z" fill="#263238"/>
<path d="M417.065 407.482C416.78 407.482 416.54 402.329 416.54 395.994C416.54 389.658 416.78 384.49 417.065 384.49C417.35 384.49 417.604 389.643 417.604 395.994C417.604 402.344 417.365 407.482 417.065 407.482Z" fill="#263238"/>
<path d="M431.829 384.146C431.829 384.445 403.109 384.685 367.69 384.685C332.27 384.685 303.551 384.445 303.551 384.146C303.551 383.846 332.27 383.622 367.69 383.622C403.109 383.622 431.829 383.801 431.829 384.146Z" fill="#263238"/>
<path d="M423.481 407.692H295.787V430.863H423.481V407.692Z" fill="#19B690"/>
<path d="M308.377 431.013C308.078 431.013 307.838 425.875 307.838 419.525C307.838 413.174 308.078 408.036 308.377 408.036C308.677 408.036 308.902 413.174 308.902 419.525C308.902 425.875 308.587 431.013 308.377 431.013Z" fill="#263238"/>
<path d="M301.318 431.013C301.018 431.013 300.778 425.875 300.778 419.525C300.778 413.174 301.018 408.036 301.318 408.036C301.618 408.036 301.843 413.174 301.843 419.525C301.843 425.875 301.603 431.013 301.318 431.013Z" fill="#263238"/>
<path d="M323.637 431.013C323.352 431.013 323.112 425.875 323.112 419.525C323.112 413.174 323.352 408.036 323.637 408.036C323.922 408.036 324.176 413.174 324.176 419.525C324.176 425.875 323.937 431.013 323.637 431.013Z" fill="#263238"/>
<path d="M316.652 431.013C316.367 431.013 316.127 425.875 316.127 419.525C316.127 413.174 316.367 408.036 316.652 408.036C316.936 408.036 317.191 413.174 317.191 419.525C317.191 425.875 316.951 431.013 316.652 431.013Z" fill="#263238"/>
<path d="M338.986 431.013C338.686 431.013 338.446 425.875 338.446 419.525C338.446 413.174 338.686 408.036 338.986 408.036C339.286 408.036 339.511 413.174 339.511 419.525C339.511 425.875 339.271 431.013 338.986 431.013Z" fill="#263238"/>
<path d="M332.001 431.013C331.701 431.013 331.461 425.875 331.461 419.525C331.461 413.174 331.701 408.036 332.001 408.036C332.3 408.036 332.525 413.174 332.525 419.525C332.525 425.875 332.36 431.013 332.001 431.013Z" fill="#263238"/>
<path d="M354.32 431.013C354.035 431.013 353.795 425.875 353.795 419.525C353.795 413.174 354.035 408.036 354.32 408.036C354.604 408.036 354.859 413.174 354.859 419.525C354.859 425.875 354.619 431.013 354.32 431.013Z" fill="#263238"/>
<path d="M347.35 431.013C347.065 431.013 346.825 425.875 346.825 419.525C346.825 413.174 347.065 408.036 347.35 408.036C347.635 408.036 347.889 413.174 347.889 419.525C347.889 425.875 347.635 431.013 347.35 431.013Z" fill="#263238"/>
<path d="M369.669 431.013C369.369 431.013 369.145 425.875 369.145 419.525C369.145 413.174 369.369 408.036 369.669 408.036C369.969 408.036 370.194 413.174 370.194 419.525C370.194 425.875 369.969 431.013 369.669 431.013Z" fill="#263238"/>
<path d="M362.684 431.013C362.384 431.013 362.159 425.875 362.159 419.525C362.159 413.174 362.384 408.036 362.684 408.036C362.984 408.036 363.223 413.174 363.223 419.525C363.223 425.875 362.984 431.013 362.684 431.013Z" fill="#263238"/>
<path d="M385.018 431.013C384.718 431.013 384.479 425.875 384.479 419.525C384.479 413.174 384.718 408.036 385.018 408.036C385.318 408.036 385.543 413.174 385.543 419.525C385.543 425.875 385.303 431.013 385.018 431.013Z" fill="#263238"/>
<path d="M378.033 431.013C377.733 431.013 377.493 425.875 377.493 419.525C377.493 413.174 377.733 408.036 378.033 408.036C378.333 408.036 378.557 413.174 378.557 419.525C378.557 425.875 378.318 431.013 378.033 431.013Z" fill="#263238"/>
<path d="M400.352 431.013C400.067 431.013 399.827 425.875 399.827 419.525C399.827 413.174 400.067 408.036 400.352 408.036C400.637 408.036 400.891 413.174 400.891 419.525C400.891 425.875 400.652 431.013 400.352 431.013Z" fill="#263238"/>
<path d="M393.366 431.013C393.082 431.013 392.842 425.875 392.842 419.525C392.842 413.174 393.082 408.036 393.366 408.036C393.651 408.036 393.906 413.174 393.906 419.525C393.906 425.875 393.666 431.013 393.366 431.013Z" fill="#263238"/>
<path d="M415.701 431.013C415.401 431.013 415.161 425.875 415.161 419.525C415.161 413.174 415.401 408.036 415.701 408.036C416.001 408.036 416.225 413.174 416.225 419.525C416.225 425.875 415.986 431.013 415.701 431.013Z" fill="#263238"/>
<path d="M408.715 431.013C408.416 431.013 408.176 425.875 408.176 419.525C408.176 413.174 408.416 408.036 408.715 408.036C409.015 408.036 409.24 413.174 409.24 419.525C409.24 425.875 409 431.013 408.715 431.013Z" fill="#263238"/>
<path d="M423.481 407.767C423.481 408.051 394.761 408.291 359.342 408.291C323.922 408.291 295.188 408.051 295.188 407.767C295.188 407.482 323.907 407.227 359.342 407.227C394.776 407.227 423.481 407.392 423.481 407.767Z" fill="#263238"/>
<path d="M433.913 431.013H306.22V454.184H433.913V431.013Z" fill="#19B690"/>
<path d="M318.735 454.349C318.435 454.349 318.195 449.197 318.195 442.861C318.195 436.525 318.435 431.357 318.735 431.357C319.035 431.357 319.26 436.51 319.26 442.861C319.26 449.212 319.02 454.349 318.735 454.349Z" fill="#263238"/>
<path d="M311.751 454.349C311.451 454.349 311.211 449.197 311.211 442.861C311.211 436.525 311.451 431.357 311.751 431.357C312.05 431.357 312.275 436.51 312.275 442.861C312.275 449.212 312.05 454.349 311.751 454.349Z" fill="#263238"/>
<path d="M334.07 454.349C333.785 454.349 333.545 449.197 333.545 442.861C333.545 436.525 333.785 431.357 334.07 431.357C334.354 431.357 334.609 436.51 334.609 442.861C334.609 449.212 334.369 454.349 334.07 454.349Z" fill="#263238"/>
<path d="M327.099 454.349C326.799 454.349 326.56 449.197 326.56 442.861C326.56 436.525 326.799 431.357 327.099 431.357C327.399 431.357 327.624 436.51 327.624 442.861C327.624 449.212 327.384 454.349 327.099 454.349Z" fill="#263238"/>
<path d="M349.418 454.349C349.118 454.349 348.894 449.197 348.894 442.861C348.894 436.525 349.118 431.357 349.418 431.357C349.718 431.357 349.943 436.51 349.943 442.861C349.943 449.212 349.718 454.349 349.418 454.349Z" fill="#263238"/>
<path d="M342.433 454.349C342.133 454.349 341.908 449.197 341.908 442.861C341.908 436.525 342.133 431.357 342.433 431.357C342.733 431.357 342.972 436.51 342.972 442.861C342.972 449.212 342.733 454.349 342.433 454.349Z" fill="#263238"/>
<path d="M364.767 454.349C364.467 454.349 364.228 449.197 364.228 442.861C364.228 436.525 364.467 431.357 364.767 431.357C365.067 431.357 365.292 436.51 365.292 442.861C365.292 449.212 365.052 454.349 364.767 454.349Z" fill="#263238"/>
<path d="M357.842 454.349C357.543 454.349 357.303 449.197 357.303 442.861C357.303 436.525 357.543 431.357 357.842 431.357C358.142 431.357 358.367 436.51 358.367 442.861C358.367 449.212 358.067 454.349 357.842 454.349Z" fill="#263238"/>
<path d="M380.101 454.349C379.816 454.349 379.576 449.197 379.576 442.861C379.576 436.525 379.816 431.357 380.101 431.357C380.386 431.357 380.64 436.51 380.64 442.861C380.64 449.212 380.401 454.349 380.101 454.349Z" fill="#263238"/>
<path d="M373.116 454.349C372.832 454.349 372.592 449.197 372.592 442.861C372.592 436.525 372.832 431.357 373.116 431.357C373.401 431.357 373.656 436.51 373.656 442.861C373.656 449.212 373.416 454.349 373.116 454.349Z" fill="#263238"/>
<path d="M395.451 454.349C395.151 454.349 394.911 449.197 394.911 442.861C394.911 436.525 395.151 431.357 395.451 431.357C395.75 431.357 395.975 436.51 395.975 442.861C395.975 449.212 395.736 454.349 395.451 454.349Z" fill="#263238"/>
<path d="M388.465 454.349C388.166 454.349 387.926 449.197 387.926 442.861C387.926 436.525 388.166 431.357 388.465 431.357C388.765 431.357 388.99 436.51 388.99 442.861C388.99 449.212 388.75 454.349 388.465 454.349Z" fill="#263238"/>
<path d="M410.784 454.349C410.5 454.349 410.26 449.197 410.26 442.861C410.26 436.525 410.5 431.357 410.784 431.357C411.069 431.357 411.324 436.51 411.324 442.861C411.324 449.212 411.084 454.349 410.784 454.349Z" fill="#263238"/>
<path d="M403.799 454.349C403.514 454.349 403.274 449.197 403.274 442.861C403.274 436.525 403.514 431.357 403.799 431.357C404.084 431.357 404.339 436.51 404.339 442.861C404.339 449.212 404.099 454.349 403.799 454.349Z" fill="#263238"/>
<path d="M426.133 454.349C425.834 454.349 425.594 449.197 425.594 442.861C425.594 436.525 425.834 431.357 426.133 431.357C426.433 431.357 426.658 436.51 426.658 442.861C426.658 449.212 426.418 454.349 426.133 454.349Z" fill="#263238"/>
<path d="M419.148 454.349C418.848 454.349 418.608 449.197 418.608 442.861C418.608 436.525 418.848 431.357 419.148 431.357C419.448 431.357 419.673 436.51 419.673 442.861C419.673 449.212 419.433 454.349 419.148 454.349Z" fill="#263238"/>
<path d="M433.912 431.013C433.912 431.312 405.118 431.552 369.623 431.552C334.129 431.552 305.319 431.312 305.319 431.013C305.319 430.713 334.099 430.489 369.623 430.489C405.148 430.489 433.912 430.728 433.912 431.013Z" fill="#263238"/>
<path d="M423.901 454.005H296.207V477.176H423.901V454.005Z" fill="#19B690"/>
<path d="M308.723 477.341C308.438 477.341 308.198 472.188 308.198 465.838C308.198 459.487 308.438 454.349 308.723 454.349C309.008 454.349 309.262 459.487 309.262 465.838C309.262 472.188 309.023 477.341 308.723 477.341Z" fill="#263238"/>
<path d="M301.738 477.341C301.453 477.341 301.213 472.188 301.213 465.838C301.213 459.487 301.453 454.349 301.738 454.349C302.022 454.349 302.277 459.487 302.277 465.838C302.277 472.188 302.037 477.341 301.738 477.341Z" fill="#263238"/>
<path d="M324.072 477.341C323.772 477.341 323.532 472.188 323.532 465.838C323.532 459.487 323.772 454.349 324.072 454.349C324.372 454.349 324.597 459.487 324.597 465.838C324.597 472.188 324.357 477.341 324.072 477.341Z" fill="#263238"/>
<path d="M317.086 477.341C316.787 477.341 316.547 472.188 316.547 465.838C316.547 459.487 316.787 454.349 317.086 454.349C317.386 454.349 317.611 459.487 317.611 465.838C317.611 472.188 317.371 477.341 317.086 477.341Z" fill="#263238"/>
<path d="M339.405 477.341C339.121 477.341 338.881 472.188 338.881 465.838C338.881 459.487 339.121 454.349 339.405 454.349C339.69 454.349 339.945 459.487 339.945 465.838C339.945 472.188 339.705 477.341 339.405 477.341Z" fill="#263238"/>
<path d="M332.361 477.341C332.076 477.341 331.836 472.188 331.836 465.838C331.836 459.487 332.076 454.349 332.361 454.349C332.645 454.349 332.9 459.487 332.9 465.838C332.9 472.188 332.72 477.341 332.361 477.341Z" fill="#263238"/>
<path d="M354.754 477.341C354.455 477.341 354.215 472.188 354.215 465.838C354.215 459.487 354.455 454.349 354.754 454.349C355.054 454.349 355.279 459.487 355.279 465.838C355.279 472.188 355.039 477.341 354.754 477.341Z" fill="#263238"/>
<path d="M347.77 477.341C347.47 477.341 347.23 472.188 347.23 465.838C347.23 459.487 347.47 454.349 347.77 454.349C348.07 454.349 348.295 459.487 348.295 465.838C348.295 472.188 348.055 477.341 347.77 477.341Z" fill="#263238"/>
<path d="M370.088 477.341C369.803 477.341 369.563 472.188 369.563 465.838C369.563 459.487 369.803 454.349 370.088 454.349C370.373 454.349 370.628 459.487 370.628 465.838C370.628 472.188 370.388 477.341 370.088 477.341Z" fill="#263238"/>
<path d="M363.104 477.341C362.819 477.341 362.579 472.188 362.579 465.838C362.579 459.487 362.819 454.349 363.104 454.349C363.388 454.349 363.643 459.487 363.643 465.838C363.643 472.188 363.403 477.341 363.104 477.341Z" fill="#263238"/>
<path d="M385.437 477.341C385.137 477.341 384.897 472.188 384.897 465.838C384.897 459.487 385.137 454.349 385.437 454.349C385.737 454.349 385.962 459.487 385.962 465.838C385.962 472.188 385.737 477.341 385.437 477.341Z" fill="#263238"/>
<path d="M378.452 477.341C378.153 477.341 377.928 472.188 377.928 465.838C377.928 459.487 378.153 454.349 378.452 454.349C378.752 454.349 378.977 459.487 378.977 465.838C378.977 472.188 378.827 477.341 378.452 477.341Z" fill="#263238"/>
<path d="M400.772 477.341C400.487 477.341 400.247 472.188 400.247 465.838C400.247 459.487 400.487 454.349 400.772 454.349C401.056 454.349 401.311 459.487 401.311 465.838C401.311 472.188 401.071 477.341 400.772 477.341Z" fill="#263238"/>
<path d="M393.817 477.341C393.517 477.341 393.277 472.188 393.277 465.838C393.277 459.487 393.517 454.349 393.817 454.349C394.117 454.349 394.342 459.487 394.342 465.838C394.342 472.188 394.087 477.341 393.817 477.341Z" fill="#263238"/>
<path d="M416.12 477.341C415.821 477.341 415.596 472.188 415.596 465.838C415.596 459.487 415.821 454.349 416.12 454.349C416.42 454.349 416.66 459.487 416.66 465.838C416.66 472.188 416.42 477.341 416.12 477.341Z" fill="#263238"/>
<path d="M409.135 477.341C408.85 477.341 408.61 472.188 408.61 465.838C408.61 459.487 408.85 454.349 409.135 454.349C409.42 454.349 409.675 459.487 409.675 465.838C409.675 472.188 409.435 477.341 409.135 477.341Z" fill="#263238"/>
<path d="M423.9 454.005C423.9 454.304 395.181 454.529 359.761 454.529C324.342 454.529 295.622 454.304 295.622 454.005C295.622 453.705 324.327 453.48 359.761 453.48C395.196 453.48 423.9 453.705 423.9 454.005Z" fill="#263238"/>
<path d="M436.701 477.506H309.008V500.677H436.701V477.506Z" fill="#19B690"/>
<path d="M321.523 500.842C321.223 500.842 320.983 495.689 320.983 489.338C320.983 482.988 321.223 477.85 321.523 477.85C321.823 477.85 322.048 483.003 322.048 489.338C322.048 495.674 321.868 500.842 321.523 500.842Z" fill="#263238"/>
<path d="M314.538 500.842C314.238 500.842 313.998 495.689 313.998 489.338C313.998 482.988 314.238 477.85 314.538 477.85C314.837 477.85 315.062 483.003 315.062 489.338C315.062 495.674 314.822 500.842 314.538 500.842Z" fill="#263238"/>
<path d="M336.858 500.842C336.573 500.842 336.333 495.689 336.333 489.338C336.333 482.988 336.573 477.85 336.858 477.85C337.142 477.85 337.397 483.003 337.397 489.338C337.397 495.674 337.157 500.842 336.858 500.842Z" fill="#263238"/>
<path d="M329.872 500.842C329.587 500.842 329.348 495.689 329.348 489.338C329.348 482.988 329.587 477.85 329.872 477.85C330.157 477.85 330.412 483.003 330.412 489.338C330.412 495.674 330.172 500.842 329.872 500.842Z" fill="#263238"/>
<path d="M352.206 500.842C351.906 500.842 351.682 495.689 351.682 489.338C351.682 482.988 351.906 477.85 352.206 477.85C352.506 477.85 352.731 483.003 352.731 489.338C352.731 495.674 352.506 500.842 352.206 500.842Z" fill="#263238"/>
<path d="M345.221 500.842C344.921 500.842 344.696 495.689 344.696 489.338C344.696 482.988 344.921 477.85 345.221 477.85C345.521 477.85 345.746 483.003 345.746 489.338C345.746 495.674 345.521 500.842 345.221 500.842Z" fill="#263238"/>
<path d="M367.555 500.842C367.255 500.842 367.016 495.689 367.016 489.338C367.016 482.988 367.255 477.85 367.555 477.85C367.855 477.85 368.08 483.003 368.08 489.338C368.08 495.674 367.84 500.842 367.555 500.842Z" fill="#263238"/>
<path d="M360.57 500.842C360.27 500.842 360.03 495.689 360.03 489.338C360.03 482.988 360.27 477.85 360.57 477.85C360.87 477.85 361.095 483.003 361.095 489.338C361.095 495.674 360.84 500.842 360.57 500.842Z" fill="#263238"/>
<path d="M382.889 500.842C382.604 500.842 382.364 495.689 382.364 489.338C382.364 482.988 382.604 477.85 382.889 477.85C383.174 477.85 383.429 483.003 383.429 489.338C383.429 495.674 383.189 500.842 382.889 500.842Z" fill="#263238"/>
<path d="M375.904 500.842C375.62 500.842 375.38 495.689 375.38 489.338C375.38 482.988 375.62 477.85 375.904 477.85C376.189 477.85 376.444 483.003 376.444 489.338C376.444 495.674 376.204 500.842 375.904 500.842Z" fill="#263238"/>
<path d="M398.313 500.842C398.013 500.842 397.773 495.689 397.773 489.338C397.773 482.988 398.013 477.85 398.313 477.85C398.613 477.85 398.838 483.003 398.838 489.338C398.838 495.674 398.523 500.842 398.313 500.842Z" fill="#263238"/>
<path d="M391.253 500.842C390.954 500.842 390.714 495.689 390.714 489.338C390.714 482.988 390.954 477.85 391.253 477.85C391.553 477.85 391.778 483.003 391.778 489.338C391.778 495.674 391.538 500.842 391.253 500.842Z" fill="#263238"/>
<path d="M413.572 500.842C413.288 500.842 413.048 495.689 413.048 489.338C413.048 482.988 413.288 477.85 413.572 477.85C413.857 477.85 414.112 483.003 414.112 489.338C414.112 495.674 413.872 500.842 413.572 500.842Z" fill="#263238"/>
<path d="M406.587 500.842C406.302 500.842 406.062 495.689 406.062 489.338C406.062 482.988 406.302 477.85 406.587 477.85C406.872 477.85 407.127 483.003 407.127 489.338C407.127 495.674 406.887 500.842 406.587 500.842Z" fill="#263238"/>
<path d="M428.921 500.842C428.622 500.842 428.382 495.689 428.382 489.338C428.382 482.988 428.622 477.85 428.921 477.85C429.221 477.85 429.446 483.003 429.446 489.338C429.446 495.674 429.206 500.842 428.921 500.842Z" fill="#263238"/>
<path d="M421.936 500.842C421.636 500.842 421.396 495.689 421.396 489.338C421.396 482.988 421.636 477.85 421.936 477.85C422.236 477.85 422.461 483.003 422.461 489.338C422.461 495.674 422.296 500.842 421.936 500.842Z" fill="#263238"/>
<path d="M436.701 477.505C436.701 477.805 407.982 478.045 372.562 478.045C337.142 478.045 308.423 477.805 308.423 477.505C308.423 477.206 337.127 476.981 372.562 476.981C407.997 476.981 436.701 477.221 436.701 477.505Z" fill="#263238"/>
<path d="M428.697 500.947H301.003V524.118H428.697V500.947Z" fill="#19B690"/>
<path d="M313.519 524.268C313.219 524.268 312.979 519.13 312.979 512.779C312.979 506.429 313.219 501.291 313.519 501.291C313.819 501.291 314.044 506.429 314.044 512.779C314.044 519.13 313.804 524.268 313.519 524.268Z" fill="#263238"/>
<path d="M306.534 524.268C306.234 524.268 305.994 519.13 305.994 512.779C305.994 506.429 306.234 501.291 306.534 501.291C306.833 501.291 307.058 506.429 307.058 512.779C307.058 519.13 306.878 524.268 306.534 524.268Z" fill="#263238"/>
<path d="M328.853 524.268C328.568 524.268 328.328 519.13 328.328 512.779C328.328 506.429 328.568 501.291 328.853 501.291C329.138 501.291 329.392 506.429 329.392 512.779C329.392 519.13 329.153 524.268 328.853 524.268Z" fill="#263238"/>
<path d="M321.868 524.268C321.584 524.268 321.344 519.13 321.344 512.779C321.344 506.429 321.584 501.291 321.868 501.291C322.153 501.291 322.408 506.429 322.408 512.779C322.408 519.13 322.168 524.268 321.868 524.268Z" fill="#263238"/>
<path d="M344.202 524.268C343.902 524.268 343.662 519.13 343.662 512.779C343.662 506.429 343.902 501.291 344.202 501.291C344.502 501.291 344.726 506.429 344.726 512.779C344.726 519.13 344.487 524.268 344.202 524.268Z" fill="#263238"/>
<path d="M337.217 524.268C336.918 524.268 336.678 519.13 336.678 512.779C336.678 506.429 336.918 501.291 337.217 501.291C337.517 501.291 337.742 506.429 337.742 512.779C337.742 519.13 337.502 524.268 337.217 524.268Z" fill="#263238"/>
<path d="M359.536 524.268C359.252 524.268 359.012 519.13 359.012 512.779C359.012 506.429 359.252 501.291 359.536 501.291C359.821 501.291 360.076 506.429 360.076 512.779C360.076 519.13 359.836 524.268 359.536 524.268Z" fill="#263238"/>
<path d="M352.551 524.268C352.266 524.268 352.026 519.13 352.026 512.779C352.026 506.429 352.266 501.291 352.551 501.291C352.836 501.291 353.091 506.429 353.091 512.779C353.091 519.13 352.851 524.268 352.551 524.268Z" fill="#263238"/>
<path d="M374.885 524.268C374.586 524.268 374.346 519.13 374.346 512.779C374.346 506.429 374.586 501.291 374.885 501.291C375.185 501.291 375.41 506.429 375.41 512.779C375.41 519.13 375.185 524.268 374.885 524.268Z" fill="#263238"/>
<path d="M367.9 524.268C367.6 524.268 367.375 519.13 367.375 512.779C367.375 506.429 367.6 501.291 367.9 501.291C368.199 501.291 368.424 506.429 368.424 512.779C368.424 519.13 368.199 524.268 367.9 524.268Z" fill="#263238"/>
<path d="M390.234 524.268C389.934 524.268 389.694 519.13 389.694 512.779C389.694 506.429 389.934 501.291 390.234 501.291C390.534 501.291 390.759 506.429 390.759 512.779C390.759 519.13 390.519 524.268 390.234 524.268Z" fill="#263238"/>
<path d="M383.324 524.268C383.024 524.268 382.784 519.13 382.784 512.779C382.784 506.429 383.024 501.291 383.324 501.291C383.624 501.291 383.849 506.429 383.849 512.779C383.849 519.13 383.534 524.268 383.324 524.268Z" fill="#263238"/>
<path d="M405.569 524.268C405.269 524.268 405.044 519.13 405.044 512.779C405.044 506.429 405.269 501.291 405.569 501.291C405.868 501.291 406.108 506.429 406.108 512.779C406.108 519.13 405.808 524.268 405.569 524.268Z" fill="#263238"/>
<path d="M398.583 524.268C398.298 524.268 398.059 519.13 398.059 512.779C398.059 506.429 398.298 501.291 398.583 501.291C398.868 501.291 399.123 506.429 399.123 512.779C399.123 519.13 398.883 524.268 398.583 524.268Z" fill="#263238"/>
<path d="M420.917 524.268C420.618 524.268 420.378 519.13 420.378 512.779C420.378 506.429 420.618 501.291 420.917 501.291C421.217 501.291 421.442 506.429 421.442 512.779C421.442 519.13 421.202 524.268 420.917 524.268Z" fill="#263238"/>
<path d="M413.932 524.268C413.632 524.268 413.393 519.13 413.393 512.779C413.393 506.429 413.632 501.291 413.932 501.291C414.232 501.291 414.457 506.429 414.457 512.779C414.457 519.13 414.217 524.268 413.932 524.268Z" fill="#263238"/>
<path d="M428.696 500.947C428.696 501.231 399.902 501.471 364.392 501.471C328.883 501.471 300.104 501.231 300.104 500.947C300.104 500.662 328.883 500.407 364.392 500.407C399.902 500.407 428.696 500.632 428.696 500.947Z" fill="#263238"/>
<path d="M418.684 523.923H290.99V547.095H418.684V523.923Z" fill="#19B690"/>
<path d="M303.506 547.26C303.207 547.26 302.967 542.107 302.967 535.771C302.967 529.435 303.207 524.268 303.506 524.268C303.806 524.268 304.031 529.42 304.031 535.771C304.031 542.122 303.881 547.26 303.506 547.26Z" fill="#263238"/>
<path d="M296.521 547.26C296.221 547.26 295.996 542.107 295.996 535.771C295.996 529.435 296.221 524.268 296.521 524.268C296.82 524.268 297.045 529.42 297.045 535.771C297.045 542.122 296.82 547.26 296.521 547.26Z" fill="#263238"/>
<path d="M318.87 547.26C318.586 547.26 318.346 542.107 318.346 535.771C318.346 529.435 318.586 524.268 318.87 524.268C319.155 524.268 319.41 529.42 319.41 535.771C319.41 542.122 319.14 547.26 318.87 547.26Z" fill="#263238"/>
<path d="M311.871 547.26C311.571 547.26 311.331 542.107 311.331 535.771C311.331 529.435 311.571 524.268 311.871 524.268C312.17 524.268 312.395 529.42 312.395 535.771C312.395 542.122 312.155 547.26 311.871 547.26Z" fill="#263238"/>
<path d="M334.189 547.26C333.889 547.26 333.664 542.107 333.664 535.771C333.664 529.435 333.889 524.268 334.189 524.268C334.489 524.268 334.728 529.42 334.728 535.771C334.728 542.122 334.489 547.26 334.189 547.26Z" fill="#263238"/>
<path d="M327.204 547.26C326.92 547.26 326.68 542.107 326.68 535.771C326.68 529.435 326.92 524.268 327.204 524.268C327.489 524.268 327.744 529.42 327.744 535.771C327.744 542.122 327.504 547.26 327.204 547.26Z" fill="#263238"/>
<path d="M349.539 547.26C349.239 547.26 348.999 542.107 348.999 535.771C348.999 529.435 349.239 524.268 349.539 524.268C349.838 524.268 350.063 529.42 350.063 535.771C350.063 542.122 349.823 547.26 349.539 547.26Z" fill="#263238"/>
<path d="M342.553 547.26C342.253 547.26 342.014 542.107 342.014 535.771C342.014 529.435 342.253 524.268 342.553 524.268C342.853 524.268 343.078 529.42 343.078 535.771C343.078 542.122 342.853 547.26 342.553 547.26Z" fill="#263238"/>
<path d="M364.872 547.26C364.588 547.26 364.348 542.107 364.348 535.771C364.348 529.435 364.588 524.268 364.872 524.268C365.157 524.268 365.412 529.42 365.412 535.771C365.412 542.122 365.172 547.26 364.872 547.26Z" fill="#263238"/>
<path d="M357.842 547.26C357.557 547.26 357.317 542.107 357.317 535.771C357.317 529.435 357.557 524.268 357.842 524.268C358.127 524.268 358.382 529.42 358.382 535.771C358.382 542.122 358.187 547.26 357.842 547.26Z" fill="#263238"/>
<path d="M380.221 547.26C379.921 547.26 379.682 542.107 379.682 535.771C379.682 529.435 379.921 524.268 380.221 524.268C380.521 524.268 380.746 529.42 380.746 535.771C380.746 542.122 380.506 547.26 380.221 547.26Z" fill="#263238"/>
<path d="M373.236 547.26C372.936 547.26 372.696 542.107 372.696 535.771C372.696 529.435 372.936 524.268 373.236 524.268C373.536 524.268 373.761 529.42 373.761 535.771C373.761 542.122 373.521 547.26 373.236 547.26Z" fill="#263238"/>
<path d="M395.555 547.26C395.27 547.26 395.03 542.107 395.03 535.771C395.03 529.435 395.27 524.268 395.555 524.268C395.84 524.268 396.095 529.42 396.095 535.771C396.095 542.122 395.855 547.26 395.555 547.26Z" fill="#263238"/>
<path d="M388.571 547.26C388.286 547.26 388.046 542.107 388.046 535.771C388.046 529.435 388.286 524.268 388.571 524.268C388.855 524.268 389.11 529.42 389.11 535.771C389.11 542.122 388.87 547.26 388.571 547.26Z" fill="#263238"/>
<path d="M410.904 547.26C410.604 547.26 410.364 542.107 410.364 535.771C410.364 529.435 410.604 524.268 410.904 524.268C411.204 524.268 411.429 529.42 411.429 535.771C411.429 542.122 411.189 547.26 410.904 547.26Z" fill="#263238"/>
<path d="M403.919 547.26C403.62 547.26 403.38 542.107 403.38 535.771C403.38 529.435 403.62 524.268 403.919 524.268C404.219 524.268 404.444 529.42 404.444 535.771C404.444 542.122 404.219 547.26 403.919 547.26Z" fill="#263238"/>
<path d="M418.683 523.923C418.683 524.223 389.964 524.463 354.544 524.463C319.125 524.463 290.405 524.223 290.405 523.923C290.405 523.624 319.11 523.399 354.544 523.399C389.979 523.399 418.683 523.639 418.683 523.923Z" fill="#263238"/>
<g opacity="0.3">
<path opacity="0.3" d="M306.22 431.013C325.286 435.701 345.612 436.6 365.203 435.312C384.794 434.024 404.594 431.118 424.23 431.357L306.22 431.013Z" fill="black"/>
</g>
<g opacity="0.3">
<path opacity="0.3" d="M307.373 407.946C326.439 412.635 346.765 413.548 366.356 412.245C385.947 410.942 405.733 408.066 425.369 408.291L307.373 407.946Z" fill="black"/>
</g>
<g opacity="0.3">
<path opacity="0.3" d="M313.549 454.199C332.63 458.873 352.941 459.786 372.547 458.483C392.153 457.18 411.923 454.304 431.559 454.544L313.549 454.199Z" fill="black"/>
</g>
<g opacity="0.3">
<path opacity="0.3" d="M308.543 477.371C327.624 482.059 347.935 482.958 367.526 481.654C387.117 480.351 406.918 477.475 426.553 477.715L308.543 477.371Z" fill="black"/>
</g>
<g opacity="0.3">
<path opacity="0.3" d="M310.071 500.407C329.138 505.096 349.463 505.994 369.054 504.691C388.645 503.388 408.431 500.512 428.067 500.752L310.071 500.407Z" fill="black"/>
</g>
<g opacity="0.3">
<path opacity="0.3" d="M303.881 523.893C322.947 528.566 343.258 529.48 362.864 528.177C382.47 526.874 402.24 523.998 421.876 524.238L303.881 523.893Z" fill="black"/>
</g>
<path d="M306.489 399.993C306.189 399.993 305.949 397.162 305.949 393.657C305.949 390.152 306.189 387.306 306.489 387.306C306.789 387.306 307.013 390.152 307.013 393.657C307.013 397.162 306.774 399.993 306.489 399.993Z" fill="white"/>
<path d="M298.44 424.752C298.14 424.752 297.9 421.756 297.9 417.952C297.9 414.147 298.14 411.137 298.44 411.137C298.74 411.137 298.965 414.132 298.965 417.952C298.965 421.771 298.725 424.752 298.44 424.752Z" fill="white"/>
<path d="M309.876 448.583C309.591 448.583 309.352 445.886 309.352 442.591C309.352 439.296 309.591 436.6 309.876 436.6C310.161 436.6 310.416 439.311 310.416 442.591C310.416 445.871 310.191 448.583 309.876 448.583Z" fill="white"/>
<path d="M298.125 470.556C297.825 470.556 297.601 468.129 297.601 465.148C297.601 462.168 297.825 459.726 298.125 459.726C298.425 459.726 298.65 462.153 298.65 465.148C298.65 468.144 298.425 470.556 298.125 470.556Z" fill="white"/>
<path d="M344.891 409.594C344.891 409.894 335.463 410.118 323.831 410.118C312.2 410.118 302.771 409.894 302.771 409.594C302.771 409.294 312.2 409.055 323.831 409.055C335.463 409.055 344.891 409.264 344.891 409.594Z" fill="white"/>
<path d="M358.517 387.306C358.517 387.606 349.013 387.846 337.307 387.846C325.6 387.846 316.082 387.606 316.082 387.306C316.082 387.007 325.585 386.782 337.307 386.782C349.028 386.782 358.517 387.022 358.517 387.306Z" fill="white"/>
<path d="M378.961 387.621C378.961 387.92 375.829 388.145 371.991 388.145C368.154 388.145 365.021 387.92 365.021 387.621C365.021 387.321 368.139 387.096 371.991 387.096C375.844 387.096 378.961 387.321 378.961 387.621Z" fill="white"/>
<path d="M310.82 499.838C310.301 493.943 310.301 488.014 310.82 482.119C311.34 488.014 311.34 493.943 310.82 499.838Z" fill="white"/>
<path d="M407.847 474.764C407.847 474.989 384.628 475.154 355.999 475.154C327.369 475.154 304.136 474.989 304.136 474.764C304.136 474.54 327.354 474.375 355.999 474.375C384.643 474.375 407.847 474.555 407.847 474.764Z" fill="white"/>
<path d="M387.101 521.602C387.101 521.826 368.754 521.991 346.12 521.991C323.487 521.991 305.14 521.826 305.14 521.602C305.14 521.377 323.487 521.212 346.12 521.212C368.754 521.212 387.101 521.362 387.101 521.602Z" fill="white"/>
<path d="M292.759 542.571C292.239 539.251 292.239 535.871 292.759 532.551C293.278 535.871 293.278 539.251 292.759 542.571Z" fill="white"/>
<path d="M383.099 544.638C383.099 544.863 364.063 545.028 340.605 545.028C317.147 545.028 298.11 544.863 298.11 544.638C298.11 544.414 317.132 544.249 340.605 544.249C364.078 544.249 383.099 544.429 383.099 544.638Z" fill="white"/>
<path d="M290.99 547.065C290.971 546.926 290.971 546.785 290.99 546.646C290.99 546.316 290.99 545.927 290.99 545.432C290.99 544.279 290.99 542.721 290.99 540.744C290.99 536.61 290.9 530.783 290.855 523.684V523.384H291.155H300.269L299.924 523.729C299.924 516.764 299.924 508.915 299.924 500.587V500.198H308.753L308.363 500.587C308.363 492.199 308.363 484.246 308.363 477.086L308.708 477.446H296.372H296.072V477.146C296.072 470.106 296.177 464.325 296.207 460.236C296.207 458.288 296.207 456.731 296.282 455.592V454.394C296.231 454.383 296.186 454.354 296.156 454.312C296.126 454.27 296.112 454.218 296.118 454.167C296.124 454.115 296.148 454.068 296.186 454.033C296.225 453.999 296.275 453.979 296.327 453.979C296.378 453.979 296.428 453.999 296.467 454.033C296.505 454.068 296.53 454.115 296.535 454.167C296.541 454.218 296.527 454.27 296.497 454.312C296.467 454.354 296.422 454.383 296.372 454.394V455.592C296.372 456.731 296.372 458.288 296.461 460.236C296.461 464.325 296.536 470.106 296.596 477.146L296.282 476.847H308.618H308.978V477.206C308.978 484.366 308.978 492.319 308.978 500.707V501.096H300.149L300.539 500.707C300.539 509.035 300.539 516.884 300.539 523.849V524.193H300.194L291.08 524.058L291.395 523.744C291.395 530.843 291.29 536.67 291.26 540.804C291.26 542.781 291.26 544.339 291.17 545.492C291.17 545.986 291.17 546.376 291.17 546.705C291.127 546.833 291.066 546.954 290.99 547.065Z" fill="#263238"/>
<g opacity="0.3">
<path opacity="0.3" d="M430.09 382.154L329.362 383.801C352.122 397.693 377.978 405.722 404.608 407.168C402.765 441.797 419.073 474.855 421.891 509.41C421.91 511.077 422.251 512.725 422.895 514.263C423.23 515.023 423.787 515.665 424.493 516.103C425.2 516.541 426.022 516.756 426.853 516.719C429.506 516.344 430.36 512.989 430.585 510.323C434.169 467.668 434.004 424.78 430.09 382.154Z" fill="black"/>
</g>
<path d="M323.652 98.0001C321.469 96.1831 319.848 93.7836 318.978 91.0814C318.107 88.3791 318.023 85.4854 318.735 82.7372C318.905 82.478 319.011 82.1829 319.046 81.8755C319.081 81.568 319.044 81.2565 318.938 80.9658C318.832 80.6751 318.66 80.413 318.434 80.2005C318.209 79.988 317.938 79.8309 317.641 79.7415C316.352 78.9713 315.233 77.9475 314.352 76.7323C313.471 75.517 312.846 74.1356 312.515 72.6718C312.208 71.1955 312.294 69.6645 312.765 68.232C313.236 66.7994 314.075 65.5155 315.198 64.5086C310.926 62.7262 309.412 56.7498 311.69 52.7057C312.944 50.7478 314.758 49.2121 316.896 48.2985C319.035 47.3849 321.399 47.1356 323.682 47.5831C323.054 46.3121 322.852 44.8731 323.106 43.4786C323.36 42.0841 324.056 40.8082 325.091 39.8393C327.224 37.9573 329.913 36.8215 332.75 36.604C336.513 36.1247 340.964 36.8137 342.928 40.064C343.258 37.7573 345.671 36.3194 347.949 35.885C351.04 35.4117 354.198 36.0923 356.819 37.7969C359.44 39.5014 361.341 42.1107 362.159 45.1267C364.087 43.696 366.413 42.9003 368.814 42.8499C370.014 42.8579 371.177 43.2617 372.123 43.9985C373.069 44.7352 373.745 45.7637 374.046 46.924C375.155 44.8421 377.778 44.1081 380.116 44.0182C381.82 43.8701 383.529 44.2408 385.018 45.0817C385.755 45.5142 386.341 46.1634 386.695 46.9408C387.049 47.7183 387.154 48.5859 386.996 49.4254C388.579 48.9749 390.27 49.1084 391.762 49.8015C393.253 50.4945 394.446 51.7009 395.121 53.2C395.709 54.7364 395.731 56.4322 395.181 57.983C394.632 59.5339 393.548 60.8384 392.123 61.6627C393.343 62.437 394.345 63.5105 395.033 64.7811C395.721 66.0518 396.071 67.4772 396.052 68.9217C396.032 70.3661 395.643 71.7815 394.921 73.0331C394.199 74.2847 393.169 75.3308 391.928 76.0719C392.264 76.1748 392.572 76.3525 392.829 76.5916C393.086 76.8307 393.286 77.1249 393.413 77.4522C393.54 77.7795 393.591 78.1313 393.562 78.4811C393.533 78.8309 393.426 79.1697 393.247 79.4719C392.838 80.061 392.294 80.5437 391.66 80.8799C391.027 81.216 390.322 81.3958 389.605 81.4041C389.904 86.347 390.189 91.2749 390.489 96.2027C390.846 99.3806 390.704 102.595 390.069 105.729C389.734 107.29 389.04 108.751 388.041 109.997C387.041 111.242 385.765 112.238 384.313 112.904" fill="#263238"/>
<path d="M322.887 83.7557C322.797 71.7731 334.759 58.9666 346.69 59.386L385.572 63.9843L385.902 70.41L384.823 158.108L347.889 180.71L345.761 144.148C345.761 144.148 330.412 142.65 325.885 123.044C323.622 113.293 322.977 97.0564 322.887 83.7557Z" fill="#B97964"/>
<path d="M327.339 98.7339C327.378 99.3961 327.674 100.017 328.164 100.465C328.654 100.912 329.299 101.151 329.962 101.13C330.288 101.133 330.611 101.069 330.913 100.945C331.214 100.82 331.487 100.637 331.716 100.405C331.945 100.173 332.125 99.8981 332.246 99.5957C332.367 99.2933 332.427 98.9697 332.421 98.6441C332.386 97.9805 332.091 97.3573 331.6 96.909C331.11 96.4606 330.462 96.2231 329.798 96.2476C329.472 96.2455 329.149 96.3086 328.847 96.4332C328.546 96.5579 328.273 96.7414 328.044 96.9731C327.815 97.2048 327.635 97.4799 327.514 97.7824C327.393 98.0848 327.333 98.4083 327.339 98.7339Z" fill="#263238"/>
<path d="M326.98 91.9338C327.31 92.2483 329.138 90.6756 331.866 90.436C334.594 90.1963 336.708 91.4695 336.978 91.11C337.247 90.7505 336.753 90.3761 335.824 89.8069C334.588 89.0684 333.152 88.7333 331.716 88.8483C330.3 88.9222 328.945 89.447 327.849 90.3461C327.055 91.1699 326.815 91.799 326.98 91.9338Z" fill="#263238"/>
<path d="M353.345 98.7339C353.384 99.3961 353.68 100.017 354.17 100.465C354.659 100.912 355.305 101.151 355.968 101.13C356.294 101.133 356.617 101.069 356.918 100.945C357.22 100.82 357.493 100.637 357.722 100.405C357.951 100.173 358.131 99.8981 358.252 99.5957C358.373 99.2933 358.433 98.9697 358.427 98.6441C358.392 97.9805 358.097 97.3573 357.606 96.909C357.115 96.4606 356.468 96.2231 355.803 96.2476C355.477 96.2455 355.154 96.3086 354.853 96.4332C354.552 96.5579 354.279 96.7414 354.05 96.9731C353.821 97.2048 353.64 97.4799 353.519 97.7824C353.398 98.0848 353.339 98.4083 353.345 98.7339Z" fill="#263238"/>
<path d="M353.84 91.1251C354.17 91.4396 355.999 89.8819 358.727 89.6273C361.455 89.3726 363.553 90.6757 363.838 90.3163C364.123 89.9568 363.613 89.5823 362.684 88.9982C361.445 88.267 360.012 87.9325 358.577 88.0396C357.162 88.1176 355.808 88.642 354.71 89.5374C353.915 90.3762 353.675 90.9903 353.84 91.1251Z" fill="#263238"/>
<path d="M345.372 111.57C343.899 111.222 342.388 111.061 340.875 111.091C340.17 111.091 339.496 110.971 339.376 110.507C339.273 109.787 339.382 109.053 339.691 108.395C340.23 106.658 340.8 104.83 341.384 102.913C343.723 95.1243 345.357 88.7285 345.042 88.6387C344.727 88.5488 342.584 94.7947 340.245 102.583C339.691 104.516 339.151 106.343 338.641 108.095C338.275 108.974 338.216 109.951 338.477 110.866C338.595 111.105 338.765 111.314 338.976 111.477C339.186 111.64 339.43 111.754 339.691 111.81C340.085 111.891 340.489 111.916 340.89 111.885C342.391 111.978 343.898 111.872 345.372 111.57Z" fill="#263238"/>
<path d="M345.761 144.148C355.101 143.624 364.111 140.512 371.782 135.161C371.782 135.161 366.056 150.559 346.106 150.139L345.761 144.148Z" fill="#684837"/>
<path d="M346.99 118.101C347.464 117.409 348.106 116.849 348.856 116.475C349.606 116.1 350.439 115.922 351.277 115.959C351.888 115.977 352.489 116.119 353.043 116.376C353.597 116.634 354.093 117.002 354.5 117.457C354.897 117.888 355.154 118.431 355.234 119.012C355.314 119.593 355.215 120.184 354.949 120.707C354.546 121.23 353.994 121.62 353.366 121.825C352.738 122.031 352.062 122.043 351.427 121.861C350.099 121.504 348.859 120.877 347.785 120.018C347.461 119.822 347.177 119.568 346.945 119.269C346.848 119.117 346.796 118.941 346.796 118.76C346.796 118.58 346.848 118.403 346.945 118.251" fill="#684837"/>
<path d="M353.556 112.903C353.106 112.903 353.301 115.899 350.917 118.176C348.534 120.453 345.342 120.363 345.356 120.782C345.356 120.977 346.091 121.321 347.44 121.261C349.175 121.151 350.818 120.442 352.087 119.254C353.305 118.096 354.03 116.514 354.11 114.836C354.14 113.592 353.75 112.874 353.556 112.903Z" fill="#263238"/>
<path d="M352.326 81.3892C352.641 82.1231 355.324 81.5689 358.576 81.7337C361.829 81.8984 364.467 82.5874 364.842 81.8834C365.007 81.5539 364.512 80.8799 363.418 80.2359C361.962 79.4529 360.347 79.0122 358.695 78.9473C357.043 78.8825 355.398 79.1951 353.885 79.8614C352.731 80.4156 352.191 81.0447 352.326 81.3892Z" fill="#263238"/>
<path d="M327.429 83.9205C327.953 84.5196 329.782 83.7407 332.045 83.546C334.309 83.3513 336.257 83.6658 336.647 82.9768C336.827 82.6473 336.482 82.0482 335.598 81.479C334.419 80.8306 333.07 80.5564 331.731 80.6929C330.393 80.8293 329.127 81.37 328.103 82.2429C327.414 82.9768 327.189 83.6359 327.429 83.9205Z" fill="#263238"/>
<path d="M329.438 60.2696C328.958 62.138 329.03 64.1053 329.644 65.9339C330.258 67.7626 331.389 69.3744 332.901 70.5747C334.453 71.7127 336.306 72.3716 338.229 72.4701C340.152 72.5686 342.062 72.1023 343.723 71.1289C343.181 71.8656 342.928 72.775 343.01 73.6855C343.093 74.596 343.507 75.4448 344.173 76.0718C345.569 77.2764 347.383 77.8842 349.224 77.7643C351.148 77.7343 353.043 77.2891 354.779 76.4592C356.515 75.6294 358.051 74.4345 359.282 72.9563C359.58 74.4677 360.232 75.8871 361.185 77.098C362.138 78.309 363.364 79.2771 364.764 79.923C366.164 80.569 367.696 80.8744 369.237 80.8141C370.777 80.7539 372.282 80.3299 373.626 79.5767C372.654 80.6016 371.937 81.8411 371.533 83.1948C371.129 84.5485 371.051 85.9782 371.304 87.3679C371.556 88.7576 372.133 90.0683 372.988 91.1934C373.842 92.3186 374.95 93.2267 376.222 93.844C377.493 94.4613 378.892 94.7705 380.305 94.7465C381.719 94.7224 383.106 94.3658 384.356 93.7056C385.606 93.0453 386.682 92.1001 387.498 90.9464C388.313 89.7928 388.845 88.4633 389.05 87.0658C390.421 86.357 391.611 85.3432 392.529 84.1025C393.446 82.8618 394.066 81.4273 394.341 79.9095C394.616 78.3917 394.539 76.831 394.115 75.3477C393.692 73.8644 392.933 72.4979 391.898 71.3536C392.856 70.9164 393.682 70.235 394.292 69.3778C394.903 68.5207 395.276 67.518 395.376 66.4707C395.562 64.3659 395.196 62.249 394.312 60.3295C393.412 57.9198 392.037 55.7154 390.268 53.8474C388.499 51.9793 386.372 50.4857 384.014 49.4553C381.634 48.4828 379.015 48.2485 376.5 48.7828C373.984 49.317 371.688 50.5951 369.909 52.4509C369.587 52.9361 369.12 53.308 368.575 53.5144C367.811 53.7091 367.076 53.125 366.507 52.6007C363.913 50.2192 361.215 47.6429 357.768 46.9539C355.673 46.5897 353.516 46.9451 351.649 47.9623C349.781 48.9796 348.314 50.5987 347.485 52.5558C344.847 48.6465 339.601 46.4297 335.179 48.0623C330.757 49.695 328.179 55.5515 330.592 59.5806" fill="#263238"/>
<path d="M379.502 91.6344C379.991 95.6582 381.051 99.5921 382.65 103.317C383.324 104.905 384.343 106.628 386.022 106.882C386.805 106.928 387.581 106.721 388.237 106.292C388.892 105.863 389.393 105.235 389.665 104.501C390.179 103.015 390.323 101.426 390.084 99.8724C389.484 94.3485 388.523 88.8697 387.206 83.4712" fill="#263238"/>
<path d="M384.059 94.4801C384.283 94.3453 393.802 90.2712 394.671 100.397C395.54 110.522 385.243 109.384 385.198 109.024C385.153 108.665 384.059 94.4801 384.059 94.4801Z" fill="#B97964"/>
<path d="M387.941 104.92C387.941 104.92 388.136 105.04 388.435 105.145C388.871 105.283 389.342 105.251 389.754 105.055C390.371 104.583 390.852 103.955 391.147 103.237C391.442 102.519 391.54 101.735 391.433 100.966C391.378 100.095 391.132 99.2459 390.714 98.4794C390.589 98.1629 390.386 97.883 390.124 97.6657C389.862 97.4484 389.549 97.3007 389.215 97.2362C389.008 97.203 388.795 97.2431 388.615 97.3498C388.434 97.4565 388.296 97.623 388.226 97.8204C388.121 98.105 388.226 98.3147 388.151 98.3297C388.076 98.3446 387.911 98.1799 387.956 97.7605C387.989 97.5027 388.111 97.2645 388.301 97.0864C388.426 96.968 388.575 96.8764 388.737 96.8172C388.9 96.758 389.072 96.7324 389.245 96.742C389.668 96.7881 390.071 96.9418 390.418 97.1883C390.764 97.4348 391.041 97.7658 391.223 98.1499C391.727 98.9915 392.02 99.942 392.078 100.921C392.205 101.817 392.065 102.731 391.676 103.549C391.287 104.367 390.665 105.052 389.889 105.519C389.625 105.625 389.34 105.668 389.056 105.645C388.773 105.622 388.499 105.532 388.256 105.384C387.986 105.205 387.911 104.95 387.941 104.92Z" fill="#684837"/>
<path d="M359.641 70.9194L359.326 71.0093C359.02 71.095 358.71 71.165 358.397 71.219C357.218 71.4539 356.014 71.5344 354.814 71.4587C353.953 71.4105 353.101 71.2494 352.281 70.9793C351.227 70.6487 350.263 70.0794 349.465 69.3155C348.667 68.5517 348.056 67.6141 347.679 66.5757C347.208 65.3256 347.208 63.9465 347.679 62.6963L348.024 62.966C345.79 64.7903 343.023 65.8415 340.14 65.9616C338.561 66.0449 336.981 65.8367 335.478 65.3475C334.689 65.1017 333.941 64.7381 333.26 64.2691C332.551 63.7727 331.995 63.0878 331.656 62.2919C331.285 61.3393 331.131 60.3158 331.206 59.2963C331.262 58.3497 331.387 57.4085 331.581 56.4803C331.741 55.564 332.034 54.6759 332.45 53.8442C332.65 53.4149 332.943 53.0359 333.309 52.7351C333.675 52.4344 334.104 52.2196 334.564 52.1067L334.699 52.571C333.031 53.2018 331.199 53.2546 329.497 52.7208C327.941 52.2665 326.544 51.3841 325.465 50.1745C324.506 49.0915 323.895 47.7449 323.712 46.3101C323.554 45.0923 323.667 43.8548 324.041 42.6853C324.555 41.0253 325.577 39.5687 326.964 38.5213C327.453 38.1452 328 37.8517 328.583 37.6526C328.065 37.9535 327.565 38.2836 327.084 38.6412C325.777 39.7145 324.822 41.1543 324.341 42.7752C324.009 43.9072 323.922 45.0969 324.086 46.2651C324.277 47.618 324.873 48.8816 325.795 49.8899C326.825 51.0307 328.155 51.8609 329.632 52.2864C331.24 52.7775 332.966 52.7143 334.534 52.1067L334.684 52.571C334.295 52.6764 333.935 52.865 333.627 53.1236C333.319 53.3823 333.071 53.7048 332.9 54.0688C332.517 54.8616 332.244 55.7033 332.091 56.5702C331.573 58.3457 331.573 60.2319 332.091 62.0073C332.436 62.6999 332.929 63.3083 333.535 63.7896C334.141 64.271 334.845 64.6136 335.598 64.7933C337.048 65.2671 338.572 65.4702 340.095 65.3924C342.88 65.2862 345.557 64.2826 347.724 62.5316L348.429 61.9474L348.069 62.7862C347.635 63.9349 347.635 65.2023 348.069 66.3511C348.419 67.3391 348.989 68.2345 349.737 68.9691C350.485 69.7036 351.391 70.258 352.386 70.5899C353.18 70.8695 354.006 71.0457 354.844 71.1142C356.024 71.2088 357.211 71.1686 358.382 70.9943C359.191 70.9794 359.626 70.8895 359.641 70.9194Z" fill="white"/>
<path d="M328.104 68.6874C328.104 68.6874 327.909 68.8672 327.459 69.0469C326.815 69.2988 326.128 69.4259 325.436 69.4214C324.367 69.4273 323.322 69.1086 322.438 68.5077C321.892 68.1314 321.515 67.5559 321.389 66.905C321.32 66.5406 321.359 66.1642 321.5 65.8213C321.641 65.4783 321.878 65.1836 322.183 64.9728L322.408 65.4371H322.228C321.127 65.8269 319.954 65.9713 318.792 65.86C317.629 65.7487 316.505 65.3846 315.498 64.7931C314.889 64.4461 314.342 64.0007 313.879 63.475C313.549 63.1155 313.4 62.8758 313.43 62.8608C314.127 63.4683 314.88 64.0098 315.678 64.4785C316.649 64.9931 317.718 65.3001 318.814 65.38C319.911 65.4599 321.012 65.3111 322.048 64.9428H322.213L324.582 64.104L322.438 65.3922C322.226 65.5579 322.063 65.7774 321.966 66.0277C321.868 66.2781 321.84 66.55 321.883 66.8151C321.989 67.3395 322.289 67.8048 322.723 68.1182C323.504 68.6781 324.431 69.0006 325.391 69.0469C326.308 69.0589 327.222 68.9378 328.104 68.6874Z" fill="white"/>
<path d="M394.626 107.377C395.266 107.605 395.848 107.967 396.335 108.44C397.776 109.628 398.873 111.18 399.513 112.933C399.983 114.26 400.15 115.675 400.003 117.074C399.855 118.474 399.396 119.823 398.659 121.022C397.719 122.508 396.372 123.692 394.777 124.433C393.182 125.174 391.407 125.441 389.665 125.201C387.858 124.966 386.178 124.145 384.883 122.864C383.687 121.705 382.773 120.285 382.215 118.715C381.717 117.401 381.516 115.992 381.628 114.591C381.739 113.19 382.16 111.831 382.86 110.612C383.833 108.995 385.33 107.758 387.102 107.107C387.726 106.826 388.413 106.712 389.095 106.777C389.095 106.882 388.391 106.942 387.252 107.481C385.656 108.218 384.334 109.439 383.474 110.971C382.869 112.117 382.522 113.381 382.457 114.674C382.393 115.968 382.612 117.26 383.1 118.46C383.588 119.942 384.469 121.263 385.649 122.283C386.828 123.304 388.263 123.986 389.8 124.257C391.342 124.459 392.91 124.222 394.324 123.573C395.737 122.924 396.938 121.889 397.789 120.587C398.478 119.504 398.923 118.283 399.091 117.01C399.259 115.737 399.147 114.443 398.763 113.218C398.211 111.542 397.259 110.026 395.99 108.799C395.181 107.841 394.581 107.451 394.626 107.377Z" fill="#455A64"/>
<path d="M337.922 104.486C337.895 103.522 337.805 102.562 337.652 101.61C337.349 100.016 336.716 98.5028 335.793 97.168C334.87 95.8333 333.678 94.7064 332.293 93.8598C330.908 93.0133 329.361 92.4659 327.751 92.2529C326.141 92.0399 324.505 92.1659 322.947 92.6229C320.783 93.2641 318.848 94.5116 317.371 96.2177C315.781 98.0944 314.836 100.431 314.674 102.885C314.512 105.338 315.142 107.779 316.472 109.848C317.077 110.836 317.842 111.716 318.735 112.454C319.579 113.183 320.529 113.779 321.553 114.222C323.326 115.007 325.268 115.334 327.201 115.175C329.134 115.015 330.995 114.373 332.615 113.308C334.8 111.885 336.45 109.778 337.307 107.317C337.592 106.395 337.807 105.454 337.952 104.501C337.941 105.054 337.88 105.606 337.772 106.148C337.711 106.561 337.611 106.968 337.472 107.362C336.684 109.938 335.026 112.161 332.78 113.652C331.239 114.685 329.479 115.347 327.639 115.585C325.511 115.837 323.355 115.521 321.388 114.671C320.301 114.226 319.289 113.615 318.391 112.859C317.456 112.093 316.655 111.177 316.022 110.148C314.638 108.006 313.98 105.476 314.148 102.932C314.315 100.387 315.298 97.9649 316.952 96.023C318.482 94.2094 320.516 92.8906 322.797 92.2335C324.856 91.6408 327.036 91.6149 329.108 92.1586C331.308 92.7342 333.296 93.9298 334.834 95.6029C336.373 97.276 337.398 99.356 337.787 101.595C337.856 102.001 337.901 102.411 337.922 102.823C337.943 103.127 337.943 103.433 337.922 103.737C337.936 103.986 337.936 104.236 337.922 104.486Z" fill="#263238"/>
<path d="M368.335 104.471C368.308 103.507 368.218 102.546 368.065 101.595C367.56 99.007 366.197 96.6645 364.198 94.9444C362.833 93.7636 361.211 92.9173 359.461 92.473C357.452 91.9825 355.349 92.0238 353.361 92.5928C351.17 93.2446 349.217 94.5197 347.74 96.2625C346.158 98.1435 345.219 100.479 345.057 102.931C344.895 105.382 345.52 107.821 346.84 109.893C348.073 111.819 349.845 113.34 351.937 114.266C353.707 115.051 355.647 115.379 357.577 115.22C359.507 115.06 361.366 114.418 362.984 113.353C365.189 111.916 366.847 109.779 367.69 107.287C367.958 106.361 368.174 105.421 368.335 104.471C368.324 105.024 368.264 105.575 368.155 106.118C368.087 106.53 367.987 106.936 367.855 107.332C367.062 109.905 365.405 112.127 363.164 113.622C361.506 114.741 359.591 115.421 357.599 115.599C355.607 115.777 353.602 115.448 351.772 114.641C350.707 114.197 349.72 113.585 348.849 112.829C347.918 112.065 347.118 111.154 346.48 110.132C345.097 107.988 344.44 105.455 344.608 102.909C344.775 100.363 345.757 97.9383 347.41 95.9929C348.172 95.0606 349.084 94.2609 350.108 93.6263C351.069 92.9688 352.125 92.4635 353.241 92.1285C355.306 91.5604 357.486 91.5604 359.551 92.1285C361.754 92.6973 363.746 93.8908 365.286 95.5651C366.826 97.2394 367.848 99.3231 368.23 101.565C368.311 101.97 368.362 102.38 368.38 102.793C368.41 103.097 368.41 103.403 368.38 103.707C368.384 103.962 368.369 104.217 368.335 104.471Z" fill="#263238"/>
<path d="M345.386 100.471C345.386 100.471 344.981 100.187 344.322 99.8274C343.45 99.3606 342.477 99.1164 341.489 99.1164C340.5 99.1164 339.527 99.3606 338.656 99.8274C337.996 100.202 337.651 100.546 337.591 100.486C337.532 100.427 337.831 100.022 338.491 99.5577C339.378 98.9663 340.422 98.6534 341.489 98.6591C342.553 98.6399 343.598 98.9427 344.486 99.5278C345.146 100.022 345.431 100.456 345.386 100.471Z" fill="#263238"/>
<path d="M385.078 95.1392C385.078 95.259 381.27 96.2026 376.504 97.2661C371.737 98.3295 367.855 99.0785 367.84 98.9586C373.518 97.3976 379.271 96.1228 385.078 95.1392Z" fill="#263238"/>
<path d="M324.686 112.23C324.492 112.259 324.295 112.259 324.102 112.23C323.586 112.124 323.083 111.964 322.603 111.75C320.959 111.029 319.584 109.808 318.675 108.26C318.085 107.263 317.714 106.151 317.587 104.999C317.46 103.847 317.581 102.682 317.941 101.58C318.076 101.235 318.166 101.041 318.196 101.056C318.226 101.071 317.986 101.865 317.911 103.168C317.805 104.871 318.206 106.567 319.062 108.043C319.918 109.52 321.191 110.71 322.723 111.466C323.892 112.005 324.716 112.14 324.686 112.23Z" fill="white"/>
<path d="M348.054 110.807C348.054 110.807 347.859 110.642 347.604 110.282C347.237 109.768 346.925 109.215 346.675 108.635C345.829 106.707 345.543 104.581 345.851 102.498C346.158 100.416 347.046 98.4628 348.414 96.8617C348.82 96.3748 349.277 95.9329 349.778 95.5436C349.95 95.3866 350.147 95.2599 350.362 95.1692C350.362 95.1692 349.613 95.8282 348.668 97.0564C347.404 98.6496 346.582 100.547 346.285 102.559C345.987 104.57 346.225 106.625 346.975 108.515C347.529 109.968 348.114 110.762 348.054 110.807Z" fill="white"/>
<path d="M351.847 113.248C351.847 113.353 351.382 113.248 350.933 112.963C350.483 112.679 350.183 112.409 350.243 112.304C350.303 112.2 350.723 112.304 351.157 112.589C351.592 112.874 351.922 113.143 351.847 113.248Z" fill="white"/>
<path d="M422.791 326.884C420.363 314.377 412.599 272.258 412.614 263.75C412.614 262.342 414.802 257.969 415.207 256.621C417.47 249.012 425.354 221.047 423.586 206.308C422.162 194.535 412.194 179.452 409.196 171.394C407.787 167.604 396.59 163.695 392.843 162.152L384.898 150.934C384.898 150.934 386.622 156.146 379.607 160.819C375.809 163.28 371.325 164.466 366.806 164.204C362.329 164.001 357.943 162.876 353.921 160.899C349.9 158.922 346.331 156.136 343.438 152.716L342.134 153.735C316.472 162.003 316.742 162.048 311.826 164.115C305.47 166.796 325.571 231.831 325.571 231.831C325.571 231.831 337.442 275.748 331.042 289.363C327.445 297.017 315.303 309.689 312.23 316.803C312.23 316.803 306.894 324.293 306.789 326.15C306.684 328.007 338.357 341.682 363.404 343.06C409.691 345.622 422.791 326.884 422.791 326.884Z" fill="#F5F5F5"/>
<path d="M413.198 247.244C413.227 246.477 413.328 245.715 413.498 244.967C413.767 243.469 414.067 241.417 414.352 238.811C414.698 235.757 414.883 232.688 414.907 229.614C414.918 225.857 414.718 222.101 414.307 218.366C413.846 214.63 413.17 210.925 412.284 207.267C411.55 204.283 410.664 201.338 409.63 198.445C408.746 195.973 407.967 193.951 407.382 192.648C407.044 191.965 406.768 191.253 406.558 190.521C406.982 191.156 407.349 191.827 407.652 192.528C408.326 193.831 409.151 195.793 410.155 198.25C411.266 201.145 412.212 204.1 412.988 207.102C414.877 214.438 415.765 221.996 415.626 229.569C415.563 232.661 415.323 235.747 414.907 238.811C414.644 240.881 414.274 242.936 413.797 244.967C413.658 245.741 413.457 246.502 413.198 247.244Z" fill="#263238"/>
<path d="M384.897 150.874L384.972 145.137L391.703 156.116L405.433 161.164C409.735 166.137 423.72 222.051 420.887 231.292L416.015 285.978L429.925 306.873L404.953 309.539C404.953 309.539 399.602 304.252 400.936 290.247C404.324 254.778 400.816 214.322 400.306 205.365C399.542 191.869 384.897 150.874 384.897 150.874Z" fill="#19B690"/>
<path d="M391.703 156.131C391.703 156.131 414.187 163.485 417.185 167.724C425.219 179.242 473.545 258.103 449.817 281.559C434.273 296.957 412.463 264.454 412.463 264.454L391.703 156.131Z" fill="#19B690"/>
<path d="M446.909 250.27C446.216 250.206 445.529 250.085 444.855 249.91L439.234 248.697C434.468 247.693 427.783 246.285 420.123 245.132L420.528 244.892C419.778 246.795 419.029 248.772 418.234 250.779C416.256 255.767 414.397 260.485 412.763 264.634V264.289L421.232 274.849L423.586 277.845C423.883 278.192 424.144 278.568 424.365 278.968C424.018 278.667 423.697 278.336 423.406 277.98C422.761 277.216 421.907 276.257 420.903 275.074L412.224 264.694L412.089 264.544V264.349L417.5 250.494C418.294 248.487 418.999 246.51 419.808 244.608L419.928 244.323H420.228C427.933 245.522 434.603 247.034 439.354 248.173C441.723 248.742 443.611 249.236 444.915 249.596C445.597 249.765 446.264 249.991 446.909 250.27Z" fill="#263238"/>
<path d="M423.795 243.964C423.798 243.12 423.873 242.278 424.02 241.447C424.23 239.695 424.515 237.403 424.859 234.617C425.887 227.144 426.133 219.584 425.594 212.06C424.818 204.578 422.685 197.299 419.298 190.581C418.039 187.975 416.885 185.923 416.091 184.59C415.637 183.881 415.236 183.14 414.892 182.373C415.05 182.522 415.186 182.694 415.296 182.882C415.551 183.227 415.911 183.751 416.346 184.38C417.595 186.318 418.745 188.318 419.793 190.371C423.36 197.123 425.575 204.506 426.313 212.105C426.874 219.686 426.547 227.307 425.339 234.812C424.934 237.688 424.545 240.009 424.26 241.612C424.159 242.406 424.004 243.191 423.795 243.964Z" fill="#263238"/>
<path d="M403.47 234.587C403.427 234.284 403.427 233.977 403.47 233.674C403.47 233 403.575 232.176 403.65 231.097C403.86 228.761 404.144 225.555 404.504 221.631C404.864 217.707 405.344 212.854 405.853 207.596C406.108 204.96 406.393 202.189 406.678 199.313C406.858 197.878 406.933 196.431 406.902 194.985C406.893 193.534 406.484 192.114 405.718 190.881C405.311 190.19 404.733 189.616 404.041 189.212C403.348 188.808 402.563 188.588 401.761 188.574L400.337 188.664L401.521 187.87L407.517 183.871L407.397 184.38L395.84 164.549C394.461 162.137 393.367 160.19 392.543 158.767L391.688 157.269C391.587 157.092 391.502 156.907 391.434 156.715C391.584 156.859 391.711 157.026 391.808 157.209L392.768 158.707C393.622 160.115 394.791 162.032 396.245 164.384C399.243 169.342 403.32 176.172 408.042 184.065L408.221 184.365L407.937 184.575L402.031 188.589L401.791 187.885C402.73 187.884 403.653 188.126 404.47 188.588C405.287 189.05 405.97 189.716 406.453 190.521C407.293 191.871 407.744 193.426 407.757 195.015C407.786 196.516 407.706 198.018 407.517 199.508C407.202 202.369 406.917 205.14 406.648 207.776C406.078 213.034 405.553 217.767 405.149 221.796C404.744 225.825 404.324 228.896 404.054 231.232C403.92 232.281 403.815 233.134 403.725 233.794C403.664 234.065 403.579 234.331 403.47 234.587Z" fill="#263238"/>
<path d="M524.224 440.375L539.213 472.862C539.213 472.862 576.821 467.89 580.194 473.626L518.738 505.65L493.256 455.997L524.224 440.375Z" fill="#455A64"/>
<path d="M519.187 479.812C518.68 480.298 518.371 480.953 518.319 481.653C518.266 482.352 518.474 483.046 518.902 483.602C519.369 484.126 520.02 484.45 520.72 484.509C521.42 484.567 522.116 484.355 522.664 483.916C523.202 483.402 523.529 482.706 523.582 481.964C523.634 481.222 523.409 480.487 522.949 479.902C522.405 479.404 521.688 479.136 520.949 479.155C520.211 479.175 519.509 479.48 518.992 480.007" fill="#E0E0E0"/>
<path d="M518.737 505.65L516.729 501.695L577.045 471.739C577.766 471.801 578.466 472.01 579.102 472.353C579.739 472.695 580.299 473.164 580.748 473.731L518.737 505.65Z" fill="#263238"/>
<path d="M539.917 472.772C540.067 473.087 538.613 474.001 537.609 475.768C536.604 477.536 536.454 479.198 536.11 479.213C535.765 479.228 535.33 477.251 536.574 475.169C537.818 473.087 539.842 472.458 539.917 472.772Z" fill="#263238"/>
<path d="M547.846 472.173C548.056 472.443 547.007 473.671 546.617 475.438C546.227 477.206 546.617 478.764 546.317 478.913C546.018 479.063 544.938 477.416 545.463 475.184C545.988 472.952 547.682 471.874 547.846 472.173Z" fill="#263238"/>
<path d="M555.536 478.165C555.296 478.374 554.037 477.071 554.037 475.004C554.037 472.937 555.056 471.544 555.311 471.739C555.566 471.934 555.146 473.237 555.221 474.959C555.296 476.682 555.821 477.925 555.536 478.165Z" fill="#263238"/>
<path d="M535.63 465.703C535.63 466.047 534.026 466.332 532.362 467.32C530.698 468.309 529.634 469.537 529.364 469.357C529.094 469.178 529.814 467.44 531.777 466.362C533.741 465.283 535.66 465.388 535.63 465.703Z" fill="#263238"/>
<path d="M533.217 458.259C533.292 458.393 532.183 459.187 530.084 459.831C528.858 460.209 527.589 460.43 526.307 460.49C525.548 460.542 524.787 460.542 524.028 460.49C523.58 460.467 523.138 460.366 522.724 460.191C522.422 460.079 522.165 459.873 521.989 459.603C521.814 459.333 521.73 459.014 521.75 458.693C521.798 458.403 521.912 458.128 522.084 457.889C522.255 457.65 522.48 457.453 522.739 457.315C523.134 457.106 523.559 456.96 523.998 456.88C524.746 456.705 525.509 456.6 526.277 456.566C527.575 456.496 528.876 456.638 530.129 456.985C532.258 457.599 533.322 458.483 533.247 458.588C533.172 458.693 531.973 458.169 529.934 457.809C528.752 457.602 527.547 457.552 526.352 457.659C525.649 457.72 524.953 457.835 524.268 458.004C523.519 458.169 522.964 458.453 522.934 458.828C522.904 459.202 522.934 459.022 523.189 459.142C523.498 459.251 523.821 459.316 524.148 459.337C524.856 459.408 525.566 459.443 526.277 459.442C527.49 459.424 528.699 459.299 529.889 459.067C530.978 458.72 532.09 458.45 533.217 458.259Z" fill="#263238"/>
<path d="M465.66 492.589L463.757 528.342C463.757 528.342 499.326 541.538 499.626 548.173L430.271 547.724L430.945 491.885L465.66 492.589Z" fill="#455A64"/>
<path d="M442.787 525.092C442.108 525.285 441.524 525.722 441.147 526.319C440.771 526.916 440.629 527.631 440.748 528.327C440.916 529.009 441.339 529.6 441.931 529.979C442.522 530.358 443.236 530.496 443.926 530.364C444.647 530.163 445.268 529.7 445.664 529.065C446.061 528.43 446.206 527.67 446.069 526.934C445.818 526.241 445.308 525.671 444.646 525.345C443.984 525.018 443.221 524.96 442.517 525.182" fill="#E0E0E0"/>
<path d="M430.271 547.724V543.23L497.572 545.028C498.18 545.419 498.701 545.931 499.103 546.531C499.505 547.131 499.78 547.807 499.911 548.518L430.271 547.724Z" fill="#263238"/>
<path d="M464.386 528.582C464.386 528.926 462.663 529.046 460.954 530.079C459.245 531.113 458.346 532.581 457.956 532.431C457.566 532.281 458.181 530.334 460.264 529.076C462.348 527.818 464.476 528.267 464.386 528.582Z" fill="#263238"/>
<path d="M471.761 531.742C471.836 532.071 470.337 532.626 469.153 534.049C467.969 535.471 467.654 537.044 467.264 537.044C466.875 537.044 466.74 535.082 468.254 533.345C469.767 531.607 471.761 531.412 471.761 531.742Z" fill="#263238"/>
<path d="M475.703 540.594C475.388 540.669 474.939 538.947 475.853 537.089C476.767 535.232 478.371 534.513 478.521 534.813C478.671 535.112 477.652 536.071 476.917 537.614C476.183 539.156 476.048 540.564 475.703 540.594Z" fill="#263238"/>
<path d="M463.921 520.328C463.771 520.628 462.212 520.134 460.279 520.239C458.345 520.343 456.816 520.913 456.651 520.613C456.486 520.313 457.94 519.115 460.219 519.115C462.497 519.115 464.086 520.104 463.921 520.328Z" fill="#263238"/>
<path d="M465.3 512.615C464.146 512.911 462.933 512.886 461.793 512.54C460.528 512.303 459.299 511.905 458.135 511.357C457.448 511.03 456.782 510.66 456.142 510.248C455.754 510.027 455.404 509.743 455.107 509.41C454.886 509.163 454.752 508.85 454.728 508.519C454.703 508.188 454.789 507.859 454.972 507.582C455.148 507.35 455.374 507.162 455.634 507.032C455.894 506.903 456.181 506.834 456.471 506.833C456.919 506.835 457.364 506.906 457.79 507.043C458.533 507.232 459.256 507.493 459.949 507.822C461.121 508.374 462.198 509.107 463.142 509.994C464.746 511.492 465.285 512.81 465.165 512.885C465.045 512.959 464.236 511.911 462.602 510.638C461.651 509.902 460.608 509.293 459.499 508.825C458.856 508.545 458.189 508.325 457.506 508.166C456.756 507.957 456.127 507.942 455.932 508.271C455.737 508.601 455.857 508.451 456.007 508.661C456.227 508.905 456.485 509.112 456.771 509.275C457.362 509.678 457.978 510.043 458.615 510.368C459.689 510.927 460.813 511.383 461.972 511.731C463.1 511.951 464.212 512.246 465.3 512.615Z" fill="#263238"/>
<path d="M307.074 320.892C307.074 320.892 449.083 304.087 457.267 304.087C476.483 304.087 485.491 318.151 488.369 329.445C490.498 337.803 533.217 458.543 533.217 458.543L501.74 474.899L455.273 392.519L431.62 351.403L309.757 370.216L307.074 320.892Z" fill="#263238"/>
<path d="M437.405 347.584C437.405 347.584 456.441 347.584 466.724 362.817C472.719 371.804 470.651 387.755 470.771 399.828C470.936 416.304 466.964 516.374 466.964 516.374L427.991 517.033L419.837 412.679L420.317 393.387L342.538 387.066C342.538 387.066 335.463 363.521 352.88 344.932C355.129 342.536 437.405 347.584 437.405 347.584Z" fill="#263238"/>
<path d="M307.118 322.839C307.118 322.839 294.992 350.849 311.375 374.814C322.197 390.616 342.943 386.992 342.943 386.992L370.493 352.541L348.504 318.211L307.118 322.839Z" fill="#263238"/>
<path d="M342.928 386.947C343.09 386.843 343.261 386.753 343.437 386.677L344.936 385.958L350.932 383.247L373.041 373.406L405.853 358.907L425.249 350.37C426.943 349.651 428.576 348.872 430.39 348.198C432.189 347.567 434.04 347.096 435.921 346.79C439.77 346.215 443.68 346.18 447.538 346.685C451.405 347.148 455.174 348.22 458.705 349.86C460.45 350.669 462.07 351.723 463.516 352.991C464.915 354.27 466.104 355.761 467.039 357.41C468.874 360.594 469.985 364.143 470.292 367.805C470.441 369.617 470.292 371.339 470.292 373.077C470.292 374.814 470.292 376.507 470.292 378.199C470.142 391.68 469.992 403.842 469.887 414.058C469.782 424.273 469.617 432.481 469.542 438.233C469.542 441.048 469.437 443.25 469.407 444.793V446.516C469.426 446.705 469.426 446.895 469.407 447.085C469.384 446.891 469.384 446.695 469.407 446.501C469.407 446.081 469.407 445.512 469.407 444.793C469.407 443.295 469.407 441.048 469.407 438.233C469.407 432.481 469.407 424.228 469.512 414.058C469.617 403.887 469.662 391.68 469.752 378.199V373.077C469.752 371.354 469.842 369.587 469.752 367.864C469.444 364.317 468.359 360.881 466.574 357.799C465.682 356.217 464.538 354.79 463.187 353.575C461.806 352.351 460.25 351.342 458.57 350.579C455.11 348.973 451.417 347.926 447.628 347.479C443.844 346.984 440.011 347.014 436.236 347.569C434.401 347.872 432.596 348.333 430.84 348.947C429.101 349.531 427.422 350.445 425.743 351.089L406.332 359.581L373.446 373.931L351.262 383.547C348.654 384.64 346.63 385.509 345.266 386.123L343.677 386.767C343.438 386.866 343.185 386.927 342.928 386.947Z" fill="#455A64"/>
<path d="M345.851 146.47L339.121 153.69L314.119 161.628C314.963 179.961 316.94 198.225 320.04 216.314C325.541 247.109 328.494 278.504 328.644 278.998C329.858 276.706 316.083 295.609 308.483 314.167C302.487 328.756 299.22 359.192 299.22 359.192L362.175 378.454L372.832 264.499L370.044 211.79L345.851 146.47Z" fill="#19B690"/>
<g opacity="0.3">
<path opacity="0.3" d="M317.956 294.665C318.84 296.597 321.538 297.271 323.622 296.912C338.536 294.321 360.526 283.072 372.022 273.231C372.127 272.737 372.847 263.945 372.847 263.945V259.451L317.956 294.665Z" fill="black"/>
</g>
<path d="M314.164 161.628C310.519 163.243 307.287 165.658 304.707 168.695C302.127 171.732 300.267 175.312 299.264 179.168C299.264 179.168 296.596 187.406 294.618 196.632C289.791 219.1 279.403 261.129 278.984 272.273C278.234 292.449 293.418 298.17 301.618 299.938C309.817 301.705 366.836 270.565 366.836 270.565L357.378 242.196L320.204 251.782C320.204 251.782 328.149 225.87 330.442 215.265C332.735 204.661 314.164 161.628 314.164 161.628Z" fill="#19B690"/>
<path d="M308.063 298.784L308.362 298.635L309.247 298.275C310.026 297.961 311.165 297.511 312.649 296.882C315.647 295.654 319.889 293.797 325.15 291.31C335.643 286.352 350.167 278.893 366.596 270.221L366.416 270.685C364.917 266.027 363.238 261.189 361.589 256.231C359.94 251.273 358.441 246.825 356.943 242.316L357.407 242.556L318.54 253.041C315.043 253.41 311.676 254.567 308.692 256.426C306.416 257.795 304.295 259.407 302.367 261.234C301.141 262.394 299.99 263.63 298.919 264.933L298.095 265.967C297.915 266.192 297.81 266.311 297.795 266.296C299.021 264.362 300.481 262.586 302.142 261.009C304.056 259.118 306.178 257.45 308.467 256.036C311.487 254.089 314.921 252.873 318.495 252.486L357.317 241.762L357.662 241.672L357.782 242.017L362.429 255.931C364.077 260.874 365.696 265.712 367.24 270.386L367.345 270.685L367.06 270.835C350.572 279.477 336.077 286.862 325.465 291.7C320.159 294.126 315.857 295.924 312.859 297.077C311.36 297.661 310.191 298.08 309.397 298.35L308.482 298.65C308.182 298.769 308.078 298.799 308.063 298.784Z" fill="#263238"/>
<path d="M331.791 210.203C332.001 210.203 329.573 219.624 326.35 231.172C323.127 242.721 320.354 251.917 320.144 251.857C319.935 251.797 322.378 242.451 325.6 230.963C328.823 219.474 331.596 210.143 331.791 210.203Z" fill="#263238"/>
<path d="M370.059 240.009C369.862 239.715 369.701 239.398 369.579 239.066C369.269 238.377 368.865 237.463 368.365 236.325C367.301 233.943 365.772 230.483 363.868 226.259C358.718 215.254 353.015 204.516 346.78 194.086L345.057 191.24L344.817 190.851L345.237 190.686L352.327 187.69L352.222 188.334C349.929 186.455 347.238 185.123 344.352 184.44H344.097V184.185C343.663 179.974 342.926 175.799 341.894 171.693C341.01 167.979 340.26 164.683 339.825 161.927C339.462 159.783 339.246 157.616 339.181 155.442C339.181 154.678 339.181 154.094 339.181 153.704C339.156 153.505 339.156 153.304 339.181 153.105C339.276 153.876 339.331 154.651 339.346 155.427C339.496 157.584 339.776 159.729 340.185 161.853C340.68 164.579 341.474 167.844 342.404 171.559C343.507 175.681 344.288 179.882 344.742 184.125L344.472 183.811C347.479 184.509 350.282 185.899 352.656 187.87L353.136 188.274L352.551 188.514L345.476 191.51L345.656 190.94L347.395 193.801C353.656 204.242 359.302 215.04 364.303 226.139C366.222 230.393 367.691 233.883 368.65 236.31C369.099 237.463 369.459 238.407 369.744 239.111C369.872 239.402 369.977 239.702 370.059 240.009Z" fill="#263238"/>
<path d="M318.42 318.151C318.263 318.433 318.071 318.695 317.851 318.93C317.416 319.469 316.876 320.173 316.187 321.027L310.041 328.516L309.876 328.067L339.765 333.684L339.375 333.834L339.84 333.175L348.189 321.581L348.444 322.165L326.934 319.394L320.698 318.526L319.02 318.271L318.42 318.136C318.604 318.112 318.791 318.112 318.975 318.136L320.609 318.271L326.829 318.93L348.534 321.431L349.148 321.506L348.788 322.016L340.484 333.624L340.005 334.283L339.855 334.493H339.615L309.771 328.651L309.307 328.561L309.621 328.202L316.037 320.713C316.756 319.904 317.341 319.215 317.791 318.735C318.24 318.256 318.405 318.121 318.42 318.151Z" fill="#263238"/>
<path d="M329.363 187.585C329.228 187.585 328.988 186.088 328.194 183.931C327.157 181.044 325.636 178.354 323.697 175.977C321.741 173.606 319.4 171.581 316.772 169.986C314.748 168.773 313.369 168.248 313.414 168.114C313.766 168.138 314.111 168.224 314.433 168.368C315.334 168.672 316.207 169.053 317.042 169.506C322.664 172.52 326.863 177.636 328.718 183.736C329.006 184.643 329.207 185.576 329.318 186.522C329.363 187.211 329.363 187.585 329.363 187.585Z" fill="#263238"/>
<g opacity="0.3">
<path opacity="0.3" d="M313.669 329.1L311.69 332.965L339.735 338.986L346.75 324.262L339.69 334.088L313.669 329.1Z" fill="black"/>
</g>
<path d="M419.523 243.904C418.819 240.756 418.713 237.505 419.208 234.318C419.595 232.41 419.66 230.451 419.403 228.521C419.044 226.604 417.275 224.597 415.341 224.761L412.448 238.721L419.523 243.904Z" fill="#B97964"/>
<path d="M418.174 211.131L407.921 260.56L383.639 259.062L390.834 210.233C390.927 209.608 391.241 209.038 391.72 208.625C392.199 208.213 392.81 207.986 393.442 207.986H415.611C415.999 207.987 416.382 208.074 416.733 208.241C417.084 208.408 417.393 208.651 417.638 208.952C417.883 209.253 418.058 209.605 418.151 209.981C418.244 210.358 418.252 210.751 418.174 211.131Z" fill="#263238"/>
<path d="M390.818 223.953C390.984 223.464 391.109 222.963 391.193 222.455L392.003 218.456C392.332 216.733 392.722 214.741 393.157 212.464C393.197 212.191 393.258 211.92 393.337 211.655C393.423 211.419 393.567 211.208 393.756 211.041C393.95 210.863 394.188 210.739 394.446 210.682C394.735 210.651 395.026 210.651 395.315 210.682H399.152C404.399 210.682 409.165 210.682 412.643 210.547L416.735 210.442C417.236 210.442 417.737 210.407 418.234 210.337C417.739 210.25 417.236 210.22 416.735 210.247H412.658C409.225 210.247 404.459 210.247 399.167 210.247H395.315C394.991 210.219 394.665 210.219 394.341 210.247C394.005 210.319 393.694 210.479 393.441 210.712C393.19 210.936 393 211.219 392.887 211.536C392.798 211.824 392.733 212.12 392.692 212.419C392.302 214.636 391.958 216.658 391.658 218.411C391.358 220.163 391.163 221.406 390.998 222.425C390.894 222.928 390.834 223.439 390.818 223.953Z" fill="#455A64"/>
<path d="M403.844 213.183C403.952 212.893 404.169 212.656 404.448 212.522C404.728 212.388 405.048 212.367 405.343 212.464C405.563 212.523 405.762 212.646 405.913 212.816C406.065 212.986 406.164 213.197 406.197 213.423C406.213 213.669 406.16 213.914 406.043 214.131C405.927 214.348 405.751 214.528 405.538 214.651C405.322 214.77 405.075 214.822 404.83 214.801C404.584 214.779 404.351 214.686 404.159 214.531C403.967 214.371 403.833 214.153 403.776 213.91C403.72 213.667 403.743 213.412 403.844 213.183Z" fill="#FAFAFA"/>
<path d="M404.519 228.027C405.073 228.177 417.934 234.797 417.934 234.797L424.634 241.867C425.396 243.499 425.827 245.265 425.904 247.064C425.982 248.864 425.703 250.66 425.084 252.352C423.12 258.732 419.928 260.964 412.538 262.836L398.568 260.635L391.523 254.853C390.842 254.295 390.343 253.546 390.092 252.702C389.841 251.859 389.849 250.959 390.114 250.12L390.219 249.835L389.41 248.502C389.164 248.09 389.044 247.615 389.066 247.136C389.087 246.657 389.248 246.195 389.529 245.806C389.912 245.291 390.483 244.948 391.118 244.853C391.753 244.757 392.4 244.917 392.917 245.297L400.876 251.108L406.347 251.827L407.172 250.03L399.153 245.866L388.945 237.987C388.624 237.74 388.356 237.429 388.159 237.075C387.961 236.721 387.837 236.33 387.795 235.927C387.753 235.523 387.794 235.116 387.914 234.728C388.034 234.341 388.232 233.982 388.495 233.674C388.952 233.135 389.585 232.775 390.281 232.657C390.978 232.54 391.694 232.671 392.302 233.03L401.776 238.601L411.669 242.96L410.17 239.036L398.538 230.438C398.538 230.438 397.564 226.304 404.519 228.027Z" fill="#B97964"/>
<path d="M403.289 221.302C403.289 221.302 400.606 219.804 396.154 221.616C391.703 223.429 386.037 226.229 386.037 226.229L377.523 228.671L378.527 226.559C378.527 226.559 386.936 227.413 386.531 221.302L381.465 221.526L377.103 219.28L368.544 227.622L365.336 239.395L357.842 243.964L364.512 264.499L376.503 257.01L393.186 256.68L399.302 251.753L399.977 245.477L405.972 239.395C405.972 239.395 406.737 236.4 403.979 236.04C401.221 235.681 394.58 242.346 394.58 242.346L387.925 242.511C387.925 242.511 386.771 241.462 387.715 240.863C388.66 240.264 408.281 230.648 409.15 228.476C410.019 226.304 410.904 224.911 408.955 224.297C407.211 224.042 405.43 224.217 403.769 224.807C403.769 224.807 404.773 221.781 403.289 221.302Z" fill="#B97964"/>
<path d="M387.056 233.344C390.049 232.152 392.971 230.792 395.81 229.27C398.725 227.922 401.567 226.423 404.324 224.777C401.342 225.982 398.425 227.341 395.585 228.851C390.819 231.202 386.996 233.224 387.056 233.344Z" fill="#684837"/>
<path d="M383.1 248.997C383.421 249.14 383.758 249.246 384.104 249.311C384.763 249.491 385.708 249.73 386.892 249.94C388.296 250.191 389.724 250.287 391.149 250.225C392.914 250.131 394.637 249.656 396.2 248.832C398.976 247.282 401.385 245.152 403.26 242.586C403.995 241.627 404.564 240.833 404.939 240.279C405.168 240.009 405.355 239.706 405.494 239.38C405.494 239.38 404.519 240.519 402.975 242.376C401.056 244.811 398.678 246.846 395.975 248.367C394.469 249.156 392.815 249.625 391.119 249.745C389.727 249.829 388.331 249.769 386.952 249.566C384.584 249.251 383.115 248.997 383.1 248.997Z" fill="#684837"/>
</g>
<defs>
<clipPath id="clip0_34_6631">
<rect width="630" height="592" fill="white"/>
</clipPath>
</defs>
</svg>
