<svg width="447" height="592" viewBox="0 0 447 592" fill="none" xmlns="http://www.w3.org/2000/svg">
<g clip-path="url(#clip0_34_5861)">
<path d="M125.05 43.6905L126.882 44.7186C134.456 48.8755 140.751 55.0307 145.086 62.5173C149.421 70.004 151.629 78.5368 151.473 87.1915C151.417 89.4503 151.189 91.7016 150.793 93.9259C149.251 101.989 145.746 109.545 140.588 115.922C135.43 122.299 128.78 127.3 121.229 130.478C112.307 134.155 101.929 135.468 94.9729 142.118C85.922 150.765 86.123 164.93 86.931 177.355C87.7389 189.781 87.8448 203.949 78.8202 212.567C73.1273 217.961 64.8246 219.87 56.9556 219.746C36.0965 219.361 17.0048 205.465 7.10008 187.283C-2.8046 169.102 -4.36766 147.372 -0.985604 127C3.74834 98.4517 18.4921 70.9494 42.0995 53.9034C65.7069 36.8575 98.5373 31.6195 125.05 43.6905Z" fill="#E8F9F5"/>
<path d="M231.795 59.2973C232.34 55.8568 234.001 52.6916 236.522 50.2907C239.043 47.8898 242.283 46.3868 245.742 46.0138C247.575 46.0545 249.405 45.8529 251.185 45.4144C252.529 44.7676 253.824 44.0254 255.063 43.1936C257.205 42.1143 259.649 41.796 261.996 42.2911C264.342 42.7863 266.451 44.0653 267.975 45.9184C270.697 49.4743 271.881 44.556 278.425 48.4253C283.868 51.6542 281.011 56.1365 281.011 56.1365C283.819 56.0994 286.553 57.0374 288.749 58.791C290.944 60.5446 292.465 63.0055 293.053 65.7551C293.692 69.2565 293.053 73.5073 295.774 75.7961C297.135 76.8997 298.931 77.1585 300.305 78.2621C302.836 80.2239 302.918 84.0115 302.346 87.1586C301.775 90.3058 300.795 93.6437 301.965 96.6955C303.884 101.587 310.837 103.508 311.694 108.712C312.102 111.164 311.082 114.162 312.783 115.905C313.538 116.555 314.405 117.063 315.341 117.404C317.165 118.298 318.709 119.678 319.802 121.392C320.895 123.107 321.495 125.089 321.538 127.123C321.58 129.156 321.062 131.162 320.041 132.921C319.02 134.679 317.535 136.122 315.749 137.091C314.769 137.622 313.585 138.126 313.218 139.189C312.851 140.252 313.572 141.601 314.13 142.718C315.166 144.793 315.497 147.15 315.073 149.43C314.649 151.711 313.494 153.791 311.782 155.354C310.07 156.917 307.895 157.878 305.588 158.091C303.281 158.303 300.967 157.756 298.999 156.533C296.839 160.271 293.311 163.022 289.161 164.203C287.281 164.824 285.26 164.876 283.351 164.353C281.861 163.825 280.498 162.99 279.351 161.9C273.69 156.955 265.744 149.407 265.227 141.9" fill="#263238"/>
<path d="M283.855 86.6545C284.721 86.8288 285.614 86.8288 286.481 86.6545C288.593 86.3042 290.609 85.5177 292.401 84.3449C294.193 83.1722 295.722 81.6388 296.89 79.8425C297.416 79.1366 297.792 78.3296 297.992 77.4719C297.446 78.1349 296.942 78.831 296.482 79.5564C295.229 81.1601 293.715 82.5417 292.005 83.6436C290.278 84.7463 288.378 85.5521 286.386 86.0278C285.529 86.1813 284.684 86.3906 283.855 86.6545Z" fill="#455A64"/>
<path d="M280.058 69.42C280.498 70.1021 281.078 70.6826 281.759 71.1231C284.928 73.4716 288.889 74.484 292.794 73.9432C293.605 73.8835 294.394 73.6512 295.107 73.262C292.463 73.5858 289.784 73.4753 287.175 72.9351C284.624 72.1675 282.219 70.9796 280.058 69.42Z" fill="#455A64"/>
<path d="M307.871 154.666C307.871 154.666 307.953 154.666 308.102 154.666C308.333 154.611 308.56 154.543 308.783 154.462C309.632 154.139 310.422 153.678 311.123 153.099C312.282 152.23 313.216 151.095 313.844 149.789C314.662 148.047 314.892 146.086 314.497 144.203C314.283 143.112 313.873 142.068 313.286 141.124C312.631 140.099 311.823 139.18 310.892 138.399C309.937 137.617 309.103 136.699 308.415 135.674C308.103 135.142 307.929 134.54 307.91 133.924C307.891 133.307 308.028 132.696 308.306 132.145C308.988 130.951 309.805 129.84 310.742 128.835C311.219 128.267 311.643 127.655 312.007 127.009C312.373 126.324 312.621 125.583 312.742 124.816C312.961 123.209 312.672 121.573 311.916 120.139C311.159 118.704 309.973 117.543 308.524 116.818C307.028 116.317 305.488 115.957 303.925 115.742C303.222 115.601 302.555 115.319 301.966 114.911C301.421 114.504 301.025 113.93 300.836 113.276C300.54 111.901 300.698 110.467 301.285 109.189C301.816 107.895 302.551 106.668 303.027 105.36C303.587 104.071 303.688 102.628 303.313 101.273C302.868 100.023 302.057 98.9357 300.986 98.1533C299.078 96.8782 296.944 95.981 294.7 95.5102C292.917 95.0874 291.234 94.319 289.747 93.2486C288.696 92.3596 287.969 91.1477 287.678 89.8017C287.473 88.9535 287.56 88.0607 287.923 87.2676C288.182 86.7227 288.427 86.5047 288.386 86.4774C288.135 86.6698 287.93 86.9166 287.787 87.1995C287.359 88.0099 287.224 88.9439 287.406 89.8426C287.654 91.2807 288.389 92.5894 289.488 93.5483C290.996 94.6995 292.723 95.5295 294.564 95.987C296.729 96.4754 298.783 97.3674 300.619 98.6165C301.593 99.3275 302.324 100.322 302.714 101.464C303.048 102.692 302.942 103.998 302.415 105.156C301.952 106.409 301.231 107.595 300.659 108.957C300.017 110.364 299.845 111.941 300.17 113.453C300.397 114.249 300.874 114.951 301.53 115.456C302.196 115.927 302.951 116.256 303.748 116.423C305.264 116.627 306.758 116.969 308.211 117.445C309.521 118.106 310.594 119.159 311.279 120.458C311.964 121.757 312.228 123.237 312.035 124.693C311.929 125.382 311.713 126.049 311.395 126.669C311.05 127.281 310.649 127.86 310.198 128.399C309.23 129.446 308.393 130.608 307.708 131.859C307.395 132.501 307.247 133.21 307.275 133.924C307.304 134.637 307.509 135.332 307.871 135.947C308.59 137.017 309.472 137.968 310.483 138.767C311.38 139.486 312.165 140.335 312.81 141.287C313.377 142.175 313.778 143.158 313.994 144.189C314.399 145.97 314.218 147.834 313.477 149.503C312.909 150.766 312.057 151.88 310.987 152.759C310.058 153.559 309.006 154.203 307.871 154.666Z" fill="#455A64"/>
<path d="M166.66 495.677H313.219V503.471H166.66V495.677Z" fill="#E0E0E0"/>
<path d="M166.7 503.443C166.7 503.443 166.7 503.266 166.7 502.953C166.7 502.64 166.7 502.135 166.7 501.509C166.7 500.146 166.7 498.266 166.768 495.65L166.66 495.759C185.709 495.895 244.15 496.005 313.218 496.005L312.865 495.65V503.443L313.218 503.089L209.426 503.239L178.13 503.348H169.626H167.408H166.632H167.354H169.531H177.953L209.14 503.457L313.191 503.607H313.545V495.269H313.191C244.123 495.269 185.641 495.364 166.632 495.514H166.524V495.623C166.524 498.266 166.524 500.214 166.592 501.536C166.592 502.163 166.592 502.626 166.592 502.966C166.614 503.128 166.65 503.288 166.7 503.443Z" fill="#263238"/>
<path d="M297.87 360.608L328.812 569.902H318.498L290.495 363.333V360.608H297.87Z" fill="#E0E0E0"/>
<path d="M297.87 360.608C297.87 360.608 297.312 360.608 296.101 360.608H290.495H290.4V360.704C290.4 361.521 290.4 362.434 290.4 363.428C293.747 389.192 304.85 471.917 318.157 570.024V570.338H329.22V569.929C320.457 511.618 312.701 459.233 307.081 421.426C304.251 402.57 301.965 387.366 300.373 376.834C299.584 371.603 299.013 367.543 298.536 364.764L298.06 361.644C297.938 360.949 297.87 360.608 297.87 360.608C297.87 360.608 297.87 360.976 298.006 361.698C298.142 362.42 298.251 363.496 298.455 364.873C298.849 367.597 299.434 371.685 300.196 377.025C301.72 387.57 303.938 402.829 306.687 421.726C312.238 459.478 319.913 511.754 328.458 569.956L328.812 569.547H318.484L318.838 569.847C305.489 471.74 294.223 389.001 290.522 363.319C290.522 362.325 290.522 361.412 290.522 360.595L290.44 360.676H295.992L297.87 360.608Z" fill="#263238"/>
<path d="M182.049 360.608L150.454 569.902H160.782L189.424 363.333V360.608H182.049Z" fill="#E0E0E0"/>
<path d="M182.049 360.608H183.872H189.424L189.342 360.526C189.342 361.344 189.342 362.257 189.342 363.251C185.627 388.974 174.048 471.658 160.441 569.779L160.781 569.479H150.467L150.821 569.888C159.543 511.7 167.394 459.41 173.055 421.658C175.858 402.761 178.116 387.516 179.695 376.957C180.457 371.685 181.056 367.597 181.477 364.804C181.668 363.442 181.818 362.366 181.926 361.63C182.035 360.894 182.062 360.54 182.062 360.54C182.062 360.54 181.994 360.881 181.872 361.575C181.749 362.27 181.6 363.347 181.382 364.695C180.947 367.42 180.321 371.507 179.504 376.766C177.885 387.284 175.558 402.502 172.701 421.358C166.959 459.165 159.013 511.509 150.154 569.779V570.188H161.19V569.874C174.796 471.781 186.172 389.042 189.601 363.278C189.601 362.284 189.601 361.371 189.601 360.554V360.458H189.505H183.913C182.607 360.581 182.049 360.608 182.049 360.608Z" fill="#263238"/>
<path d="M238.898 360.608H247.715V569.902H238.898V360.608Z" fill="#E0E0E0"/>
<path d="M238.898 569.902C238.898 569.902 238.898 569.52 238.898 568.798C238.898 568.076 238.898 567.013 238.898 565.637C238.898 562.912 238.898 558.744 238.898 553.485C238.898 542.926 238.966 527.681 239.007 508.798C239.007 471.045 239.102 418.769 239.156 360.608L238.803 360.962H247.62L247.266 360.608C247.266 460.813 247.375 545.215 247.525 569.902L247.62 569.806H240.966H239.347H238.803H239.306H240.912H247.62H247.715V569.711C247.865 545.024 247.974 460.623 247.974 360.417V360.063H238.449V360.417C238.449 418.688 238.558 471.045 238.585 508.92C238.585 527.776 238.68 542.98 238.694 553.525C238.694 558.757 238.694 562.817 238.694 565.596C238.694 566.959 238.694 567.994 238.694 568.716C238.694 569.438 238.898 569.902 238.898 569.902Z" fill="#263238"/>
<path d="M180.293 346.616H301.271V362.352H180.293V346.616Z" fill="#455A64"/>
<path d="M264.329 347.066C265.701 348.443 267.18 349.71 268.751 350.853C270.446 352.08 272.219 353.195 274.058 354.191C278.57 356.622 283.446 358.305 288.495 359.178C290.555 359.532 292.637 359.746 294.727 359.818C296.648 359.9 298.572 359.831 300.482 359.614H300.047H298.89C297.911 359.614 296.468 359.614 294.7 359.614C292.623 359.515 290.555 359.283 288.508 358.919C286.004 358.452 283.535 357.81 281.12 356.998C278.727 356.146 276.395 355.13 274.14 353.96C272.304 352.981 270.532 351.889 268.833 350.69C267.391 349.654 266.248 348.769 265.499 348.115L264.629 347.379L264.329 347.066Z" fill="#263238"/>
<path d="M246.981 357.406L247.28 357.297C247.47 357.216 247.756 357.066 248.137 356.916C249.262 356.489 250.43 356.187 251.62 356.017C253.496 355.753 255.403 355.822 257.254 356.221C259.686 356.741 261.955 357.844 263.867 359.436V359.246C259.491 360.315 254.994 360.805 250.491 360.703C247.922 360.641 245.361 360.381 242.83 359.927C241.505 359.778 240.216 359.4 239.021 358.81C238.446 358.476 238.007 357.95 237.782 357.325C237.588 356.686 237.612 356 237.85 355.376C238.16 354.648 238.643 354.006 239.257 353.507C239.872 353.009 240.599 352.668 241.375 352.515C242.9 352.168 244.452 351.954 246.014 351.875C248.971 351.666 251.94 351.725 254.886 352.052C263.288 352.973 271.33 355.969 278.29 360.772C279.283 361.439 280.018 362.025 280.521 362.407L281.297 362.979C281.297 362.979 281.052 362.761 280.548 362.366C280.045 361.971 279.351 361.371 278.358 360.69C275.586 358.713 272.612 357.037 269.486 355.69C264.857 353.664 259.948 352.351 254.927 351.793C251.959 351.463 248.967 351.395 245.987 351.589C244.407 351.676 242.837 351.894 241.293 352.243C240.499 352.455 239.748 352.806 239.075 353.278C238.396 353.787 237.881 354.483 237.592 355.281C237.34 355.972 237.34 356.729 237.592 357.42C237.829 358.111 238.314 358.689 238.953 359.041C240.177 359.653 241.498 360.045 242.858 360.199C245.406 360.655 247.985 360.91 250.573 360.962C255.096 361.066 259.613 360.562 264.003 359.464H264.207L264.043 359.327C262.076 357.707 259.739 356.598 257.24 356.099C255.373 355.708 253.451 355.657 251.566 355.949C250.365 356.127 249.191 356.452 248.069 356.916C247.402 357.202 246.981 357.406 246.981 357.406Z" fill="#263238"/>
<path d="M231.346 347.025C231.065 347.056 230.79 347.13 230.53 347.243C229.809 347.563 229.161 348.026 228.625 348.605C227.831 349.455 227.273 350.498 227.006 351.63C226.716 353.032 226.834 354.489 227.346 355.826C228.331 358.226 230.202 360.154 232.571 361.208C233.268 361.533 233.992 361.797 234.734 361.998L235.347 362.148C235.496 362.148 235.564 362.148 235.564 362.148C235.31 362.031 235.046 361.935 234.775 361.862C234.05 361.629 233.344 361.337 232.666 360.99C230.374 359.927 228.57 358.033 227.618 355.69C227.103 354.391 226.98 352.97 227.264 351.603C227.505 350.503 228.025 349.485 228.775 348.646C229.49 347.908 230.372 347.352 231.346 347.025Z" fill="#263238"/>
<path d="M212.406 346.957C213.324 347.343 214.211 347.798 215.059 348.319C217.064 349.628 218.79 351.323 220.135 353.306C221.466 355.3 222.614 357.411 223.564 359.614L224.462 361.603C224.679 362.066 224.802 362.325 224.815 362.325C224.766 362.061 224.684 361.805 224.57 361.562C224.38 361.071 224.108 360.377 223.754 359.532C222.851 357.289 221.715 355.148 220.366 353.142C219.003 351.129 217.232 349.425 215.168 348.142C214.537 347.766 213.872 347.451 213.182 347.202C212.994 347.133 212.803 347.074 212.61 347.025C212.488 346.957 212.406 346.943 212.406 346.957Z" fill="#263238"/>
<path d="M191.505 356.303L192.213 355.99C192.886 355.705 193.582 355.481 194.295 355.322C196.926 354.715 199.685 355.022 202.119 356.194C202.512 356.348 202.852 356.613 203.098 356.957C203.209 357.131 203.257 357.338 203.235 357.544C203.212 357.749 203.121 357.941 202.976 358.088C202.218 358.662 201.353 359.079 200.432 359.314C198.42 360.031 196.326 360.489 194.2 360.676C191.859 360.879 189.502 360.764 187.192 360.336C185.978 360.177 184.825 359.708 183.845 358.973C183.38 358.564 183.056 358.018 182.92 357.414C182.783 356.81 182.84 356.178 183.083 355.608C183.573 354.441 184.494 353.508 185.655 353.006C186.782 352.486 187.964 352.093 189.179 351.834C191.471 351.312 193.826 351.119 196.173 351.262C200.166 351.505 204.037 352.736 207.439 354.845C209.725 356.263 211.769 358.039 213.494 360.104C214.106 360.853 214.542 361.466 214.855 361.862L215.304 362.488C214.806 361.628 214.241 360.808 213.616 360.036C211.896 357.882 209.837 356.023 207.521 354.532C204.097 352.383 200.192 351.123 196.159 350.867C193.786 350.713 191.403 350.901 189.083 351.425C187.85 351.684 186.649 352.082 185.505 352.611C184.287 353.143 183.315 354.116 182.784 355.336C182.536 355.968 182.475 356.658 182.607 357.325C182.763 357.98 183.12 358.571 183.627 359.014C184.639 359.802 185.841 360.31 187.11 360.486C189.447 360.921 191.832 361.035 194.2 360.826C196.342 360.625 198.452 360.168 200.486 359.464C200.962 359.3 201.425 359.109 201.847 358.932C202.313 358.765 202.736 358.495 203.085 358.142C203.253 357.961 203.358 357.73 203.382 357.484C203.407 357.238 203.35 356.991 203.221 356.78C202.947 356.414 202.58 356.127 202.16 355.949C199.679 354.783 196.874 354.504 194.213 355.158C193.257 355.397 192.343 355.783 191.505 356.303Z" fill="#263238"/>
<path d="M269.935 146.492C274.413 148.219 278.145 151.464 280.481 155.661C284.44 162.677 283.379 166.138 282.345 170.293C281.311 174.448 279.487 182.664 279.392 182.132C279.297 181.601 269.935 146.492 269.935 146.492Z" fill="#B97964"/>
<path d="M269.5 146.532L261.173 141.587L222.461 127.077L230.068 192.228L258.642 210.239L275.569 201.765L277.256 182.909L269.5 146.532Z" fill="#B97964"/>
<path d="M270.506 245.675L285.637 265.321L304.387 260.907L319.382 269.299L315.409 276.37L275.622 279.041L261.594 250.089L270.506 245.675Z" fill="#7C3B29"/>
<path d="M316.416 434.26L301.149 467.394L276.521 455.991L292.305 414.996L316.416 434.26Z" fill="#B97964"/>
<path d="M304.034 465.173L295.121 482.203C295.121 482.203 317.953 505.841 315.803 511.127L262.138 485.364L276.915 451.208L304.034 465.173Z" fill="#19B690"/>
<path d="M279.637 471.904C279.043 471.813 278.437 471.945 277.935 472.274C277.432 472.604 277.069 473.107 276.915 473.688C276.8 474.278 276.915 474.889 277.236 475.396C277.558 475.903 278.061 476.267 278.643 476.413C279.271 476.508 279.911 476.367 280.441 476.017C280.971 475.668 281.354 475.134 281.514 474.519C281.569 473.891 281.378 473.267 280.982 472.777C280.586 472.286 280.016 471.969 279.392 471.89" fill="#E0E0E0"/>
<g opacity="0.6">
<path opacity="0.6" d="M262.138 485.364L264.37 481.073L315.014 507.381C315.014 507.381 316.906 509.561 315.831 511.127L262.138 485.364Z" fill="white"/>
</g>
<path d="M296.115 482.353C295.993 482.612 294.618 482.094 292.931 482.353C291.244 482.612 290.019 483.348 289.829 483.13C289.638 482.912 290.754 481.577 292.809 481.345C294.863 481.113 296.292 482.135 296.115 482.353Z" fill="#263238"/>
<path d="M300.632 487.381C300.632 487.667 299.271 487.571 297.802 488.252C296.332 488.934 295.557 489.983 295.312 489.846C295.067 489.71 295.598 488.143 297.38 487.326C299.163 486.509 300.755 487.094 300.632 487.381Z" fill="#263238"/>
<path d="M300.605 495.664C300.333 495.664 300.605 494.111 301.966 492.939C303.326 491.767 304.823 491.836 304.823 492.108C304.823 492.38 303.707 492.789 302.605 493.716C301.503 494.642 300.877 495.759 300.605 495.664Z" fill="#263238"/>
<path d="M298.686 475.786C298.455 475.977 297.434 475.037 295.965 474.424C294.495 473.811 293.053 473.729 293.025 473.443C292.998 473.157 294.563 472.748 296.346 473.443C298.128 474.138 298.904 475.65 298.686 475.786Z" fill="#263238"/>
<path d="M300.251 472.38C300.251 472.38 300.523 472.04 300.754 471.304C301.06 470.252 301.144 469.148 300.999 468.062C300.97 467.688 300.888 467.321 300.754 466.972C300.669 466.743 300.525 466.542 300.336 466.389C300.146 466.235 299.92 466.135 299.679 466.1C299.533 466.081 299.385 466.096 299.246 466.143C299.107 466.19 298.981 466.269 298.876 466.372C298.696 466.579 298.582 466.835 298.55 467.108C298.515 467.561 298.515 468.017 298.55 468.47C298.55 469.383 298.55 470.255 298.768 471.304C298.812 471.611 298.939 471.901 299.136 472.141C299.332 472.381 299.591 472.563 299.883 472.666C300.426 472.831 301.002 472.854 301.557 472.735C303.051 472.474 304.491 471.963 305.816 471.222C306.27 470.999 306.677 470.689 307.013 470.309C307.195 470.084 307.295 469.803 307.295 469.512C307.295 469.222 307.195 468.941 307.013 468.715C306.831 468.553 306.612 468.437 306.375 468.377C306.138 468.318 305.89 468.317 305.653 468.375C304.917 468.572 304.208 468.861 303.543 469.233C302.59 469.752 301.715 470.403 300.945 471.168C300.414 471.713 300.169 472.053 300.21 472.094C301.315 471.173 302.509 470.365 303.775 469.683C304.401 469.361 305.064 469.114 305.748 468.947C305.897 468.907 306.053 468.902 306.204 468.933C306.355 468.963 306.497 469.029 306.619 469.124C306.694 469.247 306.726 469.39 306.711 469.533C306.697 469.676 306.635 469.81 306.537 469.914C306.246 470.209 305.905 470.449 305.53 470.623C305.125 470.847 304.707 471.047 304.278 471.222C303.403 471.592 302.491 471.866 301.557 472.04C301.111 472.155 300.642 472.155 300.196 472.04C300.019 471.981 299.862 471.873 299.744 471.728C299.626 471.584 299.551 471.408 299.529 471.222C299.407 470.35 299.366 469.342 299.285 468.497C299.253 468.085 299.253 467.67 299.285 467.258C299.285 466.903 299.475 466.74 299.734 466.754C300.319 466.754 300.523 467.585 300.618 468.211C300.759 469.612 300.634 471.026 300.251 472.38Z" fill="#263238"/>
<path d="M316.77 445.636L355.645 348.755C355.645 348.755 354.746 331.562 351.562 326.125C348.379 320.689 252.559 289 252.559 289C252.559 289 228.149 283.128 211.875 289C195.601 294.872 183.396 315.267 185.655 326.575C187.914 337.883 197.452 346.207 197.452 346.207L267.935 348.306L306.347 362.338L280.494 436.59C280.494 436.59 293.706 451.072 316.77 445.636Z" fill="#263238"/>
<path d="M351.195 380.69L352.106 417.162L324.974 417.816L321.069 374.055L351.195 380.69Z" fill="#B97964"/>
<path d="M353.725 413.892L353.222 433.116C353.222 433.116 384.123 444.233 384.518 449.928L325.015 450.527L323.178 413.361L353.725 413.892Z" fill="#19B690"/>
<path d="M334.798 430.718C334.226 430.9 333.741 431.287 333.435 431.805C333.129 432.322 333.023 432.934 333.138 433.524C333.301 434.093 333.671 434.579 334.175 434.887C334.679 435.195 335.28 435.302 335.86 435.186C336.462 434.991 336.972 434.581 337.291 434.032C337.61 433.484 337.716 432.838 337.588 432.216C337.351 431.641 336.903 431.179 336.336 430.926C335.768 430.672 335.125 430.646 334.54 430.854" fill="#E0E0E0"/>
<g opacity="0.6">
<path opacity="0.6" d="M325.03 450.527L325.138 445.691L382.151 446.93C382.151 446.93 384.872 448.048 384.532 449.928L325.03 450.527Z" fill="white"/>
</g>
<path d="M354.188 432.802C354.188 433.102 352.732 433.238 351.304 434.165C349.875 435.091 349.14 436.345 348.868 436.236C348.596 436.127 349.018 434.437 350.759 433.32C352.501 432.203 354.243 432.598 354.188 432.802Z" fill="#263238"/>
<path d="M360.447 435.323C360.529 435.609 359.264 436.113 358.298 437.353C357.331 438.593 357.046 439.9 356.76 439.887C356.474 439.873 356.27 438.238 357.508 436.726C358.747 435.214 360.447 435.05 360.447 435.323Z" fill="#263238"/>
<path d="M364.08 442.775C363.808 442.775 363.386 441.413 364.08 439.791C364.774 438.17 366.162 437.544 366.285 437.775C366.407 438.007 365.577 438.879 365.006 440.2C364.434 441.522 364.366 442.734 364.08 442.775Z" fill="#263238"/>
<path d="M353.59 425.786C353.468 426.058 352.134 425.663 350.488 425.786C348.842 425.908 347.576 426.44 347.426 426.195C347.277 425.949 348.488 424.9 350.42 424.832C352.352 424.764 353.726 425.554 353.59 425.786Z" fill="#263238"/>
<path d="M353.508 422.039C353.595 421.649 353.595 421.244 353.508 420.854C353.322 419.774 352.914 418.744 352.311 417.829C352.113 417.51 351.875 417.217 351.603 416.957C351.424 416.789 351.203 416.673 350.964 416.62C350.724 416.567 350.475 416.58 350.242 416.658C350.104 416.706 349.978 416.784 349.874 416.888C349.77 416.992 349.692 417.118 349.644 417.257C349.563 417.519 349.563 417.799 349.644 418.061C349.825 418.479 350.034 418.884 350.27 419.274C350.732 420.05 351.127 420.84 351.712 421.712C351.886 421.967 352.127 422.169 352.407 422.296C352.688 422.423 352.998 422.471 353.304 422.434C353.867 422.347 354.398 422.112 354.842 421.753C355.674 421.145 356.436 420.446 357.114 419.669C357.427 419.287 357.726 418.906 357.998 418.511C358.311 418.107 358.538 417.643 358.665 417.148C358.74 416.864 358.714 416.562 358.589 416.296C358.465 416.029 358.251 415.815 357.985 415.69C357.748 415.63 357.501 415.628 357.264 415.685C357.027 415.742 356.807 415.856 356.624 416.017C356.05 416.523 355.542 417.1 355.114 417.734C354.485 418.617 353.985 419.585 353.631 420.609C353.475 420.976 353.387 421.368 353.372 421.767C353.965 420.455 354.685 419.205 355.522 418.034C355.941 417.466 356.425 416.949 356.964 416.494C357.08 416.393 357.217 416.319 357.366 416.279C357.515 416.239 357.67 416.233 357.821 416.263C357.945 416.338 358.039 416.454 358.088 416.59C358.138 416.726 358.139 416.875 358.094 417.012C357.968 417.405 357.77 417.77 357.508 418.088C357.243 418.472 356.957 418.84 356.651 419.192C356 419.933 355.27 420.6 354.474 421.181C354.117 421.455 353.703 421.646 353.263 421.74C353.076 421.761 352.887 421.73 352.717 421.651C352.546 421.572 352.401 421.447 352.297 421.29C351.807 420.568 351.331 419.682 350.936 418.947C350.709 418.599 350.509 418.235 350.338 417.857C350.215 417.516 350.338 417.298 350.515 417.203C351.059 416.985 351.589 417.598 351.957 418.116C352.714 419.315 353.24 420.646 353.508 422.039Z" fill="#263238"/>
<path d="M335.356 279.436C335.356 279.436 351.685 278.141 353.413 295.785C355.141 313.428 357.005 395.813 357.005 395.813L319.028 398.987L313.15 314.777L252.559 289C252.559 289 324.539 277.174 335.356 279.436Z" fill="#263238"/>
<path d="M268.37 255.621C268.37 255.621 278.235 283.305 276.357 286.398C274.479 289.49 249.143 302.174 249.143 302.174L185.681 326.575C181.276 318.511 179.031 309.443 179.164 300.253C179.164 284.299 201.234 255.621 201.234 255.621H268.37Z" fill="#263238"/>
<path d="M249.566 287.597C249.566 287.597 249.661 287.597 249.865 287.76L250.763 288.169L254.274 289.736L267.472 295.499L313.014 315.117L312.81 314.831C313.382 323.155 314.007 332.134 314.647 341.425C316.198 363.156 317.613 383.183 318.729 399.028V399.314H319.001L346.718 396.862L354.338 396.153L356.325 395.935C356.554 395.927 356.782 395.895 357.005 395.84C356.774 395.819 356.542 395.819 356.311 395.84L354.324 395.963L346.691 396.521L319.001 398.715L319.3 398.974C318.226 383.129 316.851 363.088 315.354 341.357C314.701 332.066 314.075 323.087 313.49 314.777V314.559L313.3 314.477L267.649 295.09L254.382 289.518L250.817 288.046L249.892 287.692L249.566 287.597Z" fill="#455A64"/>
<path d="M199.085 290.362C199.696 290.271 200.295 290.106 200.867 289.872L205.643 288.332C210.861 286.55 216.212 285.184 221.645 284.245C227.058 283.357 232.585 283.431 237.973 284.463C240.191 284.978 242.38 285.61 244.531 286.357C244.012 286.025 243.46 285.746 242.885 285.526C241.332 284.869 239.725 284.349 238.082 283.973C232.63 282.772 227 282.629 221.495 283.55C216.027 284.468 210.656 285.896 205.453 287.815C203.452 288.523 201.847 289.177 200.731 289.572C200.158 289.782 199.607 290.047 199.085 290.362Z" fill="#455A64"/>
<path d="M208.065 275.771C209.909 275.656 211.759 275.656 213.603 275.771C215.317 275.88 217.345 276.152 219.617 276.411C221.889 276.67 224.352 276.983 226.924 277.474C231.334 278.175 235.561 279.745 239.36 282.092C240.881 283.144 242.323 284.305 243.674 285.567C243.432 285.12 243.119 284.715 242.749 284.368C241.817 283.349 240.777 282.435 239.646 281.643C235.847 279.132 231.556 277.465 227.06 276.752C224.461 276.248 221.957 275.962 219.685 275.73C217.413 275.498 215.372 275.294 213.63 275.239C212.267 275.172 210.9 275.232 209.548 275.417C209.038 275.453 208.537 275.573 208.065 275.771Z" fill="#455A64"/>
<path d="M269.935 146.492C269.935 146.492 280.725 181.138 280.48 191.056C280.235 200.974 276.126 229.204 276.602 234.653C277.079 240.103 275.133 255.525 268.438 255.525H201.275C201.275 255.525 186.104 251.316 185.45 242.201C184.797 233.086 205.861 144.571 205.861 144.571C205.861 144.571 209.834 128.303 215.385 127.118C220.937 125.933 227.142 127.118 230.856 138.603C234.571 150.088 235.809 166.301 243.742 174.244C251.675 182.187 262.955 191.097 262.955 191.097C262.955 191.097 272.058 183.467 272.479 173.14C272.901 162.813 269.023 146.097 269.023 146.097L269.935 146.492Z" fill="#19B690"/>
<path d="M199.234 152.568C201.002 149.909 203.6 147.911 206.622 146.887C209.621 145.876 212.743 145.276 215.902 145.102C218.715 144.717 221.573 144.818 224.352 145.402C227.073 146.11 228.216 149.489 229.359 152.105C231.192 163.743 230.575 175.637 227.55 187.023C227.286 188.756 226.614 190.401 225.589 191.823C224.565 193.244 223.217 194.401 221.658 195.198C219.366 196.873 216.698 197.958 213.888 198.359C208.854 198.74 204.214 195.089 201.86 190.62C199.506 186.151 198.975 180.974 198.499 175.947C198.182 172.795 197.878 169.648 197.588 166.505C197.125 161.737 196.744 156.614 199.234 152.568Z" fill="#B97964"/>
<path d="M259.989 256.37C260.968 256.133 261.878 255.666 262.642 255.008C264.557 253.481 266.093 251.532 267.132 249.313C268.162 247.141 268.929 244.854 269.418 242.501C269.703 241.54 269.858 240.546 269.881 239.544C269.467 240.453 269.153 241.403 268.942 242.378C268.318 244.669 267.498 246.903 266.493 249.054C265.491 251.187 264.076 253.1 262.329 254.681C260.968 255.771 259.934 256.261 259.989 256.37Z" fill="#263238"/>
<path d="M224.448 213.427C224.784 213.79 225.164 214.11 225.578 214.381C226.671 215.161 227.832 215.84 229.047 216.411C230.871 217.252 232.804 217.83 234.789 218.127C237.228 218.48 239.711 218.374 242.11 217.814C246.453 216.706 250.401 214.409 253.512 211.179C254.456 210.227 255.333 209.212 256.139 208.141C256.447 207.753 256.712 207.333 256.928 206.887C256.819 206.806 255.567 208.522 253.172 210.825C250.039 213.862 246.171 216.032 241.947 217.119C237.713 218.081 233.285 217.681 229.292 215.975C226.176 214.612 224.53 213.25 224.448 213.427Z" fill="#263238"/>
<path d="M260.818 255.117C260.968 255.239 261.893 254.177 262.179 252.528C262.332 252.045 262.384 251.536 262.332 251.032C262.281 250.529 262.127 250.041 261.88 249.599C261.676 249.599 261.784 250.893 261.485 252.324C261.186 253.754 260.587 255.008 260.818 255.117Z" fill="#263238"/>
<path d="M232.993 152.405C233.604 152.535 234.172 152.821 234.64 153.236C235.164 153.752 235.528 154.41 235.688 155.129C235.816 155.599 235.828 156.093 235.721 156.568C235.614 157.043 235.393 157.485 235.075 157.854L234.83 158.099L235.17 158.208C236.005 158.481 236.773 158.925 237.426 159.512C238.08 160.098 238.604 160.814 238.967 161.614C239.451 162.571 239.692 163.632 239.668 164.704C239.644 165.776 239.357 166.825 238.831 167.759L238.423 168.426L239.184 168.222C240.061 167.998 240.984 168.045 241.833 168.355C242.683 168.665 243.419 169.225 243.945 169.961C244.472 170.697 244.764 171.575 244.784 172.481C244.803 173.386 244.55 174.276 244.056 175.034L244.682 175.348C244.96 174.8 245.431 174.375 246.004 174.154C246.576 173.932 247.21 173.931 247.784 174.149C248.425 174.332 249.007 174.68 249.473 175.158C249.938 175.636 250.271 176.227 250.437 176.873C250.822 178.201 251.015 179.578 251.009 180.961L251.063 182.868L251.648 180.988C251.851 180.505 252.213 180.107 252.673 179.859C253.134 179.611 253.665 179.529 254.179 179.626C254.683 179.737 255.153 179.969 255.548 180.301C255.944 180.633 256.254 181.055 256.452 181.533C257.35 183.454 256.805 185.62 256.452 187.378H256.996C257.001 186.925 257.108 186.48 257.308 186.074C257.508 185.669 257.797 185.313 258.152 185.034C258.783 184.497 259.583 184.198 260.411 184.19C261.076 184.233 261.707 184.5 262.201 184.948C262.695 185.395 263.023 185.997 263.132 186.656C263.338 187.512 263.222 188.414 262.806 189.19C262.507 189.707 262.234 189.912 262.262 189.953C262.542 189.787 262.777 189.553 262.942 189.271C263.358 188.578 263.546 187.771 263.48 186.964C263.414 186.158 263.098 185.392 262.575 184.775C262.302 184.462 261.968 184.209 261.594 184.031C261.219 183.853 260.812 183.754 260.397 183.74C259.452 183.723 258.532 184.041 257.799 184.639C257.389 184.968 257.055 185.382 256.82 185.852C256.585 186.322 256.454 186.838 256.438 187.364V189.612L256.969 187.432C257.237 186.463 257.428 185.475 257.54 184.476C257.684 183.358 257.519 182.223 257.064 181.192C256.832 180.615 256.463 180.104 255.988 179.703C255.514 179.302 254.949 179.022 254.342 178.89C253.672 178.758 252.976 178.863 252.375 179.189C251.774 179.515 251.306 180.04 251.05 180.675L251.716 180.77C251.72 179.336 251.519 177.909 251.118 176.533C250.884 175.804 250.509 175.128 250.015 174.544C249.472 173.941 248.761 173.514 247.974 173.318C247.224 173.097 246.426 173.097 245.675 173.318C245.298 173.441 244.954 173.649 244.669 173.925C244.384 174.201 244.165 174.539 244.028 174.912L243.049 177.636L244.654 175.17C245.232 174.299 245.53 173.272 245.51 172.226C245.491 171.18 245.153 170.165 244.543 169.316C243.933 168.467 243.079 167.824 242.095 167.473C241.111 167.122 240.044 167.079 239.035 167.35L239.389 167.827C239.957 166.804 240.263 165.656 240.277 164.486C240.291 163.316 240.014 162.16 239.47 161.124C239.07 160.263 238.492 159.498 237.774 158.878C237.056 158.258 236.215 157.797 235.307 157.527L235.402 157.881C235.753 157.463 235.994 156.963 236.103 156.428C236.212 155.893 236.186 155.339 236.028 154.816C235.829 154.048 235.402 153.359 234.803 152.84C234.43 152.523 233.987 152.299 233.51 152.187C233.329 152.235 233.155 152.308 232.993 152.405Z" fill="#19B690"/>
<path d="M269.608 146.737C269.608 146.737 269.527 146.737 269.418 146.996C269.275 147.28 269.191 147.591 269.173 147.908C269.146 148.427 269.254 148.943 269.486 149.407C269.807 150.05 270.37 150.54 271.051 150.77V150.456C270.45 150.954 269.966 151.578 269.635 152.285C269.303 152.992 269.131 153.763 269.132 154.543C269.091 155.555 269.322 156.559 269.801 157.45C270.279 158.342 270.988 159.088 271.853 159.612V159.108C271.027 159.779 270.41 160.674 270.077 161.686C269.745 162.698 269.709 163.784 269.976 164.816C270.618 167.01 271.754 169.028 273.296 170.715L273.854 170.279C273.587 169.988 273.258 169.76 272.892 169.615C272.525 169.47 272.13 169.41 271.736 169.44C271.343 169.47 270.961 169.59 270.621 169.789C270.281 169.989 269.99 170.264 269.771 170.593C269.419 171.184 269.222 171.855 269.198 172.544C269.175 173.232 269.325 173.915 269.635 174.53C270.217 175.642 271.012 176.628 271.976 177.432L272.33 176.846C271.839 176.653 271.315 176.562 270.789 176.58C270.262 176.597 269.745 176.722 269.268 176.946C268.792 177.171 268.366 177.491 268.018 177.887C267.669 178.282 267.405 178.744 267.242 179.246C267.078 179.747 267.019 180.277 267.067 180.802C267.115 181.327 267.27 181.837 267.523 182.3C267.775 182.763 268.119 183.169 268.534 183.494C268.948 183.819 269.425 184.056 269.935 184.19L270.71 184.407L270.248 183.74C269.923 183.326 269.491 183.01 269 182.825C268.508 182.64 267.975 182.593 267.458 182.691C266.559 182.807 265.72 183.208 265.064 183.835C264.576 184.359 264.197 184.974 263.947 185.645C263.697 186.316 263.582 187.03 263.608 187.745C263.594 188.631 263.667 189.517 263.825 190.388C263.857 190.695 263.925 190.997 264.029 191.288C264.138 191.288 263.853 190.007 263.934 187.759C263.941 186.424 264.457 185.142 265.376 184.176C265.95 183.693 266.648 183.381 267.39 183.277C267.809 183.208 268.24 183.254 268.635 183.41C269.03 183.565 269.376 183.826 269.635 184.162L269.948 183.713C269.18 183.441 268.534 182.902 268.127 182.195C267.721 181.488 267.58 180.659 267.73 179.857C267.852 179.426 268.058 179.024 268.338 178.675C268.618 178.326 268.964 178.037 269.358 177.824C269.751 177.612 270.184 177.481 270.629 177.44C271.074 177.398 271.523 177.446 271.949 177.582L273.527 178.14L272.302 176.996C271.41 176.239 270.674 175.313 270.139 174.271C269.876 173.771 269.745 173.211 269.76 172.646C269.774 172.081 269.933 171.529 270.22 171.042C270.378 170.808 270.584 170.611 270.826 170.465C271.068 170.32 271.339 170.229 271.62 170.201C271.9 170.172 272.184 170.206 272.45 170.3C272.716 170.393 272.958 170.544 273.16 170.743L273.717 170.32C272.236 168.72 271.134 166.806 270.493 164.721C270.241 163.812 270.255 162.851 270.532 161.95C270.81 161.05 271.339 160.248 272.057 159.639L272.452 159.366L272.03 159.121C271.251 158.657 270.61 157.993 270.172 157.198C269.735 156.403 269.516 155.505 269.54 154.598C269.522 153.879 269.659 153.164 269.943 152.503C270.228 151.842 270.652 151.25 271.187 150.77L271.472 150.579L271.132 150.483C270.547 150.286 270.06 149.872 269.771 149.325C269.537 148.909 269.41 148.441 269.404 147.963C269.395 147.545 269.464 147.129 269.608 146.737Z" fill="#19B690"/>
<g opacity="0.3">
<path opacity="0.3" d="M255.797 208.44C255.325 213.583 252.846 218.332 248.899 221.656C246.919 223.274 244.586 224.401 242.089 224.945C239.592 225.49 237.002 225.436 234.53 224.789C232.072 224.082 229.855 222.712 228.122 220.828C226.39 218.944 225.208 216.619 224.706 214.108C228.088 215.848 231.697 217.105 235.428 217.841C239.453 218.385 243.548 217.75 247.221 216.015C250.893 214.279 253.985 211.516 256.124 208.059C255.947 208.263 255.757 208.454 255.58 208.645" fill="black"/>
</g>
<g opacity="0.3">
<path opacity="0.3" d="M269.908 240.498C270.386 243.052 270.196 245.686 269.356 248.145C268.517 250.604 267.057 252.804 265.118 254.531C264.749 254.949 264.278 255.263 263.75 255.442C263.223 255.621 262.658 255.659 262.111 255.553C265.887 251.131 268.535 245.857 269.826 240.185" fill="black"/>
</g>
<path d="M217.264 141.137C217.264 141.137 232.462 143.522 228.789 165.157C225.115 186.792 198.854 223.427 198.854 223.427L256.261 258.482L249.566 274.054L175.015 243.332C175.015 243.332 167.667 235.757 170.252 227.324C172.837 218.89 192.023 165.77 192.023 165.77C192.023 165.77 199.112 137.459 217.264 141.137Z" fill="#B97964"/>
<path d="M306.347 271.833L285.8 258.836L258.587 260.117L256.301 258.536L249.606 274.109C249.606 274.109 256.94 277.624 260.777 277.937L284.549 276.125L309.803 274.231L306.347 271.833Z" fill="#B97964"/>
<path d="M198.921 223.849C199.425 223.304 199.881 222.716 200.282 222.092C201.098 220.934 202.255 219.231 203.656 217.119C206.446 212.868 210.161 206.915 213.984 200.171C217.808 193.427 220.992 187.173 223.196 182.595C224.298 180.307 225.155 178.44 225.727 177.146C226.073 176.493 226.355 175.809 226.57 175.102C226.165 175.718 225.81 176.365 225.509 177.037L222.788 182.391C220.474 186.901 217.209 193.1 213.399 199.83C209.589 206.56 205.956 212.555 203.276 216.86L200.092 221.956C199.647 222.552 199.256 223.185 198.921 223.849Z" fill="#7C3B29"/>
<path d="M184.798 228.781C186.97 227.412 189.244 226.214 191.602 225.198C194.068 224.41 196.593 223.818 199.153 223.427C196.507 223.238 193.851 223.618 191.363 224.541C188.875 225.465 186.614 226.91 184.73 228.781H184.798Z" fill="#7C3B29"/>
<path d="M389.104 206.887C388.586 208.468 367.959 277.883 367.959 277.883L249.579 286.398L245.225 279.041L311.327 274.054L329.873 202.827C330.249 201.397 331.143 200.158 332.38 199.35C333.616 198.542 335.109 198.223 336.568 198.454L389.104 206.887Z" fill="#455A64"/>
<path d="M351.753 236.016C350.759 238.087 351.168 240.348 352.692 241.084C354.215 241.82 356.243 240.743 357.236 238.686C358.229 236.629 357.821 234.354 356.311 233.618C354.801 232.882 352.746 233.958 351.753 236.016Z" fill="#FAFAFA"/>
<path d="M247.497 282.91H247.851H248.844L252.722 282.692L267.064 281.738L315.096 278.278H315.341L315.409 278.046C316.048 275.812 316.769 273.441 317.422 271.043L331.941 219.871L336.254 204.367C336.744 202.568 337.125 201.152 337.397 200.13C337.506 199.68 337.601 199.326 337.669 199.026C337.716 198.904 337.744 198.775 337.751 198.645C337.683 198.759 337.633 198.883 337.601 199.013C337.52 199.299 337.397 199.653 337.261 200.103C336.948 201.111 336.526 202.5 335.996 204.285L331.451 219.735L316.728 270.784C316.048 273.182 315.368 275.553 314.728 277.787L315.041 277.528L267.023 281.22L252.709 282.392L248.844 282.733L247.837 282.842C247.721 282.846 247.606 282.869 247.497 282.91Z" fill="#263238"/>
<path d="M230.829 70.7961L230.938 65.4555L263.159 60.6598C273.065 60.0194 283.31 70.3329 283.569 80.2649C283.814 91.3004 283.678 104.788 282.045 112.963C278.752 129.312 266.03 130.96 266.03 130.96L265.295 147.309L228.815 146.287L230.829 70.7961Z" fill="#B97964"/>
<path d="M276.712 91.8317C276.698 92.3834 276.467 92.9072 276.07 93.2897C275.672 93.6723 275.14 93.8826 274.589 93.8753C274.32 93.8862 274.051 93.8431 273.798 93.7486C273.545 93.654 273.314 93.5099 273.117 93.3246C272.921 93.1394 272.763 92.9167 272.654 92.6697C272.544 92.4227 272.485 92.1563 272.48 91.8862C272.498 91.3344 272.729 90.8111 273.125 90.4271C273.522 90.0432 274.051 89.8286 274.603 89.8289C274.874 89.818 275.144 89.8615 275.398 89.9569C275.651 90.0523 275.883 90.1976 276.08 90.3843C276.276 90.571 276.434 90.7953 276.542 91.0439C276.651 91.2925 276.708 91.5604 276.712 91.8317Z" fill="#263238"/>
<path d="M279.773 87.1586C279.501 87.4175 277.936 86.1641 275.691 86.0823C273.446 86.0006 271.704 87.0632 271.473 86.7771C271.242 86.491 271.636 86.1641 272.385 85.66C273.399 85.0179 274.587 84.704 275.786 84.7608C276.969 84.8083 278.107 85.2278 279.038 85.9597C279.637 86.5455 279.896 87.036 279.773 87.1586Z" fill="#263238"/>
<path d="M255.443 91.3685C255.422 91.9192 255.19 92.4405 254.794 92.8237C254.399 93.207 253.871 93.4227 253.321 93.4258C253.05 93.4348 252.781 93.39 252.528 93.294C252.275 93.1979 252.044 93.0525 251.848 92.8661C251.652 92.6798 251.494 92.4562 251.385 92.2085C251.276 91.9608 251.217 91.6938 251.212 91.423C251.226 90.8701 251.456 90.3448 251.853 89.9601C252.25 89.5754 252.782 89.362 253.334 89.3658C253.605 89.3567 253.874 89.4015 254.127 89.4976C254.38 89.5936 254.611 89.7391 254.807 89.9254C255.003 90.1118 255.161 90.3353 255.27 90.583C255.379 90.8308 255.438 91.0978 255.443 91.3685Z" fill="#263238"/>
<path d="M257.376 86.6682C257.104 86.9407 255.553 85.6872 253.294 85.6055C251.036 85.5237 249.308 86.5864 249.063 86.3003C248.818 86.0142 249.24 85.6736 249.988 85.1831C250.995 84.5346 252.18 84.22 253.376 84.2839C254.562 84.3181 255.703 84.7391 256.628 85.4829C257.295 86.0415 257.513 86.5456 257.376 86.6682Z" fill="#263238"/>
<path d="M264.956 103.903C266.173 103.582 267.425 103.408 268.684 103.385C269.269 103.385 269.813 103.262 269.936 102.867C270.005 102.266 269.891 101.658 269.609 101.123C269.119 99.7609 268.616 98.1941 268.072 96.6274C265.949 90.224 264.425 84.9652 264.684 84.8834C264.942 84.8017 266.874 89.9243 269.01 96.3276C269.528 97.908 270.017 99.4067 270.48 100.851C270.812 101.567 270.884 102.376 270.684 103.14C270.593 103.344 270.456 103.524 270.283 103.665C270.111 103.807 269.908 103.907 269.691 103.957C269.365 104.033 269.031 104.065 268.698 104.053C267.449 104.165 266.191 104.115 264.956 103.903Z" fill="#263238"/>
<path d="M266.03 130.987C258.081 130.798 250.333 128.443 243.62 124.175C243.62 124.175 248.722 135.96 265.853 135.075L266.03 130.987Z" fill="#7C3B29"/>
<path d="M263.771 109.352C263.362 108.786 262.814 108.335 262.18 108.042C261.546 107.748 260.848 107.623 260.152 107.677C259.642 107.711 259.145 107.85 258.691 108.084C258.237 108.319 257.836 108.643 257.512 109.039C257.191 109.409 256.991 109.869 256.939 110.356C256.888 110.844 256.989 111.335 257.227 111.764C257.573 112.191 258.041 112.502 258.568 112.658C259.095 112.814 259.657 112.806 260.179 112.636C261.269 112.295 262.281 111.745 263.159 111.014C263.421 110.836 263.651 110.615 263.839 110.36C263.922 110.235 263.967 110.088 263.967 109.938C263.967 109.788 263.922 109.641 263.839 109.516" fill="#7C3B29"/>
<path d="M258.193 105.211C258.56 105.211 258.465 107.676 260.519 109.516C262.574 111.355 265.2 111.192 265.2 111.546C265.2 111.9 264.602 111.995 263.486 111.982C262.038 111.939 260.652 111.389 259.567 110.429C258.527 109.508 257.887 108.218 257.785 106.832C257.73 105.796 258.029 105.183 258.193 105.211Z" fill="#263238"/>
<path d="M258.328 77.7716C258.084 78.371 255.825 77.9896 253.144 78.2076C250.464 78.4255 248.273 79.0659 247.933 78.4937C247.783 78.2212 248.191 77.649 249.076 77.1312C250.266 76.4396 251.598 76.0297 252.971 75.9329C254.343 75.836 255.72 76.0549 256.995 76.5727C257.961 77.0086 258.437 77.4719 258.328 77.7716Z" fill="#263238"/>
<path d="M279.201 80.5237C278.779 81.0278 277.228 80.4283 275.35 80.3193C273.473 80.2104 271.853 80.5373 271.5 79.9787C271.35 79.7063 271.622 79.2022 272.343 78.739C273.299 78.172 274.407 77.9195 275.514 78.0169C276.619 78.0848 277.678 78.4888 278.548 79.1749C279.188 79.7335 279.392 80.2785 279.201 80.5237Z" fill="#263238"/>
<path d="M287.801 60.2782C285.079 66.0549 279.201 74.6517 272.833 75.2648C269.66 75.5376 266.469 74.9921 263.566 73.6804C260.662 72.3687 258.142 70.3345 256.247 67.7715C255.185 72.4582 249.906 74.8424 245.157 75.51C241.803 76.1212 238.345 75.8056 235.156 74.5972C233.571 73.9776 232.17 72.9628 231.087 71.649C230.003 70.3352 229.273 68.766 228.965 67.0903C228.53 63.7251 233.496 55.5915 236.843 55.033" fill="#263238"/>
<path d="M236.326 144.666C236.115 147.338 235.088 149.88 233.384 151.947C231.68 154.014 229.382 155.506 226.801 156.219C226.879 158.405 226.178 160.548 224.824 162.264C223.47 163.981 221.55 165.159 219.409 165.59C217.267 166.02 215.042 165.675 213.131 164.615C211.22 163.555 209.747 161.849 208.976 159.802C208.691 158.697 208.232 157.644 207.616 156.682C206.01 154.625 202.853 155.034 200.377 154.23C195.914 152.786 193.982 147.309 194.485 142.636C194.637 141.736 194.678 140.821 194.608 139.911C194.335 138.045 192.866 136.614 191.777 135.061C187.287 128.685 189.165 119.434 194.145 113.426C195.805 111.423 197.9 109.339 197.737 106.736C197.501 105.311 197.042 103.931 196.376 102.649C195.558 100.432 195.422 98.0196 195.987 95.7244C196.552 93.4291 197.792 91.3564 199.547 89.7744C200.152 89.3762 200.625 88.8073 200.908 88.1395C200.996 87.6897 200.996 87.227 200.908 86.7771C200.634 83.3035 201.682 79.8546 203.842 77.1228C206.003 74.3911 209.115 72.5787 212.555 72.0495C212.972 72.035 213.383 71.9426 213.766 71.777C214.827 71.2184 214.868 69.7606 215.004 68.5753C215.372 65.4281 217.726 59.5698 220.188 57.5125C226.856 51.8177 233.305 56.4499 235.605 58.6161C235.605 58.6161 240.163 81.2321 239.279 85.4556C238.394 89.6791 235.306 100.17 236.557 104.938C237.809 109.707 239.782 119.475 237.918 123.78C236.054 128.085 236.326 144.666 236.326 144.666Z" fill="#263238"/>
<path d="M211.426 71.8996C211.426 71.8996 211.712 72.1993 212.297 72.6217C213.14 73.2068 214.022 73.7348 214.936 74.2021C221.024 77.3613 227.957 78.5016 234.734 77.4583C235.757 77.3137 236.767 77.0905 237.755 76.7907C238.125 76.7133 238.482 76.5849 238.816 76.4092C238.816 76.2866 237.224 76.6817 234.734 76.9678C231.413 77.3254 228.059 77.2383 224.761 76.7089C221.466 76.1635 218.261 75.1687 215.236 73.7525C212.841 72.6762 211.494 71.8042 211.426 71.8996Z" fill="#455A64"/>
<path d="M209.249 73.5073C209.36 73.9785 209.524 74.4356 209.739 74.8697C209.941 75.3911 210.182 75.8966 210.46 76.3819C210.789 77.0436 211.157 77.685 211.562 78.3029C212.599 79.9371 213.793 81.4657 215.127 82.867C216.775 84.5721 218.6 86.0975 220.57 87.4175C222.557 88.7055 224.673 89.7831 226.883 90.6328C228.694 91.3068 230.568 91.7996 232.476 92.1042C233.204 92.2396 233.94 92.3306 234.68 92.3766C235.237 92.4146 235.796 92.4146 236.354 92.3766C236.831 92.4192 237.313 92.3916 237.782 92.2949C237.782 92.1587 235.741 92.1859 232.571 91.5592C230.714 91.1873 228.893 90.654 227.128 89.9652C222.8 88.2623 218.874 85.673 215.603 82.3629C214.275 81.0092 213.069 79.5412 211.997 77.976C210.147 75.3329 209.385 73.4528 209.249 73.5073Z" fill="#455A64"/>
<path d="M221.06 157.527C221.06 157.527 220.774 157.527 220.271 157.445C219.535 157.274 218.873 156.873 218.379 156.301C217.577 155.413 217.135 154.256 217.141 153.058C217.184 151.461 217.473 149.881 217.998 148.372C218.727 146.468 218.87 144.39 218.406 142.404C217.699 140.252 215.984 138.603 214.447 136.832C213.639 135.971 212.973 134.987 212.474 133.917C212.249 133.371 212.143 132.785 212.162 132.195C212.181 131.606 212.324 131.027 212.583 130.497C213.203 129.395 214.081 128.46 215.141 127.772C216.202 126.996 217.372 126.314 218.502 125.483C219.704 124.695 220.649 123.573 221.223 122.254C221.442 121.581 221.517 120.87 221.444 120.166C221.372 119.462 221.153 118.781 220.801 118.167C219.522 115.81 217.522 114.08 217.059 111.859C216.888 110.788 216.949 109.692 217.238 108.646C217.527 107.6 218.037 106.628 218.733 105.796C219.898 104.238 221.231 102.813 222.706 101.546C223.918 100.454 225.029 99.2545 226.026 97.9626C226.785 96.9751 227.37 95.8645 227.754 94.6791C227.976 93.9236 228.068 93.1358 228.026 92.3494C228.009 92.0809 227.958 91.8156 227.877 91.5592C227.919 92.5861 227.79 93.6129 227.496 94.5974C226.363 97.186 224.599 99.4486 222.366 101.178C220.849 102.441 219.48 103.871 218.284 105.442C217.605 106.345 217.068 107.347 216.692 108.412C216.268 109.558 216.183 110.802 216.447 111.995C216.978 114.529 219.06 116.301 220.203 118.494C220.515 119.021 220.71 119.608 220.776 120.217C220.841 120.826 220.776 121.442 220.584 122.023C220.06 123.204 219.204 124.208 218.121 124.911C217.046 125.715 215.862 126.396 214.773 127.2C213.639 127.96 212.705 128.984 212.052 130.184C211.753 130.798 211.588 131.47 211.569 132.154C211.55 132.838 211.678 133.518 211.943 134.148C212.467 135.295 213.18 136.345 214.052 137.255C215.631 139.039 217.291 140.633 217.944 142.568C218.399 144.431 218.3 146.387 217.658 148.195C217.152 149.761 216.894 151.398 216.896 153.045C216.927 154.32 217.438 155.536 218.325 156.451C218.87 157.039 219.6 157.424 220.393 157.541C220.614 157.576 220.84 157.571 221.06 157.527Z" fill="#455A64"/>
<path d="M105.893 569.95C105.893 570.203 169.673 570.419 248.326 570.419C326.98 570.419 390.773 570.203 390.773 569.95C390.773 569.697 327.007 569.481 248.326 569.481C169.646 569.481 105.893 569.679 105.893 569.95Z" fill="#C1C1C1"/>
</g>
<defs>
<clipPath id="clip0_34_5861">
<rect width="447" height="592" fill="white" transform="matrix(-1 0 0 1 447 0)"/>
</clipPath>
</defs>
</svg>
