<svg width="606" height="740" viewBox="0 0 606 740" fill="none" xmlns="http://www.w3.org/2000/svg">
<path d="M250.995 651.465C121.211 651.465 15.9999 645.317 15.9999 637.732C15.9999 630.148 121.211 624 250.995 624C380.779 624 485.989 630.148 485.989 637.732C485.989 645.317 380.779 651.465 250.995 651.465Z" fill="#EAF2FF"/>
<path d="M269.27 98.8348C268.707 97.2724 267.691 95.9137 266.351 94.9326C266.821 94.0442 267.1 93.0678 267.172 92.0655C267.244 91.0631 267.106 90.0568 266.768 89.1105C266.442 88.1988 265.939 87.3607 265.287 86.6445C264.636 85.9282 263.85 85.3479 262.974 84.937C263.781 83.9744 264.285 82.7942 264.423 81.5451C264.561 80.2961 264.327 79.0341 263.749 77.9183C263.172 76.8024 262.277 75.8827 261.178 75.2749C260.079 74.6672 258.825 74.3986 257.574 74.5031C257.628 73.8007 257.558 73.0942 257.366 72.4164C256.902 70.9188 255.875 69.6598 254.503 68.9047C253.13 68.1495 251.518 67.9571 250.006 68.368C250.508 67.1405 250.574 65.778 250.194 64.5075C249.731 62.9879 248.686 61.7135 247.288 60.9627C245.889 60.2119 244.251 60.0459 242.73 60.5009H242.501C242.498 59.9436 242.421 59.3892 242.271 58.8524C241.808 57.3322 240.765 56.0563 239.367 55.3021C237.969 54.5479 236.331 54.3764 234.808 54.8249C234.373 54.9697 233.953 55.1585 233.557 55.3883C233.665 54.2655 233.404 53.1379 232.813 52.1773C232.222 51.2166 231.334 50.4755 230.284 50.0668C229.233 49.658 228.078 49.604 226.994 49.9129C225.91 50.2219 224.957 50.8769 224.279 51.7782C223.909 50.8522 223.28 50.0529 222.466 49.4764C221.653 48.9 220.691 48.5711 219.695 48.5292C218.7 48.4873 217.713 48.7343 216.855 49.2403C215.996 49.7464 215.302 50.49 214.856 51.3818C214.441 51.0611 213.954 50.8462 213.438 50.7557C212.978 50.6651 212.504 50.6668 212.045 50.7607C211.585 50.8547 211.149 51.039 210.761 51.303C210.373 51.567 210.041 51.9054 209.785 52.2986C209.529 52.6918 209.353 53.132 209.268 53.5937C209.226 53.8774 209.226 54.1656 209.268 54.4493C208.527 53.7377 207.604 53.246 206.6 53.0289C205.596 52.8117 204.552 52.8778 203.584 53.2196C202.616 53.5614 201.761 54.1656 201.116 54.9649C200.47 55.7641 200.059 56.7271 199.928 57.7464L199.511 57.6421C197.829 57.4344 196.133 57.8984 194.791 58.9335C193.449 59.9686 192.568 61.4914 192.339 63.172C192.255 63.7602 192.255 64.3575 192.339 64.9457C192.249 64.9339 192.158 64.9339 192.068 64.9457C190.385 64.7325 188.687 65.1944 187.343 66.2305C185.999 67.2665 185.12 68.7927 184.896 70.4757C184.719 71.8762 185.021 73.2955 185.751 74.5031C184.086 74.3247 182.417 74.8022 181.098 75.8345C179.778 76.8668 178.912 78.3727 178.683 80.0331C178.494 81.5396 178.849 83.0642 179.684 84.3318C178.356 84.4875 177.11 85.0572 176.122 85.9603C175.135 86.8635 174.456 88.0543 174.182 89.3646C173.908 90.6749 174.052 92.0383 174.594 93.2621C175.136 94.486 176.049 95.5083 177.203 96.1847C176.319 96.7615 175.596 97.5527 175.1 98.4846C174.604 99.4165 174.351 100.459 174.366 101.515C174.38 102.571 174.661 103.606 175.183 104.524C175.705 105.441 176.45 106.212 177.349 106.765C176.141 107.777 175.36 109.207 175.16 110.771C174.947 112.452 175.405 114.15 176.436 115.494C177.467 116.839 178.986 117.721 180.664 117.95C182.118 118.124 183.587 117.8 184.834 117.031C185.078 118.182 185.634 119.242 186.442 120.096C187.25 120.95 188.277 121.563 189.411 121.87C190.546 122.176 191.742 122.163 192.87 121.833C193.997 121.502 195.011 120.866 195.8 119.995C196.138 121.184 196.814 122.248 197.745 123.06C198.677 123.872 199.823 124.396 201.046 124.568C202.269 124.741 203.516 124.554 204.635 124.031C205.754 123.508 206.697 122.671 207.35 121.622C208.38 122.915 209.879 123.748 211.52 123.939C212.434 124.063 213.364 123.983 214.243 123.705C215.123 123.427 215.93 122.958 216.607 122.332C217.116 123.872 218.191 125.161 219.615 125.937C221.039 126.712 222.704 126.916 224.273 126.507C225.841 126.098 227.196 125.107 228.06 123.734C228.925 122.362 229.235 120.711 228.928 119.118C229.678 119.643 230.532 120.001 231.432 120.165C232.332 120.33 233.257 120.298 234.143 120.072C235.03 119.847 235.858 119.432 236.569 118.857C237.281 118.281 237.861 117.559 238.268 116.739C239.119 117.618 240.204 118.234 241.395 118.511C242.585 118.789 243.831 118.717 244.982 118.304C246.143 117.869 247.153 117.108 247.893 116.113C248.633 115.117 249.07 113.929 249.151 112.691C249.959 113.303 250.903 113.709 251.903 113.875C252.902 114.041 253.927 113.962 254.889 113.643C255.851 113.325 256.721 112.778 257.425 112.049C258.129 111.319 258.645 110.43 258.929 109.457C260.41 109.913 261.989 109.947 263.489 109.556C264.988 109.164 266.349 108.362 267.419 107.24C268.488 106.117 269.224 104.719 269.544 103.201C269.863 101.683 269.754 100.106 269.228 98.647L269.27 98.8348Z" fill="#263238"/>
<path d="M252.821 165.904C252.821 168.7 252.821 171.142 253.05 173.729C253.279 176.317 253.384 178.8 253.613 181.346C254.072 186.396 254.822 191.425 255.698 196.433C257.365 206.551 259.99 216.487 263.537 226.107L264.204 227.923C264.454 228.569 264.558 228.945 265.121 230.197C266.16 232.474 267.76 234.449 269.771 235.936C271.625 237.304 273.762 238.238 276.025 238.669C277.814 239.04 279.643 239.173 281.467 239.066C287.151 238.57 292.705 237.08 297.874 234.663C307.157 230.422 315.922 225.129 323.998 218.887L319.453 211.708C315.283 213.795 310.8 215.778 306.443 217.593C302.159 219.44 297.774 221.043 293.309 222.393C289.435 223.723 285.374 224.427 281.279 224.479C279.674 224.479 278.777 223.853 279.048 223.874C279.319 223.895 279.257 224.041 279.257 223.874L278.402 221.036C275.776 212.085 273.797 202.956 272.481 193.72C271.814 189.067 271.334 184.393 270.896 179.718C270.459 175.044 270.188 170.203 270.042 165.862L252.821 165.904Z" fill="#985952"/>
<path d="M265.914 146.267C272.669 148.521 275.441 177.255 275.441 177.255L255.51 188.795C255.51 188.795 239.394 158.85 245.232 151.651C251.069 144.451 256.052 142.97 265.914 146.267Z" fill="#1BC89E"/>
<path opacity="0.7" d="M265.914 146.267C272.669 148.521 275.441 177.255 275.441 177.255L255.51 188.795C255.51 188.795 239.394 158.85 245.232 151.651C251.069 144.451 256.052 142.97 265.914 146.267Z" fill="black"/>
<path opacity="0.2" d="M264.829 152.569L268.04 181.554L256.844 188.023L264.829 152.569Z" fill="black"/>
<path d="M316.45 212.647L327.875 197.372L332.482 213.795C332.482 213.795 324.789 221.349 318.139 219.262L316.45 212.647Z" fill="#985952"/>
<path d="M339.154 192.155L345.054 205.197L332.441 213.795L327.833 197.372L339.154 192.155Z" fill="#985952"/>
<path d="M203.243 621.257H220.005L223.904 582.401H207.142L203.243 621.257Z" fill="#985952"/>
<path d="M69.1248 550.975L83.1975 560.094L108.82 530.441L94.7684 521.301L69.1248 550.975Z" fill="#985952"/>
<path d="M86.4914 558.362L72.3769 545.841C72.1361 545.626 71.8243 545.507 71.5012 545.507C71.1781 545.507 70.8664 545.626 70.6256 545.841L59.1588 555.607C58.8749 555.858 58.6475 556.166 58.4917 556.512C58.336 556.857 58.2554 557.232 58.2554 557.611C58.2554 557.99 58.336 558.364 58.4917 558.71C58.6475 559.055 58.8749 559.363 59.1588 559.614C64.1417 563.892 66.7686 565.686 72.9815 571.175C76.7967 574.555 82.0298 579.877 87.2836 584.551C92.5375 589.225 97.4577 584.238 95.623 581.838C87.6589 571.008 88.6804 566.709 87.8256 560.97C87.6981 559.972 87.2262 559.049 86.4914 558.362Z" fill="#263238"/>
<path d="M221.965 619.317H203.201C202.878 619.313 202.564 619.428 202.318 619.639C202.073 619.85 201.912 620.143 201.867 620.464L199.782 635.364C199.741 635.741 199.78 636.123 199.897 636.484C200.013 636.845 200.205 637.177 200.459 637.459C200.713 637.741 201.023 637.966 201.37 638.119C201.717 638.272 202.092 638.35 202.472 638.348C209.039 638.244 212.208 637.847 220.485 637.847C225.572 637.847 240.207 638.39 247.233 638.39C254.259 638.39 254.655 631.42 251.716 630.794C238.581 627.956 229.324 624.074 224.904 620.36C224.082 619.669 223.038 619.299 221.965 619.317Z" fill="#263238"/>
<g opacity="0.2">
<path opacity="0.2" d="M223.904 582.423L221.902 602.435H205.119L207.142 582.423H223.904Z" fill="black"/>
<path opacity="0.2" d="M94.7471 521.322L108.82 530.441L95.6019 545.737L81.5291 536.597L94.7471 521.322Z" fill="black"/>
</g>
<path d="M265.914 146.267C265.914 146.267 273.669 149.585 250.59 246.661L182.707 241.737C185.855 214.15 187.127 197.101 178.037 139.485C187.712 138.207 197.467 137.642 207.225 137.795C217.543 137.799 227.848 138.545 238.06 140.028C251.132 142.094 265.914 146.267 265.914 146.267Z" fill="#1BC89E"/>
<path opacity="0.7" d="M265.914 146.267C265.914 146.267 273.669 149.585 250.59 246.661L182.707 241.737C185.855 214.15 187.127 197.101 178.037 139.485C187.712 138.207 197.467 137.642 207.225 137.795C217.543 137.799 227.848 138.545 238.06 140.028C251.132 142.094 265.914 146.267 265.914 146.267Z" fill="black"/>
<path d="M212.729 103.155C213.938 113.234 214.564 131.555 207.142 137.691C207.142 137.691 209.226 147.957 227.552 149.293C247.817 150.775 237.976 139.923 237.976 139.923C227.094 136.48 227.99 128.279 230.471 120.704L212.729 103.155Z" fill="#985952"/>
<path opacity="0.2" d="M219.963 110.312L230.388 120.746C229.77 122.502 229.317 124.311 229.033 126.151C224.863 125.232 219.38 120.162 219.255 115.717C219.159 113.887 219.399 112.055 219.963 110.312Z" fill="black"/>
<path d="M201.387 86.3976C205.182 102.612 206.433 109.561 216.148 116.551C230.742 126.985 249.798 118.847 250.903 101.944C251.903 86.6271 245.524 62.6919 228.407 58.9148C224.645 58.0692 220.73 58.1973 217.032 59.2869C213.333 60.3766 209.973 62.3919 207.269 65.1424C204.565 67.893 202.605 71.2881 201.576 75.0072C200.547 78.7262 200.482 82.6464 201.387 86.3976Z" fill="#985952"/>
<path d="M250.59 246.662C250.59 246.662 254.405 376.521 249.61 427.459C244.627 480.442 225.488 598.574 225.488 598.574H202.784C202.784 598.574 205.89 480.734 207.683 428.482C209.643 371.492 200.845 243.052 200.845 243.052L250.59 246.662Z" fill="#1BC89E"/>
<path d="M200.866 599.388H227.469L229.408 590.895L199.636 589.851L200.866 599.388Z" fill="#263238"/>
<path opacity="0.2" d="M218.983 276.606C233.223 311.393 215.439 371.68 207.892 394.029C207.35 359.576 205.286 317.382 203.555 286.372C207.329 269.177 212.416 260.559 218.983 276.606Z" fill="black"/>
<path d="M232.66 245.368C232.66 245.368 207.642 378.232 192.819 420.406C175.327 470.488 101.085 544.673 101.085 544.673L81.9046 532.152C81.9046 532.152 135.861 446.72 148.349 420.573C175.014 364.793 161.984 277.817 182.686 241.653L232.66 245.368Z" fill="#1BC89E"/>
<path d="M79.0694 531.818L102.857 547.24L110.238 541.397L83.0722 521.969L79.0694 531.818Z" fill="#263238"/>
<path d="M229.304 86.2932C229.533 87.6287 230.409 88.5887 231.284 88.38C232.16 88.1713 232.681 87.0236 232.452 85.6881C232.222 84.3525 231.326 83.3926 230.367 83.6013C229.408 83.81 229.074 84.8951 229.304 86.2932Z" fill="#263238"/>
<path d="M244.356 83.7267C244.586 85.0622 245.482 86.0221 246.337 85.8135C247.192 85.6048 247.734 84.4779 247.504 83.1424C247.275 81.8069 246.399 80.847 245.524 81.0556C244.648 81.2643 244.127 82.3912 244.356 83.7267Z" fill="#263238"/>
<path d="M245.149 81.1808L248.192 79.6992C248.192 79.6992 246.983 82.4955 245.149 81.1808Z" fill="#263238"/>
<path d="M239.04 86.9822C240.767 89.8205 242.871 92.4109 245.294 94.6824C244.696 95.2845 243.974 95.7494 243.179 96.0449C242.383 96.3403 241.533 96.4593 240.687 96.3935L239.04 86.9822Z" fill="#784520"/>
<path d="M234.286 102.779C234.951 102.776 235.614 102.713 236.267 102.591C236.356 102.561 236.431 102.501 236.479 102.42C236.528 102.34 236.546 102.245 236.531 102.152C236.516 102.059 236.469 101.975 236.397 101.914C236.326 101.853 236.235 101.819 236.142 101.819C234.488 102.143 232.781 102.07 231.161 101.606C229.541 101.142 228.054 100.299 226.822 99.148C226.746 99.0776 226.645 99.0386 226.541 99.0386C226.437 99.0386 226.336 99.0776 226.26 99.148C226.222 99.1849 226.193 99.2287 226.173 99.2771C226.153 99.3255 226.142 99.3773 226.142 99.4297C226.142 99.4821 226.153 99.534 226.173 99.5823C226.193 99.6307 226.222 99.6746 226.26 99.7115C227.326 100.731 228.586 101.528 229.964 102.055C231.342 102.581 232.812 102.828 234.286 102.779Z" fill="#263238"/>
<path d="M248.651 65.7806L220.735 55.5554C220.22 56.1182 219.835 56.788 219.609 57.517C219.086 56.8738 218.429 56.3535 217.683 55.9929C216.937 55.6322 216.121 55.4402 215.293 55.4302C214.58 55.4147 213.871 55.5424 213.208 55.8058C212.044 55.9459 210.966 56.4927 210.165 57.35C209.463 58.1088 209.005 59.0612 208.851 60.0837C207.821 60.5181 206.942 61.2465 206.322 62.1779C205.703 63.1094 205.372 64.2027 205.369 65.3215C205.359 65.4813 205.359 65.6416 205.369 65.8014C204.798 65.8269 204.234 65.9467 203.702 66.1562C202.368 66.6856 201.285 67.7013 200.669 68.9985C200.054 70.2957 199.953 71.778 200.387 73.1469C199.307 73.8749 198.511 74.9526 198.131 76.1989C197.751 77.4452 197.812 78.7844 198.302 79.9914L198.406 80.2001C197.595 80.9976 197.038 82.0187 196.808 83.1334C196.578 84.2482 196.684 85.4063 197.113 86.4604C197.601 87.6448 198.466 88.6351 199.574 89.2776C199.574 89.528 199.448 89.7993 199.407 90.0705C198.658 90.0498 197.912 90.1848 197.218 90.467C195.903 91.0837 194.872 92.1784 194.335 93.5285C193.798 94.8786 193.794 96.3828 194.325 97.7354C194.856 99.088 195.882 100.188 197.193 100.81C198.505 101.433 200.005 101.533 201.387 101.089C202.33 100.719 203.156 100.101 203.776 99.3005C204.396 98.4996 204.788 97.5455 204.911 96.5395C205.667 96.543 206.417 96.4013 207.121 96.1222C208.38 95.6191 209.418 94.6826 210.049 93.4813C210.679 92.2801 210.861 90.893 210.561 89.5697C211.484 89.8788 212.471 89.9447 213.427 89.7612C214.383 89.5777 215.276 89.151 216.019 88.5221C216.763 87.8931 217.332 87.0832 217.673 86.1703C218.013 85.2573 218.112 84.2721 217.962 83.3094L218.546 83.1425C219.954 82.5764 221.081 81.4742 221.679 80.0776C222.277 78.6811 222.297 77.1042 221.735 75.6927C221.477 75.0633 221.11 74.4841 220.651 73.9816C221.486 73.7015 222.244 73.2316 222.866 72.6088C223.488 71.986 223.957 71.2273 224.237 70.3923C224.387 70.5949 224.554 70.7835 224.738 70.9558C225.588 71.7558 226.686 72.2415 227.85 72.3325C229.014 72.4236 230.174 72.1146 231.138 71.4566L231.493 71.8531C232.091 72.4332 232.823 72.8568 233.624 73.0863C234.424 73.3157 235.269 73.344 236.084 73.1686C236.898 72.9932 237.657 72.6195 238.292 72.0807C238.928 71.5418 239.421 70.8544 239.728 70.0793C240.471 70.8555 241.439 71.3775 242.496 71.5712C243.552 71.7649 244.642 71.6204 245.612 71.1582C246.582 70.6961 247.381 69.9398 247.897 68.9969C248.412 68.0539 248.618 66.9723 248.484 65.9058L248.651 65.7806Z" fill="#263238"/>
<path d="M199.511 102.173C200.315 103.566 201.386 104.784 202.664 105.759C203.942 106.733 205.4 107.444 206.954 107.85C211.124 108.914 213.063 105.199 211.832 101.339C210.728 97.8748 207.246 93.1378 203.139 93.7847C202.246 93.9402 201.407 94.3155 200.695 94.8766C199.984 95.4378 199.423 96.1671 199.063 96.9992C198.703 97.8312 198.556 98.7397 198.634 99.643C198.712 100.546 199.014 101.416 199.511 102.173Z" fill="#985952"/>
<path d="M222.736 84.2482C222.903 84.2488 223.065 84.1938 223.198 84.0918C223.33 83.9897 223.424 83.8465 223.466 83.6847C224.55 80.179 229.032 78.6765 229.074 78.6556C229.273 78.5886 229.439 78.4468 229.537 78.26C229.634 78.0732 229.655 77.856 229.595 77.654C229.529 77.4549 229.386 77.2904 229.198 77.1965C229.011 77.1026 228.794 77.087 228.595 77.1531C228.365 77.1531 223.278 78.9269 221.944 83.2256C221.891 83.4303 221.917 83.6475 222.018 83.8334C222.118 84.0193 222.286 84.1601 222.486 84.2273L222.736 84.2482Z" fill="#263238"/>
<path d="M247.692 75.9848C247.867 75.9855 248.037 75.9283 248.176 75.8219C248.315 75.7155 248.415 75.5661 248.46 75.3968C248.506 75.2276 248.494 75.0482 248.426 74.8865C248.359 74.7248 248.24 74.5901 248.088 74.5032C247.01 73.8444 245.789 73.4567 244.53 73.3731C243.27 73.2895 242.008 73.5126 240.853 74.0232C240.76 74.0698 240.677 74.1343 240.609 74.213C240.541 74.2917 240.489 74.3831 240.456 74.4819C240.423 74.5807 240.41 74.6851 240.417 74.789C240.425 74.8929 240.452 74.9943 240.499 75.0875C240.546 75.1807 240.61 75.2638 240.689 75.332C240.767 75.4003 240.859 75.4524 240.957 75.4853C241.056 75.5182 241.16 75.5314 241.264 75.524C241.368 75.5166 241.469 75.4888 241.562 75.4423C242.483 75.051 243.485 74.8866 244.482 74.9628C245.48 75.0391 246.445 75.3537 247.296 75.8805C247.418 75.944 247.554 75.9797 247.692 75.9848Z" fill="#263238"/>
<path d="M168.801 158.308C166.008 168.282 163.819 178.153 161.901 188.253C160.9 193.282 160.087 198.374 159.378 203.486C159.003 206.032 158.711 208.62 158.419 211.186L158.044 215.089V216.069V216.674C158.044 217.154 158.044 217.655 158.044 218.135C158.159 220.42 158.991 222.61 160.42 224.396C161.567 225.74 162.989 226.821 164.59 227.567C165.633 228.047 166.723 228.418 167.842 228.673C169.535 229.044 171.26 229.253 172.992 229.299C175.848 229.361 178.705 229.214 181.54 228.861C186.767 228.212 191.953 227.264 197.072 226.023C202.103 224.785 207.065 223.45 211.958 222.017C216.857 220.472 221.673 218.949 226.552 217.134L224.3 208.933C219.422 209.746 214.48 210.644 209.56 211.374C204.64 212.104 199.741 212.897 194.862 213.461C189.984 214.024 185.147 214.546 180.497 214.692C178.321 214.776 176.141 214.721 173.972 214.525C173.185 214.453 172.408 214.292 171.658 214.045C171.366 214.045 171.303 213.878 171.366 213.899C171.804 214.108 172.189 214.415 172.492 214.796C173.142 215.607 173.527 216.597 173.597 217.634C173.607 217.808 173.607 217.982 173.597 218.156C173.605 218.045 173.605 217.933 173.597 217.822L173.743 216.925L174.326 213.315L175.661 206.095C176.599 201.274 177.641 196.454 178.684 191.612C179.726 186.771 180.914 181.972 182.082 177.151C183.249 172.331 184.459 167.469 185.605 162.752L168.801 158.308Z" fill="#985952"/>
<path d="M178.037 139.381C171.094 140.967 161.212 163.817 161.212 163.817L186.23 184.685C186.23 184.685 197.28 165.904 195.049 156.805C192.735 147.352 185.98 137.586 178.037 139.381Z" fill="#1BC89E"/>
<path opacity="0.7" d="M178.037 139.381C171.094 140.967 161.212 163.817 161.212 163.817L186.23 184.685C186.23 184.685 197.28 165.904 195.049 156.805C192.735 147.352 185.98 137.586 178.037 139.381Z" fill="black"/>
<path d="M91.6201 565.812H91.8286C92.2169 565.8 92.5957 565.689 92.9281 565.488C93.2606 565.287 93.5354 565.003 93.7258 564.664C93.8621 564.468 93.9468 564.242 93.9723 564.004C93.9978 563.767 93.9633 563.528 93.8718 563.308C92.9962 561.367 86.9918 560.449 86.3247 560.344C86.2485 560.338 86.1721 560.352 86.1036 560.386C86.0352 560.42 85.9773 560.472 85.9364 560.537C85.8955 560.601 85.8732 560.676 85.8718 560.752C85.8704 560.829 85.89 560.904 85.9285 560.97C87.1794 562.765 89.5353 565.666 91.6201 565.812ZM87.1586 561.283C89.5353 561.722 92.6834 562.598 93.1421 563.641C93.2003 563.728 93.2315 563.829 93.2315 563.934C93.2315 564.038 93.2003 564.14 93.1421 564.226C93.0198 564.455 92.8404 564.648 92.6211 564.787C92.4019 564.926 92.1504 565.006 91.8912 565.019C90.6819 565.04 88.9515 563.662 87.1586 561.283Z" fill="#1BC89E"/>
<path d="M86.7834 561.221C88.8682 561.367 92.7461 560.657 93.6217 559.134C93.7791 558.861 93.838 558.542 93.7887 558.23C93.7394 557.919 93.5848 557.634 93.3507 557.423C93.1527 557.191 92.9063 557.006 92.6289 556.879C92.3516 556.753 92.05 556.689 91.7453 556.692C89.3061 556.692 86.0955 560.303 85.9704 560.449C85.9375 560.51 85.9203 560.578 85.9203 560.647C85.9203 560.716 85.9375 560.784 85.9704 560.845C85.9925 560.911 86.0308 560.971 86.0818 561.018C86.1328 561.065 86.1948 561.099 86.2622 561.117L86.7834 561.221ZM91.8704 557.527C92.0416 557.536 92.2093 557.579 92.3634 557.655C92.5174 557.73 92.6547 557.836 92.7669 557.965C93.1005 558.341 93.0379 558.591 92.9337 558.758C92.35 559.76 89.1185 560.553 87.0962 560.449C88.222 559.301 90.2859 557.506 91.7453 557.506L91.8704 557.527Z" fill="#1BC89E"/>
<path d="M228.261 622.238C229.694 622.375 231.129 622.014 232.327 621.215C232.595 620.975 232.8 620.672 232.924 620.334C233.048 619.995 233.086 619.631 233.036 619.275C233.024 619.058 232.957 618.847 232.84 618.664C232.723 618.482 232.56 618.332 232.368 618.231C230.284 617.104 223.633 620.506 222.882 620.902C222.81 620.943 222.752 621.005 222.714 621.079C222.677 621.153 222.663 621.237 222.674 621.32C222.685 621.401 222.721 621.476 222.777 621.536C222.833 621.596 222.906 621.637 222.987 621.654C224.724 622.006 226.489 622.202 228.261 622.238ZM231.243 618.774C231.501 618.759 231.759 618.809 231.993 618.92C232.075 618.958 232.143 619.021 232.188 619.099C232.232 619.178 232.252 619.268 232.243 619.358C232.281 619.59 232.261 619.828 232.185 620.05C232.108 620.272 231.978 620.472 231.806 620.631C230.784 621.528 228.032 621.695 224.3 621.09C226.467 619.931 228.814 619.148 231.243 618.774Z" fill="#1BC89E"/>
<path d="M223.07 621.654H223.237C225.217 620.757 229.179 617.146 228.866 615.247C228.866 614.788 228.47 614.225 227.386 614.121C226.99 614.076 226.589 614.114 226.208 614.233C225.828 614.351 225.476 614.548 225.176 614.809C223.091 616.562 222.695 621.07 222.674 621.257C222.662 621.329 222.672 621.403 222.701 621.47C222.731 621.537 222.779 621.593 222.841 621.633C222.914 621.661 222.993 621.669 223.07 621.654ZM227.052 614.934H227.302C228.011 614.934 228.074 615.289 228.074 615.394C228.261 616.52 225.593 619.379 223.549 620.61C223.683 618.709 224.412 616.898 225.634 615.435C226.028 615.098 226.534 614.919 227.052 614.934Z" fill="#1BC89E"/>
<path d="M230.096 83.7476L233.14 82.2869C233.14 82.2869 231.972 85.0623 230.096 83.7476Z" fill="#263238"/>
<path d="M181.936 237.668L179.851 243.615C179.58 244.074 180.122 244.596 180.893 244.658L250.736 249.75C251.34 249.75 251.862 249.52 251.924 249.145L252.987 243.093C252.987 242.676 252.549 242.279 251.882 242.238L183.082 237.229C182.87 237.198 182.652 237.221 182.452 237.298C182.251 237.375 182.073 237.502 181.936 237.668Z" fill="white"/>
<path d="M190.65 246.035L188.816 245.889C188.44 245.889 188.169 245.66 188.211 245.43L189.65 237.584C189.65 237.354 190.025 237.208 190.4 237.229L192.235 237.354C192.61 237.354 192.881 237.605 192.84 237.834L191.401 245.66C191.359 245.889 191.026 246.056 190.65 246.035Z" fill="#1BC89E"/>
<path d="M245.482 250.021L243.648 249.896C243.272 249.896 243.001 249.646 243.043 249.416L244.482 241.591C244.482 241.361 244.857 241.194 245.232 241.215L247.067 241.34C247.442 241.34 247.713 241.591 247.672 241.82L246.233 249.646C246.191 249.875 245.858 250.042 245.482 250.021Z" fill="#1BC89E"/>
<path d="M218.066 248.018L216.232 247.893C215.857 247.893 215.585 247.663 215.627 247.434L217.066 239.588C217.066 239.358 217.441 239.191 217.816 239.212L219.651 239.358C220.026 239.358 220.297 239.588 220.256 239.817L218.817 247.663C218.775 247.893 218.442 248.06 218.066 248.018Z" fill="#1BC89E"/>
<path d="M319.702 146.747L227.761 172.226L266.143 297.495L358.105 272.015L319.702 146.747Z" fill="#1BC89E"/>
<g opacity="0.3">
<path opacity="0.3" d="M319.702 146.747L227.761 172.226L266.143 297.495L358.105 272.015L319.702 146.747Z" fill="black"/>
</g>
<path d="M320.37 146.56L228.407 172.039L266.789 297.308L358.752 271.828L320.37 146.56Z" fill="#1BC89E"/>
<path d="M233.911 175.085L267.519 284.786L351.059 261.644L317.451 151.943L233.911 175.085Z" fill="white"/>
<path d="M301.627 156.785C300.075 155.02 298.05 153.739 295.792 153.091C293.535 152.444 291.139 152.458 288.889 153.133L285.24 154.134C284.587 154.356 283.886 154.394 283.213 154.243C282.54 154.092 281.921 153.759 281.425 153.279C280.204 152.122 278.693 151.317 277.053 150.95C275.412 150.582 273.703 150.666 272.106 151.192C270.487 151.546 269.002 152.351 267.821 153.514C266.641 154.677 265.813 156.151 265.434 157.765C265.278 158.421 264.938 159.019 264.454 159.488C263.97 159.958 263.363 160.279 262.703 160.416L259.055 161.438C256.815 161.984 254.79 163.192 253.244 164.903C251.697 166.615 250.7 168.752 250.382 171.037C250.341 171.188 250.341 171.346 250.382 171.496C250.474 171.799 250.679 172.055 250.955 172.211C251.23 172.366 251.555 172.409 251.862 172.331L300.981 158.725C301.182 158.681 301.369 158.586 301.522 158.448C301.676 158.31 301.791 158.135 301.856 157.939C301.921 157.743 301.934 157.534 301.894 157.332C301.854 157.129 301.762 156.941 301.627 156.785Z" fill="#1BC89E"/>
<path opacity="0.4" d="M301.627 156.785C300.075 155.02 298.05 153.739 295.792 153.091C293.535 152.444 291.139 152.458 288.889 153.133L285.24 154.134C284.587 154.356 283.886 154.394 283.213 154.243C282.54 154.092 281.921 153.759 281.425 153.279C280.204 152.122 278.693 151.317 277.053 150.95C275.412 150.582 273.703 150.666 272.106 151.192C270.487 151.546 269.002 152.351 267.821 153.514C266.641 154.677 265.813 156.151 265.434 157.765C265.278 158.421 264.938 159.019 264.454 159.488C263.97 159.958 263.363 160.279 262.703 160.416L259.055 161.438C256.815 161.984 254.79 163.192 253.244 164.903C251.697 166.615 250.7 168.752 250.382 171.037C250.341 171.188 250.341 171.346 250.382 171.496C250.474 171.799 250.679 172.055 250.955 172.211C251.23 172.366 251.555 172.409 251.862 172.331L300.981 158.725C301.182 158.681 301.369 158.586 301.522 158.448C301.676 158.31 301.791 158.135 301.856 157.939C301.921 157.743 301.934 157.534 301.894 157.332C301.854 157.129 301.762 156.941 301.627 156.785Z" fill="#FAFAFA"/>
<path d="M243.188 184.33L244.398 188.253L316.033 168.408L314.824 164.484L243.188 184.33Z" fill="#E0E0E0"/>
<path d="M246.108 193.824L247.296 197.748L314.949 179.008L313.761 175.064L246.108 193.824Z" fill="#E0E0E0"/>
<path d="M249.006 203.319L250.215 207.243L286.033 197.31L284.824 193.386L249.006 203.319Z" fill="#E0E0E0"/>
<path d="M290.598 191.78L291.807 195.724L310.738 190.465L309.549 186.542L290.598 191.78Z" fill="#E0E0E0"/>
<path d="M251.924 212.793L253.113 216.737L324.769 196.892L323.56 192.948L251.924 212.793Z" fill="#E0E0E0"/>
<path d="M254.822 222.288L256.031 226.232L318.41 208.933L317.2 205.01L254.822 222.288Z" fill="#E0E0E0"/>
<path d="M260.639 241.278L261.848 245.201L333.483 225.356L332.274 221.432L260.639 241.278Z" fill="#E0E0E0"/>
<path d="M263.558 250.772L264.746 254.696L325.29 237.939L324.081 233.995L263.558 250.772Z" fill="#E0E0E0"/>
<path d="M312.614 267.3C323.955 267.3 328.563 261.04 330.356 256.866C334.296 247.789 331.169 234.225 323.789 228.382C319.119 224.709 313.74 224.792 308.632 228.632C308.492 228.725 308.374 228.846 308.283 228.987C308.191 229.127 308.13 229.285 308.102 229.451C308.074 229.616 308.08 229.785 308.12 229.948C308.16 230.111 308.232 230.264 308.333 230.398C308.434 230.532 308.562 230.644 308.707 230.726C308.853 230.809 309.014 230.861 309.181 230.88C309.347 230.898 309.516 230.882 309.676 230.833C309.836 230.784 309.985 230.702 310.112 230.594C315.408 226.608 319.64 228.236 322.267 230.322C328.209 235.018 331.982 247.017 328.104 255.885C326.019 260.873 320.599 266.319 307.464 264.399C303.96 264.046 300.623 262.72 297.831 260.57C295.039 258.421 292.902 255.533 291.661 252.233C290.363 248.425 290.064 244.346 290.794 240.388C291.524 236.43 293.259 232.727 295.831 229.634C297.856 227.265 300.503 225.51 303.473 224.57C306.443 223.63 309.617 223.54 312.635 224.312C312.95 224.381 313.279 224.324 313.552 224.152C313.825 223.98 314.02 223.708 314.094 223.394C314.163 223.074 314.103 222.739 313.928 222.462C313.752 222.184 313.475 221.987 313.156 221.913C309.713 221.035 306.092 221.141 302.706 222.218C299.319 223.295 296.302 225.3 293.996 228.006C291.153 231.437 289.235 235.54 288.424 239.923C287.614 244.307 287.939 248.825 289.368 253.047C290.749 256.77 293.142 260.032 296.277 262.465C299.412 264.899 303.164 266.407 307.11 266.82C308.931 267.112 310.77 267.272 312.614 267.3Z" fill="#1BC89E"/>
<path d="M311.197 262.521C311.369 262.516 311.538 262.481 311.697 262.417C311.845 262.351 311.979 262.257 312.091 262.14C312.202 262.022 312.289 261.884 312.348 261.733C312.406 261.582 312.433 261.42 312.429 261.258C312.425 261.097 312.389 260.937 312.323 260.789C308.475 252.574 305.498 243.979 303.441 235.143C303.316 234.475 303.17 233.724 303.066 233.056C308.153 241.755 315.446 248.954 324.206 253.924C324.492 254.083 324.829 254.125 325.144 254.039C325.46 253.953 325.729 253.747 325.895 253.464C325.976 253.324 326.027 253.169 326.046 253.008C326.066 252.847 326.053 252.684 326.008 252.528C325.963 252.373 325.888 252.227 325.786 252.102C325.684 251.976 325.558 251.871 325.416 251.795C316.573 246.755 309.315 239.338 304.463 230.385C304.243 229.946 303.876 229.599 303.426 229.405C302.976 229.21 302.472 229.18 302.003 229.321C301.548 229.443 301.148 229.716 300.868 230.095C300.588 230.474 300.444 230.936 300.46 231.407C300.547 232.811 300.743 234.207 301.044 235.581C303.142 244.575 306.175 253.324 310.092 261.686C310.174 261.919 310.322 262.122 310.519 262.271C310.715 262.419 310.951 262.506 311.197 262.521Z" fill="#1BC89E"/>
<path d="M303.837 253.276C304.137 253.273 304.425 253.162 304.65 252.963C309.804 248.491 315.258 244.377 320.975 240.651C321.245 240.469 321.433 240.188 321.499 239.868C321.566 239.548 321.504 239.215 321.329 238.94C321.146 238.67 320.866 238.481 320.546 238.415C320.227 238.349 319.894 238.41 319.619 238.586C313.779 242.371 308.207 246.554 302.941 251.106C302.7 251.323 302.553 251.624 302.529 251.947C302.506 252.27 302.609 252.589 302.816 252.838C302.938 252.988 303.095 253.105 303.273 253.182C303.451 253.258 303.644 253.29 303.837 253.276Z" fill="#1BC89E"/>
<path d="M222.028 209.246L235.6 197.268L235.976 214.316C235.976 214.316 226.677 219.721 220.735 216.048L222.028 209.246Z" fill="#985952"/>
<path d="M249.672 196.433L249.214 210.727L235.975 214.316L235.6 197.268L249.672 196.433Z" fill="#985952"/>
</svg>
