<svg width="514" height="507" viewBox="0 0 514 507" fill="none" xmlns="http://www.w3.org/2000/svg">
<path d="M268.405 324.42C261.268 303.802 253.836 272.27 261.373 237.008C270.028 196.517 290.515 188.113 308.328 144.693C336.9 75.0483 313.844 24.4138 330.183 19.3507C347.189 14.0802 390.046 63.3914 389.761 116.855C389.497 166.369 352.332 201.202 348.662 204.541C320.359 230.303 297.803 225.279 279.926 249.609C262.744 272.991 264.612 303.443 268.405 324.42Z" fill="url(#paint0_linear_978_3536)"/>
<path opacity="0.5" d="M269.101 370.726C255.084 314.512 257.689 266.081 276.843 226.78C288.415 203.037 303.587 187.477 316.975 173.75C333.189 157.125 347.19 142.765 352.682 118.323C360.455 83.7299 347.199 44.1829 313.285 0.780075L313.838 0.347748C347.89 43.9228 361.19 83.6667 353.368 118.476C347.832 143.113 333.765 157.538 317.478 174.24C304.128 187.929 288.997 203.445 277.474 227.087C258.394 266.235 255.807 314.505 269.783 370.555L269.101 370.726Z" fill="white"/>
<path opacity="0.5" d="M350.553 126.966L350.453 126.268C348.852 115.01 344.806 104.042 338.752 94.5486C329.137 79.4735 316.498 70.8762 307.588 66.3193L307.908 65.6936C316.895 70.291 329.645 78.9638 339.344 94.1707C345.327 103.55 349.365 114.358 351.047 125.47C359.744 116.574 366.521 105.791 370.669 94.241C377.828 74.3067 376.062 56.2792 373.319 44.6662L374.002 44.5045C376.767 56.2089 378.547 74.3805 371.329 94.4765C367.069 106.339 360.057 117.4 351.05 126.463L350.553 126.966Z" fill="white"/>
<path opacity="0.5" d="M309.078 182.985L309.527 182.358C313.907 176.249 321.111 163.409 320.132 146.064C319.234 130.166 311.817 118.829 307.477 113.486L308.021 113.044C312.415 118.453 319.924 129.929 320.833 146.023C321.792 163.01 315.002 175.725 310.543 182.136C327.994 180.354 344.772 174.551 359.113 165.33C391.971 144.203 403.593 111.056 407.066 97.7858L407.746 97.9633C404.254 111.313 392.56 144.659 359.494 165.921C344.851 175.335 327.683 181.21 309.847 182.911L309.078 182.985Z" fill="white"/>
<path opacity="0.5" d="M273.81 234.952L273.792 234.602C273.39 226.449 273.39 218.19 273.792 210.051C274.658 192.517 277.414 174.954 281.982 157.852L282.66 158.033C278.107 175.087 275.36 192.6 274.495 210.086C274.1 218.084 274.094 226.202 274.477 234.219C293.828 233.295 312.373 228.79 329.602 220.826C368.569 202.814 389.862 171.727 399.087 154.8L399.704 155.135C390.439 172.14 369.047 203.368 329.897 221.464C312.481 229.513 293.73 234.047 274.161 234.936L273.81 234.952Z" fill="white"/>
<path d="M269.302 315.26C265.207 300.582 261.251 277.393 271.149 255.195C288.417 216.469 328.42 224.348 361.211 181.305C387.66 146.589 375.59 123.152 406.414 98.6434C428.534 81.0517 457.618 74.9411 461.779 81.3328C466.254 88.2061 437.112 102.141 423.854 136.588C406.603 181.412 436.97 207.128 418.598 235.231C404.625 256.607 381.847 249.698 332.186 273.782C303.313 287.783 282.261 304.06 269.302 315.26Z" fill="url(#paint1_linear_978_3536)"/>
<path opacity="0.5" d="M262.508 366.355L261.807 366.353C261.863 312.744 275.066 274.26 301.05 251.972C313.408 241.372 325.383 237.033 336.962 232.838C351.196 227.68 364.642 222.808 377.016 206.759C388.078 192.412 390.14 179.662 392.324 166.161C394.337 153.724 396.417 140.862 405.466 125.375C419.035 102.149 441.89 84.2501 473.396 72.1732L473.647 72.8287C442.295 84.8477 419.559 102.647 406.073 125.73C397.09 141.104 395.02 153.9 393.019 166.274C390.82 179.864 388.743 192.7 377.573 207.188C365.072 223.4 351.535 228.305 337.203 233.498C325.682 237.672 313.768 241.988 301.508 252.507C275.685 274.653 262.564 312.958 262.508 366.355Z" fill="white"/>
<path opacity="0.5" d="M394.728 156.007L394.397 155.088C391.341 146.582 389.946 137.79 390.25 128.955C390.963 108.13 401.068 92.8087 407.03 85.5295L407.573 85.9742C401.668 93.1848 391.657 108.36 390.951 128.978C390.663 137.405 391.935 145.795 394.735 153.928C399.511 141.099 406.641 131.825 415.936 126.359C425.702 120.618 434.598 120.868 444.018 121.133C449.84 121.296 455.861 121.467 462.168 120.107C481.481 115.945 498.466 98.2479 512.652 67.5073L513.29 67.8008C499.005 98.7505 481.857 116.58 462.318 120.792C455.928 122.17 449.861 121.998 443.998 121.832C434.684 121.569 425.885 121.321 416.293 126.962C406.922 132.472 399.779 141.934 395.06 155.084L394.728 156.007Z" fill="white"/>
<path opacity="0.5" d="M372.929 212.262L372.872 211.896C371.654 203.926 370.908 195.811 370.651 187.771C370.103 170.594 371.763 153.285 375.586 136.328L376.271 136.482C372.461 153.381 370.806 170.63 371.352 187.749C371.604 195.638 372.331 203.601 373.51 211.425C385.13 208.96 395.916 204.273 405.569 197.491C420.249 187.178 428.732 174.386 433.262 165.469L433.888 165.787C429.32 174.774 420.771 187.67 405.973 198.064C396.139 204.97 385.143 209.722 373.291 212.188L372.929 212.262Z" fill="white"/>
<path opacity="0.5" d="M380.735 247.558C377.833 247.558 374.875 247.459 371.863 247.254C357.289 246.254 342.973 242.792 329.318 236.962L328.824 236.751L329.216 236.384C336.239 229.785 341.701 221.567 345.01 212.62C347.725 205.283 349.012 197.566 348.836 189.686L349.537 189.67C349.715 197.64 348.412 205.443 345.667 212.863C342.381 221.745 337 229.915 330.086 236.525C343.521 242.196 357.591 245.568 371.912 246.552C403.804 248.74 429.666 238.642 445.747 229.785L446.086 230.4C431.439 238.467 408.721 247.558 380.735 247.558Z" fill="white"/>
<path opacity="0.5" d="M350.531 278.643C346.679 273.959 338.259 265.65 325.151 262.642C302.181 257.368 284.217 272.864 282.245 274.65L281.607 275.226L281.658 274.369C282.156 266.111 283.706 257.974 286.266 250.185C290.604 236.997 297.686 225.029 307.318 214.613L307.833 215.09C298.269 225.43 291.238 237.312 286.932 250.405C284.477 257.872 282.957 265.661 282.412 273.569C286.305 270.255 303.591 256.974 325.305 261.958C338.616 265.014 347.161 273.444 351.071 278.198L350.531 278.643Z" fill="white"/>
<path d="M267.4 302.621C275.616 295.56 288.296 285.816 305.327 277.142C344.985 256.944 365.079 264.524 386.746 245.774C413.383 222.724 408.206 189.468 416.949 189.679C429.805 189.992 455.642 262.236 424.144 292.433C403.971 311.773 367.492 306.951 360.046 305.767C342.417 302.964 337.634 296.732 319.769 294.403C298.044 291.572 279.432 297.44 267.4 302.621Z" fill="url(#paint2_linear_978_3536)"/>
<path opacity="0.5" d="M257.64 308.837L257.211 308.282C280.73 290.091 304.223 281.049 327.047 281.425C339.351 281.625 348.911 284.446 357.348 286.936C368.45 290.212 378.038 293.04 389.634 288.27C404.438 282.177 415.747 266.424 421.478 243.909C430.659 207.837 410.334 177.725 403.888 169.355L404.443 168.926C410.941 177.36 431.416 207.703 422.158 244.082C416.373 266.815 404.916 282.739 389.903 288.917C378.079 293.783 368.381 290.92 357.151 287.607C348.76 285.131 339.247 282.323 327.038 282.126C304.385 281.75 281.029 290.746 257.64 308.837Z" fill="white"/>
<path opacity="0.5" d="M413.801 264.849L413.933 264.156C415.891 253.819 415.891 243.356 413.933 233.059C411.777 221.713 407.148 210.673 400.545 201.132L401.121 200.733C407.778 210.353 412.446 221.485 414.622 232.927C416.551 243.08 416.594 253.392 414.752 263.589C420.302 260.735 427.802 255.55 433.275 246.719C444.944 227.89 438.18 207.167 436.706 203.206L437.363 202.962C438.857 206.979 445.712 227.984 433.871 247.09C428.101 256.401 420.116 261.717 414.432 264.536L413.801 264.849Z" fill="white"/>
<path opacity="0.5" d="M398.97 304.185C391.71 304.185 383.881 303.187 375.82 300.575C366.011 297.398 356.975 292.245 348.957 285.259L348.154 284.56L349.216 284.646C364.616 285.878 379.044 279.019 386.858 266.735C395.204 253.614 392.446 239.516 391.402 235.507L392.083 235.33C393.144 239.407 395.949 253.749 387.45 267.111C379.675 279.333 365.484 286.291 350.217 285.418C357.962 291.992 366.644 296.865 376.036 299.908C402.775 308.568 426.932 299.333 436.076 294.959L436.378 295.591C429.913 298.684 416.006 304.185 398.97 304.185Z" fill="white"/>
<path opacity="0.5" d="M359.913 321.376C356.15 313.324 347.196 298.572 329.506 290.245C322.062 286.741 314.009 284.806 305.574 284.491L305.553 283.79C319.677 282.412 329.958 278.416 336.111 271.914C336.664 271.328 337.379 270.518 338.464 269.292C339.921 267.641 342.124 265.148 345.506 261.429C348.882 257.716 352.298 254.027 355.658 250.464L356.17 250.946C352.811 254.505 349.398 258.19 346.026 261.9C342.646 265.617 340.446 268.107 338.991 269.756C337.903 270.988 337.184 271.801 336.622 272.395C330.919 278.423 321.779 282.333 309.421 284.043C316.566 284.73 323.408 286.597 329.807 289.609C347.695 298.031 356.746 312.94 360.549 321.077L359.913 321.376Z" fill="white"/>
<path d="M27.5898 311.747L213.16 323.056L419.198 311.183L215.986 375.61L27.5898 311.747Z" fill="url(#paint3_linear_978_3536)"/>
<path d="M177.809 506.309L26.8067 447.421C11.9636 443.427 0.429688 428.719 0.429688 414.456V414.299C0.429688 400.036 11.9618 390.467 26.8067 393.086L188.503 438.174L177.809 506.309Z" fill="url(#paint4_linear_978_3536)"/>
<path d="M419.45 457.3L184.911 503.115C169.994 504.781 157.73 494.379 157.73 479.858V470.007C157.73 455.486 169.994 442.739 184.911 441.551L419.45 403.375C408.912 422.995 406.48 441.348 419.45 457.3Z" fill="url(#paint5_linear_978_3536)"/>
<path d="M421.523 459.941L186.907 506.171C167.451 508.377 151.328 494.75 151.328 475.754V475.545C151.328 456.547 167.451 439.836 186.907 438.318L421.523 400.518C422.957 400.405 424.117 401.6 424.117 403.184C424.117 404.767 422.957 406.147 421.523 406.263L186.907 444.878C171.255 446.152 158.331 459.618 158.331 474.875V475.083C158.331 490.341 171.255 501.333 186.907 499.611L421.523 454.194C422.957 454.036 424.117 455.192 424.117 456.778C424.117 458.363 422.956 459.778 421.523 459.941Z" fill="url(#paint6_linear_978_3536)"/>
<path d="M184.002 438.335L26.8067 393.087C11.9636 390.469 0.429688 371.012 0.429688 349.597V349.361C0.429688 327.945 11.9618 310.951 26.8067 311.503L193.339 336.774L184.002 438.335Z" fill="url(#paint7_linear_978_3536)"/>
<path d="M419.45 396.361L198.258 432.536C176.087 434.209 157.732 417.918 157.732 396.115V381.325C157.732 359.522 176.089 341.347 198.258 340.743L419.45 315.396C408.879 344.792 406.515 372.318 419.45 396.361Z" fill="url(#paint8_linear_978_3536)"/>
<path d="M421.523 400.518L186.907 438.318C167.451 439.835 151.328 417.886 151.328 389.362V389.049C151.328 360.524 167.451 336.919 186.907 336.434L421.523 311.294C422.957 311.259 424.117 313.157 424.117 315.536C424.117 317.914 422.957 319.877 421.523 319.921L186.907 346.286C171.255 346.755 158.331 365.781 158.331 388.69V389.003C158.331 411.913 171.255 429.61 186.907 428.469L421.523 391.894C422.957 391.79 424.117 393.634 424.117 396.012C424.117 398.389 422.956 400.407 421.523 400.518Z" fill="url(#paint9_linear_978_3536)"/>
<path opacity="0.5" d="M136.376 416.872L99.9338 407.008C92.2679 386.084 92.8444 366.863 99.9338 343.89L136.376 350.351C129.646 374.527 130.666 396.423 136.376 416.872Z" fill="white"/>
<path d="M425.93 299.271L25.1191 295.405V306.844C25.1191 309.949 26.8678 312.589 29.235 313.058L142.572 335.583C143.917 335.85 145.282 335.92 146.639 335.794L421.576 310.113C424.031 309.884 425.93 307.236 425.93 304.046V299.271Z" fill="url(#paint10_linear_978_3536)"/>
<path d="M296.905 280.729L29.5301 301.654C24.7464 302.029 20.8555 298.05 20.8555 292.767V81.0921C20.8555 75.8093 24.7464 71.5247 29.5301 71.5247H296.905C300.846 71.5247 304.033 75.3963 304.033 80.1729V271.524C304.033 276.298 300.846 280.42 296.905 280.729Z" fill="url(#paint11_linear_978_3536)"/>
<path d="M301.168 280.729L33.7937 301.654C29.0083 302.029 25.1191 298.05 25.1191 292.767V81.0921C25.1191 75.8093 29.01 71.5247 33.7937 71.5247H301.168C305.11 71.5247 308.296 75.3963 308.296 80.1729V271.524C308.296 276.298 305.11 280.42 301.168 280.729Z" fill="url(#paint12_linear_978_3536)"/>
<path d="M292.838 267.237L43.8078 285.414C39.9133 285.699 36.75 282.432 36.75 278.119V92.7982C36.75 88.4855 39.9133 84.9742 43.8078 84.9566L292.838 83.8161C296.09 83.8002 298.72 86.9741 298.72 90.9019V259.696C298.72 263.624 296.09 267 292.838 267.237Z" fill="#19B690"/>
<path d="M176.924 77.3136C176.924 79.2802 175.548 80.8794 173.848 80.8847C172.147 80.89 170.766 79.2977 170.766 77.3259C170.766 75.3541 172.147 73.7549 173.848 73.7549C175.546 73.7549 176.924 75.3471 176.924 77.3136Z" fill="white"/>
<path opacity="0.48" d="M236.748 222.673C216.136 210.39 199.929 225.954 184.288 210.599C174.805 201.29 179.46 194.348 167.793 180.437C154.869 165.03 146.456 170.209 133.467 156.341C117.044 138.807 125.258 125.164 111.113 112.576C93.9517 97.3042 75.4444 111.439 59.1092 96.7928C52.0638 90.4749 48.1975 81.2924 46.1782 71.5247H30.1945C27.3932 71.5247 25.1191 74.0396 25.1191 77.1396V296.56C25.1191 299.661 27.3932 301.995 30.1945 301.776L302.692 280.354C304.029 280.249 305.215 279.384 305.976 278.131C286.028 277.326 273.774 269.921 265.941 262.265C250.616 247.289 253.273 232.519 236.748 222.673Z" fill="white"/>
<path d="M294.497 279.78L25.1191 301.806L142.572 325.147C143.917 325.415 145.282 325.485 146.639 325.358L425.93 299.271L298.78 279.929C297.36 279.713 295.926 279.662 294.497 279.78Z" fill="url(#paint13_linear_978_3536)"/>
<path opacity="0.3" d="M64.4258 302.359L288.691 283.748L358.098 294.222L135.766 314.114L64.4258 302.359Z" fill="url(#paint14_linear_978_3536)"/>
<path d="M278.95 155.285L229.375 129.681L177.371 102.821L66.4766 160.098L66.8298 160.264V162.297L177.48 214.459L278.849 157.311V155.369L278.798 155.371L278.95 155.285Z" fill="white"/>
<path d="M241.764 184.746L177.372 221.156L106.578 188.055V235.946C106.578 243.795 112.555 250.357 120.372 251.071C133.038 252.227 153.222 253.368 175.785 251.978C197.751 250.623 216.989 247.164 228.936 244.591C236.423 242.98 241.764 236.358 241.764 228.699V184.746Z" fill="white"/>
<path d="M278.887 229.936C278.174 229.975 278.235 229.34 278.235 228.56V159.766C278.235 158.211 276.787 157.223 275.358 157.257L178.121 159.538C177.344 159.555 176.713 158.898 176.713 158.084C176.713 157.271 177.344 156.585 178.121 156.568L275.358 154.406C278.214 154.343 279.537 156.624 279.537 159.735V228.49C279.539 229.27 279.601 229.897 278.887 229.936Z" fill="white"/>
<path d="M280.954 156.135C280.293 154.858 281.218 154.278 279.541 154.315L178.123 156.569C177.346 156.587 176.715 157.272 176.715 158.086C176.715 158.9 177.346 159.557 178.123 159.539L275.36 157.258C276.153 157.239 276.951 157.536 277.504 158.069L278.85 157.309L280.954 156.135Z" fill="white"/>
<path d="M281.982 215.48L280.713 213.408C280.293 212.619 279.42 212.165 278.568 212.22C277.714 212.276 276.895 212.836 276.497 213.68L275.376 215.959C275.118 216.509 274.932 217.118 274.932 217.726V236.467C274.932 236.869 276.884 237.082 278.849 236.969C280.81 236.855 282.754 236.417 282.754 236.017V217.286C282.754 216.641 282.274 216.028 281.982 215.48Z" fill="white"/>
<path d="M381.643 394.201C375.672 399.44 366.667 399.015 361.115 393.333C354.194 386.251 341.214 381.444 317.949 396.166C276.397 422.464 322.324 496.849 348.567 499.022C374.81 501.196 383.559 494.662 396.68 499.022C409.802 503.383 428.39 474.203 436.046 447.787C443.701 421.371 424.018 390.014 404.335 386.557C394.65 384.854 387.346 389.198 381.643 394.201Z" fill="url(#paint15_linear_978_3536)"/>
<path opacity="0.3" d="M415.943 473.874C415.943 473.874 415.943 473.874 405.95 480.053C395.958 486.232 391.766 462.212 373.393 447.123C355.019 432.033 318.915 442.896 320.85 416.956C321.814 404.025 328.306 394.497 334.575 388.191C329.723 389.66 324.211 392.207 317.953 396.166C276.401 422.464 322.328 496.849 348.571 499.022C374.814 501.196 383.563 494.662 396.684 499.022C407.949 502.766 423.245 481.786 432.19 459.059L415.943 473.874Z" fill="url(#paint16_linear_978_3536)"/>
<path d="M374.891 398.643C374.891 398.643 393.674 368.048 361.967 359.301C330.26 350.554 316.773 338.818 316.773 338.818C316.773 338.818 324.791 364.318 330.624 383.495C336.456 402.672 364.491 407.004 374.891 398.643Z" fill="url(#paint17_linear_978_3536)"/>
<path d="M383.544 362.981C378.077 363.612 380.265 355.06 375.023 360.767C370.46 365.733 369.656 393.093 369.524 400.103C369.506 401.015 370.22 401.772 371.13 401.815C372.091 401.858 372.893 401.09 372.889 400.129C372.821 385.056 389.08 368.044 390.834 364.587C392.655 360.993 389.01 362.35 383.544 362.981Z" fill="url(#paint18_linear_978_3536)"/>
<path opacity="0.3" d="M361.312 380.849C358.83 367.107 348.191 369.64 326.689 351.052C323.223 348.057 320.339 345.2 317.934 342.511C320.364 350.264 326.141 368.749 330.624 383.495C335.824 400.595 358.678 405.894 370.941 400.911C366.888 397.323 363.18 391.198 361.312 380.849Z" fill="url(#paint19_linear_978_3536)"/>
<defs>
<linearGradient id="paint0_linear_978_3536" x1="311.916" y1="266.799" x2="395.694" y2="217.208" gradientUnits="userSpaceOnUse">
<stop stop-color="#1DAC8A"/>
<stop offset="0.9964" stop-color="#20C89F"/>
</linearGradient>
<linearGradient id="paint1_linear_978_3536" x1="345.486" y1="270.667" x2="418.751" y2="186.621" gradientUnits="userSpaceOnUse">
<stop stop-color="#19B690"/>
<stop offset="0.9964" stop-color="#17A784"/>
</linearGradient>
<linearGradient id="paint2_linear_978_3536" x1="337.515" y1="285.005" x2="366.837" y2="226.084" gradientUnits="userSpaceOnUse">
<stop stop-color="#149C7B"/>
<stop offset="0.9964" stop-color="#199879"/>
</linearGradient>
<linearGradient id="paint3_linear_978_3536" x1="27.5892" y1="343.396" x2="419.197" y2="343.396" gradientUnits="userSpaceOnUse">
<stop stop-color="#AA80F9"/>
<stop offset="0.9964" stop-color="#6165D7"/>
</linearGradient>
<linearGradient id="paint4_linear_978_3536" x1="77.2032" y1="484.869" x2="103.404" y2="425.274" gradientUnits="userSpaceOnUse">
<stop stop-color="#19B690"/>
<stop offset="0.9964" stop-color="#17A784"/>
</linearGradient>
<linearGradient id="paint5_linear_978_3536" x1="157.731" y1="453.333" x2="419.45" y2="453.333" gradientUnits="userSpaceOnUse">
<stop offset="0.494" stop-color="#EAEDF3"/>
<stop offset="1" stop-color="white"/>
</linearGradient>
<linearGradient id="paint6_linear_978_3536" x1="262.684" y1="486.43" x2="280.014" y2="425.065" gradientUnits="userSpaceOnUse">
<stop stop-color="#19B690"/>
<stop offset="0.9964" stop-color="#17A784"/>
</linearGradient>
<linearGradient id="paint7_linear_978_3536" x1="116.366" y1="308.408" x2="68.5889" y2="469.341" gradientUnits="userSpaceOnUse">
<stop stop-color="#AA80F9"/>
<stop offset="0.9964" stop-color="#6165D7"/>
</linearGradient>
<linearGradient id="paint8_linear_978_3536" x1="157.732" y1="374.024" x2="419.451" y2="374.024" gradientUnits="userSpaceOnUse">
<stop offset="0.494" stop-color="#EAEDF3"/>
<stop offset="1" stop-color="white"/>
</linearGradient>
<linearGradient id="paint9_linear_978_3536" x1="151.328" y1="374.843" x2="424.117" y2="374.843" gradientUnits="userSpaceOnUse">
<stop stop-color="#AA80F9"/>
<stop offset="0.9964" stop-color="#6165D7"/>
</linearGradient>
<linearGradient id="paint10_linear_978_3536" x1="194.323" y1="315.042" x2="166.137" y2="326.88" gradientUnits="userSpaceOnUse">
<stop stop-color="#40447E"/>
<stop offset="0.9964" stop-color="#3C3B6B"/>
</linearGradient>
<linearGradient id="paint11_linear_978_3536" x1="156.411" y1="178.819" x2="125.105" y2="191.968" gradientUnits="userSpaceOnUse">
<stop stop-color="#40447E"/>
<stop offset="0.9964" stop-color="#3C3B6B"/>
</linearGradient>
<linearGradient id="paint12_linear_978_3536" x1="25.1191" y1="186.601" x2="308.296" y2="186.601" gradientUnits="userSpaceOnUse">
<stop stop-color="#40447E"/>
<stop offset="0.9964" stop-color="#3C3B6B"/>
</linearGradient>
<linearGradient id="paint13_linear_978_3536" x1="25.1191" y1="302.569" x2="425.931" y2="302.569" gradientUnits="userSpaceOnUse">
<stop stop-color="#40447E"/>
<stop offset="0.9964" stop-color="#3C3B6B"/>
</linearGradient>
<linearGradient id="paint14_linear_978_3536" x1="64.4257" y1="298.932" x2="358.098" y2="298.932" gradientUnits="userSpaceOnUse">
<stop stop-color="#40447E"/>
<stop offset="0.9964" stop-color="#3C3B6B"/>
</linearGradient>
<linearGradient id="paint15_linear_978_3536" x1="390.616" y1="407.939" x2="317.352" y2="507.446" gradientUnits="userSpaceOnUse">
<stop stop-color="#FF9085"/>
<stop offset="1" stop-color="#FB6FBB"/>
</linearGradient>
<linearGradient id="paint16_linear_978_3536" x1="390.616" y1="407.939" x2="317.352" y2="507.446" gradientUnits="userSpaceOnUse">
<stop stop-color="#FF9085"/>
<stop offset="1" stop-color="#FB6FBB"/>
</linearGradient>
<linearGradient id="paint17_linear_978_3536" x1="342.818" y1="330.723" x2="362.499" y2="424.389" gradientUnits="userSpaceOnUse">
<stop stop-color="#A1F094"/>
<stop offset="1" stop-color="#4FC3BA"/>
</linearGradient>
<linearGradient id="paint18_linear_978_3536" x1="393.705" y1="353.882" x2="355.967" y2="405.139" gradientUnits="userSpaceOnUse">
<stop stop-color="#311944"/>
<stop offset="1" stop-color="#6B3976"/>
</linearGradient>
<linearGradient id="paint19_linear_978_3536" x1="336.121" y1="332.131" x2="355.801" y2="425.796" gradientUnits="userSpaceOnUse">
<stop stop-color="#38E8C7"/>
<stop offset="1" stop-color="#425F63"/>
</linearGradient>
</defs>
</svg>
