<svg width="25" height="25" viewBox="0 0 25 25" fill="none" xmlns="http://www.w3.org/2000/svg">
<path d="M17.7119 1.16202C16.5463 1.16202 15.4322 1.42923 14.4007 1.9563C13.6985 2.31501 13.0535 2.79161 12.5 3.35707C11.9465 2.79161 11.3015 2.31501 10.5993 1.9563C9.56778 1.42923 8.45371 1.16202 7.28804 1.16202C3.26943 1.16202 0 4.43145 0 8.45011C0 11.2965 1.50325 14.3195 4.46794 17.4354C6.9433 20.037 9.97392 22.2056 12.0804 23.5668L12.5 23.838L12.9196 23.5668C15.0261 22.2057 18.0567 20.037 20.5321 17.4354C23.4968 14.3195 25 11.2965 25 8.45011C25 4.43145 21.7306 1.16202 17.7119 1.16202ZM19.4118 16.3694C17.1995 18.6944 14.5048 20.671 12.5 21.9939C10.4952 20.671 7.80046 18.6944 5.58825 16.3694C2.90624 13.5507 1.54639 10.8863 1.54639 8.45011C1.54639 5.28413 4.12211 2.70841 7.28809 2.70841C9.11082 2.70841 10.7852 3.54568 11.8818 5.00547L12.5 5.82841L13.1182 5.00547C14.2148 3.54568 15.8892 2.70841 17.7119 2.70841C20.8779 2.70841 23.4536 5.28413 23.4536 8.45011C23.4536 10.8863 22.0937 13.5507 19.4118 16.3694Z" fill="#C0C3C7"/>
</svg>
