<svg width="743" height="743" viewBox="0 0 743 743" fill="none" xmlns="http://www.w3.org/2000/svg">
<path d="M225.168 202.509C233.15 231.056 258.781 252.972 287.637 259.903C316.494 266.833 347.677 259.977 373.107 244.642C391.269 233.704 407.236 218.02 414.975 198.301C422.713 178.582 421.033 154.55 407.646 138.16C402.591 131.966 395.631 126.844 387.666 126.027C374.963 124.725 363.978 134.263 354.787 143.155C345.596 152.048 334.649 161.61 321.936 160.36C312.167 159.402 304.335 152.244 295.592 147.791C280.721 140.215 262.009 140.78 247.597 149.23C245.598 150.402 243.687 151.72 241.882 153.173C227.828 164.441 221.434 182.741 224.781 200.409L225.168 202.509Z" fill="white"/>
<path d="M577.237 579.406H528.02V579.778H577.237V579.406Z" fill="#EBEBEB"/>
<path d="M448.772 591.978H383.343V592.349H448.772V591.978Z" fill="#EBEBEB"/>
<path d="M645.281 593.196H578.737V593.568H645.281V593.196Z" fill="#EBEBEB"/>
<path d="M143.964 579.035H79.7833V579.406H143.964V579.035Z" fill="#EBEBEB"/>
<path d="M166.61 579.035H157.204V579.406H166.61V579.035Z" fill="#EBEBEB"/>
<path d="M336.401 585.306H197.192V585.677H336.401V585.306Z" fill="#EBEBEB"/>
<path d="M429.127 291.821H384.324V304.481H429.127V291.821Z" fill="#F5F5F5"/>
<g filter="url(#filter0_f_13_1178)">
<path d="M371.5 646C530.834 646 660 633.688 660 618.5C660 603.312 530.834 591 371.5 591C212.166 591 83.0001 603.312 83.0001 618.5C83.0001 633.688 212.166 646 371.5 646Z" fill="url(#paint0_linear_13_1178)"/>
</g>
<path d="M81.4865 66.3335C81.3376 66.3342 81.1916 66.2927 81.0654 66.2138C80.9391 66.1349 80.8378 66.0219 80.7732 65.8877C79.4953 63.2278 81.0407 61.1325 82.6605 58.9035C84.9935 55.7086 87.8912 51.741 84.83 44.0435C79.421 30.2534 83.7452 22.229 83.9384 21.9021C84.0491 21.7376 84.2178 21.6209 84.4107 21.5753C84.6037 21.5297 84.8068 21.5586 84.9794 21.6561C85.152 21.7537 85.2814 21.9128 85.3419 22.1016C85.4024 22.2904 85.3894 22.4951 85.3055 22.6748C85.3055 22.7491 81.1745 30.4169 86.3012 43.4788C89.6744 52.0531 86.3012 56.5854 83.9236 59.8248C82.2147 62.1727 81.3676 63.4804 82.1849 65.2042C82.2303 65.2978 82.2566 65.3994 82.2625 65.5032C82.2683 65.607 82.2536 65.711 82.219 65.8091C82.1845 65.9072 82.1309 65.9975 82.0612 66.0747C81.9916 66.152 81.9074 66.2147 81.8134 66.2592C81.7103 66.3048 81.5993 66.33 81.4865 66.3335Z" fill="#407BFF"/>
<path d="M84.6665 24.4282C84.2273 24.4312 83.7972 24.3034 83.4308 24.0613C83.0644 23.8191 82.7783 23.4735 82.6089 23.0683C82.4395 22.6631 82.3944 22.2167 82.4794 21.7858C82.5643 21.3549 82.7755 20.9591 83.086 20.6485C83.3966 20.338 83.7925 20.1268 84.2233 20.0418C84.6542 19.9569 85.1006 20.002 85.5058 20.1714C85.911 20.3408 86.2566 20.6269 86.4988 20.9933C86.741 21.3597 86.8687 21.7898 86.8657 22.2289C86.8619 22.811 86.6289 23.3682 86.2173 23.7798C85.8057 24.1914 85.2486 24.4243 84.6665 24.4282ZM84.6665 21.59C84.5754 21.576 84.4824 21.5818 84.3938 21.6071C84.3052 21.6324 84.2232 21.6766 84.1533 21.7366C84.0833 21.7965 84.0272 21.8709 83.9887 21.9546C83.9503 22.0384 83.9303 22.1294 83.9303 22.2215C83.9303 22.3136 83.9503 22.4047 83.9887 22.4884C84.0272 22.5721 84.0833 22.6465 84.1533 22.7065C84.2232 22.7665 84.3052 22.8106 84.3938 22.8359C84.4824 22.8612 84.5754 22.8671 84.6665 22.8531C84.8173 22.8299 84.9549 22.7534 85.0543 22.6376C85.1537 22.5217 85.2083 22.3741 85.2083 22.2215C85.2083 22.0689 85.1537 21.9213 85.0543 21.8055C84.9549 21.6896 84.8173 21.6132 84.6665 21.59Z" fill="#407BFF"/>
<path d="M109.631 52.4838L110.374 53.7172L36.743 98.6985L36 97.4651L65.8389 63.5545L109.631 52.4838Z" fill="#263238"/>
<path d="M110.374 53.7172L80.5355 87.6278L36.7431 98.6985L66.5819 64.7879L110.374 53.7172Z" fill="#313131"/>
<path d="M104.906 79.9601C89.4906 86.7116 75.0635 95.5248 62.0198 106.158C61.8389 106.318 61.626 106.437 61.3954 106.507C61.1648 106.578 60.9218 106.598 60.6827 106.567C60.4435 106.536 60.2138 106.455 60.0087 106.328C59.8037 106.201 59.6281 106.032 59.4936 105.831L51.6178 92.9329C51.4188 92.5819 51.3528 92.171 51.4319 91.7753C51.5111 91.3796 51.73 91.0257 52.0488 90.7782C65.3213 79.8855 80.0389 70.884 95.7818 64.0302C96.1458 63.8569 96.5604 63.8216 96.9485 63.9309C97.3366 64.0403 97.6718 64.2868 97.8919 64.6246L105.768 77.5231C105.892 77.7356 105.968 77.9726 105.991 78.2175C106.014 78.4624 105.983 78.7094 105.901 78.9413C105.819 79.1733 105.688 79.3845 105.516 79.5605C105.344 79.7364 105.136 79.8728 104.906 79.9601Z" fill="#407BFF"/>
<path d="M104.906 79.9601C89.4906 86.7116 75.0635 95.5248 62.0198 106.158C61.8389 106.318 61.626 106.437 61.3954 106.507C61.1648 106.578 60.9218 106.598 60.6827 106.567C60.4435 106.536 60.2138 106.455 60.0087 106.328C59.8037 106.201 59.6281 106.032 59.4936 105.831L51.6178 92.9329C51.4188 92.5819 51.3528 92.171 51.4319 91.7753C51.5111 91.3796 51.73 91.0257 52.0488 90.7782C65.3213 79.8855 80.0389 70.884 95.7818 64.0302C96.1458 63.8569 96.5604 63.8216 96.9485 63.9309C97.3366 64.0403 97.6718 64.2868 97.8919 64.6246L105.768 77.5231C105.892 77.7356 105.968 77.9726 105.991 78.2175C106.014 78.4624 105.983 78.7094 105.901 78.9413C105.819 79.1733 105.688 79.3845 105.516 79.5605C105.344 79.7364 105.136 79.8728 104.906 79.9601Z" fill="#0A0C0D"/>
<path d="M592.008 297.705C591.838 297.705 591.67 297.667 591.516 297.595C591.362 297.523 591.226 297.419 591.116 297.289C588.352 294.02 589.63 290.483 590.967 286.753C592.973 281.166 595.232 274.865 586.078 266.128C567.979 248.92 579.198 231.95 579.317 231.861C579.495 231.605 579.765 231.429 580.071 231.371C580.376 231.313 580.693 231.376 580.952 231.549C581.208 231.729 581.384 232.002 581.443 232.31C581.501 232.618 581.437 232.937 581.264 233.198C580.833 233.807 571.085 248.623 587.698 264.404C597.981 274.167 595.202 281.894 593.182 287.541C591.814 291.36 591.116 293.619 592.914 295.744C593.015 295.862 593.09 296 593.137 296.148C593.184 296.296 593.201 296.452 593.188 296.607C593.174 296.762 593.129 296.912 593.057 297.05C592.984 297.187 592.885 297.309 592.765 297.408C592.559 297.599 592.289 297.705 592.008 297.705Z" fill="#407BFF"/>
<path d="M580.343 235.813C579.726 235.813 579.122 235.64 578.599 235.313C578.076 234.987 577.655 234.52 577.383 233.967C577.112 233.413 577.001 232.794 577.063 232.181C577.125 231.568 577.358 230.984 577.736 230.496C578.113 230.009 578.619 229.636 579.197 229.422C579.775 229.207 580.402 229.159 581.006 229.282C581.61 229.406 582.167 229.696 582.615 230.12C583.062 230.545 583.382 231.086 583.538 231.682C583.755 232.529 583.628 233.428 583.186 234.183C582.743 234.937 582.02 235.486 581.175 235.709C580.903 235.78 580.623 235.815 580.343 235.813ZM580.343 231.563H580.105C579.982 231.592 579.866 231.646 579.766 231.723C579.666 231.8 579.584 231.898 579.525 232.009C579.46 232.115 579.417 232.232 579.399 232.355C579.381 232.478 579.389 232.603 579.421 232.722C579.452 232.843 579.507 232.957 579.582 233.057C579.657 233.157 579.751 233.241 579.859 233.304C579.967 233.368 580.086 233.41 580.21 233.427C580.333 233.444 580.459 233.437 580.58 233.406C580.823 233.34 581.03 233.182 581.157 232.965C581.285 232.749 581.323 232.491 581.264 232.247C581.197 232.003 581.037 231.795 580.818 231.667C580.672 231.591 580.508 231.555 580.343 231.563Z" fill="#407BFF"/>
<path d="M635.191 356.759L633.69 357.918L564.338 267.54L565.839 266.38L614.535 300.811L635.191 356.759Z" fill="#263238"/>
<path d="M633.69 357.918L584.994 323.487L564.338 267.539L613.034 301.97L633.69 357.918Z" fill="#262632"/>
<path d="M598.472 354.396C587.449 335.111 573.862 317.41 558.082 301.777C557.847 301.561 557.66 301.297 557.535 301.004C557.409 300.71 557.348 300.393 557.355 300.073C557.362 299.754 557.437 299.44 557.576 299.152C557.714 298.864 557.912 298.609 558.157 298.404L573.982 286.263C574.413 285.952 574.942 285.807 575.471 285.853C576 285.899 576.495 286.135 576.865 286.516C593.007 302.42 606.869 320.483 618.057 340.19C618.336 340.647 618.439 341.189 618.349 341.716C618.259 342.243 617.981 342.72 617.567 343.058L601.741 355.154C601.483 355.34 601.189 355.468 600.877 355.531C600.565 355.594 600.244 355.589 599.934 355.517C599.625 355.445 599.334 355.308 599.082 355.115C598.83 354.921 598.622 354.676 598.472 354.396Z" fill="#407BFF"/>
<path d="M598.472 354.396C587.449 335.111 573.862 317.41 558.082 301.777C557.847 301.561 557.66 301.297 557.535 301.004C557.409 300.71 557.348 300.393 557.355 300.073C557.362 299.754 557.437 299.44 557.576 299.152C557.714 298.864 557.912 298.609 558.157 298.404L573.982 286.263C574.413 285.952 574.942 285.807 575.471 285.853C576 285.899 576.495 286.135 576.865 286.516C593.007 302.42 606.869 320.483 618.057 340.19C618.336 340.647 618.439 341.189 618.349 341.716C618.259 342.243 617.981 342.72 617.567 343.058L601.741 355.154C601.483 355.34 601.189 355.468 600.877 355.531C600.565 355.594 600.244 355.589 599.934 355.517C599.625 355.445 599.334 355.308 599.082 355.115C598.83 354.921 598.622 354.676 598.472 354.396Z" fill="#11101B"/>
<path d="M180.044 325.895C189.549 329.844 199.548 332.484 209.764 333.741C209.91 333.754 210.051 333.799 210.179 333.871C210.306 333.943 210.417 334.041 210.504 334.159C210.591 334.277 210.652 334.411 210.683 334.554C210.714 334.698 210.715 334.846 210.685 334.989L208.323 343.905C208.253 344.142 208.101 344.346 207.894 344.48C207.686 344.614 207.437 344.668 207.193 344.633C196.753 343.375 186.536 340.68 176.834 336.624C176.603 336.536 176.411 336.367 176.296 336.148C176.181 335.929 176.15 335.675 176.21 335.435L178.573 326.519C178.615 326.371 178.689 326.235 178.79 326.12C178.892 326.005 179.018 325.914 179.159 325.854C179.3 325.794 179.453 325.767 179.606 325.774C179.759 325.781 179.909 325.822 180.044 325.895Z" fill="black"/>
<path d="M169.79 322.403L170.028 321.555L220.939 335.034L220.716 335.881L193.165 337.04L169.79 322.403Z" fill="#263238"/>
<path d="M170.028 321.555L197.564 320.396L220.939 335.034L193.388 336.193L170.028 321.555Z" fill="#222323"/>
<path opacity="0.4" d="M169.989 322L197.525 320.841L220.9 335.478L193.349 336.637L169.989 322Z" fill="black"/>
<path d="M196.895 328.703C196.827 328.725 196.755 328.725 196.687 328.703C196.593 328.647 196.525 328.557 196.497 328.451C196.469 328.346 196.484 328.233 196.538 328.138C197.044 327.262 196.657 326.534 195.84 325.166C194.893 323.917 194.335 322.416 194.237 320.851C194.14 319.286 194.506 317.727 195.29 316.369C198.574 309.667 196.776 305.462 196.776 305.418C196.731 305.317 196.727 305.203 196.766 305.1C196.805 304.996 196.884 304.913 196.984 304.868C197.034 304.843 197.088 304.829 197.143 304.826C197.198 304.824 197.253 304.832 197.304 304.852C197.356 304.871 197.403 304.901 197.443 304.94C197.482 304.978 197.513 305.025 197.534 305.076C197.623 305.254 199.57 309.682 196.122 316.741C195.396 317.968 195.055 319.385 195.146 320.809C195.236 322.232 195.752 323.595 196.628 324.721C197.4 325.969 198.114 327.143 197.326 328.495C197.286 328.571 197.223 328.633 197.145 328.67C197.067 328.708 196.98 328.719 196.895 328.703Z" fill="#407BFF"/>
<path d="M197.059 306.413H196.969C196.658 306.383 196.371 306.234 196.167 305.997C196.069 305.88 195.995 305.746 195.949 305.6C195.903 305.455 195.886 305.302 195.899 305.15C195.909 304.996 195.949 304.846 196.018 304.708C196.087 304.57 196.183 304.447 196.301 304.348C196.542 304.15 196.851 304.054 197.163 304.08C197.314 304.089 197.463 304.129 197.598 304.198C197.734 304.267 197.854 304.364 197.95 304.481C198.094 304.652 198.187 304.86 198.217 305.082C198.247 305.303 198.213 305.528 198.12 305.731C198.026 305.934 197.876 306.106 197.688 306.227C197.501 306.348 197.282 306.412 197.059 306.413ZM197.059 304.927C197.021 304.925 196.983 304.93 196.947 304.943C196.911 304.956 196.878 304.976 196.851 305.002C196.815 305.027 196.785 305.06 196.765 305.099C196.744 305.138 196.733 305.181 196.732 305.224C196.723 305.313 196.75 305.401 196.805 305.47C196.86 305.54 196.941 305.585 197.029 305.596C197.074 305.6 197.119 305.595 197.162 305.582C197.205 305.568 197.245 305.546 197.28 305.517C197.314 305.488 197.343 305.453 197.363 305.413C197.384 305.373 197.397 305.329 197.4 305.284C197.405 305.196 197.374 305.109 197.316 305.043C197.258 304.976 197.176 304.935 197.088 304.927H197.059Z" fill="#407BFF"/>
<path d="M369.672 180.044C358.928 177.072 352.91 193.982 350.027 208.129C349.348 212.066 347.515 215.712 344.761 218.606C342.007 221.5 338.456 223.512 334.558 224.386C334.558 224.386 372.406 249.009 400.611 235.397C423.317 224.431 416.065 198.5 405.841 186.567C395.618 174.635 376.225 169.776 369.672 180.044Z" fill="#263238"/>
<path d="M390.61 605.278L377.771 606.541L364.412 575.988L377.251 574.74L390.61 605.278Z" fill="#AF6B63"/>
<path d="M471.998 567.622L461.641 575.825L442.813 551.291L453.185 543.088L471.998 567.622Z" fill="#AF6B63"/>
<path d="M457.569 571.129L465.876 558.736C466.016 558.519 466.231 558.361 466.48 558.29C466.728 558.219 466.994 558.24 467.228 558.35L477.987 563.521C478.252 563.661 478.486 563.856 478.671 564.093C478.856 564.329 478.99 564.602 479.063 564.894C479.136 565.186 479.146 565.489 479.094 565.785C479.042 566.081 478.928 566.363 478.759 566.612C475.787 570.877 474.138 572.794 470.482 578.247C468.239 581.606 463.751 589.348 460.645 593.984C457.539 598.62 452.799 595.782 453.676 593.583C457.614 583.686 457.51 577.98 457.004 573.433C456.917 572.622 457.117 571.807 457.569 571.129Z" fill="#100D89"/>
<path d="M376.062 602.573H391.828C392.113 602.578 392.388 602.675 392.612 602.849C392.837 603.023 393 603.265 393.077 603.539L396.495 616.006C396.578 616.301 396.591 616.61 396.534 616.911C396.476 617.211 396.349 617.494 396.163 617.736C395.977 617.979 395.737 618.174 395.461 618.308C395.186 618.441 394.883 618.508 394.578 618.503C389.02 618.503 386.39 618.503 379.465 618.503H358.275C352.509 618.503 351.305 612.693 353.698 612.158C364.382 609.795 370.534 606.526 373.833 603.42C374.441 602.863 375.238 602.56 376.062 602.573Z" fill="#100D89"/>
<path opacity="0.2" d="M364.427 576.003L371.307 591.74H384.696L377.266 574.74L364.427 576.003Z" fill="black"/>
<path opacity="0.2" d="M453.185 543.088L442.828 551.306L452.532 563.952L462.889 555.734L453.185 543.088Z" fill="black"/>
<path d="M352.182 331.868C352.182 331.868 327.277 410.537 334.632 468.09C339.551 506.622 365.556 587.178 365.556 587.178L388.485 586.599C388.485 586.599 369.91 504.764 367.993 472.816C364.709 418.175 391.769 331.779 391.769 331.779L352.182 331.868Z" fill="#666666"/>
<path d="M362.272 588.367L390.61 587.654L388.961 578.946H360.251L362.272 588.367Z" fill="#263238"/>
<path d="M363.921 332.002C363.921 332.002 367.413 417.938 386.568 466.292C402.022 505.359 447.212 562.882 447.212 562.882L461.017 550.86C461.017 550.86 432.337 490.023 420.597 463.959C391.799 400.061 423.451 355.748 406.109 331.705L363.921 332.002Z" fill="#666666"/>
<path d="M445.785 564.546L463.513 549.954L458.698 542.093L439.291 558.246L445.785 564.546Z" fill="#263238"/>
<path d="M454.448 577.906C454.03 577.859 453.638 577.676 453.334 577.385C453.191 577.273 453.081 577.124 453.015 576.954C452.95 576.784 452.932 576.599 452.962 576.42C453.245 574.77 457.629 572.883 458.119 572.675C458.161 572.647 458.21 572.632 458.26 572.632C458.31 572.632 458.36 572.647 458.401 572.675C458.429 572.717 458.444 572.766 458.444 572.816C458.444 572.866 458.429 572.915 458.401 572.957C457.777 574.607 456.514 577.415 454.894 577.816C454.751 577.867 454.601 577.898 454.448 577.906ZM457.747 573.448C456.261 574.146 453.646 575.543 453.483 576.553C453.471 576.644 453.484 576.736 453.521 576.82C453.557 576.904 453.616 576.976 453.691 577.029C453.83 577.188 454.01 577.307 454.212 577.372C454.413 577.438 454.628 577.447 454.835 577.4C455.756 577.133 456.826 575.677 457.688 573.403L457.747 573.448Z" fill="#407BFF"/>
<path d="M454.151 573.759C453.479 573.767 452.825 573.547 452.294 573.135C452.129 572.963 452.028 572.74 452.006 572.502C451.984 572.265 452.044 572.027 452.175 571.828C452.278 571.618 452.427 571.434 452.609 571.288C452.791 571.141 453.003 571.037 453.23 570.981C455.073 570.505 458.238 572.6 458.372 572.69C458.408 572.718 458.437 572.754 458.458 572.795C458.478 572.836 458.489 572.881 458.49 572.927C458.485 572.974 458.468 573.018 458.443 573.056C458.417 573.095 458.382 573.127 458.342 573.15C457.009 573.668 455.576 573.876 454.151 573.759ZM454.077 571.441C453.841 571.403 453.6 571.403 453.364 571.441C453.206 571.477 453.059 571.547 452.933 571.648C452.807 571.748 452.705 571.876 452.636 572.021C452.442 572.407 452.546 572.6 452.636 572.719C453.364 573.447 456.157 573.299 457.629 572.823C456.547 572.133 455.34 571.663 454.077 571.441Z" fill="#407BFF"/>
<path d="M369.078 605.129C368.012 605.204 366.948 604.95 366.032 604.401C365.796 604.23 365.604 604.007 365.47 603.749C365.336 603.491 365.263 603.206 365.259 602.915C365.236 602.758 365.259 602.597 365.325 602.452C365.391 602.307 365.497 602.184 365.63 602.098C367.116 601.117 372.778 603.762 373.432 604.074C373.482 604.096 373.524 604.134 373.551 604.183C373.578 604.231 373.588 604.287 373.58 604.342C373.573 604.396 373.548 604.446 373.511 604.486C373.474 604.525 373.426 604.553 373.372 604.564C371.964 604.9 370.525 605.09 369.078 605.129ZM366.552 602.41C366.331 602.398 366.11 602.444 365.913 602.543C365.859 602.584 365.818 602.639 365.794 602.702C365.77 602.766 365.765 602.834 365.779 602.9C365.782 603.112 365.835 603.321 365.933 603.509C366.031 603.697 366.172 603.86 366.344 603.985C367.636 604.951 370.802 604.55 372.481 604.223C370.611 603.314 368.61 602.702 366.552 602.41Z" fill="#407BFF"/>
<path d="M373.313 604.579H373.224C371.5 603.881 367.889 600.983 368.082 599.542C368.082 599.245 368.335 598.858 369.122 598.754C372.198 598.397 373.58 604.044 373.58 604.282C373.589 604.328 373.585 604.376 373.57 604.42C373.554 604.465 373.527 604.504 373.491 604.535C373.466 604.554 373.437 604.567 373.407 604.575C373.376 604.583 373.344 604.584 373.313 604.579ZM369.405 599.245H369.182C368.647 599.319 368.617 599.512 368.602 599.586C368.483 600.508 371.054 602.856 372.927 603.836C372.54 602.529 371.381 599.245 369.405 599.245Z" fill="#407BFF"/>
<path d="M271.685 204.934L267.123 194.919L296.903 182.555L325.761 168.156L330.323 178.172L300.544 190.535L271.685 204.934Z" fill="#407BFF"/>
<path opacity="0.5" d="M271.685 204.934L267.123 194.919L296.903 182.555L325.761 168.156L330.323 178.172L300.544 190.535L271.685 204.934Z" fill="#918FFC"/>
<path d="M302.742 178.455L302.401 178.56C301.514 178.831 301.015 179.77 301.286 180.657L303.79 188.842C304.061 189.728 305 190.227 305.887 189.956L306.228 189.852C307.115 189.58 307.614 188.642 307.343 187.755L304.839 179.57C304.567 178.683 303.629 178.184 302.742 178.455Z" fill="#407BFF"/>
<path d="M289.953 184.418L289.662 184.625C288.906 185.162 288.728 186.21 289.265 186.966L294.221 193.945C294.758 194.701 295.806 194.878 296.562 194.341L296.853 194.135C297.609 193.598 297.787 192.55 297.25 191.794L292.294 184.815C291.757 184.059 290.709 183.881 289.953 184.418Z" fill="#407BFF"/>
<path d="M302.401 199.941L305.551 188.499L291.895 191.055C291.895 191.055 292.073 199.109 298.552 203.225L302.401 199.941Z" fill="#AF6B63"/>
<path d="M300.93 177.77L291.152 181.56L291.895 191.055L305.551 188.499L300.93 177.77Z" fill="#AF6B63"/>
<path d="M290.974 225.872C291.316 213.687 296.294 196.732 296.294 196.732L303.203 195.87C302.129 204.505 301.895 213.224 302.505 221.904L290.974 225.872Z" fill="#AF6B63"/>
<path d="M357.695 278.254C356.833 278.491 356.328 278.61 355.659 278.774L353.802 279.19L350.146 279.977C347.724 280.483 345.302 280.973 342.835 281.359C337.817 282.242 332.75 282.828 327.663 283.113C321.952 283.492 316.216 283.076 310.618 281.879C307.17 281.112 303.857 279.824 300.796 278.06C299.964 277.585 299.117 276.976 298.3 276.396L297.987 276.173L297.571 275.831L296.724 275.118C296.234 274.643 295.729 274.152 295.238 273.632C293.789 271.996 292.55 270.183 291.553 268.238C290.105 265.399 288.973 262.409 288.18 259.322C287.452 256.573 286.976 253.972 286.56 251.431C285.698 246.364 285.312 241.49 284.911 236.69C284.509 231.89 284.331 227.15 284.183 222.425L283.96 215.336L283.856 211.77C283.856 210.537 283.781 209.437 283.781 208.055L313.501 210.7C313.308 211.547 313.1 212.676 312.922 213.672L312.431 216.822C312.119 218.932 311.896 221.057 311.659 223.182C311.257 227.417 310.975 231.667 310.931 235.828C310.849 239.862 311.013 243.896 311.421 247.909C311.628 249.697 311.926 251.472 312.312 253.229C312.576 254.488 312.964 255.718 313.472 256.9C313.635 257.212 313.739 257.301 313.472 257.063C313.204 256.825 313.323 256.9 313.219 256.825C313.162 256.763 313.097 256.708 313.026 256.662L312.922 256.573C313.041 256.573 313.085 256.707 313.234 256.781C314.074 257.243 314.981 257.569 315.923 257.747C319.145 258.299 322.43 258.369 325.672 257.955C329.535 257.526 333.357 256.78 337.099 255.726C339.016 255.176 340.948 254.596 342.85 253.913C343.801 253.571 344.737 253.214 345.673 252.843L347.025 252.278C347.427 252.1 347.976 251.862 348.184 251.743L357.695 278.254Z" fill="#263238"/>
<g opacity="0.2">
<path opacity="0.2" d="M344.202 513.725C346.297 521.868 348.526 530.071 350.726 537.902C357.205 536.104 366.418 533.444 376.642 530.101C374.903 521.066 373.224 511.838 371.797 503.189L344.202 513.725Z" fill="black"/>
<path opacity="0.2" d="M428.607 481.464L399.526 492.55C403.984 500.396 408.873 508.331 413.792 515.895C423.302 511.556 431.891 506.86 438.103 501.926L428.607 481.464Z" fill="black"/>
</g>
<path d="M343.92 258.564C344.782 278.967 318.286 362.822 330.635 534.054C343.028 536.847 432.322 499.118 442.828 488.359C441.922 467.837 404.266 334.781 413.569 259.515C414.163 254.745 411.444 250.228 406.674 249.529C402.647 248.935 397.624 248.34 392.557 248.043C384.399 247.462 376.21 247.462 368.052 248.043C361.93 248.623 355.213 249.767 350.666 250.614C348.774 250.907 347.05 251.872 345.811 253.332C344.572 254.792 343.901 256.649 343.92 258.564Z" fill="#1F2629"/>
<path d="M390.06 220.597C388.574 228.488 387.088 242.887 392.557 248.177C392.557 248.177 384.696 260.466 371.292 266.529C360.622 257.494 368.052 248.236 368.052 248.236C376.835 246.126 376.597 239.603 375.052 233.48L390.06 220.597Z" fill="#AF6B63"/>
<path d="M370.727 268.357L372.392 258.846L390.476 244.209L396.673 247.776C396.673 247.776 380.416 268.877 370.727 268.357Z" fill="#E6E6E6"/>
<path d="M370.727 268.357L372.392 258.846L370.014 246.676L364.263 247.731C364.263 247.731 361.098 268.877 370.727 268.357Z" fill="#E6E6E6"/>
<path d="M372.392 258.846C372.392 258.846 380.163 266.514 380.55 273.454C385.795 268.342 398.382 251.966 398.634 247.241C395.885 244.952 390.313 243.556 390.313 243.556L372.392 258.846Z" fill="white"/>
<path d="M372.392 258.846C372.392 258.846 364.843 264.79 364.442 271.789C359.196 266.678 361.663 252.204 362.317 248.207C365.066 245.918 370.549 245.235 370.549 245.235L372.392 258.846Z" fill="white"/>
<path opacity="0.2" d="M383.938 225.872L375.022 233.48C375.406 234.906 375.665 236.363 375.795 237.834C379.153 237.344 384.205 234.312 384.547 230.806C384.644 229.138 384.437 227.466 383.938 225.872Z" fill="black"/>
<path d="M398.114 208.753C393.656 221.191 392.17 226.585 383.878 231.207C371.485 238.236 357.13 230.137 357.754 216.629C358.275 204.488 365.363 186.196 379.197 184.695C382.244 184.352 385.327 184.793 388.156 185.976C390.984 187.159 393.463 189.044 395.358 191.454C397.253 193.864 398.501 196.718 398.983 199.746C399.465 202.773 399.166 205.874 398.114 208.753Z" fill="#AF6B63"/>
<path d="M392.913 194.28C385.097 197.029 385.78 212.632 393.537 218.056C401.294 223.48 410.567 188.083 392.913 194.28Z" fill="#263238"/>
<path d="M370.014 188.722C377.89 195.632 389.198 198.307 393.166 196.301C396.049 198.545 405.648 203.092 399.927 192.259C394.206 181.426 384.072 180.029 377.474 180.118C370.876 180.207 363.312 182.778 370.014 188.722Z" fill="#263238"/>
<path d="M398.159 220.463C396.69 222.718 394.405 224.316 391.784 224.921C388.396 225.649 387.148 222.38 388.455 219.126C389.629 216.154 392.809 212.305 396.034 213.048C399.258 213.791 400.001 217.61 398.159 220.463Z" fill="#AF6B63"/>
<path d="M377.905 206.807C377.607 207.832 376.82 208.516 376.151 208.293C375.482 208.07 375.17 207.119 375.468 206.079C375.765 205.038 376.538 204.37 377.221 204.593C377.905 204.815 378.202 205.781 377.905 206.807Z" fill="#263238"/>
<path d="M366.254 203.478C365.957 204.518 365.17 205.202 364.501 204.964C363.832 204.726 363.52 203.775 363.817 202.75C364.115 201.725 364.887 201.041 365.571 201.264C366.254 201.487 366.552 202.453 366.254 203.478Z" fill="#263238"/>
<path d="M365.853 201.412L363.58 199.927C363.58 199.927 364.293 202.289 365.853 201.412Z" fill="#263238"/>
<path d="M368.825 206.138C367.238 208.224 365.373 210.084 363.282 211.666C363.702 212.19 364.23 212.617 364.83 212.917C365.43 213.217 366.089 213.384 366.76 213.404L368.825 206.138Z" fill="#7D4B4A"/>
<path d="M371.173 218.799C370.519 218.745 369.871 218.626 369.241 218.442C369.207 218.434 369.175 218.418 369.148 218.397C369.12 218.375 369.097 218.348 369.08 218.318C369.063 218.287 369.053 218.253 369.05 218.218C369.047 218.183 369.052 218.148 369.063 218.115C369.072 218.083 369.086 218.052 369.107 218.026C369.127 218 369.153 217.977 369.182 217.961C369.211 217.944 369.243 217.933 369.276 217.929C369.309 217.925 369.343 217.928 369.375 217.937C370.658 218.333 372.016 218.423 373.341 218.198C374.665 217.974 375.917 217.441 376.998 216.644C377.048 216.596 377.115 216.569 377.184 216.569C377.253 216.569 377.32 216.596 377.37 216.644C377.418 216.694 377.445 216.76 377.445 216.83C377.445 216.899 377.418 216.966 377.37 217.015C375.608 218.381 373.391 219.019 371.173 218.799Z" fill="#263238"/>
<path d="M384.265 200.759C384.175 200.751 384.089 200.719 384.016 200.667C383.943 200.614 383.885 200.543 383.849 200.461C383.513 199.726 383.006 199.081 382.37 198.582C381.734 198.083 380.987 197.744 380.193 197.593C380.055 197.571 379.931 197.498 379.845 197.387C379.76 197.277 379.719 197.138 379.732 196.999C379.754 196.865 379.826 196.744 379.934 196.662C380.042 196.579 380.177 196.54 380.312 196.553C381.277 196.728 382.186 197.132 382.962 197.732C383.738 198.332 384.358 199.11 384.77 200.001C384.827 200.125 384.835 200.268 384.791 200.398C384.746 200.528 384.654 200.636 384.532 200.699C384.449 200.739 384.357 200.759 384.265 200.759Z" fill="#263238"/>
<path d="M362.183 196.969C362.091 196.964 362.002 196.933 361.926 196.881C361.85 196.829 361.79 196.756 361.752 196.672C361.695 196.546 361.69 196.402 361.737 196.272C361.784 196.142 361.88 196.035 362.004 195.974C362.89 195.548 363.864 195.34 364.846 195.365C365.828 195.391 366.79 195.651 367.651 196.122C367.765 196.201 367.845 196.32 367.875 196.455C367.906 196.589 367.884 196.731 367.815 196.851C367.739 196.967 367.62 197.05 367.484 197.08C367.348 197.111 367.205 197.087 367.087 197.014C366.378 196.628 365.586 196.418 364.779 196.402C363.972 196.387 363.173 196.566 362.45 196.925C362.368 196.968 362.274 196.984 362.183 196.969Z" fill="#263238"/>
<path d="M463.632 256.246L465.118 244.477L476.724 252.085C476.724 252.085 473.469 259.515 465.906 260.748L463.632 256.246Z" fill="#AF6B63"/>
<path d="M473.529 236.348L481.107 243.6L476.753 252.085L465.148 244.477L473.529 236.348Z" fill="#AF6B63"/>
<path d="M464.226 284.554C468.595 273.186 470.527 255.622 470.527 255.622L464.479 252.174C462.139 260.531 458.999 268.642 455.102 276.396L464.226 284.554Z" fill="#AF6B63"/>
<path d="M412.692 254.24C413.48 255.904 414.49 257.895 415.471 259.708C416.452 261.521 417.507 263.379 418.562 265.192C420.687 268.818 422.93 272.354 425.278 275.742C427.55 279.059 429.996 282.253 432.604 285.312C433.867 286.798 435.131 288.136 436.394 289.384C437.518 290.488 438.72 291.511 439.99 292.445C440.232 292.629 440.485 292.797 440.748 292.95L441.075 293.173C441.179 293.173 441.075 293.173 441.075 293.173H440.956C440.369 292.913 439.739 292.767 439.098 292.742C438.485 292.716 437.871 292.796 437.285 292.98C436.943 293.099 436.943 293.128 437.092 292.98C437.87 292.318 438.559 291.559 439.143 290.721C440.091 289.402 440.959 288.028 441.743 286.605C443.5 283.235 444.991 279.732 446.201 276.129C446.885 274.256 447.435 272.324 447.999 270.393L448.742 267.421C448.861 266.93 448.965 266.44 449.054 265.935C449.144 265.429 449.277 264.924 449.292 264.657L477.942 273.424C477.645 274.212 477.422 274.702 477.155 275.296L476.412 276.99L474.926 280.334C473.945 282.548 472.875 284.792 471.82 286.947C469.628 291.496 467.187 295.921 464.509 300.202C463.036 302.58 461.407 304.858 459.635 307.023C457.496 309.677 455.024 312.045 452.279 314.066C450.447 315.389 448.448 316.463 446.335 317.261C443.674 318.241 440.846 318.685 438.013 318.569C435.156 318.447 432.354 317.738 429.781 316.488L428.934 316.057C428.666 315.924 428.34 315.745 428.206 315.656L427.121 315.002C426.378 314.571 425.739 314.126 425.115 313.68C420.745 310.476 416.721 306.826 413.108 302.787C409.765 299.102 406.688 295.432 403.776 291.702C400.863 287.972 398.085 284.272 395.365 280.453L391.323 274.761L389.332 271.938C388.634 270.942 388.009 270.051 387.266 268.966L412.692 254.24Z" fill="#263238"/>
<path d="M377.444 204.741L375.185 203.255C375.185 203.255 375.958 205.618 377.444 204.741Z" fill="#263238"/>
<path d="M431.445 184.948L431.207 185.884L347.516 164.887L347.754 163.95L391.784 165.734L431.445 184.948Z" fill="#263238"/>
<path d="M431.207 185.884L387.177 184.101L347.516 164.887L391.546 166.685L431.207 185.884Z" fill="#141414"/>
<path d="M410.136 195.855C394.386 190.006 378.041 185.905 361.395 183.625C360.355 183.491 359.582 182.674 359.775 181.901L362.747 170.013C362.878 169.671 363.131 169.388 363.458 169.221C363.784 169.054 364.161 169.013 364.516 169.107C381.498 171.393 398.171 175.575 414.222 181.574C414.576 181.663 414.886 181.878 415.091 182.179C415.297 182.481 415.384 182.847 415.337 183.209L412.365 195.097C412.271 195.296 412.139 195.474 411.975 195.621C411.811 195.767 411.62 195.879 411.412 195.95C411.203 196.021 410.983 196.049 410.764 196.032C410.545 196.016 410.331 195.956 410.136 195.855Z" fill="#407BFF"/>
<path d="M410.136 195.855C394.386 190.006 378.041 185.905 361.395 183.625C360.355 183.491 359.582 182.674 359.775 181.901L362.747 170.013C362.878 169.671 363.131 169.388 363.458 169.221C363.784 169.054 364.161 169.013 364.516 169.107C381.498 171.393 398.171 175.575 414.222 181.574C414.576 181.663 414.886 181.878 415.091 182.179C415.297 182.481 415.384 182.847 415.337 183.209L412.365 195.097C412.271 195.296 412.139 195.474 411.975 195.621C411.811 195.767 411.62 195.879 411.412 195.95C411.203 196.021 410.983 196.049 410.764 196.032C410.545 196.016 410.331 195.956 410.136 195.855Z" fill="#2B2B2D"/>
<path d="M417.566 230.077C417.382 230.078 417.204 230.015 417.061 229.899C416.904 229.761 416.807 229.568 416.79 229.36C416.774 229.152 416.839 228.945 416.972 228.785C424.253 220.21 420.211 216.332 414.609 210.953C411.399 207.862 407.744 204.355 405.901 199.391C400.804 185.705 416.377 176.671 416.526 176.581C416.707 176.48 416.922 176.454 417.122 176.509C417.323 176.565 417.493 176.698 417.596 176.879C417.649 176.967 417.684 177.065 417.698 177.167C417.713 177.269 417.706 177.373 417.68 177.473C417.654 177.573 417.608 177.666 417.545 177.748C417.482 177.83 417.403 177.898 417.313 177.949C416.704 178.29 402.751 186.419 407.372 198.842C409.096 203.478 412.603 206.851 415.709 209.823C421.207 215.113 426.408 220.106 418.175 229.795C418.101 229.884 418.008 229.956 417.902 230.004C417.797 230.053 417.682 230.078 417.566 230.077Z" fill="#407BFF"/>
<path d="M417.566 231.504C417.127 231.507 416.698 231.38 416.332 231.138C415.966 230.897 415.68 230.552 415.51 230.148C415.34 229.743 415.294 229.298 415.378 228.867C415.461 228.437 415.671 228.041 415.98 227.73C416.289 227.418 416.684 227.206 417.114 227.119C417.544 227.033 417.989 227.076 418.395 227.243C418.8 227.41 419.147 227.694 419.391 228.058C419.635 228.423 419.765 228.851 419.765 229.29C419.765 229.875 419.534 230.435 419.122 230.85C418.71 231.265 418.151 231.5 417.566 231.504ZM417.566 228.666C417.438 228.663 417.313 228.698 417.205 228.767C417.098 228.836 417.014 228.936 416.964 229.053C416.914 229.171 416.9 229.3 416.924 229.426C416.948 229.551 417.009 229.666 417.099 229.756C417.19 229.847 417.305 229.908 417.43 229.932C417.556 229.956 417.685 229.942 417.803 229.892C417.92 229.842 418.02 229.758 418.089 229.65C418.158 229.543 418.193 229.417 418.19 229.29C418.19 229.124 418.124 228.966 418.007 228.849C417.89 228.732 417.731 228.666 417.566 228.666Z" fill="#407BFF"/>
<circle cx="184" cy="499" r="8" stroke="#DEFEF6" stroke-width="4"/>
<defs>
<filter id="filter0_f_13_1178" x="62.0001" y="570" width="619" height="97" filterUnits="userSpaceOnUse" color-interpolation-filters="sRGB">
<feFlood flood-opacity="0" result="BackgroundImageFix"/>
<feBlend mode="normal" in="SourceGraphic" in2="BackgroundImageFix" result="shape"/>
<feGaussianBlur stdDeviation="10.5" result="effect1_foregroundBlur_13_1178"/>
</filter>
<linearGradient id="paint0_linear_13_1178" x1="272.868" y1="632.368" x2="276.314" y2="565.511" gradientUnits="userSpaceOnUse">
<stop stop-color="#F3E2FF" stop-opacity="0"/>
<stop offset="1" stop-color="#FCF9FF" stop-opacity="0.94"/>
</linearGradient>
</defs>
</svg>
