<svg width="516" height="585" viewBox="0 0 516 585" fill="none" xmlns="http://www.w3.org/2000/svg">
<g clip-path="url(#clip0_86_2314)">
<path d="M206.665 73.4996L208.317 70.7735C222.258 47.8415 247.447 34.0238 274.006 35.6735C277.426 35.8911 280.824 36.3564 284.176 37.0658C308.333 42.2372 329.351 60.4658 338.068 83.8658C343.188 97.6016 344.617 113.42 354.341 124.324C366.994 138.516 388.48 138.961 407.354 138.364C426.228 137.768 447.738 138.271 460.333 152.521C468.217 161.448 470.725 174.131 470.08 186.089C468.405 217.679 446.321 246.004 418.25 260.068C390.179 274.131 357.129 275.395 326.399 269.205C283.356 260.536 242.421 236.75 217.818 199.988C193.215 163.227 186.982 113.163 206.665 73.4996Z" fill="#F5F5F5"/>
<path d="M36.2953 546.379C21.7045 546.379 9.87637 534.566 9.87637 519.995C9.87637 505.424 21.7045 493.612 36.2953 493.612C50.886 493.612 62.7141 505.424 62.7141 519.995C62.7141 534.566 50.886 546.379 36.2953 546.379Z" fill="#F5F5F5"/>
<path d="M-311.508 478.682C-311.508 478.846 -138.456 478.986 74.9571 478.986C288.37 478.986 461.469 478.846 461.469 478.682C461.469 478.518 288.452 478.378 74.9571 478.378C-138.538 478.378 -311.508 478.53 -311.508 478.682Z" fill="#263238"/>
<path d="M423.288 487.317L319.053 532.724L93.1044 519.609L191.329 477.418L423.288 487.317Z" fill="white"/>
<path d="M423.288 487.328L191.317 477.138H191.247H191.188L92.9521 519.258L91.7805 519.773L93.0693 519.843H93.5261L319.041 532.947L423.182 487.317L318.854 532.502H318.959L93.4676 519.34H93.0107L93.1161 519.925L191.434 477.688H191.317L423.288 487.328Z" fill="#263238"/>
<path d="M344.101 512.799L288.967 510.202H288.908L258.752 521.82L257.428 522.323L258.846 522.405H259.139L316.452 525.564L343.996 512.834L316.323 525.108H316.429L259.174 521.82H258.881L258.975 522.417L289.061 510.81H288.944L344.101 512.799Z" fill="#263238"/>
<path d="M281.047 509.722L222.528 506.212H222.469L189.665 518.801L188.306 519.316L189.759 519.386L250.973 522.066H251.079L281.106 509.71L250.903 521.633H250.997L189.794 518.801L189.888 519.386L222.692 506.75H222.574L281.047 509.722Z" fill="#263238"/>
<path d="M211.245 506.037L152.725 502.527H152.608L119.804 515.127L118.433 515.642L119.898 515.712L181.112 518.392H181.206L211.233 506.037L181.03 517.959H181.124L119.921 515.127L120.015 515.712L152.819 503.077H152.702L211.245 506.037Z" fill="#263238"/>
<path d="M386.5 495.308L331.366 492.71H331.308L301.093 504.27L299.769 504.773L301.187 504.855H301.48L358.805 508.014H358.863L386.395 495.284L358.676 507.593H358.781L301.573 504.27H301.281L301.374 504.855L331.46 493.26H331.343L386.5 495.308Z" fill="#263238"/>
<path d="M323.446 492.231L264.868 488.721H264.809L232.005 501.322L230.646 501.848L232.099 501.918L293.314 504.598H293.407L323.435 492.242L293.243 504.153H293.349L232.134 501.322L232.24 501.907L265.044 489.259H264.926L323.446 492.231Z" fill="#263238"/>
<path d="M253.645 488.545L195.136 485.035H195.078H195.019L162.215 497.636L160.856 498.163L162.309 498.233L223.523 500.912H223.617L253.645 488.545L223.453 500.467H223.547L162.344 497.636L162.438 498.221L195.242 485.585H195.125L253.645 488.545Z" fill="#263238"/>
<path d="M315.222 521.095L316.288 512.963L94.8968 500.339V508.47L315.222 521.095Z" fill="#E0E0E0"/>
<path d="M380.596 485.913L316.288 512.963L96.0334 500.175L154.483 476.272L380.596 485.913Z" fill="white"/>
<path d="M380.596 485.913L154.483 475.968H154.413H154.354L95.9045 499.871L94.6627 500.386L95.9983 500.456H96.4435L316.323 513.162L380.561 485.936C379.178 486.521 356.555 495.963 316.124 512.846H316.323L96.5137 499.976H96.0685L96.174 500.561L154.588 476.541H154.471L380.596 485.913Z" fill="#263238"/>
<path d="M380.596 492.628L315.222 521.095L316.288 512.963L354.095 497.074L380.596 485.913V492.628Z" fill="#E0E0E0"/>
<path d="M340.692 493.541L286.952 491.002H286.893L257.546 502.269L256.222 502.784L257.639 502.854H257.921L313.793 505.931H313.851L340.68 493.518L313.652 505.51H313.769L257.897 502.281H257.616L257.71 502.878L286.999 491.564H286.882L340.692 493.541Z" fill="#263238"/>
<path d="M279.231 490.546L222.199 487.106H222.129L190.181 499.391L188.822 499.917H190.286L249.954 502.538L279.243 490.499L249.802 502.117H249.895L190.239 499.344L190.333 499.941L222.281 487.621H222.164L279.231 490.546Z" fill="#263238"/>
<path d="M211.198 486.954L154.155 483.514H154.096L122.136 495.799L120.777 496.326H122.229L181.897 498.946H181.956L211.245 486.907L181.804 498.525H181.897L122.241 495.764L122.335 496.361L154.272 484.041H154.155L211.198 486.954Z" fill="#263238"/>
<path d="M144.22 491.4C144.819 491.51 145.427 491.573 146.036 491.587L150.98 491.915C155.151 492.184 160.915 492.558 167.288 493.085C173.662 493.611 179.402 494.103 183.573 494.477L188.505 494.922C189.108 494.998 189.714 495.029 190.321 495.015C189.737 494.845 189.136 494.736 188.529 494.688C187.357 494.512 185.694 494.302 183.62 494.056C179.461 493.565 173.697 492.968 167.335 492.476C160.973 491.985 155.186 491.669 151.003 491.517C148.906 491.435 147.208 491.388 146.036 491.377C145.431 491.327 144.823 491.334 144.22 491.4Z" fill="#263238"/>
<path d="M149.878 495.097C150.548 495.004 151.204 494.835 151.835 494.594C153.352 494.127 154.934 493.902 156.521 493.927C158.104 493.991 159.634 494.511 160.926 495.425C161.899 496.138 162.309 496.817 162.391 496.758C162.473 496.7 162.168 495.951 161.219 495.085C159.898 493.991 158.249 493.369 156.533 493.319C154.867 493.276 153.209 493.57 151.659 494.185C151.015 494.378 150.412 494.688 149.878 495.097Z" fill="#263238"/>
<path d="M165.519 484.052C165.402 484.634 165.443 485.235 165.636 485.796C165.965 487.181 166.606 488.474 167.511 489.575C168.401 490.685 169.53 491.58 170.814 492.196C171.326 492.498 171.907 492.664 172.501 492.675C170.732 491.894 169.172 490.705 167.951 489.206C166.729 487.708 165.88 485.942 165.472 484.052H165.519Z" fill="#263238"/>
<path d="M314.8 521.539C315.408 520.245 315.766 518.848 315.855 517.421C316.149 516.023 316.185 514.584 315.96 513.174C315.406 515.937 315.014 518.73 314.788 521.539H314.8Z" fill="#263238"/>
<path d="M380.596 488.37C380.596 488.37 380.174 488.522 379.424 488.861L375.909 490.382L362.729 496.232L315.703 517.292H315.808C304.959 517.198 293.08 516.555 280.485 515.97C267.891 515.385 254.57 514.601 240.804 513.794C200.502 511.454 164.031 509.114 137.624 507.441L106.367 505.44L97.8611 504.925L95.6468 504.808H94.897C94.897 504.808 95.1547 504.808 95.6468 504.89L97.8611 505.077L106.343 505.709L137.601 507.873C163.996 509.652 200.455 512.062 240.769 514.402C254.535 515.209 267.856 515.923 280.462 516.555C293.068 517.187 304.924 517.725 315.808 517.807H315.867L362.811 496.56L375.933 490.581L379.377 488.978L380.596 488.37Z" fill="#263238"/>
<path d="M203.443 483.608L208.562 480.94L206.055 478.682L203.443 483.608Z" fill="#263238"/>
<path d="M215.51 477.734L209.511 472.411L205.997 478.893L208.562 480.94L215.51 477.734Z" fill="white"/>
<path d="M316.335 296.607L282.161 285.234L263.134 269.17L259.01 275.675L243.042 272.025L197.855 283.748L190.556 296.618L151.988 307.16L151.812 361.191L158.818 460.044L157.787 475.757H342.356L345.402 410.097L345.542 369.252L316.335 296.607Z" fill="#1BC89E"/>
<path d="M218.732 447.572L178.898 445.653C178.898 445.653 171.166 450.052 169.163 462.665C167.159 475.277 169.163 475.289 169.163 475.289L189.22 482.04L231.783 481.057L247.201 461.705L235.567 454.849L218.732 447.572Z" fill="#985952"/>
<path d="M356.555 433.017C356.555 433.017 318.338 372.832 324.77 381.537C325.567 382.602 320.892 378.085 314.871 363.32C309.083 349.151 294.017 289.61 294.017 289.61L328.449 298.736C337.505 301.135 344.851 301.919 352.677 307.09C359.472 311.594 366.56 320.451 371.176 327.167C388.363 352.205 419.831 400.971 423.803 407.207C429.485 416.111 439.971 440.868 440.838 452.778C441.705 464.689 438.412 475.348 420.159 484.871C403.312 493.646 295.68 487.527 295.68 487.527L296.266 442.845L356.555 433.017Z" fill="#1BC89E"/>
<path d="M45.3162 421.551C46.8978 417.62 107.081 351.164 137.296 320.405C141.84 315.614 146.752 311.185 151.988 307.16L161.934 371.943C161.934 371.943 158.513 386.872 156.428 397.929C155.983 400.269 124.725 421.551 124.725 421.551L118.036 425.833L179.133 441.956L176.579 480.718L67.2011 477.851C52.99 472.423 30.3787 458.734 45.3162 421.551Z" fill="#1BC89E"/>
<path d="M67.2008 477.851C67.2008 477.851 67.3765 477.851 67.7514 477.851L69.3682 477.922L75.6361 478.144L98.8331 478.846L176.567 480.987H176.906V480.694C177.141 477.067 177.398 473.218 177.656 469.322C178.277 459.857 178.828 450.602 179.449 441.932V441.675L179.203 441.616C172.654 440.271 166.397 438.586 160.399 436.936L143.259 432.186C132.399 429.179 122.721 426.64 114.579 424.885C108.228 423.415 101.785 422.367 95.295 421.75C93.0104 421.504 91.2414 421.504 90.0581 421.481H88.2422H88.6991L90.0463 421.551C91.2179 421.609 92.9987 421.633 95.2716 421.914C101.742 422.619 108.162 423.721 114.497 425.213C122.616 427.027 132.27 429.612 143.118 432.654L160.247 437.58C166.233 439.218 172.501 440.914 179.074 442.26L178.828 441.944C178.254 450.672 177.656 459.88 177.024 469.334C176.766 473.23 176.508 477.091 176.274 480.718L176.59 480.425L98.8448 478.53L75.6478 478.015L69.3799 477.91H67.7514C67.5691 477.88 67.3853 477.861 67.2008 477.851Z" fill="#263238"/>
<path d="M210.824 463.683C211.067 463.166 211.433 462.716 211.89 462.372L218.369 456.616L222.118 467.778C221.327 468.381 220.425 468.823 219.463 469.078C218.5 469.332 217.497 469.394 216.511 469.261C215.525 469.127 214.575 468.8 213.715 468.298C212.856 467.797 212.104 467.131 211.503 466.338C211.18 465.986 210.948 465.559 210.83 465.096C210.711 464.632 210.709 464.147 210.824 463.683Z" fill="#723F28"/>
<path d="M297.777 401.404L215.51 477.734L207.742 481.42L203.443 483.608L205.446 479.911L209.511 472.411L292.81 396.022C293.486 395.393 294.376 395.044 295.299 395.044C296.223 395.044 297.113 395.393 297.789 396.022C298.159 396.366 298.453 396.783 298.654 397.247C298.855 397.71 298.959 398.21 298.958 398.715C298.956 399.22 298.851 399.72 298.648 400.182C298.445 400.645 298.149 401.06 297.777 401.404Z" fill="#455A64"/>
<path d="M296.243 444.319L289.799 445.489C289.799 445.489 256.374 433.169 251.606 432.549C247.915 432.069 230.342 436.188 222.539 438.095C221.006 438.447 219.642 439.317 218.678 440.558C217.713 441.799 217.206 443.334 217.244 444.904C217.249 444.955 217.249 445.006 217.244 445.056C217.339 446.336 217.793 447.563 218.553 448.597C219.314 449.632 220.35 450.432 221.543 450.906C221.543 450.906 214.983 452.942 217.958 459.869C220.149 464.993 227.085 464.198 227.085 464.198L238.637 464.42C238.637 464.42 235.696 465.309 231.244 466.35C226.487 467.462 225.21 468.328 225.21 468.328C225.21 468.328 218.181 475.02 224.964 477.816C227.164 478.82 229.583 479.247 231.994 479.057C231.994 479.057 229.979 486.264 235.38 487.504C240.781 488.744 276.385 486.041 276.385 486.041C276.385 486.041 278.271 484.977 285.535 484.357L295.598 483.655L296.243 444.319Z" fill="#985952"/>
<path d="M296.243 444.319C296.243 444.319 296.243 444.565 296.243 445.021C296.243 445.478 296.243 446.191 296.243 447.069C296.243 448.871 296.137 451.491 296.067 454.873C295.938 461.647 295.762 471.44 295.528 483.608L295.727 483.397L286.495 484.017C284.878 484.123 283.215 484.298 281.528 484.544C279.777 484.741 278.057 485.154 276.408 485.772H276.513C269.062 486.311 260.967 486.837 252.367 487.223C248.079 487.399 243.651 487.574 239.129 487.492C238.007 487.484 236.888 487.398 235.778 487.235C234.697 487.067 233.721 486.494 233.048 485.632C232.414 484.721 232.067 483.641 232.052 482.531C231.995 481.386 232.11 480.238 232.392 479.127L232.498 478.706H232.052C230.551 478.825 229.041 478.683 227.589 478.284C226.093 477.976 224.685 477.341 223.465 476.424C222.928 475.908 222.575 475.231 222.458 474.496C222.342 473.761 222.469 473.009 222.82 472.352C223.457 470.901 224.368 469.586 225.503 468.48C227.281 467.664 229.143 467.048 231.057 466.643L238.859 464.619L240.991 464.069H238.777L227.214 463.858C225.632 463.993 224.04 463.814 222.528 463.332C221.047 462.883 219.766 461.942 218.896 460.664C218.695 460.344 218.515 460.012 218.357 459.67L217.97 458.593C217.853 458.231 217.794 457.856 217.712 457.482C217.63 457.107 217.642 456.733 217.619 456.37C217.635 455.633 217.806 454.907 218.121 454.24C218.435 453.573 218.887 452.979 219.446 452.498C220.007 452.013 220.639 451.618 221.321 451.328L221.567 451.222H221.696C221.696 451.702 221.754 450.555 221.696 450.661C221.532 450.579 221.368 450.52 221.204 450.427C220.876 450.268 220.566 450.076 220.278 449.853C219.089 448.992 218.226 447.756 217.83 446.343C217.445 444.967 217.544 443.502 218.111 442.19C218.681 440.907 219.64 439.834 220.852 439.124C222.112 438.514 223.454 438.088 224.836 437.861L228.913 436.89C231.607 436.258 234.243 435.661 236.821 435.1C239.398 434.55 241.917 434.035 244.377 433.59C245.607 433.38 246.826 433.181 248.033 433.017C249.194 432.83 250.371 432.755 251.547 432.795C253.777 433.26 255.976 433.861 258.132 434.597C260.24 435.26 262.267 435.926 264.212 436.597L274.897 440.283L289.822 445.595L294.649 444.6L295.821 444.366L296.219 444.284H295.856L294.684 444.471L289.776 445.29C286.355 444.015 281.317 442.143 274.885 439.838C271.675 438.668 268.113 437.416 264.224 436.082C262.279 435.416 260.252 434.725 258.143 434.058C255.969 433.294 253.746 432.676 251.489 432.21C250.27 432.157 249.049 432.227 247.845 432.42C246.674 432.572 245.408 432.771 244.166 432.982C241.694 433.415 239.164 433.93 236.586 434.48C234.009 435.029 231.361 435.65 228.667 436.235L224.578 437.194L222.516 437.697C221.789 437.871 221.091 438.146 220.442 438.516C219.124 439.282 218.082 440.445 217.466 441.839C216.847 443.268 216.736 444.866 217.15 446.367C217.586 447.886 218.518 449.216 219.798 450.146C220.115 450.381 220.452 450.589 220.805 450.766C220.98 450.861 221.16 450.947 221.344 451.023C221.344 451.152 221.344 450.005 221.344 450.497H221.262L221.122 450.555L220.852 450.661C220.117 450.983 219.434 451.413 218.825 451.936C218.222 452.479 217.726 453.13 217.361 453.855C217.013 454.587 216.822 455.384 216.799 456.195C216.808 456.586 216.84 456.977 216.892 457.365C216.974 457.763 217.045 458.16 217.162 458.535L217.572 459.705C217.748 460.077 217.944 460.44 218.158 460.793C219.108 462.177 220.5 463.2 222.106 463.694C223.692 464.21 225.365 464.401 227.026 464.256L238.59 464.478L238.508 463.882L230.74 465.894C228.753 466.309 226.823 466.957 224.988 467.825C223.792 468.989 222.836 470.376 222.176 471.908C221.821 472.688 221.684 473.549 221.778 474.4C221.875 475.268 222.292 476.069 222.949 476.646C224.247 477.638 225.753 478.322 227.354 478.647C228.879 479.064 230.465 479.21 232.041 479.08L231.713 478.706C231.411 479.878 231.288 481.089 231.349 482.297C231.388 483.531 231.796 484.725 232.521 485.726C233.281 486.698 234.382 487.346 235.602 487.539C236.747 487.709 237.902 487.799 239.058 487.808C243.604 487.89 248.033 487.703 252.332 487.516C260.943 487.118 269.039 486.568 276.49 486.006H276.56C278.156 485.423 279.816 485.031 281.504 484.836C283.18 484.591 284.82 484.415 286.437 484.298L295.669 483.643H295.868V483.456C295.997 471.218 296.09 461.378 296.161 454.568C296.161 451.211 296.161 448.601 296.231 446.811V444.811C296.254 444.53 296.243 444.319 296.243 444.319Z" fill="#723F28"/>
<path d="M222.118 450.86C225.184 450.875 228.248 450.696 231.291 450.321C234.352 450.136 237.397 449.745 240.406 449.151C237.339 449.128 234.275 449.308 231.232 449.69C228.171 449.875 225.126 450.266 222.118 450.86Z" fill="#723F28"/>
<path d="M258.19 483.608C258.19 483.678 258.717 483.491 259.291 482.906C260.039 482.114 260.472 481.078 260.511 479.991C260.55 478.904 260.191 477.84 259.502 476.997C258.975 476.366 258.506 476.155 258.459 476.213C258.413 476.272 258.764 476.611 259.151 477.255C259.674 478.062 259.935 479.01 259.9 479.971C259.864 480.932 259.533 481.859 258.951 482.625C258.518 483.21 258.143 483.538 258.19 483.608Z" fill="#723F28"/>
<path d="M258.729 471.51C258.729 471.58 259.35 471.51 260.147 470.995C260.672 470.644 261.115 470.183 261.443 469.643C261.771 469.103 261.977 468.498 262.046 467.871C262.115 467.243 262.046 466.608 261.843 466.01C261.641 465.411 261.31 464.865 260.873 464.408C260.205 463.706 259.619 463.531 259.596 463.601C259.573 463.671 260.03 463.987 260.545 464.677C261.206 465.579 261.522 466.687 261.435 467.801C261.285 468.909 260.735 469.924 259.889 470.656C259.233 471.241 258.694 471.44 258.729 471.51Z" fill="#723F28"/>
<path d="M258.916 457.47C258.916 457.47 259.537 457.189 260.088 456.3C260.854 455.135 261.147 453.722 260.907 452.348C260.668 450.975 259.914 449.744 258.799 448.906C257.956 448.285 257.3 448.157 257.276 448.227C257.253 448.297 257.815 448.578 258.518 449.245C259.453 450.089 260.077 451.223 260.29 452.465C260.502 453.706 260.291 454.983 259.69 456.089C259.326 456.955 258.916 457.4 258.916 457.47Z" fill="#723F28"/>
<path d="M254.699 439.417C254.699 439.417 255.015 439.277 255.238 438.809C255.495 438.187 255.536 437.497 255.353 436.85C255.17 436.203 254.775 435.636 254.23 435.24C253.797 434.959 253.469 434.936 253.445 435.006C253.422 435.076 254.429 435.708 254.781 437.03C254.913 437.823 254.886 438.635 254.699 439.417Z" fill="#723F28"/>
<path d="M237.746 464.151C239.394 464.431 241.071 464.506 242.737 464.373C244.403 464.435 246.07 464.302 247.705 463.975C246.06 463.702 244.388 463.631 242.725 463.764C241.056 463.696 239.385 463.825 237.746 464.151Z" fill="#723F28"/>
<path d="M232.333 479.01C235.37 478.661 238.38 478.11 241.343 477.36C244.352 476.822 247.322 476.087 250.235 475.16C247.195 475.493 244.182 476.028 241.214 476.763C238.208 477.317 235.241 478.067 232.333 479.01Z" fill="#723F28"/>
<path d="M321.244 370.609C321.207 370.349 321.14 370.094 321.044 369.849C320.904 369.357 320.611 368.679 320.377 367.708C319.629 365.057 319.077 362.355 318.725 359.623C318.196 355.578 318.019 351.495 318.198 347.42C318.398 342.432 319.249 337.492 320.728 332.725C322.291 327.987 324.714 323.577 327.875 319.714C330.458 316.558 333.546 313.85 337.013 311.7C339.359 310.273 341.848 309.097 344.441 308.19C345.355 307.827 346.093 307.652 346.573 307.476C346.829 307.412 347.077 307.318 347.311 307.195C347.048 307.221 346.789 307.276 346.538 307.359C346.046 307.5 345.296 307.64 344.37 307.968C341.721 308.806 339.177 309.949 336.79 311.372C333.235 313.496 330.066 316.206 327.418 319.387C324.19 323.292 321.719 327.764 320.131 332.573C318.627 337.39 317.78 342.388 317.612 347.432C317.45 351.538 317.673 355.651 318.28 359.717C318.665 362.463 319.285 365.172 320.131 367.813C320.4 368.749 320.728 369.439 320.904 369.931C320.989 370.17 321.103 370.398 321.244 370.609Z" fill="#263238"/>
<path d="M151.987 359.424C151.959 359.685 151.959 359.947 151.987 360.208C151.987 360.781 151.987 361.518 152.081 362.443C152.198 364.467 152.351 367.251 152.538 370.633C152.995 377.653 153.604 387.2 154.295 397.765C154.987 408.33 155.725 417.889 156.217 424.897C156.486 428.314 156.709 431.098 156.873 433.087C156.955 434.012 157.025 434.749 157.084 435.322C157.089 435.583 157.128 435.843 157.201 436.094C157.224 435.833 157.224 435.571 157.201 435.31C157.201 434.737 157.142 433.988 157.107 433.076C157.002 431.051 156.838 428.267 156.65 424.886C156.193 417.866 155.584 408.318 154.905 397.753C154.225 387.188 153.475 377.629 152.972 370.633C152.702 367.216 152.48 364.42 152.315 362.443C152.233 361.53 152.163 360.781 152.105 360.208C152.088 359.944 152.049 359.682 151.987 359.424Z" fill="#263238"/>
<path d="M223.348 347.209C223.491 347.113 223.624 347.003 223.746 346.882L224.918 345.864L229.077 341.909L235.485 335.696C237.922 333.274 240.722 330.572 243.592 327.424L243.147 327.307C244.495 333.157 246.029 339.803 247.658 346.87L247.834 347.607L248.208 346.952C249.919 344.015 251.723 340.961 253.434 337.814C261.377 323.622 268.219 310.6 273.35 301.263L279.442 290.218C280.145 288.955 280.696 287.949 281.106 287.223L281.528 286.439C281.565 286.432 281.598 286.411 281.621 286.381C281.643 286.351 281.654 286.313 281.65 286.275C281.647 286.238 281.629 286.203 281.601 286.177C281.573 286.152 281.536 286.138 281.499 286.138C281.461 286.138 281.424 286.152 281.396 286.177C281.368 286.203 281.351 286.238 281.347 286.275C281.343 286.313 281.354 286.351 281.376 286.381C281.399 286.411 281.432 286.432 281.469 286.439L281.001 287.2L279.232 290.137C277.72 292.711 275.576 296.443 272.975 301.088C267.75 310.378 260.85 323.376 252.918 337.545C251.161 340.692 249.403 343.758 247.705 346.683L248.255 346.765C246.592 339.745 245.045 333.099 243.663 327.226L243.546 326.746L243.218 327.12C240.382 330.256 237.606 332.97 235.192 335.439L228.878 341.734L224.824 345.782L223.758 346.858C223.607 346.958 223.47 347.076 223.348 347.209Z" fill="#263238"/>
<path d="M221.028 345.688C220.742 345.237 220.429 344.803 220.091 344.39L217.455 340.786C215.205 337.674 212.065 333.228 208.41 327.916L208.211 327.623L207.977 327.893C206.35 329.72 204.514 331.35 202.505 332.748C200.42 334.234 198.1 335.626 195.816 337.218L196.296 337.393C196.296 337.264 196.226 337.112 196.191 336.972C193.742 326.851 191.563 317.702 190.579 310.963C190.052 307.605 189.735 304.867 189.559 302.972C189.466 302.071 189.395 301.345 189.349 300.784C189.335 300.527 189.296 300.272 189.231 300.023C189.203 300.28 189.203 300.539 189.231 300.795C189.231 301.298 189.231 302.036 189.325 302.983C189.442 304.89 189.688 307.663 190.157 311.021C191.047 317.807 193.156 327.003 195.605 337.112L195.71 337.533L195.816 337.966L196.179 337.721C198.44 336.141 200.748 334.749 202.869 333.228C204.906 331.799 206.763 330.13 208.398 328.255H207.965C211.667 333.544 214.877 337.955 217.197 341.008C218.368 342.541 219.306 343.723 219.973 344.518C220.301 344.928 220.571 345.22 220.747 345.419C220.922 345.618 221.016 345.7 221.028 345.688Z" fill="#263238"/>
<path d="M224.624 435.591C224.642 435.291 224.642 434.99 224.624 434.69C224.624 434.047 224.624 433.181 224.624 432.116C224.624 429.776 224.507 426.594 224.425 422.639C224.273 414.589 224.074 403.58 223.84 391.4C223.605 379.22 223.605 368.211 223.523 360.149C223.523 356.207 223.523 352.989 223.453 350.684C223.453 349.608 223.453 348.754 223.453 348.11C223.458 347.809 223.439 347.507 223.394 347.209C223.341 347.506 223.318 347.808 223.324 348.11C223.324 348.754 223.324 349.608 223.265 350.684C223.265 353.024 223.195 356.206 223.148 360.161C223.09 368.152 223.148 379.209 223.277 391.412C223.406 403.615 223.758 414.66 224.039 422.651C224.203 426.605 224.343 429.823 224.437 432.116L224.578 434.69C224.562 434.991 224.577 435.293 224.624 435.591Z" fill="#263238"/>
<path d="M295.68 487.598C295.718 487.307 295.737 487.014 295.739 486.72C295.739 486.1 295.739 485.258 295.821 484.193C295.879 481.935 295.95 478.741 296.043 474.833C296.172 466.783 296.36 455.633 296.57 442.962L296.301 443.255L305.439 441.734L343.093 435.345L354.505 433.345L357.597 432.771L358.394 432.608L358.664 432.526H358.382L357.574 432.631L354.458 433.087L343.035 434.901L305.357 441.102L296.231 442.634H295.973V442.88C295.856 455.551 295.739 466.713 295.657 474.751C295.657 478.717 295.657 481.9 295.657 484.111C295.657 485.176 295.657 486.018 295.657 486.638C295.631 486.958 295.639 487.279 295.68 487.598Z" fill="#263238"/>
<path d="M356.555 433.017C356.555 433.134 358.605 433.274 361.815 434.035C363.696 434.489 365.544 435.071 367.345 435.778C369.538 436.663 371.657 437.719 373.683 438.937C375.692 440.191 377.599 441.599 379.389 443.149C380.838 444.426 382.197 445.802 383.454 447.268C385.598 449.783 386.652 451.561 386.758 451.491C386.574 451.043 386.342 450.615 386.067 450.216C385.782 449.729 385.473 449.256 385.141 448.8C384.743 448.262 384.333 447.63 383.782 446.998C382.56 445.469 381.216 444.041 379.764 442.728C377.971 441.128 376.043 439.687 373.999 438.422C371.942 437.183 369.783 436.122 367.544 435.252C365.712 434.557 363.828 434.01 361.909 433.614C361.1 433.415 360.351 433.333 359.695 433.227C359.136 433.138 358.573 433.08 358.007 433.052C357.527 432.979 357.039 432.967 356.555 433.017Z" fill="#263238"/>
<path d="M324.77 381.549C324.845 381.739 324.935 381.923 325.039 382.099L325.918 383.631L329.21 389.189C332.034 393.869 335.982 400.327 340.364 407.441C344.745 414.554 348.764 420.966 351.681 425.588L355.196 431.051L356.168 432.526C356.391 432.853 356.52 433.029 356.543 433.017C356.472 432.821 356.382 432.633 356.274 432.455L355.395 430.923L352.068 425.365C349.244 420.685 345.296 414.227 340.914 407.113C336.533 400 332.526 393.6 329.597 388.966L326.082 383.503C325.696 382.918 325.379 382.426 325.11 382.04C324.84 381.654 324.793 381.537 324.77 381.549Z" fill="#263238"/>
<g opacity="0.3">
<path opacity="0.3" d="M344.547 428.524C331.507 417.444 323.587 398.245 325.017 381.209L345.179 414.987L344.547 428.524Z" fill="black"/>
</g>
<g opacity="0.3">
<path opacity="0.3" d="M273.713 300.023L249.216 355.399L240.406 338.891L226.956 343.711L243.335 327.249L247.892 346.8L273.713 300.023Z" fill="black"/>
</g>
<g opacity="0.3">
<path opacity="0.3" d="M118.937 425.88C108.475 420.369 98.634 416.111 86.8598 417.175C85.2408 417.262 83.6428 417.581 82.1149 418.123C81.5722 418.521 81.1218 419.031 80.7943 419.619C80.4667 420.206 80.2698 420.857 80.217 421.528C92.9146 421.052 105.612 422.464 117.895 425.716" fill="black"/>
</g>
<g opacity="0.3">
<path opacity="0.3" d="M151.46 352.521C151.46 353.422 154.53 399.04 154.588 399.941C146.856 384.93 144.349 367.871 151.46 352.521Z" fill="black"/>
</g>
<path d="M202.295 304.083C201.662 295.893 201.123 288.967 200.994 288.124C200.994 288.124 172.876 287.668 168.741 260.243C166.737 246.999 164.828 219.363 163.398 194.349C162.663 181.397 166.834 168.644 175.082 158.622C183.33 148.601 195.052 142.046 207.918 140.26L210.566 139.897C239.41 137.557 257.429 160.793 258.975 189.645L264.317 278.94L222.645 338.89H219.235L202.295 304.083Z" fill="#985952"/>
<path d="M200.994 288.124C200.994 288.124 218.474 286.743 235.333 272.598C235.333 272.598 229.381 293.869 201.603 295.191L200.994 288.124Z" fill="#723F28"/>
<path d="M211.327 202.585C211.913 203.112 214.936 200.339 219.528 199.918C224.121 199.497 227.729 201.544 228.198 200.912C228.421 200.632 227.788 199.649 226.206 198.689C224.083 197.456 221.62 196.931 219.177 197.192C216.764 197.408 214.489 198.406 212.698 200.035C211.433 201.24 211.046 202.41 211.327 202.585Z" fill="#263238"/>
<path d="M214.397 214.648C214.523 215.615 215.022 216.495 215.788 217.1C216.554 217.706 217.526 217.989 218.497 217.889C218.978 217.871 219.45 217.754 219.884 217.546C220.318 217.339 220.704 217.044 221.02 216.681C221.335 216.318 221.572 215.894 221.717 215.436C221.861 214.977 221.91 214.494 221.86 214.016C221.734 213.051 221.237 212.172 220.474 211.565C219.711 210.958 218.742 210.671 217.771 210.764C217.293 210.793 216.825 210.918 216.395 211.13C215.965 211.342 215.582 211.638 215.268 211.999C214.954 212.361 214.715 212.781 214.566 213.236C214.416 213.691 214.359 214.171 214.397 214.648Z" fill="#263238"/>
<path d="M201.838 235.474C201.838 235.229 199.132 235.147 194.808 235.194C193.719 235.194 192.664 235.194 192.383 234.445C192.139 233.343 192.233 232.193 192.653 231.145C193.309 228.408 193.988 225.518 194.715 222.499C197.526 210.202 199.401 200.152 198.897 200.047C198.393 199.941 195.722 209.816 192.911 222.113C192.243 225.143 191.598 228.033 191.001 230.794C190.755 232.07 190.251 233.556 191.001 235.1C191.211 235.458 191.499 235.764 191.844 235.995C192.189 236.226 192.581 236.376 192.993 236.434C193.615 236.504 194.244 236.504 194.867 236.434C199.167 236.071 201.85 235.72 201.838 235.474Z" fill="#263238"/>
<path d="M212.475 187.61C212.991 188.604 216.646 187.61 221.098 187.528C225.55 187.446 229.299 188.206 229.698 187.188C229.897 186.709 229.147 185.808 227.577 184.989C225.518 184.01 223.258 183.529 220.978 183.584C218.699 183.639 216.465 184.228 214.455 185.305C212.944 186.194 212.253 187.13 212.475 187.61Z" fill="#263238"/>
<path d="M169.338 193.6C169.877 194.407 173.427 193.237 177.785 192.828C182.144 192.418 185.822 192.734 186.221 191.821C186.397 191.4 185.635 190.652 184.065 190.125C181.957 189.445 179.728 189.225 177.528 189.481C175.297 189.695 173.138 190.377 171.19 191.482C169.737 192.36 169.092 193.214 169.338 193.6Z" fill="#263238"/>
<path d="M259.585 210.296C260.03 210.027 277.709 202.106 279.712 220.955C281.715 239.803 262.349 237.943 262.256 237.405C262.162 236.867 259.585 210.296 259.585 210.296Z" fill="#985952"/>
<path d="M267.258 229.648C267.34 229.577 267.621 229.846 268.195 230.034C269.015 230.293 269.904 230.217 270.667 229.823C272.577 228.887 273.924 225.541 273.655 222.136C273.533 220.513 273.049 218.938 272.237 217.526C271.993 216.954 271.612 216.45 271.128 216.059C270.644 215.667 270.072 215.4 269.461 215.28C269.072 215.219 268.675 215.296 268.337 215.496C267.999 215.697 267.741 216.01 267.61 216.38C267.411 216.941 267.61 217.304 267.481 217.351C267.352 217.398 267.036 217.07 267.106 216.274C267.161 215.798 267.381 215.355 267.727 215.022C267.963 214.799 268.24 214.624 268.544 214.507C268.847 214.391 269.171 214.335 269.496 214.344C270.287 214.418 271.046 214.693 271.702 215.141C272.358 215.589 272.889 216.197 273.245 216.906C274.218 218.456 274.801 220.219 274.944 222.043C275.225 225.857 273.655 229.612 271.007 230.689C270.517 230.892 269.988 230.982 269.458 230.951C268.929 230.921 268.413 230.771 267.949 230.513C267.34 230.104 267.2 229.683 267.258 229.648Z" fill="#723F28"/>
<path d="M207.156 248.286C206.91 247.818 210.554 246.46 212.932 242.822C213.934 241.228 214.722 239.509 215.275 237.709C215.732 236.305 216.095 235.369 216.306 235.462C216.517 235.556 216.517 236.445 216.306 237.955C216.037 239.982 215.329 241.926 214.232 243.652C213.085 245.377 211.495 246.763 209.628 247.666C208.187 248.344 207.215 248.438 207.156 248.286Z" fill="#263238"/>
<path d="M282.77 178.051C278.4 171.639 276.912 163.742 274.323 156.429C271.734 149.117 267.024 141.687 259.549 139.569L259.385 139.651C252.66 137.44 244.565 137.92 239.469 142.822C237.5 133.076 228.362 125.857 218.591 123.962C208.82 122.066 193.52 124.57 184.545 128.864C177.61 132.198 171.107 138.505 163.293 147.666C159.993 151.522 157.015 155.643 154.389 159.986L147.711 186.287L155.748 199.333C156.229 200.245 156.757 201.131 157.33 201.989L165.636 230.069C165.543 222.277 163.223 195.308 163.117 187.516C168.952 186.967 174.616 185.245 179.766 182.452C184.917 179.659 189.448 175.853 193.086 171.265C197.034 166.292 199.987 160.196 205.481 157.014C212.569 152.931 221.473 154.99 229.358 157.166L229.018 156.897C233.165 158.496 236.964 160.88 240.207 163.917C239.475 179.37 242.076 194.799 247.834 209.161C248.7 211.314 250.973 215.725 253.188 216.415C257.546 217.784 258.413 213.385 260.826 210.916C262.595 209.102 265.384 208.705 268.43 208.517C269.929 203.685 271.253 195.647 272.354 188.557C274.982 189.177 277.717 189.177 280.345 188.557C279.392 186.662 278.451 184.766 277.521 182.871C278.586 183.555 279.784 184.006 281.036 184.193C281.661 184.274 282.297 184.164 282.858 183.875C283.419 183.587 283.878 183.134 284.176 182.579C284.773 180.999 283.695 179.384 282.77 178.051Z" fill="#263238"/>
<path d="M230.986 146.554C232.028 147.253 233.012 148.036 233.927 148.894C236.274 151.39 237.937 154.449 238.753 157.775C239.38 160.049 239.772 162.382 239.925 164.736C240.112 167.275 240.077 170.013 240.066 172.926C240.007 175.95 240.136 178.974 240.452 181.982C240.648 183.563 240.961 185.127 241.39 186.662C241.738 188.332 242.513 189.884 243.639 191.166C244.153 191.673 244.792 192.037 245.49 192.222C246.189 192.406 246.924 192.406 247.622 192.219C248.961 191.881 250.148 191.107 250.996 190.02C252.637 187.832 252.906 185.176 253.199 182.836L252.625 182.941C253.594 184.965 254.853 186.837 256.362 188.499C257.818 190.038 259.81 190.96 261.927 191.073C262.909 191.108 263.882 190.874 264.739 190.394C265.536 189.914 266.17 189.205 266.555 188.358C266.919 187.585 267.065 186.728 266.977 185.878C266.893 185.083 266.527 184.344 265.946 183.795L265.676 184.076C267.441 185.851 269.561 187.234 271.897 188.136C272.513 188.369 273.143 188.565 273.783 188.721C274.001 188.785 274.225 188.828 274.451 188.85C274.246 188.75 274.03 188.675 273.807 188.627C273.385 188.475 272.764 188.276 271.979 187.937C269.717 186.968 267.67 185.56 265.957 183.795L265.676 184.076C266.172 184.622 266.483 185.311 266.565 186.044C266.647 186.777 266.496 187.517 266.133 188.159C265.777 188.909 265.206 189.536 264.493 189.961C263.712 190.388 262.828 190.591 261.939 190.546C259.965 190.42 258.115 189.54 256.772 188.089C255.314 186.458 254.099 184.626 253.164 182.649L252.707 181.795L252.59 182.754C252.297 185.094 251.992 187.656 250.493 189.622C249.73 190.594 248.668 191.289 247.47 191.599C246.876 191.758 246.251 191.758 245.657 191.6C245.062 191.442 244.52 191.131 244.084 190.698C243.046 189.492 242.328 188.043 241.999 186.486C241.573 184.952 241.267 183.388 241.085 181.806C240.762 178.826 240.621 175.829 240.663 172.832C240.663 169.954 240.663 167.205 240.464 164.642C240.29 162.265 239.87 159.913 239.21 157.622C238.337 154.243 236.578 151.158 234.114 148.684C233.199 147.803 232.141 147.083 230.986 146.554Z" fill="#455A64"/>
<path d="M147.289 178.928L147.524 179.104L148.25 179.56C148.624 179.811 149.015 180.033 149.422 180.227C149.984 180.521 150.563 180.783 151.155 181.011C154.97 182.44 159.079 182.906 163.117 182.368C169.126 181.574 174.777 179.063 179.39 175.137C184.945 170.292 189.453 164.369 192.641 157.728C194.433 154.218 195.839 150.708 197.444 147.443C198.888 144.257 200.782 141.294 203.068 138.645C205.131 136.256 207.761 134.422 210.718 133.31C212.056 132.839 213.459 132.582 214.877 132.549C216.19 132.542 217.497 132.707 218.767 133.041C222.653 134.087 226.001 136.561 228.139 139.967C228.853 141.25 229.423 142.607 229.838 144.015C229.857 143.919 229.857 143.819 229.838 143.723C229.838 143.5 229.733 143.22 229.651 142.88C229.363 141.819 228.946 140.798 228.409 139.838C226.306 136.298 222.914 133.708 218.942 132.608C217.637 132.247 216.29 132.062 214.936 132.058C213.456 132.075 211.989 132.328 210.589 132.807C207.538 133.929 204.819 135.8 202.681 138.247C200.344 140.931 198.406 143.938 196.929 147.174C195.312 150.474 193.894 153.995 192.114 157.435C188.968 164.001 184.529 169.866 179.062 174.681C174.549 178.564 169.015 181.073 163.117 181.912C159.144 182.479 155.092 182.077 151.308 180.742C149.937 180.209 148.595 179.604 147.289 178.928Z" fill="#455A64"/>
<path d="M169.279 207.09C169.865 207.617 172.876 204.844 177.48 204.422C182.085 204.001 185.681 206.037 186.138 205.405C186.361 205.124 185.728 204.142 184.147 203.182C182.019 201.96 179.56 201.436 177.117 201.685C174.707 201.911 172.435 202.908 170.638 204.528C169.373 205.756 168.987 206.833 169.279 207.09Z" fill="#263238"/>
<path d="M176.11 218.579C176.236 219.547 176.735 220.428 177.5 221.036C178.266 221.643 179.238 221.928 180.211 221.832C180.689 221.804 181.156 221.681 181.586 221.47C182.015 221.259 182.399 220.965 182.713 220.604C183.027 220.243 183.266 219.824 183.416 219.369C183.566 218.915 183.623 218.436 183.585 217.959C183.461 216.99 182.963 216.107 182.197 215.5C181.431 214.892 180.458 214.607 179.484 214.707C179.006 214.735 178.539 214.858 178.109 215.069C177.679 215.28 177.296 215.574 176.982 215.935C176.668 216.295 176.429 216.715 176.279 217.169C176.129 217.623 176.072 218.103 176.11 218.579Z" fill="#263238"/>
<path d="M156.498 156.663C154.389 159.939 150.992 163.04 147.125 162.923C145.699 162.731 144.29 162.434 142.908 162.033C141.619 162.958 142.299 167.556 143.329 168.761C144.29 169.766 145.333 170.689 146.446 171.522C142.099 174.318 137.882 173.429 132.903 172.037C133.7 176.12 135.557 179.922 138.287 183.063C141.017 186.204 144.526 188.575 148.461 189.938C150.98 190.78 153.991 191.108 156.1 189.505C157.951 188.089 158.572 185.609 158.982 183.304C160.517 174.867 160.997 166.272 160.411 157.716L156.498 156.663Z" fill="#263238"/>
</g>
<defs>
<clipPath id="clip0_86_2314">
<rect width="516" height="585" fill="white" transform="matrix(-1 0 0 1 516 0)"/>
</clipPath>
</defs>
</svg>
