<svg width="496" height="607" viewBox="0 0 496 607" fill="none" xmlns="http://www.w3.org/2000/svg">
<g clip-path="url(#clip0_86_2415)">
<path d="M15.3556 117.461L14.4119 115.791C6.48663 101.718 6.65821 84.4288 15.3501 70.978C16.4718 69.248 17.7174 67.6017 19.0772 66.0521C28.9094 54.8993 44.668 49.2417 59.5155 51.563C68.2319 52.924 76.9536 56.8351 85.541 54.9457C96.7166 52.4881 103.281 41.3442 108.53 31.2644C113.778 21.1846 120.38 10.0457 131.57 7.63608C138.577 6.1292 145.971 8.55081 152.056 12.4124C168.139 22.6001 176.495 42.5352 175.603 61.4092C174.711 80.2831 165.636 97.9982 153.333 112.3C136.1 132.332 111.556 146.803 85.0161 148.881C58.4761 150.959 30.3687 139.477 15.3556 117.461Z" fill="#E8F9F5"/>
<path d="M226.079 606.506C277.894 606.506 319.899 582.255 319.899 552.341C319.899 522.426 277.894 498.175 226.079 498.175C174.263 498.175 132.258 522.426 132.258 552.341C132.258 582.255 174.263 606.506 226.079 606.506Z" fill="#F5F5F5"/>
<path d="M302.668 541.155C303.005 542.18 303.125 543.264 303.018 544.338C302.911 545.412 302.581 546.452 302.049 547.39C299.269 549.768 296.031 551.55 292.535 552.626C289.039 553.703 285.359 554.051 281.724 553.649C273.858 552.883 266.291 550.239 259.661 545.939C254.578 542.811 248.646 541.347 242.691 541.75C236.527 541.75 231.957 540.56 231.434 538.966C230.506 536.134 230.434 534.349 231.791 534.373L302.668 541.155Z" fill="#263238"/>
<path d="M236.289 514.763C239.308 517.04 242.922 518.393 246.694 518.659C250.466 518.925 254.234 518.093 257.543 516.262L258.828 475.923H232.243L236.289 514.763Z" fill="#985952"/>
<path d="M297.146 533.111C287.541 529.787 278.35 525.371 269.752 519.951C267.943 518.666 266.539 517.571 265.349 516.571C262.66 513.858 261.018 507.98 259.851 507.314C258.685 506.647 256.734 508.789 255.805 509.289C253.866 510.362 251.743 511.065 249.546 511.36C243.048 512.193 242.787 510.884 242.596 513.002C242.537 513.794 242.537 514.589 242.596 515.382C239.145 514.929 236.408 513.93 236.194 512.621L235.623 508.48C232.196 508.29 232.196 514.43 231.339 521.355C230.625 526.948 229.435 531.041 231.125 535.087C236.48 539.418 245.571 537.966 250.807 538.633C258.209 539.585 261.851 544.892 272.227 548.152C288.888 553.245 299.098 546.272 302.073 543.273C304.048 539.442 302.93 535.277 297.146 533.111Z" fill="#37474F"/>
<path d="M202.231 576.948C201.945 579.471 201.564 586.467 188.736 588.276C175.908 590.085 167.839 585.706 164.436 579.518C161.033 573.33 161.842 568.309 161.318 562.597C160.795 556.886 156.082 553.816 154.726 550.865C152.75 546.533 155.701 539.798 155.701 539.798L202.231 576.948Z" fill="#263238"/>
<path d="M158.724 529.875C160.271 541.583 182.976 540.727 181.144 531.374L185.285 502.982L159.605 503.696L158.724 529.875Z" fill="#985952"/>
<path d="M201.327 571.117C199.51 568.623 197.547 566.239 195.448 563.978C187.8 554.158 183.206 542.307 182.239 529.898C182.239 529.208 182.096 527.875 181.43 527.518C180.763 527.161 180.025 527.685 179.311 527.994C178.04 528.541 176.691 528.886 175.313 529.018C171.745 529.12 168.174 528.969 164.627 528.566C163.746 528.685 163.461 531.398 163.508 534.372C161.914 533.325 161.39 531.302 159.938 530.112C159.153 529.47 158.796 529.446 158.82 528.399C158.843 527.352 158.82 527.114 158.82 526.424C157.653 526.067 156.654 530.541 155.702 533.944C154.559 537.895 153.179 542.345 154.702 546.367C155.676 548.559 156.88 550.642 158.296 552.578C160.736 555.939 162.32 559.844 162.913 563.954C163.08 565.739 162.913 567.571 163.199 569.356C163.6 572.378 164.864 575.22 166.84 577.541C168.815 579.863 171.418 581.566 174.337 582.445C182.144 584.825 193.901 584.564 200.803 579.114C203.254 577.257 202.445 573.235 201.327 571.117Z" fill="#37474F"/>
<path d="M171.243 266.591C166.15 313.427 165.317 396.698 165.317 396.698C165.317 396.698 157.606 418.497 157.629 434.775C157.629 468.902 158.51 515.69 158.51 515.69C166.664 518.661 175.542 519.01 183.905 516.69C183.905 516.69 196.9 440.535 202.683 412.976C207.753 389.011 215.892 334.322 215.892 334.322L227.102 401.315C224.679 413.72 223.609 426.352 223.913 438.988C224.437 451.886 234.004 501.435 234.004 501.435C238.193 505.386 253.449 502.078 258.828 498.651C258.828 498.651 262.588 415.142 263.731 401.6C265.23 383.751 267.967 255.858 267.967 255.858L171.243 266.591Z" fill="#37474F"/>
<path d="M215.892 334.275L222.152 305.478C230.786 303.348 238.92 299.548 246.095 294.293C246.095 294.293 242.429 303.479 227.054 310.524L220.676 337.487L226.15 396.698L215.892 334.275Z" fill="#263238"/>
<path d="M445.492 138.745C444.136 134.652 436.662 138.174 428.832 141.958C421.692 145.433 407.745 152.096 406.746 150.668C405.746 149.241 406.555 143.243 404.818 139.34C403.08 135.437 398.463 134.224 398.487 137.698C398.487 139.697 397.273 146.337 396.869 149.383C396.464 152.43 395.702 156.523 392.704 158.332C389.705 160.14 331.252 169.16 331.252 169.16C331.252 169.16 285.793 142.196 276.511 136.056C267.229 129.916 259.851 123.99 246.047 124.68C227.959 131.177 234.147 147.836 241.834 158.498C246.095 164.353 247.665 164.21 263.445 170.873C282.485 178.941 312.568 196.171 328.776 198.599C346.983 196.742 394.965 183.32 399.677 182.558C405.294 181.63 408.864 182.725 413.41 181.964C418.86 181.012 423.525 180.464 428.451 177.537C429.193 177.188 429.85 176.681 430.376 176.053C430.902 175.424 431.285 174.688 431.498 173.896C431.641 173.087 431.498 172.254 431.498 171.516C431.936 170.208 432.285 168.872 432.545 167.518C432.545 165.733 430.57 164.043 430.665 162.258C430.665 161.473 431.855 159.379 431.641 158.617C431.153 157.478 430.521 156.406 429.76 155.428C429.403 154.762 428.332 153.619 429.046 152.905C429.76 152.192 432.355 151.049 437.591 147.432C442.827 143.814 446.421 141.458 445.492 138.745Z" fill="#985952"/>
<path d="M245.309 123.514C253.401 123.514 258.423 122.229 280.867 136.389C303.31 150.55 331.466 168.446 331.466 168.446L360.978 164.353C360.978 164.353 357.122 175.324 364.834 191.198C364.834 191.198 337.392 198.623 330.966 199.765C324.54 200.907 325.301 200.455 315.329 196.671C305.357 192.887 254.663 169.208 254.663 169.208L245.309 123.514Z" fill="#13A581"/>
<path d="M420.669 155.024C416.337 157.856 410.839 159.784 410.554 162.758C410.533 163.348 410.639 163.936 410.867 164.481C411.094 165.026 411.436 165.515 411.87 165.915C412.304 166.315 412.82 166.617 413.381 166.799C413.943 166.981 414.537 167.04 415.124 166.971C414.594 167.442 414.197 168.044 413.972 168.716C413.746 169.388 413.7 170.107 413.838 170.802C414.008 171.471 414.361 172.079 414.857 172.558C415.353 173.037 415.973 173.369 416.647 173.515C416.392 173.981 416.235 174.493 416.186 175.021C416.137 175.549 416.197 176.082 416.362 176.586C416.527 177.09 416.794 177.555 417.146 177.952C417.498 178.349 417.927 178.669 418.408 178.894C416.766 178.894 413.648 177.966 414.647 174.896C414.647 174.896 410.673 172.516 412.267 169.065C412.267 169.065 410.625 173.087 404.104 174.063C407.051 172.639 409.426 170.256 410.839 167.304C410.039 166.601 409.445 165.694 409.122 164.679C408.8 163.664 408.76 162.581 409.007 161.545C410.03 158.189 420.669 155.024 420.669 155.024Z" fill="#582525"/>
<path d="M211.703 124.466C198.613 126.442 183.643 127.489 174.48 128.75C164.46 130.107 160.866 138.27 160.866 155.452C160.866 180.679 173.79 222.754 173.79 222.754L171.243 266.686C182.977 279.252 238.241 283.798 268.229 265.401C268.229 265.401 269.014 179.846 268.229 165.448C266.801 140.078 252.116 123.824 242.763 123.11C242.763 122.967 234.195 120.944 211.703 124.466Z" fill="#1BC89E"/>
<path d="M199.042 45.9309C199.042 45.9309 191.902 46.9304 189.236 52.3327C186.856 57.0924 187.761 68.3729 190.831 80.7482C192.552 88.7547 195.138 96.5508 198.542 103.999C199.732 106.112 201.694 107.681 204.016 108.378L203.659 93.6946L203.112 83.485C203.112 83.485 209.68 74.5129 210.418 67.1592C211.346 57.6398 209.347 53.832 209.347 53.832L199.042 45.9309Z" fill="#263238"/>
<path d="M197.352 47.7401L187.237 43.1232C187.846 41.7217 188.975 40.6111 190.387 40.0252C191.799 39.4393 193.382 39.4237 194.805 39.9818C195.488 40.3176 196.096 40.7864 196.595 41.3605C197.094 41.9347 197.473 42.6027 197.71 43.3254C197.948 44.0481 198.038 44.8108 197.977 45.5689C197.915 46.327 197.703 47.0652 197.352 47.7401Z" fill="#263238"/>
<path d="M210.608 60.2104C210.622 65.6337 212.245 70.931 215.27 75.4322C218.296 79.9333 222.588 83.4361 227.605 85.4974C232.622 87.5586 238.137 88.0858 243.454 87.0122C248.77 85.9385 253.649 83.3123 257.472 79.4658C261.296 75.6193 263.892 70.7252 264.934 65.4028C265.975 60.0803 265.414 54.5686 263.322 49.5648C261.231 44.5611 257.701 40.2901 253.182 37.2922C248.662 34.2944 243.355 32.7043 237.931 32.7231C230.663 32.7483 223.703 35.6577 218.58 40.8119C213.456 45.966 210.589 52.9433 210.608 60.2104Z" fill="#263238"/>
<path d="M203.516 81.8669C201.136 84.0087 199.042 78.4637 196.947 76.298C194.853 74.1323 188.118 71.2051 184.762 78.3209C181.406 85.4366 187.88 95.4082 192.925 97.7643C200.327 101.191 203.659 93.7185 203.659 93.7185L204.444 124.657C212.251 138.698 227.602 138.412 230.03 144.838C231.481 139.126 239.55 132.01 234.266 125.799V115.756C238.351 116.385 242.491 116.584 246.618 116.351C253.354 115.28 256.876 110.187 258.899 102.905C262.136 91.1721 263.445 71.4669 258.899 48.6917C251.355 42.861 225.174 43.932 209.347 53.856C210.514 74.0609 205.968 79.725 203.516 81.8669Z" fill="#985952"/>
<path d="M262.66 32.5564C262.573 32.3562 262.435 32.1826 262.259 32.053C262.084 31.9234 261.877 31.8426 261.66 31.8186C261.324 31.8387 261.005 31.973 260.756 32.1994C258.872 33.7123 256.866 35.0656 254.758 36.2452C255.27 33.5403 255.27 30.7634 254.758 28.0585C254.449 26.3926 253.996 22.561 251.926 22.1564C250.712 21.8946 249.546 22.918 248.737 23.7747C240.502 31.4855 229.696 27.9157 219.819 28.2251C211.513 28.5106 201.493 31.8662 197.757 39.9577C196.043 43.6465 195.734 47.5257 199.137 50.0721C202.165 52.1105 205.63 53.4069 209.252 53.8561C225.912 56.7357 249.474 63.5421 261.613 48.1206C263.401 45.8145 264.305 42.944 264.159 40.0291C264.18 37.4771 263.618 34.9539 262.517 32.6516C262.52 32.6358 262.526 32.6208 262.535 32.6074C262.543 32.594 262.555 32.5825 262.568 32.5736C262.581 32.5647 262.596 32.5586 262.612 32.5556C262.628 32.5527 262.644 32.5529 262.66 32.5564Z" fill="#263238"/>
<path d="M234.218 115.756C234.218 115.756 219.153 112.758 213.893 109.997C210.804 108.394 208.261 105.909 206.586 102.857C207.388 105.934 208.805 108.816 210.751 111.33C214.607 116.232 234.218 119.802 234.218 119.802V115.756Z" fill="#582525"/>
<path d="M230.672 77.2973C230.685 77.7013 230.617 78.1038 230.472 78.4813C230.328 78.8588 230.11 79.2038 229.831 79.4962C229.552 79.7886 229.217 80.0225 228.847 80.1843C228.476 80.3461 228.077 80.4326 227.673 80.4387C227.046 80.4672 226.426 80.3075 225.891 79.9801C225.355 79.6527 224.931 79.1727 224.671 78.6017C224.411 78.0308 224.328 77.3952 224.433 76.7767C224.537 76.1583 224.825 75.5852 225.258 75.1315C225.691 74.6778 226.25 74.3641 226.863 74.2309C227.476 74.0976 228.115 74.1509 228.697 74.3839C229.28 74.6169 229.779 75.0189 230.131 75.5381C230.483 76.0574 230.671 76.6701 230.672 77.2973Z" fill="#263238"/>
<path d="M229.53 66.0649L222.794 69.0635C222.412 68.1458 222.4 67.1161 222.759 66.1894C223.118 65.2626 223.822 64.5103 224.722 64.0896C225.166 63.8922 225.645 63.7869 226.131 63.7799C226.617 63.773 227.099 63.8646 227.548 64.0492C227.998 64.2338 228.405 64.5076 228.746 64.8541C229.086 65.2006 229.353 65.6125 229.53 66.0649Z" fill="#263238"/>
<path d="M231.791 97.4077L241.311 101.001C241.102 101.646 240.766 102.242 240.322 102.753C239.878 103.265 239.336 103.682 238.727 103.98C238.118 104.277 237.456 104.449 236.78 104.486C236.103 104.522 235.426 104.421 234.79 104.19C233.515 103.661 232.492 102.661 231.934 101.398C231.376 100.136 231.325 98.7071 231.791 97.4077Z" fill="#B16668"/>
<path d="M234.885 104.19C235.736 104.507 236.659 104.581 237.55 104.404C237.477 103.192 236.944 102.053 236.059 101.222C235.174 100.39 234.005 99.9278 232.79 99.93C232.345 99.9276 231.902 100 231.481 100.144C231.638 101.06 232.037 101.917 232.635 102.628C233.233 103.339 234.009 103.878 234.885 104.19Z" fill="#582525"/>
<path d="M258.185 67.9923L251.212 65.4221C251.34 64.9354 251.571 64.4817 251.889 64.0912C252.207 63.7006 252.604 63.3822 253.054 63.1571C253.504 62.9319 253.997 62.8053 254.501 62.7855C255.004 62.7657 255.505 62.8532 255.972 63.0422C256.91 63.4197 257.666 64.1467 258.078 65.0702C258.491 65.9936 258.53 67.0412 258.185 67.9923Z" fill="#263238"/>
<path d="M255.567 76.2984C255.544 76.8905 255.347 77.4628 255.001 77.9439C254.655 78.425 254.175 78.7938 253.621 79.0045C253.067 79.2151 252.463 79.2582 251.885 79.1285C251.307 78.9988 250.779 78.702 250.368 78.2749C249.957 77.8479 249.681 77.3095 249.574 76.7266C249.467 76.1438 249.533 75.5423 249.765 74.9969C249.997 74.4516 250.384 73.9864 250.878 73.6592C251.372 73.3321 251.952 73.1574 252.544 73.157C252.949 73.1632 253.349 73.2495 253.721 73.411C254.093 73.5725 254.429 73.8061 254.71 74.0981C254.991 74.3901 255.211 74.7349 255.358 75.1126C255.505 75.4902 255.576 75.8932 255.567 76.2984Z" fill="#263238"/>
<path d="M240.644 75.5602L241.644 92.7665L251.164 89.5061L241.644 75.3698C241.301 75.3604 240.96 75.4254 240.644 75.5602Z" fill="#582525"/>
<path d="M204.325 115.947C202.397 116.09 201.564 116.375 199.994 119.493C198.232 123.039 196.709 126.275 196.709 126.275C197.117 131.478 199.411 136.352 203.159 139.983C206.906 143.822 211.167 147.121 215.821 149.788C217.481 147.535 219.337 145.433 221.366 143.505C222.351 142.468 223.703 141.86 225.132 141.811C226.562 141.762 227.953 142.276 229.006 143.244C228.128 141.303 226.973 139.5 225.579 137.889C224.413 136.652 219.676 135.224 213.203 131.154C209.116 128.364 206.01 124.359 204.325 119.707V115.947Z" fill="#13A581"/>
<path d="M230.672 143.053C230.905 140.461 231.861 137.987 233.433 135.913C235.099 132.677 234.195 130.13 234.218 127.394C234.242 124.657 234.218 118.541 234.218 118.541C235.415 118.548 236.576 118.955 237.515 119.696C238.455 120.438 239.121 121.472 239.407 122.634C240.787 126.037 243.667 130.249 243.667 137.936C243.667 144.838 243.024 146.123 243.024 146.123C241.002 144.248 238.802 142.574 236.456 141.125C235.965 140.803 235.408 140.595 234.826 140.519C234.244 140.443 233.653 140.5 233.096 140.686C232.539 140.871 232.032 141.181 231.612 141.591C231.192 142.001 230.871 142.501 230.672 143.053Z" fill="#13A581"/>
<path d="M174.48 128.655C161.128 128.655 152.012 137.579 143.063 152.454C136.114 163.948 110.172 207.904 104.983 220.303C100.223 231.584 99.9375 236.248 108.268 244.102C114.908 250.48 154.773 284.559 161.913 291.151C167.049 296.348 173.942 299.437 181.239 299.814C192.116 300.48 197.304 296.482 199.16 294.079C210.275 279.657 189.069 276.991 181.405 272.493C177.671 270.285 174.28 267.543 171.338 264.354L171.695 258.476C171.695 258.476 163.317 258.69 160.699 256.667C158.081 254.645 136.733 228.3 136.733 228.3L171.957 177.68C179.144 169.327 183.833 140.412 174.48 128.655Z" fill="#985952"/>
<path d="M176.717 128.655C166.055 127.036 155.916 129.63 145.229 146.527C134.543 163.424 107.459 211.593 104.365 219.137C101.271 226.681 96.7962 234.606 105.65 242.792C114.503 250.979 123.405 258.642 123.405 258.642C125.642 252.026 135.519 240.555 143.659 236.867L138.518 228.942C138.518 228.942 169.458 182.939 175.122 174.871C180.787 166.804 185.285 148.265 176.717 128.655Z" fill="#13A581"/>
</g>
<defs>
<clipPath id="clip0_86_2415">
<rect width="496" height="607" fill="white"/>
</clipPath>
</defs>
</svg>
