<svg width="657" height="541" viewBox="0 0 657 541" fill="none" xmlns="http://www.w3.org/2000/svg">
<path d="M78.7913 64.1046C95.5576 28.4677 155.114 33.4911 178.097 58.5537C201.081 83.6164 208.554 99.6754 229.285 90.3241C250.016 80.9728 276.454 83.4665 277.944 113.205C279.434 142.943 255.195 178.088 216.622 188.489C178.049 198.889 178.079 235.701 127.054 228.274C99.234 224.221 98.6032 194.189 102.532 169.349C106.461 144.508 59.3398 105.43 78.7913 64.1046Z" fill="#1BC89E"/>
<path opacity="0.9" d="M78.7913 64.1046C95.5576 28.4677 155.114 33.4911 178.097 58.5537C201.081 83.6164 208.554 99.6754 229.285 90.3241C250.016 80.9728 276.454 83.4665 277.944 113.205C279.434 142.943 255.195 178.088 216.622 188.489C178.049 198.889 178.079 235.701 127.054 228.274C99.234 224.221 98.6032 194.189 102.532 169.349C106.461 144.508 59.3398 105.43 78.7913 64.1046Z" fill="white"/>
<path d="M351 512C519.999 512 657 502.822 657 491.5C657 480.178 519.999 471 351 471C182.001 471 44.9998 480.178 44.9998 491.5C44.9998 502.822 182.001 512 351 512Z" fill="#E8E8E8"/>
<path d="M620.332 495.472H301.183C299.265 495.472 297.426 494.712 296.07 493.359C294.714 492.005 293.952 490.17 293.952 488.256V269.876L446.857 154.417C449.588 152.347 452.912 151.205 456.341 151.16C459.77 151.114 463.124 152.167 465.909 154.164L627.562 269.876V488.31C627.548 490.214 626.78 492.036 625.426 493.378C624.071 494.719 622.24 495.472 620.332 495.472Z" fill="#1BC89E"/>
<path opacity="0.2" d="M620.332 495.472H301.183C299.265 495.472 297.426 494.712 296.07 493.359C294.714 492.005 293.952 490.17 293.952 488.256V269.876L446.857 154.417C449.588 152.347 452.912 151.205 456.341 151.16C459.77 151.114 463.124 152.167 465.909 154.164L627.562 269.876V488.31C627.548 490.214 626.78 492.036 625.426 493.378C624.071 494.719 622.24 495.472 620.332 495.472Z" fill="black"/>
<path d="M563.826 392.641H337.877C340.654 390.837 342.936 388.369 344.514 385.461C346.093 382.553 346.918 379.297 346.915 375.99V37.4601C346.918 33.908 347.942 30.4313 349.864 27.4418C351.786 24.4522 354.526 22.0752 357.761 20.5923H583.71C580.476 22.0752 577.735 24.4522 575.813 27.4418C573.891 30.4313 572.868 33.908 572.864 37.4601V375.99C572.868 379.297 572.042 382.553 570.464 385.461C568.886 388.369 566.604 390.837 563.826 392.641Z" fill="white"/>
<path opacity="0.7" d="M564.103 393H338C340.779 391.196 343.063 388.728 344.642 385.82C346.222 382.912 347.047 379.657 347.044 376.35V37.8652C347.047 34.3135 348.071 30.8372 349.995 27.8481C351.918 24.859 354.661 22.4822 357.897 20.9995H584C580.764 22.4822 578.021 24.859 576.098 27.8481C574.174 30.8372 573.15 34.3135 573.147 37.8652V376.35C573.15 379.657 572.325 382.912 570.745 385.82C569.166 388.728 566.882 391.196 564.103 393Z" fill="white"/>
<path d="M557.21 121.889C554.011 120.302 544.413 122.034 541.9 122.322C539.388 122.611 538.195 122.467 535.899 122.737C533.603 123.008 533.368 122.737 532.971 121.889C532.573 121.042 528.56 121.601 527.548 121.222C526.536 120.843 517.516 122.755 507.863 122.737C498.211 122.719 504.682 122.9 503.29 121.222C501.898 119.544 497.253 122.467 496.24 122.647C495.228 122.828 492.842 122.9 492.48 121.168C492.119 119.436 489.624 122.972 487.184 122.611C484.744 122.25 490.022 118.444 486.678 120.158C483.334 121.871 475.634 122.611 475.634 122.611L478.074 124.415C468.855 124.559 460.829 124.704 459.221 124.848C457.612 124.992 456.618 124.992 454.81 122.088C453.003 119.183 453.201 122.828 446.387 124.559C439.572 126.291 437.963 125.858 434.746 124.271C431.528 122.683 429.938 124.415 427.515 124.704C425.093 124.992 423.81 124.848 421.514 125.119C419.219 125.389 419.002 125.119 418.586 124.271C418.17 123.423 414.175 123.982 413.163 123.603C412.151 123.224 403.131 125.137 393.478 125.119C383.826 125.101 390.297 125.281 388.905 123.603C387.513 121.926 382.868 124.848 381.874 125.028C380.879 125.209 378.457 125.281 378.114 123.549C377.77 121.817 375.24 125.353 372.818 124.992C370.395 124.632 375.656 120.825 372.293 122.539C368.931 124.253 361.249 124.992 361.249 124.992" stroke="#263238" stroke-linecap="round" stroke-linejoin="round"/>
<path d="M420.9 54.4001C419.888 54.0212 410.868 55.9335 401.215 55.9155C391.563 55.8975 398.034 56.0779 396.66 54.4001C395.286 52.7223 390.605 55.6449 389.61 55.8253C388.616 56.0057 386.194 56.0779 385.851 54.346C385.507 52.6141 382.995 56.15 380.554 55.7892C378.114 55.4284 383.392 51.6218 380.048 53.3537C376.704 55.0856 368.986 55.7892 368.986 55.7892" stroke="#263238" stroke-linecap="round" stroke-linejoin="round"/>
<path d="M557.211 307.977C556.216 307.598 547.197 309.51 537.544 309.492C527.891 309.474 534.345 309.655 532.971 307.977C531.597 306.299 526.933 309.222 525.921 309.402C524.909 309.582 522.523 309.655 522.161 307.923C521.8 306.191 519.305 309.727 516.865 309.366C514.425 309.005 519.703 305.199 516.359 306.912C513.015 308.626 505.296 309.366 505.296 309.366" stroke="#263238" stroke-linecap="round" stroke-linejoin="round"/>
<path d="M361.05 142.528C361.694 142.255 362.385 142.115 363.084 142.115C363.783 142.115 364.474 142.255 365.117 142.528L366.744 141.373C367.684 142.51 369.474 142.203 370.775 141.554C371.956 140.691 373.363 140.19 374.824 140.11C374.734 140.724 374.625 141.355 374.535 141.914C376.46 141.661 378.341 141.139 380.12 140.363C379.986 140.624 379.96 140.928 380.048 141.208C380.136 141.488 380.331 141.722 380.59 141.86C381.113 142.109 381.698 142.196 382.271 142.113L398.974 141.518L401.92 141.409C402.084 141.467 402.22 141.585 402.301 141.739C402.382 141.893 402.4 142.072 402.354 142.239C404.502 141.867 406.466 140.794 407.939 139.19C407.85 139.806 407.996 140.433 408.347 140.948C408.699 141.462 409.23 141.826 409.837 141.969C411.081 142.206 412.37 141.975 413.452 141.319C413.929 141.027 414.457 140.825 415.007 140.724C415.287 140.691 415.569 140.758 415.804 140.914C416.039 141.069 416.211 141.302 416.29 141.572C417.321 141.103 418.423 141.914 419.526 142.203C420.209 142.345 420.909 142.388 421.605 142.329L444.164 141.409L449.677 142.474C449.677 142.474 457.395 141.752 460.739 140.038C464.083 138.324 458.823 142.041 461.245 142.474C463.668 142.907 466.198 139.299 466.542 141.03C466.885 142.762 469.307 142.69 470.301 142.51C471.296 142.329 475.977 139.425 477.351 141.103C478.725 142.78 472.272 142.582 481.924 142.6C491.577 142.618 500.597 140.796 501.591 141.103C502.585 141.409 506.616 140.904 507.014 141.752C507.411 142.6 507.628 142.871 509.942 142.6C512.256 142.329 513.431 142.474 515.943 142.185C518.456 141.896 520.046 140.183 523.264 141.752C526.481 143.322 528.072 143.773 534.905 142.041C541.738 140.309 541.521 136.629 543.328 139.587C545.136 142.546 555.692 142.474 557.283 142.329" stroke="#263238" stroke-linecap="round" stroke-linejoin="round"/>
<path d="M556.922 107.132C556.235 107.132 557.608 107.132 556.922 107.006C555.837 106.717 557.952 105.906 556.922 106.375C556.831 105.815 546.727 105.491 546.166 105.545C545.615 105.634 545.087 105.83 544.612 106.122C543.529 106.778 542.241 107.009 540.997 106.772C540.406 106.61 539.896 106.238 539.563 105.726C539.229 105.214 539.096 104.597 539.189 103.993C537.712 105.597 535.751 106.674 533.604 107.06C533.651 106.89 533.633 106.709 533.552 106.552C533.472 106.395 533.335 106.274 533.17 106.212L530.223 106.321L513.521 106.934C512.947 107.002 512.364 106.908 511.84 106.663C511.581 106.525 511.386 106.291 511.298 106.011C511.21 105.731 511.236 105.427 511.37 105.166C509.59 105.942 507.71 106.464 505.785 106.717C505.893 106.086 505.984 105.455 506.074 104.913C504.614 105.002 503.21 105.502 502.025 106.357C500.723 107.006 498.934 107.313 497.994 106.176L496.367 107.349C495.725 107.072 495.033 106.93 494.334 106.93C493.634 106.93 492.942 107.072 492.3 107.349L476.032 105.761C476.032 105.761 468.512 105.924 467.319 105.256C466.126 104.589 461.896 106.934 461.896 106.934H456.473L449.55 107.186V105.869C446.876 106.431 444.163 106.787 441.434 106.934C437.53 107.078 436.626 107.637 436.445 105.869C436.264 104.102 431.203 106.357 427.19 107.186C423.177 108.016 423.991 107.854 422.78 105.869C421.569 103.885 420.068 106.14 417.972 106.952C416.881 107.434 415.702 107.683 414.51 107.683C413.318 107.683 412.139 107.434 411.048 106.952C409.241 105.851 401.414 107.637 398.233 107.674C395.051 107.71 398.106 106.79 397.437 105.256C396.768 103.723 394.491 107.854 392.34 107.674C390.189 107.493 394.147 103.542 391.129 103.849C388.27 104.511 385.54 105.638 383.049 107.186" stroke="#263238" stroke-linecap="round" stroke-linejoin="round"/>
<path d="M543.383 158.566C542.19 158.566 540.563 157.646 540.653 155.048C539.84 154.254 538.954 155.679 538.177 156.671C537.4 157.664 536.098 157.772 535.881 155.86C535.637 156.125 535.335 156.332 534.999 156.464C534.662 156.597 534.3 156.651 533.94 156.623C533.58 156.595 533.23 156.486 532.918 156.304C532.607 156.122 532.34 155.871 532.14 155.571C531.939 156.307 531.47 156.941 530.824 157.348C530.178 157.756 529.403 157.907 528.651 157.772L496.729 156.437C495.932 156.479 495.144 156.257 494.487 155.806C494.017 155.445 493.602 154.867 493.114 154.669C491.812 154.092 490.637 156.329 489.498 157.664C488.36 158.999 486.389 158.728 486.19 155.86C484.835 158.476 482.792 159.233 481.111 157.664C480.352 158.295 479.539 158.927 478.743 158.638C478.208 158.217 477.796 157.659 477.551 157.024C477.306 156.389 477.237 155.701 477.351 155.03C477.215 156.071 476.81 157.059 476.177 157.897C475.543 158.735 474.702 159.394 473.736 159.81C472.22 160.032 470.674 159.74 469.344 158.981L456.528 159.486C452.282 159.83 448.009 159.483 443.875 158.457C443.983 159.341 442.627 159.684 441.633 159.702L433.21 159.847C432.598 159.891 431.983 159.811 431.402 159.612C431.122 159.521 430.884 159.332 430.731 159.081C430.578 158.829 430.522 158.531 430.571 158.241C428.838 158.691 427.024 158.728 425.274 158.349C424.28 157.826 423.196 158.818 422.165 159.269C421.222 159.606 420.217 159.736 419.219 159.648L404.668 159.414C403.366 159.414 401.83 159.269 401.143 158.277C399.003 159.081 397.048 160.308 395.395 161.885C395.684 160.853 395.684 159.761 395.395 158.728C393.876 159.276 392.463 160.082 391.219 161.109C391.057 159.143 390.876 157.177 390.695 155.228C387.803 155.553 385.797 158.295 382.886 158.584C381.252 158.44 379.609 158.404 377.97 158.476C376.686 158.764 375.132 159.666 374.228 158.782C373.975 158.548 373.848 158.187 373.523 158.025C373.309 157.957 373.083 157.933 372.859 157.955C372.636 157.976 372.419 158.043 372.221 158.151C368.493 159.512 364.435 159.694 360.599 158.674" stroke="#263238" stroke-linecap="round" stroke-linejoin="round"/>
<path d="M359.134 195.549C359.134 195.549 365.298 194.827 367.973 193.095C370.649 191.363 366.437 195.116 368.389 195.549C370.341 195.982 372.348 192.356 372.637 194.087C372.926 195.819 374.842 195.765 375.638 195.585C376.433 195.404 380.175 192.482 381.277 194.16C382.38 195.837 377.21 195.657 384.893 195.675C392.575 195.693 399.841 193.871 400.637 194.16C401.432 194.448 404.65 193.961 404.975 194.827C405.3 195.693 405.463 195.928 407.307 195.675C409.15 195.422 410.108 195.549 412.115 195.26C414.121 194.971 415.405 193.24 417.99 194.827C420.574 196.415 421.84 196.83 427.299 195.116C432.758 193.402 432.595 189.704 434.041 192.644C435.487 195.585 436.282 195.549 437.566 195.404C438.849 195.26 445.284 195.116 452.659 194.971L465.999 194.52C469.828 195.547 473.88 195.371 477.604 194.015C477.801 193.908 478.018 193.841 478.242 193.819C478.466 193.797 478.691 193.821 478.906 193.889C479.231 194.051 479.376 194.394 479.629 194.647C480.514 195.513 482.069 194.647 483.37 194.322C485.01 194.266 486.652 194.308 488.287 194.448C491.179 194.16 493.186 191.417 496.096 191.075C496.258 193.041 496.439 195.008 496.62 196.956C497.858 195.934 499.265 195.134 500.777 194.593C501.075 195.624 501.075 196.718 500.777 197.75C502.423 196.163 504.38 194.934 506.526 194.142C507.213 195.134 508.731 195.26 510.032 195.278L524.602 195.513C525.6 195.598 526.604 195.469 527.548 195.134C528.578 194.683 529.663 193.691 530.657 194.196C532.404 194.59 534.221 194.559 535.953 194.106C535.904 194.396 535.961 194.694 536.114 194.945C536.266 195.197 536.505 195.386 536.785 195.477C537.367 195.669 537.981 195.743 538.592 195.693L547.016 195.549C548.01 195.549 549.348 195.206 549.257 194.322C553.36 195.332 552.872 195.693 557.03 195.35" stroke="#263238" stroke-linecap="round" stroke-linejoin="round"/>
<path d="M557.211 175.975C551.788 177.689 554.048 177.256 551.481 175.686C548.914 174.117 547.631 175.831 545.624 176.119C543.618 176.408 542.642 176.264 540.798 176.534C538.954 176.805 538.792 176.534 538.466 175.686C538.141 174.838 534.941 175.398 534.128 175.019C533.315 174.64 526.102 176.552 518.384 176.534C510.665 176.516 515.835 176.697 514.769 175.019C513.702 173.341 509.942 176.264 509.129 176.444C508.316 176.624 506.4 176.697 506.128 174.947C505.857 173.197 503.833 176.751 501.881 176.408C499.928 176.065 504.158 172.241 501.483 173.954C498.808 175.668 492.626 176.408 492.626 176.408L477.351 175.939L465.873 176.065C464.68 176.065 463.071 175.145 463.162 172.457C462.33 171.663 461.463 173.088 460.667 174.081C459.872 175.073 458.589 175.181 458.39 173.269C458.144 173.535 457.84 173.742 457.502 173.874C457.165 174.006 456.802 174.06 456.44 174.033C456.078 174.005 455.727 173.896 455.414 173.713C455.101 173.531 454.832 173.281 454.63 172.98C454.43 173.712 453.963 174.344 453.321 174.751C452.679 175.158 451.909 175.311 451.159 175.181L419.237 173.846C418.435 173.892 417.64 173.67 416.978 173.215C416.571 172.785 416.116 172.404 415.622 172.078C414.302 171.501 413.128 173.738 412.007 175.073C410.886 176.408 408.88 176.155 408.699 173.269C407.325 175.885 405.283 176.642 403.601 175.073C402.842 175.704 402.047 176.354 401.252 176.047C400.716 175.625 400.303 175.069 400.055 174.434C399.807 173.8 399.734 173.111 399.842 172.439C399.702 173.479 399.296 174.465 398.663 175.303C398.029 176.14 397.19 176.801 396.226 177.22C394.705 177.44 393.153 177.148 391.816 176.39" stroke="#263238" stroke-linecap="round" stroke-linejoin="round"/>
<path d="M557.211 57.6114L525.288 56.2584C524.491 56.3104 523.7 56.0875 523.047 55.627C522.633 55.1977 522.173 54.8164 521.673 54.4904C520.372 53.9312 519.197 56.1501 518.058 57.5032C516.919 58.8562 514.931 58.5676 514.75 55.6991C513.376 58.315 511.334 59.0727 509.653 57.5032C508.894 58.1346 508.098 58.7841 507.285 58.4954C506.754 58.0704 506.346 57.5126 506.101 56.8788C505.857 56.245 505.785 55.5578 505.893 54.8873C505.753 55.9273 505.347 56.9137 504.714 57.7512C504.081 58.5887 503.242 59.2489 502.278 59.668C500.756 59.8731 499.209 59.582 497.867 58.8382" stroke="#263238" stroke-linecap="round" stroke-linejoin="round"/>
<path d="M557.211 323.239L525.288 321.904C524.492 321.946 523.704 321.724 523.047 321.273C522.634 320.838 522.173 320.451 521.673 320.118C520.372 319.559 519.197 321.796 518.058 323.131C516.919 324.466 514.931 324.195 514.75 321.327C513.376 323.943 511.334 324.701 509.653 323.131C508.894 323.762 508.098 324.394 507.285 324.105C506.754 323.68 506.346 323.122 506.101 322.489C505.857 321.855 505.785 321.168 505.893 320.497C505.753 321.537 505.347 322.524 504.714 323.361C504.081 324.198 503.242 324.859 502.278 325.278C500.756 325.5 499.203 325.208 497.867 324.448" stroke="#263238" stroke-linecap="round" stroke-linejoin="round"/>
<path d="M359.134 229.321C363.924 230.341 368.892 230.161 373.595 228.798C374.109 228.579 374.68 228.534 375.222 228.671C375.62 228.834 375.782 229.176 376.108 229.429C377.228 230.295 379.144 229.429 380.753 229.104C382.723 228.743 384.82 229.393 386.845 229.23C390.46 228.942 392.936 226.2 396.552 225.857L397.202 231.738C398.799 230.7 400.542 229.904 402.372 229.375C402.742 230.395 402.742 231.512 402.372 232.532C404.509 230.9 406.93 229.677 409.512 228.924C410.773 229.842 412.337 230.248 413.886 230.06L431.962 230.295C433.18 230.378 434.403 230.25 435.578 229.916C436.861 229.465 438.199 228.473 439.446 228.996C441.626 229.375 443.859 229.338 446.025 228.888C445.79 229.429 446.333 230.006 447.038 230.259C447.792 230.456 448.573 230.535 449.351 230.493L459.817 230.331C461.047 230.331 462.728 229.988 462.601 229.104C467.776 230.125 473.063 230.471 478.327 230.133L491.233 230.818C493.115 230.259 495.118 230.259 497 230.818L499.295 229.645C500.633 230.782 503.182 230.493 505.025 229.826C506.821 228.954 508.778 228.462 510.774 228.383C510.647 229.014 510.502 229.627 510.376 230.187C513.061 229.94 515.714 229.42 518.293 228.635C517.805 229.122 518.293 229.844 518.944 230.133C519.72 230.378 520.537 230.47 521.348 230.403L545.027 229.79L549.221 229.681C549.691 229.772 549.998 230.187 549.836 230.529C552.513 230.214 555.049 229.158 557.156 227.481C556.723 228.689 555.475 229.934 557.156 230.241" stroke="#263238" stroke-linecap="round" stroke-linejoin="round"/>
<path d="M556.849 211.298C555.602 210.793 558.133 211.767 556.849 212.236C555.566 212.705 558.079 212.615 556.849 212.615L536.677 212.363C535.13 212.547 533.57 212.148 532.302 211.244C529.723 212.004 527.303 213.227 525.162 214.852C525.533 213.839 525.533 212.727 525.162 211.713C523.326 212.227 521.582 213.024 519.992 214.077L519.342 208.195C515.727 208.538 513.25 211.28 509.635 211.569C507.61 211.731 505.514 211.064 503.543 211.443C501.935 211.749 499.928 212.633 498.898 211.749C498.572 211.515 498.41 211.154 498.012 210.992C497.47 210.864 496.901 210.908 496.385 211.118C491.685 212.5 486.712 212.68 481.924 211.641L476.628 212.11L444.616 213.03C443.626 213.088 442.633 213.046 441.651 212.904C440.097 212.615 438.524 211.803 437.06 212.272C436.915 211.713 436.03 211.388 435.252 211.425C434.497 211.512 433.76 211.713 433.065 212.02C431.468 212.666 429.731 212.89 428.022 212.669C426.323 212.363 424.895 211.1 425.329 209.891C423.006 211.589 420.274 212.641 417.411 212.94C417.556 212.615 417.267 212.2 416.779 212.092L412.603 212.218L388.924 212.814C388.113 212.889 387.296 212.803 386.52 212.561C385.815 212.254 385.381 211.533 385.851 211.064C383.272 211.852 380.619 212.372 377.933 212.615C378.078 211.984 378.205 211.352 378.349 210.721C376.351 210.796 374.392 211.294 372.601 212.182C370.793 212.832 368.191 213.138 366.871 212.002L364.557 213.156C362.675 212.606 360.673 212.606 358.791 213.156" stroke="#263238" stroke-linecap="round" stroke-linejoin="round"/>
<path d="M358.755 247.848C360.248 248.223 361.792 248.357 363.328 248.245C364.109 248.184 364.865 247.938 365.531 247.527C366.198 247.116 366.756 246.552 367.16 245.882C367.152 246.304 367.292 246.715 367.556 247.045C367.82 247.375 368.192 247.601 368.606 247.686C369.455 247.747 370.304 247.578 371.065 247.199C371.946 247.557 372.911 247.659 373.849 247.493C374.786 247.327 375.657 246.9 376.361 246.261C376.56 247.704 378.566 247.848 379.795 247.181C381.024 246.513 382.254 245.377 383.609 245.683C384.098 245.835 384.575 246.022 385.037 246.243C385.79 246.485 386.579 246.595 387.369 246.567L420.575 247.235C421.222 247.341 421.884 247.297 422.511 247.106C423.138 246.915 423.713 246.583 424.19 246.134C424.786 246.455 425.448 246.634 426.125 246.659C426.802 246.684 427.476 246.554 428.094 246.279C428.311 247.235 429.667 247.163 430.48 246.676C431.294 246.188 432.198 245.485 433.047 245.882C432.957 247.163 434.638 247.686 435.885 247.686H447.815L452.045 247.469C453.926 246.91 455.93 246.91 457.811 247.469L460.125 246.297C461.463 247.433 464.011 247.127 465.855 246.477C467.647 245.594 469.606 245.102 471.603 245.034C471.459 245.665 471.332 246.279 471.187 246.838C473.879 246.593 476.538 246.073 479.123 245.286C478.635 245.774 479.123 246.495 479.773 246.784C480.549 247.032 481.366 247.124 482.178 247.054L505.857 246.441L510.033 246.333C510.521 246.423 510.81 246.838 510.665 247.181C513.527 246.865 516.257 245.808 518.583 244.114C518.149 245.341 519.595 246.585 521.276 246.892C522.985 247.123 524.725 246.899 526.319 246.243C527.02 245.939 527.764 245.744 528.524 245.665C529.302 245.665 530.187 245.936 530.332 246.495C531.891 246.346 533.463 246.562 534.923 247.127C535.904 247.277 536.898 247.32 537.888 247.253" stroke="#263238" stroke-linecap="round" stroke-linejoin="round"/>
<path d="M627.562 269.875V488.328C627.546 490.096 626.88 491.796 625.69 493.106C624.501 494.417 622.871 495.246 621.109 495.436H620.386H301.183H300.442C298.687 495.237 297.065 494.405 295.883 493.096C294.701 491.786 294.04 490.09 294.025 488.328V269.875L436.12 367.763L443.893 373.175L456.365 381.781L469.542 373.175L477.749 367.763L627.562 269.875Z" fill="#1BC89E"/>
<path opacity="0.2" d="M627.562 485.477V487.624C627.625 489.485 627.003 491.305 625.815 492.74C624.626 494.176 622.952 495.128 621.109 495.418H620.386H301.183H300.442C298.605 495.12 296.94 494.165 295.759 492.73C294.578 491.295 293.961 489.48 294.025 487.624V485.459L436.12 367.745L443.893 373.157L456.365 381.763L469.542 373.157L477.749 367.745L627.562 485.477Z" fill="black"/>
<path d="M627.562 486.361V488.327C627.562 490.241 626.801 492.077 625.445 493.43C624.089 494.783 622.25 495.544 620.332 495.544H301.183C299.265 495.544 297.426 494.783 296.07 493.43C294.714 492.077 293.952 490.241 293.952 488.327V486.361L443.82 373.121L446.857 370.83C449.589 368.762 452.913 367.623 456.341 367.577C459.77 367.532 463.123 368.583 465.909 370.577L469.524 373.121L627.562 486.361Z" fill="#1BC89E"/>
<path d="M89.6034 495.472H103.233L103.233 204.443H89.6034L89.6034 495.472Z" fill="#263238"/>
<path d="M78.5229 157.953H120.098C125.203 157.953 130.1 159.977 133.71 163.58C137.32 167.183 139.349 172.07 139.349 177.166V208.43H59.272V177.166C59.272 172.07 61.3002 167.183 64.9104 163.58C68.5207 159.977 73.4172 157.953 78.5229 157.953Z" fill="#1BC89E"/>
<path opacity="0.4" d="M120.568 157.953H121.923C126.526 157.953 130.939 159.777 134.194 163.025C137.448 166.273 139.276 170.678 139.276 175.272V208.43H103.233V175.253C103.237 170.666 105.065 166.269 108.315 163.025C111.565 159.782 115.971 157.957 120.568 157.953Z" fill="black"/>
<path d="M103.233 207.528H139.276L151.116 227.679C154.731 233.849 149.616 238.846 139.656 238.846C129.714 238.846 118.706 233.849 115.072 227.679L103.233 207.528Z" fill="#1BC89E"/>
<path opacity="0.2" d="M103.233 207.528H139.276L151.116 227.679C154.731 233.849 149.616 238.846 139.656 238.846C129.714 238.846 118.706 233.849 115.072 227.679L103.233 207.528Z" fill="black"/>
<path opacity="0.4" d="M103.233 178.375H109.306L115.669 205.724H103.233V178.375Z" fill="white"/>
<path opacity="0.4" d="M111.493 183.895H115.669L126.334 205.724H122.989L111.493 183.895Z" fill="white"/>
<path opacity="0.4" d="M119.736 189.451H122.429L136.709 205.724H134.594L119.736 189.451Z" fill="white"/>
<path d="M90.7062 183.444V147.76H86.2776V151.494H88.6998V183.444C87.9542 183.925 87.3525 184.598 86.958 185.391C86.5635 186.185 86.3909 187.07 86.4583 187.954C86.4583 190.588 87.9225 192.717 89.6939 192.717C91.4654 192.717 92.9295 190.588 92.9295 187.954C92.995 187.073 92.8234 186.19 92.4325 185.397C92.0416 184.604 91.4457 183.93 90.7062 183.444Z" fill="#1BC89E"/>
<path opacity="0.7" d="M90.7062 183.444V147.76H86.2776V151.494H88.6998V183.444C87.9542 183.925 87.3525 184.598 86.958 185.391C86.5635 186.185 86.3909 187.07 86.4583 187.954C86.4583 190.588 87.9225 192.717 89.6939 192.717C91.4654 192.717 92.9295 190.588 92.9295 187.954C92.995 187.073 92.8234 186.19 92.4325 185.397C92.0416 184.604 91.4457 183.93 90.7062 183.444Z" fill="white"/>
<path opacity="0.2" d="M103.233 241.607L89.6033 233.164V495.472H103.233V241.607Z" fill="white"/>
<path d="M55.5844 495.472H146.579C146.579 495.472 149.977 490.944 128.232 490.493C128.232 490.493 147.916 473.228 144.934 468.267C141.951 463.306 126.334 481.454 126.334 481.454C126.334 481.454 135.932 461.826 132.57 456.198C129.208 450.569 118.905 474.996 118.905 474.996C118.905 474.996 115.832 460.816 111.493 459.427C107.155 458.038 96.418 475.519 96.418 475.519C96.418 475.519 82.373 438.68 74.998 441.35C67.623 444.02 79.6797 469.385 79.6797 469.385C79.6797 469.385 67.0265 457.984 59.2719 462.025C51.5173 466.066 64.297 482.591 64.297 482.591C64.297 482.591 54.9156 485.531 55.5844 495.472Z" fill="#1BC89E"/>
<path opacity="0.4" d="M55.5844 495.472H146.579C146.579 495.472 149.977 490.944 128.232 490.493C128.232 490.493 147.916 473.228 144.934 468.267C141.951 463.306 126.334 481.454 126.334 481.454C126.334 481.454 135.932 461.826 132.57 456.198C129.208 450.569 118.905 474.996 118.905 474.996C118.905 474.996 115.832 460.816 111.493 459.427C107.155 458.038 96.418 475.519 96.418 475.519C96.418 475.519 82.373 438.68 74.998 441.35C67.623 444.02 79.6797 469.385 79.6797 469.385C79.6797 469.385 67.0265 457.984 59.2719 462.025C51.5173 466.066 64.297 482.591 64.297 482.591C64.297 482.591 54.9156 485.531 55.5844 495.472Z" fill="white"/>
<path d="M244.352 38.9033C246.034 37.0312 248.174 35.6266 250.563 34.8266C252.952 34.0266 255.508 33.8587 257.981 34.3391C267.019 35.7643 285.095 51.4956 283.414 68.4897C281.733 85.4838 276.491 100.963 271.14 101.648C271.14 101.648 266.386 95.6045 241.405 96.3622C216.424 97.1199 220.961 81.3526 225.028 68.7784C229.096 56.2042 227.903 33.0041 244.352 38.9033Z" fill="#263238"/>
<path d="M277.72 108.918C282.691 113.555 298.833 140.85 300.731 142.041C302.628 143.231 303.442 130.802 303.442 130.802L312.245 129.25C312.245 129.25 316.999 159.36 304.237 156.617C289.921 153.515 271.122 127.464 271.122 127.464C271.122 127.464 272.478 119.021 273.165 115.936C273.852 112.851 277.72 108.918 277.72 108.918Z" fill="#1BC89E"/>
<path opacity="0.4" d="M304.237 156.617C293.175 154.218 279.455 138.144 273.779 130.946C272.098 128.817 271.122 127.464 271.122 127.464C271.122 127.464 271.845 123.008 272.478 119.4C272.731 118.029 272.984 116.784 273.165 115.936C273.87 112.833 277.72 108.918 277.72 108.918C282.691 113.555 298.833 140.85 300.731 142.041C302.628 143.231 303.442 130.802 303.442 130.802L312.245 129.25C312.245 129.25 316.999 159.287 304.237 156.617Z" fill="white"/>
<path opacity="0.2" d="M273.779 130.946C272.098 128.817 271.122 127.464 271.122 127.464C271.122 127.464 271.845 123.008 272.478 119.4C273.921 123.067 274.37 127.05 273.779 130.946Z" fill="black"/>
<path d="M269.875 131.18C267.561 138.108 265.754 144.097 264.289 149.473C260.357 162.937 257.819 176.769 256.716 190.75L201.06 184.779C199.596 145.09 201.06 123.207 202.271 112.31C203.627 100.71 205.434 100.313 205.434 100.313C205.434 100.313 218.087 99.339 229.078 99.6457C237.578 100.092 246.035 101.147 254.384 102.803C262.301 104.272 270.101 106.316 277.72 108.918C276.364 112.527 275.135 115.99 273.996 119.22C272.478 123.513 271.104 127.482 269.875 131.18Z" fill="#1BC89E"/>
<path opacity="0.4" d="M277.72 108.919C276.364 112.527 275.135 115.99 273.996 119.22C272.478 123.513 271.104 127.482 269.875 131.181C267.561 138.108 265.754 144.097 264.29 149.474C260.357 162.938 257.819 176.769 256.716 190.75L201.06 184.779C200.879 179.89 200.752 175.289 200.644 170.924C200.427 161.11 200.391 152.613 200.499 145.27C200.499 143.971 200.499 142.708 200.499 141.482C200.752 129.358 201.349 120.699 201.945 114.71C202.054 113.844 202.126 113.05 202.217 112.31C203.572 100.71 205.38 100.313 205.38 100.313C205.38 100.313 218.033 99.339 229.023 99.6277C237.523 100.089 245.98 101.15 254.33 102.803C262.265 104.269 270.083 106.313 277.72 108.919Z" fill="white"/>
<path opacity="0.2" d="M207.422 116.694C207.422 116.694 206.103 131.343 200.553 141.482C200.807 129.358 201.403 120.699 202 114.709C203.879 115.154 205.7 115.821 207.422 116.694Z" fill="black"/>
<path opacity="0.2" d="M253.914 168.614L237.429 166.63C237.429 166.63 234.952 171.537 231.03 172.042C227.107 172.547 217.961 165.548 217.961 165.548C212.591 168.447 206.711 170.285 200.644 170.96C200.427 161.146 200.391 152.649 200.499 145.306C205.543 145.667 218.575 147.453 236.995 155.752C239.254 156.726 253.914 168.614 253.914 168.614Z" fill="black"/>
<path d="M306.497 479.614L295.091 481.617L290.409 466.102L286.143 451.868L299.285 447.268L303.117 464.388L306.497 479.614Z" fill="#E4897B"/>
<path opacity="0.2" d="M303.171 464.748L290.463 466.408L286.179 452.012L299.303 447.357L303.171 464.748Z" fill="black"/>
<path d="M230.379 484.846H218.792L216.894 468.573L215.177 453.726L228.915 451.435L229.692 469.114L230.379 484.846Z" fill="#E4897B"/>
<path opacity="0.2" d="M229.692 469.277L216.894 468.699L215.177 453.78L228.915 451.471L229.692 469.277Z" fill="black"/>
<path d="M304.237 455.71L285.493 459.012C266.585 411.98 253.137 372.724 243.629 340.143C238.513 322.572 234.247 306.931 231.174 293.057L231.753 344.256V459.589H213.279C166.987 239.495 200.102 184.544 200.102 184.544L255.197 180.142C257.397 190.384 258.949 200.753 259.843 211.19L262.337 229.537L284.028 341.153L304.237 455.71Z" fill="#263238"/>
<path opacity="0.2" d="M243.629 340.143C238.513 322.572 234.591 306.931 231.464 293.057C231.735 276.64 232.942 260.25 235.079 243.969C235.079 243.969 243.159 307.219 243.629 340.143Z" fill="black"/>
<path d="M200.897 175.722L257.963 179.06L257.059 188.874L199.56 185.41L200.897 175.722Z" fill="black"/>
<path d="M240.267 178.41C239.581 177.652 238.63 177.187 237.609 177.111L230.596 176.66C230.182 176.621 229.765 176.671 229.372 176.807C228.98 176.942 228.621 177.16 228.319 177.445C228.018 177.73 227.781 178.077 227.625 178.461C227.469 178.846 227.397 179.259 227.415 179.673V184.183C227.436 185.152 227.796 186.084 228.434 186.815C229.071 187.547 229.945 188.032 230.903 188.188H231.211L238.224 188.621C238.636 188.657 239.052 188.606 239.442 188.469C239.833 188.332 240.189 188.114 240.489 187.829C240.788 187.544 241.023 187.198 241.178 186.815C241.333 186.433 241.404 186.021 241.387 185.608V181.116C241.366 180.106 240.966 179.141 240.267 178.41ZM238.061 186.835L231.048 186.402C230.548 186.371 230.08 186.144 229.746 185.771C229.406 185.408 229.213 184.932 229.204 184.436V179.944C229.198 179.742 229.235 179.542 229.312 179.356C229.39 179.17 229.506 179.003 229.652 178.864C229.799 178.726 229.974 178.621 230.165 178.555C230.355 178.489 230.558 178.464 230.759 178.482L237.772 178.915H237.917C238.355 178.997 238.754 179.219 239.056 179.547C239.396 179.902 239.59 180.372 239.598 180.864V181.549C239.508 181.533 239.416 181.533 239.327 181.549L237.356 181.405C237.207 181.394 237.057 181.415 236.917 181.468C236.777 181.52 236.65 181.603 236.545 181.709C236.441 181.816 236.36 181.944 236.31 182.084C236.259 182.225 236.24 182.375 236.254 182.523C236.288 182.853 236.434 183.161 236.667 183.397C236.901 183.633 237.207 183.783 237.537 183.822L239.507 183.967H239.598V185.446C239.596 185.64 239.554 185.832 239.474 186.01C239.395 186.187 239.279 186.346 239.135 186.477C238.99 186.607 238.82 186.706 238.636 186.768C238.451 186.83 238.255 186.853 238.061 186.835Z" fill="white"/>
<path d="M216.081 476.962C216.081 475.771 230.975 476.71 230.975 476.71C230.975 476.71 240.104 485.982 249.051 488.075C257.999 490.168 252.974 495.472 243.05 495.472H218.431C211.381 495.472 215.792 489.428 216.081 476.962Z" fill="#263238"/>
<path d="M238.784 480.498C236.64 480.258 234.555 479.647 232.62 478.694L232.494 478.604C232.458 478.505 232.458 478.396 232.494 478.297C232.494 478.153 233.795 474.689 235.82 473.859C236.119 473.717 236.446 473.643 236.778 473.643C237.109 473.643 237.437 473.717 237.736 473.859C238.423 474.184 238.748 474.599 238.712 475.104C238.712 475.88 237.609 476.673 236.398 477.305C237.525 477.109 238.684 477.235 239.742 477.666C239.934 477.772 240.102 477.917 240.236 478.091C240.369 478.264 240.466 478.463 240.52 478.676C240.626 478.945 240.65 479.239 240.589 479.522C240.528 479.804 240.384 480.062 240.176 480.263C239.753 480.498 239.262 480.581 238.784 480.498ZM233.994 478.369C236.181 479.307 238.893 480.173 239.598 479.542C239.598 479.542 239.851 479.343 239.598 478.766C239.571 478.654 239.519 478.549 239.448 478.459C239.376 478.368 239.285 478.295 239.182 478.243C237.473 477.818 235.681 477.862 233.994 478.369ZM236.651 474.292C236.44 474.292 236.231 474.335 236.037 474.418C234.873 475.19 233.982 476.307 233.488 477.611C235.693 476.764 237.826 475.627 237.862 474.96C237.862 474.743 237.537 474.545 237.338 474.454C237.124 474.352 236.889 474.296 236.651 474.292Z" fill="#263238"/>
<path d="M292 476.962C292 475.771 306.895 476.71 306.895 476.71C306.895 476.71 316.023 485.982 324.97 488.075C333.918 490.168 328.893 495.472 318.969 495.472H294.35C287.3 495.472 291.711 489.428 292 476.962Z" fill="#263238"/>
<path d="M314.703 480.498C312.559 480.258 310.474 479.647 308.539 478.694L308.413 478.604C308.377 478.505 308.377 478.396 308.413 478.297C308.413 478.153 309.714 474.689 311.739 473.859C312.038 473.717 312.365 473.643 312.697 473.643C313.028 473.643 313.356 473.717 313.655 473.859C314.342 474.184 314.667 474.599 314.631 475.104C314.631 475.88 313.528 476.673 312.317 477.305C313.444 477.109 314.603 477.235 315.661 477.666C315.853 477.772 316.021 477.917 316.155 478.091C316.288 478.264 316.385 478.463 316.439 478.676C316.545 478.945 316.569 479.239 316.508 479.522C316.447 479.804 316.303 480.062 316.095 480.263C315.672 480.498 315.181 480.581 314.703 480.498ZM309.913 478.369C312.1 479.307 314.812 480.173 315.517 479.542C315.517 479.542 315.77 479.343 315.517 478.766C315.49 478.654 315.438 478.549 315.367 478.459C315.295 478.368 315.204 478.295 315.101 478.243C313.392 477.818 311.6 477.862 309.913 478.369ZM312.57 474.292C312.359 474.292 312.15 474.335 311.956 474.418C310.792 475.19 309.901 476.307 309.407 477.611C311.612 476.764 313.745 475.627 313.781 474.96C313.781 474.743 313.456 474.545 313.257 474.454C313.043 474.352 312.808 474.296 312.57 474.292Z" fill="#263238"/>
<path d="M293.934 96.4521C293.934 96.4521 278.081 111.137 277.43 116.477C276.78 121.817 273.165 142.04 273.165 142.04H300.73C300.73 142.04 305.032 122.665 307.165 119.219C309.298 115.774 320.759 106.14 320.759 106.14L293.934 96.4521Z" fill="#1BC89E"/>
<path opacity="0.7" d="M293.934 96.4521C293.934 96.4521 278.081 111.137 277.43 116.477C276.78 121.817 273.165 142.04 273.165 142.04H300.73C300.73 142.04 305.032 122.665 307.165 119.219C309.298 115.774 320.759 106.14 320.759 106.14L293.934 96.4521Z" fill="white"/>
<path d="M213.912 99.7537C216.901 104.538 220.915 108.602 225.666 111.652C230.417 114.703 235.786 116.665 241.387 117.397C260.168 119.544 266.693 105.491 266.693 105.491C266.693 105.491 241.387 96.4523 213.912 99.7537Z" fill="#985952"/>
<path d="M241.948 114.511C230.198 108.287 228.481 101.63 228.481 101.63C239.11 97.21 237.429 81.9839 237.429 81.9839L251.239 90.3547C250.116 92.2852 249.131 94.2927 248.292 96.3621C244.785 105.382 248.816 106.952 248.816 106.952C249.594 112.797 241.948 114.511 241.948 114.511Z" fill="#985952"/>
<path opacity="0.2" d="M251.238 90.3546C250.116 92.2852 249.131 94.2927 248.292 96.3621C238.26 92.5916 237.447 81.9297 237.447 81.9297L251.238 90.3546Z" fill="black"/>
<path d="M258.704 45.8128C271.881 49.9621 273.888 58.4411 270.562 72.206C266.404 89.5249 258.831 100.367 243.448 91.5454C222.661 79.5845 236.814 38.9033 258.704 45.8128Z" fill="#985952"/>
<path d="M262.265 68.7783C262.698 71.0802 263.408 73.3214 264.38 75.4533C263.821 75.8722 263.158 76.1292 262.463 76.1961C261.768 76.2629 261.067 76.137 260.439 75.8322L262.265 68.7783Z" fill="#5E2F2C"/>
<path d="M254.546 65.1705C254.239 66.2529 253.39 66.9746 252.739 66.7581C252.088 66.5416 251.672 65.4952 251.98 64.3947C252.287 63.2942 253.155 62.5907 253.787 62.8072C254.42 63.0237 254.872 64.07 254.546 65.1705Z" fill="#263238"/>
<path d="M253.48 62.7712L256.137 62.5366C256.137 62.5366 254.366 64.1783 253.48 62.7712Z" fill="#263238"/>
<path d="M268.176 68.8685C267.85 69.951 267.001 70.6726 266.278 70.4561C265.555 70.2396 265.211 69.1933 265.537 68.1108C265.862 67.0284 266.693 66.3068 267.435 66.5233C268.176 66.7398 268.483 67.7861 268.176 68.8685Z" fill="#263238"/>
<path d="M267.109 66.487L269.748 66.2344C269.748 66.2344 267.995 67.8942 267.109 66.487Z" fill="#263238"/>
<path d="M257.294 56.0417C256.292 55.5881 255.2 55.3686 254.101 55.3999C253.001 55.4312 251.923 55.7124 250.949 56.2221" stroke="#263238" stroke-width="0.72468" stroke-linecap="round" stroke-linejoin="round"/>
<path d="M267.037 58.5132C268.009 58.5688 268.956 58.8427 269.807 59.3143C270.659 59.786 271.392 60.4433 271.954 61.2373" stroke="#263238" stroke-width="0.72468" stroke-linecap="round" stroke-linejoin="round"/>
<path d="M256.878 80.4144C255.784 81.6975 254.787 83.0603 253.896 84.4915L253.064 84.1488C249.449 82.5432 248.166 80.5407 247.967 78.8809C247.884 78.0534 248.002 77.2182 248.31 76.4455C248.476 76.0025 248.701 75.5838 248.979 75.2007C250.833 77.2011 253.095 78.782 255.613 79.8371C256.372 80.2159 256.878 80.4144 256.878 80.4144Z" fill="#263238"/>
<path d="M255.613 79.9094L254.709 81.1C251.221 79.5846 248.961 78.0512 248.31 76.5177C248.476 76.0747 248.701 75.656 248.979 75.2729C250.833 77.2733 253.095 78.8543 255.613 79.9094Z" fill="white"/>
<path d="M253.064 84.1487C249.449 82.5431 248.166 80.5406 247.967 78.8809C249.368 79.5117 250.642 80.392 251.727 81.4787C252.452 82.1996 252.922 83.1371 253.064 84.1487Z" fill="#DE5753"/>
<path d="M237.284 63.4385C237.284 63.4385 246.864 54.5806 248.564 45.9392C248.564 45.9392 278.045 43.5218 270.96 70.3841C270.96 70.3841 280.956 47.7072 258.469 40.04C235.983 32.3728 225.607 65.4771 234.175 79.0075C234.175 79.0075 231.319 69.0852 237.284 63.4385Z" fill="#263238"/>
<path d="M238.549 66.8842C238.901 65.3247 238.619 63.6898 237.765 62.3374C236.911 60.985 235.555 60.0252 233.994 59.668C229.765 58.8382 225.173 66.5776 234.699 71.7913C236.055 72.5309 237.338 71.3583 238.549 66.8842Z" fill="#985952"/>
<path d="M311.739 129.34L311.052 123.549C311.052 123.549 312.389 119.941 311.739 118.462C310.51 115.521 302.701 111.895 301.526 111.246C300.351 110.596 294.838 119.346 295.561 121.114C296.284 122.882 305.34 126.941 305.34 126.941V130.549L311.739 129.34Z" fill="#985952"/>
<path d="M263.946 155.192L256.462 144.603C256.462 144.603 237.248 146.822 236.995 147.399L231.12 161.092C231.057 161.241 231.025 161.403 231.026 161.565C231.027 161.728 231.062 161.889 231.128 162.038C231.194 162.186 231.29 162.32 231.41 162.43C231.53 162.541 231.671 162.625 231.825 162.679L256.264 170.942C256.545 171.034 256.851 171.019 257.121 170.899C257.392 170.779 257.608 170.563 257.728 170.292L263.856 156.545C263.992 156.108 264.023 155.644 263.946 155.192Z" fill="#1BC89E"/>
<path opacity="0.1" d="M264 155.679C260.399 157.04 256.498 157.414 252.703 156.762C246.394 155.355 236.995 147.363 236.995 147.363C237.248 146.785 256.463 144.566 256.463 144.566L263.946 155.156C263.946 155.156 263.982 155.409 264 155.679Z" fill="black"/>
<path opacity="0.1" d="M238.26 147.724C246.387 151.663 255.066 154.345 264 155.68C264 155.68 249.431 150.845 238.26 147.724Z" fill="black"/>
<path d="M203.319 153.749L224.522 155.283C224.522 155.283 227.866 153.045 229.674 153.478C231.482 153.911 241.134 159.179 241.333 160.695C241.532 162.21 236.398 169.029 234.103 168.705C231.807 168.38 224.107 162.571 223.582 161.741L198.276 162.21L203.319 153.749Z" fill="#985952"/>
<path d="M207.079 100.205C209.628 101.016 211.652 108.918 204.982 122.34C204.982 122.34 195.944 142.708 197.752 146.118C199.794 150.249 218.015 153.622 218.015 153.622L216.569 165.277C216.569 165.277 192.401 168.614 185.496 153.568C178.591 138.523 198.475 97.4263 207.079 100.205Z" fill="#1BC89E"/>
<path opacity="0.4" d="M207.079 100.205C209.628 101.016 211.652 108.918 204.982 122.34C204.982 122.34 195.944 142.708 197.752 146.118C199.794 150.249 218.015 153.622 218.015 153.622L216.569 165.277C216.569 165.277 192.401 168.614 185.496 153.568C178.591 138.523 198.475 97.4263 207.079 100.205Z" fill="white"/>
<path d="M256.119 39.4265C256.119 39.4265 266.965 31.7774 279.13 48.6632C282.66 53.387 284.946 58.9189 285.78 64.7527C286.614 70.5865 285.968 76.5359 283.902 82.0562" stroke="#263238" stroke-width="0.5" stroke-linecap="round" stroke-linejoin="round"/>
</svg>
