<svg width="603" height="551" viewBox="0 0 603 551" fill="none" xmlns="http://www.w3.org/2000/svg">
<g clip-path="url(#clip0_86_2218)">
<path d="M105.062 168.341C127.094 188.159 160.466 192.994 188.53 183.479C216.593 173.965 239.233 151.59 252.473 125.129C261.937 106.243 267.006 84.5242 262.97 63.7828C258.933 43.0415 244.638 23.6776 224.559 16.9851C216.974 14.4536 208.356 13.8399 201.198 17.3895C189.781 23.0531 185.622 36.9385 182.632 49.3261C179.641 61.7137 175.528 75.6007 164.131 81.3125C155.374 85.7035 144.93 83.838 135.166 84.7371C118.558 86.2639 103.071 96.6991 95.4387 111.492C94.3789 113.544 93.473 115.671 92.7284 117.857C86.9071 134.835 91.319 153.665 103.61 166.778L105.062 168.341Z" fill="white"/>
<path d="M433.399 488.255C441.743 480.569 442.276 467.574 434.59 459.23C426.904 450.886 413.909 450.353 405.565 458.039C397.22 465.725 396.687 478.72 404.373 487.064C412.06 495.408 425.055 495.941 433.399 488.255Z" fill="#E8F9F5"/>
<path d="M570.821 514.535C570.821 514.535 571.339 514.535 572.397 514.535H577.191V514.634C552.396 514.755 451.42 514.854 330.696 514.854L151.863 514.766L97.6777 514.634H82.9439H79.109H77.8086H79.109H82.9439L97.6777 514.579L151.863 514.491L330.696 514.403C451.42 514.403 552.396 514.502 577.191 514.623V514.634H572.397C571.339 514.557 570.821 514.535 570.821 514.535Z" fill="#C5C5C5"/>
<path d="M529.595 86.3632H282.604V434.871H529.595V86.3632Z" fill="white"/>
<path d="M529.596 434.871C529.596 432.546 529.485 292.239 529.331 86.3637L529.596 86.6172H282.626L282.913 86.3306C282.913 216.929 282.913 337.697 282.858 434.838L282.626 434.607L529.618 434.838L282.626 435.07H282.318V434.838C282.318 337.697 282.318 216.929 282.318 86.3306V86.0662H282.626H529.596H529.86V86.3306C529.706 292.239 529.596 432.546 529.596 434.871Z" fill="#E2E2E2"/>
<path d="M397.301 317.751H306.606C302.534 317.751 299.234 321.051 299.234 325.123V334.556C299.234 338.628 302.534 341.928 306.606 341.928H397.301C401.372 341.928 404.673 338.628 404.673 334.556V325.123C404.673 321.051 401.372 317.751 397.301 317.751Z" fill="#F5F5F5"/>
<path d="M507.324 317.751H418.966C414.894 317.751 411.594 321.051 411.594 325.123V334.556C411.594 338.628 414.894 341.928 418.966 341.928H507.324C511.396 341.928 514.697 338.628 514.697 334.556V325.123C514.697 321.051 511.396 317.751 507.324 317.751Z" fill="#F5F5F5"/>
<path d="M508.779 367.297H306.11C302.038 367.297 298.738 370.597 298.738 374.669V384.102C298.738 388.174 302.038 391.474 306.11 391.474H508.779C512.85 391.474 516.151 388.174 516.151 384.102V374.669C516.151 370.597 512.85 367.297 508.779 367.297Z" fill="#F5F5F5"/>
<path d="M347.644 308.02C347.644 308.174 337.462 308.306 324.888 308.306C312.314 308.306 302.132 308.174 302.132 308.02C302.132 307.866 312.314 307.733 324.888 307.733C337.462 307.733 347.644 307.866 347.644 308.02Z" fill="#263238"/>
<path d="M455.332 308.02C455.332 308.174 447.309 308.306 437.413 308.306C427.517 308.306 419.484 308.174 419.484 308.02C419.484 307.866 427.506 307.733 437.413 307.733C447.32 307.733 455.332 307.866 455.332 308.02Z" fill="#263238"/>
<path d="M376.539 357.323C376.539 357.478 360.009 357.61 339.622 357.61C319.235 357.61 302.705 357.478 302.705 357.323C302.705 357.169 319.235 357.037 339.622 357.037C360.009 357.037 376.539 357.169 376.539 357.323Z" fill="#263238"/>
<path d="M508.977 262.86H302.033C298.071 262.86 294.859 266.072 294.859 270.034V282.112C294.859 286.074 298.071 289.286 302.033 289.286H508.977C512.939 289.286 516.151 286.074 516.151 282.112V270.034C516.151 266.072 512.939 262.86 508.977 262.86Z" fill="#E0E0E0"/>
<path d="M452.643 276.073C452.643 276.238 433.005 276.36 408.794 276.36C384.583 276.36 364.935 276.238 364.935 276.073C364.935 275.908 384.572 275.786 408.794 275.786C433.016 275.786 452.643 275.919 452.643 276.073Z" fill="#263238"/>
<path d="M508.977 102.188H302.033C298.071 102.188 294.859 105.4 294.859 109.362V121.44C294.859 125.403 298.071 128.614 302.033 128.614H508.977C512.939 128.614 516.151 125.403 516.151 121.44V109.362C516.151 105.4 512.939 102.188 508.977 102.188Z" fill="#E0E0E0"/>
<path d="M452.643 115.401C452.643 115.556 433.005 115.688 408.794 115.688C384.583 115.688 364.935 115.556 364.935 115.401C364.935 115.247 384.572 115.115 408.794 115.115C433.016 115.115 452.643 115.236 452.643 115.401Z" fill="#263238"/>
<path d="M529.596 135.006C529.596 135.171 474.253 135.304 405.995 135.304C337.738 135.304 282.373 135.171 282.373 135.006C282.373 134.841 337.715 134.719 405.995 134.719C474.275 134.719 529.596 134.852 529.596 135.006Z" fill="#EBEBEB"/>
<path d="M529.596 251.917C529.596 252.082 474.253 252.204 405.995 252.204C337.738 252.204 282.373 252.082 282.373 251.917C282.373 251.752 337.715 251.631 405.995 251.631C474.275 251.631 529.596 251.763 529.596 251.917Z" fill="#EBEBEB"/>
<path d="M397.301 161.509H306.606C302.534 161.509 299.234 164.81 299.234 168.881V178.315C299.234 182.386 302.534 185.687 306.606 185.687H397.301C401.372 185.687 404.673 182.386 404.673 178.315V168.881C404.673 164.81 401.372 161.509 397.301 161.509Z" fill="#F5F5F5"/>
<path d="M507.324 161.509H418.966C414.894 161.509 411.594 164.81 411.594 168.881V178.315C411.594 182.386 414.894 185.687 418.966 185.687H507.324C511.396 185.687 514.697 182.386 514.697 178.315V168.881C514.697 164.81 511.396 161.509 507.324 161.509Z" fill="#F5F5F5"/>
<path d="M508.779 211.055H306.11C302.038 211.055 298.738 214.356 298.738 218.427V227.861C298.738 231.932 302.038 235.233 306.11 235.233H508.779C512.85 235.233 516.151 231.932 516.151 227.861V218.427C516.151 214.356 512.85 211.055 508.779 211.055Z" fill="#F5F5F5"/>
<path d="M347.644 151.778C347.644 151.933 337.462 152.065 324.888 152.065C312.314 152.065 302.132 151.933 302.132 151.778C302.132 151.624 312.314 151.492 324.888 151.492C337.462 151.492 347.644 151.624 347.644 151.778Z" fill="#263238"/>
<path d="M455.332 151.778C455.332 151.933 447.309 152.065 437.413 152.065C427.517 152.065 419.484 151.933 419.484 151.778C419.484 151.624 427.506 151.492 437.413 151.492C447.32 151.492 455.332 151.624 455.332 151.778Z" fill="#263238"/>
<path d="M376.539 201.082C376.539 201.236 360.009 201.368 339.622 201.368C319.235 201.368 302.705 201.236 302.705 201.082C302.705 200.928 319.235 200.795 339.622 200.795C360.009 200.795 376.539 200.928 376.539 201.082Z" fill="#263238"/>
<path d="M508.525 406.164C508.525 406.329 492.403 406.451 472.512 406.451C452.621 406.451 436.51 406.329 436.51 406.164C436.51 405.999 452.621 405.878 472.512 405.878C492.403 405.878 508.525 406.01 508.525 406.164Z" fill="#263238"/>
<path d="M388.485 176.133C387.926 176.316 387.355 176.46 386.776 176.562C382.449 177.359 377.98 176.72 374.048 174.744C373.317 174.365 372.657 173.861 372.098 173.256C371.484 172.606 371.074 171.79 370.919 170.909C370.817 170.44 370.815 169.954 370.912 169.484C371.009 169.013 371.202 168.568 371.481 168.176C371.807 167.771 372.246 167.472 372.742 167.315C373.238 167.158 373.769 167.151 374.269 167.295C374.532 167.371 374.777 167.502 374.988 167.679C375.199 167.855 375.37 168.073 375.492 168.32C375.735 168.819 375.809 169.384 375.701 169.928C375.472 170.997 374.944 171.979 374.181 172.761C372.677 174.448 370.786 175.745 368.671 176.54C366.393 177.401 363.924 177.622 361.53 177.18C360.257 176.963 359.058 176.437 358.036 175.648C357.485 175.245 357.043 174.712 356.747 174.097C356.451 173.482 356.311 172.803 356.339 172.121C356.411 171.421 356.674 170.754 357.1 170.193C357.517 169.594 358.135 169.164 358.841 168.981C359.214 168.907 359.6 168.931 359.961 169.051C360.322 169.171 360.646 169.382 360.901 169.664C361.385 170.232 361.647 170.956 361.64 171.703C361.653 172.432 361.478 173.153 361.133 173.796C360.761 174.43 360.248 174.969 359.634 175.372C358.411 176.104 357.08 176.636 355.689 176.948C353.011 177.709 350.091 178.535 347.115 177.863C345.624 177.539 344.256 176.798 343.17 175.725C342.608 175.178 342.164 174.521 341.868 173.795C341.573 173.068 341.431 172.288 341.451 171.504C341.463 171 341.575 170.504 341.781 170.044C341.988 169.584 342.284 169.17 342.652 168.826C343.059 168.506 343.548 168.307 344.062 168.252C344.577 168.197 345.097 168.29 345.562 168.518C346.041 168.733 346.427 169.112 346.651 169.587C346.875 170.062 346.923 170.601 346.785 171.108C346.489 172.042 345.882 172.847 345.066 173.389C342.107 175.418 338.707 176.71 335.148 177.158C333.415 177.456 331.634 177.301 329.979 176.706C329.164 176.376 328.446 175.845 327.891 175.163C327.336 174.481 326.963 173.67 326.806 172.805C326.675 171.937 326.87 171.052 327.355 170.321C327.84 169.59 328.579 169.065 329.428 168.848C329.86 168.765 330.307 168.799 330.722 168.946C331.136 169.093 331.504 169.349 331.787 169.686C332.305 170.339 332.596 171.144 332.613 171.978C332.651 172.784 332.476 173.586 332.106 174.303C331.714 174.979 331.18 175.561 330.541 176.011C329.308 176.818 327.937 177.393 326.497 177.709C323.797 178.425 320.987 178.932 318.43 177.995C317.224 177.559 316.163 176.796 315.367 175.791C314.596 174.829 314.204 173.617 314.265 172.386C314.381 171.245 314.906 170.185 315.742 169.399C316.12 169.02 316.587 168.74 317.101 168.586C317.615 168.432 318.159 168.409 318.684 168.518H318.794V168.628C318.828 170.791 318.041 172.886 316.59 174.491C315.559 175.698 314.223 176.608 312.722 177.124C311.795 177.445 310.813 177.572 309.835 177.499C309.174 177.4 308.843 177.312 308.843 177.312C310.127 177.521 311.443 177.4 312.667 176.959C314.121 176.428 315.409 175.523 316.403 174.336C317.765 172.761 318.488 170.732 318.43 168.65L318.552 168.793C318.079 168.706 317.591 168.736 317.132 168.88C316.673 169.024 316.256 169.278 315.918 169.62C315.156 170.352 314.683 171.334 314.584 172.386C314.419 174.59 316.193 176.794 318.508 177.587C320.822 178.381 323.632 177.973 326.31 177.246C327.691 176.937 329.006 176.381 330.189 175.604C330.763 175.195 331.244 174.669 331.599 174.061C331.928 173.422 332.08 172.707 332.04 171.989C332.025 171.273 331.778 170.58 331.335 170.017C331.112 169.747 330.82 169.542 330.49 169.424C330.161 169.305 329.805 169.278 329.461 169.344C328.743 169.539 328.12 169.991 327.714 170.615C327.307 171.239 327.145 171.991 327.257 172.727C327.405 173.497 327.743 174.218 328.242 174.823C328.741 175.427 329.384 175.897 330.112 176.188C331.68 176.745 333.366 176.885 335.004 176.596C338.466 176.156 341.773 174.894 344.647 172.915C345.352 172.449 345.883 171.763 346.157 170.964C346.261 170.584 346.225 170.178 346.055 169.822C345.885 169.466 345.593 169.183 345.231 169.025C344.866 168.85 344.46 168.78 344.058 168.82C343.656 168.861 343.272 169.012 342.95 169.256C342.64 169.549 342.391 169.9 342.219 170.29C342.047 170.68 341.954 171.1 341.947 171.526C341.932 172.229 342.062 172.928 342.329 173.579C342.596 174.229 342.995 174.817 343.501 175.306C344.508 176.301 345.777 176.988 347.16 177.29C349.937 177.929 352.791 177.158 355.458 176.397C356.788 176.096 358.063 175.591 359.237 174.898C359.782 174.549 360.239 174.077 360.571 173.521C360.869 172.962 361.02 172.336 361.012 171.703C361.023 171.087 360.811 170.489 360.417 170.017C360.227 169.803 359.985 169.642 359.714 169.551C359.444 169.461 359.154 169.442 358.874 169.499C358.305 169.693 357.806 170.049 357.436 170.522C357.066 170.996 356.842 171.567 356.791 172.165C356.782 172.764 356.919 173.355 357.192 173.887C357.465 174.419 357.865 174.877 358.356 175.218C359.325 175.96 360.459 176.456 361.662 176.662C363.967 177.087 366.343 176.877 368.538 176.056C370.598 175.306 372.441 174.061 373.905 172.43C374.616 171.714 375.112 170.813 375.338 169.829C375.467 169.391 375.425 168.919 375.221 168.51C375.016 168.101 374.664 167.785 374.236 167.625C373.814 167.499 373.364 167.501 372.943 167.633C372.523 167.764 372.152 168.019 371.877 168.364C371.629 168.711 371.455 169.105 371.366 169.522C371.277 169.939 371.275 170.37 371.359 170.788C371.539 171.575 371.896 172.31 372.404 172.937C372.913 173.563 373.558 174.065 374.291 174.403C376.637 175.627 379.203 176.376 381.839 176.607C383.508 176.741 385.187 176.682 386.843 176.43L388.132 176.188C388.248 176.162 388.366 176.144 388.485 176.133Z" fill="#1BC89E"/>
<path d="M496.293 174.821C495.856 175.097 495.39 175.326 494.905 175.504C493.524 176.068 492.053 176.378 490.563 176.419C488.192 176.504 485.841 175.957 483.752 174.832C482.412 174.168 481.271 173.161 480.446 171.912C479.991 171.202 479.782 170.361 479.851 169.521C479.9 169.075 480.038 168.645 480.257 168.254C480.477 167.864 480.774 167.523 481.13 167.251C481.513 166.952 481.988 166.796 482.474 166.81C482.973 166.827 483.447 167.027 483.808 167.372C484.151 167.729 484.409 168.16 484.564 168.631C484.718 169.102 484.765 169.602 484.7 170.094C484.523 171.088 484.037 172.002 483.312 172.705C482.598 173.425 481.79 174.044 480.909 174.546C479.069 175.63 477.009 176.289 474.881 176.474C472.605 176.736 470.302 176.31 468.269 175.251C467.206 174.68 466.321 173.825 465.713 172.783C465.409 172.237 465.211 171.639 465.129 171.019C465.068 170.057 465.316 169.101 465.837 168.29C466.359 167.479 467.126 166.856 468.027 166.512C468.354 166.41 468.698 166.375 469.039 166.409C469.38 166.443 469.71 166.546 470.011 166.711C470.602 167.043 471.067 167.562 471.333 168.187C471.593 168.803 471.715 169.469 471.691 170.137C471.666 170.805 471.495 171.46 471.19 172.055C470.565 173.218 469.665 174.21 468.567 174.942C466.38 176.456 463.821 177.34 461.167 177.499C458.512 177.659 455.865 177.087 453.514 175.846C452.354 175.257 451.303 174.474 450.406 173.532C449.461 172.592 448.909 171.327 448.863 169.994C448.877 169.323 449.083 168.67 449.459 168.113C449.834 167.556 450.362 167.119 450.979 166.854C451.303 166.726 451.654 166.68 452 166.721C452.346 166.761 452.677 166.886 452.963 167.085C453.507 167.476 453.897 168.045 454.065 168.694C454.219 169.306 454.233 169.946 454.106 170.564C453.978 171.183 453.711 171.764 453.326 172.265C452.613 173.21 451.754 174.036 450.781 174.711C449.019 176.014 447.002 176.929 444.861 177.397C442.721 177.864 440.505 177.873 438.361 177.422C436.368 177.062 434.574 175.988 433.314 174.402C432.73 173.63 432.402 172.693 432.377 171.725C432.351 170.799 432.58 169.884 433.038 169.08C433.251 168.686 433.541 168.339 433.892 168.061C434.242 167.782 434.645 167.578 435.077 167.46C435.493 167.366 435.924 167.366 436.339 167.46C436.754 167.553 437.144 167.738 437.479 168C438.079 168.475 438.544 169.097 438.83 169.806C439.116 170.515 439.213 171.287 439.11 172.044C438.884 173.347 438.191 174.522 437.16 175.35C436.324 176.047 435.34 176.544 434.284 176.805C432.838 177.13 431.35 177.223 429.876 177.08L428.774 176.981C428.646 176.997 428.516 176.997 428.388 176.981C428.516 176.967 428.645 176.967 428.774 176.981H429.931C431.411 177.076 432.896 176.95 434.339 176.606C435.353 176.331 436.294 175.834 437.094 175.152C438.041 174.318 438.649 173.165 438.802 171.912C438.885 171.216 438.789 170.511 438.523 169.863C438.256 169.215 437.829 168.646 437.281 168.209C436.984 167.985 436.642 167.829 436.279 167.751C435.915 167.673 435.539 167.675 435.176 167.757C434.799 167.871 434.448 168.058 434.144 168.308C433.839 168.557 433.587 168.865 433.402 169.212C432.968 169.958 432.763 170.816 432.812 171.678C432.861 172.54 433.162 173.368 433.678 174.061C434.885 175.546 436.587 176.547 438.471 176.882C440.549 177.319 442.695 177.312 444.769 176.86C446.843 176.408 448.798 175.521 450.505 174.259C451.424 173.608 452.235 172.815 452.907 171.912C453.245 171.478 453.479 170.972 453.592 170.433C453.705 169.895 453.693 169.338 453.558 168.804C453.429 168.282 453.121 167.822 452.687 167.504C452.475 167.354 452.229 167.26 451.971 167.229C451.713 167.198 451.452 167.232 451.21 167.328C450.698 167.554 450.261 167.922 449.95 168.389C449.64 168.856 449.469 169.401 449.458 169.961C449.514 171.147 450.014 172.268 450.858 173.102C451.716 173.997 452.718 174.742 453.822 175.306C456.087 176.481 458.625 177.025 461.172 176.882C463.72 176.734 466.176 175.884 468.269 174.425C469.303 173.768 470.158 172.868 470.76 171.802C471.027 171.282 471.178 170.71 471.203 170.126C471.227 169.542 471.125 168.959 470.903 168.419C470.715 167.899 470.339 167.47 469.849 167.215C469.359 166.96 468.792 166.898 468.258 167.041C467.48 167.348 466.819 167.892 466.368 168.596C465.917 169.301 465.699 170.129 465.746 170.964C465.818 171.51 465.994 172.038 466.264 172.518C466.82 173.478 467.632 174.265 468.611 174.788C470.537 175.799 472.719 176.213 474.881 175.978C476.927 175.794 478.907 175.158 480.678 174.116C481.524 173.642 482.302 173.057 482.992 172.375C483.653 171.741 484.1 170.916 484.27 170.017C484.33 169.592 484.293 169.16 484.163 168.752C484.034 168.344 483.814 167.97 483.521 167.658C483.236 167.384 482.861 167.222 482.465 167.204C482.07 167.186 481.681 167.312 481.372 167.559C481.067 167.801 480.813 168.101 480.624 168.441C480.435 168.782 480.315 169.156 480.27 169.543C480.208 170.315 480.393 171.087 480.799 171.747C481.592 172.942 482.682 173.91 483.962 174.557C485.982 175.68 488.263 176.251 490.574 176.21C492.04 176.183 493.492 175.915 494.872 175.416C495.819 175.064 496.271 174.788 496.293 174.821Z" fill="#1BC89E"/>
<path d="M393.84 223.497C393.709 223.581 393.568 223.651 393.422 223.706L392.154 224.279C391.052 224.775 389.388 225.502 387.217 226.318C384.577 227.337 381.836 228.076 379.04 228.522C377.289 228.778 375.52 228.885 373.751 228.841C371.754 228.88 369.764 228.582 367.866 227.96C366.802 227.598 365.84 226.986 365.061 226.174C364.282 225.363 363.71 224.377 363.392 223.298C363.229 222.712 363.184 222.1 363.26 221.496C363.336 220.893 363.53 220.311 363.833 219.783C364.137 219.222 364.573 218.742 365.103 218.385C365.632 218.029 366.24 217.805 366.874 217.733C367.544 217.722 368.202 217.909 368.765 218.272C369.328 218.635 369.771 219.157 370.037 219.772C370.639 220.993 370.738 222.402 370.313 223.695C369.851 224.982 369.056 226.122 368.009 227.001C366.962 227.89 365.797 228.631 364.549 229.205C361.975 230.543 358.999 230.892 356.185 230.186C354.729 229.737 353.421 228.904 352.397 227.776C351.374 226.647 350.672 225.265 350.366 223.772C350.234 223.003 350.234 222.216 350.366 221.447C350.472 220.639 350.8 219.876 351.314 219.243C351.559 218.899 351.874 218.612 352.239 218.401C352.604 218.19 353.01 218.06 353.43 218.02C353.876 218.011 354.314 218.144 354.68 218.4C355.046 218.655 355.322 219.02 355.469 219.441C355.679 220.234 355.716 221.064 355.575 221.873C355.434 222.681 355.12 223.449 354.653 224.125C353.839 225.51 352.796 226.747 351.568 227.783C349.151 229.851 346.063 230.966 342.883 230.917C339.703 230.868 336.651 229.66 334.299 227.519C333.169 226.468 332.397 225.088 332.095 223.574C331.944 222.81 331.994 222.02 332.239 221.282C332.507 220.557 332.95 219.91 333.528 219.397C334.1 218.873 334.819 218.538 335.589 218.438C335.983 218.382 336.385 218.413 336.766 218.529C337.147 218.645 337.497 218.844 337.793 219.111C338.309 219.65 338.672 220.317 338.844 221.044C339.016 221.77 338.992 222.529 338.773 223.243C338.343 224.583 337.554 225.78 336.492 226.703C335.513 227.615 334.438 228.417 333.285 229.095C331.081 230.398 328.631 231.231 326.089 231.541C323.714 231.854 321.298 231.64 319.015 230.913C317.928 230.549 316.935 229.951 316.105 229.161C315.302 228.396 314.752 227.404 314.529 226.318C314.29 225.282 314.391 224.196 314.816 223.221C315.019 222.751 315.338 222.34 315.742 222.026C316.147 221.712 316.624 221.505 317.13 221.425C317.605 221.353 318.09 221.381 318.553 221.508C319.016 221.635 319.448 221.859 319.819 222.163C320.169 222.456 320.433 222.838 320.583 223.269C320.732 223.7 320.761 224.163 320.668 224.61C320.484 225.424 320.039 226.155 319.4 226.692C318.837 227.185 318.211 227.6 317.538 227.927C316.376 228.502 315.162 228.967 313.912 229.315C312.191 229.808 310.413 230.071 308.623 230.098C308.001 230.12 307.378 230.094 306.76 230.02H307.234C307.554 230.02 308.017 230.02 308.623 230.02C310.393 229.941 312.147 229.645 313.846 229.139C315.075 228.77 316.27 228.294 317.417 227.717C318.064 227.396 318.664 226.988 319.202 226.505C319.763 225.999 320.149 225.328 320.304 224.588C320.383 224.196 320.354 223.79 320.22 223.413C320.086 223.037 319.852 222.704 319.543 222.45C319.206 222.184 318.818 221.991 318.403 221.881C317.988 221.771 317.555 221.747 317.13 221.811C316.685 221.886 316.267 222.074 315.914 222.355C315.562 222.636 315.286 223.003 315.113 223.419C314.729 224.317 314.644 225.313 314.871 226.263C315.14 227.282 315.672 228.214 316.415 228.962C317.158 229.711 318.085 230.251 319.103 230.527C321.32 231.226 323.665 231.421 325.968 231.1C329.752 230.627 333.289 228.968 336.073 226.362C337.069 225.503 337.809 224.385 338.211 223.133C338.401 222.514 338.424 221.855 338.277 221.224C338.13 220.593 337.818 220.012 337.374 219.54C336.856 219.146 336.21 218.959 335.562 219.016C334.914 219.073 334.31 219.37 333.869 219.849C333.375 220.3 332.997 220.863 332.767 221.491C332.556 222.142 332.514 222.836 332.646 223.508C332.944 224.908 333.672 226.179 334.729 227.144C336.983 229.189 339.907 230.341 342.95 230.384C345.994 230.426 348.948 229.357 351.259 227.376C352.444 226.385 353.447 225.195 354.223 223.86C354.626 223.229 354.913 222.531 355.072 221.8C355.25 221.098 355.227 220.361 355.006 219.673C354.904 219.356 354.706 219.08 354.439 218.882C354.172 218.685 353.85 218.576 353.518 218.571C353.18 218.612 352.854 218.723 352.562 218.898C352.27 219.072 352.017 219.306 351.821 219.585C351.408 220.165 351.12 220.826 350.978 221.525C350.836 222.223 350.841 222.944 350.995 223.64C351.282 225.03 351.937 226.319 352.89 227.371C353.843 228.423 355.061 229.201 356.416 229.624C359.1 230.298 361.937 229.969 364.395 228.698C366.797 227.541 369.1 225.866 369.905 223.475C370.291 222.306 370.204 221.032 369.662 219.926C369.443 219.395 369.07 218.941 368.591 218.623C368.112 218.305 367.549 218.137 366.974 218.141C366.415 218.206 365.881 218.404 365.415 218.719C364.949 219.033 364.565 219.455 364.296 219.948C364.019 220.423 363.84 220.949 363.77 221.494C363.7 222.039 363.74 222.593 363.888 223.122C364.182 224.138 364.716 225.069 365.445 225.836C366.174 226.603 367.076 227.184 368.076 227.53C369.928 228.153 371.873 228.458 373.828 228.434C375.577 228.491 377.329 228.399 379.062 228.158C381.841 227.752 384.57 227.062 387.206 226.097C389.41 225.315 391.041 224.621 392.176 224.169L393.466 223.64L393.84 223.497Z" fill="#1BC89E"/>
<path d="M498.31 465.959C498.31 465.959 472.964 436.778 463.377 407.553C453.789 378.328 458.363 381.722 458.363 381.722C458.363 381.722 471.278 410.065 481.086 423.763C490.894 437.461 508.36 457.55 508.36 457.55L498.31 465.959Z" fill="#455A64"/>
<path d="M503.401 386.295C503.231 385.998 502.962 385.769 502.641 385.648C502.32 385.527 501.967 385.521 501.643 385.632C501.318 385.742 501.043 385.963 500.863 386.255C500.683 386.547 500.61 386.892 500.657 387.232C502.2 397.491 505.539 421.548 505.418 437.152C505.242 457.418 505.418 465.253 505.418 465.253H515.942C515.942 465.253 514.069 423.377 511.677 410.572C510.046 401.624 506.498 391.673 503.401 386.295Z" fill="#455A64"/>
<path d="M509.165 461.848C513.584 451.827 516.51 441.212 517.849 430.342C518.719 422.87 517.165 412.787 514.862 399.332C513.964 394.413 513.518 389.422 513.529 384.422C513.53 383.862 513.718 383.319 514.063 382.879C514.408 382.439 514.89 382.126 515.433 381.991C515.976 381.855 516.548 381.905 517.06 382.132C517.571 382.358 517.992 382.749 518.256 383.243C519.524 385.513 523.215 393.271 524.152 398.142C526.709 411.432 529.596 418.077 527.392 430.673C525.188 443.268 517.044 462.697 517.044 462.697L509.165 461.848Z" fill="#455A64"/>
<path d="M518.664 462.697C518.664 462.697 546.512 402.869 548.418 393.987C550.325 385.105 556.904 364.663 557.675 365.82C558.446 366.977 559.614 377.777 554.589 390.13C549.564 402.483 528.141 464.526 528.141 464.526H518.631" fill="#455A64"/>
<path d="M506.112 460.019C505.836 459.866 505.575 459.689 505.33 459.49C504.834 459.115 504.085 458.586 503.126 457.837C500.523 455.76 498.025 453.553 495.643 451.225C487.807 443.5 481.016 434.783 475.444 425.295C469.895 415.808 465.279 405.807 461.658 395.431C460.258 391.452 459.244 388.202 458.572 385.942C458.241 384.84 457.999 383.937 457.834 383.331C457.739 383.032 457.669 382.726 457.624 382.416C457.761 382.699 457.872 382.994 457.955 383.298L458.792 385.876C459.531 388.08 460.611 391.386 462.098 395.287C465.822 405.607 470.477 415.566 476.006 425.041C481.557 434.485 488.269 443.196 495.985 450.971C498.971 453.936 501.495 456.184 503.324 457.694C504.206 458.465 504.933 459.016 505.407 459.424C505.656 459.605 505.891 459.804 506.112 460.019Z" fill="#263238"/>
<path d="M509.154 431.323C509.03 430.742 508.949 430.152 508.911 429.559L508.394 424.766C507.953 420.721 507.292 415.134 506.278 409.007C505.264 402.88 504.195 397.348 503.346 393.37L502.332 388.653C502.172 388.084 502.069 387.501 502.024 386.912C502.242 387.46 502.418 388.024 502.553 388.598C502.872 389.7 503.28 391.298 503.754 393.282C504.713 397.249 505.881 402.759 506.873 408.908C507.865 415.057 508.482 420.666 508.812 424.722C508.978 426.76 509.088 428.402 509.143 429.548C509.199 430.138 509.203 430.732 509.154 431.323Z" fill="#263238"/>
<path d="M515.678 382.769C515.815 383.01 515.926 383.265 516.008 383.529C516.218 384.091 516.493 384.829 516.846 385.733C517.198 386.637 517.639 387.882 518.036 389.293C518.433 390.703 518.984 392.279 519.391 394.086L520.086 396.896C520.317 397.877 520.482 398.913 520.692 399.971C521.144 402.098 521.43 404.379 521.794 406.825C523.066 417.361 522.694 428.031 520.692 438.453C520.174 440.833 519.733 443.114 519.127 445.197C518.84 446.244 518.598 447.269 518.3 448.227C518.003 449.186 517.694 450.112 517.408 450.982C516.879 452.757 516.229 454.288 515.711 455.666C515.193 457.043 514.708 458.201 514.267 459.137L513.275 461.341C513.175 461.598 513.045 461.841 512.89 462.069C512.963 461.802 513.055 461.54 513.165 461.286C513.397 460.735 513.683 459.997 514.058 459.082C514.432 458.168 514.928 456.966 515.402 455.589C515.876 454.211 516.504 452.658 517.011 450.894C517.276 450.013 517.562 449.087 517.86 448.139C518.157 447.192 518.378 446.156 518.653 445.109C519.237 443.026 519.656 440.756 520.152 438.387C522.089 428.01 522.461 417.401 521.254 406.914C520.934 404.511 520.67 402.219 520.24 400.103C520.042 399.001 519.887 398.009 519.667 397.029C519.447 396.048 519.226 395.111 519.017 394.218C518.642 392.411 518.135 390.824 517.749 389.425C517.364 388.025 516.989 386.813 516.647 385.832L515.92 383.628C515.806 383.352 515.725 383.064 515.678 382.769Z" fill="#263238"/>
<path d="M557.388 367.021C557.393 367.109 557.393 367.197 557.388 367.285C557.388 367.495 557.311 367.748 557.256 368.068C557.135 368.74 556.98 369.754 556.705 371.043C556.176 373.622 555.272 377.325 553.884 381.81C552.495 386.295 550.578 391.585 548.374 397.37C546.17 403.156 543.514 409.492 541.046 416.192C538.577 422.892 536.638 429.416 534.786 435.389C532.935 441.362 531.271 446.663 529.629 451.071C528.347 454.561 526.876 457.979 525.221 461.308C524.648 462.487 524.119 463.369 523.799 463.986L523.414 464.669C523.372 464.749 523.32 464.823 523.259 464.89L523.358 464.636C523.458 464.449 523.568 464.206 523.7 463.92C523.998 463.303 524.471 462.399 525.011 461.198C526.113 458.829 527.634 455.346 529.221 450.927C530.808 446.508 532.527 441.175 534.246 435.224C535.965 429.273 537.96 422.716 540.473 415.983C542.985 409.25 545.575 402.946 547.856 397.172C550.137 391.397 552.077 386.152 553.509 381.689C554.942 377.226 555.9 373.545 556.507 370.988C556.815 369.721 557.002 368.718 557.168 368.046C557.234 367.737 557.3 367.484 557.344 367.274C557.345 367.188 557.36 367.103 557.388 367.021Z" fill="#263238"/>
<path d="M471.532 353.797C471.146 353.434 470.652 353.209 470.125 353.157C469.598 353.104 469.069 353.226 468.619 353.505C468.17 353.784 467.825 354.204 467.638 354.699C467.451 355.194 467.433 355.737 467.586 356.243C468.535 359.324 469.703 362.333 471.08 365.247C474.904 373.38 486.155 402.561 491.412 418.595C496.668 434.629 504.096 464.526 504.096 464.526L515.336 462.697C515.336 462.697 505.054 413.57 495.004 395.86C486.926 381.645 478.86 361.081 471.532 353.797Z" fill="#455A64"/>
<path d="M494.486 428.612C494.733 429.039 494.929 429.494 495.07 429.967C495.401 430.849 495.853 432.171 496.371 433.736C497.406 436.943 498.663 441.45 499.941 446.398C501.219 451.346 502.277 455.897 503.016 459.181C503.357 460.735 503.633 462.035 503.864 463.071C503.995 463.546 504.073 464.034 504.096 464.526C503.891 464.077 503.736 463.608 503.633 463.126C503.368 462.102 503.016 460.812 502.608 459.28C501.748 455.897 500.613 451.456 499.368 446.541C498.123 441.626 496.888 437.086 495.963 433.857L494.861 430.033C494.691 429.573 494.565 429.097 494.486 428.612Z" fill="#263238"/>
<path d="M509.738 463.611C509.702 463.516 509.68 463.416 509.672 463.314C509.672 463.082 509.606 462.785 509.551 462.421C509.429 461.65 509.33 460.493 509.088 459.027C508.68 456.074 507.986 451.82 506.73 446.63C505.295 440.554 503.54 434.558 501.473 428.667C499.17 422.055 496.272 414.815 492.999 407.376C486.387 392.499 479.775 379.308 475.444 369.545C473.24 364.685 471.554 360.729 470.43 357.941C469.857 356.563 469.449 355.483 469.162 354.745C469.041 354.403 468.942 354.128 468.854 353.907C468.81 353.813 468.781 353.713 468.766 353.61C468.824 353.696 468.872 353.788 468.909 353.885L469.273 354.701C469.603 355.461 470.066 356.519 470.639 357.852C471.829 360.596 473.581 364.531 475.818 369.379C480.226 379.077 486.916 392.235 493.539 407.134C496.845 414.594 499.71 421.802 501.991 428.491C504.032 434.405 505.747 440.427 507.126 446.53C508.069 450.645 508.805 454.805 509.33 458.994C509.529 460.471 509.606 461.628 509.683 462.41C509.683 462.778 509.705 463.075 509.749 463.303C509.76 463.406 509.756 463.51 509.738 463.611Z" fill="#263238"/>
<path d="M515.336 462.697C515.153 462.081 515.024 461.45 514.95 460.812C514.73 459.49 514.432 457.749 514.08 455.644C513.308 451.236 512.118 445.296 510.421 438.761C508.724 432.226 506.84 426.419 505.385 422.231L503.622 417.294C503.377 416.7 503.178 416.089 503.027 415.465C503.35 416.024 503.623 416.61 503.842 417.217C504.327 418.319 504.999 420.016 505.782 422.088C507.812 427.501 509.552 433.019 510.994 438.618C512.447 444.209 513.617 449.869 514.498 455.578C514.818 457.782 515.06 459.545 515.182 460.779C515.276 461.414 515.328 462.055 515.336 462.697Z" fill="#263238"/>
<path d="M538.401 461.088H494.53V514.535H538.401V461.088Z" fill="#1BC89E"/>
<g opacity="0.3">
<path opacity="0.3" d="M538.401 461.088H494.53V514.535H538.401V461.088Z" fill="black"/>
</g>
<path d="M524.406 461.088H485.483V514.535H524.406V461.088Z" fill="#1BC89E"/>
<path d="M167.908 177.708L166.663 278.123C166.454 295.193 169.628 320.318 196.638 319.426C220.022 316.88 226.226 294.752 226.392 278.817C226.48 271.257 226.568 264.954 226.623 264.182C226.623 264.182 252.212 262.089 254.371 236.809C255.418 224.599 255.473 199.264 255.352 176.342C255.256 164.47 250.693 153.07 242.572 144.41C234.451 135.749 223.367 130.464 211.526 129.606L209.079 129.419C182.653 129.044 167.567 151.272 167.908 177.708Z" fill="#985952"/>
<path d="M226.634 264.182C226.634 264.182 210.622 263.951 194.412 252.06C194.412 252.06 201.09 271.125 226.502 270.684L226.634 264.182Z" fill="#553322"/>
<path d="M212.143 186.701C211.647 187.219 208.727 184.861 204.484 184.75C200.241 184.64 197.09 186.712 196.649 186.172C196.428 185.93 196.946 184.993 198.335 184.023C200.191 182.778 202.394 182.153 204.627 182.238C206.837 182.294 208.968 183.068 210.699 184.442C211.978 185.511 212.396 186.481 212.143 186.701Z" fill="#263238"/>
<path d="M212.022 195.462C211.962 196.352 211.559 197.185 210.896 197.783C210.234 198.382 209.365 198.699 208.473 198.669C207.596 198.669 206.756 198.32 206.136 197.7C205.516 197.08 205.167 196.239 205.167 195.363C205.224 194.473 205.625 193.64 206.286 193.042C206.946 192.443 207.814 192.125 208.705 192.156C209.14 192.154 209.571 192.239 209.973 192.404C210.376 192.57 210.741 192.813 211.049 193.12C211.358 193.427 211.602 193.792 211.769 194.194C211.936 194.596 212.022 195.027 212.022 195.462Z" fill="#263238"/>
<path d="M222.81 216.157C222.81 215.937 225.257 215.694 229.202 215.485C230.205 215.485 231.163 215.32 231.406 214.659C231.567 213.641 231.413 212.599 230.965 211.672L228.486 203.87C225.18 192.85 222.898 183.747 223.339 183.615C223.78 183.483 226.822 192.354 230.106 203.451C230.899 206.184 231.648 208.774 232.31 211.264C232.607 212.422 233.158 213.744 232.541 215.199C232.372 215.539 232.128 215.837 231.826 216.068C231.524 216.299 231.173 216.458 230.8 216.532C230.241 216.64 229.671 216.677 229.103 216.642C225.202 216.543 222.81 216.389 222.81 216.157Z" fill="#263238"/>
<path d="M210.347 170.81C209.939 171.758 206.545 171.041 202.489 171.251C198.434 171.46 195.084 172.353 194.621 171.46C194.412 171.019 195.04 170.16 196.417 169.322C198.234 168.286 200.277 167.711 202.368 167.647C204.445 167.537 206.517 167.947 208.396 168.837C209.829 169.521 210.523 170.336 210.347 170.81Z" fill="#263238"/>
<path d="M250.558 178.623C250.118 179.395 246.812 178.546 242.844 178.425C238.877 178.304 235.516 178.811 235.131 178.006C234.954 177.631 235.615 176.904 237.004 176.331C238.887 175.583 240.909 175.249 242.933 175.35C244.975 175.414 246.981 175.909 248.817 176.805C250.118 177.521 250.757 178.26 250.558 178.623Z" fill="#263238"/>
<path d="M168.614 196.597C168.195 196.376 151.599 190.183 150.894 207.518C150.188 224.852 167.71 221.998 167.787 221.502C167.865 221.006 168.614 196.597 168.614 196.597Z" fill="#985952"/>
<path d="M162.762 214.714C162.685 214.659 162.443 214.912 161.925 215.121C161.217 215.4 160.429 215.4 159.721 215.121C157.914 214.372 156.492 211.408 156.536 208.278C156.554 206.791 156.905 205.326 157.561 203.991C157.746 203.459 158.059 202.979 158.472 202.595C158.885 202.211 159.386 201.934 159.93 201.787C160.279 201.707 160.645 201.753 160.963 201.916C161.282 202.08 161.533 202.35 161.671 202.68C161.892 203.176 161.76 203.517 161.859 203.55C161.958 203.583 162.244 203.275 162.123 202.559C162.047 202.13 161.825 201.741 161.495 201.457C161.032 201.076 160.439 200.891 159.842 200.939C159.117 201.047 158.432 201.341 157.853 201.79C157.274 202.24 156.821 202.831 156.536 203.506C155.744 204.978 155.317 206.618 155.291 208.289C155.291 211.793 156.922 215.132 159.39 216.003C159.852 216.154 160.34 216.202 160.822 216.143C161.304 216.084 161.767 215.92 162.178 215.661C162.707 215.132 162.817 214.747 162.762 214.714Z" fill="#553322"/>
<path d="M218.667 228.169C218.854 227.728 215.46 226.714 213.069 223.519C212.074 222.124 211.266 220.605 210.666 219C210.159 217.733 209.774 216.951 209.564 217.006C209.355 217.061 209.421 217.909 209.707 219.287C210.067 221.116 210.819 222.845 211.911 224.356C213.044 225.866 214.568 227.036 216.319 227.739C217.719 228.279 218.612 228.312 218.667 228.169Z" fill="#263238"/>
<path d="M250.757 188.299C250.25 188.806 247.33 186.458 243.043 186.348C238.756 186.238 235.649 188.31 235.197 187.77C234.976 187.527 235.505 186.591 236.883 185.621C238.739 184.376 240.942 183.751 243.175 183.836C245.388 183.892 247.523 184.665 249.258 186.04C250.581 187.109 250.999 188.067 250.757 188.299Z" fill="#263238"/>
<path d="M250.063 196.696C250.003 197.587 249.6 198.419 248.937 199.017C248.275 199.616 247.406 199.933 246.514 199.903C245.637 199.903 244.797 199.554 244.177 198.934C243.557 198.314 243.208 197.474 243.208 196.597C243.268 195.706 243.671 194.874 244.334 194.275C244.996 193.677 245.865 193.359 246.757 193.39C247.633 193.39 248.474 193.738 249.094 194.358C249.714 194.978 250.063 195.819 250.063 196.696Z" fill="#263238"/>
<path d="M272.995 142.775C271.273 139.978 268.602 137.893 265.47 136.902C262.339 135.91 258.955 136.078 255.936 137.375C256.711 133.363 256.153 129.207 254.347 125.542C252.541 121.876 249.586 118.902 245.932 117.072C242.278 115.242 238.126 114.657 234.109 115.406C230.092 116.155 226.43 118.196 223.681 121.22C223.462 120.148 223.015 119.135 222.371 118.251C221.726 117.367 220.899 116.632 219.945 116.096C218.033 115.03 215.912 114.395 213.73 114.233C208.557 113.659 203.324 114.452 198.554 116.533C193.783 118.614 189.642 121.909 186.543 126.091C181.503 125.493 176.392 126.088 171.624 127.828C166.856 129.568 162.563 132.404 159.093 136.108C150.949 145.133 149.406 166.038 158.332 184.1L160.426 195.418C163.225 195.418 165.782 195.616 167.512 197.159C169.859 199.264 170.906 203.231 174.796 201.732C176.78 200.961 178.587 196.806 179.204 194.79C183.605 181.335 185.063 167.091 183.48 153.024C186.259 150.063 189.581 147.665 193.266 145.96L192.968 146.235C200.032 143.778 208.021 141.365 214.722 144.682C219.923 147.249 222.987 152.649 226.844 156.947C230.432 160.922 234.789 164.129 239.651 166.375C244.513 168.622 249.779 169.86 255.132 170.017C255.507 177.135 254.912 187.197 255.286 194.261L261.38 182.932C261.853 182.117 262.284 181.279 262.67 180.419L262.802 180.155C263.904 179.262 264.719 177.631 266.571 175.516C268.339 173.436 269.503 170.912 269.937 168.217C270.37 165.522 270.056 162.76 269.028 160.231C271.677 158.284 273.536 155.448 274.265 152.242C274.993 149.037 274.543 145.676 272.995 142.775Z" fill="#263238"/>
<path d="M262.626 143.04C262.626 143.04 262.692 143.161 262.758 143.414C262.847 143.775 262.899 144.145 262.912 144.516C262.968 145.936 262.621 147.342 261.909 148.572C261.405 149.42 260.748 150.168 259.97 150.776C259.046 151.483 257.958 151.945 256.807 152.12C255.469 152.331 254.1 152.19 252.833 151.713C251.566 151.236 250.444 150.439 249.578 149.398L250.008 149.034C250.425 149.492 250.748 150.027 250.958 150.609C251.168 151.192 251.261 151.81 251.231 152.429C251.218 153.256 251.039 154.071 250.706 154.828C250.373 155.585 249.892 156.268 249.291 156.837C248.151 157.85 246.712 158.465 245.192 158.589C242.664 158.773 240.15 158.08 238.073 156.627C236.689 155.688 235.411 154.601 234.26 153.387C233.819 152.966 233.413 152.509 233.048 152.021C233.533 152.39 233.99 152.796 234.414 153.233C235.613 154.365 236.911 155.387 238.293 156.286C240.309 157.633 242.721 158.258 245.137 158.06C246.538 157.932 247.862 157.361 248.917 156.429C249.995 155.386 250.62 153.961 250.658 152.462C250.698 151.357 250.303 150.28 249.556 149.464L249.986 149.09C250.789 150.056 251.826 150.801 252.999 151.253C254.172 151.704 255.442 151.847 256.686 151.668C257.69 151.517 258.648 151.141 259.487 150.568C260.327 149.996 261.026 149.242 261.535 148.362C262.237 147.193 262.618 145.858 262.637 144.494C262.725 143.569 262.581 143.051 262.626 143.04Z" fill="#455A64"/>
<path d="M240.938 124.041C240.938 124.041 241.07 124.041 241.313 124.206C241.647 124.4 241.968 124.618 242.272 124.857C243.422 125.744 244.326 126.913 244.894 128.251C245.315 129.261 245.48 130.36 245.377 131.449C245.273 132.539 244.903 133.586 244.299 134.499C243.569 135.615 242.436 136.405 241.136 136.703C240.444 136.853 239.729 136.861 239.034 136.726C238.339 136.592 237.678 136.318 237.092 135.921C236.73 135.647 236.407 135.324 236.133 134.962L236.629 134.675C236.879 135.299 236.997 135.968 236.974 136.64C236.951 137.312 236.789 137.971 236.497 138.577C235.989 139.705 235.099 140.618 233.984 141.155C233.059 141.585 232.051 141.808 231.031 141.808C230.011 141.808 229.003 141.585 228.078 141.155C226.859 140.592 225.773 139.777 224.893 138.764C224.55 138.414 224.264 138.012 224.044 137.574C224.044 137.574 224.397 137.959 225.047 138.61C225.957 139.542 227.039 140.291 228.232 140.814C229.105 141.188 230.048 141.373 230.998 141.356C231.948 141.339 232.883 141.12 233.742 140.714C234.722 140.205 235.499 139.377 235.946 138.367C236.198 137.832 236.338 137.251 236.357 136.659C236.376 136.068 236.274 135.479 236.056 134.929L235.131 132.802L236.552 134.653C236.785 134.965 237.064 135.24 237.379 135.469C237.899 135.823 238.485 136.069 239.103 136.19C239.72 136.311 240.356 136.306 240.971 136.174C242.127 135.923 243.141 135.236 243.803 134.257C244.372 133.415 244.729 132.448 244.842 131.438C244.955 130.429 244.822 129.407 244.453 128.46C243.94 127.162 243.124 126.006 242.073 125.088C241.39 124.361 240.905 124.085 240.938 124.041Z" fill="#455A64"/>
<path d="M388.11 250.441L348.052 281.01C347.491 281.441 347.024 281.982 346.68 282.6C346.336 283.218 346.121 283.9 346.05 284.604C345.979 285.308 346.053 286.018 346.266 286.693C346.48 287.367 346.829 287.991 347.292 288.526C348.159 289.528 349.378 290.158 350.696 290.287C352.015 290.417 353.333 290.034 354.378 289.22L394.05 258.364L399.417 247.774L388.11 250.441Z" fill="#1BC89E"/>
<path opacity="0.5" d="M394.281 248.975L397.114 252.281L394.05 258.364C393.682 258.403 393.309 258.357 392.961 258.23C392.613 258.104 392.298 257.899 392.041 257.632C391.784 257.366 391.591 257.044 391.477 256.691C391.363 256.339 391.331 255.965 391.383 255.598C391.021 255.648 390.652 255.607 390.309 255.479C389.967 255.351 389.661 255.14 389.421 254.864C389.18 254.589 389.012 254.258 388.932 253.901C388.851 253.544 388.86 253.173 388.959 252.821C388.959 252.821 386.876 252.633 388.055 250.441L394.281 248.975Z" fill="white"/>
<path d="M348.052 280.977L354.62 289L356.824 287.291L350.532 279.093L348.052 280.977Z" fill="#263238"/>
<path d="M345.132 357.555L343.689 357.29L373.156 305.783L368.484 290.928C368.484 290.928 363.084 269.781 367.58 264.381C367.58 264.381 377.421 252.788 380.617 252.953C383.813 253.118 386.358 253.746 386.997 256.149C386.997 256.149 392.43 255.51 393.863 257.251C394.821 258.455 395.676 259.738 396.419 261.086C396.419 261.086 402.326 260.601 403.924 265.714C403.924 265.714 409.511 268.59 409.996 272.734C410.481 276.877 408.894 296.207 407.12 301.155C405.346 306.103 398.811 316.483 396.904 331.812C394.998 347.141 388.232 357.092 382.226 379.485L365.927 385.931L345.132 357.555Z" fill="#985952"/>
<path d="M386.722 255.818C386.843 255.984 384.815 257.328 383.284 259.808C381.752 262.287 381.388 264.667 381.179 264.634C381.199 262.801 381.724 261.008 382.696 259.453C383.668 257.897 385.049 256.64 386.689 255.818H386.722Z" fill="#553322"/>
<path d="M396.1 261.086C396.21 261.262 394.271 262.43 392.739 264.656C391.207 266.882 390.722 269.064 390.535 269.064C390.347 269.064 390.535 266.651 392.199 264.304C393.101 262.823 394.475 261.69 396.1 261.086Z" fill="#553322"/>
<path d="M403.615 265.582C403.737 265.736 402.271 267.026 400.927 268.965C399.582 270.905 398.855 272.723 398.667 272.657C398.835 271.166 399.428 269.754 400.376 268.59C401.139 267.293 402.265 266.247 403.615 265.582Z" fill="#553322"/>
<path d="M375.988 267.257C374.92 266.909 373.806 266.72 372.682 266.695C371.58 266.867 370.51 267.205 369.509 267.698C369.453 267.698 369.663 267.279 370.203 266.882C370.921 266.385 371.76 266.091 372.631 266.033C373.502 265.975 374.373 266.154 375.151 266.552C375.724 266.871 375.988 267.191 375.988 267.257Z" fill="#553322"/>
<path d="M387.692 274.607C387.024 273.526 386.204 272.546 385.256 271.698C383.592 270.398 381.785 270.321 381.807 270.122C381.829 269.924 382.259 269.935 382.997 270.023C383.966 270.172 384.883 270.562 385.663 271.157C386.442 271.752 387.06 272.533 387.46 273.428C387.747 274.123 387.769 274.585 387.692 274.607Z" fill="#553322"/>
<path d="M399.362 277.098C399.218 277.241 397.929 275.787 395.736 275.214C394.393 274.955 393.02 274.888 391.659 275.015C391.659 274.938 392.044 274.674 392.827 274.486C393.848 274.271 394.905 274.301 395.913 274.573C396.92 274.845 397.849 275.351 398.623 276.051C399.196 276.602 399.417 277.054 399.362 277.098Z" fill="#553322"/>
<path d="M102.042 333.289C102.042 333.289 83.9582 435.863 84.8508 445.461C85.7435 455.06 90.5261 470.311 101.381 472.923C108.275 474.464 115.425 474.464 122.319 472.923L109.304 346.932L102.042 333.289Z" fill="#1BC89E"/>
<path d="M154.927 280.371C154.927 280.371 133.306 295.799 128.479 300.262C108.489 319.161 104.312 326.897 102.031 333.322C99.75 339.747 115.916 488.186 115.916 488.186L119.222 514.138L270.935 514.524V381.964L248.156 288.658L234.128 284.669L231.296 273.549C231.296 273.549 213.873 260.678 185.133 260.325C176.317 260.204 163.776 263.687 156.789 269.141L154.927 280.371Z" fill="#1BC89E"/>
<path d="M231.141 289.044C231.141 289.044 246.735 288.349 248.112 288.658C252.917 289.76 266.108 301.882 281.172 316.781C295.498 330.997 323.731 360.585 323.731 360.585C323.731 360.585 328.801 355.472 334.586 362.305L356.858 329.906C356.858 329.906 390.314 334.005 395.516 359.252C395.516 359.252 385.267 378.824 376.87 392.808C376.87 392.808 345.805 444.37 321.263 435.026C298.848 426.474 270.736 403.685 266.78 398.814L233.72 375.264C233.72 375.264 211.107 332.154 221.102 310.599L231.141 289.044Z" fill="#1BC89E"/>
<path d="M234.084 284.669C233.814 284.644 233.548 284.589 233.29 284.503L231.086 283.908C229.136 283.412 226.293 282.729 222.744 282.057C213.488 280.346 204.137 279.194 194.742 278.608C185.353 277.941 175.927 277.97 166.542 278.696C162.939 279.004 160.051 279.456 158.068 279.798L155.787 280.25C155.525 280.325 155.254 280.362 154.982 280.36C155.23 280.252 155.489 280.171 155.754 280.117L158.013 279.544C160.814 278.94 163.647 278.495 166.498 278.211C175.904 277.349 185.365 277.257 194.786 277.935C204.2 278.516 213.563 279.739 222.81 281.594C226.359 282.332 229.191 283.082 231.141 283.666L233.345 284.382C233.602 284.449 233.849 284.545 234.084 284.669Z" fill="#263238"/>
<path d="M174.995 276.955C174.807 276.955 174.311 274.442 173.893 271.279C173.474 268.117 173.242 265.549 173.43 265.516C174.008 267.361 174.377 269.264 174.532 271.191C174.973 274.398 175.182 276.933 174.995 276.955Z" fill="#263238"/>
<path d="M180.659 276.47C179.152 272.83 178.874 268.799 179.865 264.987C180.064 264.987 179.766 267.588 179.987 270.75C180.207 273.913 180.846 276.415 180.659 276.47Z" fill="#263238"/>
<g opacity="0.3">
<path opacity="0.3" d="M155.423 280.25C179.16 284.448 203.228 280.25 228.353 283.258C204.109 278.233 178.829 275.853 155.423 280.25Z" fill="black"/>
</g>
<g opacity="0.3">
<path opacity="0.3" d="M113.712 473.122C100.356 441.836 101.943 406.484 103.794 372.531L113.712 473.122Z" fill="black"/>
</g>
<path d="M102.042 355.648C102.078 355.778 102.1 355.911 102.108 356.045C102.108 356.343 102.196 356.728 102.252 357.202C102.362 358.304 102.527 359.77 102.725 361.687C103.111 365.622 103.673 371.242 104.356 378.217C105.712 392.125 107.563 411.355 109.778 432.568C111.993 453.782 114.186 472.967 115.971 486.831C116.842 493.762 117.591 499.371 118.175 503.239C118.429 505.146 118.627 506.644 118.759 507.702C118.826 508.187 118.87 508.573 118.903 508.871C118.915 509.002 118.915 509.135 118.903 509.267C118.858 509.143 118.828 509.013 118.815 508.882L118.605 507.724C118.44 506.622 118.197 505.179 117.9 503.316C117.294 499.448 116.467 493.85 115.531 486.93C113.646 473.078 111.354 453.87 109.139 432.667C106.924 411.465 105.15 392.213 103.916 378.295C103.32 371.363 102.814 365.732 102.494 361.765C102.351 359.847 102.229 358.348 102.152 357.279C102.152 356.794 102.152 356.409 102.075 356.1C102.046 355.952 102.034 355.8 102.042 355.648Z" fill="#263238"/>
<path d="M204.749 338.865C204.428 338.914 204.103 338.933 203.779 338.92H200.969C198.544 338.92 195.018 338.92 190.676 339.041C181.981 339.24 169.98 339.879 156.812 341.433C143.643 342.986 131.818 345.235 123.322 347.13C119.068 348.045 115.608 348.838 113.283 349.422L110.55 350.061C110.236 350.147 109.915 350.206 109.591 350.238C109.889 350.107 110.199 350.004 110.517 349.929L113.216 349.169C115.564 348.507 118.98 347.648 123.223 346.667C145.351 341.581 167.961 338.888 190.665 338.634C195.073 338.634 198.544 338.634 200.98 338.722L203.779 338.832C204.102 338.817 204.427 338.828 204.749 338.865Z" fill="#263238"/>
<path d="M146.497 372.079C146.309 372.079 146.662 357.874 147.268 340.364C147.874 322.853 148.535 308.648 148.723 308.659C148.91 308.67 148.557 322.864 147.94 340.386C147.323 357.908 146.673 372.09 146.497 372.079Z" fill="#263238"/>
<path d="M224.023 370.327C223.816 370.042 223.629 369.744 223.46 369.435C223.071 368.781 222.564 367.91 221.94 366.823L216.342 357.202C213.509 352.464 211.157 347.454 209.322 342.248C208.304 339.138 207.603 335.934 207.228 332.683C206.908 329.186 206.908 325.667 207.228 322.17C207.693 315.393 209.389 308.757 212.231 302.587C213.537 299.916 215.202 297.436 217.179 295.215C218.918 293.301 220.913 291.636 223.108 290.267C226.268 288.235 229.885 287.023 233.632 286.74C234.995 286.627 236.368 286.705 237.709 286.972C236.359 286.9 235.005 286.9 233.654 286.972C229.978 287.342 226.446 288.598 223.361 290.63C221.222 292.003 219.279 293.66 217.587 295.556C215.668 297.753 214.055 300.2 212.793 302.83C210.01 308.941 208.349 315.503 207.889 322.203C207.58 325.652 207.58 329.123 207.889 332.573C208.254 335.779 208.933 338.943 209.917 342.017C211.718 347.197 214.01 352.193 216.76 356.938L222.171 366.657L223.593 369.335C223.766 369.652 223.909 369.984 224.023 370.327Z" fill="#263238"/>
<g opacity="0.3">
<path opacity="0.3" d="M112.048 350.116C121.636 349.62 131.168 348.363 140.557 346.359C139.399 350.507 138.86 354.803 138.959 359.109C141.936 355.755 144.104 351.762 145.296 347.439C145.637 349.791 146.45 352.05 147.687 354.08C148.923 356.111 150.558 357.87 152.492 359.252C153.436 354.988 153.652 350.595 153.131 346.259C167.317 344.555 181.408 342.222 195.404 339.262C167.076 338.575 138.804 342.092 111.508 349.698" fill="black"/>
</g>
<path d="M294.44 420.821C294.208 420.72 293.99 420.59 293.79 420.435L291.972 419.223C290.407 418.121 288.159 416.611 285.36 414.661C279.85 410.782 272.235 405.327 263.959 399.155C255.683 392.984 248.288 387.254 243.021 383.055C240.376 380.961 238.238 379.242 236.772 378.041L235.097 376.653C234.892 376.501 234.704 376.327 234.535 376.135C234.761 376.259 234.974 376.403 235.175 376.564L236.916 377.865L243.274 382.736C248.641 386.857 256.068 392.521 264.345 398.693C272.621 404.864 280.114 410.363 285.624 414.352L292.104 419.069L293.856 420.358C294.063 420.496 294.258 420.651 294.44 420.821Z" fill="#263238"/>
<path d="M331.456 387.011C331.357 387.011 331.456 385.336 331.225 382.681C330.725 375.718 328.629 368.965 325.098 362.944C323.742 360.641 322.751 359.307 322.828 359.241C323.126 359.499 323.389 359.796 323.61 360.123C324.265 360.961 324.875 361.833 325.439 362.734C329.217 368.717 331.353 375.589 331.633 382.658C331.692 383.719 331.692 384.782 331.633 385.843C331.626 386.239 331.567 386.631 331.456 387.011Z" fill="#263238"/>
<path d="M338.289 384.51C338.32 383.374 338.412 382.241 338.564 381.116C338.77 378.399 338.718 375.668 338.41 372.961C338.097 370.253 337.525 367.581 336.702 364.982C336.074 362.977 335.6 361.776 335.666 361.731C335.856 361.975 336.009 362.247 336.118 362.536C336.482 363.29 336.806 364.062 337.088 364.85C338.982 370.065 339.623 375.651 338.961 381.16C338.829 382.207 338.686 383.055 338.553 383.628C338.507 383.933 338.418 384.23 338.289 384.51Z" fill="#263238"/>
<path d="M390.039 370.327C390.039 370.327 390.039 370.118 389.785 369.908C389.595 369.788 389.44 369.621 389.333 369.424C389.212 369.192 389.124 368.917 388.97 368.652C388.672 368.09 387.934 367.671 387.405 366.856C386.833 365.951 386.388 364.972 386.083 363.947C385.33 361.328 384.039 358.896 382.292 356.806C381.243 355.59 380.105 354.456 378.886 353.411C377.593 352.268 376.219 351.219 374.776 350.271C373.379 349.252 371.905 348.342 370.368 347.549L365.96 345.411C364.571 344.75 363.271 344.066 362.004 343.527L358.477 342.017C357.953 341.816 357.442 341.584 356.946 341.323C356.472 341.047 356.086 340.738 355.689 340.518L354.587 339.912C354.235 339.725 353.937 339.471 353.673 339.306C353.133 338.964 352.659 338.777 352.35 338.612C352.042 338.446 351.887 338.358 351.899 338.336C352.07 338.375 352.237 338.434 352.394 338.512C352.875 338.68 353.343 338.883 353.794 339.119C354.462 339.539 355.162 339.908 355.888 340.221C356.318 340.43 356.725 340.738 357.166 340.981C357.607 341.223 358.158 341.4 358.687 341.631L362.235 343.064C363.503 343.582 364.825 344.265 366.235 344.915L370.643 347.02C372.201 347.82 373.693 348.741 375.107 349.775C376.575 350.731 377.968 351.8 379.272 352.971C380.508 354.035 381.658 355.196 382.71 356.442C384.48 358.593 385.765 361.1 386.479 363.792C386.756 364.795 387.159 365.758 387.68 366.657C388.143 367.429 388.86 367.881 389.168 368.52C389.333 368.828 389.4 369.115 389.499 369.324C389.588 369.511 389.715 369.676 389.873 369.809C390.149 370.096 390.05 370.349 390.039 370.327Z" fill="#263238"/>
<path d="M248.663 511.967C248.509 511.967 248.377 484.087 248.377 449.693C248.377 415.3 248.509 387.419 248.663 387.419C248.818 387.419 248.95 415.3 248.95 449.693C248.95 484.087 248.829 511.967 248.663 511.967Z" fill="#263238"/>
</g>
<defs>
<clipPath id="clip0_86_2218">
<rect width="603" height="551" fill="white"/>
</clipPath>
</defs>
</svg>
