<svg width="524" height="566" viewBox="0 0 524 566" fill="none" xmlns="http://www.w3.org/2000/svg">
<g clip-path="url(#clip0_86_1980)">
<path d="M14.062 264.341C36.0942 284.159 69.4662 288.994 97.5295 279.479C125.593 269.964 148.233 247.59 161.473 221.129C170.937 202.243 176.006 180.524 171.97 159.783C167.933 139.041 153.638 119.678 133.559 112.985C125.974 110.454 117.356 109.84 110.198 113.389C98.7808 119.053 94.6223 132.938 91.6318 145.326C88.6414 157.714 84.5279 171.601 73.1306 177.312C64.3742 181.703 53.9297 179.838 44.1661 180.737C27.5583 182.264 12.0711 192.699 4.4387 207.492C3.37893 209.544 2.47303 211.671 1.72844 213.857C-4.09292 230.835 0.318995 249.665 12.6099 262.778L14.062 264.341Z" fill="white"/>
<path d="M144.651 549.219C195.022 549.219 235.856 525.622 235.856 496.514C235.856 467.406 195.022 443.81 144.651 443.81C94.2797 443.81 53.4458 467.406 53.4458 496.514C53.4458 525.622 94.2797 549.219 144.651 549.219Z" fill="#F5F5F5"/>
<path d="M280.867 459.062L263.641 452.01C261.476 437.106 260.229 422.083 259.904 407.026C259.904 378.855 277.439 344.405 299.688 350.17C321.936 355.934 293.414 387.451 288.786 411.796C284.158 436.141 280.867 459.062 280.867 459.062Z" fill="#1BC89E"/>
<path opacity="0.3" d="M280.867 459.062L263.641 452.01C261.476 437.106 260.229 422.083 259.904 407.026C259.904 378.855 277.439 344.405 299.688 350.17C321.936 355.934 293.414 387.451 288.786 411.796C284.158 436.141 280.867 459.062 280.867 459.062Z" fill="black"/>
<path d="M272.52 456.883C272.708 456.857 272.879 456.758 272.994 456.607C273.11 456.456 273.161 456.265 273.137 456.076C264.927 394.313 292.677 360 292.952 359.709C293.074 359.561 293.133 359.37 293.116 359.179C293.098 358.987 293.005 358.811 292.857 358.688C292.71 358.565 292.519 358.506 292.328 358.524C292.137 358.541 291.96 358.634 291.837 358.782C291.563 359.125 263.401 393.85 271.697 456.265C271.71 456.36 271.741 456.452 271.789 456.535C271.838 456.617 271.902 456.689 271.979 456.747C272.055 456.805 272.143 456.846 272.236 456.87C272.329 456.893 272.425 456.897 272.52 456.883Z" fill="white"/>
<path d="M289.712 463.179L280.713 459.096C278.018 445.219 278.428 430.917 281.913 417.217C287.689 395.017 306.921 381.326 316.605 383.59C328.449 386.353 329.598 397.316 326.135 404.95C322.005 413.992 293.517 438.474 289.712 463.179Z" fill="#1BC89E"/>
<path opacity="0.1" d="M289.712 463.179L280.713 459.096C278.018 445.219 278.428 430.917 281.913 417.217C287.689 395.017 306.921 381.326 316.605 383.59C328.449 386.353 329.598 397.316 326.135 404.95C322.005 413.992 293.517 438.474 289.712 463.179Z" fill="black"/>
<path d="M285.032 461.755C285.225 461.734 285.402 461.637 285.523 461.486C285.645 461.335 285.703 461.142 285.684 460.949C281.639 421.764 315.8 391.637 316.16 391.345C316.29 391.205 316.362 391.022 316.362 390.83C316.362 390.639 316.29 390.456 316.16 390.316C316.093 390.247 316.013 390.193 315.924 390.156C315.836 390.119 315.741 390.1 315.646 390.1C315.55 390.1 315.455 390.119 315.367 390.156C315.278 390.193 315.198 390.247 315.131 390.316C314.771 390.625 280.062 421.197 284.158 461.172C284.2 461.364 284.314 461.532 284.477 461.641C284.64 461.75 284.84 461.791 285.032 461.755Z" fill="white"/>
<path d="M189.731 485.637L173.756 483.801L169.625 451.581L189.148 457.38L189.731 485.637Z" fill="#985952"/>
<path d="M154.729 511.921C154.499 512.555 154.404 513.232 154.451 513.906C154.499 514.58 154.687 515.236 155.004 515.832C156.718 517.822 161.14 520.156 167.174 520.585C172.95 520.996 178.092 520.224 181.469 518.08C182.937 517.32 184.194 516.208 185.127 514.843C186.061 513.477 186.641 511.901 186.817 510.256C187.142 506.98 186.817 503.806 188.342 501.284C189.868 498.762 192.079 496.308 192.576 495.039C193.169 492.848 193.169 490.538 192.576 488.348L154.729 511.921Z" fill="#263238"/>
<path d="M170.516 483.235C170.465 484.478 170.24 485.709 169.847 486.889C168.964 489.43 167.778 491.855 166.316 494.112C165.599 495.311 164.797 496.458 163.917 497.544C162.203 499.62 160.009 501.335 158.158 503.325C156.194 505.202 154.935 507.698 154.592 510.394C154.352 514.923 161.551 516.467 165.339 517.136C169.425 517.851 173.619 517.64 177.612 516.519C179.709 515.972 181.604 514.831 183.069 513.234C184.535 511.636 185.508 509.649 185.874 507.512C186.097 506.242 186.011 504.955 186.165 503.703C186.664 500.811 187.871 498.087 189.679 495.777C190.729 494.443 191.631 492.999 192.37 491.47C193.553 488.674 192.61 485.517 191.856 482.738C191.205 480.319 190.416 477.591 189.559 477.779C189.559 479.032 189.559 479.203 188.719 480.044C187.879 480.885 187.554 482.738 186.354 483.681C186.737 482.636 187.018 481.555 187.194 480.456C187.268 480.015 187.177 479.563 186.937 479.186C186.539 478.83 186.063 478.571 185.548 478.431C183.766 477.834 181.928 477.415 180.063 477.179C177.518 476.887 174.947 476.887 172.401 477.179C171.871 477.274 171.391 477.553 171.047 477.968C170.739 478.424 170.572 478.961 170.567 479.512C170.482 480.164 170.55 482.034 170.516 483.235Z" fill="#455A64"/>
<path d="M165.7 495.073C167.414 493.804 173.464 493.786 175.521 494.009C177.618 494.189 179.635 494.897 181.383 496.068C181.639 496.251 181.952 496.337 182.265 496.312C182.579 496.287 182.873 496.152 183.097 495.931C183.227 495.802 183.328 495.647 183.392 495.476C183.456 495.304 183.483 495.121 183.47 494.939C183.457 494.756 183.404 494.579 183.316 494.418C183.229 494.258 183.107 494.118 182.96 494.009C181.039 492.59 178.759 491.74 176.378 491.556C173.409 491.338 170.424 491.511 167.499 492.071C167.499 492.071 165.203 493.563 165.7 495.073Z" fill="#F5F5F5"/>
<path d="M161.826 499.774C163.951 498.521 170.396 498.693 172.47 498.916C174.526 499.127 176.489 499.879 178.161 501.095C178.418 501.274 178.73 501.359 179.042 501.334C179.355 501.309 179.649 501.176 179.875 500.958C180.005 500.829 180.105 500.674 180.169 500.502C180.234 500.331 180.26 500.148 180.247 499.965C180.234 499.783 180.182 499.605 180.094 499.445C180.006 499.285 179.884 499.145 179.738 499.036C176.926 497.578 173.858 496.681 170.705 496.394C165.562 496.034 164.311 497.063 164.311 497.063C163.721 497.301 163.192 497.668 162.762 498.137C162.332 498.606 162.012 499.165 161.826 499.774Z" fill="#F5F5F5"/>
<path d="M178.401 486.701C175.501 486.369 172.565 486.549 169.728 487.232C168.836 487.73 168.236 489.154 168.819 489.514C171.409 488.815 174.096 488.548 176.772 488.725C178.673 488.916 180.527 489.426 182.257 490.235C182.703 490.441 183.217 490.698 183.663 490.955C183.806 491.047 183.967 491.106 184.135 491.129C184.304 491.153 184.475 491.139 184.637 491.091C184.8 491.042 184.95 490.958 185.078 490.846C185.206 490.734 185.307 490.596 185.377 490.441C185.499 490.188 185.523 489.898 185.443 489.629C185.364 489.359 185.188 489.129 184.948 488.982C182.954 487.763 180.721 486.985 178.401 486.701Z" fill="#F5F5F5"/>
<path d="M130.167 470.985L114.98 466.748V436.021L133.818 436.844L130.167 470.985Z" fill="#985952"/>
<path d="M82.8932 487.438C82.465 488.763 82.5444 490.2 83.116 491.47C83.6817 492.637 89.8352 496.12 98.1312 495.553C104.276 495.112 110.193 493.04 115.272 489.549C118.426 487.456 121.717 487.061 125.83 486.838C129.944 486.615 135.326 484.539 136.235 482.617C136.697 480.897 136.65 479.079 136.098 477.385L82.8932 487.438Z" fill="#263238"/>
<path d="M116.318 461.532L115.666 461.395C115.306 461.31 114.93 461.31 114.569 461.395C114.171 461.526 113.815 461.763 113.541 462.081C112.731 463.125 112.025 464.246 111.432 465.427C109.718 468.258 106.033 470.574 102.057 472.753C99.3484 474.211 96.6916 475.343 93.8977 476.596C91.1038 477.848 87.2471 478.672 85.0188 480.181C81.7621 482.377 81.3336 487.885 85.0188 490.063C88.2069 491.951 96.6402 493.992 105.468 491.487C110.267 490.115 115.615 484.985 121.923 484.488C125.933 484.162 133.527 483.046 136.115 479.993C137.075 478.637 135.789 474.348 134.744 470.642C133.595 466.593 132.515 460.348 131.179 460.64C131.19 460.93 131.132 461.218 131.01 461.48C130.888 461.743 130.705 461.972 130.476 462.15C129.979 462.665 129.31 462.991 128.762 463.454C127.826 464.375 127.07 465.463 126.533 466.662C126.315 467.196 125.914 467.634 125.402 467.897C124.716 468.138 124.219 467.726 123.688 467.451C122.935 467.106 122.083 467.045 121.288 467.28C121.371 466.475 121.515 465.678 121.717 464.895C121.793 464.649 121.793 464.386 121.717 464.14C121.62 463.891 121.438 463.684 121.203 463.557C119.734 462.547 118.069 461.858 116.318 461.532Z" fill="#455A64"/>
<path d="M105.862 470.505C106.148 469.95 106.57 469.476 107.089 469.129C107.607 468.781 108.205 468.57 108.827 468.515C110.644 468.172 113.866 469.527 115.872 471.174C116.063 471.327 116.214 471.525 116.311 471.75C116.407 471.975 116.447 472.22 116.427 472.464C116.407 472.708 116.327 472.944 116.194 473.15C116.061 473.356 115.88 473.526 115.666 473.645C115.397 473.797 115.086 473.861 114.779 473.827C114.471 473.793 114.182 473.664 113.952 473.456C111.74 471.459 108.839 470.401 105.862 470.505Z" fill="#F5F5F5"/>
<path d="M100.188 473.679C100.586 473.117 101.113 472.658 101.724 472.341C102.335 472.025 103.014 471.86 103.702 471.86C106.52 471.984 109.227 472.999 111.432 474.76C111.613 474.91 111.754 475.102 111.845 475.319C111.935 475.536 111.972 475.772 111.952 476.006C111.932 476.24 111.855 476.466 111.729 476.664C111.603 476.863 111.43 477.027 111.227 477.145C110.96 477.305 110.648 477.374 110.338 477.34C110.028 477.306 109.738 477.171 109.513 476.956C108.3 475.749 106.834 474.829 105.221 474.262C103.607 473.695 101.888 473.496 100.188 473.679Z" fill="#F5F5F5"/>
<path d="M94.0347 476.527C94.4871 476.009 95.0461 475.595 95.6734 475.314C96.3006 475.033 96.9812 474.89 97.6685 474.897C100.382 475.064 102.973 476.085 105.073 477.814C105.254 477.966 105.395 478.159 105.485 478.377C105.576 478.596 105.612 478.833 105.592 479.068C105.572 479.303 105.496 479.53 105.37 479.73C105.243 479.93 105.071 480.096 104.868 480.216C104.601 480.376 104.288 480.445 103.979 480.411C103.669 480.377 103.379 480.242 103.153 480.027C102.008 478.777 100.588 477.811 99.0054 477.203C97.4231 476.596 95.7215 476.364 94.0347 476.527Z" fill="#F5F5F5"/>
<path d="M186.234 270.512C187.28 302.2 187.348 370.826 187.348 370.826C187.674 374.772 188.017 381.772 188.308 395.977C188.736 416.565 189.731 467.4 189.731 467.4C189.731 467.4 179.909 472.015 170.876 468.258C170.876 468.258 158.329 396.784 155.758 376.402C153.513 358.611 149.21 316.886 149.21 316.886L143.28 369.848C143.28 369.848 143.28 383.573 142.474 395.686C141.806 405.122 132.652 453.726 132.652 453.726C126.674 455.316 120.361 455.107 114.501 453.126C114.501 453.126 113.678 378.512 113.506 369.848C113.318 360 115.855 253.527 115.855 253.527L186.234 270.512Z" fill="#455A64"/>
<path d="M149.244 316.886L146.982 298.923C139.675 297.054 132.766 293.88 126.584 289.556C126.584 289.556 130.938 295.389 143.725 301.565L146.605 317.864L143.348 369.848L149.244 316.886Z" fill="#37474F"/>
<path d="M115.049 181.59C110.421 187.664 86.6128 220.364 86.6128 220.364L64.6214 203.31C59.4792 199.279 57.9537 193.994 54.7313 190.34C51.5088 186.686 47.9778 185.811 44.3612 182.757C40.7445 179.703 39.3561 177.387 38.122 179.995C36.8879 182.603 40.8817 187.149 41.5501 188.247C42.2186 189.345 46.3495 191.97 40.8988 191.678C35.4481 191.387 24.958 185.159 22.4212 184.009C19.8844 182.86 19.8158 186 21.0157 188.058C22.2155 190.117 21.6156 195.847 23.0212 199.536C24.4267 203.225 26.8949 205.489 31.9171 207.977C36.5965 210.31 47.9779 211.769 51.6802 214.102C59.8049 222.44 75.1286 238.001 79.0024 240.883C84.3331 244.846 89.4924 248.501 97.6513 240.643C105.81 232.785 129.447 201.955 129.447 201.955L134.332 172.635C126.31 172.343 120.637 174.265 115.049 181.59Z" fill="#985952"/>
<path d="M86.6128 220.364C89.6295 222.594 92.7662 227.604 93.0576 229.851C93.0223 227.722 92.5473 225.623 91.6623 223.686C90.7774 221.749 89.5017 220.016 87.9154 218.597L86.6128 220.364Z" fill="#84463F"/>
<path d="M136.217 171.914C136.217 171.914 124.905 171.777 119.934 175.26C114.963 178.742 111.278 183.838 103.205 195.59C96.1256 205.884 92.6975 210.825 92.6975 210.825C97.3316 217.686 104.079 222.843 111.912 225.511L133.029 199.33L136.217 171.914Z" fill="#37474F"/>
<path d="M158.106 171.365C164.517 171.983 173.533 172.051 179.875 172.703C184.28 174.522 192.782 181.934 192.147 187.218C189.782 206.965 185 239.339 185 239.339L186.577 273.652C177.749 282.47 136.44 285.919 115.152 271.816C115.152 271.816 115.837 210.19 117.312 199.759C119.934 181.076 122.231 174.144 131.864 172.497C141.497 170.85 158.106 171.365 158.106 171.365Z" fill="#1BC89E"/>
<path d="M194.41 182.088C199.038 188.161 222.863 220.862 222.863 220.862L244.872 203.808C250.014 199.759 251.54 194.475 254.762 190.838C257.985 187.201 261.516 186.308 265.132 183.255C268.749 180.201 270.137 177.885 271.371 180.475C272.605 183.066 268.612 187.647 267.943 188.745C267.275 189.843 263.144 192.468 268.595 192.176C274.045 191.884 284.518 185.639 287.072 184.49C289.626 183.34 289.66 186.48 288.478 188.539C287.295 190.598 287.861 196.345 286.472 200.034C285.084 203.722 282.598 205.97 277.576 208.475C272.897 210.808 261.516 212.266 257.813 214.599C249.688 222.92 234.365 238.498 230.491 241.364C225.16 245.327 220.001 248.981 211.842 241.14C203.683 233.3 185.034 208.886 185.034 208.886L175.161 173.132C183.166 172.841 188.839 174.762 194.41 182.088Z" fill="#985952"/>
<path d="M222.863 220.862C219.847 223.092 216.71 228.102 216.418 230.349C216.451 228.217 216.925 226.114 217.81 224.174C218.695 222.234 219.972 220.499 221.561 219.077L222.863 220.862Z" fill="#84463F"/>
<path d="M174.03 172.274C174.03 172.274 184.194 171.64 189.542 175.706C194.359 179.411 198.113 184.284 206.272 196.036C213.351 206.33 216.779 211.271 216.779 211.271C212.135 218.13 205.383 223.286 197.547 225.957L183.166 208.217C175.676 198.712 168.254 184.25 174.03 172.274Z" fill="#37474F"/>
<path d="M159.7 124.905C159.734 128.841 158.601 132.699 156.444 135.99C154.288 139.282 151.205 141.859 147.585 143.397C143.965 144.934 139.97 145.363 136.107 144.628C132.244 143.893 128.685 142.029 125.88 139.27C123.076 136.51 121.152 132.981 120.351 129.127C119.551 125.274 119.91 121.269 121.383 117.619C122.857 113.97 125.378 110.84 128.629 108.625C131.88 106.41 135.713 105.21 139.646 105.176C142.257 105.153 144.847 105.645 147.268 106.625C149.689 107.604 151.893 109.051 153.756 110.883C155.618 112.715 157.101 114.896 158.121 117.302C159.141 119.708 159.678 122.292 159.7 124.905Z" fill="#263238"/>
<path d="M174.321 138.939C174.321 138.939 171.219 154.123 169.95 156.611C169.106 158.155 167.701 159.316 166.025 159.853L166.145 149.182L174.321 138.939Z" fill="#263238"/>
<path d="M170.087 117.271C171.211 117.126 172.353 117.242 173.426 117.607C174.499 117.973 175.473 118.58 176.275 119.381C178.949 122.075 177.544 130.584 174.321 138.939L168.253 139.694L170.087 117.271Z" fill="#263238"/>
<path d="M166.437 139.712C167.654 140.432 169.368 137.996 170.859 136.486C172.35 134.976 177.218 132.712 179.721 137.841C182.223 142.971 177.664 150.057 173.824 151.292C167.191 153.454 166.145 149.182 166.145 149.182L165.871 173.921C157.712 184.61 134.761 183.907 144.223 172.755V165.446C141.268 165.942 138.268 166.12 135.275 165.978C130.373 165.275 127.27 161.432 125.728 156.147C123.277 147.672 122.3 140.81 124.185 124.048C126.242 105.69 147.548 105.313 159.118 112.467C170.688 119.621 166.437 139.712 166.437 139.712Z" fill="#985952"/>
<path d="M166.454 141.753C167.054 141.753 169.35 137.876 170.859 136.486C172.933 134.547 170.088 117.271 170.088 117.271C170.8 115.738 171.033 114.025 170.758 112.357C170.483 110.689 169.712 109.143 168.545 107.921C165.648 104.781 161.603 100.955 148.576 102.602C139.269 103.786 129.173 106.788 120.963 102.842C120.232 105.518 120.314 108.35 121.2 110.978C122.085 113.607 123.733 115.911 125.933 117.597C125.933 117.597 128.916 119.484 136.715 120.359C143.905 120.833 151.124 120.631 158.278 119.759C160.54 119.433 161.037 121.611 162.306 127.599C163.42 132.832 164.397 141.736 166.454 141.753Z" fill="#263238"/>
<path d="M170.088 118.609L177.407 114.594C177.169 114.099 176.833 113.657 176.419 113.295C176.006 112.934 175.523 112.66 175 112.492C174.477 112.323 173.925 112.263 173.378 112.315C172.832 112.367 172.301 112.529 171.819 112.793C170.838 113.353 170.111 114.27 169.788 115.354C169.466 116.437 169.573 117.603 170.088 118.609Z" fill="#263238"/>
<path d="M144.171 165.446C144.171 165.446 155.072 163.147 158.86 161.088C161.094 159.9 162.916 158.064 164.088 155.821C163.535 158.056 162.538 160.157 161.157 161.998C158.398 165.601 144.205 168.346 144.205 168.346L144.171 165.446Z" fill="#84463F"/>
<path d="M143.297 137.962C143.292 138.254 143.345 138.544 143.453 138.815C143.561 139.086 143.722 139.334 143.926 139.543C144.13 139.752 144.373 139.918 144.642 140.032C144.91 140.147 145.199 140.207 145.491 140.209C145.946 140.226 146.397 140.106 146.783 139.864C147.17 139.623 147.476 139.271 147.66 138.853C147.845 138.436 147.901 137.973 147.82 137.524C147.739 137.075 147.525 136.661 147.207 136.334C146.888 136.008 146.479 135.784 146.032 135.693C145.586 135.602 145.122 135.647 144.701 135.822C144.28 135.997 143.921 136.295 143.671 136.676C143.42 137.057 143.29 137.505 143.297 137.962Z" fill="#263238"/>
<path d="M149.793 130.43L144.925 128.217C144.642 128.883 144.627 129.633 144.882 130.31C145.138 130.988 145.644 131.541 146.297 131.854C146.619 131.997 146.966 132.073 147.319 132.078C147.671 132.084 148.021 132.018 148.347 131.885C148.673 131.752 148.97 131.555 149.218 131.305C149.467 131.055 149.662 130.757 149.793 130.43Z" fill="#263238"/>
<path d="M128.967 127.736L124.734 131.065C124.934 131.353 125.191 131.597 125.49 131.782C125.788 131.967 126.122 132.088 126.469 132.138C126.816 132.188 127.17 132.165 127.509 132.072C127.847 131.979 128.163 131.817 128.436 131.596C128.998 131.141 129.366 130.489 129.464 129.772C129.563 129.055 129.385 128.327 128.967 127.736Z" fill="#263238"/>
<path d="M126.413 137.43C126.433 137.839 126.573 138.234 126.816 138.565C127.058 138.896 127.392 139.148 127.777 139.29C128.161 139.432 128.579 139.458 128.978 139.365C129.377 139.271 129.74 139.063 130.021 138.765C130.303 138.466 130.491 138.092 130.562 137.688C130.632 137.284 130.583 136.868 130.419 136.492C130.256 136.116 129.986 135.796 129.642 135.572C129.299 135.349 128.897 135.231 128.487 135.234C128.207 135.24 127.93 135.303 127.674 135.417C127.417 135.531 127.186 135.695 126.993 135.899C126.8 136.103 126.65 136.344 126.55 136.606C126.451 136.869 126.404 137.149 126.413 137.43Z" fill="#263238"/>
<path d="M137.76 135.663L136.526 148.787L129.756 146.179L137.76 135.663Z" fill="#84463F"/>
<path d="M141.48 153.711C141.476 154.129 141.597 154.539 141.827 154.888C142.056 155.238 142.384 155.511 142.769 155.673C143.154 155.835 143.579 155.88 143.989 155.8C144.399 155.721 144.776 155.521 145.073 155.227C145.369 154.932 145.572 154.556 145.654 154.146C145.737 153.737 145.697 153.311 145.537 152.925C145.378 152.538 145.108 152.208 144.761 151.975C144.414 151.742 144.006 151.618 143.588 151.618C143.032 151.618 142.498 151.838 142.103 152.23C141.708 152.622 141.484 153.154 141.48 153.711Z" fill="#84463F"/>
<path d="M194.993 13.9375C198.261 14.6661 201.412 15.85 204.351 17.4546C207.163 18.9694 209.682 20.9737 211.791 23.3736C213.819 25.6987 215.317 28.4388 216.179 31.4028C217.08 34.5447 217.151 37.8672 216.384 41.0448C215.877 43.5671 214.875 45.9637 213.436 48.0961C212.144 49.9307 210.59 51.5664 208.825 52.9513C207.098 54.2931 205.257 55.4814 203.323 56.5027L197.872 59.385C196.228 60.2444 194.667 61.2553 193.21 62.4045C191.894 63.4042 190.884 64.7535 190.296 66.299C190 66.9881 189.52 67.5819 188.908 68.0147C188.614 68.2394 188.273 68.3947 187.911 68.469C187.549 68.5432 187.175 68.5346 186.817 68.4436L178.795 66.728C178.41 66.6467 178.045 66.4895 177.721 66.2657C177.397 66.0418 177.122 65.7557 176.909 65.4241C176.685 65.1135 176.537 64.7543 176.478 64.3757C176.418 63.9971 176.448 63.6098 176.567 63.2452C177.234 60.7494 178.401 58.4149 179.995 56.3826C181.431 54.589 183.09 52.9862 184.931 51.6131C186.71 50.3105 188.596 49.1625 190.57 48.1818C192.524 47.2039 194.341 46.2603 196.021 45.3339C197.557 44.5217 199 43.5437 200.323 42.4173C201.478 41.4445 202.279 40.1178 202.603 38.6428C202.899 37.3547 202.88 36.0139 202.545 34.7351C202.211 33.4563 201.572 32.2777 200.683 31.2999C198.467 28.8756 195.505 27.263 192.267 26.7191C186.28 25.3809 181.217 27.3996 177.081 32.7753C176.684 33.3639 176.178 33.8706 175.59 34.2679C175.271 34.4301 174.924 34.5273 174.568 34.5538C174.212 34.5803 173.854 34.5356 173.516 34.4224L164.945 32.518C164.643 32.4597 164.355 32.3417 164.099 32.1708C163.843 32 163.624 31.7797 163.454 31.5229C163.267 31.2601 163.141 30.9591 163.085 30.6417C163.029 30.3242 163.044 29.9982 163.128 29.6872C163.849 27.0504 165.202 24.6298 167.071 22.6359C169.168 20.3188 171.657 18.3906 174.424 16.9399C177.456 15.3465 180.727 14.2571 184.108 13.7145C187.716 13.0791 191.414 13.1549 194.993 13.9375ZM185.942 74.9116C186.319 74.992 186.674 75.1493 186.987 75.3737C187.3 75.5981 187.563 75.8847 187.759 76.2155C187.97 76.5357 188.114 76.8955 188.182 77.273C188.25 77.6505 188.24 78.0378 188.154 78.4115L186.097 87.7103C185.924 88.4526 185.47 89.0987 184.83 89.5118C184.191 89.9249 183.415 90.0725 182.669 89.9235L173.584 87.9162C173.21 87.8359 172.856 87.6804 172.544 87.4592C172.232 87.2381 171.967 86.9558 171.767 86.6295C171.553 86.3105 171.408 85.9507 171.34 85.5728C171.272 85.1948 171.284 84.8069 171.373 84.4334L173.43 75.1175C173.602 74.3752 174.056 73.7291 174.696 73.316C175.336 72.9029 176.111 72.7553 176.858 72.9043L185.942 74.9116Z" fill="#1BC89E"/>
<path d="M221.938 101.418C224.205 101.044 226.514 100.998 228.794 101.281C230.986 101.53 233.117 102.169 235.085 103.168C236.964 104.131 238.612 105.488 239.918 107.149C241.302 108.928 242.195 111.04 242.506 113.273C242.862 115.011 242.862 116.803 242.506 118.54C242.15 120.052 241.572 121.503 240.792 122.847C240.029 124.142 239.157 125.37 238.187 126.518L235.427 129.778C234.597 130.753 233.851 131.798 233.199 132.9C232.618 133.881 232.322 135.003 232.342 136.143C232.339 136.678 232.185 137.202 231.896 137.653C231.765 137.868 231.588 138.053 231.378 138.192C231.168 138.331 230.929 138.423 230.679 138.459L225.074 139.386C224.533 139.471 223.98 139.341 223.532 139.025C223.312 138.882 223.128 138.689 222.995 138.463C222.861 138.237 222.781 137.983 222.76 137.721C222.526 135.963 222.66 134.175 223.155 132.472C223.599 130.943 224.251 129.482 225.092 128.131C225.894 126.837 226.806 125.615 227.817 124.477C228.828 123.344 229.737 122.281 230.594 121.251C231.366 120.336 232.039 119.341 232.599 118.283C233.09 117.364 233.265 116.309 233.096 115.281C232.957 114.377 232.6 113.521 232.056 112.785C231.513 112.05 230.799 111.458 229.977 111.06C227.945 110.067 225.638 109.789 223.429 110.271C221.431 110.566 219.572 111.47 218.105 112.861C216.639 114.252 215.637 116.061 215.236 118.043C215.127 118.527 214.929 118.986 214.653 119.398C214.321 119.763 213.86 119.985 213.367 120.016L207.403 120.994C206.979 121.064 206.545 120.972 206.186 120.736C205.998 120.615 205.839 120.454 205.721 120.264C205.602 120.074 205.527 119.861 205.5 119.638C205.293 117.764 205.546 115.868 206.237 114.114C206.981 112.086 208.084 110.209 209.494 108.573C211.031 106.777 212.849 105.241 214.876 104.026C217.038 102.706 219.437 101.82 221.938 101.418ZM231.725 142.92C231.988 142.876 232.257 142.885 232.516 142.947C232.775 143.009 233.019 143.122 233.233 143.28C233.448 143.433 233.63 143.627 233.768 143.85C233.906 144.074 233.998 144.324 234.039 144.584L235.102 151.069C235.146 151.332 235.137 151.601 235.075 151.861C235.013 152.12 234.9 152.364 234.742 152.579C234.591 152.796 234.398 152.979 234.174 153.118C233.95 153.256 233.7 153.348 233.439 153.385L227.097 154.432C226.837 154.475 226.571 154.465 226.315 154.403C226.059 154.341 225.818 154.228 225.606 154.071C225.386 153.923 225.2 153.73 225.058 153.506C224.916 153.281 224.823 153.03 224.783 152.768L223.72 146.265C223.642 145.731 223.778 145.187 224.099 144.753C224.421 144.319 224.901 144.03 225.434 143.949L231.725 142.92Z" fill="#1BC89E"/>
<g opacity="0.2">
<path opacity="0.2" d="M221.938 101.418C224.205 101.044 226.514 100.998 228.794 101.281C230.986 101.53 233.117 102.169 235.085 103.168C236.964 104.131 238.612 105.488 239.918 107.149C241.302 108.928 242.195 111.04 242.506 113.273C242.862 115.011 242.862 116.803 242.506 118.54C242.15 120.052 241.572 121.503 240.792 122.847C240.029 124.142 239.157 125.37 238.187 126.518L235.427 129.778C234.597 130.753 233.851 131.798 233.199 132.9C232.618 133.881 232.322 135.003 232.342 136.143C232.339 136.678 232.185 137.202 231.896 137.653C231.765 137.868 231.588 138.053 231.378 138.192C231.168 138.331 230.929 138.423 230.679 138.459L225.074 139.386C224.533 139.471 223.98 139.341 223.532 139.025C223.312 138.882 223.128 138.689 222.995 138.463C222.861 138.237 222.781 137.983 222.76 137.721C222.526 135.963 222.66 134.175 223.155 132.472C223.599 130.943 224.251 129.482 225.092 128.131C225.894 126.837 226.806 125.615 227.817 124.477C228.828 123.344 229.737 122.281 230.594 121.251C231.366 120.336 232.039 119.341 232.599 118.283C233.09 117.364 233.265 116.309 233.096 115.281C232.957 114.377 232.6 113.521 232.056 112.785C231.513 112.05 230.799 111.458 229.977 111.06C227.945 110.067 225.638 109.789 223.429 110.271C221.431 110.566 219.572 111.47 218.105 112.861C216.639 114.252 215.637 116.061 215.236 118.043C215.127 118.527 214.929 118.986 214.653 119.398C214.321 119.763 213.86 119.985 213.367 120.016L207.403 120.994C206.979 121.064 206.545 120.972 206.186 120.736C205.998 120.615 205.839 120.454 205.721 120.264C205.602 120.074 205.527 119.861 205.5 119.638C205.293 117.764 205.546 115.868 206.237 114.114C206.981 112.086 208.084 110.209 209.494 108.573C211.031 106.777 212.849 105.241 214.876 104.026C217.038 102.706 219.437 101.82 221.938 101.418ZM231.725 142.92C231.988 142.876 232.257 142.885 232.516 142.947C232.775 143.009 233.019 143.122 233.233 143.28C233.448 143.433 233.63 143.627 233.768 143.85C233.906 144.074 233.998 144.324 234.039 144.584L235.102 151.069C235.146 151.332 235.137 151.601 235.075 151.861C235.013 152.12 234.9 152.364 234.742 152.579C234.591 152.796 234.398 152.979 234.174 153.118C233.95 153.256 233.7 153.348 233.439 153.385L227.097 154.432C226.837 154.475 226.571 154.465 226.315 154.403C226.059 154.341 225.818 154.228 225.606 154.071C225.386 153.923 225.2 153.73 225.058 153.506C224.916 153.281 224.823 153.03 224.783 152.768L223.72 146.265C223.642 145.731 223.778 145.187 224.099 144.753C224.421 144.319 224.901 144.03 225.434 143.949L231.725 142.92Z" fill="black"/>
</g>
<path d="M280.387 119.827C280.896 120.199 281.24 120.755 281.346 121.376C281.452 121.998 281.311 122.636 280.953 123.156L276.428 129.503C276.057 130.013 275.501 130.357 274.88 130.463C274.259 130.569 273.621 130.428 273.103 130.07L266.898 125.66C266.642 125.481 266.425 125.252 266.26 124.987C266.095 124.721 265.985 124.425 265.938 124.116C265.848 123.515 265.988 122.902 266.332 122.401L270.857 116.036C271.224 115.524 271.779 115.179 272.4 115.075C273.003 114.984 273.618 115.132 274.114 115.487L280.387 119.827ZM306.578 76.7817C308.816 78.3617 310.813 80.257 312.509 82.409C314.147 84.4568 315.406 86.7807 316.228 89.2715C317.014 91.652 317.277 94.1743 317 96.666C316.678 99.3192 315.674 101.843 314.086 103.992C312.902 105.729 311.387 107.216 309.629 108.367C308.066 109.338 306.368 110.072 304.59 110.546C302.866 111.006 301.105 111.316 299.328 111.472L294.288 111.901C292.783 112.039 291.293 112.303 289.832 112.69C288.525 113.036 287.338 113.736 286.404 114.715C285.954 115.152 285.399 115.466 284.792 115.624C284.498 115.694 284.191 115.698 283.895 115.635C283.599 115.573 283.32 115.446 283.078 115.264L277.593 111.369C277.07 110.992 276.713 110.426 276.599 109.791C276.534 109.491 276.538 109.18 276.613 108.883C276.687 108.585 276.829 108.309 277.028 108.075C278.303 106.401 279.907 105.005 281.741 103.975C283.392 103.069 285.156 102.388 286.986 101.95C288.743 101.525 290.532 101.25 292.334 101.127C294.048 101.024 295.762 100.886 297.339 100.732C298.755 100.61 300.152 100.328 301.505 99.8914C302.683 99.5322 303.709 98.7896 304.418 97.7812C305.056 96.9075 305.47 95.8912 305.625 94.8208C305.781 93.7503 305.672 92.6581 305.31 91.6391C304.416 89.1107 302.702 86.9546 300.442 85.5143C296.362 82.5977 291.906 82.5005 287.072 85.2226C286.584 85.5344 286.044 85.7552 285.478 85.8746C285.184 85.8955 284.888 85.8577 284.609 85.7635C284.329 85.6693 284.071 85.5204 283.85 85.3256L278.022 81.1737C277.597 80.8849 277.302 80.4417 277.199 79.9384C277.149 79.6811 277.156 79.416 277.218 79.1613C277.28 78.9066 277.396 78.6684 277.559 78.463C278.916 76.7082 280.682 75.3122 282.701 74.3969C285.02 73.3235 287.509 72.6673 290.055 72.4582C292.843 72.2307 295.649 72.4508 298.368 73.1102C301.321 73.7771 304.112 75.0251 306.578 76.7817Z" fill="#1BC89E"/>
<g opacity="0.6">
<path opacity="0.6" d="M280.387 119.827C280.896 120.199 281.24 120.755 281.346 121.376C281.452 121.998 281.311 122.636 280.953 123.156L276.428 129.503C276.057 130.013 275.501 130.357 274.88 130.463C274.259 130.569 273.621 130.428 273.103 130.07L266.898 125.66C266.642 125.481 266.425 125.252 266.26 124.987C266.095 124.721 265.985 124.425 265.938 124.116C265.848 123.515 265.988 122.902 266.332 122.401L270.857 116.036C271.224 115.524 271.779 115.179 272.4 115.075C273.003 114.984 273.618 115.132 274.114 115.487L280.387 119.827ZM306.578 76.7817C308.816 78.3617 310.813 80.257 312.509 82.409C314.147 84.4568 315.406 86.7807 316.228 89.2715C317.014 91.652 317.277 94.1743 317 96.666C316.678 99.3192 315.674 101.843 314.086 103.992C312.902 105.729 311.387 107.216 309.629 108.367C308.066 109.338 306.368 110.072 304.59 110.546C302.866 111.006 301.105 111.316 299.328 111.472L294.288 111.901C292.783 112.039 291.293 112.303 289.832 112.69C288.525 113.036 287.338 113.736 286.404 114.715C285.954 115.152 285.399 115.466 284.792 115.624C284.498 115.694 284.191 115.698 283.895 115.635C283.599 115.573 283.32 115.446 283.078 115.264L277.593 111.369C277.07 110.992 276.713 110.426 276.599 109.791C276.534 109.491 276.538 109.18 276.613 108.883C276.687 108.585 276.829 108.309 277.028 108.075C278.303 106.401 279.907 105.005 281.741 103.975C283.392 103.069 285.156 102.388 286.986 101.95C288.743 101.525 290.532 101.25 292.334 101.127C294.048 101.024 295.762 100.886 297.339 100.732C298.755 100.61 300.152 100.328 301.505 99.8914C302.683 99.5322 303.709 98.7896 304.418 97.7812C305.056 96.9075 305.47 95.8912 305.625 94.8208C305.781 93.7503 305.672 92.6581 305.31 91.6391C304.416 89.1107 302.702 86.9546 300.442 85.5143C296.362 82.5977 291.906 82.5005 287.072 85.2226C286.584 85.5344 286.044 85.7552 285.478 85.8746C285.184 85.8955 284.888 85.8577 284.609 85.7635C284.329 85.6693 284.071 85.5204 283.85 85.3256L278.022 81.1737C277.597 80.8849 277.302 80.4417 277.199 79.9384C277.149 79.6811 277.156 79.416 277.218 79.1613C277.28 78.9066 277.396 78.6684 277.559 78.463C278.916 76.7082 280.682 75.3122 282.701 74.3969C285.02 73.3235 287.509 72.6673 290.055 72.4582C292.843 72.2307 295.649 72.4508 298.368 73.1102C301.321 73.7771 304.112 75.0251 306.578 76.7817Z" fill="white"/>
</g>
</g>
<defs>
<clipPath id="clip0_86_1980">
<rect width="524" height="566" fill="white"/>
</clipPath>
</defs>
</svg>
