<svg width="503" height="538" viewBox="0 0 503 538" fill="none" xmlns="http://www.w3.org/2000/svg">
<path d="M222.498 371.233L221.653 369.247C214.568 352.52 199.004 340.744 180.976 339.18C178.657 338.978 176.325 338.946 174.001 339.084C157.253 340.097 141.312 350.156 133.133 364.877C128.326 373.536 125.79 383.955 118.171 390.253C108.255 398.456 93.7694 396.585 81.1319 394.282C68.4944 391.98 53.9949 390.147 44.1122 398.393C37.9056 403.555 34.979 411.777 34.2199 419.821C32.2051 441.124 44.2459 462.245 61.7102 474.472C79.1745 486.699 101.289 490.877 122.553 489.851C152.35 488.412 181.439 483.178 201.635 461.113C221.83 439.047 231.789 399.712 222.498 371.233Z" fill="#F5F5F5"/>
<path d="M34.3513 534.929C34.3513 535.283 130.478 535.543 249.036 535.543C367.595 535.543 463.741 535.307 463.741 534.929C463.741 534.551 367.625 534.315 249.027 534.315C130.429 534.315 34.3513 534.622 34.3513 534.929Z" fill="#263238"/>
<path d="M430.279 515.566L432.292 527.049L430.592 527.424C422.976 528.987 391.781 535.096 386.413 534.33C380.421 533.471 403.235 524.487 403.235 524.487L402.518 519.628L430.279 515.566Z" fill="#19B690"/>
<g opacity="0.5">
<path opacity="0.5" d="M422.18 528.331C422.226 525.917 423.166 523.606 424.818 521.847C426.434 520.073 428.668 518.988 431.06 518.816L432.277 526.628L422.18 528.331Z" fill="white"/>
</g>
<g opacity="0.5">
<path opacity="0.5" d="M392.203 529.284C392.203 529.284 384.291 532.971 385.524 534.174C386.756 535.377 418.529 530.455 432.339 527.049L432.199 526.44L395.214 532.502C395.214 532.502 393.763 529.112 392.203 529.284Z" fill="white"/>
</g>
<path d="M432.589 526.346C432.44 526.41 432.282 526.452 432.121 526.471L430.763 526.768L425.738 527.768C421.494 528.596 415.611 529.643 409.103 530.659C402.596 531.674 396.619 532.455 392.359 532.971L387.271 533.549L385.883 533.69H385.399L385.883 533.596L387.256 533.409L392.328 532.721C396.619 532.143 402.533 531.315 409.041 530.299C415.548 529.284 421.525 528.268 425.692 527.518L430.732 526.628L432.105 526.393L432.589 526.346Z" fill="#263238"/>
<path d="M395.246 532.924C394.886 532.123 394.441 531.364 393.919 530.659C393.313 530.027 392.638 529.466 391.906 528.987C392.82 529.169 393.633 529.687 394.184 530.44C394.824 531.114 395.201 531.995 395.246 532.924Z" fill="#263238"/>
<path d="M402.799 527.487C402.799 527.487 402.268 527.127 401.753 526.549C401.238 525.971 400.91 525.456 400.973 525.393C401.035 525.331 401.519 525.753 402.018 526.331C402.518 526.909 402.877 527.424 402.799 527.487Z" fill="#263238"/>
<path d="M404.874 525.94C404.874 525.94 404.328 525.8 403.782 525.44C403.236 525.081 402.846 524.737 402.892 524.659C402.939 524.581 403.423 524.8 403.969 525.159C404.515 525.518 404.921 525.862 404.874 525.94Z" fill="#263238"/>
<path d="M405.888 523.096C407.559 523.212 409.122 523.963 410.259 525.194C411.396 526.426 412.019 528.045 412.003 529.722C411.987 531.398 411.332 533.006 410.172 534.215C409.012 535.424 407.435 536.144 405.762 536.228C404.089 536.312 402.448 535.753 401.173 534.665C399.898 533.578 399.087 532.044 398.903 530.378C398.72 528.711 399.18 527.037 400.188 525.698C401.196 524.36 402.677 523.457 404.328 523.175C404.834 523.022 405.37 522.995 405.888 523.096Z" fill="#263238"/>
<path d="M406.091 521.159C405.658 521.557 405.114 521.814 404.531 521.894C403.972 522.071 403.373 522.071 402.814 521.894C403.324 521.728 403.846 521.603 404.375 521.519C404.936 521.35 405.51 521.23 406.091 521.159Z" fill="#263238"/>
<path d="M401.488 525.206C400.907 525.387 400.302 525.477 399.693 525.471C399.035 525.487 398.377 525.445 397.727 525.346C397.333 525.294 396.946 525.199 396.572 525.065C396.341 524.975 396.152 524.803 396.042 524.581C395.991 524.452 395.979 524.311 396.007 524.175C396.034 524.039 396.101 523.914 396.198 523.815C396.828 523.376 397.59 523.169 398.355 523.229C399.12 523.289 399.841 523.612 400.395 524.143C400.728 524.456 400.993 524.834 401.176 525.253C401.285 525.55 401.316 525.721 401.285 525.737C401.023 525.21 400.669 524.733 400.239 524.331C399.76 523.926 399.175 523.666 398.554 523.581C398.189 523.513 397.815 523.519 397.453 523.599C397.091 523.68 396.749 523.833 396.447 524.05C396.198 524.3 396.447 524.628 396.713 524.753C397.055 524.886 397.411 524.981 397.774 525.034C398.407 525.15 399.049 525.213 399.693 525.221C400.786 525.206 401.472 525.206 401.488 525.206Z" fill="#263238"/>
<path d="M401.035 525.362C401.035 525.362 400.676 524.971 400.629 524.159C400.615 523.678 400.717 523.201 400.926 522.768C401.034 522.48 401.214 522.223 401.449 522.024C401.684 521.824 401.966 521.688 402.268 521.628C402.36 521.632 402.451 521.654 402.534 521.693C402.618 521.732 402.693 521.787 402.756 521.856C402.818 521.924 402.866 522.004 402.898 522.091C402.929 522.177 402.943 522.27 402.939 522.362C402.942 522.657 402.884 522.95 402.767 523.221C402.593 523.648 402.368 524.052 402.096 524.424C401.613 525.065 401.207 525.346 401.176 525.315C401.144 525.284 401.488 524.94 401.893 524.299C402.126 523.919 402.319 523.516 402.471 523.096C402.658 522.69 402.72 521.987 402.268 521.972C401.815 521.956 401.425 522.518 401.207 522.909C401.012 523.298 400.9 523.724 400.879 524.159C400.891 524.564 400.944 524.967 401.035 525.362Z" fill="#263238"/>
<path d="M430.841 518.815C430.841 518.815 430.045 518.815 428.797 519.206C427.191 519.653 425.738 520.534 424.599 521.753C423.486 522.996 422.731 524.519 422.414 526.159C422.18 527.409 422.258 528.221 422.196 528.221C422.135 528.04 422.103 527.85 422.102 527.659C422.079 527.137 422.105 526.614 422.18 526.096C422.431 524.383 423.186 522.784 424.35 521.503C425.535 520.241 427.066 519.355 428.75 518.956C429.262 518.838 429.785 518.775 430.311 518.769C430.489 518.754 430.668 518.77 430.841 518.815Z" fill="#263238"/>
<path d="M418.263 526.221C416.978 526.726 415.637 527.072 414.268 527.253C412.914 527.534 411.529 527.634 410.149 527.549C410.149 527.456 411.975 527.284 414.206 526.909C416.438 526.534 418.232 526.128 418.263 526.221Z" fill="#263238"/>
<path d="M423.71 525.362C423.788 525.362 423.616 525.768 423.507 526.221C423.397 526.674 423.335 527.049 423.241 527.065C423.148 527.081 423.023 526.643 423.241 526.128C423.46 525.612 423.647 525.3 423.71 525.362Z" fill="#263238"/>
<path d="M425.364 522.487C425.364 522.487 425.364 522.862 425.067 523.19C424.771 523.518 424.568 523.753 424.49 523.706C424.412 523.659 424.49 523.331 424.786 522.987C425.083 522.644 425.286 522.425 425.364 522.487Z" fill="#263238"/>
<path d="M428.095 520.862C428.095 520.956 427.72 521.003 427.33 521.222C426.94 521.44 426.69 521.69 426.612 521.643C426.534 521.597 426.612 521.159 427.174 520.909C427.736 520.659 428.095 520.768 428.095 520.862Z" fill="#263238"/>
<path d="M430.139 519.987C430.139 519.987 430.046 520.237 429.827 520.362C429.609 520.487 429.39 520.519 429.343 520.44C429.296 520.362 429.437 520.19 429.655 520.065C429.874 519.94 430.092 519.894 430.139 519.987Z" fill="#263238"/>
<path d="M283.902 525.378L282.857 537.002L281.109 536.924C273.306 536.487 241.659 534.174 236.665 532.034C231.109 529.643 255.391 526.94 255.391 526.94L255.969 522.065L283.902 525.378Z" fill="#19B690"/>
<g opacity="0.5">
<path opacity="0.5" d="M272.744 535.658C273.418 533.34 274.924 531.353 276.973 530.08C278.987 528.809 281.404 528.341 283.746 528.768L282.872 536.58L272.744 535.658Z" fill="white"/>
</g>
<g opacity="0.5">
<path opacity="0.5" d="M243.516 528.674C243.516 528.674 234.917 530.143 235.807 531.643C236.696 533.143 268.578 536.674 282.856 537.002V536.377L245.513 532.549C245.513 532.549 245.139 528.924 243.516 528.674Z" fill="white"/>
</g>
<path d="M283.325 536.408H282.841L281.452 536.33L276.334 535.986C272.026 535.658 266.081 535.143 259.511 534.424C252.941 533.705 247.027 532.862 242.751 532.283L237.71 531.455L236.337 531.221C236.179 531.2 236.023 531.169 235.869 531.127H236.353L237.71 531.455L242.798 532.127C247.074 532.69 253.004 533.44 259.558 534.158C266.112 534.877 272.042 535.44 276.365 535.83L281.405 536.143L282.794 536.268L283.325 536.408Z" fill="#263238"/>
<path d="M245.513 533.018C245.392 532.15 245.166 531.301 244.842 530.487C244.403 529.717 243.88 529 243.282 528.346C244.112 528.77 244.76 529.481 245.107 530.346C245.579 531.152 245.724 532.108 245.513 533.018Z" fill="#263238"/>
<path d="M254.268 529.721C254.19 529.721 253.846 529.237 253.503 528.534C253.256 528.136 253.101 527.687 253.05 527.221C253.05 527.221 253.472 527.706 253.815 528.393C254.158 529.081 254.361 529.674 254.268 529.721Z" fill="#263238"/>
<path d="M256.671 528.768C256.593 528.768 256.187 528.487 255.75 528.003C255.313 527.518 255.032 527.065 255.095 527.003C255.157 526.94 255.578 527.284 256.015 527.768C256.452 528.253 256.733 528.706 256.671 528.768Z" fill="#263238"/>
<path d="M258.387 526.284C257.9 526.403 257.392 526.403 256.905 526.284C256.409 526.291 255.918 526.184 255.469 525.972C255.981 525.839 256.518 525.839 257.03 525.972C257.5 525.977 257.963 526.083 258.387 526.284Z" fill="#263238"/>
<path d="M259.09 524.472C258.572 524.742 257.983 524.845 257.404 524.768C256.822 524.807 256.243 524.66 255.75 524.347C256.308 524.323 256.867 524.349 257.42 524.425C257.977 524.388 258.536 524.404 259.09 524.472Z" fill="#263238"/>
<path d="M253.597 527.159C252.991 527.201 252.383 527.132 251.802 526.956C251.158 526.805 250.531 526.591 249.929 526.315C249.561 526.168 249.21 525.979 248.884 525.753C248.682 525.605 248.543 525.388 248.494 525.143C248.484 525.005 248.513 524.866 248.576 524.742C248.639 524.618 248.735 524.514 248.853 524.44C249.576 524.186 250.365 524.188 251.087 524.447C251.808 524.706 252.419 525.206 252.816 525.862C253.062 526.243 253.217 526.677 253.269 527.128C253.309 527.292 253.309 527.463 253.269 527.628C253.14 527.074 252.918 526.545 252.614 526.065C252.269 525.541 251.774 525.132 251.193 524.893C250.859 524.736 250.496 524.646 250.126 524.63C249.756 524.614 249.387 524.672 249.04 524.8C248.728 524.971 248.806 525.331 249.04 525.55C249.337 525.765 249.656 525.948 249.992 526.096C250.576 526.373 251.182 526.603 251.802 526.784C252.91 527.034 253.597 527.112 253.597 527.159Z" fill="#263238"/>
<path d="M253.113 527.206C252.957 526.793 252.957 526.337 253.113 525.925C253.214 525.459 253.434 525.028 253.753 524.675C253.927 524.426 254.161 524.226 254.435 524.095C254.708 523.963 255.011 523.905 255.313 523.925C255.49 523.986 255.637 524.112 255.724 524.277C255.811 524.443 255.831 524.635 255.781 524.815C255.701 525.096 255.563 525.357 255.376 525.581C255.098 525.955 254.772 526.291 254.408 526.581C254.093 526.869 253.713 527.078 253.3 527.19C253.3 527.19 253.69 526.909 254.252 526.393C254.578 526.092 254.87 525.756 255.126 525.393C255.423 525.05 255.657 524.378 255.22 524.253C254.783 524.128 254.268 524.55 253.956 524.878C253.666 525.198 253.448 525.576 253.316 525.987C253.214 526.387 253.146 526.795 253.113 527.206Z" fill="#263238"/>
<path d="M283.605 528.674C283.605 528.674 282.81 528.518 281.53 528.518C279.862 528.515 278.227 528.987 276.815 529.877C275.403 530.768 274.273 532.041 273.556 533.549C272.994 534.705 272.869 535.518 272.807 535.502C272.744 535.486 272.807 535.283 272.807 534.924C272.905 534.418 273.062 533.925 273.275 533.455C273.958 531.865 275.107 530.52 276.569 529.596C278.032 528.673 279.74 528.215 281.468 528.284C281.994 528.289 282.518 528.357 283.028 528.487C283.229 528.52 283.423 528.583 283.605 528.674Z" fill="#263238"/>
<path d="M269.53 532.534C268.156 532.706 266.767 532.706 265.394 532.534C264.015 532.44 262.652 532.178 261.337 531.752C261.337 531.643 263.178 531.971 265.425 532.19C267.673 532.409 269.53 532.424 269.53 532.534Z" fill="#263238"/>
<path d="M275.007 533.127C275.007 533.205 274.82 533.502 274.586 533.893C274.352 534.283 274.211 534.658 274.102 534.643C273.993 534.627 274.008 534.19 274.289 533.721C274.57 533.252 274.96 533.018 275.007 533.127Z" fill="#263238"/>
<path d="M277.364 530.784C277.364 530.862 277.207 531.127 276.88 531.393C276.552 531.658 276.256 531.799 276.193 531.737C276.131 531.674 276.349 531.393 276.661 531.127C276.973 530.862 277.301 530.705 277.364 530.784Z" fill="#263238"/>
<path d="M280.438 529.893C280.438 529.987 280.048 529.893 279.611 530.034C279.174 530.174 278.862 530.33 278.799 530.252C278.737 530.174 279.018 529.815 279.548 529.706C280.079 529.596 280.485 529.893 280.438 529.893Z" fill="#263238"/>
<path d="M282.607 529.612C282.607 529.706 282.451 529.831 282.217 529.893C281.983 529.956 281.764 529.893 281.733 529.893C281.702 529.893 281.889 529.674 282.123 529.612C282.357 529.549 282.591 529.518 282.607 529.612Z" fill="#263238"/>
<path d="M275.756 84.6059C277.988 72.6535 291.174 66.0132 296.324 54.9201C298.337 50.6391 299.055 45.8113 301.255 41.624C303.767 37.2071 307.767 33.8301 312.54 32.098C317.313 30.3659 322.545 30.3919 327.3 32.1714L328.127 33.4526C322.79 44.6707 317.469 52.3734 312.148 63.5759C310.078 67.4067 308.644 71.5491 307.903 75.8408C307.419 80.1687 308.574 84.9184 311.914 87.6995C314.598 89.9181 318.156 90.5899 321.121 92.5273C323.25 94.1248 324.916 96.26 325.95 98.7143C326.984 101.169 327.347 103.854 327.004 106.495C326.236 111.801 323.804 116.725 320.06 120.557C316.626 124.322 311.196 127.541 306.67 125.244C304.376 124.057 302.956 121.744 301.271 119.791C297.806 115.807 293.031 113.276 288.787 110.151C280.641 104.23 273.899 94.5585 275.756 84.6059Z" fill="#263238"/>
<path d="M160.995 140.165C163.991 142.899 180.299 156.617 180.299 156.617L196.481 141.868C196.06 140.665 192.096 133.853 191.644 132.15C191.244 130.681 191.107 129.152 191.238 127.635C191.315 125.744 191.652 123.872 192.237 122.073C192.955 120.51 191.363 118.854 189.99 119.635C188.616 120.416 186.556 124.76 186.619 130.353C186.681 135.947 164.772 123.104 161.65 126.244L160.995 140.165Z" fill="#985952"/>
<path d="M300.132 118.151L246.449 182.475L197.137 137.853L175.633 158.852C175.633 158.852 237.508 227.02 246.949 226.535C256.39 226.051 288.459 204.818 288.459 204.818L300.132 118.151Z" fill="#19B690"/>
<path d="M178.27 108.573C178.483 108.502 178.716 108.516 178.92 108.612C179.123 108.708 179.282 108.879 179.362 109.089L194.016 145.931C194.149 146.261 194.15 146.63 194.02 146.962C193.889 147.293 193.636 147.562 193.314 147.712L175.992 155.993C175.821 156.073 175.636 156.118 175.448 156.125C175.259 156.132 175.072 156.101 174.895 156.034C174.719 155.967 174.558 155.865 174.422 155.735C174.286 155.604 174.178 155.447 174.103 155.274L157.702 117.089C157.628 116.912 157.59 116.721 157.591 116.529C157.593 116.337 157.633 116.148 157.711 115.972C157.788 115.796 157.901 115.638 158.042 115.508C158.183 115.378 158.348 115.277 158.529 115.214L178.27 108.573Z" fill="#263238"/>
<path d="M178.738 111.229L192.159 144.102L174.01 152.336L160.262 117.479L178.738 111.229Z" fill="#F5F5F5"/>
<path d="M183.966 168.429C185.325 167.655 186.605 166.749 187.789 165.726C190.052 163.93 193.079 161.336 196.247 158.258C199.415 155.18 202.068 152.196 203.925 149.977C204.985 148.835 205.921 147.583 206.718 146.243C205.567 147.288 204.487 148.41 203.488 149.602C201.537 151.712 198.806 154.602 195.685 157.664C192.564 160.727 189.599 163.383 187.43 165.273C186.204 166.244 185.047 167.299 183.966 168.429Z" fill="#263238"/>
<path d="M199.4 144.134C199.29 144.228 199.961 144.759 199.883 145.899C199.864 146.2 199.783 146.494 199.646 146.763C199.509 147.031 199.319 147.269 199.087 147.462C198.777 147.661 198.418 147.771 198.05 147.781C197.681 147.791 197.317 147.701 196.996 147.519C196.676 147.338 196.41 147.072 196.229 146.751C196.047 146.43 195.957 146.065 195.966 145.696C196.011 145.381 196.121 145.079 196.29 144.809C196.46 144.54 196.685 144.31 196.95 144.134C197.492 143.826 198.105 143.665 198.729 143.665C198.729 143.665 198.588 143.478 198.214 143.4C197.682 143.288 197.128 143.371 196.653 143.634C196.285 143.818 195.964 144.084 195.715 144.412C195.466 144.74 195.296 145.12 195.217 145.524C195.168 146.041 195.269 146.561 195.507 147.021C195.745 147.482 196.11 147.865 196.559 148.123C197.008 148.382 197.522 148.506 198.04 148.48C198.557 148.454 199.056 148.28 199.478 147.977C199.791 147.71 200.037 147.373 200.197 146.993C200.357 146.613 200.426 146.201 200.398 145.79C200.381 145.248 200.177 144.729 199.821 144.321C199.634 144.165 199.415 144.103 199.4 144.134Z" fill="#263238"/>
<path d="M248.54 201.271C248.972 200.395 249.242 199.447 249.336 198.474C250.097 193.83 249.556 189.065 247.776 184.71C247.471 183.78 246.995 182.916 246.371 182.163C247.413 185.215 248.191 188.352 248.697 191.537C248.922 194.78 248.87 198.037 248.54 201.271Z" fill="#263238"/>
<path d="M240.831 200.771C241.55 200.081 242.137 199.266 242.564 198.365C244.967 194.189 246.326 189.494 246.527 184.678C246.645 183.686 246.587 182.681 246.356 181.71C245.969 185.019 245.38 188.301 244.592 191.537C243.533 194.691 242.276 197.775 240.831 200.771Z" fill="#263238"/>
<path d="M178.426 117.354L187.305 139.462L174.01 144.915L164.74 122.322L178.426 117.354Z" fill="#EBEBEB"/>
<path d="M174.695 139.151L182.557 135.862C183.137 135.619 183.804 135.893 184.047 136.475L184.197 136.835C184.44 137.416 184.166 138.084 183.586 138.327L175.724 141.616C175.143 141.859 174.476 141.585 174.234 141.004L174.083 140.643C173.841 140.062 174.114 139.394 174.695 139.151Z" fill="#19B690"/>
<path d="M167.581 124.686L177.439 120.971L177.978 122.404L168.12 126.119L167.581 124.686Z" fill="#455A64"/>
<path d="M168.928 129.67L179.823 125.564L180.884 128.386L169.989 132.492L168.928 129.67Z" fill="#E0E0E0"/>
<path d="M170.734 134.194L181.629 130.087L182.69 132.909L171.795 137.016L170.734 134.194Z" fill="#E0E0E0"/>
<path d="M161.572 126.244C164.085 126.65 167.143 126.9 169.656 127.322C170.375 127.387 171.069 127.617 171.685 127.994C171.975 128.209 172.182 128.518 172.27 128.868C172.358 129.219 172.322 129.589 172.168 129.916C171.778 130.619 170.78 130.681 169.968 130.666L164.428 130.478C166.792 130.585 169.134 130.978 171.404 131.65C172.434 131.994 173.588 132.697 173.62 133.791C173.575 134.264 173.366 134.707 173.03 135.044C172.694 135.38 172.251 135.589 171.778 135.634C170.812 135.695 169.842 135.695 168.876 135.634C168.876 135.634 165.084 135.634 164.928 136.197C167.284 136.197 170.421 136.681 172.73 136.9C173.386 136.9 173.682 137.837 173.838 138.462C173.922 138.775 173.901 139.108 173.777 139.407C173.652 139.707 173.433 139.957 173.152 140.118C172.85 140.219 172.53 140.251 172.215 140.212L163.039 139.931" fill="#985952"/>
<path d="M319.108 114.292C319.108 114.292 307.95 112.979 300.116 118.135C293.047 122.822 268.234 193.975 269.202 215.098C270.17 236.222 267.47 273.47 263.132 288.813C258.793 304.156 255.516 437.242 289.66 500.645L353.252 491.708L333.371 320.733L335.4 165.633L319.108 114.292Z" fill="#19B690"/>
<g opacity="0.3">
<path opacity="0.3" d="M322.775 114.292C322.775 114.292 311.601 112.979 303.768 118.135C296.698 122.822 271.902 193.975 272.854 215.098C273.805 236.222 271.137 273.47 266.783 288.813C262.429 304.156 259.168 437.242 293.312 500.645L351.442 491.708L337.022 320.733L339.145 165.648L322.775 114.292Z" fill="black"/>
</g>
<path d="M346.151 111.026C346.151 111.026 381.123 107.261 371.775 157.305L362.787 209.958L305.687 244.55C297.978 246.628 304.532 208.614 292.922 191.022C288.568 184.444 288.24 179.522 288.568 176.491C287.46 165.008 296.651 157.852 297.931 146.243C299.367 129.431 299.304 120.12 306.608 118.229L346.12 111.026" fill="#455A64"/>
<path d="M297.291 142.243C297.89 144.665 297.89 147.196 297.291 149.618C296.597 152.238 295.547 154.751 294.17 157.086C292.451 159.976 290.959 162.995 289.707 166.117C287.677 171.98 287.595 178.343 289.473 184.257C290.029 186.023 290.772 187.726 291.689 189.334C292.004 189.942 292.392 190.508 292.844 191.022C291.72 188.788 290.775 186.468 290.019 184.085C288.361 178.281 288.519 172.109 290.472 166.398C291.71 163.315 293.165 160.323 294.826 157.446C296.184 155.036 297.183 152.441 297.791 149.743C298.195 147.914 298.227 146.022 297.884 144.181C297.789 143.679 297.648 143.188 297.463 142.712C297.401 142.415 297.323 142.228 297.291 142.243Z" fill="#263238"/>
<path d="M314.8 114.636C315.628 106.027 316.361 96.949 316.361 96.949C316.361 96.949 305.437 94.0117 304.595 79.3094C303.768 65.2477 307.997 40.8741 307.997 40.8741V39.6398C324.585 34.7026 344.216 34.9526 354.329 48.7956L346.526 118.635C345.605 126.744 337.927 132.431 329.267 131.385C320.418 130.338 314.02 122.838 314.8 114.636Z" fill="#985952"/>
<path d="M307.934 58.6075C307.884 59.0837 308.018 59.561 308.308 59.9415C308.598 60.3221 309.023 60.5771 309.495 60.6543C309.729 60.6967 309.969 60.6917 310.201 60.6396C310.433 60.5875 310.652 60.4894 310.846 60.351C311.039 60.2126 311.203 60.0368 311.327 59.834C311.452 59.6311 311.534 59.4053 311.57 59.17C311.62 58.6938 311.487 58.2165 311.196 57.836C310.906 57.4554 310.482 57.2004 310.01 57.1232C309.776 57.0808 309.536 57.0858 309.304 57.1379C309.072 57.19 308.852 57.2882 308.659 57.4265C308.465 57.5649 308.302 57.7407 308.177 57.9436C308.053 58.1464 307.97 58.3722 307.934 58.6075Z" fill="#263238"/>
<path d="M307.934 56.5606C308.153 56.8263 309.651 55.9357 311.648 56.1232C313.646 56.3107 315.003 57.4825 315.253 57.2481C315.503 57.0138 315.253 56.7013 314.582 56.17C313.778 55.4824 312.78 55.062 311.726 54.967C310.688 54.8603 309.643 55.0903 308.746 55.6232C308.137 56.0294 307.934 56.4825 307.934 56.5606Z" fill="#263238"/>
<path d="M328.72 61.3104C328.67 61.7865 328.804 62.2638 329.094 62.6444C329.384 63.0249 329.809 63.2799 330.281 63.3571C330.521 63.3991 330.766 63.3915 331.003 63.3346C331.24 63.2777 331.462 63.1727 331.657 63.0263C331.851 62.8798 332.014 62.695 332.134 62.4831C332.255 62.2713 332.33 62.037 332.356 61.7947C332.406 61.3185 332.273 60.8413 331.983 60.4607C331.692 60.0801 331.268 59.8251 330.796 59.748C330.556 59.7059 330.31 59.7136 330.074 59.7705C329.837 59.8274 329.614 59.9323 329.42 60.0788C329.225 60.2252 329.063 60.4101 328.943 60.6219C328.822 60.8338 328.747 61.0681 328.72 61.3104Z" fill="#263238"/>
<path d="M328.736 59.3417C328.939 59.6073 330.453 58.7011 332.435 58.9042C334.416 59.1074 335.79 60.2479 336.039 60.0292C336.289 59.8104 335.961 59.4667 335.368 58.9355C334.562 58.2535 333.564 57.8386 332.513 57.748C331.476 57.6388 330.432 57.8632 329.532 58.3886C328.877 58.8105 328.627 59.2167 328.736 59.3417Z" fill="#263238"/>
<path d="M320.028 73.4346C319.028 73.0116 317.98 72.7125 316.907 72.544C316.408 72.4347 315.94 72.2784 315.893 71.9347C315.888 71.4004 316.058 70.8792 316.377 70.4504L318.265 66.7162C319.981 63.5604 321.447 60.2744 322.65 56.8887C320.675 59.894 318.947 63.0553 317.485 66.3413L315.659 70.1067C315.276 70.6872 315.11 71.3844 315.191 72.0753C315.245 72.2631 315.343 72.4357 315.476 72.5793C315.608 72.723 315.773 72.8339 315.955 72.9034C316.229 73.014 316.519 73.0825 316.814 73.1065C317.866 73.3592 318.947 73.4695 320.028 73.4346Z" fill="#263238"/>
<path d="M316.33 96.9488C323.126 97.7179 330.002 96.5876 336.195 93.6834C336.195 93.6834 330.531 103.152 316.189 100.37L316.33 96.9488Z" fill="#703730"/>
<path d="M320.418 78.3562C320.845 77.9151 321.377 77.5904 321.964 77.4127C322.551 77.2349 323.174 77.2102 323.773 77.3407C324.211 77.4213 324.628 77.5903 324.998 77.8375C325.368 78.0846 325.684 78.4046 325.927 78.7781C326.171 79.1289 326.301 79.546 326.301 79.9733C326.301 80.4006 326.171 80.8177 325.927 81.1686C325.569 81.4936 325.124 81.7056 324.646 81.7779C324.169 81.8502 323.68 81.7795 323.243 81.5748C322.332 81.1466 321.515 80.5411 320.84 79.7936C320.63 79.6133 320.456 79.3962 320.325 79.153C320.263 79.034 320.238 78.8996 320.252 78.7664C320.266 78.6332 320.318 78.5069 320.403 78.4031" fill="#19B690"/>
<path d="M325.771 75.4033C325.443 75.4033 325.225 77.5126 323.227 78.8719C321.23 80.2312 318.936 79.7624 318.889 80.0593C318.842 80.3561 319.357 80.5436 320.34 80.653C321.606 80.8068 322.885 80.502 323.945 79.7937C324.96 79.1044 325.674 78.0541 325.943 76.8563C326.114 75.9658 325.911 75.4033 325.771 75.4033Z" fill="#263238"/>
<path d="M383.292 311.421L405.467 402.916C405.467 402.916 431.903 512.472 432.776 515.363L433.604 518.769L396.354 521.581L331.81 318.358L383.292 311.421Z" fill="#263238"/>
<path d="M316.236 375.652C310.213 404.822 288.147 527.206 288.147 527.206L250.366 523.315L271.855 367.215C272.197 363.141 273.025 359.123 274.32 355.247L309.635 249.237L376.051 206.943C376.707 206.943 386.803 234.269 385.414 253.206C384.682 261.678 381.738 269.808 376.878 276.782C372.649 282.954 366.766 291.563 365.455 293.563C363.349 296.75 316.236 375.652 316.236 375.652Z" fill="#263238"/>
<path d="M391.781 243.691C393.591 250.284 395.105 256.955 396.276 263.689C400.52 288.204 411.319 347.856 418.326 363.684C427.205 383.683 441.625 459.225 437.193 473.052C432.761 486.88 336.211 500.832 336.211 500.832C336.211 500.832 330.671 410.29 325.116 387.526C319.56 364.762 307.95 314.749 306.264 285.313C304.579 255.877 305.156 204.771 314.582 173.116C324.008 141.462 345.699 108.198 345.699 108.198C345.699 108.198 364.238 113.323 370.558 120.698C370.558 120.698 378.267 130.166 378.361 139.181C378.454 148.196 382.637 191.053 385.43 215.958C386.304 223.067 389.44 235.238 391.781 243.691Z" fill="#19B690"/>
<path d="M306.171 283.813C306.197 283.663 306.197 283.51 306.171 283.36C306.171 283.017 306.171 282.579 306.171 282.032C306.171 280.814 306.311 279.111 306.421 276.939C306.66 270.66 307.259 264.4 308.215 258.19C308.91 253.918 310.045 249.729 311.601 245.691C313.415 241.093 315.925 236.803 319.045 232.972C322.244 228.863 326.036 224.879 329.719 220.473C331.617 218.256 333.383 215.929 335.009 213.505C336.675 210.986 338.052 208.286 339.114 205.458C341.446 199.885 341.788 193.677 340.081 187.881C339.025 185.258 337.658 182.771 336.008 180.475C335.324 179.356 334.799 178.146 334.448 176.882C334.293 176.275 334.245 175.646 334.307 175.023C334.378 174.423 334.592 173.85 334.931 173.351C335.644 172.354 336.664 171.619 337.834 171.257C339.004 170.82 340.237 170.492 341.407 169.945C342.588 169.42 343.598 168.576 344.326 167.507C344.982 166.459 345.408 165.281 345.574 164.055C345.855 161.783 345.798 159.482 345.402 157.227C345.09 155.086 344.794 153.024 344.513 151.071C343.358 143.259 342.437 136.915 341.782 132.478C341.439 130.322 341.189 128.635 341.002 127.416L340.768 126.119C340.746 125.966 340.714 125.815 340.674 125.666C340.65 125.816 340.65 125.969 340.674 126.119C340.674 126.463 340.674 126.9 340.815 127.447C340.971 128.666 341.173 130.353 341.454 132.509C342.047 136.978 342.89 143.321 343.92 151.149C344.185 153.118 344.466 155.18 344.763 157.321C345.13 159.51 345.178 161.742 344.903 163.945C344.735 165.057 344.337 166.122 343.733 167.07C343.076 168.039 342.155 168.798 341.08 169.257C340.003 169.757 338.786 170.07 337.553 170.523C336.232 170.937 335.081 171.771 334.276 172.898C333.884 173.495 333.633 174.173 333.542 174.882C333.469 175.594 333.522 176.313 333.699 177.007C334.066 178.355 334.634 179.64 335.384 180.819C336.998 183.08 338.339 185.524 339.379 188.1C341.007 193.722 340.66 199.733 338.396 205.13C336.213 210.565 333.085 215.569 329.157 219.911C325.506 224.286 321.714 228.285 318.499 232.41C315.358 236.375 312.848 240.802 311.055 245.534C309.511 249.604 308.397 253.825 307.731 258.127C306.81 264.337 306.288 270.6 306.171 276.876C306.171 279.053 306.14 280.756 306.077 281.985V283.313C306.155 283.657 306.171 283.813 306.171 283.813Z" fill="#263238"/>
<path d="M318.483 296.187C318.483 296.187 318.405 295.937 318.031 295.687C317.481 295.363 316.831 295.252 316.205 295.375C315.716 295.447 315.258 295.66 314.887 295.987C314.516 296.314 314.247 296.742 314.114 297.219C313.922 297.811 313.934 298.45 314.148 299.035C314.362 299.619 314.765 300.115 315.294 300.442C315.822 300.77 316.446 300.911 317.063 300.842C317.681 300.773 318.258 300.498 318.702 300.062C319.067 299.727 319.326 299.293 319.448 298.813C319.57 298.333 319.549 297.828 319.389 297.359C319.195 296.745 318.785 296.223 318.234 295.891C317.844 295.687 317.594 295.687 317.578 295.734C318.182 296.171 318.622 296.798 318.827 297.515C318.922 297.871 318.914 298.247 318.803 298.599C318.693 298.95 318.484 299.263 318.203 299.5C317.874 299.81 317.452 300.002 317.003 300.047C316.554 300.091 316.102 299.986 315.719 299.747C315.336 299.508 315.043 299.149 314.885 298.725C314.728 298.302 314.714 297.838 314.847 297.406C314.932 297.047 315.116 296.718 315.378 296.459C315.64 296.199 315.97 296.018 316.33 295.937C317.056 295.798 317.808 295.885 318.483 296.187Z" fill="#263238"/>
<path d="M328.83 350.028C328.83 350.028 328.736 349.778 328.362 349.544C327.817 349.205 327.164 349.088 326.536 349.216C326.048 349.292 325.592 349.505 325.222 349.832C324.851 350.159 324.582 350.585 324.445 351.059C324.253 351.651 324.264 352.291 324.478 352.875C324.692 353.46 325.096 353.955 325.624 354.283C326.153 354.611 326.776 354.751 327.394 354.682C328.012 354.613 328.589 354.339 329.033 353.903C329.323 353.623 329.546 353.28 329.684 352.901C329.821 352.521 329.87 352.115 329.826 351.714C329.783 351.312 329.647 350.926 329.431 350.585C329.215 350.244 328.924 349.958 328.58 349.747C328.19 349.528 327.925 349.528 327.925 349.575C328.518 350.022 328.955 350.646 329.173 351.356C329.263 351.714 329.25 352.089 329.137 352.44C329.024 352.791 328.815 353.103 328.533 353.34C328.192 353.627 327.774 353.803 327.331 353.848C326.889 353.893 326.443 353.803 326.052 353.59C325.689 353.332 325.412 352.97 325.257 352.553C325.101 352.135 325.074 351.68 325.178 351.247C325.269 350.877 325.464 350.542 325.741 350.281C326.018 350.02 326.365 349.846 326.739 349.778C327.445 349.657 328.172 349.744 328.83 350.028Z" fill="#263238"/>
<path d="M329.157 282.673C329.132 282.844 329.132 283.017 329.157 283.188C329.157 283.584 329.204 284.105 329.298 284.751C329.438 286.141 329.657 288.11 329.938 290.625C330.531 295.734 331.498 303.125 332.793 312.218C333.48 316.765 334.354 321.733 335.4 327.03C335.911 329.798 336.663 332.517 337.647 335.154C337.786 335.508 337.947 335.852 338.13 336.185C338.344 336.52 338.607 336.82 338.911 337.076C339.494 337.581 340.145 338.002 340.846 338.326C342.231 338.957 343.673 339.454 345.153 339.81C351.393 341.108 357.741 341.819 364.113 341.935C370.937 342.214 377.771 342.136 384.587 341.701L385.461 341.591C385.659 341.562 385.847 341.485 386.01 341.368C386.173 341.251 386.306 341.098 386.398 340.919C386.67 340.362 386.834 339.757 386.881 339.138C386.998 338.002 387.029 336.858 386.975 335.717C386.975 333.467 386.694 331.264 386.444 329.092C385.929 324.733 385.258 320.499 384.556 316.39C383.152 308.171 381.607 300.437 380.077 293.36V293.094H379.719C367.246 292.01 354.889 289.861 342.781 286.672C338.396 285.516 334.978 284.469 332.653 283.766L329.953 282.938C329.668 282.836 329.376 282.753 329.079 282.688L329.314 282.782L330 283.032C330.609 283.266 331.436 283.579 332.591 283.97C334.885 284.751 338.302 285.844 342.672 287.094C354.794 290.435 367.194 292.673 379.719 293.781L379.406 293.5C380.967 300.578 382.418 308.312 383.807 316.515C384.494 320.624 385.149 324.858 385.649 329.186C385.898 331.342 386.117 333.545 386.179 335.748C386.234 336.847 386.203 337.95 386.085 339.045C386.041 339.551 385.915 340.047 385.711 340.513C385.57 340.701 385.524 340.763 385.352 340.794L384.525 340.888C377.74 341.329 370.938 341.412 364.144 341.138C357.851 341.03 351.582 340.334 345.418 339.06C343.981 338.726 342.58 338.249 341.236 337.638C340.587 337.404 339.997 337.034 339.504 336.551C339.011 336.069 338.628 335.486 338.38 334.842C337.402 332.256 336.651 329.589 336.133 326.873C335.009 321.608 334.167 316.64 333.449 312.109C331.998 303.031 331.014 295.672 330.328 290.578C329.985 288.063 329.719 286.094 329.532 284.704C329.438 284.079 329.376 283.563 329.314 283.141C329.251 282.72 329.157 282.673 329.157 282.673Z" fill="#263238"/>
<path d="M330.156 294.063C330.737 294.454 331.36 294.779 332.013 295.031C333.23 295.61 335.041 296.36 337.288 297.203C349.117 301.576 361.667 303.659 374.272 303.343C376.691 303.343 378.642 303.14 379.968 302.984C380.668 302.95 381.363 302.85 382.044 302.687C381.349 302.609 380.647 302.609 379.953 302.687C378.611 302.687 376.675 302.781 374.272 302.781C361.759 302.776 349.332 300.707 337.491 296.656C335.212 295.875 333.386 295.203 332.138 294.719C331.501 294.435 330.837 294.215 330.156 294.063Z" fill="#263238"/>
<path d="M417.733 250.003L417.592 249.268C417.483 248.737 417.327 248.034 417.124 247.112C416.672 245.206 416.016 242.425 415.189 238.894C413.473 231.769 410.867 221.489 407.48 208.833L401.878 188.147C399.849 180.71 397.711 172.757 395.168 164.461C392.564 155.759 389.347 147.254 385.539 139.009C383.495 134.658 381.186 130.437 378.626 126.369C377.35 124.25 375.905 122.238 374.303 120.354C372.687 118.401 370.684 116.805 368.42 115.667C366.073 114.501 363.367 114.288 360.867 115.073C358.47 115.924 356.376 117.462 354.844 119.495C351.723 123.526 350.942 128.588 350.49 133.228C349.694 142.603 348.929 151.696 348.196 160.336C346.76 177.601 345.465 193.147 344.373 206.208C343.28 219.27 342.453 229.801 341.86 237.144C341.579 240.769 341.361 243.597 341.22 245.565C341.22 246.503 341.111 247.222 341.064 247.753C341.05 248.003 341.05 248.253 341.064 248.503C341.064 248.503 341.064 248.253 341.173 247.768C341.283 247.284 341.298 246.503 341.392 245.581L342.188 237.175C342.843 229.832 343.748 219.286 344.95 206.255C346.152 193.225 347.447 177.647 348.96 160.398C349.71 151.758 350.521 142.696 351.301 133.306C351.754 128.697 352.534 123.776 355.483 119.994C356.918 118.094 358.876 116.655 361.117 115.854C363.415 115.124 365.906 115.32 368.061 116.401C370.23 117.508 372.148 119.05 373.695 120.932C375.268 122.765 376.688 124.725 377.939 126.791C380.484 130.814 382.783 134.988 384.821 139.29C388.619 147.496 391.837 155.959 394.45 164.617C397.009 172.882 399.131 180.835 401.223 188.256C403.314 195.678 405.186 202.599 406.918 208.911C410.383 221.551 413.067 231.816 414.877 238.91C415.782 242.441 416.438 245.159 416.953 247.097C417.202 248.003 417.374 248.659 417.514 249.221C417.655 249.784 417.733 250.003 417.733 250.003Z" fill="#455A64"/>
<path d="M421.556 244.612C422.165 247.05 433.51 311.687 433.51 311.687L349.101 314.421L337.475 247.394L421.556 244.612Z" fill="#263238"/>
<path d="M338.349 248.659C338.585 248.875 338.841 249.069 339.114 249.237C339.613 249.597 340.393 250.096 341.392 250.8C343.374 252.081 346.308 253.924 349.99 255.971C353.673 258.018 358.121 260.471 363.192 262.877C365.736 264.064 368.373 265.33 371.292 266.377C374.313 267.362 377.478 267.827 380.655 267.752C386.845 267.464 392.906 265.878 398.445 263.096C402.906 260.855 407.095 258.108 410.929 254.909C414.222 252.221 416.719 249.862 418.419 248.222C419.262 247.394 419.98 246.737 420.355 246.284C420.583 246.064 420.792 245.823 420.979 245.565C420.71 245.737 420.459 245.936 420.23 246.159C419.715 246.644 419.028 247.237 418.201 247.987C416.438 249.55 413.894 251.846 410.57 254.456C406.715 257.548 402.528 260.199 398.086 262.361C392.664 265.01 386.759 266.52 380.733 266.799C377.627 266.879 374.531 266.435 371.572 265.486C368.764 264.471 366.064 263.221 363.536 262.065C358.48 259.69 354.017 257.377 350.303 255.331C346.588 253.284 343.623 251.581 341.579 250.393L339.223 249.018C338.95 248.859 338.655 248.738 338.349 248.659Z" fill="#455A64"/>
<path d="M343.514 251.503C343.296 251.503 345.558 265.564 348.57 282.954C351.582 300.344 354.204 314.28 354.422 314.28C354.641 314.28 352.378 300.219 349.366 282.845C346.354 265.471 343.733 251.471 343.514 251.503Z" fill="#455A64"/>
<path d="M383.214 265.127C383.448 267.221 383.667 269.33 383.901 271.377C384.018 272.033 384.018 272.705 383.901 273.361C383.827 273.689 383.666 273.991 383.436 274.236C383.205 274.481 382.913 274.659 382.59 274.751C382.204 274.79 381.817 274.706 381.481 274.513C381.145 274.32 380.878 274.026 380.717 273.673C380.409 272.958 380.255 272.186 380.265 271.408C380.155 269.158 380.031 266.908 379.906 264.674H382.652" fill="#455A64"/>
<path d="M365.83 116.729C358.963 114.417 353.236 123.322 352.456 130.525C351.626 138.832 351.469 147.192 351.988 155.524C353.221 180.147 364.347 203.693 364.347 203.693L293.749 214.286L296.34 241.472L385.617 231.879C388.72 231.548 391.712 230.535 394.378 228.911C397.044 227.287 399.318 225.093 401.038 222.486C402.757 219.879 403.879 216.923 404.324 213.831C404.769 210.739 404.525 207.586 403.61 204.599C395.636 178.554 382.605 141.103 379.719 134.9C375.724 126.541 375.271 119.885 365.83 116.729Z" fill="#19B690"/>
<path d="M388.988 231.16H388.52L387.178 231.347L382.012 232.129C377.487 232.754 370.917 233.691 362.662 234.644C346.152 236.597 322.962 238.91 296.324 240.894L296.745 241.253C295.918 232.613 295.044 223.489 294.155 214.114L293.811 214.552L364.394 203.912H364.784L364.659 203.552C360.071 189.334 356.56 177.569 354.469 169.288C353.408 165.164 352.675 161.898 352.222 159.68L351.707 157.149C351.582 156.586 351.504 156.289 351.504 156.289C351.504 156.289 351.504 156.586 351.598 157.164C351.691 157.742 351.816 158.602 352.035 159.727C352.425 161.961 353.112 165.226 354.11 169.382C356.092 177.694 359.51 189.506 364.035 203.755L364.316 203.333L293.687 213.817H293.312V214.208C294.202 223.582 295.076 232.691 295.903 241.347V241.738H296.277C322.931 239.644 346.12 237.222 362.631 235.129C370.87 234.097 377.44 233.097 381.95 232.379L387.209 231.472L388.535 231.222L388.988 231.16Z" fill="#263238"/>
<path d="M310.244 240.253C310.224 235.553 309.927 230.857 309.354 226.192C309.062 221.474 308.488 216.779 307.638 212.13C307.677 216.83 307.979 221.525 308.543 226.192C308.842 230.908 309.41 235.602 310.244 240.253Z" fill="#263238"/>
<path d="M301.271 216.739C301.271 216.739 301.084 216.63 300.74 216.739C300.243 216.848 299.808 217.145 299.523 217.567C299.286 217.886 299.148 218.268 299.126 218.665C299.103 219.063 299.198 219.458 299.398 219.801C299.64 220.227 300.01 220.566 300.454 220.771C300.899 220.976 301.397 221.036 301.877 220.943C302.358 220.85 302.797 220.608 303.134 220.252C303.47 219.896 303.686 219.443 303.752 218.958C303.819 218.575 303.787 218.181 303.659 217.815C303.53 217.448 303.31 217.121 303.019 216.864C302.004 216.005 301.115 216.301 301.162 216.38C301.208 216.458 301.926 216.505 302.613 217.27C302.804 217.477 302.942 217.727 303.012 218C303.083 218.273 303.085 218.559 303.019 218.833C302.946 219.154 302.787 219.449 302.559 219.686C302.331 219.923 302.042 220.093 301.723 220.176C301.401 220.221 301.072 220.174 300.774 220.042C300.476 219.909 300.221 219.696 300.038 219.426C299.901 219.189 299.829 218.919 299.829 218.645C299.829 218.371 299.901 218.101 300.038 217.864C300.506 216.911 301.286 216.864 301.271 216.739Z" fill="#263238"/>
<path d="M278.534 206.271L275.319 239.753H259.012L255.11 206.271H278.534Z" fill="#EBEBEB"/>
<path d="M278.534 201.943C279.546 203.193 280.098 204.755 280.094 206.365H253.565C253.438 205.556 253.513 204.728 253.786 203.956C254.058 203.184 254.519 202.492 255.126 201.943H278.534Z" fill="#455A64"/>
<path d="M275.522 198.865L276.412 202.177L256.421 202.334L257.748 198.834L275.522 198.865Z" fill="#455A64"/>
<path d="M278.877 214.645C278.877 214.958 276.927 231.504 276.927 231.504H256.999L255.11 214.645H278.877Z" fill="#455A64"/>
<path d="M277.629 211.692L278.144 217.302L258.856 217.755C258.856 217.755 258.856 224.27 260.806 226.223C260.806 226.223 258.856 230.129 261.025 232.301C263.194 234.472 264.489 233.863 264.489 233.863C264.489 233.863 263.615 238.207 265.784 239.3C267.954 240.394 296.09 238.707 296.09 238.707L294.358 220.536L288.116 219.989C287.85 213.974 281.639 210.989 277.629 211.692Z" fill="#985952"/>
<path d="M302.051 41.0146C303.101 37.7628 305.276 34.9928 308.184 33.2026C310.166 32.0726 312.456 31.602 314.722 31.8589V31.3902C316.813 27.6248 320.964 26.8123 325.24 27.531C329.516 28.2497 333.73 31.3745 337.537 33.4057C342.687 36.1555 347.603 39.296 352.534 42.4364C356.623 45.0456 360.805 47.7642 363.629 51.7015C365.103 53.7883 366.147 56.1475 366.702 58.642C367.256 61.1365 367.31 63.7165 366.86 66.2319C365.845 71.716 362.474 77.2626 364.472 82.4654C365.814 85.9183 369.154 88.0901 371.432 91.0587C373.165 93.387 374.126 96.2008 374.179 99.1042C374.232 102.008 373.375 104.855 371.728 107.245C369.45 110.37 365.97 112.151 362.787 114.245C357.746 117.573 353.236 121.76 347.806 124.432C342.375 127.103 335.493 127.963 330.499 124.557C325.506 121.151 323.695 114.01 324.616 107.839C325.537 101.667 328.502 96.0427 330.858 90.2774C333.967 82.7648 336.122 74.8912 337.272 66.8413C337.725 63.6227 337.974 60.1854 336.461 57.3262C335.087 54.7638 332.512 53.1233 330.218 51.3734C324.75 47.2465 320.192 42.0338 316.829 36.0618C315.668 38.9531 313.832 41.5245 311.476 43.5613C308.321 46.4965 304.789 48.9976 300.974 50.9984C300.635 47.6317 301.002 44.2313 302.051 41.0146Z" fill="#263238"/>
<path d="M55.0707 505.16C56.1163 501.035 53.3853 496.895 50.3891 493.911C47.3929 490.927 43.6944 488.27 42.0871 484.317C39.4966 477.912 42.8829 469.568 38.4979 464.241C35.9074 461.116 31.3038 460.085 29.0099 456.725C27.9502 454.866 27.2414 452.827 26.9188 450.71C24.4329 440.058 19.135 430.269 11.5787 422.368C11.1237 431.877 13.2369 441.333 17.696 449.741C19.475 453.101 21.6598 456.366 22.2684 460.131C23.2515 466.225 19.8964 472.537 21.4257 478.521C23.1735 485.364 30.8825 489.911 31.2882 496.957C31.6315 502.926 26.4662 508.191 26.8876 514.144C27.2156 516.679 28.141 519.1 29.5873 521.206C34.2688 528.846 41.0259 534.096 51.2942 533.862L63.8564 534.237L55.0707 505.16Z" fill="#19B690"/>
<g opacity="0.3">
<path opacity="0.3" d="M55.0707 505.16C56.1163 501.035 53.3853 496.895 50.3891 493.911C47.3929 490.927 43.6944 488.27 42.0871 484.317C39.4966 477.912 42.8829 469.568 38.4979 464.241C35.9074 461.116 31.3038 460.085 29.0099 456.725C27.9502 454.866 27.2414 452.827 26.9188 450.71C24.4329 440.058 19.135 430.269 11.5787 422.368C11.1237 431.877 13.2369 441.333 17.696 449.741C19.475 453.101 21.6598 456.366 22.2684 460.131C23.2515 466.225 19.8964 472.537 21.4257 478.521C23.1735 485.364 30.8825 489.911 31.2882 496.957C31.6315 502.926 26.4662 508.191 26.8876 514.144C27.2156 516.679 28.141 519.1 29.5873 521.206C34.2688 528.846 41.0259 534.096 51.2942 533.862L63.8564 534.237L55.0707 505.16Z" fill="black"/>
</g>
<path d="M66.4156 534.58C67.5674 534.746 68.7388 534.714 69.88 534.487C71.2682 534.27 72.6323 533.92 73.953 533.44C75.7712 532.793 77.4694 531.848 78.9779 530.643C79.8878 529.905 80.5964 528.948 81.0378 527.862C81.415 526.642 81.6096 525.374 81.6152 524.097C81.6279 522.739 81.7164 521.382 81.8805 520.034C82.1354 518.593 82.6652 517.213 83.441 515.972C84.9079 513.363 87.3579 510.879 88.1226 507.332C88.8873 503.785 88.3255 500.082 87.7325 496.317C87.1395 492.552 86.5308 488.427 87.9509 484.49C89.371 480.552 92.0083 476.99 93.366 472.537C94.7236 468.084 94.0526 463.241 94.3023 458.475C94.3697 456.064 94.8995 453.687 95.8628 451.476C96.8616 449.242 98.2661 447.132 99.3428 444.789C101.559 440.101 101.918 434.664 102.464 429.383C102.745 426.743 103.026 424.056 103.322 421.353C103.494 418.626 103.944 415.925 104.664 413.291C105.503 410.632 106.493 408.024 107.629 405.478C108.226 404.164 108.706 402.799 109.065 401.401C109.299 399.916 109.361 398.526 109.455 397.073C109.574 394.166 109.444 391.254 109.065 388.37C108.706 385.464 108.16 382.589 107.832 379.683V379.183L107.754 378.605L107.239 378.855C104.558 380.212 102.228 382.175 100.435 384.589C98.7007 386.94 97.3132 389.529 96.3154 392.276C94.5544 397.651 93.2749 403.173 92.4921 408.775C91.7378 414.119 90.0193 419.281 87.4204 424.009C86.0627 426.259 84.4086 428.321 82.9573 430.508C81.4036 432.646 80.3381 435.1 79.8362 437.695C79.1184 443.023 82.0834 447.679 81.4904 452.398C81.2116 454.714 80.4458 456.945 79.2432 458.944C78.104 460.96 76.7775 462.835 75.5135 464.709C74.2247 466.546 73.1068 468.497 72.174 470.537C71.2918 472.513 70.7636 474.628 70.6135 476.787C70.317 481.037 70.9412 485.052 70.6135 488.849C70.2637 492.474 69.2031 495.994 67.4924 499.207C65.9319 502.332 64.3713 505.113 62.9201 507.848C62.2178 509.207 61.5624 510.535 61.0318 511.863C60.5323 513.149 60.1713 514.485 59.955 515.847C59.6046 518.225 59.6046 520.641 59.955 523.019C60.2965 526.344 61.5555 529.509 63.5911 532.159C63.8985 532.556 64.2434 532.922 64.621 533.252C64.8702 533.516 65.1476 533.752 65.4481 533.956C65.9163 534.299 66.1659 534.455 66.1659 534.455C65.2718 533.742 64.451 532.942 63.7159 532.065C61.7712 529.405 60.5797 526.269 60.2671 522.987C59.9706 520.635 60.0074 518.252 60.3764 515.91C60.6114 514.58 60.9773 513.277 61.4687 512.019C62.0359 510.665 62.6714 509.34 63.3726 508.051C64.7771 505.348 66.4936 502.551 68.0542 499.426C69.769 496.153 70.8291 492.576 71.1752 488.896C71.4717 485.005 70.8787 480.974 71.1752 476.834C71.3014 474.727 71.798 472.659 72.6421 470.725C73.5671 468.726 74.6746 466.817 75.9504 465.022C77.2145 463.147 78.5566 461.272 79.7269 459.21C80.9825 457.136 81.7856 454.82 82.0834 452.413C82.6608 447.382 79.727 442.695 80.5228 437.742C80.9992 435.259 82.0169 432.912 83.5035 430.868C84.9235 428.711 86.6245 426.665 87.9977 424.352C90.6492 419.542 92.4097 414.291 93.1943 408.853C94.2243 403.416 94.9421 397.807 96.9864 392.495C97.9532 389.822 99.2986 387.301 100.981 385.011C102.68 382.703 104.885 380.816 107.426 379.496L106.849 379.167C106.849 379.339 106.849 379.511 106.849 379.683C107.177 382.62 107.723 385.511 108.066 388.37C108.484 391.256 108.646 394.174 108.55 397.088C108.472 398.494 108.394 399.963 108.191 401.291C107.828 402.632 107.364 403.943 106.802 405.213C105.65 407.782 104.649 410.416 103.806 413.103C103.066 415.776 102.611 418.521 102.448 421.29C102.167 423.993 101.871 426.68 101.606 429.336C101.028 434.633 100.669 439.914 98.4845 444.507C97.4389 446.789 96.0345 448.898 95.0046 451.21C94.0241 453.504 93.4943 455.965 93.444 458.46C93.1943 463.319 93.8498 468.053 92.5701 472.365C91.2905 476.678 88.5596 480.177 87.2019 484.302C85.8442 488.427 86.3748 492.661 86.999 496.411C87.6232 500.161 88.263 503.879 87.4672 507.238C86.6713 510.597 84.3461 513.082 82.8948 515.769C82.1071 517.055 81.5771 518.483 81.3343 519.972C81.1825 521.342 81.1043 522.719 81.1002 524.097C81.1043 525.334 80.9308 526.565 80.5852 527.753C80.1704 528.785 79.5054 529.698 78.6502 530.409C77.1831 531.611 75.5274 532.561 73.7501 533.221C72.446 533.721 71.0981 534.098 69.7239 534.346C68.8842 534.498 68.0335 534.582 67.1803 534.596L66.4156 534.58Z" fill="#263238"/>
<path d="M105.21 386.151C105.167 386.279 105.13 386.41 105.101 386.542L104.82 387.667C104.586 388.667 104.305 390.151 103.837 392.026C103.369 393.901 102.277 396.01 101.262 398.619C100.133 401.547 99.1543 404.529 98.3284 407.556C97.3921 410.916 96.565 414.65 95.6911 418.634C94.9575 422.903 93.6284 427.047 91.743 430.946C90.7287 432.992 89.5739 435.07 88.6219 437.336C87.7261 439.661 87.1334 442.093 86.8585 444.57C86.2487 449.69 85.3736 454.774 84.2369 459.803L77.3393 488.88C75.1545 497.801 73.1727 505.848 71.5185 512.629C69.8643 519.409 68.5847 524.8 67.664 528.643C67.2426 530.487 66.8993 531.956 66.6496 533.018L66.4156 534.159C66.4014 534.288 66.4014 534.419 66.4156 534.549C66.4798 534.431 66.5271 534.305 66.556 534.174L66.8837 533.049C67.1646 532.002 67.5392 530.549 68.0385 528.721C69.0217 524.893 70.4106 519.456 72.1427 512.769C73.8749 506.082 75.8724 497.973 78.1196 489.067C80.3667 480.162 82.6451 470.318 85.1263 459.944C86.2783 454.897 87.1536 449.791 87.748 444.648C88.0227 442.238 88.5941 439.871 89.449 437.601C90.3229 435.383 91.4621 433.32 92.4764 431.258C94.3624 427.295 95.686 423.088 96.409 418.759C97.2517 414.743 98.0475 411.025 98.937 407.681C99.8265 404.338 100.794 401.338 101.746 398.744C102.698 396.151 103.743 394.057 104.196 392.073C104.649 390.089 104.851 388.682 105.054 387.667L105.242 386.526C105.246 386.4 105.236 386.275 105.21 386.151Z" fill="#263238"/>
<path d="M68.5691 534.58C76.7619 529.643 79.0246 514.8 75.5447 505.895C72.0647 496.989 66.0411 488.88 65.0579 479.334C64.3089 472.037 66.6185 464.506 64.9175 457.366C62.5611 447.742 53.1199 440.32 53.1667 430.399C53.1667 424.837 56.2877 419.587 56.0536 414.025C55.6947 407.213 50.4358 401.838 47.1743 395.838C42.165 386.683 41.7748 375.808 40.027 365.512C38.2793 355.216 34.2843 344.201 25.124 339.185C23.8288 347.95 21.566 353.95 22.3619 365.746C22.6427 369.996 27.6208 378.12 28.3543 387.448C28.7912 393.026 29.0878 398.604 29.4623 404.182C29.8368 409.759 30.2113 415.118 32.1776 420.212C33.7381 424.102 36.1101 427.618 37.2337 431.633C39.3716 439.18 36.6719 447.398 38.4041 455.069C39.8554 461.553 44.3809 467.1 45.3328 473.693C46.6749 482.927 40.7449 492.567 43.8659 501.379C45.4265 505.738 49.0157 509.191 50.108 513.753C50.9195 517.253 50.1081 520.972 50.8259 524.487C52.0119 530.159 62.842 534.518 68.6159 534.127" fill="#19B690"/>
<path d="M27.4024 347.888C27.3851 348.054 27.3851 348.222 27.4024 348.388L27.5897 349.825C27.7925 351.091 28.011 352.95 28.448 355.341C28.8849 357.731 30.1801 360.465 31.1945 363.731C32.2088 366.996 33.3168 370.746 34.3155 374.964C35.3143 379.183 36.0789 383.839 36.9372 388.854C37.6346 394.237 39.0791 399.496 41.2287 404.478C42.3991 407.088 43.7099 409.712 44.6931 412.509C45.6514 415.382 46.249 418.363 46.4721 421.384C46.9599 427.799 47.7986 434.184 48.9845 440.508C51.575 453.46 54.0407 465.787 56.2722 477.021C58.5038 488.255 60.7665 498.285 62.5143 506.707C64.2621 515.128 65.7915 521.956 66.8058 526.737C67.3156 529.07 67.7213 530.883 68.023 532.174C68.1635 532.768 68.2727 533.237 68.3507 533.596C68.388 533.755 68.4349 533.911 68.4911 534.065C68.5121 533.904 68.5121 533.741 68.4911 533.58C68.4131 533.205 68.3351 532.737 68.2259 532.143L67.1647 526.674L63.123 506.582C61.3752 498.098 59.3153 488.005 57.0057 476.802C54.6961 465.6 52.3241 453.241 49.7804 440.304C48.6089 433.999 47.7703 427.637 47.268 421.243C47.0256 418.158 46.4071 415.115 45.4265 412.181C44.4122 409.337 43.0857 406.697 41.9153 404.103C39.7679 399.156 38.3133 393.935 37.5927 388.589C36.7188 383.589 35.8761 378.917 34.8774 374.699C33.9995 370.898 32.9318 367.143 31.6782 363.449C30.6171 360.168 29.3219 357.481 28.8069 355.122C28.2919 352.763 28.0578 350.903 27.8082 349.653C27.6989 349.06 27.6053 348.591 27.5272 348.232C27.4492 347.872 27.4024 347.888 27.4024 347.888Z" fill="#263238"/>
</svg>
