<svg width="533" height="588" viewBox="0 0 533 588" fill="none" xmlns="http://www.w3.org/2000/svg">
<g clip-path="url(#clip0_66_2618)">
<path d="M266.5 582.887C413.684 582.887 533 574.112 533 563.287C533 552.462 413.684 543.687 266.5 543.687C119.316 543.687 0 552.462 0 563.287C0 574.112 119.316 582.887 266.5 582.887Z" fill="#F5F5F5"/>
<g opacity="0.2">
<path opacity="0.2" d="M454.795 549.05L346.491 349.016L238.187 549.05H454.795Z" fill="#1BC89E"/>
<path opacity="0.2" d="M454.795 210.647L346.491 410.664L238.187 210.647H454.795Z" fill="#1BC89E"/>
</g>
<path d="M366.335 328.744L350.487 358.005C350.098 358.725 349.521 359.327 348.817 359.747C348.114 360.166 347.31 360.388 346.491 360.388C345.671 360.388 344.867 360.166 344.164 359.747C343.46 359.327 342.883 358.725 342.494 358.005L326.646 328.744C325.217 326.099 324.5 323.129 324.566 320.124C324.632 317.119 325.478 314.183 327.021 311.603C328.563 309.023 330.751 306.887 333.368 305.406C335.985 303.925 338.943 303.149 341.95 303.153H351.116C354.117 303.163 357.063 303.95 359.669 305.438C362.274 306.925 364.45 309.061 365.983 311.639C367.515 314.217 368.354 317.147 368.416 320.145C368.477 323.143 367.761 326.105 366.335 328.744Z" fill="#1BC89E"/>
<path d="M348.208 498.548L397.437 518.769C398.398 519.174 399.19 519.897 399.68 520.816C400.171 521.735 400.329 522.795 400.13 523.818C399.93 524.84 399.385 525.763 398.585 526.431C397.785 527.099 396.779 527.472 395.737 527.486H297.33C296.287 527.472 295.282 527.099 294.482 526.431C293.682 525.763 293.136 524.84 292.937 523.818C292.737 522.795 292.896 521.735 293.387 520.816C293.877 519.897 294.669 519.174 295.629 518.769L344.722 498.548C345.274 498.317 345.867 498.198 346.465 498.198C347.064 498.198 347.656 498.317 348.208 498.548Z" fill="#1BC89E"/>
<path d="M346.49 460.078C349.975 460.078 352.799 457.255 352.799 453.773C352.799 450.292 349.975 447.469 346.49 447.469C343.006 447.469 340.182 450.292 340.182 453.773C340.182 457.255 343.006 460.078 346.49 460.078Z" fill="#1BC89E"/>
<path d="M346.491 391.174C348.284 391.174 349.738 389.721 349.738 387.928C349.738 386.136 348.284 384.682 346.491 384.682C344.697 384.682 343.243 386.136 343.243 387.928C343.243 389.721 344.697 391.174 346.491 391.174Z" fill="#1BC89E"/>
<path d="M346.491 423C348.529 423 350.181 421.349 350.181 419.313C350.181 417.277 348.529 415.626 346.491 415.626C344.453 415.626 342.801 417.277 342.801 419.313C342.801 421.349 344.453 423 346.491 423Z" fill="#1BC89E"/>
<path d="M454.25 539.177H238.731C236.115 539.186 233.609 540.23 231.761 542.08C229.913 543.93 228.873 546.435 228.868 549.05C228.877 551.661 229.919 554.162 231.767 556.009C233.615 557.855 236.118 558.896 238.731 558.905H454.25C456.863 558.896 459.367 557.855 461.214 556.009C463.062 554.162 464.104 551.661 464.113 549.05C464.109 546.435 463.069 543.93 461.22 542.08C459.372 540.23 456.866 539.186 454.25 539.177Z" fill="#1BC89E"/>
<path d="M454.25 200.791H238.731C236.118 200.8 233.615 201.842 231.767 203.688C229.919 205.534 228.877 208.036 228.868 210.647C228.877 213.258 229.919 215.76 231.767 217.606C233.615 219.452 236.118 220.494 238.731 220.502H454.25C456.863 220.494 459.367 219.452 461.214 217.606C463.062 215.76 464.104 213.258 464.113 210.647C464.104 208.036 463.062 205.534 461.214 203.688C459.367 201.842 456.863 200.8 454.25 200.791Z" fill="#1BC89E"/>
<path d="M172.344 545.328L160.356 541.437L167.804 513.179L179.792 517.07L172.344 545.328Z" fill="#985952"/>
<path d="M160.169 539.84L173.636 544.207C173.864 544.274 174.056 544.427 174.173 544.633C174.291 544.838 174.324 545.082 174.266 545.311L171.46 556.186C171.28 556.746 170.886 557.213 170.364 557.483C169.841 557.754 169.233 557.807 168.671 557.631C164.012 556.033 161.869 555.031 155.934 553.111C152.278 551.921 140.273 548.829 135.24 547.197C130.206 545.566 131.958 540.638 134.236 540.876C144.439 541.947 153.622 541.471 157.873 539.908C158.61 539.632 159.417 539.608 160.169 539.84Z" fill="#263238"/>
<path opacity="0.2" d="M179.792 517.087L167.804 513.179L163.96 527.758L175.966 531.649L179.792 517.087Z" fill="black"/>
<path d="M212.561 231.038C212.561 231.038 191.049 330.528 185.999 366.297C180.472 405.464 159.709 523.085 159.709 523.085L181.969 529.237C181.969 529.237 212.816 415.167 221.828 377.087C231.606 335.745 257.538 230.953 257.538 230.953L212.561 231.038Z" fill="#1BC89E"/>
<path opacity="0.3" d="M239.156 263.663C230.654 282.932 226.454 324.835 229.753 344.122C235.772 319.398 243.016 290.001 248.611 267.384C246.723 260.825 243.594 253.604 239.156 263.663Z" fill="black"/>
<path d="M182.53 529.678L158.689 523.119L159.166 513.417L185.999 522.677L182.53 529.678Z" fill="#263238"/>
<path d="M155.237 540.553C156.346 540.876 157.486 541.082 158.638 541.165C158.695 541.168 158.752 541.156 158.802 541.129C158.852 541.101 158.894 541.061 158.922 541.011C158.95 540.962 158.964 540.906 158.962 540.849C158.96 540.792 158.942 540.737 158.91 540.689C158.604 540.298 155.968 536.883 154.319 536.985C154.129 536.994 153.945 537.052 153.784 537.153C153.623 537.255 153.491 537.396 153.401 537.563C153.23 537.809 153.128 538.096 153.104 538.394C153.08 538.692 153.136 538.992 153.265 539.262C153.747 539.914 154.447 540.372 155.237 540.553ZM157.941 540.553C155.662 540.281 154.098 539.704 153.724 538.973C153.645 538.8 153.615 538.61 153.636 538.421C153.657 538.233 153.728 538.054 153.843 537.902C153.886 537.821 153.949 537.751 154.026 537.701C154.104 537.65 154.193 537.62 154.285 537.614C155.169 537.512 156.836 539.177 157.941 540.502V540.553Z" fill="#263238"/>
<path d="M158.519 541.148H158.655C158.705 541.138 158.751 541.115 158.789 541.082C158.828 541.05 158.858 541.008 158.876 540.961C158.876 540.825 160.322 537.461 159.489 535.863C159.385 535.662 159.236 535.489 159.052 535.356C158.869 535.223 158.658 535.135 158.434 535.099C158.193 535.026 157.934 535.037 157.7 535.13C157.465 535.222 157.269 535.391 157.142 535.609C156.445 536.832 157.414 539.908 158.383 541.012L158.519 541.148ZM158.519 535.761C158.633 535.794 158.739 535.851 158.83 535.927C158.92 536.003 158.994 536.097 159.046 536.203C159.331 537.571 159.17 538.995 158.587 540.264C157.764 538.993 157.454 537.457 157.72 535.965C157.72 535.813 157.958 535.643 158.383 535.728L158.519 535.761Z" fill="#263238"/>
<path d="M235.449 136.577C234.803 138.107 234.259 139.262 233.664 140.553C233.068 141.845 232.422 143.034 231.793 144.258C230.535 146.722 229.208 149.118 227.831 151.514C225.048 156.325 221.982 160.966 218.648 165.413C215.236 170.012 211.454 174.326 207.34 178.31C202.957 182.622 197.988 186.294 192.58 189.22L192.155 189.44C191.467 189.796 190.735 190.059 189.978 190.222C186.105 191.027 182.094 190.87 178.296 189.763C175.14 188.82 172.139 187.423 169.385 185.617C164.766 182.513 160.619 178.759 157.074 174.47C153.78 170.559 150.784 166.407 148.112 162.049C145.473 157.766 143.127 153.309 141.089 148.71C140.564 147.493 140.496 146.129 140.897 144.866C141.298 143.603 142.141 142.527 143.271 141.835C144.402 141.144 145.744 140.882 147.052 141.099C148.359 141.316 149.545 141.997 150.391 143.017L150.561 143.221C153.367 146.62 156.411 150.239 159.471 153.536C162.454 156.818 165.622 159.927 168.96 162.847C171.91 165.52 175.191 167.804 178.721 169.644C180.041 170.323 181.458 170.793 182.921 171.038C183.741 171.19 184.587 171.12 185.37 170.834L182.768 171.836C186.282 169.469 189.487 166.672 192.308 163.51C195.378 160.064 198.219 156.42 200.81 152.601C203.497 148.693 206.048 144.598 208.445 140.384C209.67 138.293 210.843 136.169 211.948 134.011L213.649 130.8C214.176 129.763 214.754 128.574 215.162 127.741L215.264 127.503C216.504 124.889 218.72 122.865 221.437 121.867C224.154 120.868 227.155 120.975 229.794 122.163C232.433 123.352 234.5 125.527 235.552 128.223C236.603 130.918 236.554 133.918 235.415 136.577H235.449Z" fill="#263238"/>
<path opacity="0.3" d="M207.646 159.653C212.986 145.481 224.328 145.243 229.242 148.999C228.885 149.661 228.511 150.324 228.137 150.987C225.469 155.626 222.546 160.113 219.379 164.428C216.13 168.867 212.555 173.058 208.683 176.968C207.459 178.175 206.201 179.364 204.891 180.519C204.441 173.451 205.377 166.363 207.646 159.653Z" fill="black"/>
<path d="M140.664 149.593L129.611 150.001L132.366 138.192C136.171 138.38 139.948 138.949 143.64 139.891C144.312 140.094 144.927 140.453 145.434 140.938C145.942 141.423 146.328 142.02 146.562 142.682C146.795 143.344 146.869 144.052 146.778 144.748C146.687 145.443 146.433 146.108 146.038 146.688C145.44 147.566 144.64 148.288 143.705 148.794C142.77 149.299 141.727 149.574 140.664 149.593Z" fill="#985952"/>
<path d="M146.854 139.619C145.769 138.759 144.527 138.119 143.198 137.733C142.28 142.559 136.396 150.698 136.396 150.698H141.004C141.597 150.7 142.183 150.571 142.721 150.322C143.259 150.072 143.735 149.707 144.116 149.254L147.347 145.379C147.701 144.972 147.97 144.498 148.137 143.986C148.304 143.473 148.366 142.932 148.32 142.395C148.274 141.858 148.121 141.335 147.869 140.858C147.617 140.381 147.272 139.96 146.854 139.619Z" fill="#1BC89E"/>
<path d="M121.143 144.564L124.237 136.237L132.332 138.208L129.577 150.001L121.143 144.564Z" fill="#985952"/>
<path d="M260.123 550.834H247.523L247.081 521.658H259.681L260.123 550.834Z" fill="#985952"/>
<path d="M246.859 549.372H261.024C261.143 549.368 261.261 549.387 261.372 549.428C261.483 549.469 261.585 549.531 261.672 549.612C261.759 549.692 261.829 549.789 261.878 549.897C261.928 550.004 261.955 550.121 261.96 550.239L262.64 561.437C262.64 562.026 262.408 562.591 261.994 563.011C261.581 563.431 261.019 563.671 260.429 563.68C255.498 563.595 253.151 563.306 246.825 563.306C242.999 563.306 230.195 563.697 224.906 563.697C219.618 563.697 219.805 558.463 221.998 557.987C232.065 555.88 241.044 552.89 244.598 550.154C245.237 549.638 246.037 549.361 246.859 549.372Z" fill="#263238"/>
<path opacity="0.2" d="M259.698 521.675H247.081L247.319 536.713H259.919L259.698 521.675Z" fill="black"/>
<path d="M237.15 231.038C237.15 231.038 232.337 340.485 234.378 376.56C236.622 416.05 241.316 533.077 241.316 533.077H264.408C264.408 533.077 270.224 419.228 271.618 380.146C273.132 337.665 279.985 231.038 279.985 231.038H237.15Z" fill="#1BC89E"/>
<path d="M265.344 533.077H240.398L238.493 523.799L266.024 525.175L265.344 533.077Z" fill="#263238"/>
<path d="M242.387 551.564C243.533 551.536 244.673 551.388 245.788 551.123C245.842 551.105 245.89 551.073 245.929 551.032C245.968 550.99 245.995 550.94 246.009 550.885C246.016 550.831 246.008 550.775 245.987 550.725C245.966 550.674 245.933 550.63 245.89 550.596C245.482 550.307 241.911 547.877 240.364 548.489C240.192 548.558 240.04 548.669 239.921 548.811C239.802 548.953 239.721 549.123 239.683 549.304C239.606 549.581 239.599 549.872 239.665 550.151C239.73 550.431 239.865 550.689 240.058 550.902C240.726 551.401 241.556 551.637 242.387 551.564ZM244.938 550.698C242.676 551.14 241.027 551.072 240.432 550.494C240.309 550.351 240.226 550.179 240.191 549.994C240.155 549.809 240.168 549.619 240.228 549.44C240.24 549.35 240.276 549.264 240.333 549.192C240.39 549.12 240.465 549.065 240.551 549.033C241.384 548.71 243.476 549.763 244.938 550.698Z" fill="#263238"/>
<path d="M245.686 551.123C245.73 551.137 245.778 551.137 245.822 551.123C245.865 551.098 245.901 551.064 245.928 551.022C245.954 550.981 245.971 550.934 245.975 550.885C245.975 550.732 246.264 547.112 244.989 545.889C244.827 545.731 244.631 545.611 244.416 545.541C244.2 545.47 243.972 545.45 243.748 545.481C243.499 545.491 243.26 545.583 243.069 545.743C242.878 545.902 242.746 546.121 242.693 546.365C242.387 547.741 244.275 550.375 245.533 551.123C245.583 551.138 245.636 551.138 245.686 551.123ZM243.986 546.025C244.102 546.022 244.218 546.043 244.327 546.087C244.435 546.131 244.533 546.196 244.615 546.28C245.317 547.492 245.609 548.898 245.448 550.29C244.36 549.355 243.101 547.35 243.288 546.45C243.288 546.28 243.424 546.076 243.85 546.025H243.986Z" fill="#263238"/>
<path d="M286.294 129.457C286.482 128.395 286.454 127.306 286.212 126.254C285.969 125.203 285.517 124.211 284.882 123.339C284.247 122.466 283.442 121.731 282.516 121.176C281.59 120.622 280.561 120.26 279.492 120.112H279.356C275.292 119.517 270.19 118.905 265.191 118.667C255.647 118.123 246.081 118.123 236.538 118.667C232.133 119.075 227.831 119.806 224.396 120.469H224.26C222.113 120.902 220.124 121.913 218.509 123.392C216.894 124.871 215.713 126.763 215.094 128.863C210.979 142.712 206.065 170.987 212.493 231.021H279.917C280.393 225.005 279.05 205.43 280.036 180.502C281.021 163.371 283.112 146.32 286.294 129.457Z" fill="#263238"/>
<path opacity="0.3" d="M285.647 133.162C284.253 141.216 282.535 152.176 281.345 163.748C281.345 163.748 275.189 151.683 274.067 141.369C272.944 131.055 281.804 130.273 285.647 133.162Z" fill="black"/>
<g opacity="0.2">
<path opacity="0.2" d="M240.432 134.759C240.292 134.753 240.158 134.701 240.05 134.612C239.942 134.522 239.866 134.401 239.833 134.264C239.801 134.128 239.813 133.985 239.869 133.857C239.925 133.729 240.021 133.622 240.142 133.553L261.16 122.661C261.31 122.588 261.482 122.576 261.64 122.626C261.798 122.677 261.931 122.787 262.011 122.932C262.089 123.084 262.104 123.259 262.053 123.422C262.002 123.584 261.889 123.719 261.739 123.799L240.721 134.657C240.632 134.709 240.534 134.744 240.432 134.759Z" fill="white"/>
<path opacity="0.2" d="M250.056 135.745C249.973 135.748 249.891 135.733 249.814 135.701C249.738 135.668 249.669 135.62 249.614 135.558L238.085 124.122C237.971 123.999 237.908 123.839 237.908 123.672C237.908 123.505 237.971 123.344 238.085 123.221C238.205 123.104 238.367 123.038 238.535 123.038C238.704 123.038 238.865 123.104 238.986 123.221L250.498 134.674C250.616 134.795 250.681 134.956 250.681 135.124C250.681 135.293 250.616 135.454 250.498 135.575C250.44 135.631 250.37 135.675 250.294 135.704C250.218 135.733 250.137 135.747 250.056 135.745Z" fill="white"/>
<path opacity="0.2" d="M265.242 118.65C255.704 118.106 246.143 118.106 236.605 118.65H236.129C235.898 119.525 235.843 120.437 235.969 121.332C236.094 122.228 236.397 123.09 236.86 123.867C238.459 126.416 241.809 127.843 246.842 128.115H248.73C262.334 128.115 267.588 119.857 267.809 119.5L268.285 118.735L265.242 118.65Z" fill="white"/>
</g>
<path d="M237.966 118.548C246.298 116.577 247.761 111.429 247.199 105.77C247.067 104.353 246.846 102.945 246.536 101.556L256.977 92.8899L264.646 86.5348C262.521 95.7616 260.123 112.567 266.347 118.718C266.347 118.718 261.245 127.214 246.91 126.467C234.888 125.804 237.966 118.548 237.966 118.548Z" fill="#985952"/>
<path opacity="0.2" d="M246.536 101.556C246.846 102.945 247.067 104.353 247.199 105.77C251.093 104.988 256.297 100.842 256.841 96.8661C257.032 95.5498 257.078 94.2163 256.977 92.89L246.536 101.556Z" fill="black"/>
<path d="M240.992 57.3419C235.33 60.7404 236.231 69.2366 234.701 75.3198C238.306 75.6767 243.985 69.2705 243.985 69.2705L247.386 59.5339L240.992 57.3419Z" fill="#263238"/>
<path d="M271.108 74.4362C267.486 86.4328 266.007 93.6206 258.321 98.6333C255.849 100.285 252.972 101.23 250.002 101.366C247.031 101.502 244.08 100.824 241.467 99.4047C238.855 97.9857 236.68 95.8798 235.179 93.3149C233.677 90.7499 232.907 87.8237 232.949 84.8525C232.949 73.4167 238.833 55.7107 251.961 53.2638C254.79 52.6595 257.729 52.8096 260.482 53.6991C263.235 54.5885 265.706 56.186 267.646 58.3312C269.586 60.4763 270.927 63.0937 271.535 65.9205C272.143 68.7473 271.995 71.6842 271.108 74.4362Z" fill="#985952"/>
<path d="M259.8 84.6147C268.302 74.7591 257.674 69.8993 266.364 63.0514C256.586 63.5102 240.483 62.8135 237.609 56.1185C234.735 49.4235 243.577 40.3496 250.94 39.5C259.443 38.5144 257.606 49.0327 257.606 49.0327C257.606 49.0327 290.137 47.0106 279.815 60.9273C287.637 60.4515 285.477 73.0938 271.873 83.765C268.455 84.9035 259.8 84.6147 259.8 84.6147Z" fill="#263238"/>
<path d="M277.859 61.0973C277.859 61.0973 284.559 59.1092 284.338 53.8076C286.752 55.4728 287.008 60.5365 277.859 61.0973Z" fill="#263238"/>
<path d="M273.098 86.9596C271.141 89.3753 268.407 91.0386 265.36 91.6665C261.5 92.3632 260.599 88.7948 262.521 85.3114C264.221 82.1848 268.353 78.0556 271.822 78.9222C275.291 79.7889 275.563 83.918 273.098 86.9596Z" fill="#985952"/>
<path d="M251.74 74.1304C251.501 75.116 250.787 75.8296 250.124 75.6767C249.461 75.5238 249.138 74.6402 249.376 73.6546C249.614 72.6691 250.328 71.9554 250.974 72.0913C251.62 72.2273 251.978 73.1279 251.74 74.1304Z" fill="#263238"/>
<path d="M240.466 71.8704C240.228 72.8559 239.513 73.5696 238.867 73.4337C238.221 73.2977 237.864 72.3971 238.102 71.4116C238.34 70.426 239.054 69.7123 239.7 69.8483C240.347 69.9842 240.704 70.8848 240.466 71.8704Z" fill="#263238"/>
<path d="M243.934 73.0768C242.015 75.8743 239.727 78.4006 237.132 80.5875C237.71 81.2102 238.418 81.6988 239.205 82.0188C239.993 82.3388 240.841 82.4825 241.69 82.4396L243.934 73.0768Z" fill="#8B3230"/>
<path d="M245.159 85.9061C246.336 86.0166 247.523 85.8867 248.649 85.5245C249.774 85.1623 250.814 84.5753 251.705 83.7991C251.734 83.7736 251.758 83.7422 251.773 83.707C251.789 83.6718 251.798 83.6337 251.798 83.5951C251.798 83.5566 251.789 83.5185 251.773 83.4833C251.758 83.4481 251.734 83.4168 251.705 83.3913C251.648 83.3362 251.572 83.3055 251.493 83.3055C251.414 83.3055 251.337 83.3362 251.28 83.3913C250.303 84.2216 249.147 84.8148 247.902 85.1243C246.657 85.4338 245.357 85.4513 244.104 85.1754C244.066 85.1681 244.027 85.1685 243.989 85.1766C243.951 85.1847 243.916 85.2003 243.884 85.2224C243.852 85.2446 243.825 85.273 243.805 85.3058C243.784 85.3385 243.77 85.3751 243.764 85.4133C243.749 85.4921 243.766 85.5737 243.81 85.6404C243.855 85.7072 243.924 85.7538 244.002 85.7702L245.159 85.9061Z" fill="#263238"/>
<path d="M256.093 71.3776C256.186 71.4087 256.288 71.4087 256.382 71.3776C256.453 71.3465 256.517 71.3013 256.571 71.2447C256.624 71.1881 256.666 71.1213 256.693 71.0483C256.72 70.9753 256.732 70.8976 256.728 70.8199C256.724 70.7422 256.705 70.666 256.671 70.596C256.306 69.7272 255.731 68.9621 254.998 68.3691C254.265 67.7761 253.397 67.3736 252.471 67.1975C252.313 67.1779 252.154 67.2201 252.028 67.3152C251.901 67.4102 251.816 67.5508 251.79 67.7073C251.781 67.7855 251.787 67.8648 251.809 67.9405C251.83 68.0163 251.866 68.0871 251.915 68.1487C251.964 68.2104 252.025 68.2617 252.094 68.2997C252.163 68.3377 252.239 68.3616 252.318 68.37C253.038 68.522 253.711 68.8454 254.279 69.3128C254.848 69.7802 255.295 70.3778 255.582 71.0548C255.632 71.1481 255.706 71.2269 255.795 71.2834C255.884 71.34 255.987 71.3725 256.093 71.3776Z" fill="#263238"/>
<path d="M237.677 65.1075C237.768 65.1407 237.867 65.1488 237.963 65.1309C238.058 65.1129 238.147 65.0696 238.221 65.0056C238.808 64.5171 239.501 64.1722 240.245 63.9981C240.989 63.8241 241.763 63.8258 242.506 64.003C242.581 64.0275 242.66 64.0371 242.738 64.0312C242.817 64.0253 242.893 64.0039 242.964 63.9684C243.034 63.9329 243.096 63.884 243.148 63.8243C243.199 63.7646 243.238 63.6954 243.263 63.6207C243.287 63.5459 243.297 63.4671 243.291 63.3886C243.285 63.3101 243.264 63.2336 243.228 63.1634C243.193 63.0932 243.144 63.0307 243.084 62.9794C243.024 62.9281 242.955 62.8891 242.88 62.8645C241.949 62.6347 240.978 62.6241 240.043 62.8335C239.107 63.0429 238.233 63.4665 237.49 64.071C237.366 64.1681 237.286 64.3102 237.267 64.4662C237.248 64.6223 237.291 64.7795 237.388 64.9036C237.456 65.0038 237.559 65.0762 237.677 65.1075Z" fill="#263238"/>
<path d="M286.905 124.615L288.317 126.535L289.592 128.336C290.442 129.542 291.208 130.749 292.007 131.955C293.554 134.385 295.017 136.849 296.428 139.33C299.257 144.29 301.822 149.394 304.114 154.623C305.305 157.206 306.325 159.891 307.413 162.525C308.502 165.158 309.42 167.894 310.253 170.647C312.045 176.126 313.521 181.703 314.674 187.35L314.81 187.996C315.06 189.137 315.082 190.315 314.874 191.464C314.667 192.613 314.235 193.709 313.603 194.691C311.412 198.051 308.813 201.128 305.866 203.85C302.834 206.626 299.393 208.918 295.663 210.647C291.98 212.362 288.038 213.453 283.998 213.875C282.02 214.079 280.029 214.113 278.046 213.977C277.06 213.977 276.073 213.791 275.087 213.638L273.591 213.349L271.89 212.924C271.69 212.875 271.517 212.75 271.409 212.575C271.301 212.4 271.266 212.19 271.312 211.989L273.659 202.134C273.659 202.049 274.101 202.032 274.373 201.964L275.308 201.777C275.954 201.641 276.583 201.488 277.23 201.318C278.489 200.977 279.723 200.546 280.92 200.027C283.237 199.076 285.407 197.8 287.365 196.237C291.194 193.088 294.253 189.107 296.309 184.598L295.238 191.938C293.775 187.13 292.228 182.372 290.357 177.665C288.487 172.958 286.446 168.336 284.219 163.782C281.991 159.228 279.61 154.725 277.043 150.341C275.784 148.149 274.458 145.991 273.132 143.85L271.108 140.689L270.105 139.16L269.169 137.801L268.829 137.291C267.147 134.896 266.486 131.931 266.991 129.048C267.497 126.166 269.128 123.602 271.525 121.921C273.922 120.24 276.889 119.58 279.773 120.085C282.658 120.59 285.223 122.219 286.905 124.615Z" fill="#263238"/>
<path d="M264.426 211.938L260.77 217.92L276.635 217.291C276.635 217.291 280.801 206.62 275.122 204.937L272.911 205.532C269.375 206.522 266.344 208.81 264.426 211.938Z" fill="#985952"/>
<path d="M270.955 203.561C269.812 204.333 268.831 205.32 268.064 206.467C272.384 208.812 278.403 216.798 278.403 216.798L279.798 212.414C279.975 211.849 280.026 211.251 279.947 210.664C279.867 210.077 279.66 209.514 279.339 209.016L276.703 204.768C276.415 204.3 276.034 203.896 275.585 203.58C275.135 203.264 274.626 203.043 274.089 202.93C273.551 202.817 272.996 202.815 272.457 202.923C271.918 203.032 271.407 203.249 270.955 203.561Z" fill="#1BC89E"/>
<path d="M262.164 227.129L275.241 225.974L276.635 217.291L260.77 217.92L262.164 227.129Z" fill="#985952"/>
<path d="M101.655 19.6869L100.788 18.2256C103.281 16.7488 105.878 15.454 108.559 14.3513L109.205 15.9316C106.599 16.9946 104.075 18.2498 101.655 19.6869Z" fill="#1BC89E"/>
<path d="M76.8279 49.6954L75.1274 49.1177C79.1586 37.9639 86.4517 28.2784 96.0604 21.3182L97.0637 22.6946C87.7584 29.4604 80.7071 38.869 76.8279 49.6954Z" fill="#1BC89E"/>
<path d="M130.801 121.352C159.708 121.352 183.142 97.9355 183.142 69.0497C183.142 40.1639 159.708 16.7473 130.801 16.7473C101.894 16.7473 78.4604 40.1639 78.4604 69.0497C78.4604 97.9355 101.894 121.352 130.801 121.352Z" fill="#1BC89E"/>
<path opacity="0.6" d="M174.521 69.0497C174.518 79.242 170.948 89.1123 164.43 96.9522C157.913 104.792 148.857 110.108 138.83 111.98C128.804 113.852 118.439 112.161 109.528 107.202C100.617 102.242 93.722 94.3257 90.0362 84.8221C86.3505 75.3186 86.106 64.8264 89.3452 55.1617C92.5843 45.4971 99.1031 37.2683 107.773 31.8997C116.443 26.5312 126.719 24.3608 136.822 25.7643C146.924 27.1678 156.218 32.0568 163.094 39.585C163.107 39.5789 163.121 39.5757 163.136 39.5757C163.151 39.5757 163.165 39.5789 163.179 39.585C170.51 47.6461 174.556 58.1572 174.521 69.0497Z" fill="white"/>
<path d="M174.521 69.0497C174.521 77.5418 172.044 85.8497 167.393 92.9572C162.742 100.065 156.119 105.664 148.334 109.069C140.549 112.475 131.94 113.539 123.559 112.133C115.178 110.726 107.389 106.909 101.145 101.148C93.5106 92.8352 89.3909 81.8929 89.6486 70.6128C89.9063 59.3327 94.5214 48.5896 102.528 40.6333C110.534 32.677 121.31 28.1244 132.599 27.929C143.889 27.7336 154.817 31.9105 163.094 39.585C163.107 39.5789 163.121 39.5757 163.136 39.5757C163.151 39.5757 163.165 39.5789 163.179 39.585C170.51 47.6461 174.556 58.1572 174.521 69.0497Z" fill="white"/>
<path d="M130.801 71.5986C130.466 71.5992 130.134 71.5335 129.825 71.4051C129.516 71.2768 129.235 71.0884 128.999 70.8509L107.675 49.5425C107.424 49.3092 107.223 49.0278 107.084 48.7151C106.944 48.4025 106.869 48.0649 106.863 47.7227C106.857 47.3805 106.92 47.0405 107.048 46.7232C107.177 46.4058 107.368 46.1175 107.61 45.8754C107.852 45.6334 108.141 45.4426 108.458 45.3144C108.776 45.1862 109.116 45.1233 109.459 45.1293C109.801 45.1353 110.139 45.2102 110.452 45.3496C110.765 45.4889 111.046 45.6897 111.28 45.9401L130.801 65.4473L142.075 54.1814C142.559 53.7312 143.199 53.4861 143.859 53.4977C144.52 53.5094 145.151 53.7769 145.618 54.2439C146.085 54.7109 146.353 55.3409 146.365 56.0012C146.376 56.6616 146.131 57.3006 145.68 57.7838L132.604 70.8509C132.125 71.3275 131.477 71.5961 130.801 71.5986Z" fill="#263238"/>
</g>
<defs>
<clipPath id="clip0_66_2618">
<rect width="533" height="588" fill="white"/>
</clipPath>
</defs>
</svg>
