<svg width="643" height="591" viewBox="0 0 643 591" fill="none" xmlns="http://www.w3.org/2000/svg">
<g clip-path="url(#clip0_168_2485)">
<path d="M504.454 114.343C463.426 77.9065 402.31 62.5841 348.422 67.5706C321.311 70.0796 299.503 81.315 274.792 91.3353C240.076 105.379 217.132 99.2253 181.69 95.4381C78.7887 84.25 31.2909 183.664 29.5077 257.83C27.3301 348.06 90.4974 430.4 179.418 453.328C239.271 468.761 296.931 469.408 349.337 449.983C390.238 434.803 400.448 401.475 413.435 363.098C423.376 333.779 432.229 300.688 454.211 277.65C474.298 256.568 494.986 274.32 518.12 261.507C576.916 228.905 539.044 145.05 504.454 114.343Z" fill="#19B690"/>
<path opacity="0.9" d="M504.454 114.343C463.426 77.9065 402.31 62.5841 348.422 67.5706C321.311 70.0796 299.503 81.315 274.792 91.3353C240.076 105.379 217.132 99.2253 181.69 95.4381C78.7887 84.25 31.2909 183.664 29.5077 257.83C27.3301 348.06 90.4974 430.4 179.418 453.328C239.271 468.761 296.931 469.408 349.337 449.983C390.238 434.803 400.448 401.475 413.435 363.098C423.376 333.779 432.229 300.688 454.211 277.65C474.298 256.568 494.986 274.32 518.12 261.507C576.916 228.905 539.044 145.05 504.454 114.343Z" fill="white"/>
<path d="M305.499 561.69C474.476 561.69 611.458 553.692 611.458 543.827C611.458 533.961 474.476 525.964 305.499 525.964C136.523 525.964 -0.458984 533.961 -0.458984 543.827C-0.458984 553.692 136.523 561.69 305.499 561.69Z" fill="#D7D7D7"/>
<path d="M410.436 43.6956H46.6758L70.614 539.093H434.375L410.436 43.6956Z" fill="#19B690"/>
<path opacity="0.2" d="M410.436 43.6956H46.6758L70.614 539.093H434.375L410.436 43.6956Z" fill="black"/>
<path d="M413.798 43.6956H50.0371L73.9912 539.093H437.752L413.798 43.6956Z" fill="#19B690"/>
<path opacity="0.2" d="M394.594 60.3591H66.6699L89.5825 516.701L374.727 516.322L422.114 474.316L394.594 60.3591Z" fill="black"/>
<path d="M397.103 60.3433C400.6 197.008 411.636 333.376 430.162 468.824C404.178 486.708 378.325 504.592 352.604 522.476H107.351C84.2022 369.427 70.6155 215.083 66.6699 60.3433H397.103Z" fill="white"/>
<path d="M430.16 468.825C404.176 486.709 378.323 504.593 352.602 522.477C358.219 498.807 364.074 475.137 370.165 451.467L430.16 468.825Z" fill="#EBEBEB"/>
<path d="M155.589 102.097C156.21 118.803 156.936 135.519 157.767 152.246H107.634C106.792 135.519 106.066 118.803 105.456 102.097H155.589ZM160.702 96.8109H99.9805C100.685 117.041 101.564 137.281 102.616 157.532H163.353C162.301 137.292 161.423 117.051 160.718 96.8109H160.702Z" fill="#19B690"/>
<path d="M360.445 120.923H188.727C188.569 117.151 188.427 113.364 188.285 109.593H359.987C360.129 113.364 360.287 117.151 360.445 120.923Z" fill="#E0E0E0"/>
<path d="M324.167 144.751H189.784C189.611 140.963 189.421 137.192 189.264 133.421H323.63C323.809 137.197 323.988 140.974 324.167 144.751Z" fill="#E0E0E0"/>
<path d="M160.513 200.312C161.565 217.039 162.738 233.766 164.032 250.492H113.883C112.589 233.766 111.416 217.039 110.364 200.312H160.513ZM165.468 195.026H104.746C105.987 215.277 107.402 235.528 108.991 255.779H169.791C168.213 235.538 166.793 215.287 165.531 195.026H165.468Z" fill="#19B690"/>
<path d="M257.211 219.153H194.091C193.839 215.366 193.571 211.595 193.334 207.807H256.454C256.691 211.595 256.943 215.366 257.211 219.153Z" fill="#E0E0E0"/>
<path d="M316.971 219.153H270.562C270.31 215.366 270.041 211.595 269.805 207.807H316.214C316.45 211.595 316.703 215.366 316.971 219.153Z" fill="#E0E0E0"/>
<path d="M346.102 242.997H195.829C195.544 239.21 195.276 235.438 194.992 231.651H345.265C345.549 235.438 345.817 239.21 346.102 242.997Z" fill="#E0E0E0"/>
<path d="M168.039 298.574C169.544 315.301 171.164 332.028 172.9 348.754H122.751C121.015 332.028 119.395 315.301 117.891 298.574H168.039ZM172.868 293.288H112.131C113.919 313.549 115.876 333.806 118.001 354.057H178.738C176.634 333.795 174.678 313.539 172.868 293.288Z" fill="#19B690"/>
<path d="M375.089 329.929H203.355L204.492 341.259H376.225L375.089 329.929Z" fill="#E0E0E0"/>
<path d="M335.48 306.085H201.098C201.445 309.857 201.792 313.644 202.155 317.415H336.522C336.174 313.644 335.811 309.904 335.48 306.085Z" fill="#E0E0E0"/>
<path d="M178.187 396.836C180.144 413.563 182.211 430.284 184.389 447.001H134.24C132.062 430.295 129.995 413.573 128.038 396.836H178.187ZM182.921 391.55H122.137C124.451 411.811 126.95 432.057 129.632 452.287H190.306C187.645 432.057 185.146 411.811 182.811 391.55H182.921Z" fill="#19B690"/>
<path d="M384.542 415.63H212.808C212.351 411.843 211.893 408.072 211.451 404.284H383.169C383.627 408.119 384.069 411.89 384.542 415.63Z" fill="#E0E0E0"/>
<path d="M293.964 439.505H215.789C215.3 435.734 214.827 431.946 214.354 428.175H292.528C293.001 431.946 293.474 435.734 293.964 439.505Z" fill="#E0E0E0"/>
<path d="M340.642 439.505H306.889C306.4 435.734 305.927 431.946 305.453 428.175H339.207C339.68 431.946 340.216 435.734 340.642 439.505Z" fill="#E0E0E0"/>
<path d="M133.497 145.082L131.272 141.547C126.412 133.815 116.502 126.919 113.078 124.899L115.634 120.37C122.353 124.45 128.355 129.605 133.403 135.63C141.04 125.231 152.339 114.485 167.803 102.934L171.07 107.194C154.564 119.55 143.013 130.864 135.722 141.752L133.497 145.082Z" fill="#19B690"/>
<path d="M139.495 243.328L137.175 239.794C132.125 232.061 122.026 225.15 118.555 223.13L120.969 218.601C127.815 222.682 133.959 227.84 139.163 233.876C146.517 223.461 157.516 212.715 172.68 201.148C173.8 202.569 174.937 203.989 176.057 205.425C159.883 217.796 148.631 229.095 141.641 239.999C140.915 241.103 140.205 242.224 139.495 243.328Z" fill="#19B690"/>
<path d="M148.205 341.843L145.791 338.308C140.52 330.576 130.232 323.664 126.713 321.66C127.47 320.082 128.291 318.63 129.017 317.131C135.97 321.219 142.242 326.367 147.606 332.391C154.691 321.976 165.405 311.245 180.239 299.663L183.742 303.939C167.962 316.311 156.916 327.609 150.241 338.513L148.205 341.843Z" fill="#19B690"/>
<path d="M307.282 495.256C297.972 495.256 292.607 491.816 287.873 488.786C283.139 485.756 279.068 483.137 271.209 483.137C263.351 483.137 259.848 485.883 256.139 488.786C252.431 491.69 247.886 495.256 238.576 495.256C229.266 495.256 223.901 491.816 219.182 488.786C214.464 485.756 210.393 483.137 202.519 483.137C194.645 483.137 191.157 485.883 187.449 488.786C183.741 491.69 179.196 495.256 169.902 495.256C160.607 495.256 155.226 491.816 150.492 488.786C145.758 485.756 141.703 483.137 133.828 483.137C133.623 481.559 133.402 480.107 133.197 478.592C142.507 478.592 147.857 482.032 152.591 485.062C157.325 488.092 161.38 490.711 169.239 490.711C177.097 490.711 180.6 487.966 184.309 485.062C188.017 482.159 192.577 478.592 201.888 478.592C211.198 478.592 216.531 482.032 221.265 485.062C225.999 488.092 230.071 490.711 237.929 490.711C245.788 490.711 249.291 487.966 252.999 485.062C256.707 482.159 261.268 478.592 270.578 478.592C279.888 478.592 285.238 482.032 289.972 485.062C294.706 488.092 298.761 490.711 306.635 490.711C306.84 492.226 307.077 493.741 307.282 495.256Z" fill="#EBEBEB"/>
<path d="M320.631 55.9565C315.298 41.7545 302.973 32.4285 289.718 32.4285H262.703C260.692 32.411 258.73 31.8035 257.061 30.6815C255.392 29.5595 254.089 27.9722 253.314 26.1165C251.404 21.581 248.21 17.7024 244.126 14.9578C240.041 12.2132 235.243 10.7221 230.322 10.6679C225.562 10.6196 220.91 12.0919 217.045 14.8705C213.179 17.6491 210.301 21.5889 208.83 26.1165C208.231 27.969 207.054 29.581 205.472 30.7168C203.891 31.8525 201.987 32.4524 200.041 32.4285H173.041C159.77 32.4285 148.345 41.8018 144.4 55.9565L142.822 61.59H322.714L320.631 55.9565Z" fill="#263238"/>
<path d="M321.595 67.1445H144.543C143.05 67.1271 141.619 66.5443 140.538 65.5135C139.458 64.4828 138.808 63.0807 138.721 61.59C138.682 60.8737 138.79 60.1571 139.039 59.4843C139.287 58.8115 139.671 58.1967 140.166 57.6778C140.662 57.1589 141.258 56.7469 141.918 56.4671C142.579 56.1874 143.29 56.0458 144.007 56.0512H321.058C322.549 56.0683 323.978 56.6489 325.058 57.6764C326.138 58.7038 326.79 60.102 326.881 61.59C326.922 62.3075 326.816 63.0258 326.568 63.7005C326.32 64.3752 325.937 64.9919 325.442 65.5125C324.946 66.0331 324.349 66.4466 323.688 66.7273C323.026 67.008 322.314 67.15 321.595 67.1445Z" fill="#19B690"/>
<path opacity="0.2" d="M321.595 67.1445H144.543C143.05 67.1271 141.619 66.5443 140.538 65.5135C139.458 64.4828 138.808 63.0807 138.721 61.59C138.682 60.8737 138.79 60.1571 139.039 59.4843C139.287 58.8115 139.671 58.1967 140.166 57.6778C140.662 57.1589 141.258 56.7469 141.918 56.4671C142.579 56.1874 143.29 56.0458 144.007 56.0512H321.058C322.549 56.0683 323.978 56.6489 325.058 57.6764C326.138 58.7038 326.79 60.102 326.881 61.59C326.922 62.3075 326.816 63.0258 326.568 63.7005C326.32 64.3752 325.937 64.9919 325.442 65.5125C324.946 66.0331 324.349 66.4466 323.688 66.7273C323.026 67.008 322.314 67.15 321.595 67.1445Z" fill="black"/>
<path d="M480.533 534.343H468.966L467.814 507.564H479.381L480.533 534.343Z" fill="#FFC3BD"/>
<path d="M549.948 534.343H538.381L532.574 507.564H544.125L549.948 534.343Z" fill="#FFC3BD"/>
<path d="M537.562 533.002H550.549C550.778 533 551 533.078 551.178 533.222C551.356 533.366 551.48 533.567 551.527 533.791L553.815 544.079C553.867 544.329 553.862 544.587 553.801 544.834C553.74 545.082 553.624 545.313 553.462 545.509C553.3 545.706 553.096 545.864 552.865 545.972C552.634 546.079 552.381 546.133 552.127 546.13C547.598 546.052 545.388 545.783 539.676 545.783C536.157 545.783 528.914 546.146 524.07 546.146C519.225 546.146 518.578 541.412 520.566 540.923C529.482 538.966 532.828 536.284 535.684 533.712C536.202 533.254 536.87 533.002 537.562 533.002Z" fill="#263238"/>
<path d="M469.046 533.002H481.67C481.899 533 482.121 533.078 482.299 533.222C482.478 533.366 482.601 533.567 482.648 533.791L484.936 544.079C484.992 544.32 484.994 544.571 484.942 544.813C484.889 545.055 484.784 545.282 484.633 545.478C484.482 545.675 484.289 545.835 484.069 545.948C483.848 546.06 483.606 546.123 483.358 546.13C478.798 546.052 472.217 545.783 466.489 545.783C459.799 545.783 454.023 546.146 446.165 546.146C441.431 546.146 440.105 541.412 442.093 540.923C451.135 538.935 458.52 538.73 466.331 533.901C467.14 533.364 468.077 533.053 469.046 533.002Z" fill="#263238"/>
<path d="M491.705 112.528C490.127 120.986 489.212 131.464 495.129 137.113C495.129 137.113 491.737 145.697 476.02 145.697C461.66 145.697 468.856 137.113 468.856 137.113C478.324 134.856 477.787 123.195 476.146 116.599L491.705 112.528Z" fill="#FFC3BD"/>
<path d="M464.342 138.296C464.657 136.198 468.35 133.752 472.547 132.837C476.745 131.921 492.872 129.886 497.795 131.921C502.719 133.957 496.943 139.985 496.943 139.985L464.342 138.296Z" fill="#19B690"/>
<path opacity="0.4" d="M464.342 138.296C464.657 136.198 468.35 133.752 472.547 132.837C476.745 131.921 492.872 129.886 497.795 131.921C502.719 133.957 496.943 139.985 496.943 139.985L464.342 138.296Z" fill="white"/>
<path opacity="0.2" d="M467.814 507.58L468.414 521.372H479.981L479.381 507.58H467.814Z" fill="black"/>
<path opacity="0.2" d="M544.141 507.58H532.574L535.572 521.372H547.139L544.141 507.58Z" fill="black"/>
<path d="M519.084 147.528L505.15 156.838C505.15 156.838 525.159 192.422 523.487 198.119C521.199 205.882 518.011 222.846 513.672 231.462C514.24 233.324 517.127 237.568 518.737 238.294C529.783 229.899 540.939 203.578 540.529 196.209C539.567 179.498 519.084 147.528 519.084 147.528Z" fill="#FFC3BD"/>
<path d="M513.669 231.493L502.623 230.641L508.414 242.807C508.414 242.807 518.056 243.234 519.665 235.864L513.669 231.493Z" fill="#B55B52"/>
<path d="M568.269 290.826L567.338 292.578L561.089 304.397L339.254 187.104L346.418 173.533L568.269 290.826Z" fill="#19B690"/>
<path d="M582.613 263.732L578.037 272.379L575.449 277.271L353.598 159.978L360.762 146.407L582.613 263.732Z" fill="#19B690"/>
<path d="M353.672 159.938L346.492 173.492L568.252 290.958L575.432 277.404L353.672 159.938Z" fill="#19B690"/>
<path opacity="0.2" d="M353.672 159.938L346.492 173.492L568.252 290.958L575.432 277.404L353.672 159.938Z" fill="black"/>
<path d="M329.69 148.206L323.236 160.42L339.253 187.104L360.761 146.423L329.69 148.206Z" fill="#19B690"/>
<path opacity="0.8" d="M329.69 148.206L323.236 160.42L339.253 187.104L360.761 146.423L329.69 148.206Z" fill="white"/>
<path d="M316.373 148.98L323.237 160.42L329.691 148.206L316.373 148.98Z" fill="#19B690"/>
<path d="M493.74 236.18L499.516 246.942L508.463 242.807L502.672 230.641L493.74 236.18Z" fill="#B55B52"/>
<path d="M515.768 139.732C526.704 141.31 539.233 179.182 539.233 179.182L516.257 192.154C516.257 192.154 506.142 174.196 501.172 160.783C495.933 146.755 504.044 138.028 515.768 139.732Z" fill="#263238"/>
<path opacity="0.2" d="M509.41 152.719C504.44 148.175 507.485 167.632 509.852 180.082C511.067 182.512 512.219 184.721 513.197 186.568C518.736 176.784 516.259 158.984 509.41 152.719Z" fill="black"/>
<path d="M451.008 140.332C451.008 140.332 437.358 175.237 450.314 240.251H512.219C512.645 230.783 506.68 184.453 515.832 139.732C508.995 138.412 502.08 137.537 495.129 137.113C486.378 136.608 477.606 136.608 468.855 137.113C462.831 137.715 456.863 138.792 451.008 140.332Z" fill="#263238"/>
<path d="M460.523 156.554L444.933 150.384C444.933 150.384 426.975 187.041 421.263 188.887C413.578 191.412 397.798 198.355 388.235 199.712C387.036 201.29 385.174 206.024 385.474 207.76C398.65 212.068 426.691 206.356 432.498 201.842C445.816 191.554 460.523 156.554 460.523 156.554Z" fill="#FFC3BD"/>
<path opacity="0.2" d="M462.274 152.388C459.702 146.455 454.778 143.977 449.65 144.845C447.662 152.12 444.301 168.105 444.916 192.185L448.593 193.953C448.593 193.953 466.677 162.535 462.274 152.388Z" fill="black"/>
<path d="M464.736 148.238C468.618 158.59 448.956 189.045 448.956 189.045L425.822 176.421C429.298 166.948 433.779 157.876 439.188 149.358C447.315 137.223 460.459 136.892 464.736 148.238Z" fill="#263238"/>
<path d="M388.803 199.681L375.043 202.6L382.018 215.334C385.864 213.421 389.358 210.871 392.354 207.792L388.803 199.681Z" fill="#FFC3BD"/>
<path d="M368.543 205.488L374.034 213.094L382.019 215.398L375.044 202.663L368.543 205.488Z" fill="#FFC3BD"/>
<path d="M465.479 100.361C465.479 101.292 464.895 101.939 464.279 101.939C463.664 101.939 463.222 101.119 463.285 100.188C463.348 99.2567 463.869 98.6097 464.485 98.6097C465.1 98.6097 465.542 99.4303 465.479 100.361Z" fill="#263238"/>
<path d="M466.298 100.44C465.024 103.221 463.373 105.812 461.391 108.141C462 108.634 462.71 108.987 463.471 109.175C464.232 109.363 465.024 109.382 465.793 109.23L466.298 100.44Z" fill="#ED847E"/>
<path d="M464.295 97.1423C464.211 97.1246 464.131 97.0926 464.058 97.0476C463.997 97.0092 463.944 96.9589 463.903 96.8996C463.861 96.8403 463.833 96.7732 463.818 96.7025C463.803 96.6318 463.803 96.5588 463.817 96.4879C463.831 96.4171 463.86 96.3498 463.9 96.2902C464.358 95.5512 464.984 94.9314 465.727 94.4815C466.47 94.0316 467.31 93.7645 468.177 93.7023C468.321 93.7099 468.457 93.7705 468.559 93.8725C468.661 93.9744 468.721 94.1105 468.729 94.2546C468.729 94.401 468.671 94.5415 468.567 94.6451C468.464 94.7487 468.323 94.8069 468.177 94.8069C467.504 94.8696 466.855 95.0893 466.282 95.4483C465.709 95.8073 465.229 96.2957 464.879 96.874C464.821 96.9741 464.734 97.0537 464.63 97.1018C464.525 97.1499 464.408 97.1641 464.295 97.1423Z" fill="#263238"/>
<path d="M496.85 99.5566C495.493 110.95 495.272 117.672 489.165 123.227C479.966 131.558 466.158 125.515 464.075 113.932C462.213 103.517 464.754 86.6485 476.21 82.7351C478.731 81.8629 481.433 81.6493 484.059 82.1147C486.686 82.58 489.15 83.7089 491.218 85.3941C493.285 87.0792 494.888 89.2649 495.874 91.7435C496.86 94.2222 497.196 96.9116 496.85 99.5566Z" fill="#FFC3BD"/>
<path d="M473.888 101.782C469.896 102.571 463.521 93.7022 468.728 86.1751C466.093 84.8654 457.493 90.0412 454.258 85.2126C451.023 80.3839 460.002 77.8117 458.282 73.7247C464.373 74.9714 454.337 82.5773 460.128 81.8356C465.919 81.094 472.594 70.3951 479.064 74.782C490.505 82.4668 506.095 69.6535 499.736 85.7017C507.531 84.1237 512.865 93.3393 505.433 99.7302C490.615 112.433 499.736 114.106 490.347 114.753C485.645 115.1 474.709 109.498 473.888 101.782Z" fill="#263238"/>
<path d="M479.806 104.764C479.26 105.903 478.491 106.921 477.545 107.759C476.599 108.596 475.495 109.236 474.299 109.64C471.143 110.729 469.328 107.904 470.07 104.796C470.732 101.987 473.226 98.0418 476.492 98.3258C477.209 98.3958 477.897 98.6445 478.493 99.0491C479.089 99.4537 479.574 100.001 479.904 100.642C480.233 101.282 480.397 101.995 480.38 102.715C480.363 103.436 480.165 104.14 479.806 104.764Z" fill="#FFC3BD"/>
<path d="M472.248 240.251C472.248 240.251 485.377 328.619 492.573 361.757C500.463 398.051 530.176 518.752 530.176 518.752H551.353C551.353 518.752 531.77 400.939 527.257 365.039C522.381 326.094 512.156 240.298 512.156 240.298L472.248 240.251Z" fill="#19B690"/>
<path opacity="0.2" d="M472.248 240.251C472.248 240.251 485.377 328.619 492.573 361.757C500.463 398.051 530.176 518.752 530.176 518.752H551.353C551.353 518.752 531.77 400.939 527.257 365.039C522.381 326.094 512.156 240.298 512.156 240.298L472.248 240.251Z" fill="white"/>
<path opacity="0.2" d="M487.838 271.148C486.86 269.76 485.976 269.286 485.156 269.57H484.982C484.795 269.652 484.62 269.758 484.461 269.886C484.293 270.022 484.14 270.176 484.004 270.344L483.751 270.659L483.42 271.18C483.146 271.639 482.908 272.119 482.71 272.616C482.583 272.916 482.457 273.231 482.347 273.547C482.236 273.863 482.063 274.352 481.936 274.794C481.81 275.235 481.574 275.993 481.4 276.64C481.4 276.813 481.321 276.971 481.274 277.145C481.226 277.318 481.1 277.871 481.021 278.234C480.942 278.596 480.879 278.865 480.816 279.18C480.674 279.796 480.548 280.443 480.422 281.106C480.295 281.768 480.153 282.542 480.027 283.283C480.027 283.536 479.948 283.788 479.901 284.056C479.743 285.003 479.601 285.966 479.459 286.96C482.962 308.957 487.128 334.174 490.505 351.768C490.663 351.2 490.836 350.601 490.978 349.954C491.668 347.018 492.194 344.047 492.556 341.054C495.539 318.378 494.166 280.19 487.838 271.148Z" fill="black"/>
<path d="M450.313 240.251C450.313 240.251 448.735 326.694 449.981 361.962C451.291 398.635 464.105 518.705 464.105 518.705H483.688C483.688 518.705 484.398 400.765 485.266 364.755C486.212 325.495 490.946 240.251 490.946 240.251H450.313Z" fill="#19B690"/>
<path opacity="0.2" d="M450.313 240.251C450.313 240.251 448.735 326.694 449.981 361.962C451.291 398.635 464.105 518.705 464.105 518.705H483.688C483.688 518.705 484.398 400.765 485.266 364.755C486.212 325.495 490.946 240.251 490.946 240.251H450.313Z" fill="white"/>
<path d="M484.981 512.709C485.06 512.709 484.981 519.099 484.981 519.099H462.4L461.453 511.92L484.981 512.709Z" fill="#263238"/>
<path d="M551.352 513.182C551.446 513.182 552.409 519.099 552.409 519.099H529.133L527.082 512.314L551.352 513.182Z" fill="#263238"/>
<path d="M533.743 535.022C532.956 535.085 532.172 534.88 531.518 534.438C531.306 534.266 531.142 534.041 531.042 533.787C530.943 533.532 530.911 533.256 530.95 532.986C530.952 532.828 530.995 532.674 531.075 532.538C531.156 532.402 531.27 532.29 531.407 532.213C532.686 531.566 536.425 533.791 536.852 534.106C536.895 534.138 536.929 534.182 536.948 534.232C536.968 534.283 536.972 534.337 536.962 534.39C536.954 534.444 536.93 534.493 536.893 534.532C536.857 534.572 536.809 534.599 536.757 534.611C535.77 534.858 534.76 534.995 533.743 535.022ZM532.023 532.639C531.903 532.612 531.779 532.612 531.66 532.639C531.605 532.671 531.56 532.717 531.529 532.772C531.498 532.828 531.484 532.891 531.486 532.954C531.462 533.139 531.484 533.326 531.55 533.499C531.616 533.673 531.725 533.827 531.865 533.949C533.153 534.547 534.623 534.626 535.968 534.169C534.764 533.41 533.424 532.89 532.023 532.639Z" fill="#19B690"/>
<path d="M536.695 534.627C536.654 534.64 536.61 534.64 536.569 534.627C535.369 533.98 533.065 531.471 533.302 530.161C533.342 529.961 533.451 529.78 533.609 529.651C533.767 529.521 533.966 529.451 534.17 529.451C534.378 529.42 534.591 529.435 534.792 529.495C534.994 529.555 535.18 529.658 535.338 529.798C536.679 530.887 536.916 534.233 536.916 534.375C536.915 534.423 536.903 534.471 536.881 534.515C536.859 534.559 536.828 534.597 536.789 534.627C536.758 534.633 536.726 534.633 536.695 534.627ZM534.359 529.893H534.312C533.949 529.893 533.918 530.098 533.902 530.177C533.76 530.934 535.227 532.844 536.427 533.743C536.344 532.428 535.865 531.168 535.054 530.13C534.953 530.043 534.834 529.979 534.706 529.944C534.578 529.908 534.443 529.902 534.312 529.925L534.359 529.893Z" fill="#19B690"/>
<path d="M464.232 535.022C463.242 535.114 462.251 534.863 461.423 534.311C461.242 534.145 461.101 533.939 461.014 533.709C460.926 533.478 460.893 533.231 460.918 532.986C460.919 532.836 460.96 532.689 461.038 532.561C461.116 532.433 461.227 532.329 461.36 532.26C462.765 531.471 467.42 533.838 467.94 534.106C467.993 534.13 468.036 534.171 468.062 534.223C468.088 534.275 468.095 534.334 468.082 534.39C468.076 534.447 468.05 534.499 468.01 534.539C467.97 534.579 467.918 534.605 467.862 534.611C466.668 534.866 465.452 535.003 464.232 535.022ZM462.133 532.639C461.96 532.632 461.788 532.664 461.628 532.733C461.576 532.764 461.532 532.807 461.502 532.86C461.471 532.913 461.455 532.972 461.455 533.033C461.432 533.194 461.451 533.358 461.509 533.51C461.567 533.662 461.662 533.796 461.786 533.901C462.496 534.532 464.406 534.643 466.962 534.217C465.452 533.424 463.82 532.89 462.133 532.639Z" fill="#19B690"/>
<path d="M467.814 534.627H467.704C466.299 533.996 463.538 531.471 463.759 530.193C463.759 529.893 464.027 529.499 464.769 529.435C465.049 529.394 465.335 529.413 465.607 529.492C465.88 529.571 466.132 529.708 466.347 529.893C467.814 531.108 468.114 534.217 468.13 534.359C468.137 534.405 468.13 534.452 468.11 534.494C468.09 534.536 468.059 534.571 468.019 534.595C467.957 534.631 467.884 534.643 467.814 534.627ZM464.989 529.893H464.879C464.39 529.893 464.358 530.13 464.342 530.209C464.216 530.982 466.094 532.954 467.498 533.806C467.362 532.481 466.81 531.233 465.92 530.24C465.652 530.039 465.325 529.928 464.989 529.925V529.893Z" fill="#19B690"/>
</g>
<defs>
<clipPath id="clip0_168_2485">
<rect width="643" height="591" fill="white"/>
</clipPath>
</defs>
</svg>
