<svg width="424" height="298" viewBox="0 0 424 298" fill="none" xmlns="http://www.w3.org/2000/svg">
<path d="M409.699 268.19L358.519 267.95L307.349 267.86L204.999 267.69L102.649 267.86L51.4792 267.94L0.309204 268.19L51.4792 268.43L102.649 268.52L204.999 268.69L307.349 268.52L358.519 268.43L409.699 268.19Z" fill="#263238"/>
<path d="M350.731 184.7C362.141 200.15 374.001 218.09 376.941 237.47C376.941 237.76 376.501 237.86 376.431 237.57C375.133 232.285 373.462 227.099 371.431 222.05C363.931 219.98 356.561 218.29 352.621 210.84C348.621 203.19 349.111 193.21 349.881 184.84C349.891 184.42 350.501 184.4 350.731 184.7Z" fill="#19B690"/>
<path d="M371.28 221.9C366.15 210.4 359.57 198.9 351.2 189.39C351.2 189.32 351.06 189.39 351.11 189.48C356.59 196.22 360.75 203.56 364.81 211.02C361.03 207.18 356.89 203.75 353.31 199.68C353.24 199.6 353.13 199.68 353.2 199.8C356.75 204.06 360.64 208.69 365.26 211.85C366.51 214.14 367.76 216.44 369.03 218.74C368.72 218.56 368.4 218.41 368.03 218.25C367.97 218.25 367.92 218.31 368.03 218.33C368.38 218.51 368.73 218.7 369.1 218.86C369.7 219.94 370.29 221.03 370.91 222.12C371 222.36 371.38 222.15 371.28 221.9Z" fill="#263238"/>
<path d="M367.46 217.89C364.389 216.161 361.46 214.191 358.7 212C358.63 211.94 358.52 212 358.59 212.11C361.265 214.441 364.201 216.455 367.34 218.11C367.369 218.126 367.404 218.13 367.435 218.12C367.467 218.111 367.494 218.089 367.51 218.06C367.526 218.031 367.53 217.997 367.52 217.965C367.511 217.933 367.489 217.906 367.46 217.89Z" fill="#263238"/>
<path d="M378.261 234.59C378.261 234.82 377.841 234.82 377.841 234.59C377.781 228.21 377.841 221.79 377.741 215.38C376.101 212.08 372.591 210.26 370.151 207.61C368.396 205.678 366.87 203.551 365.601 201.27C362.662 195.823 360.866 189.835 360.321 183.67C359.651 176.84 362.241 154.31 365.121 155.09C366.611 155.5 371.441 166.66 372.721 170.35C374.795 176.417 376.315 182.659 377.261 189C379.591 204.05 379.401 219.47 378.261 234.59Z" fill="#19B690"/>
<path d="M378.3 207.05C377.93 199 376.11 190.8 374.4 183C372.57 174.57 370.4 166.62 366.08 159.1C366.073 159.086 366.062 159.074 366.049 159.064C366.037 159.055 366.023 159.048 366.007 159.043C365.992 159.039 365.976 159.038 365.96 159.04C365.944 159.042 365.929 159.047 365.915 159.055C365.902 159.063 365.89 159.073 365.88 159.086C365.87 159.099 365.863 159.113 365.859 159.128C365.855 159.143 365.853 159.159 365.855 159.175C365.857 159.191 365.863 159.206 365.87 159.22C368.761 165.074 371.001 171.228 372.55 177.57C372.26 177.12 371.91 176.69 371.55 176.26C371.43 176.09 371.16 176.26 371.27 176.42C371.659 177.103 372.115 177.747 372.63 178.34C372.64 178.344 372.65 178.347 372.66 178.347C372.671 178.347 372.681 178.344 372.69 178.34C374.18 184.34 375.25 190.54 376.17 196.7L375.97 196.46C375.961 196.447 375.947 196.438 375.931 196.435C375.915 196.432 375.899 196.436 375.885 196.445C375.872 196.454 375.863 196.468 375.86 196.484C375.857 196.5 375.861 196.517 375.87 196.53C375.99 196.74 376.12 196.94 376.24 197.14C376.7 200.27 377.13 203.38 377.56 206.47C372 201.72 367.25 196.12 364.56 189.21H364.51C367.13 196.37 371.27 202.73 377.64 207.08C377.76 207.91 377.87 208.74 377.99 209.57C377.99 209.75 378.29 209.7 378.29 209.57C378.29 208.84 378.29 208.1 378.22 207.36C378.255 207.357 378.288 207.343 378.315 207.32C378.342 207.298 378.361 207.267 378.37 207.233C378.378 207.199 378.376 207.163 378.364 207.131C378.352 207.098 378.329 207.07 378.3 207.05Z" fill="#263238"/>
<path d="M375.68 195.35C371.43 189.01 367.46 182.85 364.35 175.84C364.35 175.76 364.18 175.84 364.21 175.9C366.84 182.9 370.51 189.9 375.47 195.52C375.57 195.63 375.77 195.48 375.68 195.35Z" fill="#263238"/>
<path d="M370.001 174.27C368.231 171.16 366.381 168.12 364.721 164.95C364.671 164.86 364.551 164.95 364.591 165.02C365.948 168.337 367.668 171.493 369.721 174.43C369.881 174.59 370.141 174.45 370.001 174.27Z" fill="#263238"/>
<path d="M370.721 175.63V175.68C370.721 175.68 370.761 175.63 370.721 175.63Z" fill="#263238"/>
<path d="M382.581 216.13C382.666 220.359 383.165 224.569 384.071 228.7C384.001 229.16 383.941 229.61 383.871 230.08C382.572 225.518 381.817 220.819 381.621 216.08C381.585 216.014 381.565 215.94 381.565 215.865C381.565 215.79 381.585 215.716 381.621 215.65C381.441 209.285 381.913 202.918 383.031 196.65C385.031 184.92 389.331 173.65 397.511 164.87C397.578 164.812 397.658 164.77 397.743 164.747C397.829 164.724 397.919 164.722 398.006 164.739C398.093 164.756 398.174 164.794 398.245 164.847C398.315 164.901 398.372 164.971 398.411 165.05C401.711 173.45 400.561 183.46 397.751 191.84C396.219 196.373 394.033 200.659 391.261 204.56C388.431 208.48 384.861 211.82 382.581 216.13Z" fill="#19B690"/>
<path d="M396.521 168.78C388.771 181.36 383.371 196.28 382.711 211.14C382.711 211.4 383.141 211.47 383.181 211.2C383.371 209.87 383.571 208.54 383.781 207.2C386.981 204.13 390.281 200.89 392.571 197.05C392.571 196.98 392.521 196.9 392.461 196.96C389.802 200.227 386.95 203.332 383.921 206.26C384.471 202.98 385.131 199.74 385.921 196.56L386.531 195.84C386.671 195.68 386.441 195.45 386.301 195.61L386.121 195.81C387.221 191.464 388.577 187.186 390.181 183C392.181 180.65 394.361 178.61 395.801 175.78C395.805 175.767 395.805 175.753 395.8 175.741C395.795 175.728 395.787 175.718 395.775 175.711C395.763 175.704 395.75 175.701 395.737 175.703C395.723 175.704 395.711 175.71 395.701 175.72C394.541 177.34 393.421 178.97 392.111 180.48C391.591 181.08 391.011 181.64 390.471 182.22C392.262 177.664 394.384 173.245 396.821 169C396.836 168.98 396.846 168.958 396.852 168.934C396.858 168.911 396.859 168.886 396.855 168.862C396.852 168.838 396.843 168.814 396.83 168.794C396.818 168.773 396.801 168.754 396.781 168.74C396.762 168.726 396.739 168.715 396.716 168.709C396.692 168.704 396.667 168.702 396.643 168.706C396.619 168.71 396.596 168.718 396.575 168.731C396.554 168.744 396.536 168.76 396.521 168.78Z" fill="#263238"/>
<path d="M394.951 184.3C392.451 187.67 389.591 190.89 387.261 194.37C387.191 194.47 387.341 194.58 387.421 194.5C390.395 191.464 392.981 188.071 395.121 184.4C395.191 184.29 395.001 184.2 394.951 184.3Z" fill="#263238"/>
<path d="M386.911 195.15L386.801 195.26C386.731 195.33 386.801 195.45 386.921 195.38L387.031 195.27C387.101 195.19 387.001 195.08 386.911 195.15Z" fill="#263238"/>
<path d="M408.671 193C407.754 200.028 404.924 206.67 400.491 212.2C398.66 214.365 396.399 216.126 393.851 217.37C391.001 218.76 388.001 220.39 385.001 221.56C383.585 225.159 382.533 228.891 381.861 232.7C381.771 232.37 381.671 232.03 381.581 231.7C383.481 215.31 394.091 201.3 407.651 192.31C407.76 192.234 407.89 192.193 408.023 192.192C408.157 192.191 408.287 192.231 408.397 192.305C408.508 192.38 408.593 192.486 408.642 192.61C408.69 192.734 408.701 192.87 408.671 193Z" fill="#19B690"/>
<path d="M404.001 197.81C404.091 197.72 404.001 197.55 403.861 197.63C396.406 203.168 390.463 210.493 386.581 218.93C386.481 219.15 386.781 219.35 386.911 219.13C387.541 218.02 388.191 216.95 388.841 215.89C391.941 215.31 394.841 213.13 397.171 211.06C397.231 211.01 397.171 210.92 397.071 210.97C395.891 212.051 394.577 212.975 393.161 213.72C391.891 214.36 390.541 214.72 389.221 215.28C390.374 213.46 391.571 211.707 392.811 210.02C396.156 208.747 399.294 206.985 402.121 204.79C402.211 204.72 402.121 204.58 402.031 204.64C399.233 206.334 396.345 207.877 393.381 209.26C395.272 206.765 397.312 204.388 399.491 202.14C400.541 201.59 401.611 201.03 402.631 200.43C402.647 200.418 402.658 200.401 402.663 200.381C402.668 200.362 402.667 200.341 402.658 200.323C402.65 200.304 402.636 200.289 402.619 200.28C402.601 200.27 402.581 200.267 402.561 200.27C401.715 200.573 400.906 200.972 400.151 201.46C401.371 200.22 402.631 199 404.001 197.81Z" fill="#263238"/>
<path d="M403.691 203.47C403.504 203.573 403.329 203.697 403.171 203.84C403.121 203.84 403.171 203.95 403.231 203.92C403.425 203.836 403.609 203.732 403.781 203.61C403.871 203.55 403.791 203.4 403.691 203.47Z" fill="#263238"/>
<path d="M360.4 268.19H397.58L394.58 234.34L393.92 226.87H364.06L363.41 234.34L360.4 268.19Z" fill="#455A64"/>
<path d="M363.41 234.34H394.58L393.92 226.87H364.06L363.41 234.34Z" fill="#263238"/>
<path d="M362.291 221.65H395.701V229.04H362.291V221.65Z" fill="#455A64"/>
<path d="M227.149 189.67C232.179 195.065 237.805 199.872 243.919 204C236.429 185.55 243.699 147.53 244.099 153.17C246.099 180.17 258.159 211.17 264.189 213.51H264.289C280.719 218.2 296.609 215.97 310.399 210.78C310.406 210.75 310.406 210.72 310.399 210.69C300.329 189.59 306.709 150.78 307.229 153.28C312.909 180.08 330.309 197.85 333.719 198.28C348.119 188.13 356.599 177.11 354.989 175.62C343.259 164.78 335.569 140.22 329.169 114.52C322.829 89.18 321.239 65.73 310.479 42.35C300.639 20.94 275.689 13.42 259.759 21.21C217.939 41.66 219.999 182.13 227.149 189.67Z" fill="#263238"/>
<path d="M262.58 20C259.02 21 255.94 23.25 253.15 25.63C250.398 28.1049 247.875 30.8225 245.61 33.75C241.237 39.7203 237.506 46.1359 234.48 52.89C228.22 66.3 224.48 80.75 222.01 95.28C219.758 109.858 218.754 124.601 219.01 139.35C219.01 143.03 219.25 146.71 219.36 150.35L220.05 161.35L221.16 172.35L222.59 183.28L221.82 172.28L221.27 161.28L220.93 150.28C220.93 146.62 220.82 142.96 220.93 139.28C220.967 124.651 222.14 110.047 224.44 95.6C226.587 81.1664 230.528 67.0574 236.17 53.6C238.971 46.8663 242.452 40.4362 246.56 34.41C248.64 31.4267 250.983 28.6355 253.56 26.07C254.87 24.802 256.274 23.6353 257.76 22.58C259.229 21.4843 260.854 20.6146 262.58 20Z" fill="#263238"/>
<path d="M357.1 171.94C353.868 166.462 350.915 160.825 348.25 155.05C345.51 149.33 342.99 143.5 340.76 137.57C338.53 131.64 336.46 125.65 334.76 119.57C333.06 113.49 331.61 107.26 330.02 101.1C326.71 88.8 323.43 76.47 319.41 64.36C317.36 58.31 315.21 52.29 312.66 46.43C311.373 43.5001 309.928 40.6425 308.33 37.87C306.7 35.13 304.88 32.38 302.26 30.51C304.7 32.58 306.26 35.4 307.76 38.18C309.178 41.0134 310.443 43.9209 311.55 46.89C313.85 52.79 315.79 58.84 317.61 64.89C321.24 77.06 324.53 89.34 327.61 101.68C329.28 107.83 330.81 113.98 332.61 120.14C334.379 126.292 336.506 132.336 338.98 138.24C343.828 150.074 349.901 161.369 357.1 171.94Z" fill="#263238"/>
<path d="M260.18 153.14C246.62 195.66 211.18 253.22 193.77 255.74C185.47 256.94 170.89 260.87 158.77 252.74C132.23 235.01 105.77 199.57 97.5597 178.97C94.4897 171.25 134.73 144.77 141.43 150.62C157.12 164.31 176.97 192.62 179.37 192.1C188.22 190.25 219.37 156.55 241.1 132.84C267.43 104.07 265.59 136.2 260.18 153.14Z" fill="#EB9481"/>
<path d="M241.13 207.48L206.57 164.2C206.57 164.2 234.08 133.86 251.66 121.29C261.51 114.24 267.11 121.79 265.72 132.65C260.85 170.64 241.13 207.48 241.13 207.48Z" fill="#19B690"/>
<path d="M241.13 207.48L206.57 164.2C206.57 164.2 234.08 133.86 251.66 121.29C261.51 114.24 267.11 121.79 265.72 132.65C260.85 170.64 241.13 207.48 241.13 207.48Z" fill="#455A64"/>
<path d="M217.57 154.48C218.375 154.48 219.146 154.8 219.716 155.369C220.285 155.938 220.605 156.71 220.605 157.515C220.605 158.32 220.285 159.092 219.716 159.661C219.146 160.23 218.375 160.55 217.57 160.55C216.765 160.55 215.993 160.23 215.424 159.661C214.854 159.092 214.535 158.32 214.535 157.515C214.535 156.71 214.854 155.938 215.424 155.369C215.993 154.8 216.765 154.48 217.57 154.48ZM217.57 160.03C218.067 160.032 218.554 159.886 218.968 159.611C219.382 159.336 219.705 158.944 219.897 158.485C220.088 158.026 220.138 157.521 220.042 157.033C219.945 156.545 219.706 156.097 219.354 155.745C219.003 155.394 218.555 155.154 218.067 155.058C217.579 154.961 217.073 155.012 216.614 155.203C216.155 155.394 215.763 155.717 215.488 156.132C215.213 156.546 215.068 157.033 215.07 157.53C215.08 158.187 215.348 158.814 215.815 159.276C216.283 159.737 216.913 159.997 217.57 160V160.03ZM245.51 163.81C246.103 163.81 246.683 163.986 247.176 164.316C247.67 164.645 248.054 165.114 248.281 165.662C248.508 166.21 248.568 166.813 248.452 167.395C248.336 167.977 248.05 168.512 247.631 168.931C247.211 169.351 246.677 169.637 246.095 169.752C245.513 169.868 244.91 169.809 244.362 169.582C243.813 169.355 243.345 168.97 243.015 168.477C242.686 167.983 242.51 167.403 242.51 166.81C242.51 166.014 242.826 165.251 243.388 164.689C243.951 164.126 244.714 163.81 245.51 163.81ZM245.51 169.33C246.173 169.33 246.809 169.067 247.277 168.598C247.746 168.129 248.01 167.493 248.01 166.83C248.01 166.167 247.746 165.531 247.277 165.062C246.809 164.593 246.173 164.33 245.51 164.33C244.847 164.33 244.211 164.593 243.742 165.062C243.273 165.531 243.01 166.167 243.01 166.83C243.01 167.493 243.273 168.129 243.742 168.598C244.211 169.067 244.847 169.33 245.51 169.33ZM243.3 139.58C243.893 139.58 244.473 139.756 244.966 140.086C245.46 140.415 245.844 140.884 246.071 141.432C246.298 141.98 246.358 142.583 246.242 143.165C246.126 143.747 245.84 144.282 245.421 144.701C245.001 145.121 244.467 145.407 243.885 145.522C243.303 145.638 242.7 145.579 242.152 145.352C241.603 145.125 241.135 144.74 240.805 144.247C240.476 143.753 240.3 143.173 240.3 142.58C240.3 141.784 240.616 141.021 241.178 140.459C241.741 139.896 242.504 139.58 243.3 139.58ZM243.3 145.13C243.798 145.134 244.287 144.99 244.704 144.716C245.121 144.442 245.447 144.05 245.641 143.591C245.835 143.131 245.888 142.624 245.794 142.134C245.7 141.645 245.463 141.194 245.112 140.839C244.761 140.484 244.313 140.241 243.825 140.141C243.336 140.041 242.829 140.089 242.367 140.277C241.905 140.466 241.51 140.787 241.231 141.201C240.952 141.614 240.802 142.101 240.8 142.6C240.797 143.267 241.059 143.907 241.527 144.381C241.996 144.855 242.633 145.125 243.3 145.13ZM265.79 127C265.79 127.17 265.79 127.34 265.85 127.52C265.335 127.679 264.885 127.999 264.567 128.433C264.248 128.867 264.077 129.392 264.08 129.93C264.079 130.451 264.242 130.958 264.545 131.382C264.848 131.805 265.277 132.123 265.77 132.29C265.77 132.42 265.77 132.55 265.72 132.68C265.67 132.81 265.72 132.77 265.72 132.81C265.1 132.625 264.557 132.244 264.172 131.725C263.786 131.206 263.578 130.577 263.58 129.93C263.572 129.266 263.784 128.618 264.184 128.088C264.584 127.557 265.149 127.175 265.79 127ZM224.24 186.36C224.286 185.779 224.501 185.224 224.858 184.764C225.214 184.303 225.698 183.956 226.248 183.765C226.799 183.575 227.393 183.548 227.958 183.69C228.524 183.831 229.035 184.134 229.431 184.562C229.827 184.989 230.09 185.523 230.188 186.097C230.285 186.672 230.213 187.262 229.981 187.797C229.749 188.331 229.366 188.786 228.879 189.106C228.392 189.427 227.822 189.598 227.24 189.6C227.086 189.611 226.933 189.611 226.78 189.6L226.2 188.89C226.515 189.029 226.855 189.104 227.2 189.11C227.698 189.11 228.185 188.962 228.6 188.685C229.014 188.408 229.337 188.015 229.528 187.554C229.719 187.094 229.768 186.587 229.671 186.098C229.574 185.61 229.334 185.161 228.982 184.808C228.629 184.456 228.18 184.216 227.691 184.118C227.202 184.021 226.696 184.071 226.235 184.262C225.775 184.453 225.381 184.776 225.104 185.19C224.827 185.604 224.68 186.092 224.68 186.59C224.68 186.762 224.7 186.933 224.74 187.1L224.24 186.36Z" fill="white"/>
<path opacity="0.1" d="M210.529 169.13L241.119 207.49C241.119 207.49 260.839 170.64 265.719 132.66C266.719 125.19 264.319 119.31 259.569 118.66L210.529 169.13Z" fill="black"/>
<path d="M214.589 160.27C220.459 166.49 235.889 183.82 244.439 196.39C244.499 196.46 244.229 196.69 244.169 196.63C235.469 187.24 219.509 167.31 214.169 160.63C214.099 160.48 214.479 160.15 214.589 160.27Z" fill="#263238"/>
<path d="M366.859 268.37L217.809 268L225.999 216.77C225.999 216.77 214.209 202.46 216.439 186.95C218.879 169.95 249.539 126.85 252.119 124.42C262.499 114.68 273.479 112.93 284.039 116.42C332.839 147.08 366.859 268.37 366.859 268.37Z" fill="#455A64"/>
<path d="M220.949 248.48C221.279 248.877 221.722 249.162 222.22 249.297C222.718 249.433 223.245 249.411 223.73 249.237C224.215 249.062 224.635 248.742 224.931 248.32C225.228 247.899 225.388 247.396 225.389 246.88C225.39 246.548 225.326 246.219 225.2 245.913C225.074 245.606 224.889 245.327 224.654 245.092C224.42 244.857 224.142 244.67 223.836 244.543C223.529 244.416 223.201 244.35 222.869 244.35C222.4 244.349 221.942 244.484 221.549 244.74L221.649 244.09C222.032 243.916 222.448 243.827 222.869 243.83C223.674 243.83 224.446 244.15 225.015 244.719C225.584 245.288 225.904 246.06 225.904 246.865C225.904 247.67 225.584 248.442 225.015 249.011C224.446 249.58 223.674 249.9 222.869 249.9C222.13 249.898 221.418 249.624 220.869 249.13L220.949 248.48ZM250.999 232.82C251.592 232.82 252.172 232.996 252.666 233.326C253.159 233.655 253.544 234.124 253.771 234.672C253.998 235.22 254.057 235.823 253.941 236.405C253.826 236.987 253.54 237.522 253.12 237.941C252.701 238.361 252.166 238.647 251.584 238.762C251.002 238.878 250.399 238.819 249.851 238.592C249.303 238.365 248.834 237.98 248.505 237.487C248.175 236.993 247.999 236.413 247.999 235.82C247.999 235.024 248.315 234.261 248.878 233.699C249.44 233.136 250.203 232.82 250.999 232.82ZM250.999 238.37C251.498 238.372 251.987 238.226 252.403 237.949C252.819 237.673 253.143 237.28 253.335 236.819C253.527 236.358 253.578 235.851 253.481 235.361C253.384 234.871 253.144 234.421 252.791 234.068C252.438 233.715 251.988 233.475 251.498 233.378C251.008 233.281 250.501 233.332 250.04 233.524C249.579 233.716 249.186 234.04 248.91 234.456C248.633 234.872 248.487 235.361 248.489 235.86C248.489 236.526 248.753 237.164 249.224 237.635C249.695 238.106 250.333 238.37 250.999 238.37ZM227.229 183.5C227.822 183.5 228.402 183.676 228.896 184.006C229.389 184.335 229.774 184.804 230.001 185.352C230.228 185.9 230.287 186.503 230.171 187.085C230.056 187.667 229.77 188.202 229.35 188.621C228.931 189.041 228.396 189.327 227.814 189.442C227.232 189.558 226.629 189.499 226.081 189.272C225.533 189.045 225.064 188.66 224.735 188.167C224.405 187.673 224.229 187.093 224.229 186.5C224.229 186.103 224.308 185.709 224.461 185.343C224.614 184.976 224.839 184.644 225.122 184.364C225.405 184.085 225.74 183.865 226.109 183.717C226.477 183.568 226.872 183.495 227.269 183.5H227.229ZM227.229 189.05C227.727 189.05 228.215 188.902 228.629 188.625C229.043 188.348 229.366 187.955 229.557 187.494C229.748 187.034 229.798 186.527 229.701 186.038C229.603 185.55 229.363 185.101 229.011 184.748C228.658 184.396 228.209 184.156 227.721 184.058C227.232 183.961 226.725 184.011 226.265 184.202C225.804 184.393 225.411 184.716 225.134 185.13C224.857 185.544 224.709 186.032 224.709 186.53C224.708 186.865 224.773 187.196 224.902 187.505C225.03 187.814 225.22 188.094 225.458 188.329C225.697 188.564 225.98 188.749 226.291 188.873C226.602 188.996 226.934 189.057 227.269 189.05H227.229ZM336.529 260.24C337.12 260.24 337.698 260.415 338.19 260.742C338.683 261.07 339.067 261.535 339.296 262.081C339.524 262.626 339.586 263.227 339.474 263.807C339.363 264.388 339.082 264.922 338.667 265.344C338.253 265.765 337.723 266.055 337.144 266.176C336.566 266.297 335.964 266.245 335.415 266.026C334.866 265.806 334.394 265.43 334.059 264.943C333.723 264.456 333.539 263.881 333.529 263.29C333.529 262.49 333.843 261.721 334.405 261.151C334.966 260.58 335.729 260.253 336.529 260.24ZM336.529 265.79C337.026 265.792 337.513 265.646 337.927 265.371C338.342 265.096 338.665 264.704 338.856 264.245C339.047 263.786 339.098 263.281 339.001 262.793C338.905 262.305 338.665 261.857 338.314 261.505C337.962 261.154 337.514 260.914 337.026 260.818C336.538 260.721 336.033 260.772 335.574 260.963C335.115 261.154 334.723 261.477 334.448 261.892C334.173 262.306 334.027 262.793 334.029 263.29C334.032 263.952 334.296 264.587 334.764 265.055C335.232 265.523 335.867 265.787 336.529 265.79ZM305.639 250.26C306.23 250.26 306.808 250.435 307.3 250.762C307.793 251.09 308.177 251.555 308.406 252.101C308.634 252.646 308.696 253.247 308.584 253.827C308.473 254.408 308.192 254.942 307.777 255.364C307.363 255.785 306.833 256.075 306.254 256.196C305.676 256.317 305.074 256.265 304.525 256.046C303.976 255.826 303.504 255.45 303.169 254.963C302.833 254.476 302.649 253.901 302.639 253.31C302.639 252.51 302.953 251.741 303.515 251.171C304.076 250.6 304.839 250.273 305.639 250.26ZM305.639 255.8C306.137 255.804 306.625 255.66 307.041 255.385C307.457 255.111 307.782 254.719 307.974 254.26C308.166 253.8 308.218 253.294 308.122 252.805C308.025 252.317 307.786 251.867 307.434 251.515C307.082 251.163 306.632 250.924 306.144 250.827C305.655 250.731 305.149 250.783 304.689 250.975C304.23 251.167 303.838 251.492 303.564 251.908C303.289 252.324 303.145 252.812 303.149 253.31C303.154 253.969 303.418 254.599 303.884 255.065C304.35 255.531 304.98 255.795 305.639 255.8ZM328.999 173.53C329.142 173.519 329.286 173.519 329.429 173.53C329.539 173.74 329.649 173.93 329.749 174.13C329.505 174.058 329.253 174.021 328.999 174.02C328.535 174.018 328.079 174.144 327.683 174.385C327.286 174.627 326.964 174.973 326.753 175.386C326.541 175.799 326.448 176.263 326.484 176.725C326.521 177.188 326.684 177.632 326.957 178.007C327.231 178.382 327.602 178.674 328.032 178.851C328.461 179.028 328.93 179.082 329.389 179.008C329.847 178.933 330.275 178.733 330.627 178.43C330.978 178.127 331.238 177.732 331.379 177.29L331.689 177.91C331.44 178.377 331.072 178.77 330.623 179.049C330.173 179.328 329.658 179.483 329.129 179.498C328.6 179.514 328.076 179.389 327.611 179.137C327.146 178.885 326.756 178.514 326.48 178.062C326.204 177.61 326.053 177.094 326.042 176.565C326.03 176.035 326.159 175.513 326.415 175.05C326.671 174.586 327.044 174.199 327.498 173.927C327.952 173.655 328.47 173.507 328.999 173.5V173.53ZM320.469 196.75C321.062 196.75 321.642 196.926 322.136 197.256C322.629 197.585 323.014 198.054 323.241 198.602C323.468 199.15 323.527 199.753 323.411 200.335C323.296 200.917 323.01 201.452 322.59 201.871C322.171 202.291 321.636 202.577 321.054 202.692C320.472 202.808 319.869 202.749 319.321 202.522C318.773 202.295 318.304 201.91 317.975 201.417C317.645 200.923 317.469 200.343 317.469 199.75C317.469 198.956 317.784 198.195 318.344 197.632C318.905 197.07 319.665 196.753 320.459 196.75H320.469ZM320.469 202.28C320.966 202.282 321.452 202.136 321.866 201.862C322.28 201.587 322.604 201.196 322.795 200.737C322.987 200.279 323.038 199.774 322.942 199.286C322.846 198.799 322.608 198.351 322.257 197.999C321.907 197.647 321.46 197.407 320.972 197.309C320.485 197.211 319.98 197.26 319.521 197.45C319.062 197.64 318.669 197.962 318.393 198.374C318.116 198.787 317.969 199.273 317.969 199.77C317.972 200.431 318.234 201.065 318.7 201.535C319.166 202.005 319.798 202.272 320.459 202.28H320.469ZM295.469 133.65C296.274 133.65 297.046 133.97 297.615 134.539C298.184 135.108 298.504 135.88 298.504 136.685C298.504 137.49 298.184 138.262 297.615 138.831C297.046 139.4 296.274 139.72 295.469 139.72C294.664 139.72 293.892 139.4 293.323 138.831C292.754 138.262 292.434 137.49 292.434 136.685C292.434 135.88 292.754 135.108 293.323 134.539C293.892 133.97 294.664 133.65 295.469 133.65ZM295.469 139.2C295.967 139.198 296.453 139.049 296.866 138.77C297.279 138.492 297.601 138.098 297.79 137.637C297.979 137.177 298.028 136.67 297.929 136.182C297.831 135.694 297.59 135.246 297.237 134.895C296.885 134.543 296.436 134.304 295.947 134.208C295.458 134.111 294.952 134.162 294.492 134.353C294.032 134.544 293.639 134.867 293.363 135.281C293.087 135.695 292.939 136.182 292.939 136.68C292.939 137.014 293.005 137.345 293.135 137.654C293.264 137.962 293.453 138.242 293.691 138.476C293.929 138.711 294.212 138.896 294.522 139.02C294.833 139.144 295.165 139.205 295.499 139.2H295.469ZM292.469 186.27C293.062 186.27 293.642 186.446 294.136 186.776C294.629 187.105 295.014 187.574 295.241 188.122C295.468 188.67 295.527 189.273 295.411 189.855C295.296 190.437 295.01 190.972 294.59 191.391C294.171 191.811 293.636 192.097 293.054 192.212C292.472 192.328 291.869 192.269 291.321 192.042C290.773 191.815 290.304 191.43 289.975 190.937C289.645 190.443 289.469 189.863 289.469 189.27C289.469 188.476 289.784 187.715 290.344 187.152C290.905 186.59 291.665 186.273 292.459 186.27H292.469ZM292.469 191.82C292.965 191.818 293.448 191.669 293.86 191.393C294.271 191.116 294.591 190.724 294.78 190.266C294.969 189.808 295.017 189.304 294.92 188.818C294.823 188.332 294.584 187.886 294.234 187.535C293.883 187.185 293.437 186.946 292.951 186.849C292.465 186.752 291.961 186.8 291.503 186.989C291.045 187.178 290.653 187.498 290.376 187.909C290.1 188.321 289.951 188.804 289.949 189.3C289.948 189.63 290.012 189.958 290.137 190.264C290.263 190.569 290.447 190.847 290.681 191.081C290.914 191.315 291.191 191.501 291.496 191.628C291.801 191.755 292.129 191.82 292.459 191.82H292.469ZM266.589 126.82C267.182 126.82 267.762 126.996 268.256 127.326C268.749 127.655 269.134 128.124 269.361 128.672C269.588 129.22 269.647 129.823 269.531 130.405C269.416 130.987 269.13 131.522 268.71 131.941C268.291 132.361 267.756 132.647 267.174 132.762C266.592 132.878 265.989 132.819 265.441 132.592C264.893 132.365 264.424 131.98 264.095 131.487C263.765 130.993 263.589 130.413 263.589 129.82C263.599 129.033 263.919 128.282 264.478 127.728C265.037 127.174 265.792 126.863 266.579 126.86L266.589 126.82ZM266.589 132.36C267.086 132.362 267.573 132.216 267.987 131.941C268.402 131.666 268.725 131.274 268.916 130.815C269.107 130.356 269.158 129.851 269.061 129.363C268.965 128.875 268.725 128.427 268.374 128.075C268.022 127.724 267.574 127.484 267.086 127.388C266.598 127.291 266.093 127.342 265.634 127.533C265.175 127.724 264.783 128.047 264.508 128.462C264.233 128.876 264.087 129.363 264.089 129.86C264.085 130.19 264.146 130.518 264.269 130.825C264.393 131.132 264.575 131.411 264.806 131.647C265.038 131.883 265.313 132.071 265.618 132.2C265.922 132.33 266.249 132.397 266.579 132.4L266.589 132.36ZM243.309 139.54C243.902 139.54 244.482 139.716 244.976 140.046C245.469 140.375 245.854 140.844 246.081 141.392C246.308 141.94 246.367 142.543 246.251 143.125C246.136 143.707 245.85 144.242 245.43 144.661C245.011 145.081 244.476 145.367 243.894 145.482C243.312 145.598 242.709 145.539 242.161 145.312C241.613 145.085 241.144 144.7 240.815 144.207C240.485 143.713 240.309 143.133 240.309 142.54C240.319 141.753 240.639 141.002 241.198 140.448C241.757 139.894 242.512 139.583 243.299 139.58L243.309 139.54ZM243.309 145.09C243.808 145.094 244.297 144.95 244.713 144.676C245.13 144.402 245.456 144.01 245.65 143.551C245.844 143.091 245.898 142.584 245.804 142.094C245.71 141.605 245.472 141.154 245.121 140.799C244.771 140.444 244.323 140.201 243.834 140.101C243.345 140.001 242.838 140.049 242.376 140.237C241.914 140.426 241.519 140.747 241.24 141.161C240.961 141.574 240.811 142.061 240.809 142.56C240.802 142.893 240.862 143.223 240.983 143.533C241.105 143.842 241.287 144.125 241.519 144.364C241.75 144.603 242.027 144.793 242.332 144.925C242.638 145.056 242.966 145.126 243.299 145.13L243.309 145.09ZM253.529 257.21C254.122 257.21 254.702 257.386 255.196 257.716C255.689 258.045 256.074 258.514 256.301 259.062C256.528 259.61 256.587 260.213 256.471 260.795C256.356 261.377 256.07 261.912 255.65 262.331C255.231 262.751 254.696 263.037 254.114 263.152C253.532 263.268 252.929 263.209 252.381 262.982C251.833 262.755 251.364 262.37 251.035 261.877C250.705 261.383 250.529 260.803 250.529 260.21C250.529 259.414 250.845 258.651 251.408 258.089C251.97 257.526 252.733 257.21 253.529 257.21ZM253.529 262.76C254.029 262.766 254.519 262.623 254.937 262.35C255.355 262.077 255.683 261.685 255.878 261.225C256.074 260.765 256.128 260.258 256.034 259.767C255.94 259.276 255.703 258.824 255.352 258.469C255 258.114 254.551 257.871 254.062 257.771C253.572 257.671 253.064 257.719 252.602 257.909C252.139 258.099 251.744 258.422 251.466 258.837C251.188 259.252 251.039 259.74 251.039 260.24C251.036 260.904 251.297 261.542 251.764 262.014C252.23 262.487 252.865 262.755 253.529 262.76ZM281.259 237.43C281.852 237.43 282.432 237.606 282.926 237.936C283.419 238.265 283.804 238.734 284.031 239.282C284.258 239.83 284.317 240.433 284.201 241.015C284.086 241.597 283.8 242.132 283.38 242.551C282.961 242.971 282.426 243.257 281.844 243.372C281.262 243.488 280.659 243.429 280.111 243.202C279.563 242.975 279.094 242.59 278.765 242.097C278.435 241.603 278.259 241.023 278.259 240.43C278.259 239.634 278.575 238.871 279.138 238.309C279.7 237.746 280.463 237.43 281.259 237.43ZM281.259 242.96C281.756 242.962 282.242 242.816 282.656 242.542C283.07 242.267 283.394 241.876 283.585 241.417C283.777 240.959 283.828 240.454 283.732 239.966C283.636 239.479 283.398 239.031 283.047 238.679C282.697 238.327 282.25 238.087 281.762 237.989C281.275 237.891 280.77 237.94 280.311 238.13C279.852 238.32 279.459 238.641 279.183 239.054C278.906 239.467 278.759 239.953 278.759 240.45C278.755 240.782 278.817 241.111 278.94 241.419C279.064 241.727 279.247 242.007 279.479 242.244C279.712 242.481 279.988 242.67 280.294 242.8C280.599 242.929 280.927 242.997 281.259 243V242.96ZM248.529 200.96C249.122 200.96 249.702 201.136 250.196 201.466C250.689 201.795 251.074 202.264 251.301 202.812C251.528 203.36 251.587 203.963 251.471 204.545C251.356 205.127 251.07 205.662 250.65 206.081C250.231 206.501 249.696 206.787 249.114 206.902C248.532 207.018 247.929 206.959 247.381 206.732C246.833 206.505 246.364 206.12 246.035 205.627C245.705 205.133 245.529 204.553 245.529 203.96C245.539 203.171 245.86 202.418 246.422 201.865C246.983 201.311 247.74 201 248.529 201V200.96ZM248.529 206.5C249.025 206.496 249.509 206.345 249.919 206.067C250.329 205.788 250.648 205.394 250.835 204.934C251.021 204.475 251.067 203.97 250.968 203.484C250.868 202.999 250.626 202.553 250.273 202.205C249.92 201.856 249.472 201.62 248.985 201.526C248.498 201.432 247.994 201.484 247.537 201.676C247.08 201.868 246.689 202.191 246.416 202.605C246.142 203.019 245.997 203.504 245.999 204C246.002 204.33 246.069 204.655 246.198 204.959C246.326 205.263 246.513 205.538 246.748 205.769C246.983 206 247.261 206.183 247.567 206.307C247.872 206.43 248.199 206.493 248.529 206.49V206.5ZM245.529 163.82C246.122 163.82 246.702 163.996 247.196 164.326C247.689 164.655 248.074 165.124 248.301 165.672C248.528 166.22 248.587 166.823 248.471 167.405C248.356 167.987 248.07 168.522 247.65 168.941C247.231 169.361 246.696 169.647 246.114 169.762C245.532 169.878 244.929 169.819 244.381 169.592C243.833 169.365 243.364 168.98 243.035 168.487C242.705 167.993 242.529 167.413 242.529 166.82C242.526 166.026 242.838 165.263 243.397 164.699C243.956 164.135 244.715 163.815 245.509 163.81L245.529 163.82ZM245.529 169.34C246.192 169.34 246.828 169.077 247.297 168.608C247.766 168.139 248.029 167.503 248.029 166.84C248.029 166.177 247.766 165.541 247.297 165.072C246.828 164.603 246.192 164.34 245.529 164.34C244.866 164.34 244.23 164.603 243.761 165.072C243.292 165.541 243.029 166.177 243.029 166.84C243.029 167.503 243.292 168.139 243.761 168.608C244.23 169.077 244.866 169.34 245.529 169.34ZM224.529 213.18C225.241 213.149 225.94 213.372 226.503 213.81C227.065 214.248 227.453 214.872 227.597 215.569C227.742 216.267 227.633 216.993 227.29 217.618C226.948 218.243 226.395 218.726 225.729 218.98L225.829 218.33C226.292 218.045 226.65 217.617 226.848 217.111C227.046 216.605 227.074 216.048 226.927 215.524C226.78 215.001 226.466 214.539 226.034 214.21C225.601 213.881 225.073 213.702 224.529 213.7C224.323 213.695 224.117 213.722 223.919 213.78L223.629 213.31C223.91 213.22 224.204 213.172 224.499 213.17L224.529 213.18ZM264.089 180.74C264.682 180.74 265.262 180.916 265.756 181.246C266.249 181.575 266.634 182.044 266.861 182.592C267.088 183.14 267.147 183.743 267.031 184.325C266.916 184.907 266.63 185.442 266.21 185.861C265.791 186.281 265.256 186.567 264.674 186.682C264.092 186.798 263.489 186.739 262.941 186.512C262.393 186.285 261.924 185.9 261.595 185.407C261.265 184.913 261.089 184.333 261.089 183.74C261.099 182.952 261.414 182.198 261.968 181.637C262.521 181.076 263.271 180.751 264.059 180.73L264.089 180.74ZM264.089 186.28C264.586 186.282 265.073 186.136 265.487 185.861C265.902 185.586 266.225 185.194 266.416 184.735C266.607 184.276 266.658 183.771 266.561 183.283C266.465 182.795 266.225 182.347 265.874 181.995C265.522 181.644 265.074 181.404 264.586 181.308C264.098 181.211 263.593 181.262 263.134 181.453C262.675 181.644 262.283 181.967 262.008 182.382C261.733 182.796 261.587 183.283 261.589 183.78C261.594 184.435 261.855 185.063 262.317 185.528C262.778 185.993 263.404 186.26 264.059 186.27L264.089 186.28ZM341.959 213.18C342.552 213.18 343.132 213.356 343.626 213.686C344.119 214.015 344.504 214.484 344.731 215.032C344.958 215.58 345.017 216.183 344.901 216.765C344.786 217.347 344.5 217.882 344.08 218.301C343.661 218.721 343.126 219.007 342.544 219.122C341.962 219.238 341.359 219.179 340.811 218.952C340.263 218.725 339.794 218.34 339.465 217.847C339.135 217.353 338.959 216.773 338.959 216.18C338.956 215.388 339.267 214.627 339.824 214.063C340.38 213.499 341.137 213.178 341.929 213.17L341.959 213.18ZM341.959 218.71C342.456 218.712 342.942 218.566 343.356 218.292C343.77 218.017 344.094 217.626 344.285 217.167C344.477 216.709 344.528 216.204 344.432 215.716C344.336 215.229 344.098 214.781 343.747 214.429C343.397 214.077 342.95 213.837 342.462 213.739C341.975 213.641 341.47 213.69 341.011 213.88C340.552 214.07 340.159 214.391 339.883 214.804C339.606 215.217 339.459 215.703 339.459 216.2C339.462 216.857 339.722 217.487 340.183 217.954C340.645 218.422 341.272 218.69 341.929 218.7L341.959 218.71ZM281.289 265.29C282.066 265.289 282.813 265.59 283.372 266.129C283.932 266.668 284.26 267.404 284.289 268.18H283.759C283.721 267.541 283.441 266.941 282.977 266.501C282.513 266.061 281.899 265.814 281.259 265.81C280.621 265.809 280.006 266.054 279.543 266.493C279.079 266.932 278.802 267.532 278.769 268.17H278.239C278.268 267.39 278.599 266.652 279.163 266.112C279.727 265.573 280.479 265.274 281.259 265.28L281.289 265.29ZM304.699 217.89C305.292 217.89 305.872 218.066 306.366 218.396C306.859 218.725 307.244 219.194 307.471 219.742C307.698 220.29 307.757 220.893 307.641 221.475C307.526 222.057 307.24 222.592 306.82 223.011C306.401 223.431 305.866 223.717 305.284 223.832C304.702 223.948 304.099 223.889 303.551 223.662C303.003 223.435 302.534 223.05 302.205 222.557C301.875 222.063 301.699 221.483 301.699 220.89C301.696 220.098 302.007 219.337 302.563 218.773C303.12 218.209 303.877 217.888 304.669 217.88L304.699 217.89ZM304.699 223.42C305.195 223.42 305.681 223.273 306.093 222.997C306.506 222.721 306.828 222.329 307.018 221.871C307.208 221.412 307.258 220.907 307.161 220.42C307.064 219.933 306.825 219.486 306.474 219.135C306.123 218.784 305.676 218.545 305.189 218.448C304.702 218.351 304.197 218.401 303.738 218.591C303.28 218.781 302.888 219.103 302.612 219.516C302.336 219.928 302.189 220.414 302.189 220.91C302.189 221.57 302.45 222.202 302.914 222.671C303.379 223.139 304.009 223.405 304.669 223.41L304.699 223.42ZM303.199 162.28C303.792 162.28 304.372 162.456 304.866 162.786C305.359 163.115 305.744 163.584 305.971 164.132C306.198 164.68 306.257 165.283 306.141 165.865C306.026 166.447 305.74 166.982 305.32 167.401C304.901 167.821 304.366 168.107 303.784 168.222C303.202 168.338 302.599 168.279 302.051 168.052C301.503 167.825 301.034 167.44 300.705 166.947C300.375 166.453 300.199 165.873 300.199 165.28C300.196 164.488 300.507 163.727 301.063 163.163C301.62 162.599 302.377 162.278 303.169 162.27L303.199 162.28ZM303.199 167.81C303.823 167.754 304.404 167.467 304.827 167.004C305.251 166.541 305.485 165.937 305.485 165.31C305.485 164.683 305.251 164.079 304.827 163.616C304.404 163.153 303.823 162.866 303.199 162.81C302.852 162.779 302.502 162.82 302.172 162.932C301.842 163.043 301.538 163.223 301.281 163.458C301.024 163.693 300.819 163.979 300.678 164.298C300.538 164.617 300.465 164.962 300.465 165.31C300.465 165.658 300.538 166.003 300.678 166.322C300.819 166.641 301.024 166.927 301.281 167.162C301.538 167.397 301.842 167.577 302.172 167.688C302.502 167.8 302.852 167.841 303.199 167.81ZM356.949 239.39C357.143 239.391 357.337 239.408 357.529 239.44C357.599 239.65 357.659 239.84 357.729 240.03C357.477 239.95 357.214 239.909 356.949 239.91C356.594 239.865 356.234 239.896 355.892 240.001C355.55 240.106 355.234 240.283 354.966 240.519C354.698 240.756 354.483 241.047 354.335 241.373C354.188 241.699 354.112 242.052 354.112 242.41C354.112 242.768 354.188 243.121 354.335 243.447C354.483 243.773 354.698 244.064 354.966 244.301C355.234 244.537 355.55 244.714 355.892 244.819C356.234 244.924 356.594 244.955 356.949 244.91C357.356 244.908 357.756 244.806 358.113 244.612C358.471 244.418 358.775 244.139 358.999 243.8L359.209 244.38C358.928 244.717 358.576 244.989 358.179 245.176C357.782 245.362 357.348 245.459 356.909 245.46C356.104 245.46 355.332 245.14 354.763 244.571C354.194 244.002 353.874 243.23 353.874 242.425C353.874 241.62 354.194 240.848 354.763 240.279C355.332 239.71 356.104 239.39 356.909 239.39H356.949ZM323.949 234.39C324.542 234.39 325.122 234.566 325.616 234.896C326.109 235.225 326.494 235.694 326.721 236.242C326.948 236.79 327.007 237.393 326.891 237.975C326.776 238.557 326.49 239.092 326.07 239.511C325.651 239.931 325.116 240.217 324.534 240.332C323.952 240.448 323.349 240.389 322.801 240.162C322.253 239.935 321.784 239.55 321.455 239.057C321.125 238.563 320.949 237.983 320.949 237.39C320.946 236.99 321.024 236.594 321.176 236.224C321.329 235.855 321.554 235.519 321.838 235.238C322.122 234.956 322.46 234.735 322.831 234.586C323.202 234.437 323.599 234.363 323.999 234.37L323.949 234.39ZM323.949 239.93C324.445 239.928 324.928 239.779 325.34 239.503C325.751 239.226 326.071 238.834 326.26 238.376C326.449 237.918 326.497 237.414 326.4 236.928C326.303 236.442 326.064 235.996 325.714 235.645C325.363 235.295 324.917 235.056 324.431 234.959C323.945 234.862 323.441 234.91 322.983 235.099C322.525 235.288 322.133 235.608 321.856 236.019C321.58 236.431 321.431 236.914 321.429 237.41C321.43 237.744 321.498 238.074 321.629 238.382C321.759 238.689 321.949 238.967 322.189 239.2C322.428 239.433 322.712 239.615 323.022 239.737C323.333 239.859 323.665 239.918 323.999 239.91L323.949 239.93ZM275.699 210.68C276.292 210.68 276.872 210.856 277.366 211.186C277.859 211.515 278.244 211.984 278.471 212.532C278.698 213.08 278.757 213.683 278.641 214.265C278.526 214.847 278.24 215.382 277.82 215.801C277.401 216.221 276.866 216.507 276.284 216.622C275.702 216.738 275.099 216.679 274.551 216.452C274.003 216.225 273.534 215.84 273.205 215.347C272.875 214.853 272.699 214.273 272.699 213.68C272.707 212.881 273.027 212.118 273.592 211.553C274.157 210.989 274.92 210.668 275.719 210.66L275.699 210.68ZM275.699 216.21C276.193 216.21 276.677 216.063 277.088 215.789C277.499 215.514 277.819 215.124 278.009 214.667C278.198 214.21 278.247 213.707 278.151 213.222C278.054 212.737 277.816 212.292 277.467 211.942C277.117 211.593 276.672 211.354 276.187 211.258C275.702 211.162 275.199 211.211 274.742 211.4C274.285 211.59 273.895 211.91 273.62 212.321C273.346 212.732 273.199 213.216 273.199 213.71C273.207 214.372 273.476 215.004 273.948 215.469C274.42 215.934 275.057 216.193 275.719 216.19L275.699 216.21ZM283.549 116.31C283.762 116.601 284.036 116.842 284.352 117.014C284.669 117.187 285.019 117.288 285.379 117.31L286.079 117.8C285.906 117.815 285.732 117.815 285.559 117.8C284.978 117.805 284.408 117.642 283.918 117.33C283.428 117.017 283.039 116.569 282.799 116.04C283.079 116.13 283.329 116.2 283.569 116.29L283.549 116.31ZM274.209 150C275.014 150 275.786 150.32 276.355 150.889C276.924 151.458 277.244 152.23 277.244 153.035C277.244 153.84 276.924 154.612 276.355 155.181C275.786 155.75 275.014 156.07 274.209 156.07C273.404 156.07 272.632 155.75 272.063 155.181C271.494 154.612 271.174 153.84 271.174 153.035C271.174 152.23 271.494 151.458 272.063 150.889C272.632 150.32 273.404 150 274.209 150ZM274.209 155.55C274.707 155.548 275.192 155.399 275.605 155.121C276.018 154.843 276.34 154.45 276.529 153.99C276.719 153.53 276.768 153.024 276.67 152.536C276.572 152.048 276.333 151.6 275.981 151.248C275.629 150.896 275.181 150.656 274.693 150.559C274.205 150.461 273.699 150.51 273.239 150.7C272.779 150.889 272.385 151.211 272.108 151.624C271.83 152.037 271.681 152.522 271.679 153.02C271.68 153.351 271.747 153.678 271.875 153.984C272.002 154.289 272.189 154.566 272.424 154.799C272.659 155.032 272.938 155.217 273.244 155.342C273.55 155.467 273.878 155.531 274.209 155.53V155.55Z" fill="white"/>
<path d="M249.64 212.85C255.739 213.404 261.789 214.407 267.74 215.85C270.68 216.61 273.58 217.5 276.47 218.45C277.91 218.92 279.35 219.35 280.81 219.77C282.324 220.243 283.888 220.535 285.47 220.64C285.499 220.64 285.527 220.652 285.548 220.672C285.568 220.693 285.58 220.721 285.58 220.75C285.58 220.779 285.568 220.807 285.548 220.828C285.527 220.848 285.499 220.86 285.47 220.86C283.973 220.933 282.473 220.907 280.98 220.78C279.536 220.61 278.106 220.339 276.7 219.97C273.7 219.23 270.7 218.36 267.75 217.59C261.75 216.04 255.69 214.49 249.56 213.38C249.28 213.3 249.35 212.82 249.64 212.85Z" fill="#263238"/>
<path d="M234.57 218.25C239.592 217.722 244.64 217.478 249.69 217.52C252.22 217.52 254.69 217.73 257.24 217.97C258.44 218.09 259.64 218.23 260.84 218.38C262.04 218.53 263.45 218.89 264.77 219.04C264.9 219.04 264.91 219.27 264.77 219.26C263.53 219.15 262.26 219.26 261 219.26L257.23 219.16C254.71 219.1 252.23 219.06 249.68 218.98C244.68 218.81 239.62 218.69 234.57 218.69C234.29 218.66 234.31 218.27 234.57 218.25Z" fill="#263238"/>
<path d="M215.15 173.11C214.85 171.54 214.66 170.11 214.51 168.64C214.36 167.17 214.28 165.64 214.28 164.14C214.274 162.57 214.414 161.004 214.7 159.46C214.979 157.671 215.693 155.978 216.78 154.53C217.456 153.684 218.332 153.021 219.33 152.6C219.821 152.399 220.335 152.258 220.86 152.18C221.346 152.11 221.839 152.09 222.33 152.12C224.164 152.249 225.912 152.948 227.33 154.12C228.598 155.137 229.678 156.369 230.52 157.76C231.383 159.138 231.974 160.669 232.26 162.27C232.443 163.229 232.368 164.22 232.04 165.14C231.808 165.729 231.408 166.237 230.89 166.6C230.392 166.929 229.816 167.119 229.22 167.15C228.604 167.188 227.992 167.041 227.46 166.73C227.004 166.438 226.616 166.053 226.32 165.6C225.868 164.87 225.566 164.058 225.43 163.21C225.169 161.698 225.169 160.152 225.43 158.64C225.669 157.129 226.221 155.685 227.05 154.4C227.495 153.722 228.095 153.16 228.8 152.76C229.533 152.364 230.378 152.223 231.2 152.36C232.668 152.694 233.997 153.477 235 154.6C236.915 156.705 238.442 159.132 239.51 161.77C238.245 159.272 236.553 157.015 234.51 155.1C233.557 154.18 232.34 153.582 231.03 153.39C230.438 153.376 229.855 153.538 229.355 153.855C228.855 154.172 228.46 154.629 228.22 155.17C227.627 156.322 227.286 157.586 227.22 158.88C227.108 160.166 227.216 161.461 227.54 162.71C227.673 163.245 227.911 163.748 228.24 164.19C228.339 164.323 228.469 164.43 228.62 164.5C228.711 164.53 228.809 164.53 228.9 164.5C229.008 164.481 229.108 164.433 229.19 164.36C229.228 164.295 229.256 164.224 229.27 164.15C229.339 163.715 229.305 163.27 229.17 162.85C228.46 160.551 226.98 158.567 224.98 157.23C224.158 156.652 223.175 156.348 222.17 156.36C221.961 156.37 221.753 156.4 221.55 156.45C221.383 156.496 221.222 156.56 221.07 156.64C220.785 156.811 220.545 157.048 220.37 157.33C219.88 158.22 219.593 159.206 219.53 160.22C219.415 161.464 219.415 162.716 219.53 163.96C219.639 165.265 219.816 166.563 220.06 167.85C220.3 169.14 220.6 170.5 220.94 171.67L215.15 173.11Z" fill="#19B690"/>
<path opacity="0.1" d="M215.15 173.11C214.85 171.54 214.66 170.11 214.51 168.64C214.36 167.17 214.28 165.64 214.28 164.14C214.274 162.57 214.414 161.004 214.7 159.46C214.979 157.671 215.693 155.978 216.78 154.53C217.456 153.684 218.332 153.021 219.33 152.6C219.821 152.399 220.335 152.258 220.86 152.18C221.346 152.11 221.839 152.09 222.33 152.12C224.164 152.249 225.912 152.948 227.33 154.12C228.598 155.137 229.678 156.369 230.52 157.76C231.383 159.138 231.974 160.669 232.26 162.27C232.443 163.229 232.368 164.22 232.04 165.14C231.808 165.729 231.408 166.237 230.89 166.6C230.392 166.929 229.816 167.119 229.22 167.15C228.604 167.188 227.992 167.041 227.46 166.73C227.004 166.438 226.616 166.053 226.32 165.6C225.868 164.87 225.566 164.058 225.43 163.21C225.169 161.698 225.169 160.152 225.43 158.64C225.669 157.129 226.221 155.685 227.05 154.4C227.495 153.722 228.095 153.16 228.8 152.76C229.533 152.364 230.378 152.223 231.2 152.36C232.668 152.694 233.997 153.477 235 154.6C236.915 156.705 238.442 159.132 239.51 161.77C238.245 159.272 236.553 157.015 234.51 155.1C233.557 154.18 232.34 153.582 231.03 153.39C230.438 153.376 229.855 153.538 229.355 153.855C228.855 154.172 228.46 154.629 228.22 155.17C227.627 156.322 227.286 157.586 227.22 158.88C227.108 160.166 227.216 161.461 227.54 162.71C227.673 163.245 227.911 163.748 228.24 164.19C228.339 164.323 228.469 164.43 228.62 164.5C228.711 164.53 228.809 164.53 228.9 164.5C229.008 164.481 229.108 164.433 229.19 164.36C229.228 164.295 229.256 164.224 229.27 164.15C229.339 163.715 229.305 163.27 229.17 162.85C228.46 160.551 226.98 158.567 224.98 157.23C224.158 156.652 223.175 156.348 222.17 156.36C221.961 156.37 221.753 156.4 221.55 156.45C221.383 156.496 221.222 156.56 221.07 156.64C220.785 156.811 220.545 157.048 220.37 157.33C219.88 158.22 219.593 159.206 219.53 160.22C219.415 161.464 219.415 162.716 219.53 163.96C219.639 165.265 219.816 166.563 220.06 167.85C220.3 169.14 220.6 170.5 220.94 171.67L215.15 173.11Z" fill="black"/>
<path d="M209.139 240.55C205.069 246.3 205.899 263.88 203.429 266.34C200.959 268.8 175.689 268.54 173.989 267.09C172.289 265.64 173.089 259.44 171.179 258.41C170.429 258 209.139 240.55 209.139 240.55Z" fill="#19B690"/>
<path opacity="0.1" d="M171.179 258.42C171.477 258.642 171.726 258.923 171.911 259.244C172.097 259.566 172.215 259.921 172.259 260.29C183.928 258.929 195.333 255.859 206.109 251.18C206.699 246.9 207.539 242.82 209.109 240.55C209.139 240.55 170.429 258 171.179 258.42Z" fill="black"/>
<path d="M88.0001 240.83C93.0901 248.18 90.3401 263.88 92.8001 266.34C95.2601 268.8 120.55 268.54 122.25 267.09C123.95 265.64 123.17 259.09 124.18 257.86C124.7 257.2 88.0001 240.83 88.0001 240.83Z" fill="#19B690"/>
<path opacity="0.1" d="M88.0001 240.83C89.9001 243.57 90.7101 247.48 91.1001 251.41C101.437 255.996 112.396 259.029 123.62 260.41C123.601 259.531 123.793 258.66 124.18 257.87C124.7 257.2 88.0001 240.83 88.0001 240.83Z" fill="black"/>
<path d="M150 135.5C206.77 135.5 228.5 175.3 228.5 198.59C228.5 221.59 212 260.59 150 260.59C88 260.59 67.43 227.5 67.43 198.03C67.43 168.56 92.65 135.5 150 135.5Z" fill="#19B690"/>
<path d="M129.15 138.38C129.15 138.38 105.93 120.57 80.7804 122.69C72.1204 123.42 86.5004 142.19 86.7804 156.84L129.15 138.38Z" fill="#19B690"/>
<path opacity="0.1" d="M96.4589 149.67C96.6089 150.6 88.5889 154.03 87.7689 153.5C86.9489 152.97 86.0989 141.43 79.5589 129.13C78.5989 127.32 94.9089 139.75 96.4589 149.67Z" fill="black"/>
<path opacity="0.3" d="M91.4197 195.41C90.6454 195.292 89.921 194.955 89.3312 194.44C88.7414 193.924 88.3107 193.251 88.0897 192.5C88.1648 193.422 88.4465 194.315 88.9139 195.113C89.3813 195.911 90.0224 196.594 90.7897 197.11C90.9097 197.18 90.8497 197.39 90.6997 197.35C86.2597 195.68 86.6997 189.35 88.2997 185.41C88.3775 185.185 88.4677 184.965 88.5697 184.75C89.5697 182.43 91.2997 180.75 93.4797 181.06C100.66 182.1 98.0697 196.37 91.4197 195.41Z" fill="black"/>
<path d="M74.32 175.08C73.2 178.42 63.12 175.71 60.58 177.83C56.58 181.14 57.68 222.33 61.34 225.65C63.4 227.51 74.83 225.55 78.04 227.82C81.25 230.09 74.32 175.08 74.32 175.08Z" fill="#19B690"/>
<path opacity="0.1" d="M60 200.74C60 210.74 60.84 218.9 61.88 218.9C62.92 218.9 63.75 210.77 63.75 200.74C63.75 190.71 62.91 182.57 61.88 182.57C60.85 182.57 60 190.7 60 200.74Z" fill="black"/>
<path opacity="0.3" d="M177.91 148.7C177.74 148.65 160.6 143.07 144.65 147.43L143.06 141.62C160.81 136.76 179.06 142.73 179.82 142.98L177.91 148.7L178.86 145.84L177.91 148.7Z" fill="black"/>
<path d="M201.709 236.16C224.609 209.84 210.599 179.28 209.959 177.97C209.519 177.072 209.454 176.036 209.777 175.09C210.101 174.144 210.787 173.365 211.684 172.925C212.582 172.485 213.618 172.419 214.564 172.743C215.51 173.066 216.289 173.752 216.729 174.65C219.819 181.584 221.648 189.014 222.129 196.59C223.229 213.33 217.689 228.7 204.589 239.16C200.639 242.32 198.769 239.54 201.709 236.16Z" fill="white"/>
<path d="M211.68 166.29C211.682 167.101 211.443 167.895 210.994 168.571C210.544 169.246 209.905 169.773 209.156 170.085C208.407 170.397 207.582 170.48 206.786 170.322C205.99 170.165 205.258 169.776 204.684 169.203C204.11 168.63 203.718 167.899 203.559 167.104C203.4 166.308 203.481 165.483 203.791 164.733C204.101 163.984 204.626 163.343 205.301 162.892C205.975 162.441 206.768 162.2 207.58 162.2C208.118 162.199 208.651 162.304 209.148 162.508C209.645 162.713 210.097 163.014 210.478 163.394C210.859 163.774 211.161 164.226 211.367 164.723C211.574 165.219 211.68 165.752 211.68 166.29Z" fill="white"/>
<path d="M302 129.88C340 169.67 387.17 252.82 377.83 269.36C367.43 287.79 313.12 231.48 314.83 228.76C316.28 226.46 296.94 176.06 283.2 139.44C269.46 102.82 292.59 120 302 129.88Z" fill="#EB9481"/>
<path d="M348.5 177.58L294 187.4C294 187.4 280.4 148.77 277.7 127.33C276.19 115.33 283.25 114.82 292.13 121.2C323.22 143.56 348.5 177.58 348.5 177.58Z" fill="#455A64"/>
<path d="M329 173.53C329.593 173.53 330.173 173.706 330.667 174.036C331.16 174.365 331.545 174.834 331.772 175.382C331.999 175.93 332.058 176.533 331.942 177.115C331.827 177.697 331.541 178.232 331.121 178.651C330.702 179.071 330.167 179.357 329.585 179.472C329.003 179.588 328.4 179.529 327.852 179.302C327.304 179.075 326.835 178.69 326.506 178.197C326.176 177.703 326 177.123 326 176.53C326 175.734 326.316 174.971 326.879 174.409C327.441 173.846 328.204 173.53 329 173.53ZM329 179.06C329.497 179.062 329.983 178.916 330.397 178.642C330.811 178.367 331.135 177.976 331.326 177.517C331.518 177.059 331.569 176.554 331.473 176.066C331.377 175.579 331.139 175.131 330.788 174.779C330.438 174.427 329.991 174.187 329.503 174.089C329.016 173.991 328.511 174.04 328.052 174.23C327.593 174.42 327.2 174.741 326.924 175.154C326.647 175.567 326.5 176.053 326.5 176.55C326.5 177.214 326.763 177.851 327.232 178.321C327.7 178.792 328.336 179.057 329 179.06ZM295.51 133.65C296.315 133.65 297.087 133.97 297.656 134.539C298.225 135.108 298.545 135.88 298.545 136.685C298.545 137.49 298.225 138.262 297.656 138.831C297.087 139.4 296.315 139.72 295.51 139.72C294.705 139.72 293.933 139.4 293.364 138.831C292.795 138.262 292.475 137.49 292.475 136.685C292.475 135.88 292.795 135.108 293.364 134.539C293.933 133.97 294.705 133.65 295.51 133.65ZM295.51 139.2C296.008 139.198 296.494 139.049 296.907 138.77C297.32 138.492 297.642 138.098 297.831 137.637C298.02 137.177 298.069 136.67 297.97 136.182C297.872 135.694 297.631 135.246 297.278 134.895C296.926 134.543 296.477 134.304 295.988 134.208C295.499 134.111 294.993 134.162 294.533 134.353C294.073 134.544 293.68 134.867 293.404 135.281C293.128 135.695 292.98 136.182 292.98 136.68C292.98 137.011 293.045 137.339 293.172 137.644C293.298 137.95 293.484 138.228 293.718 138.462C293.952 138.696 294.23 138.882 294.536 139.008C294.841 139.135 295.169 139.2 295.5 139.2H295.51ZM319.33 145.56C319.79 145.561 320.244 145.663 320.66 145.86C321.13 146.34 321.6 146.8 322.06 147.28C322.256 147.685 322.355 148.13 322.35 148.58C322.35 149.173 322.174 149.753 321.844 150.247C321.515 150.74 321.046 151.125 320.498 151.352C319.95 151.579 319.347 151.638 318.765 151.522C318.183 151.407 317.648 151.121 317.229 150.701C316.809 150.282 316.523 149.747 316.408 149.165C316.292 148.583 316.351 147.98 316.578 147.432C316.805 146.884 317.19 146.415 317.683 146.086C318.177 145.756 318.757 145.58 319.35 145.58L319.33 145.56ZM319.33 151.11C319.828 151.11 320.316 150.962 320.73 150.685C321.144 150.408 321.467 150.015 321.658 149.554C321.849 149.094 321.899 148.587 321.802 148.098C321.704 147.61 321.464 147.161 321.112 146.808C320.759 146.456 320.31 146.216 319.822 146.118C319.333 146.021 318.826 146.071 318.366 146.262C317.905 146.453 317.512 146.776 317.235 147.19C316.958 147.604 316.81 148.092 316.81 148.59C316.809 148.92 316.873 149.248 316.998 149.554C317.124 149.859 317.308 150.137 317.542 150.371C317.775 150.605 318.052 150.791 318.357 150.918C318.662 151.045 318.99 151.11 319.32 151.11H319.33ZM294.71 187.28L294.08 187.39C294.044 187.355 294.004 187.324 293.96 187.3L293.69 186.53C294.08 186.698 294.426 186.955 294.7 187.28H294.71ZM303.18 162.28C303.773 162.28 304.353 162.456 304.847 162.786C305.34 163.115 305.725 163.584 305.952 164.132C306.179 164.68 306.238 165.283 306.122 165.865C306.007 166.447 305.721 166.982 305.301 167.401C304.882 167.821 304.347 168.107 303.765 168.222C303.183 168.338 302.58 168.279 302.032 168.052C301.484 167.825 301.015 167.44 300.686 166.947C300.356 166.453 300.18 165.873 300.18 165.28C300.179 164.886 300.255 164.496 300.405 164.131C300.554 163.767 300.774 163.435 301.052 163.156C301.329 162.876 301.659 162.654 302.023 162.502C302.386 162.35 302.776 162.271 303.17 162.27L303.18 162.28ZM303.18 167.81C303.804 167.754 304.385 167.467 304.808 167.004C305.232 166.541 305.466 165.937 305.466 165.31C305.466 164.683 305.232 164.079 304.808 163.616C304.385 163.153 303.804 162.866 303.18 162.81C302.833 162.779 302.483 162.82 302.153 162.932C301.823 163.043 301.519 163.223 301.262 163.458C301.005 163.693 300.8 163.979 300.659 164.298C300.519 164.617 300.446 164.962 300.446 165.31C300.446 165.658 300.519 166.003 300.659 166.322C300.8 166.641 301.005 166.927 301.262 167.162C301.519 167.397 301.823 167.577 302.153 167.688C302.483 167.8 302.833 167.841 303.18 167.81ZM285.95 117.81H285.6C284.969 117.813 284.353 117.617 283.84 117.25C284.556 117.359 285.26 117.54 285.94 117.79L285.95 117.81Z" fill="white"/>
<path d="M294.34 178.47C302.6 176.27 325.19 170.94 340.34 169.39C340.43 169.39 340.51 169.72 340.42 169.74C328.03 172.93 302.91 177.5 294.48 178.98C294.3 179 294.19 178.51 294.34 178.47Z" fill="#263238"/>
<path d="M300.629 186.2C298.376 186.42 296.136 186.683 293.909 186.99L294.379 187.27C292.759 181.33 290.959 175.45 289.019 169.61C287.079 163.77 285.019 157.98 282.669 152.27C284.099 158.27 285.819 164.17 287.669 170.05C289.519 175.93 291.469 181.76 293.669 187.53L293.799 187.88L294.139 187.81C296.259 187.31 298.449 186.78 300.629 186.2Z" fill="#263238"/>
<path d="M286.279 164C285.796 162.785 285.172 161.63 284.419 160.56C283.683 159.475 282.861 158.452 281.959 157.5C282.079 158.152 282.294 158.782 282.599 159.37C282.885 159.963 283.22 160.532 283.599 161.07C284.33 162.184 285.235 163.173 286.279 164Z" fill="#263238"/>
<path d="M374.89 271.8C362.38 280.38 339.39 274.28 280.07 264.34C271.86 262.96 265.99 202.42 274.83 203.44C285.96 204.72 328.9 212.11 331.97 213.05C357.88 221 383.38 266 374.89 271.8Z" fill="#EB9481"/>
<path d="M286.829 205.07C286.829 205.07 262.089 199.81 248.239 201.07C229.689 202.76 214.369 211.86 208.179 216.07C195.259 224.84 170.079 254.96 177.489 263.73C184.199 271.66 208.379 239.57 208.379 239.57C208.379 239.57 178.319 268.22 188.159 276.29C197.999 284.36 223.939 245.51 223.939 245.51C223.939 245.51 193.719 275.64 205.179 282.36C213.839 287.43 239.329 253.57 239.329 253.57C239.329 253.57 213.529 279.65 222.209 285.25C231.799 291.45 257.289 261.67 257.289 261.67C281.749 272.2 297.699 267.21 308.629 262.3C311.279 261.1 286.829 205.07 286.829 205.07Z" fill="#EB9481"/>
<path d="M218.14 229C214.49 232.23 210.77 235.49 207.42 239C204.07 242.51 200.83 246.22 197.83 250.07C190.45 259.5 187.31 266.56 187.55 266.15C193.27 256.33 205.07 243.43 208.42 239.88C211.77 236.33 214.94 232.63 218.28 229.08C218.36 229 218.23 228.9 218.14 229Z" fill="#263238"/>
<path d="M231.18 240.85C226.7 245.18 222.09 249.32 217.79 253.85C213.49 258.38 209.86 263.02 205.91 267.85C205.6 268.22 205.91 268.26 206.22 267.91C210.36 263.27 214.55 259.31 218.74 254.72C222.93 250.13 226.95 245.39 231.29 240.97C231.36 240.88 231.25 240.78 231.18 240.85Z" fill="#263238"/>
<path d="M244.21 249C237.02 255.28 230.99 262.87 225.21 270.46C224.92 270.84 225.31 270.85 225.63 270.46C231.79 263.21 236.58 257.46 244.38 249.23C244.55 249.14 244.36 248.89 244.21 249Z" fill="#263238"/>
<path d="M308.949 208.81C313.549 209.74 318.129 210.65 322.669 211.69C327.178 212.624 331.598 213.946 335.879 215.64C337.954 216.57 339.925 217.716 341.759 219.06C343.669 220.35 345.489 221.78 347.319 223.21C350.939 226.12 354.479 229.21 358.029 232.21C355.06 228.565 351.817 225.152 348.329 222C344.809 218.89 341.149 215.82 336.689 213.79C332.281 212.056 327.687 210.838 322.999 210.16C318.352 209.39 313.658 208.939 308.949 208.81Z" fill="#263238"/>
<path d="M278.089 125.8C277.089 128.24 262.519 142.8 251.039 140.49C247.309 139.73 250.549 119.15 250.549 119.15L250.439 117.57L248.939 95.57L276.429 83.35L280.369 81.78C280.369 81.78 280.369 87.84 280.319 95.38C280.319 95.73 280.319 96.08 280.319 96.45C280.319 96.82 280.319 97.28 280.319 97.68C280.319 98.8 280.319 99.95 280.319 101.1C280.319 101.97 280.319 102.82 280.249 103.74C280.179 104.66 280.179 105.55 280.159 106.47C279.699 115.5 278.489 124.76 278.089 125.8Z" fill="#EB9481"/>
<path d="M280.32 95.35C277.251 101 272.988 105.915 267.828 109.752C262.669 113.589 256.735 116.257 250.44 117.57L248.94 95.57L276.43 83.35L280.37 81.78C280.37 81.78 280.38 87.81 280.32 95.35Z" fill="#263238"/>
<path d="M229.619 52.15C213.759 87.52 233.149 101.01 240.779 104.42C247.699 107.52 271.679 117.19 291.109 83.65C310.539 50.11 299.109 31.56 283.649 23.65C268.189 15.74 245.479 16.79 229.619 52.15Z" fill="#EB9481"/>
<path d="M238.759 47.66C239.634 47.8396 240.519 47.9698 241.409 48.05C242.324 48.3138 243.302 48.2681 244.189 47.92C244.445 47.7563 244.64 47.5131 244.745 47.2278C244.85 46.9424 244.858 46.6305 244.769 46.34C244.5 45.7938 244.09 45.329 243.582 44.9933C243.075 44.6577 242.486 44.4632 241.879 44.43C240.655 44.1753 239.38 44.3819 238.299 45.01C238.061 45.168 237.875 45.3915 237.763 45.6534C237.65 45.9152 237.616 46.2041 237.665 46.4849C237.714 46.7657 237.843 47.0262 238.037 47.2349C238.231 47.4435 238.482 47.5912 238.759 47.66Z" fill="#263238"/>
<path d="M260.569 62C259.759 61.58 259.069 61.07 258.299 60.58C257.529 60.09 256.689 59.67 256.299 58.69C256.208 58.3995 256.215 58.0871 256.32 57.8013C256.425 57.5156 256.622 57.2725 256.879 57.11C257.437 56.8648 258.05 56.7735 258.655 56.8456C259.26 56.9177 259.835 57.1506 260.319 57.52C261.418 58.1113 262.256 59.0922 262.669 60.27C262.75 60.548 262.748 60.8438 262.663 61.1207C262.578 61.3975 262.413 61.6433 262.19 61.8275C261.966 62.0117 261.693 62.1262 261.405 62.1568C261.117 62.1875 260.826 62.133 260.569 62Z" fill="#263238"/>
<path d="M254.12 64.63C254.18 64.54 254.27 64.82 254.23 64.92C253.23 67.34 252.39 70.3 254.29 71.99C254.35 72.04 254.29 72.16 254.22 72.12C251.66 70.67 252.74 66.76 254.12 64.63Z" fill="#263238"/>
<path d="M257.319 62.93C261.389 64.18 258.579 72.23 254.809 71.06C251.039 69.89 253.909 61.88 257.319 62.93Z" fill="#263238"/>
<path d="M258.759 63.9C259.299 64.6 259.759 65.65 260.519 66.03C261.279 66.41 262.519 65.88 263.429 65.3C263.519 65.24 263.569 65.3 263.529 65.44C263.019 66.99 261.869 68.36 260.139 68.01C258.559 67.7 257.949 65.95 258.139 64.27C258.139 64 258.539 63.62 258.759 63.9Z" fill="#263238"/>
<path d="M239.779 58.59C239.779 58.49 239.539 58.59 239.509 58.75C238.739 61.27 237.429 64.03 234.879 64.09C234.809 64.09 234.769 64.22 234.879 64.24C237.749 64.79 239.449 61.11 239.779 58.59Z" fill="#263238"/>
<path d="M238.429 55.22C234.519 53.55 231.429 61.5 235.089 63.05C238.749 64.6 241.709 56.63 238.429 55.22Z" fill="#263238"/>
<path d="M236.569 55.11C235.779 55.29 234.869 55.81 234.099 55.57C233.329 55.33 232.889 54.19 232.649 53.15C232.649 53.04 232.539 53.09 232.499 53.15C231.869 54.65 231.769 56.43 233.109 57.28C234.449 58.13 235.819 57.13 236.769 55.76C236.939 55.55 236.889 55 236.569 55.11Z" fill="#263238"/>
<path d="M245.93 85.68C245.15 86.1 244.3 86.73 243.36 86.53C242.426 86.2323 241.566 85.7378 240.84 85.08C240.823 85.0704 240.805 85.0656 240.786 85.0661C240.767 85.0666 240.749 85.0724 240.733 85.0828C240.717 85.0933 240.705 85.1079 240.697 85.1251C240.69 85.1423 240.687 85.1613 240.69 85.18C240.899 85.7868 241.271 86.3247 241.765 86.7354C242.258 87.146 242.855 87.4139 243.49 87.51C244.045 87.5327 244.594 87.3886 245.066 87.0963C245.538 86.8039 245.912 86.3768 246.14 85.87C246.23 85.74 246 85.62 245.93 85.68Z" fill="#263238"/>
<path d="M238.809 73C238.809 73 236.959 76.52 236.319 78.26C236.259 78.43 236.659 78.66 237.239 78.91C237.239 78.91 237.239 78.91 237.309 78.91C238.709 79.7266 240.308 80.1418 241.929 80.1101C243.55 80.0783 245.131 79.6009 246.499 78.73C246.521 78.7188 246.541 78.7034 246.557 78.6845C246.573 78.6657 246.586 78.6438 246.594 78.6201C246.602 78.5964 246.605 78.5714 246.603 78.5465C246.601 78.5216 246.595 78.4973 246.584 78.475C246.572 78.4527 246.557 78.4328 246.538 78.4164C246.519 78.4001 246.497 78.3876 246.474 78.3797C246.45 78.3718 246.425 78.3687 246.4 78.3704C246.375 78.3722 246.351 78.3789 246.329 78.39C243.546 79.1078 240.606 78.9042 237.949 77.81C238.009 77.29 241.329 71.89 241.059 71.81C239.659 71.4377 238.216 71.256 236.769 71.27C240.419 63.83 245.239 57.03 248.769 49.56C248.797 49.5057 248.804 49.443 248.789 49.3837C248.775 49.3243 248.738 49.2725 248.688 49.238C248.637 49.2035 248.576 49.1887 248.515 49.1964C248.455 49.2042 248.399 49.2339 248.359 49.28C242.799 56.05 238.409 64.53 234.439 72.12C233.929 73 237.999 73 238.809 73Z" fill="#263238"/>
<path d="M286.079 92C279.899 84.5 283.469 76 283.469 76C278.484 70.2784 275.109 63.3348 273.689 55.88C273.579 56.73 272.799 62.88 272.499 66.07C251.689 51.07 252.859 30.25 252.859 30.25C241.979 34.15 238.269 38.18 236.089 40.03C236.089 40.03 242.529 25.95 254.089 19.97C268.309 12.64 299.519 23.57 306.229 45.03C313.489 68.21 286.079 92 286.079 92Z" fill="#263238"/>
<path d="M256.94 54.15C259.659 57.8839 262.918 61.1934 266.61 63.97C266.61 63.97 266.68 63.97 266.61 63.92C261.013 59.1529 256.857 52.9193 254.61 45.92C253.667 42.9357 253.102 39.8449 252.93 36.72C252.615 33.3058 252.978 29.8631 254 26.59C254.09 26.36 253.72 26.22 253.64 26.45C252.41 29.73 251.32 32.76 251.21 36.3C251.101 39.6803 251.609 43.0521 252.71 46.25C253.721 49.0758 255.125 51.7453 256.88 54.18" fill="#263238"/>
<path d="M284.279 83.84C284.279 83.84 296.279 75.2 300.439 79.84C304.599 84.48 292.849 99 285.999 99.13C285.118 99.2092 284.23 99.1095 283.389 98.8367C282.547 98.5639 281.77 98.1237 281.103 97.5427C280.436 96.9617 279.893 96.2517 279.507 95.4556C279.122 94.6595 278.901 93.7936 278.859 92.91L284.279 83.84Z" fill="#EB9481"/>
<path d="M297 83.92C297.1 83.92 297.07 84.09 297 84.09C292.13 84.34 288.51 87.51 285.51 91.09C287.33 89.95 289.35 89.68 290.94 91.93C291.03 92.05 290.86 92.19 290.75 92.12C290.075 91.5949 289.25 91.2999 288.395 91.2783C287.54 91.2567 286.701 91.5096 286 92C284.841 92.7768 283.772 93.6789 282.81 94.69C282.48 95 281.81 94.56 282.16 94.17L282.23 94.08C284 88.57 290.92 82.43 297 83.92Z" fill="#263238"/>
<path d="M280.19 102.34C279.712 104.105 279.507 105.933 279.58 107.76C279.74 110.26 280.8 111.02 281.66 111.22C282 111.311 282.357 111.324 282.703 111.258C283.049 111.192 283.376 111.049 283.66 110.84C286.5 108.89 287.66 100.59 287.93 98.72C287.36 98.89 286.83 99.01 286.34 99.11C285.89 102.21 284.69 108.29 282.81 109.61C282.696 109.688 282.566 109.742 282.43 109.768C282.294 109.794 282.155 109.791 282.02 109.76C281.29 109.58 280.93 108.12 281.12 105.96C281.341 103.545 281.949 101.182 282.92 98.96C283.59 97.35 284.32 96.28 284.73 96.26C284.826 96.2838 284.927 96.2881 285.025 96.2727C285.123 96.2573 285.217 96.2226 285.302 96.1705C285.387 96.1183 285.46 96.0499 285.518 95.9692C285.576 95.8884 285.617 95.7969 285.64 95.7C285.68 95.5069 285.646 95.3056 285.544 95.1368C285.442 94.9679 285.279 94.844 285.09 94.79C283.71 94.45 282.46 96.23 281.54 98.37C280.968 99.6487 280.516 100.978 280.19 102.34Z" fill="#19B690"/>
<path d="M174 138C166.93 133.1 158.85 121.3 152.71 119.52C151.214 119.027 149.598 119.029 148.103 119.526C146.608 120.023 145.313 120.989 144.41 122.28C144.41 122.28 142.32 115.52 136.48 114.83C133.48 114.47 130.27 118.96 130.27 118.96C130.27 118.96 128.35 113.61 123.12 113.32C118.95 113.08 116.36 117.61 116.36 117.61C116.36 117.61 112.14 113.34 107.81 114.46C99.05 116.73 93.25 152.08 105.38 159.68C111.04 163.22 111.98 154.51 111.98 154.51C111.98 154.51 113.65 167.36 120.91 168.74C128.17 170.12 128.71 158.74 128.71 158.74C128.71 158.74 130.43 171.19 138.1 171.86C146.1 172.56 144.68 161.07 144.68 161.07C144.68 161.07 148.68 169.8 154.68 168.97C164.57 167.6 154.74 147.03 157.86 139.56L174 138Z" fill="#EB9481"/>
<path d="M115.85 118.28C115.85 118.259 115.843 118.239 115.831 118.222C115.818 118.205 115.801 118.192 115.781 118.185C115.761 118.178 115.74 118.178 115.72 118.185C115.7 118.191 115.682 118.203 115.67 118.22C110.93 129.38 109.15 143.1 111.87 155C111.96 155.39 112.64 155.41 112.62 155C112.15 142.17 112.76 130.77 115.85 118.28Z" fill="#263238"/>
<path d="M130.219 118.79C130.219 118.66 130.029 118.6 129.969 118.74C125.149 130.27 123.559 145.74 128.319 159.12C128.489 159.57 129.089 159.82 128.939 159.28C126.449 150.17 127.379 130 130.219 118.79Z" fill="#263238"/>
<path d="M145.329 161.94C141.269 148.94 141.759 136.01 144.189 122.77C144.189 122.6 143.969 122.57 143.909 122.71C140.909 128.86 140.289 137.46 140.339 144.2C140.261 150.455 141.826 156.62 144.879 162.08C144.999 162.3 145.419 162.22 145.329 161.94Z" fill="#263238"/>
</svg>
