<svg width="640" height="606" viewBox="0 0 640 606" fill="none" xmlns="http://www.w3.org/2000/svg">
<path d="M105.9 567.461C-2.97985 543.556 -2.97985 504.798 105.9 480.907C214.781 457.016 391.245 457.003 500.114 480.907C608.982 504.812 608.97 543.57 500.114 567.474C391.258 591.379 214.757 591.365 105.9 567.461Z" fill="#FAFAFA"/>
<path d="M280.444 583.517C331.778 583.517 373.393 559.49 373.393 529.85C373.393 500.21 331.778 476.183 280.444 476.183C229.11 476.183 187.496 500.21 187.496 529.85C187.496 559.49 229.11 583.517 280.444 583.517Z" fill="#EBEBEB"/>
<path d="M415.425 518.203L422.006 514.409C439.204 504.471 439.204 488.375 422.006 478.437L392.47 461.384C375.271 451.458 347.383 451.458 330.185 461.384L323.604 465.19C306.406 475.116 306.406 491.224 323.604 501.15L353.14 518.203C370.339 528.129 398.227 528.129 415.425 518.203Z" fill="#EBEBEB"/>
<path d="M411.087 489.418L488.522 534.056C489.732 534.668 491.068 534.987 492.424 534.987C493.78 534.987 495.117 534.668 496.327 534.056L583.724 483.588C586.21 482.016 588.316 479.913 589.893 477.431L592.705 472.583C593.303 471.548 593.465 470.318 593.156 469.163C592.846 468.009 592.092 467.024 591.057 466.426L521.161 425.836C519.952 425.221 518.615 424.9 517.258 424.9C515.902 424.9 514.565 425.221 513.356 425.836L411.039 484.909C408.93 486.145 408.93 488.169 411.087 489.418Z" fill="#EBEBEB"/>
<path d="M92.1118 524.602C94.1509 524.633 96.1635 524.137 97.9537 523.16L198.453 465.129H198.55C199.461 464.645 200.227 463.927 200.77 463.05C201.313 462.173 201.613 461.167 201.64 460.136C201.588 459.08 201.256 458.057 200.679 457.171C200.102 456.285 199.3 455.569 198.356 455.094L132.108 416.758C130.306 415.811 128.301 415.317 126.266 415.317C124.231 415.317 122.226 415.811 120.424 416.758L19.9736 474.74C19.0288 475.217 18.2277 475.936 17.6526 476.824C17.0776 477.712 16.7492 478.737 16.7012 479.794C16.7316 480.785 17.0163 481.751 17.5278 482.6C18.0393 483.449 18.7605 484.153 19.6221 484.642L20.0342 484.909L70.211 513.888L86.3063 523.184C88.0878 524.147 90.0871 524.635 92.1118 524.602Z" fill="#EBEBEB"/>
<path d="M68.1983 247.248L70.7071 251.647L64.7683 255.029L62.2595 250.629C57.8478 252.375 52.6483 252.593 48.6245 248.011L55.1087 241.648C55.884 242.653 57.0097 243.328 58.2611 243.54C59.5124 243.751 60.7974 243.482 61.8595 242.788C63.823 241.661 64.6956 240.121 63.7018 238.364C62.1019 235.552 58.6235 237.334 54.1997 238.449C49.4486 239.661 44.5037 239.867 41.2555 234.098C38.2982 228.898 39.789 224.123 44.4552 220.475L41.9464 216.087L47.9336 212.67L50.4425 217.069C55.5329 215.154 59.9203 215.954 63.2897 219.299L57.1448 225.359C55.6904 223.662 53.5088 223.287 50.8667 224.79C48.2245 226.292 48.1033 227.844 48.8669 229.165C50.0789 231.334 52.2241 230.753 56.8297 229.468C61.6777 228.171 67.9559 226.571 71.701 233.104C74.7188 238.425 72.8887 243.479 68.1983 247.248Z" fill="#E0E0E0"/>
<path d="M109.2 211.542L103.212 210.585L103.806 206.949C100.934 205.943 97.7463 203.749 97.5039 199.047V198.477L105.152 197.714V198.38C105.133 199.136 105.404 199.87 105.909 200.433C106.413 200.996 107.113 201.346 107.867 201.41C109.236 201.628 110 201.253 110.157 200.295C110.363 198.986 109.163 198.417 106.848 197.459C106.315 197.241 105.77 197.011 105.212 196.756C101.988 195.241 98.825 193.023 99.6492 187.933C100.316 183.751 103.103 181.424 107.551 181.315L108.145 177.679L114.205 178.649L113.624 182.285C115.238 182.765 116.674 183.711 117.753 185.005C118.831 186.299 119.503 187.882 119.684 189.557L119.756 190.175L112.387 190.938V190.284C112.327 188.551 110.872 187.957 109.672 187.751C108.254 187.533 107.454 187.872 107.248 188.781C107.054 189.993 107.818 190.417 111.163 191.847C114.302 193.229 119.041 195.338 118.108 201.144C117.441 205.301 114.472 207.725 109.83 207.882L109.2 211.542ZM104.606 209.579L108.242 210.161L108.812 206.694H109.321C111.818 206.694 116.12 205.992 116.92 200.986C117.72 195.98 113.817 194.368 110.69 192.975C107.564 191.581 105.709 190.842 106.061 188.611C106.158 188.005 106.715 186.078 109.818 186.587C110.67 186.637 111.484 186.959 112.139 187.507C112.794 188.055 113.255 188.799 113.454 189.63L118.302 189.12C117.781 186.297 115.878 184.333 112.69 183.279L112.193 183.121L112.751 179.655L109.115 179.073L108.545 182.539H108.024C105.152 182.539 101.564 183.436 100.752 188.139C100.098 192.175 102.231 194.065 105.6 195.665C106.133 195.908 106.679 196.138 107.188 196.344C109.454 197.289 111.599 198.186 111.224 200.489C110.957 202.162 109.588 202.913 107.588 202.622C106.671 202.513 105.817 202.102 105.159 201.455C104.501 200.808 104.077 199.961 103.952 199.047L98.728 199.568C99.1522 203.446 102.146 205.179 104.643 205.967L105.14 206.125L104.606 209.579Z" fill="#E0E0E0"/>
<path d="M543.58 253.017L541.556 249.939C538.756 251.151 534.89 251.684 531.569 248.339L531.169 247.927L536.32 242.218L536.769 242.703C537.265 243.278 537.962 243.64 538.717 243.717C539.472 243.794 540.228 243.578 540.829 243.115C541.313 242.831 541.701 242.409 541.944 241.903C542.024 241.703 542.049 241.485 542.017 241.272C541.985 241.059 541.897 240.859 541.762 240.691C541.035 239.576 539.762 239.976 537.399 240.824C536.866 241.018 536.308 241.224 535.714 241.406C532.333 242.461 528.442 242.957 525.667 238.643C523.388 235.152 523.897 231.456 527.048 228.426L525.036 225.432L530.139 222.087L532.163 225.165C533.684 224.44 535.384 224.179 537.052 224.414C538.72 224.649 540.283 225.37 541.544 226.486L542.004 226.886L537.072 232.425L536.623 231.953C536.114 231.489 535.451 231.232 534.763 231.232C534.075 231.232 533.411 231.489 532.902 231.953C531.69 232.74 531.351 233.528 531.86 234.304C532.539 235.346 533.593 235.043 536.805 233.928C540.017 232.813 544.986 231.189 548.21 236.122C550.525 239.637 549.931 243.394 546.634 246.666L548.646 249.757L543.58 253.017ZM542.004 248.46L543.932 251.405L546.974 249.405L545.047 246.472L545.398 246.036C547.252 244.376 549.943 240.946 547.168 236.691C544.392 232.437 540.405 233.904 537.169 234.983C533.933 236.061 532.042 236.776 530.806 234.873C530.466 234.364 529.594 232.571 532.211 230.85C532.875 230.308 533.695 229.994 534.551 229.955C535.407 229.915 536.252 230.153 536.963 230.631L540.235 226.995C537.944 225.262 535.229 225.08 532.151 226.462L531.678 226.68L529.751 223.747L526.673 225.759L528.6 228.704L528.2 229.056C526.055 230.959 524.031 234.061 526.648 238.049C528.891 241.479 531.739 241.442 535.314 240.327C535.884 240.146 536.429 239.94 536.95 239.758C539.265 238.922 541.459 238.134 542.732 240.097C542.965 240.421 543.114 240.797 543.167 241.192C543.22 241.588 543.174 241.99 543.035 242.364C542.714 243.111 542.162 243.736 541.459 244.145C540.708 244.697 539.794 244.981 538.862 244.953C537.931 244.924 537.036 244.584 536.32 243.988L532.817 247.89C535.738 250.472 539.12 249.745 541.495 248.63L542.004 248.46Z" fill="#E0E0E0"/>
<path d="M139.379 254.762L138.736 257.635L134.858 256.774L135.488 253.89C132.907 252.92 130.568 250.981 130.64 247.43L135.937 247.212C135.874 247.943 136.089 248.672 136.538 249.253C136.987 249.834 137.637 250.226 138.361 250.351C139.645 250.642 140.627 250.351 140.882 249.139C141.282 247.296 139.088 246.715 136.749 245.503C134.41 244.291 132.022 242.339 132.858 238.558C133.622 235.164 136.143 233.71 139.573 233.928L140.215 231.056L144.142 231.928L143.5 234.801C144.799 235.202 145.943 235.992 146.778 237.065C147.612 238.139 148.097 239.442 148.166 240.8L143.136 241.018C143.136 239.721 142.372 238.703 140.639 238.316C138.906 237.928 138.215 238.558 138.058 239.418C137.743 240.849 138.894 241.43 141.379 242.679C143.863 243.927 147.317 245.781 146.36 250.084C145.56 253.526 142.797 254.993 139.379 254.762Z" fill="#E0E0E0"/>
<path d="M478.545 227.686L477.03 232.886L470.025 230.85L471.54 225.662C466.922 223.578 462.874 219.76 463.395 213.263L473.091 213.494C472.89 214.842 473.206 216.217 473.978 217.341C474.749 218.466 475.918 219.256 477.248 219.554C479.563 220.22 481.405 219.736 481.999 217.675C482.957 214.354 479.006 213.009 474.873 210.403C470.449 207.628 466.607 204.077 468.582 197.253C470.352 191.12 475.127 188.769 481.381 189.581L482.896 184.382L489.962 186.43L488.435 191.641C493.695 194.065 496.349 198.065 496.301 203.143L487.053 202.974C487.271 200.55 485.938 198.647 482.811 197.738C479.684 196.829 478.424 197.883 477.963 199.447C477.212 202.016 479.236 203.216 483.648 205.785C488.277 208.549 494.143 212.148 491.901 219.905C490.107 226.159 484.884 228.51 478.545 227.686Z" fill="#E0E0E0"/>
<path d="M568.864 201.301L569.857 204.489L565.555 205.822L564.561 202.634C561.482 203.131 558.101 202.525 556.162 198.998L561.24 195.835C561.6 196.589 562.228 197.181 563.002 197.495C563.775 197.809 564.638 197.822 565.421 197.532C566.852 197.083 567.627 196.211 567.239 194.95C566.609 192.914 564.112 193.556 561.107 193.641C557.895 193.714 554.695 193.181 553.398 188.999C552.186 185.242 553.871 182.37 557.398 180.697L556.416 177.51L560.755 176.164L561.737 179.352C565.288 178.843 567.991 179.982 569.688 182.612L564.84 185.666C564.137 184.357 562.791 183.812 560.864 184.454C558.937 185.097 558.658 186.018 558.961 186.987C559.446 188.551 560.901 188.49 564.04 188.308C567.179 188.127 571.615 188.03 573.081 192.793C574.305 196.586 572.415 199.568 568.864 201.301Z" fill="#E0E0E0"/>
<path d="M218.366 491.151L228.559 488.86C228.559 488.86 234.074 467.905 233.601 450.076C232.886 423.412 217.845 395.536 203.107 387.828C190.078 381.016 178.346 386.228 175.776 394.87C172.516 405.778 178.2 413.05 187.46 421.364C204.889 437.059 219.372 459.142 218.366 491.151Z" fill="#19B690"/>
<path opacity="0.2" d="M218.366 491.151L228.559 488.86C228.559 488.86 234.074 467.905 233.601 450.076C232.886 423.412 217.845 395.536 203.107 387.828C190.078 381.016 178.346 386.228 175.776 394.87C172.516 405.778 178.2 413.05 187.46 421.364C204.889 437.059 219.372 459.142 218.366 491.151Z" fill="white"/>
<path d="M226.051 487.224H225.954C225.72 487.13 225.525 486.958 225.404 486.737C225.282 486.516 225.241 486.26 225.287 486.012C228.705 445.507 215.385 413.353 193.775 400.033C193.552 399.893 193.393 399.67 193.334 399.413C193.275 399.156 193.32 398.887 193.46 398.663C193.528 398.553 193.617 398.457 193.723 398.382C193.828 398.306 193.947 398.252 194.073 398.223C194.199 398.194 194.33 398.19 194.458 398.211C194.585 398.233 194.708 398.279 194.817 398.348C217.106 412.068 230.644 443.374 227.214 486.582C227.181 486.701 227.124 486.812 227.047 486.909C226.97 487.006 226.875 487.086 226.767 487.146C226.658 487.206 226.539 487.244 226.416 487.257C226.294 487.27 226.169 487.259 226.051 487.224Z" fill="white"/>
<path d="M218.633 494.751C221.724 493.03 225.045 490.169 224.778 486.327C223.918 481.988 222.027 480.098 225.239 476.062C226.848 473.208 227.468 469.902 227.001 466.659C226.534 463.416 225.007 460.42 222.657 458.136C217.24 453.955 216.597 454.052 216.597 445.459C216.597 436.866 209.168 433.472 203.362 433.472C197.557 433.472 195.303 433.399 191.46 431.981C184.722 429.812 178.965 424.794 171.959 423.849C167.245 423.279 160.748 424.321 158.712 429.133C156.918 434.696 162.469 438.829 165.596 442.586C166.996 444.085 167.833 446.022 167.966 448.068C168.098 450.114 167.518 452.143 166.324 453.809C164.615 457.53 164.578 462.427 167.536 465.263C171.256 468.899 177.607 467.565 181.995 470.28C189.57 474.728 174.456 491.927 195.909 492.024C199.242 492.024 203.35 491.745 206.223 493.769C209.216 499.09 214.113 497.587 218.633 494.751Z" fill="#19B690"/>
<path opacity="0.4" d="M218.633 494.751C221.724 493.03 225.045 490.169 224.778 486.327C223.918 481.988 222.027 480.098 225.239 476.062C226.848 473.208 227.468 469.902 227.001 466.659C226.534 463.416 225.007 460.42 222.657 458.136C217.24 453.955 216.597 454.052 216.597 445.459C216.597 436.866 209.168 433.472 203.362 433.472C197.557 433.472 195.303 433.399 191.46 431.981C184.722 429.812 178.965 424.794 171.959 423.849C167.245 423.279 160.748 424.321 158.712 429.133C156.918 434.696 162.469 438.829 165.596 442.586C166.996 444.085 167.833 446.022 167.966 448.068C168.098 450.114 167.518 452.143 166.324 453.809C164.615 457.53 164.578 462.427 167.536 465.263C171.256 468.899 177.607 467.565 181.995 470.28C189.57 474.728 174.456 491.927 195.909 492.024C199.242 492.024 203.35 491.745 206.223 493.769C209.216 499.09 214.113 497.587 218.633 494.751Z" fill="white"/>
<path d="M218.065 494.908C217.886 494.86 217.724 494.761 217.6 494.623C217.475 494.486 217.392 494.315 217.362 494.132C212.938 469.432 195.618 447.095 168.591 431.254C168.391 431.111 168.252 430.899 168.201 430.658C168.15 430.418 168.191 430.168 168.316 429.956C168.441 429.745 168.64 429.588 168.875 429.516C169.11 429.444 169.363 429.463 169.585 429.569C197.109 445.701 214.756 468.511 219.277 493.805C219.299 493.931 219.297 494.06 219.27 494.185C219.242 494.31 219.19 494.428 219.117 494.533C219.044 494.637 218.951 494.727 218.843 494.795C218.735 494.864 218.615 494.91 218.489 494.932C218.347 494.955 218.203 494.947 218.065 494.908Z" fill="white"/>
<path d="M353.419 406.614C353.363 406.401 353.265 406.201 353.13 406.028C352.995 405.854 352.825 405.71 352.632 405.605C352.439 405.499 352.227 405.434 352.008 405.414C351.788 405.394 351.568 405.418 351.358 405.487C349.842 406.217 348.192 406.63 346.51 406.699C344.872 406.73 343.249 406.377 341.771 405.668C340.314 404.866 339.08 403.711 338.182 402.31C337.285 400.909 336.752 399.305 336.633 397.645C336.506 395.917 336.69 394.181 337.178 392.518C339.545 393.683 342.226 394.051 344.819 393.566C347.412 393.081 349.778 391.769 351.564 389.828C354.085 386.895 353.479 383.271 349.746 381.78C347.704 381.069 345.531 380.809 343.378 381.018C341.225 381.227 339.143 381.901 337.275 382.992C336.923 383.225 336.583 383.476 336.257 383.743C336.352 381.728 337.011 379.78 338.16 378.121C339.308 376.462 340.9 375.16 342.753 374.363C343.299 374.108 343.771 373.466 343.105 373.393C338.984 372.884 335.615 375.526 333.869 379.041C333.108 380.366 332.634 381.836 332.477 383.356C332.321 384.876 332.485 386.412 332.96 387.864C332.023 389.632 331.361 391.532 330.997 393.5C330.345 397.24 330.888 401.091 332.548 404.505C334.706 408.226 337.942 411.232 344.195 412.153C347.553 412.674 355.213 411.656 353.419 406.614ZM346.001 385.416C347.722 385.416 349.286 386.095 348.207 387.549C347.472 388.421 346.506 389.068 345.42 389.416C343.279 390.06 340.971 389.833 338.996 388.785C339.811 387.706 340.871 386.837 342.09 386.251C343.309 385.665 344.65 385.379 346.001 385.416Z" fill="#F28F8F"/>
<path opacity="0.1" d="M332.961 387.84C332.238 389.189 331.684 390.622 331.312 392.106C332.673 393.763 334.574 394.888 336.682 395.282C336.768 394.313 336.947 393.356 337.215 392.421C335.287 391.463 333.774 389.834 332.961 387.84Z" fill="black"/>
<path opacity="0.1" d="M338.973 388.785C339.179 388.506 339.401 388.238 339.639 387.985C338.854 387.546 338.156 386.967 337.579 386.277C336.901 385.588 336.442 384.716 336.258 383.768C336.264 384.763 336.514 385.741 336.988 386.616C337.461 387.491 338.143 388.236 338.973 388.785Z" fill="black"/>
<path d="M392.966 487.903C392.966 487.903 392.966 487.83 392.966 487.794V487.685C393.294 485.188 391.815 482.631 388.506 480.728C382.507 477.261 372.75 477.261 366.763 480.728C363.466 482.631 361.988 485.188 362.315 487.685V487.794L355.928 486.969L357.406 488.509C361.343 492.666 363.94 497.91 364.86 503.562L365.721 508.955V509.04C365.958 509.942 366.389 510.78 366.983 511.498C367.577 512.216 368.321 512.796 369.163 513.197C371.782 514.53 374.678 515.224 377.616 515.224C380.555 515.224 383.451 514.53 386.07 513.197C386.91 512.796 387.653 512.216 388.245 511.498C388.838 510.78 389.266 509.941 389.5 509.04V508.955L392.966 487.903Z" fill="#F28F8F"/>
<path d="M360.814 469.335C360.814 469.335 360.814 469.262 360.814 469.226V469.117C361.141 466.62 359.601 464.147 356.353 462.16C354.051 460.766 342.076 460.766 335.143 460.766C331.023 460.766 328.756 460.342 329.083 462.839V462.984L324.502 457.348C328.091 464.446 330.568 472.053 331.847 479.903L333.568 490.424C333.802 491.328 334.232 492.169 334.827 492.89C335.421 493.61 336.167 494.191 337.01 494.593C339.63 495.92 342.526 496.611 345.464 496.611C348.401 496.611 351.297 495.92 353.917 494.593C354.759 494.191 355.503 493.61 356.095 492.889C356.688 492.169 357.115 491.327 357.347 490.424V490.351L360.814 469.335Z" fill="#F28F8F"/>
<path d="M396.543 475.892C396.543 475.892 396.543 475.819 396.543 475.783V475.674C396.216 473.177 397.755 470.692 401.003 468.717C403.306 467.311 415.281 467.311 422.213 467.311C426.334 467.311 428.601 466.899 428.273 469.395V469.504C428.273 469.504 428.273 469.577 428.273 469.601L423.74 496.92V496.981C423.503 497.882 423.073 498.721 422.478 499.439C421.884 500.157 421.14 500.737 420.298 501.138C417.68 502.47 414.783 503.165 411.845 503.165C408.906 503.165 406.01 502.47 403.391 501.138C402.551 500.737 401.809 500.157 401.216 499.439C400.624 498.72 400.195 497.882 399.961 496.981V496.92L396.543 475.892Z" fill="#F28F8F"/>
<path d="M393.44 398.166C386.351 395.005 378.694 393.315 370.933 393.197C357.937 393.197 345.473 398.36 336.284 407.549C327.094 416.739 321.932 429.202 321.932 442.198C321.932 460.196 332.5 474.631 346.172 484.448C352.95 489.04 360.028 493.174 367.357 496.823C375.429 500.859 383.113 503.55 392.155 503.55C398.59 503.551 404.962 502.285 410.908 499.824C416.854 497.363 422.256 493.755 426.808 489.206C431.359 484.657 434.97 479.256 437.434 473.312C439.898 467.367 441.167 460.995 441.168 454.561C441.168 436.999 431.715 422.285 418.455 412.71C410.613 407.056 402.234 402.184 393.44 398.166Z" fill="#FFA8A7"/>
<path opacity="0.2" d="M352.195 477.14C333.288 461.857 321.895 428.018 337.07 406.844C332.278 411.41 328.464 416.903 325.862 422.99C323.26 429.076 321.922 435.628 321.932 442.247C321.932 460.245 332.5 474.68 346.172 484.497C352.95 489.088 360.028 493.222 367.357 496.871C375.429 500.907 383.113 503.598 392.155 503.598C399.077 503.607 405.921 502.145 412.235 499.31C418.55 496.475 424.19 492.33 428.782 487.151C401.245 506.895 371.115 492.423 352.195 477.14Z" fill="#F28F8F"/>
<path d="M403.27 414.892L410.832 419.267C418.395 417.086 427.449 418.407 433.23 428.175C433.23 428.175 435.206 405.293 432.285 398.978L430.091 397.706C428.727 397.09 427.196 396.945 425.74 397.294C416.395 398.93 407.972 406.687 403.27 414.892Z" fill="#F28F8F"/>
<path d="M410.869 419.267C420.662 416.746 428.128 419.813 433.267 428.175C433.267 428.175 441.86 395.294 427.886 398.518C418.396 400.699 410.869 419.267 410.869 419.267Z" fill="#FFA8A7"/>
<path opacity="0.5" d="M410.869 419.267C420.662 416.746 428.128 419.813 433.267 428.175C433.267 428.175 441.86 395.294 427.886 398.518C418.396 400.699 410.869 419.267 410.869 419.267Z" fill="#F28F8F"/>
<path d="M425.012 415.995C415.91 412.65 410.832 419.267 410.832 419.267C420.625 416.746 428.091 419.813 433.23 428.175C433.395 425.523 432.679 422.89 431.193 420.687C429.707 418.484 427.534 416.834 425.012 415.995Z" fill="#F28F8F"/>
<path d="M395.695 428.006C386.175 436.601 378.901 447.394 374.509 459.445L367.237 455.3C364.522 452.537 357.456 429.096 371.091 420.358C380.218 414.504 395.695 428.006 395.695 428.006Z" fill="#F28F8F"/>
<path d="M395.693 428.006C386.182 436.609 378.91 447.4 374.507 459.445C374.507 459.445 359.285 433.108 373.004 421.449C381.004 414.637 395.693 428.006 395.693 428.006Z" fill="#FFA8A7"/>
<path opacity="0.5" d="M395.693 428.006C386.182 436.609 378.91 447.4 374.507 459.445C374.507 459.445 359.285 433.108 373.004 421.449C381.004 414.637 395.693 428.006 395.693 428.006Z" fill="#F28F8F"/>
<path d="M395.694 428.006C395.694 428.006 387.368 428.006 380.193 437.835C373.49 447.022 374.508 459.445 374.508 459.445C378.911 447.4 386.183 436.609 395.694 428.006Z" fill="#F28F8F"/>
<path d="M431.994 452.609C429.061 450.925 424.904 451.215 420.286 453.821C411.414 458.948 404.215 470.935 404.215 480.582C404.215 485.188 405.851 488.424 408.53 489.999C409.826 490.763 414.893 493.635 416.201 494.423C419.135 496.084 423.267 495.793 427.849 493.139C436.733 488.012 443.932 476.037 443.932 466.39C443.932 461.784 442.296 458.548 439.617 456.972C438.32 456.257 433.279 453.349 431.994 452.609Z" fill="#F28F8F"/>
<path d="M427.835 458.245C436.707 453.118 443.906 456.779 443.906 466.438C443.906 476.098 436.707 488.06 427.823 493.187C418.939 498.314 411.752 494.641 411.752 484.994C411.752 475.346 418.975 463.372 427.835 458.245Z" fill="#FFA8A7"/>
<path opacity="0.3" d="M415.001 491.914C410.941 486.327 413.559 474.619 418.068 467.517C414.238 472.91 411.777 479.358 411.777 484.994C411.777 494.69 418.977 498.326 427.848 493.187C430.892 491.366 433.595 489.028 435.836 486.279C430.26 492.981 419.352 497.89 415.001 491.914Z" fill="white"/>
<path d="M422.176 476.049C423.752 475.14 425.012 475.88 425.012 477.685C424.96 478.671 424.676 479.63 424.184 480.486C423.691 481.341 423.003 482.067 422.176 482.606C420.612 483.503 419.34 482.776 419.34 480.958C419.394 479.975 419.68 479.018 420.172 478.165C420.665 477.313 421.351 476.588 422.176 476.049Z" fill="#F28F8F"/>
<path opacity="0.15" d="M423.121 476.595C423.128 476.295 423.087 475.997 423 475.71C422.71 475.782 422.432 475.896 422.176 476.049C421.351 476.588 420.665 477.313 420.172 478.165C419.68 479.018 419.394 479.975 419.34 480.958C419.339 481.257 419.379 481.555 419.461 481.843C419.752 481.775 420.031 481.66 420.285 481.503C421.112 480.968 421.801 480.244 422.294 479.39C422.787 478.537 423.07 477.579 423.121 476.595Z" fill="black"/>
<path d="M433.533 469.492C435.097 468.596 436.369 469.323 436.369 471.141C436.306 472.114 436.016 473.058 435.524 473.9C435.032 474.741 434.35 475.456 433.533 475.989C431.958 476.898 430.697 476.158 430.697 474.353C430.758 473.377 431.047 472.43 431.539 471.586C432.032 470.742 432.714 470.025 433.533 469.492Z" fill="#F28F8F"/>
<path opacity="0.15" d="M434.477 470.038C434.478 469.743 434.437 469.449 434.356 469.165C434.067 469.234 433.789 469.344 433.532 469.492C432.705 470.031 432.017 470.758 431.525 471.613C431.032 472.468 430.748 473.427 430.696 474.413C430.689 474.709 430.73 475.003 430.817 475.286C431.108 475.224 431.387 475.113 431.641 474.959C432.467 474.418 433.154 473.691 433.646 472.836C434.139 471.982 434.424 471.023 434.477 470.038Z" fill="black"/>
<path d="M403.269 456.391C403.271 457.142 403.05 457.877 402.635 458.503C402.219 459.128 401.626 459.617 400.933 459.905C400.239 460.194 399.475 460.27 398.738 460.124C398.001 459.978 397.324 459.616 396.793 459.085C396.262 458.554 395.9 457.877 395.754 457.14C395.608 456.403 395.684 455.639 395.973 454.945C396.261 454.252 396.749 453.659 397.375 453.244C398.001 452.828 398.736 452.607 399.487 452.609C400.49 452.609 401.452 453.008 402.161 453.717C402.87 454.426 403.269 455.388 403.269 456.391Z" fill="#37474F"/>
<path d="M431.642 443.289C431.644 444.04 431.424 444.774 431.008 445.4C430.593 446.025 430.001 446.513 429.308 446.802C428.615 447.091 427.852 447.168 427.116 447.023C426.379 446.878 425.702 446.518 425.17 445.988C424.638 445.458 424.276 444.782 424.128 444.046C423.981 443.309 424.056 442.546 424.342 441.852C424.629 441.158 425.115 440.565 425.739 440.148C426.363 439.73 427.097 439.508 427.848 439.508C428.852 439.508 429.815 439.906 430.526 440.614C431.237 441.323 431.639 442.285 431.642 443.289Z" fill="#37474F"/>
<path d="M386.241 415.995L369.225 406.165L373.006 403.972L390.022 413.801L386.241 415.995Z" fill="#F28F8F"/>
<path opacity="0.1" d="M373.006 403.972V406.165L388.132 414.892L390.022 413.801L373.006 403.972Z" fill="black"/>
<path opacity="0.2" d="M373.006 403.972V406.165L371.115 407.256L369.225 406.165L373.006 403.972Z" fill="black"/>
<path d="M381.417 383.077C381.061 383.064 380.724 382.912 380.479 382.654C380.235 382.395 380.101 382.051 380.108 381.695L380.435 368.678C380.475 368.342 380.639 368.032 380.895 367.811C381.151 367.589 381.481 367.471 381.819 367.48C382.158 367.49 382.481 367.625 382.725 367.86C382.969 368.095 383.116 368.413 383.138 368.751L382.798 381.78C382.794 381.956 382.754 382.13 382.682 382.29C382.61 382.451 382.506 382.596 382.378 382.717C382.249 382.837 382.098 382.931 381.933 382.993C381.768 383.055 381.593 383.083 381.417 383.077Z" fill="#E0E0E0"/>
<path d="M367.454 384.786C367.218 384.764 366.992 384.68 366.8 384.541C366.608 384.402 366.457 384.215 366.363 383.998L361.006 372.084C360.902 371.922 360.834 371.739 360.806 371.548C360.779 371.357 360.793 371.162 360.848 370.977C360.903 370.792 360.996 370.621 361.123 370.475C361.249 370.33 361.406 370.213 361.581 370.133C361.757 370.053 361.947 370.012 362.14 370.012C362.333 370.013 362.524 370.055 362.699 370.135C362.874 370.215 363.03 370.332 363.156 370.478C363.283 370.624 363.376 370.796 363.43 370.981L368.787 382.846C368.86 383.008 368.9 383.182 368.905 383.359C368.91 383.536 368.881 383.713 368.818 383.878C368.754 384.044 368.659 384.195 368.538 384.324C368.416 384.453 368.27 384.556 368.108 384.628C367.906 384.734 367.681 384.788 367.454 384.786Z" fill="#E0E0E0"/>
<path d="M404.069 394.215C403.834 394.234 403.597 394.19 403.384 394.088C403.172 393.986 402.99 393.829 402.857 393.633C402.657 393.336 402.584 392.971 402.652 392.619C402.72 392.267 402.924 391.956 403.221 391.755L414.02 384.483C414.316 384.297 414.672 384.234 415.014 384.306C415.355 384.378 415.655 384.581 415.851 384.87C416.046 385.16 416.121 385.514 416.059 385.858C415.998 386.202 415.806 386.508 415.523 386.713L404.724 393.985C404.53 394.119 404.304 394.198 404.069 394.215Z" fill="#E0E0E0"/>
<path d="M395.113 386.325C394.875 386.341 394.637 386.295 394.422 386.192C394.103 386.035 393.859 385.758 393.743 385.422C393.627 385.086 393.649 384.718 393.804 384.398L399.489 372.678C399.649 372.356 399.931 372.112 400.272 371.998C400.613 371.885 400.985 371.911 401.307 372.072C401.628 372.233 401.872 372.514 401.986 372.855C402.1 373.196 402.073 373.568 401.913 373.89L396.228 385.61C396.119 385.814 395.959 385.988 395.764 386.113C395.569 386.238 395.345 386.311 395.113 386.325Z" fill="#E0E0E0"/>
<path d="M224.681 496.714C226.05 477.855 223.929 463.384 225.493 433.932C225.638 426.382 225.917 418.285 226.414 411.098C228.123 386.919 231.844 378.653 232.195 373.987C232.195 373.987 232.838 336.415 234.413 283.45C235.152 258.568 242.364 251.029 248.133 237.819H318.138C325.798 270.409 326.465 341.505 326.234 375.102C326.125 392.227 319.205 483.867 319.071 485.976C318.574 493.454 319.229 496.399 322.162 499.55C328.295 506.131 337.191 512.397 344.887 518.142C343.772 521.087 334.524 520.978 329.943 518.736C323.947 515.606 318.236 511.956 312.878 507.828C306.551 503.15 298.479 499.344 298.334 492.278C298.301 491.849 298.232 491.423 298.128 491.005C298.007 486.848 288.311 425.557 287.511 411.329C286.82 399.099 288.311 378.35 288.311 378.35L280.409 326.537C280.409 326.537 275.561 357.164 270.628 378.071C266.628 395.039 260.023 424.127 255.502 445.071C251.175 469.202 244.812 486.376 243.721 498.459C243.382 501.332 240.085 529.644 238.776 536.128C237.467 542.612 223.287 542.782 222.39 531.632C221.796 524.239 224.414 500.277 224.681 496.714Z" fill="#B16668"/>
<path d="M357.977 525.669C358.365 525.669 358.995 529.959 356.899 531.814C354.475 533.959 347.312 537.51 337.785 536.383C328.259 535.256 323.084 532.371 319.242 529.22C315.4 526.069 310.019 521.645 305.704 520.736C301.704 519.9 297.341 518.142 296.008 516.918C294.675 515.694 294.796 510.203 294.796 510.203L357.977 525.669Z" fill="#263238"/>
<path d="M297.958 489.018C297.958 489.018 297.243 489.018 297.013 490.327C296.734 491.842 296.468 496.241 295.862 498.738C295.025 502.204 294.516 509.282 295.074 512.07C295.631 514.858 302.164 516.76 306.345 518.3C311.267 520.39 315.844 523.214 319.92 526.675C324.428 530.311 333.87 533.947 340.075 533.947C349.529 533.947 355.637 531.341 357.492 527.887C359.783 523.657 357.928 521.233 346.996 516.312C344.923 515.379 337.651 511.185 335.167 509.658C332.538 508.055 330.045 506.239 327.713 504.228C326.532 503.211 325.411 502.127 324.356 500.98C323.259 499.961 322.319 498.785 321.568 497.49C321.435 497.211 321.35 496.872 321.241 496.581C320.923 495.755 320.676 494.903 320.502 494.035C320.32 493.139 320.186 491.817 319.29 491.284C318.057 490.786 316.71 490.639 315.399 490.86C313.987 490.971 312.586 491.186 311.206 491.502C309.618 491.878 307.763 492.048 306.83 493.551C306.21 494.772 305.918 496.133 305.982 497.502C305.982 498.144 305.982 498.774 305.982 499.417C305.982 499.683 306.103 500.168 305.715 500.059C305.327 499.95 304.94 499.017 304.806 498.689C304.491 497.987 304.297 497.223 303.958 496.532C303.588 495.717 303.124 494.949 302.576 494.241C302.063 493.599 301.477 493.017 300.831 492.508C300.182 492.147 299.558 491.742 298.964 491.296C298.42 490.647 298.071 489.857 297.958 489.018Z" fill="#37474F"/>
<path d="M348.765 517.172C335.069 518.263 330.852 526.771 330.318 532.019C333.432 533.157 336.702 533.811 340.014 533.959C349.468 533.959 355.964 531.353 357.819 527.899C360.049 523.948 358.51 520.76 348.765 517.172Z" fill="#FAFAFA"/>
<path d="M328.223 517.524C328.069 517.524 327.92 517.473 327.799 517.379C327.73 517.323 327.672 517.255 327.63 517.177C327.588 517.099 327.561 517.014 327.552 516.926C327.543 516.838 327.552 516.749 327.578 516.665C327.603 516.58 327.645 516.501 327.702 516.433C329.285 514.776 331.203 513.476 333.329 512.619C335.454 511.762 337.738 511.368 340.028 511.464C340.117 511.471 340.203 511.497 340.282 511.538C340.361 511.58 340.431 511.637 340.487 511.706C340.544 511.775 340.586 511.854 340.611 511.94C340.636 512.025 340.644 512.115 340.634 512.203C340.626 512.29 340.601 512.375 340.561 512.453C340.52 512.53 340.464 512.599 340.396 512.654C340.328 512.709 340.25 512.751 340.166 512.775C340.082 512.8 339.994 512.807 339.907 512.797C337.834 512.736 335.772 513.106 333.85 513.884C331.929 514.663 330.19 515.832 328.744 517.318C328.678 517.389 328.597 517.444 328.507 517.48C328.417 517.515 328.32 517.53 328.223 517.524Z" fill="#F0F0F0"/>
<path d="M322.284 514.167C322.159 514.163 322.037 514.126 321.932 514.058C321.827 513.989 321.743 513.894 321.689 513.781C321.635 513.668 321.614 513.542 321.627 513.418C321.64 513.294 321.687 513.175 321.763 513.076C323.338 511.406 325.254 510.094 327.381 509.228C329.507 508.362 331.795 507.963 334.089 508.058C334.265 508.074 334.429 508.16 334.542 508.296C334.656 508.433 334.711 508.609 334.695 508.786C334.679 508.962 334.593 509.125 334.457 509.239C334.32 509.353 334.144 509.408 333.967 509.392C331.895 509.327 329.831 509.696 327.909 510.474C325.987 511.253 324.249 512.424 322.805 513.912C322.74 513.988 322.66 514.049 322.57 514.093C322.481 514.136 322.383 514.162 322.284 514.167Z" fill="#F0F0F0"/>
<path d="M316.78 510.252C316.703 510.258 316.626 510.248 316.553 510.223C316.48 510.198 316.413 510.158 316.356 510.107C316.286 510.053 316.228 509.987 316.185 509.91C316.142 509.834 316.114 509.75 316.104 509.663C316.094 509.576 316.101 509.488 316.126 509.404C316.15 509.32 316.192 509.241 316.247 509.173C317.829 507.511 319.749 506.206 321.877 505.347C324.005 504.488 326.292 504.094 328.585 504.192C328.762 504.21 328.924 504.297 329.037 504.434C329.149 504.572 329.203 504.748 329.185 504.925C329.167 505.102 329.08 505.265 328.943 505.377C328.805 505.49 328.629 505.543 328.452 505.525C326.379 505.462 324.316 505.832 322.395 506.61C320.473 507.389 318.734 508.559 317.289 510.046C317.225 510.116 317.146 510.171 317.058 510.206C316.97 510.242 316.875 510.257 316.78 510.252Z" fill="#F0F0F0"/>
<path d="M311.374 506.422C311.226 506.427 311.08 506.38 310.962 506.289C310.825 506.177 310.735 506.016 310.713 505.84C310.69 505.664 310.736 505.486 310.841 505.343C313.435 501.998 319.325 499.756 324.319 500.253C324.406 500.262 324.491 500.288 324.569 500.329C324.646 500.371 324.715 500.427 324.77 500.495C324.826 500.563 324.868 500.642 324.893 500.726C324.919 500.81 324.927 500.899 324.919 500.986C324.91 501.074 324.884 501.159 324.842 501.236C324.801 501.314 324.744 501.382 324.676 501.438C324.608 501.494 324.53 501.536 324.446 501.561C324.361 501.586 324.273 501.595 324.185 501.586C319.701 501.138 314.198 503.198 311.896 506.168C311.835 506.249 311.757 506.314 311.666 506.358C311.575 506.403 311.475 506.424 311.374 506.422Z" fill="#F0F0F0"/>
<path d="M243.249 541.207C242.873 547.666 241.867 551.945 239.613 555.751C237.359 559.556 232.995 560.732 228.608 559.617C224.221 558.502 218.621 555.544 217.361 549.921C216.1 544.297 215.373 540.528 216.367 534.541L243.249 541.207Z" fill="#263238"/>
<path d="M224.826 494.411C223.02 494.557 222.499 503.234 221.457 511.912C220.342 521.233 217.554 525.075 216.609 532.71C215.47 541.437 216.912 545.339 219.966 550.612C223.02 555.884 233.844 561.059 239.176 553.496C243.527 547.339 243.709 540.516 243.309 531.801C243.079 524.439 243.273 517.07 243.891 509.731C244.242 503.198 245.685 496.617 244.121 495.89C244 496.847 243.879 498.071 243.758 499.005C243.694 500.187 243.495 501.358 243.164 502.495C242.982 502.98 242.582 503.489 242.424 502.701C242.333 502.164 242.333 501.615 242.424 501.077C242.679 498.653 241.467 498.471 240.813 498.29C238.05 497.73 235.258 497.326 232.45 497.078C231.068 496.981 226.305 496.775 225.687 497.562C225.286 498.342 225.078 499.207 225.081 500.083C224.923 501.392 224.62 502.35 224.584 501.938C224.499 501.004 224.681 498.556 224.705 497.974C224.729 497.393 224.826 496.629 224.826 496.059C224.826 495.49 224.79 494.969 224.826 494.411Z" fill="#37474F"/>
<path d="M216.063 537.764C215.736 542.431 216.917 547.08 219.433 551.024C222.487 556.296 234.183 561.483 239.516 553.932C242.17 550.175 242.873 545.727 243.248 541.194C240.049 535.377 221.105 532.807 216.063 537.764Z" fill="#FAFAFA"/>
<path d="M239.31 531.717C239.234 531.729 239.156 531.729 239.08 531.717C239.007 531.717 230.656 528.226 222.536 530.105C222.45 530.126 222.36 530.13 222.273 530.117C222.185 530.104 222.101 530.073 222.025 530.027C221.95 529.98 221.884 529.919 221.832 529.848C221.781 529.776 221.744 529.694 221.724 529.608C221.704 529.522 221.702 529.433 221.717 529.346C221.732 529.259 221.764 529.176 221.811 529.101C221.859 529.027 221.92 528.963 221.993 528.912C222.065 528.862 222.147 528.826 222.233 528.808C230.826 526.82 239.346 530.359 239.661 530.505C239.741 530.542 239.813 530.595 239.873 530.661C239.932 530.727 239.978 530.803 240.007 530.887C240.036 530.97 240.049 531.059 240.043 531.147C240.038 531.236 240.015 531.322 239.976 531.401C239.908 531.513 239.808 531.602 239.69 531.657C239.571 531.713 239.44 531.734 239.31 531.717Z" fill="#F0F0F0"/>
<path d="M222.936 523.584C222.783 523.57 222.641 523.503 222.531 523.396C222.422 523.288 222.353 523.147 222.336 522.995C222.319 522.843 222.355 522.689 222.438 522.56C222.52 522.431 222.645 522.335 222.79 522.287C230.874 519.536 239.855 523.657 240.195 523.839C240.273 523.878 240.342 523.933 240.399 524C240.455 524.067 240.498 524.144 240.524 524.228C240.55 524.312 240.559 524.4 240.55 524.487C240.541 524.574 240.515 524.659 240.473 524.735C240.391 524.891 240.25 525.007 240.082 525.06C239.914 525.112 239.733 525.095 239.577 525.014C239.504 525.014 230.741 520.99 223.215 523.548C223.126 523.583 223.03 523.596 222.936 523.584Z" fill="#F0F0F0"/>
<path d="M223.215 517.415C223.091 517.402 222.972 517.354 222.874 517.277C222.775 517.2 222.7 517.096 222.658 516.979C222.599 516.811 222.608 516.628 222.682 516.467C222.757 516.306 222.892 516.181 223.058 516.118C231.966 512.93 240.486 517.427 240.801 517.621C240.876 517.667 240.942 517.727 240.993 517.798C241.045 517.87 241.082 517.95 241.102 518.036C241.123 518.122 241.126 518.211 241.112 518.297C241.097 518.384 241.066 518.467 241.02 518.542C240.975 518.617 240.916 518.682 240.845 518.733C240.775 518.785 240.696 518.822 240.611 518.842C240.526 518.862 240.438 518.866 240.352 518.852C240.267 518.838 240.184 518.806 240.111 518.76C240.038 518.76 231.796 514.421 223.518 517.379C223.422 517.414 223.318 517.427 223.215 517.415Z" fill="#F0F0F0"/>
<path d="M223.663 511.379C223.514 511.363 223.375 511.298 223.268 511.194C223.161 511.089 223.092 510.952 223.072 510.804C223.053 510.655 223.083 510.505 223.16 510.376C223.236 510.248 223.353 510.148 223.493 510.094C231.831 506.968 241.006 511.573 241.358 511.779C241.51 511.868 241.621 512.013 241.667 512.184C241.712 512.354 241.688 512.535 241.6 512.688C241.558 512.766 241.499 512.835 241.429 512.89C241.359 512.945 241.278 512.985 241.192 513.008C241.106 513.031 241.016 513.036 240.927 513.022C240.839 513.009 240.755 512.978 240.679 512.93C240.606 512.93 231.71 508.446 223.966 511.343C223.869 511.379 223.765 511.391 223.663 511.379Z" fill="#EBEBEB"/>
<path d="M246.302 237.819C238.182 252.617 232.158 264.931 231.334 308.927C230.51 352.922 230.655 365.26 230.473 370.569C230.292 375.878 227.213 385.355 224.51 411.498C221.808 437.641 225.007 468.777 225.007 468.777C225.007 468.777 226.874 472.983 236.873 473.88C246.084 474.704 250.653 471.238 250.653 471.238C250.653 471.238 263.294 420.334 266.797 404.578C270.3 388.822 280.444 337.069 280.444 337.069L286.504 379.053C286.504 379.053 283.692 393.476 286.504 416.395C289.316 439.314 294.273 462.79 294.273 462.79C298.822 464.378 303.612 465.161 308.429 465.105C312.79 465.182 317.088 464.058 320.852 461.857C320.852 461.857 328.694 393.67 328.694 367.684C328.694 341.699 328.003 276.251 319.822 237.794L246.302 237.819Z" fill="#19B690"/>
<path opacity="0.5" d="M246.302 237.819C238.182 252.617 232.158 264.931 231.334 308.927C230.51 352.922 230.655 365.26 230.473 370.569C230.292 375.878 227.213 385.355 224.51 411.498C221.808 437.641 225.007 468.777 225.007 468.777C225.007 468.777 226.874 472.983 236.873 473.88C246.084 474.704 250.653 471.238 250.653 471.238C250.653 471.238 263.294 420.334 266.797 404.578C270.3 388.822 280.444 337.069 280.444 337.069L286.504 379.053C286.504 379.053 283.692 393.476 286.504 416.395C289.316 439.314 294.273 462.79 294.273 462.79C298.822 464.378 303.612 465.161 308.429 465.105C312.79 465.182 317.088 464.058 320.852 461.857C320.852 461.857 328.694 393.67 328.694 367.684C328.694 341.699 328.003 276.251 319.822 237.794L246.302 237.819Z" fill="white"/>
<path opacity="0.5" d="M288.686 287.135L280.445 337.094L286.505 379.077L283.947 336.536L291.292 295.546C297.558 294.043 311.811 286.529 315.738 275.803C306.054 285.899 288.686 287.135 288.686 287.135ZM259.368 257.938C260.471 253.732 261.634 249.563 263.004 245.357C260.705 249.122 258.812 253.12 257.356 257.283C255.869 261.424 254.615 265.644 253.599 269.924C252.605 274.203 251.793 278.53 251.175 282.881C250.545 287.231 250.253 291.624 250.302 296.019C251.357 291.753 252.326 287.535 253.296 283.269C254.265 279.002 255.223 274.785 256.253 270.567C257.283 266.349 258.326 262.131 259.368 257.938ZM253.078 254.787C254.484 252.217 255.914 249.648 257.211 246.945C255.026 248.979 253.034 251.21 251.26 253.611C249.473 256.001 247.853 258.512 246.412 261.125C244.992 263.747 243.776 266.474 242.776 269.282C241.737 272.094 241.061 275.026 240.764 278.009L244.763 270.143C246.121 267.561 247.466 264.992 248.872 262.446C250.278 259.901 251.708 257.356 253.114 254.787H253.078ZM247.854 421.594C245.43 435.128 243.176 448.69 241.091 462.281C244.226 448.892 247.187 435.472 249.975 422.018C252.811 408.553 255.477 395.124 258.12 381.586C260.544 368.012 262.252 354.328 263.586 340.645C264.919 326.961 265.925 313.241 266.761 299.522C264.858 313.132 263.125 326.779 261.44 340.402C259.756 354.025 257.901 367.624 255.38 381.077C252.859 394.53 250.29 408.068 247.89 421.594H247.854ZM318.901 353.262C319.168 359.213 319.532 365.212 319.435 371.102C319.338 376.993 318.938 383.016 318.647 388.979L317.738 406.905C317.132 418.855 316.659 430.817 316.32 442.792C317.726 430.89 318.938 418.976 319.956 407.05C320.938 395.1 321.847 383.198 322.259 371.139C322.259 359.019 321.192 347.129 320.125 335.191C319.059 323.252 317.58 311.351 315.738 299.522L317.98 335.348C318.283 341.323 318.671 347.286 318.938 353.262H318.901Z" fill="#19B690"/>
<path d="M304.211 165.45C316.598 166.662 321.918 174.334 327.239 181.739C332.087 188.454 348.631 209.834 348.631 209.834C350.946 208.379 369.853 196.271 374.604 191.302C379.634 186.042 378.41 183.133 378.894 179.182C379.379 175.231 381.149 172.286 381.088 165.971C381.088 162.953 384.191 163.971 385.27 165.862C387.439 169.668 386.385 175.982 388.118 175.885C390.141 174.82 391.897 173.312 393.257 171.474C396.99 167.001 398.165 162.638 401.365 157.802C402.577 155.948 404.189 153.936 406.686 154.3C406.843 154.3 407.279 154.457 407.437 154.506C407.607 154.573 407.754 154.69 407.857 154.841C407.961 154.992 408.017 155.171 408.019 155.354C408.007 156.04 407.922 156.723 407.764 157.39C407.655 157.863 407.243 159.233 407.243 159.233C407.243 159.233 409.461 159.851 409.667 160.857C409.949 162.409 409.723 164.011 409.025 165.426C409.885 166.202 411.146 168.068 409.231 171.486C410.043 171.946 411.57 174.589 409.497 179.243C407.536 183.516 405.096 187.554 402.225 191.278C397.826 196.744 394.032 198.55 388.312 204.077C382.591 209.603 371.841 222.038 362.387 230.51C351.479 240.352 347.225 242.739 338.498 236.498C333.978 233.249 305.617 203.531 305.617 203.531L304.211 165.45Z" fill="#B16668"/>
<path d="M390.058 177.51C392.131 181.036 391.21 187.508 385.756 191.787C391.743 189.981 394.87 181.63 390.058 177.51Z" fill="#9A4A4D"/>
<path d="M233.818 266.967C236.521 253.284 240.121 241.515 240.327 234.958C240.763 221.19 237.479 210.718 236.315 203.046C233.806 186.224 235.648 171.353 239.575 168.032C239.575 168.032 250.98 165.402 254.713 164.735C257.671 164.202 259.949 163.85 263.852 162.905C270.415 161.249 277.226 160.814 283.947 161.62C285.777 161.814 292.176 163.014 295.473 163.79C298.091 164.396 304.187 165.45 304.187 165.45C307.993 170.065 311.33 175.046 314.15 180.321C318.416 187.945 321.907 193.508 322.44 208.597C323.276 232.522 324.064 253.126 324.973 265.804C307.75 276.397 256.046 279.972 233.818 266.967Z" fill="#37474F"/>
<path d="M254.145 100.026C244.315 102.038 242.182 117.564 247.757 127.151C256.993 142.992 266.071 145.331 267.234 152.882C277.73 145.452 288.044 137.732 298.613 130.423C305.582 127.381 313.933 120.897 310.272 112.365C312.587 116.17 318.756 113.904 318.102 109.504C317.979 110.085 317.683 110.614 317.254 111.024C316.824 111.433 316.281 111.704 315.696 111.799C315.11 111.895 314.509 111.811 313.972 111.56C313.434 111.308 312.986 110.9 312.684 110.389C311.472 108.244 312.272 105.541 312.684 103.117C313.896 96.4873 308.091 88.5729 301.085 88.985C286.832 78.2831 259.368 81.0949 254.145 100.026Z" fill="#263238"/>
<path d="M259.694 154.312C260.185 153.774 260.795 153.358 261.476 153.1C262.349 152.897 263.247 152.815 264.142 152.857C266.408 152.747 268.585 151.948 270.384 150.567C272.129 149.246 273.075 147.416 274.432 145.719C275.644 144.289 275.535 141.901 275.426 140.144C275.256 135.149 273.498 130.339 270.408 126.412C269.497 125.342 268.445 124.4 267.281 123.612C266.142 122.926 264.956 122.322 263.73 121.806C263.283 121.559 262.801 121.383 262.3 121.285C260.86 120.99 259.403 120.792 257.937 120.691C257.668 120.672 257.401 120.636 257.137 120.582C256.779 120.494 256.439 120.347 256.131 120.146C255.205 119.609 254.21 119.202 253.174 118.934C250.742 118.215 248.196 117.968 245.671 118.206C243.037 118.346 240.519 119.337 238.496 121.03C237.51 121.893 236.79 123.02 236.423 124.279C236.056 125.537 236.056 126.874 236.424 128.133C236.899 128.995 237.18 129.95 237.248 130.932C237.027 131.824 236.571 132.641 235.927 133.296C233.733 136.192 233.273 140.665 235.733 143.343C236.785 144.222 237.759 145.191 238.642 146.24C239.672 147.925 239.321 150.106 239.854 151.997C240.381 153.959 241.633 155.648 243.357 156.724C244.856 157.654 246.615 158.079 248.374 157.936C245.465 156.724 244.738 153.5 245.393 150.433C245.806 152.777 247.109 154.87 249.029 156.275C251.041 157.742 254.895 158.287 256.967 156.906C257.961 156.134 258.874 155.266 259.694 154.312Z" fill="#263238"/>
<path d="M264.361 157.79L263.803 142.337C262.361 143.118 260.695 143.382 259.081 143.087C257.468 142.791 256.004 141.954 254.931 140.713C249.926 135.708 249.344 130.145 251.974 126.533C254.871 122.545 261.452 123.927 264.373 128.678C268.663 129.636 270.299 123.479 266.942 117.273C266.942 117.273 275.584 112.037 273.778 102.899C281.232 107.407 298.454 109.298 302.43 101.566C304.854 105.105 308.223 109.238 308.49 128.605C308.744 146.288 305.351 150.53 300.563 152.736C297.715 154.057 294.2 154.445 288.746 154.057L289.061 158.627C289.195 160.917 289.473 162.36 291.413 162.784C293.352 163.208 296.345 163.996 296.345 163.996C296.345 163.996 302.248 169.741 288.092 171.825C266.966 174.94 255.671 164.553 255.671 164.553L260.628 163.438C264.361 162.626 264.542 160.614 264.361 157.79Z" fill="#B16668"/>
<path d="M257.126 138.653C257.141 139.077 257.281 139.488 257.529 139.832C257.777 140.177 258.122 140.44 258.52 140.588C258.918 140.737 259.351 140.764 259.764 140.666C260.178 140.568 260.553 140.35 260.842 140.039C261.131 139.727 261.321 139.337 261.388 138.918C261.455 138.499 261.397 138.069 261.219 137.683C261.042 137.297 260.754 136.973 260.392 136.75C260.03 136.528 259.611 136.418 259.186 136.435C258.62 136.46 258.087 136.707 257.702 137.122C257.316 137.537 257.109 138.087 257.126 138.653Z" fill="#19B690"/>
<path d="M283.147 137.61L290.832 139.95C290.699 140.463 290.464 140.945 290.141 141.366C289.819 141.787 289.415 142.139 288.954 142.402C288.493 142.664 287.984 142.831 287.457 142.893C286.93 142.954 286.396 142.91 285.887 142.761C284.853 142.424 283.989 141.699 283.479 140.738C282.968 139.778 282.849 138.657 283.147 137.61Z" fill="#9A4A4D"/>
<path d="M283.608 139.38C284.629 139.344 285.631 139.662 286.444 140.28C287.257 140.899 287.83 141.78 288.068 142.774C287.34 142.992 286.565 142.992 285.838 142.774C285.108 142.535 284.458 142.101 283.96 141.517C283.462 140.933 283.134 140.223 283.014 139.465C283.21 139.424 283.408 139.396 283.608 139.38Z" fill="#F28F8F"/>
<path d="M304.442 117.116L298.77 114.692C298.909 114.315 299.125 113.97 299.402 113.679C299.679 113.387 300.012 113.155 300.382 112.997C300.751 112.838 301.149 112.756 301.551 112.756C301.953 112.755 302.351 112.837 302.721 112.995C303.48 113.331 304.082 113.946 304.402 114.712C304.722 115.479 304.736 116.339 304.442 117.116Z" fill="#263238"/>
<path d="M277.354 118.849L282.796 115.782C282.609 115.421 282.352 115.102 282.038 114.844C281.724 114.586 281.361 114.394 280.971 114.281C280.581 114.168 280.172 114.135 279.769 114.185C279.366 114.234 278.977 114.366 278.626 114.57C277.912 114.99 277.384 115.665 277.148 116.459C276.911 117.253 276.985 118.107 277.354 118.849Z" fill="#263238"/>
<path d="M291.17 119.382L292.236 135.611L300.527 132.059L291.17 119.382Z" fill="#9A4A4D"/>
<path d="M298.346 122.157C298.309 122.845 298.541 123.519 298.994 124.038C299.447 124.556 300.084 124.877 300.77 124.933C301.102 124.975 301.44 124.948 301.762 124.853C302.084 124.758 302.382 124.597 302.639 124.38C302.895 124.164 303.104 123.896 303.251 123.595C303.399 123.294 303.482 122.965 303.497 122.63C303.537 121.942 303.305 121.266 302.852 120.747C302.399 120.228 301.76 119.907 301.073 119.855C300.74 119.812 300.402 119.84 300.08 119.935C299.758 120.03 299.46 120.191 299.204 120.407C298.947 120.624 298.739 120.891 298.591 121.192C298.443 121.494 298.36 121.822 298.346 122.157Z" fill="#263238"/>
<path d="M279.704 122.86C279.671 123.547 279.904 124.22 280.356 124.737C280.808 125.255 281.444 125.577 282.128 125.636C282.462 125.678 282.801 125.65 283.124 125.555C283.446 125.459 283.745 125.297 284.002 125.079C284.258 124.861 284.467 124.593 284.614 124.29C284.761 123.987 284.843 123.657 284.855 123.321C284.889 122.636 284.655 121.964 284.203 121.449C283.75 120.933 283.115 120.613 282.431 120.558C282.099 120.515 281.761 120.543 281.439 120.638C281.117 120.733 280.819 120.894 280.562 121.11C280.306 121.327 280.097 121.594 279.95 121.895C279.802 122.197 279.719 122.525 279.704 122.86Z" fill="#263238"/>
<path d="M288.747 154.057C278.954 153.197 269.549 150.118 267.295 145.682C267.295 145.682 267.295 150.53 271.319 152.833C276.93 156.033 288.99 157.512 288.99 157.512L288.747 154.057Z" fill="#9A4A4D"/>
<path d="M239.576 168.032C228.728 169.838 225.032 173.195 220.596 185C216.257 196.356 206.234 221.905 209.203 239.055C211.009 249.527 237.431 223.226 237.431 223.226L250.072 194.138C250.072 194.138 248.726 168.032 239.576 168.032Z" fill="#9A4A4D"/>
<path d="M242.582 182.418C244.909 179.134 247.309 175.764 248.533 170.868C249.757 165.971 253.611 161.463 254.92 159.608C256.229 157.754 259.077 155.027 261.247 152.421C263.416 149.815 264.047 149.1 267.161 148.567C271.428 147.84 274.785 147.173 276.457 147.682C278.13 148.191 278.081 149.294 276.627 150.773C275.173 152.251 272.118 152.615 271.161 152.906C270.203 153.197 268.131 154.118 268.131 154.118L264.216 159.984C264.216 159.984 270.931 161.196 272.252 161.947C273.573 162.699 274.676 166.068 274.106 168.007C274.106 168.007 276.53 169.68 275.609 172.104C275.609 172.104 277.112 174.055 276.082 175.667C274.924 177.295 273.582 178.784 272.082 180.103C271.27 180.818 268.034 180.988 268.034 180.988C266.609 183.16 264.906 185.137 262.968 186.866C260.665 188.575 259.162 188.466 256.629 192.041L242.582 182.418Z" fill="#B16668"/>
<path d="M267.186 160.529C268.773 159.851 269.125 158.772 270.628 159.317C272.13 159.863 271.561 161.596 271.561 161.596L267.186 160.529Z" fill="#9A4A4D"/>
<path d="M274.021 168.032C273.024 167.193 271.925 166.485 270.749 165.923C269.658 165.39 267.355 164.578 267.355 164.578C268.956 164.716 270.528 165.087 272.022 165.68C272.783 165.984 273.517 166.353 274.215 166.783C274.222 167.157 274.169 167.529 274.058 167.886L274.021 168.032Z" fill="#9A4A4D"/>
<path d="M274.226 170.298C274.761 170.52 275.279 170.779 275.777 171.074C275.738 171.444 275.648 171.807 275.511 172.152C274.638 170.94 271.293 169.522 271.293 169.522C272.296 169.672 273.28 169.932 274.226 170.298Z" fill="#9A4A4D"/>
<path d="M267.379 181.8C268.3 179.94 269.4 178.174 270.663 176.528C271.069 176.074 271.632 175.789 272.238 175.731C272.844 175.672 273.451 175.844 273.936 176.213C274.36 176.855 272.178 176.77 271.512 177.049C269.906 178.419 268.513 180.02 267.379 181.8Z" fill="#9A4A4D"/>
<path d="M262.324 159.754C262.324 159.754 263.536 158.021 265.754 155.257C267.972 152.494 267.827 152.906 269.96 152.482C272.093 152.058 276.141 151.342 277.232 150.058C277.044 150.312 276.838 150.551 276.614 150.773C275.208 152.203 272.105 152.615 271.148 152.906C270.19 153.197 268.118 154.118 268.118 154.118L264.045 160.178L262.324 159.754Z" fill="#9A4A4D"/>
<path d="M242.583 182.418C235.408 191.072 216.064 211.894 211.592 220.184C208.489 225.917 207.713 239.237 210.877 244.085C214.04 248.933 222.997 246.897 230.366 240.449C236.68 234.91 241.94 221.578 246.522 212.088C251.103 202.598 256.581 191.896 256.581 191.896L242.583 182.418Z" fill="#B16668"/>
<path d="M242.582 182.418C244.218 180.225 245.647 177.883 246.848 175.425C247.422 174.185 247.892 172.9 248.254 171.583C248.564 170.243 249.002 168.936 249.563 167.68C250.766 165.21 252.233 162.877 253.938 160.723C255.559 158.51 257.338 156.416 259.259 154.457C260.192 153.451 261.053 152.409 261.938 151.355C262.763 150.215 263.905 149.342 265.222 148.846C266.555 148.496 267.907 148.22 269.27 148.022C270.616 147.791 271.973 147.561 273.343 147.416C274.034 147.327 274.731 147.298 275.427 147.331C276.157 147.324 276.87 147.549 277.463 147.973C277.623 148.101 277.748 148.266 277.826 148.455C277.905 148.643 277.934 148.849 277.912 149.052C277.849 149.425 277.699 149.777 277.476 150.082C277.081 150.677 276.559 151.178 275.948 151.548C274.72 152.21 273.395 152.672 272.022 152.918C270.709 153.253 269.43 153.712 268.204 154.288L268.301 154.215L264.325 160.032L264.204 159.742C266.628 160.226 269.052 160.687 271.476 161.414C271.79 161.501 272.091 161.627 272.373 161.79C272.65 161.972 272.889 162.207 273.076 162.481C273.439 163.004 273.728 163.575 273.936 164.178C274.396 165.375 274.497 166.681 274.227 167.935L274.167 167.753C274.827 168.236 275.35 168.884 275.682 169.632C275.853 170.012 275.94 170.426 275.936 170.844C275.94 171.259 275.862 171.671 275.706 172.056V171.91C276.092 172.382 276.353 172.944 276.466 173.543C276.578 174.142 276.537 174.76 276.348 175.34C275.731 176.35 274.999 177.285 274.167 178.128C273.767 178.552 273.355 178.976 272.955 179.34C272.558 179.797 272.066 180.161 271.512 180.406C270.38 180.731 269.212 180.918 268.034 180.964H268.131C267.367 182.079 266.555 183.145 265.707 184.176C264.865 185.221 263.896 186.158 262.822 186.963C261.732 187.763 260.471 188.26 259.392 189.06C258.323 189.869 257.394 190.847 256.641 191.957C257.386 190.839 258.302 189.845 259.356 189.011C260.435 188.199 261.683 187.678 262.75 186.878C263.802 186.06 264.751 185.116 265.574 184.066C266.422 183.036 267.21 181.945 267.998 180.843H268.058C269.213 180.794 270.357 180.603 271.464 180.273C271.982 180.042 272.441 179.698 272.809 179.267C273.221 178.855 273.621 178.443 274.021 178.055C274.827 177.227 275.539 176.313 276.142 175.328C276.31 174.795 276.341 174.228 276.233 173.68C276.125 173.131 275.881 172.619 275.524 172.189V172.128V172.043C275.668 171.698 275.742 171.327 275.742 170.953C275.742 170.578 275.668 170.207 275.524 169.862C275.202 169.172 274.71 168.576 274.094 168.129L274.009 168.068V167.959C274.254 166.771 274.149 165.537 273.706 164.408C273.294 163.281 272.712 162.093 271.464 161.863C269.069 161.199 266.642 160.656 264.192 160.239L263.913 160.178L264.071 159.948L268.01 154.106C269.257 153.506 270.56 153.031 271.9 152.688C273.23 152.46 274.514 152.022 275.706 151.391C276.264 151.047 276.744 150.588 277.112 150.046C277.488 149.524 277.682 148.834 277.173 148.47C276.154 147.706 274.664 147.876 273.343 147.973C272.022 148.07 270.64 148.349 269.295 148.567C267.946 148.751 266.61 149.018 265.295 149.367C264.025 149.841 262.928 150.685 262.144 151.791C261.259 152.821 260.374 153.888 259.441 154.881C257.518 156.825 255.736 158.903 254.108 161.099C252.403 163.234 250.932 165.546 249.721 167.995C249.19 169.162 248.768 170.375 248.46 171.619C248.082 172.939 247.591 174.225 246.994 175.461C245.739 177.91 244.262 180.239 242.582 182.418Z" fill="#9A4A4D"/>
<path d="M343.346 63.5694L341.152 58.988L350.751 53.4613C351.888 52.7926 353.112 52.2828 354.387 51.9463C354.83 51.8238 355.279 51.7267 355.733 51.6554C357.974 51.289 360.265 51.3506 362.484 51.8372C363.302 52.0134 364.111 52.2318 364.908 52.4917C365.76 52.7713 366.597 53.095 367.416 53.4613C368.526 53.9478 369.606 54.4982 370.652 55.1096C371.814 55.7894 372.938 56.5297 374.022 57.3276C374.858 57.9336 375.67 58.5396 376.446 59.2668C388.36 69.3143 397.728 87.2398 400.104 104.474C400.274 105.686 400.407 106.814 400.492 107.977C400.637 109.65 400.71 111.298 400.698 112.934C400.698 114.267 400.637 115.564 400.54 116.813C400.443 118.061 400.334 118.946 400.177 119.952C400.019 120.958 399.825 121.927 399.607 122.873C399.029 125.455 398.09 127.944 396.82 130.266C396.565 130.726 396.298 131.163 396.02 131.599C394.884 133.369 393.443 134.924 391.765 136.192C391.269 136.568 390.746 136.908 390.202 137.211L381.136 142.446L379.124 138.265C378.591 138.144 378.058 137.998 377.512 137.841C375.304 137.16 373.185 136.22 371.198 135.041C369.923 134.301 368.689 133.491 367.501 132.617C365.898 131.423 364.375 130.123 362.944 128.727C352.994 119.164 345.164 104.196 342.34 89.3002C341.92 87.0782 341.605 84.8723 341.395 82.6826C341.237 80.8646 341.152 79.0466 341.152 77.2529C341.151 74.674 341.366 72.0996 341.795 69.5567C342.129 67.518 342.649 65.514 343.346 63.5694Z" fill="#19B690"/>
<path opacity="0.25" d="M397.96 94.2815L378.495 105.517L375.926 98.172L395.415 86.9246C396.384 89.3244 397.233 91.7767 397.96 94.2815Z" fill="white"/>
<path opacity="0.25" d="M350.751 53.4613C351.888 52.7926 353.112 52.2828 354.387 51.9463C354.83 51.8238 355.279 51.7267 355.733 51.6554C357.974 51.289 360.265 51.3506 362.484 51.8372L363.368 52.0433L343.346 63.6179L341.152 59.0365L350.751 53.4613Z" fill="white"/>
<path opacity="0.25" d="M352.837 81.8827L350.268 78.78L379.453 61.9696C380.386 62.8907 381.283 63.8603 382.18 64.8663L352.837 81.8827Z" fill="white"/>
<path opacity="0.25" d="M388.384 73.1442L363.102 87.7488L360.314 80.4768L383.864 66.8903C385.482 68.8918 386.991 70.9795 388.384 73.1442Z" fill="white"/>
<path opacity="0.4" d="M350.752 53.4613C351.889 52.7926 353.113 52.2828 354.388 51.9463C354.831 51.8238 355.28 51.7267 355.734 51.6554C357.975 51.289 360.266 51.3506 362.484 51.8372C363.303 52.0134 364.112 52.2318 364.908 52.4917C365.761 52.7713 366.598 53.095 367.417 53.4613C368.527 53.9478 369.607 54.4982 370.653 55.1096C371.815 55.7894 372.939 56.5297 374.023 57.3276C374.859 57.9336 375.671 58.5396 376.447 59.2668C387.549 68.6234 396.432 84.8158 399.475 100.923L358.861 124.375C350.491 114.221 344.784 102.141 342.256 89.2275C341.836 87.0054 341.521 84.7996 341.311 82.6099C341.153 80.7919 341.068 78.9739 341.068 77.1802C341.067 74.6013 341.282 72.0269 341.711 69.484C342.048 67.4576 342.567 65.4659 343.262 63.533L341.068 58.9517L350.752 53.4613Z" fill="white"/>
<path opacity="0.1" d="M381.173 142.446L379.161 138.265C378.628 138.144 378.095 137.998 377.55 137.841C375.342 137.16 373.222 136.22 371.235 135.041C369.96 134.301 368.726 133.491 367.538 132.617C365.935 131.423 364.412 130.123 362.981 128.727C361.563 127.359 360.215 125.919 358.945 124.412L399.559 100.96C399.79 102.172 399.984 103.384 400.141 104.511C400.299 105.638 400.444 106.85 400.529 108.013C400.674 109.686 400.747 111.334 400.735 112.971C400.735 114.304 400.674 115.601 400.578 116.849C400.481 118.097 400.371 118.982 400.214 119.988C400.056 120.994 399.862 121.964 399.644 122.909C399.066 125.492 398.127 127.98 396.857 130.302C396.602 130.763 396.336 131.199 396.057 131.635C394.921 133.405 393.481 134.961 391.803 136.229C391.306 136.604 390.783 136.944 390.239 137.247L381.173 142.446Z" fill="black"/>
<path opacity="0.1" d="M396.857 130.266C396.602 130.726 396.336 131.163 396.057 131.599C394.921 133.369 393.481 134.924 391.803 136.192C391.306 136.568 390.783 136.908 390.239 137.211L381.173 142.446L379.162 138.265H379.089L378.943 136.544L399.111 124.836C398.562 126.723 397.806 128.544 396.857 130.266Z" fill="black"/>
<path d="M330.875 83.1432C330.875 84.9248 330.948 86.7792 331.117 88.573C331.318 90.793 331.629 93.0016 332.051 95.1905C334.923 110.086 342.753 125.054 352.655 134.617C354.092 136.003 355.614 137.298 357.212 138.495C358.402 139.372 359.64 140.181 360.92 140.919C362.909 142.096 365.028 143.035 367.235 143.719C369.402 144.393 371.67 144.688 373.937 144.592C376.976 144.448 379.902 143.397 382.336 141.574C384.01 140.305 385.447 138.75 386.578 136.98C386.857 136.556 387.124 136.108 387.378 135.659C388.647 133.337 389.585 130.848 390.166 128.266C390.396 127.333 390.578 126.363 390.736 125.357C390.893 124.351 391.014 123.297 391.099 122.218C391.184 121.139 391.257 119.673 391.257 118.328C391.257 116.703 391.196 115.043 391.051 113.383C390.966 112.171 390.833 111.056 390.675 109.88C388.251 92.6453 378.919 74.7319 367.005 64.6723C366.205 63.9815 365.381 63.3391 364.581 62.721C363.478 61.9211 362.351 61.1818 361.211 60.5152C360.166 59.8998 359.085 59.3454 357.975 58.8547C357.156 58.4922 356.319 58.1726 355.466 57.8972C354.674 57.6263 353.864 57.4077 353.042 57.2428C350.825 56.7462 348.534 56.6804 346.292 57.0488C345.831 57.1337 345.383 57.2306 344.946 57.3518C343.03 57.8618 341.233 58.7475 339.662 59.9576C337.076 62.0199 335.05 64.6999 333.772 67.7508C332.701 70.1948 331.943 72.7644 331.517 75.3985C331.093 77.9583 330.878 80.5485 330.875 83.1432Z" fill="#19B690"/>
<path opacity="0.1" d="M330.875 83.1432C330.875 84.9248 330.948 86.7792 331.117 88.573C331.318 90.793 331.629 93.0016 332.051 95.1905C334.923 110.086 342.753 125.054 352.655 134.617C354.092 136.003 355.614 137.298 357.212 138.495C358.402 139.372 359.64 140.181 360.92 140.919C362.909 142.096 365.028 143.035 367.235 143.719C369.402 144.393 371.67 144.688 373.937 144.592C376.976 144.448 379.902 143.397 382.336 141.574C384.01 140.305 385.447 138.75 386.578 136.98C386.857 136.556 387.124 136.108 387.378 135.659C388.647 133.337 389.585 130.848 390.166 128.266C390.396 127.333 390.578 126.363 390.736 125.357C390.893 124.351 391.014 123.297 391.099 122.218C391.184 121.139 391.257 119.673 391.257 118.328C391.257 116.703 391.196 115.043 391.051 113.383C390.966 112.171 390.833 111.056 390.675 109.88C388.251 92.6453 378.919 74.7319 367.005 64.6723C366.205 63.9815 365.381 63.3391 364.581 62.721C363.478 61.9211 362.351 61.1818 361.211 60.5152C360.166 59.8998 359.085 59.3454 357.975 58.8547C357.156 58.4922 356.319 58.1726 355.466 57.8972C354.674 57.6263 353.864 57.4077 353.042 57.2428C350.825 56.7462 348.534 56.6804 346.292 57.0488C345.831 57.1337 345.383 57.2306 344.946 57.3518C343.03 57.8618 341.233 58.7475 339.662 59.9576C337.076 62.0199 335.05 64.6999 333.772 67.7508C332.701 70.1948 331.943 72.7644 331.517 75.3985C331.093 77.9583 330.878 80.5485 330.875 83.1432Z" fill="white"/>
<path opacity="0.05" d="M390.129 106.329C390.359 107.541 390.565 108.753 390.735 109.965C390.905 111.177 391.026 112.304 391.111 113.467C391.256 115.128 391.329 116.788 391.317 118.412C391.317 119.758 391.256 121.055 391.159 122.303C391.062 123.551 390.953 124.424 390.795 125.442C390.638 126.46 390.456 127.418 390.226 128.351C389.645 130.933 388.707 133.421 387.438 135.744C387.184 136.192 386.917 136.641 386.638 137.065C385.506 138.834 384.07 140.39 382.396 141.659C379.961 143.482 377.036 144.533 373.997 144.676C371.729 144.773 369.462 144.478 367.295 143.804C365.088 143.12 362.969 142.18 360.98 141.004C359.865 140.35 358.762 139.61 357.684 138.822L390.129 106.329Z" fill="black"/>
<path opacity="0.05" d="M389.669 130.399C389.116 132.243 388.369 134.022 387.439 135.708C387.184 136.156 386.918 136.605 386.639 137.029C385.507 138.798 384.071 140.353 382.397 141.622C380.402 143.119 378.065 144.094 375.598 144.458L389.669 130.399Z" fill="black"/>
<path opacity="0.25" d="M386.009 92.3181C386.978 94.7421 387.823 97.2137 388.542 99.7234L353.2 135.065L352.715 134.617C351.194 133.133 349.75 131.571 348.389 129.939L386.009 92.3181Z" fill="white"/>
<path opacity="0.25" d="M374.507 72.3079C376.13 74.3146 377.639 76.4106 379.027 78.5861L340.122 117.491C338.805 115.116 337.634 112.668 336.607 110.147L374.507 72.3079Z" fill="white"/>
<path opacity="0.25" d="M370.034 67.4236C370.967 68.3447 371.889 69.3264 372.785 70.3445L335.589 107.541C335.068 106.147 334.571 104.741 334.135 103.323L370.034 67.4236Z" fill="white"/>
<path opacity="0.25" d="M330.984 80.4525C330.984 79.7375 331.081 79.0345 331.154 78.3437C331.154 78.1134 331.154 77.8831 331.227 77.6528C331.3 77.4225 331.227 77.1802 331.312 76.9499C331.372 76.4408 331.445 75.9318 331.53 75.4349C331.956 72.8008 332.713 70.2312 333.784 67.7872C335.062 64.7363 337.088 62.0562 339.674 59.994C341.246 58.7839 343.042 57.8981 344.959 57.3882C345.395 57.267 345.843 57.17 346.304 57.0852C348.546 56.7167 350.838 56.7826 353.055 57.2791L353.952 57.4852L330.984 80.4525Z" fill="white"/>
<path d="M338.596 87.7609C338.596 103.662 347.868 122.024 359.6 129.829C360.097 130.157 360.606 130.484 361.115 130.775C373.55 137.95 383.621 130.339 383.621 113.807C383.621 97.2751 373.55 77.9195 361.175 70.7445C360.666 70.4536 360.157 70.1869 359.66 69.9324C347.843 64.236 338.596 71.8595 338.596 87.7609Z" fill="#19B690"/>
<path opacity="0.4" d="M338.596 87.7609C338.596 103.662 347.868 122.024 359.6 129.829C360.097 130.157 360.606 130.484 361.115 130.775C373.55 137.95 383.621 130.339 383.621 113.807C383.621 97.2751 373.55 77.9195 361.175 70.7445C360.666 70.4536 360.157 70.1869 359.66 69.9324C347.843 64.236 338.596 71.8595 338.596 87.7609Z" fill="black"/>
<path d="M339.601 88.3427C339.601 88.8517 339.601 89.3729 339.601 89.8819C340.159 104.705 348.8 121.321 359.636 128.533L359.926 128.727C360.302 128.981 360.69 129.211 361.078 129.442C363.151 130.677 365.443 131.5 367.829 131.866C370.196 132.232 372.618 131.844 374.752 130.756C376.887 129.668 378.624 127.936 379.718 125.806C381.41 122.642 382.363 119.137 382.506 115.552C382.506 114.776 382.579 113.976 382.579 113.128C382.579 112.28 382.579 111.601 382.518 110.837C382.417 109.213 382.235 107.595 381.973 105.989C380.07 94.5481 373.961 82.8644 366.217 75.847C365.133 74.8724 363.988 73.9696 362.787 73.1442C362.229 72.7564 361.672 72.4049 361.102 72.0776C360.532 71.7504 360.132 71.5444 359.66 71.3141L359.248 71.1202C356.507 69.7179 353.392 69.2214 350.352 69.7021C345.831 70.5748 342.34 74.1865 340.656 79.9556C339.913 82.6881 339.558 85.5114 339.601 88.3427Z" fill="#19B690"/>
<path opacity="0.5" d="M339.601 88.3427C339.601 88.8517 339.601 89.3729 339.601 89.8819C340.159 104.705 348.8 121.321 359.636 128.533L359.926 128.727C360.302 128.981 360.69 129.211 361.078 129.442C363.151 130.677 365.443 131.5 367.829 131.866C370.196 132.232 372.618 131.844 374.752 130.756C376.887 129.668 378.624 127.936 379.718 125.806C381.41 122.642 382.363 119.137 382.506 115.552C382.506 114.776 382.579 113.976 382.579 113.128C382.579 112.28 382.579 111.601 382.518 110.837C382.417 109.213 382.235 107.595 381.973 105.989C380.07 94.5481 373.961 82.8644 366.217 75.847C365.133 74.8724 363.988 73.9696 362.787 73.1442C362.229 72.7564 361.672 72.4049 361.102 72.0776C360.532 71.7504 360.132 71.5444 359.66 71.3141L359.248 71.1202C356.507 69.7179 353.392 69.2214 350.352 69.7021C345.831 70.5748 342.34 74.1865 340.656 79.9556C339.913 82.6881 339.558 85.5114 339.601 88.3427Z" fill="black"/>
<path d="M343.201 87.8094C343.201 87.2882 343.201 86.7792 343.201 86.2702C343.17 83.4332 343.537 80.6059 344.292 77.871C345.051 74.8878 346.659 72.189 348.922 70.1021C349.405 69.9361 349.899 69.8025 350.4 69.7021C353.441 69.2214 356.556 69.7179 359.296 71.1202L359.709 71.3141C360.181 71.5444 360.666 71.7989 361.151 72.0776C361.636 72.3564 362.278 72.7564 362.835 73.1442C364.036 73.9696 365.182 74.8724 366.265 75.847C374.034 82.8644 380.143 94.5481 382.021 105.989C382.284 107.595 382.466 109.213 382.567 110.837C382.567 111.601 382.627 112.365 382.627 113.128C382.627 113.892 382.627 114.764 382.555 115.552C382.412 119.137 381.459 122.642 379.767 125.806C379.022 127.119 378.064 128.298 376.931 129.296C375.169 129.89 373.292 130.056 371.453 129.781C369.063 129.419 366.766 128.596 364.69 127.357C364.302 127.139 363.926 126.909 363.538 126.654L363.248 126.46C352.4 119.249 343.771 102.632 343.201 87.8094Z" fill="#19B690"/>
<path opacity="0.25" d="M343.201 87.8094C343.201 87.2882 343.201 86.7792 343.201 86.2702C343.17 83.4332 343.537 80.6059 344.292 77.871C345.051 74.8878 346.659 72.189 348.922 70.1021C349.405 69.9361 349.899 69.8025 350.4 69.7021C353.441 69.2214 356.556 69.7179 359.296 71.1202L359.709 71.3141C360.181 71.5444 360.666 71.7989 361.151 72.0776C361.636 72.3564 362.278 72.7564 362.835 73.1442C364.036 73.9696 365.182 74.8724 366.265 75.847C374.034 82.8644 380.143 94.5481 382.021 105.989C382.284 107.595 382.466 109.213 382.567 110.837C382.567 111.601 382.627 112.365 382.627 113.128C382.627 113.892 382.627 114.764 382.555 115.552C382.412 119.137 381.459 122.642 379.767 125.806C379.022 127.119 378.064 128.298 376.931 129.296C375.169 129.89 373.292 130.056 371.453 129.781C369.063 129.419 366.766 128.596 364.69 127.357C364.302 127.139 363.926 126.909 363.538 126.654L363.248 126.46C352.4 119.249 343.771 102.632 343.201 87.8094Z" fill="black"/>
<path d="M346.305 57.0852C359.297 55.6187 369.878 66.3934 376.932 76.0651C387.125 91.0939 393.585 110.122 390.058 128.314C388.906 133.368 386.592 138.447 382.386 141.646C386.676 138.495 389.173 133.429 390.385 128.314C393.633 113.431 389.549 97.7842 382.737 84.4522C375.453 71.302 363.079 55.2914 346.305 57.0852Z" fill="#F5F5F5"/>
<path d="M377.197 113.395C376.979 107.613 373.973 103.565 370.422 100.208L372.082 100.596L376.93 97.7599C376.717 96.6935 376.425 95.6442 376.057 94.6208C375.411 92.9018 374.548 91.2725 373.488 89.7729C371.764 87.3442 369.636 85.2289 367.198 83.5189L367.004 78.4164L360.944 74.9016L356.023 77.7377V79.0345V79.3133C355.602 79.4532 355.195 79.6359 354.811 79.8587L354.435 80.1253C353.866 80.5495 351.03 82.016 349.89 82.7069L349.527 82.9614C348.23 83.9189 347.527 85.749 347.636 88.5851C347.739 91.3745 348.575 94.0877 350.06 96.451C350.169 96.6449 350.315 96.8388 350.424 97.0327L350.836 97.6145L351.478 98.172L351.636 98.3659L351.939 98.7417C352.788 99.7654 353.699 100.737 354.666 101.65C355.09 102.05 355.526 102.45 355.963 102.862L353.72 102.305L348.8 105.141C350.21 110.545 353.496 115.27 358.071 118.473L358.265 123.563L364.41 126.957L369.331 124.121L369.27 122.533C369.615 122.443 369.946 122.305 370.252 122.121C371.003 121.636 374.288 119.83 375.1 119.297C376.579 118.303 377.306 116.352 377.197 113.395Z" fill="#19B690"/>
<path opacity="0.15" d="M350.268 82.5857C351.48 81.8464 354.049 80.5253 354.582 80.1617L354.958 79.895C355.34 79.6685 355.747 79.4855 356.17 79.3496L356.303 82.9856C355.427 82.3807 354.403 82.0241 353.341 81.9537C352.278 81.8833 351.216 82.1017 350.268 82.5857Z" fill="black"/>
<path opacity="0.45" d="M364.253 112.268C364.253 113.795 363.428 114.558 360.883 113.164C359.68 112.553 358.628 111.681 357.804 110.612C356.98 109.542 356.404 108.303 356.12 106.983L348.775 105.129L353.684 102.305L355.926 102.85C355.926 102.85 356.011 102.923 356.047 102.972C356.726 103.578 357.405 104.184 358.059 104.705C358.326 104.923 358.593 105.129 358.835 105.347C360.312 106.464 361.683 107.713 362.932 109.08C363.443 109.662 363.831 110.343 364.071 111.08C364.185 111.466 364.246 111.865 364.253 112.268Z" fill="black"/>
<path opacity="0.2" d="M369.235 122.509V124.097L364.327 126.921L364.133 121.842C365.722 122.593 367.507 122.826 369.235 122.509Z" fill="black"/>
<path opacity="0.15" d="M362.193 81.2767L356.133 77.7498L361.054 74.9137L367.114 78.4285L367.283 83.5189C369.729 85.2342 371.861 87.358 373.586 89.7971C374.644 91.2975 375.508 92.9266 376.155 94.6451C376.521 95.6689 376.813 96.7181 377.028 97.7842L372.083 100.596C371.866 99.5292 371.57 98.48 371.198 97.4569C370.558 95.7351 369.694 94.105 368.629 92.6089C366.92 90.1866 364.809 88.0754 362.387 86.3671L362.193 81.2767Z" fill="black"/>
<path opacity="0.2" d="M367.295 83.5189C369.413 84.7351 371.29 86.3289 372.834 88.2215C374.39 90.11 375.526 92.3079 376.167 94.6693C375.114 92.5107 373.821 90.4779 372.313 88.6093C371.573 87.6882 370.761 86.8156 369.889 85.955C369.016 85.0945 368.192 84.331 367.295 83.5189Z" fill="black"/>
<path opacity="0.35" d="M375.174 119.224C374.326 119.758 371.041 121.564 370.326 122.048C371.744 121.127 372.471 119.237 372.362 116.219C372.096 109.516 368.108 105.153 363.878 101.493C359.927 98.0993 356.437 95.9904 356.315 92.7544C356.243 90.7182 357.527 90.5485 359.564 91.6514C360.834 92.3882 361.927 93.3955 362.765 94.602C363.603 95.8085 364.165 97.1845 364.412 98.6326L370.472 100.196C374.011 103.553 377.016 107.601 377.222 113.37C377.319 116.413 376.58 118.303 375.174 119.224Z" fill="black"/>
<path d="M361.041 104.135L356.121 106.983L348.764 105.141L353.684 102.305L361.041 104.135Z" fill="#19B690"/>
<path opacity="0.15" d="M361.041 104.135L356.121 106.983L348.764 105.141L353.684 102.305L361.041 104.135Z" fill="black"/>
<path d="M364.376 126.921L364.182 121.842L369.236 122.497L369.296 124.085L364.376 126.921Z" fill="#19B690"/>
<path opacity="0.45" d="M364.376 126.921L364.182 121.842L369.236 122.497L369.296 124.085L364.376 126.921Z" fill="black"/>
<path d="M356.157 79.0466L356.291 82.9856C355.38 82.3552 354.309 81.9956 353.202 81.9484C352.096 81.9012 350.998 82.1684 350.037 82.719L349.673 82.9735C348.376 83.931 347.673 85.7611 347.783 88.5972C347.885 91.3866 348.721 94.0998 350.207 96.4631C350.316 96.657 350.461 96.8509 350.57 97.0448L350.982 97.6266L351.479 98.172L351.637 98.3659L351.94 98.7416C352.789 99.7653 353.7 100.737 354.667 101.65C355.127 102.087 355.6 102.523 356.085 102.935L358.097 104.668L358.884 105.311C360.347 106.44 361.702 107.702 362.933 109.08C363.442 109.664 363.829 110.344 364.072 111.08C364.18 111.451 364.245 111.833 364.266 112.219C364.266 113.746 363.442 114.522 360.884 113.116C359.68 112.506 358.627 111.634 357.803 110.565C356.978 109.495 356.404 108.255 356.121 106.935L348.764 105.093C350.174 110.496 353.461 115.222 358.036 118.425L358.23 123.515L364.375 126.909L364.181 121.83C366.738 122.836 368.823 122.945 370.241 122.073C371.659 121.152 372.386 119.249 372.265 116.243C372.023 109.553 368.023 105.177 363.781 101.517C359.83 98.1235 356.339 96.0268 356.218 92.7665C356.145 90.7424 357.43 90.5728 359.478 91.6878C360.748 92.4226 361.841 93.4279 362.679 94.6322C363.517 95.8366 364.079 97.2106 364.326 98.6568L372.083 100.596C371.865 99.5296 371.569 98.4805 371.198 97.4569C370.555 95.7389 369.696 94.1098 368.641 92.6089C366.91 90.1789 364.779 88.0602 362.339 86.3429L362.157 81.2525L356.097 77.7256L356.157 79.0466Z" fill="#19B690"/>
<path opacity="0.1" d="M356.157 79.0466L356.291 82.9856C355.38 82.3552 354.309 81.9956 353.202 81.9484C352.096 81.9012 350.998 82.1684 350.037 82.719L349.673 82.9735C348.376 83.931 347.673 85.7611 347.783 88.5972C347.885 91.3866 348.721 94.0998 350.207 96.4631C350.316 96.657 350.461 96.8509 350.57 97.0448L350.982 97.6266L351.479 98.172L351.637 98.3659L351.94 98.7416C352.789 99.7653 353.7 100.737 354.667 101.65C355.127 102.087 355.6 102.523 356.085 102.935L358.097 104.668L358.884 105.311C360.347 106.44 361.702 107.702 362.933 109.08C363.442 109.664 363.829 110.344 364.072 111.08C364.18 111.451 364.245 111.833 364.266 112.219C364.266 113.746 363.442 114.522 360.884 113.116C359.68 112.506 358.627 111.634 357.803 110.565C356.978 109.495 356.404 108.255 356.121 106.935L348.764 105.093C350.174 110.496 353.461 115.222 358.036 118.425L358.23 123.515L364.375 126.909L364.181 121.83C366.738 122.836 368.823 122.945 370.241 122.073C371.659 121.152 372.386 119.249 372.265 116.243C372.023 109.553 368.023 105.177 363.781 101.517C359.83 98.1235 356.339 96.0268 356.218 92.7665C356.145 90.7424 357.43 90.5728 359.478 91.6878C360.748 92.4226 361.841 93.4279 362.679 94.6322C363.517 95.8366 364.079 97.2106 364.326 98.6568L372.083 100.596C371.865 99.5296 371.569 98.4805 371.198 97.4569C370.555 95.7389 369.696 94.1098 368.641 92.6089C366.91 90.1789 364.779 88.0602 362.339 86.3429L362.157 81.2525L356.097 77.7256L356.157 79.0466Z" fill="white"/>
<path d="M372.277 116.231C372.126 113.784 371.44 111.401 370.265 109.25C369.07 107.123 367.549 105.196 365.756 103.541C364.023 101.82 362.12 100.317 360.218 98.6931C359.249 97.9234 358.353 97.0675 357.539 96.1358C356.722 95.1915 356.244 94.0013 356.182 92.7543C356.305 93.9794 356.829 95.1295 357.672 96.0267C358.492 96.9077 359.384 97.7185 360.339 98.4507C362.242 99.99 364.193 101.505 365.963 103.226C367.786 104.917 369.321 106.895 370.508 109.08C371.072 110.18 371.515 111.338 371.829 112.534C372.106 113.747 372.257 114.986 372.277 116.231Z" fill="white"/>
<path d="M362.205 81.2767L367.114 78.4285L367.308 83.531L362.387 86.3671L362.205 81.2767Z" fill="#19B690"/>
<path opacity="0.35" d="M362.205 81.2767L367.114 78.4285L367.308 83.531L362.387 86.3671L362.205 81.2767Z" fill="black"/>
<path d="M356.109 77.7498L361.636 81.5676L362.387 86.3671L362.206 81.2767L356.109 77.7498Z" fill="#FAFAFA"/>
<path d="M358.035 118.437L358.726 123.212L364.374 126.921L358.229 123.527L358.035 118.437Z" fill="#FAFAFA"/>
<path opacity="0.25" d="M348.764 105.141C349.01 106.072 349.314 106.987 349.673 107.88L351.685 105.868L348.764 105.141Z" fill="white"/>
<path opacity="0.25" d="M372.266 116.001C372.138 113.309 371.338 110.692 369.938 108.389L358.109 120.218L358.231 123.527L362.424 125.842L364.266 124L364.181 121.842C364.735 122.059 365.302 122.241 365.878 122.388L372.266 116.001Z" fill="white"/>
<path opacity="0.25" d="M347.844 89.6153C348.023 91.1659 348.431 92.6813 349.056 94.1118L361.976 81.204L358.34 79.1315L356.231 81.204L356.291 82.9614C355.913 82.7085 355.506 82.501 355.079 82.3433L347.844 89.6153Z" fill="white"/>
<path opacity="0.25" d="M350.654 97.1176L351.066 97.6994L351.478 98.172L351.636 98.366L351.939 98.7417C352.788 99.7654 353.699 100.737 354.666 101.65L355.32 102.244L359.598 97.9539C357.671 96.2692 356.338 94.7057 356.265 92.718C356.193 90.7303 357.477 90.5243 359.526 91.6393C360.862 92.3879 361.997 93.4482 362.835 94.73L367.064 90.5001C365.665 88.9516 364.095 87.5653 362.386 86.3671L362.313 84.4401L350.254 96.5601L350.605 97.1176H350.654Z" fill="white"/>
<path d="M236.583 101.154C236.49 101.388 236.351 101.602 236.175 101.782C235.998 101.963 235.788 102.107 235.556 102.206C235.324 102.305 235.075 102.357 234.823 102.36C234.57 102.362 234.32 102.315 234.086 102.22L216.839 95.2996C216.606 95.2057 216.392 95.0666 216.212 94.8903C216.032 94.714 215.888 94.504 215.789 94.2721C215.69 94.0403 215.638 93.7912 215.635 93.5391C215.632 93.287 215.679 93.0368 215.773 92.8029C215.963 92.3303 216.332 91.9525 216.8 91.7525C217.032 91.6534 217.281 91.601 217.533 91.5983C217.785 91.5955 218.036 91.6424 218.27 91.7363L235.516 98.6568C235.751 98.7502 235.964 98.889 236.145 99.0652C236.325 99.2414 236.469 99.4515 236.569 99.6835C236.668 99.9155 236.72 100.165 236.722 100.417C236.725 100.669 236.677 100.92 236.583 101.154Z" fill="#E0E0E0"/>
<path d="M262.749 76.356C262.634 76.7652 262.386 77.1244 262.044 77.3772C261.703 77.6299 261.286 77.7618 260.862 77.7521C260.437 77.7424 260.027 77.5916 259.697 77.3235C259.368 77.0554 259.136 76.6851 259.04 76.2712L254.677 58.2002C254.581 57.7121 254.677 57.2057 254.946 56.787C255.215 56.3683 255.635 56.0698 256.119 55.9539C256.603 55.838 257.113 55.9138 257.542 56.1653C257.971 56.4168 258.287 56.8246 258.422 57.3034L262.773 75.3622C262.856 75.6894 262.848 76.0332 262.749 76.356Z" fill="#E0E0E0"/>
<path d="M247.721 84.5128C247.623 84.8359 247.444 85.1282 247.2 85.3612C247.018 85.5361 246.803 85.6733 246.568 85.765C246.333 85.8566 246.082 85.9009 245.83 85.8953C245.577 85.8897 245.329 85.8342 245.098 85.7322C244.867 85.6301 244.659 85.4834 244.485 85.3006L231.65 71.8716C231.475 71.6894 231.339 71.4746 231.247 71.2395C231.156 71.0044 231.112 70.7537 231.118 70.5016C231.123 70.2495 231.179 70.001 231.28 69.7702C231.382 69.5395 231.528 69.331 231.71 69.1567C231.892 68.9824 232.107 68.8457 232.342 68.7545C232.577 68.6632 232.828 68.6191 233.08 68.6247C233.332 68.6304 233.581 68.6856 233.812 68.7873C234.042 68.8889 234.251 69.0351 234.425 69.2173L247.248 82.6463C247.485 82.8879 247.653 83.1879 247.736 83.5158C247.819 83.8436 247.814 84.1876 247.721 84.5128Z" fill="#E0E0E0"/>
</svg>
