<svg width="842" height="562" viewBox="0 0 842 562" fill="none" xmlns="http://www.w3.org/2000/svg">
<path d="M196.451 191.657L195.337 190.128C185.98 177.267 184.185 160.406 191.195 146.387C192.097 144.583 193.13 142.846 194.287 141.192C202.655 129.285 217.461 122.116 232.248 122.8C240.947 123.204 249.934 126.093 258.136 123.344C268.806 119.77 273.975 108.225 277.973 97.8675C281.971 87.5103 287.188 75.9464 297.876 72.4188C304.567 70.2049 312.09 71.7874 318.49 74.9029C335.455 83.1264 345.865 101.638 347.109 120.151C348.353 138.663 341.481 156.849 331.056 172.056C316.442 193.393 294.03 210.081 268.258 214.915C242.486 219.749 213.656 211.52 196.451 191.657Z" fill="white"/>
<path d="M55.437 527.044C55.437 527.201 219.111 527.336 420.977 527.336C622.844 527.336 786.562 527.156 786.562 527.044C786.562 526.931 622.923 526.751 420.977 526.751C219.032 526.751 55.437 526.875 55.437 527.044Z" fill="#263238"/>
<path d="M378.339 401.268H513.475V526.988H378.339V401.268Z" fill="#455A64"/>
<g opacity="0.3">
<path opacity="0.3" d="M378.339 401.268H513.475V526.988H378.339V401.268Z" fill="black"/>
</g>
<path d="M350.295 401.268H485.431V526.988H350.295V401.268Z" fill="#455A64"/>
<path d="M485.845 462.912C485.744 462.987 491.784 465.702 499.317 468.974C506.851 472.246 513.059 474.847 513.16 474.778C513.261 474.709 507.221 471.995 499.688 468.717C492.155 465.438 485.946 462.843 485.845 462.912Z" fill="#455A64"/>
<path d="M485.845 455.829C485.744 455.898 491.784 458.612 499.317 461.884C506.851 465.156 513.059 467.764 513.16 467.689C513.261 467.613 507.221 464.905 499.688 461.627C492.155 458.349 485.946 455.753 485.845 455.829Z" fill="#455A64"/>
<path d="M485.846 448.752C485.745 448.821 491.785 451.535 499.318 454.813C506.851 458.092 513.059 460.662 513.171 460.605C513.284 460.549 507.232 457.822 499.699 454.544C492.166 451.265 485.947 448.67 485.846 448.752Z" fill="#455A64"/>
<path d="M485.846 441.649C485.745 441.725 491.785 444.439 499.318 447.711C506.851 450.983 513.059 453.585 513.171 453.516C513.284 453.447 507.232 450.732 499.699 447.454C492.166 444.176 485.947 441.58 485.846 441.649Z" fill="#455A64"/>
<path d="M485.845 434.566C485.744 434.635 491.784 437.349 499.317 440.628C506.851 443.906 513.059 446.501 513.16 446.426C513.261 446.351 507.221 443.643 499.688 440.364C492.155 437.086 485.946 434.491 485.845 434.566Z" fill="#455A64"/>
<path d="M485.846 427.476C485.745 427.545 491.785 430.26 499.318 433.538C506.851 436.816 513.059 439.412 513.171 439.349C513.284 439.286 507.232 436.566 499.699 433.287C492.166 430.009 485.947 427.439 485.846 427.476Z" fill="#455A64"/>
<path d="M485.845 420.387C485.744 420.462 491.784 423.176 499.317 426.448C506.851 429.721 513.059 432.322 513.16 432.253C513.261 432.184 507.221 429.47 499.688 426.191C492.155 422.913 485.946 420.318 485.845 420.387Z" fill="#455A64"/>
<path d="M485.845 413.303C485.744 413.372 491.784 416.087 499.317 419.365C506.851 422.643 513.059 425.239 513.16 425.163C513.261 425.088 507.221 422.38 499.688 419.102C492.155 415.823 485.946 413.228 485.845 413.303Z" fill="#455A64"/>
<path d="M485.845 406.214C485.744 406.283 491.784 408.997 499.317 412.275C506.851 415.554 513.059 418.149 513.16 418.08C513.261 418.011 507.221 415.297 499.688 412.018C492.155 408.74 485.946 406.126 485.845 406.214Z" fill="#455A64"/>
<path d="M491.392 401.531C491.29 401.607 496.084 403.782 502.102 406.389C508.119 408.997 513.07 411.066 513.171 410.99C513.272 410.915 508.479 408.746 502.461 406.132C496.444 403.518 491.493 401.462 491.392 401.531Z" fill="#455A64"/>
<path d="M507.447 401.399C508.207 401.936 509.117 402.402 510.141 402.778C511.046 403.243 512.081 403.623 513.206 403.9C511.535 402.9 509.592 402.054 507.447 401.393V401.399Z" fill="#455A64"/>
<path d="M513.239 483.773C513.34 483.698 507.3 480.984 499.767 477.712C492.234 474.44 486.026 471.832 485.936 471.907C485.846 471.982 491.863 474.69 499.408 477.969C506.952 481.247 513.138 483.855 513.239 483.773Z" fill="#455A64"/>
<path d="M512.408 492.737C512.498 492.668 506.469 489.954 498.936 486.676C491.403 483.397 485.195 480.802 485.094 480.871C484.993 480.94 491.033 483.654 498.566 486.933C506.099 490.211 512.307 492.806 512.408 492.737Z" fill="#455A64"/>
<path d="M513.172 500.968C513.273 500.899 507.233 498.185 499.7 494.906C492.167 491.628 485.958 489.033 485.857 489.102C485.756 489.171 491.796 491.891 499.329 495.163C506.862 498.435 513.059 501.043 513.172 500.968Z" fill="#455A64"/>
<path d="M513.172 508.057C513.273 507.988 507.233 505.274 499.7 501.996C492.167 498.717 485.958 496.122 485.857 496.191C485.756 496.26 491.796 498.974 499.329 502.253C506.862 505.531 513.059 508.126 513.172 508.057Z" fill="#455A64"/>
<path d="M513.172 515.147C513.273 515.072 507.233 512.358 499.7 509.085C492.167 505.813 485.958 503.206 485.857 503.281C485.756 503.356 491.796 506.064 499.329 509.342C506.862 512.621 513.059 515.197 513.172 515.147Z" fill="#455A64"/>
<path d="M513.172 522.23C513.273 522.161 507.233 519.447 499.7 516.169C492.167 512.89 485.958 510.295 485.857 510.364C485.756 510.433 491.796 513.154 499.329 516.426C506.862 519.698 513.059 522.306 513.172 522.23Z" fill="#455A64"/>
<path d="M507.625 526.913C507.726 526.838 502.933 524.663 496.915 522.055C490.898 519.447 485.947 517.385 485.846 517.454C485.745 517.523 490.538 519.698 496.556 522.312C502.573 524.926 507.524 526.982 507.625 526.913Z" fill="#455A64"/>
<path d="M491.605 527.045C489.941 526.041 487.996 525.194 485.846 524.537C486.612 525.074 487.525 525.539 488.552 525.916C489.461 526.377 490.491 526.757 491.605 527.045Z" fill="#455A64"/>
<path d="M286.618 492.28C286.517 492.349 291.793 494.731 298.395 497.602C304.996 500.473 310.43 502.736 310.531 502.667C310.632 502.598 305.355 500.209 298.754 497.345C292.153 494.48 286.719 492.205 286.618 492.28Z" fill="#455A64"/>
<path d="M286.618 516.658C286.517 516.727 291.793 519.109 298.395 521.98C304.996 524.851 310.43 527.107 310.531 527.045C310.632 526.982 305.355 524.587 298.754 521.723C292.153 518.858 286.719 516.589 286.618 516.658Z" fill="#455A64"/>
<path d="M286.618 510.452C286.517 510.527 291.793 512.909 298.395 515.774C304.996 518.639 310.43 520.908 310.531 520.839C310.632 520.77 305.355 518.388 298.754 515.517C292.153 512.646 286.719 510.383 286.618 510.452Z" fill="#455A64"/>
<path d="M286.618 504.252C286.517 504.321 291.793 506.703 298.395 509.574C304.996 512.445 310.43 514.708 310.531 514.633C310.632 514.558 305.355 512.182 298.754 509.311C292.153 506.44 286.719 504.177 286.618 504.252Z" fill="#455A64"/>
<path d="M286.618 498.047C286.517 498.116 291.793 500.498 298.395 503.369C304.996 506.24 310.43 508.503 310.531 508.434C310.632 508.365 305.355 505.976 298.754 503.112C292.153 500.247 286.719 497.978 286.618 498.047Z" fill="#455A64"/>
<g opacity="0.3">
<path opacity="0.3" d="M372.175 393.119C373.24 392.787 374.37 392.726 375.465 392.939C409.774 396.75 447.776 399.335 482.118 403.145V403.516C460.086 409.857 437.16 412.516 414.264 411.384C412.12 411.283 409.672 411.26 408.213 412.845C406.754 414.43 407.09 417.274 407.573 419.589C412.401 440.608 417.224 461.623 422.044 482.634C422.796 485.939 423.324 489.997 420.742 492.177C417.172 495.201 411.918 491.615 408.909 488.041C388.477 463.774 379.203 432.279 370.458 401.774C369.537 398.683 369.167 394.355 372.175 393.119Z" fill="black"/>
</g>
<path d="M328.392 382.868C331.976 379.8 336.621 378.266 341.325 378.597L349.184 403.763C343.391 404.011 337.609 407.012 332.018 405.472C329.777 404.781 327.782 403.46 326.269 401.667C324.757 399.874 323.791 397.683 323.486 395.356C323.248 393.033 323.569 390.687 324.422 388.515C325.276 386.342 326.637 384.406 328.392 382.868Z" fill="#19B690"/>
<path d="M341.179 378.012C341.179 377.81 340.326 377.653 338.788 377.664C336.575 377.7 334.384 378.114 332.31 378.889C329.154 380.128 326.425 382.256 324.451 385.015C323.243 386.652 322.352 388.501 321.824 390.466C321.255 392.622 321.189 394.88 321.633 397.064C322.069 399.279 323.058 401.348 324.508 403.078C325.881 404.669 327.635 405.887 329.604 406.618C332.796 407.754 336.241 407.976 339.551 407.259C341.678 406.836 343.755 406.192 345.748 405.337C347.152 404.73 347.881 404.292 347.814 404.089C347.747 403.887 346.905 403.943 345.423 404.19C343.941 404.438 341.83 404.887 339.248 405.123C336.336 405.472 333.384 405.085 330.66 403.999C329.162 403.372 327.837 402.393 326.798 401.144C325.697 399.781 324.949 398.168 324.62 396.446C324.3 394.758 324.319 393.023 324.675 391.342C325.032 389.661 325.719 388.068 326.697 386.656C328.313 384.211 330.533 382.224 333.141 380.89C334.988 380.016 336.922 379.342 338.911 378.878C340.382 378.473 341.202 378.226 341.179 378.012Z" fill="#E0E0E0"/>
<path d="M412.794 470.529L428.725 515.219L373.276 535.361C371.682 529.932 396.515 508.88 396.515 508.88L385.075 480.656L412.794 470.529Z" fill="#19B690"/>
<g opacity="0.6">
<path opacity="0.6" d="M412.782 500.247C413.374 500.215 413.957 500.402 414.419 500.773C414.881 501.145 415.19 501.674 415.286 502.259C415.338 502.851 415.163 503.44 414.795 503.906C414.428 504.372 413.897 504.679 413.31 504.766C412.681 504.798 412.063 504.595 411.575 504.196C411.088 503.797 410.766 503.231 410.672 502.608C410.672 501.428 411.794 500.068 413.018 500.236" fill="white"/>
</g>
<path d="M428.725 515.219L427.119 510.723L374.455 531.753C374.455 531.753 372.367 533.731 373.276 535.372L428.725 515.219Z" fill="#F5F5F5"/>
<path d="M395.515 508.925C395.616 509.183 397.02 508.824 398.659 509.206C400.298 509.588 401.432 510.476 401.645 510.33C401.858 510.184 400.882 508.722 398.883 508.284C396.885 507.846 395.358 508.689 395.515 508.925Z" fill="#263238"/>
<path d="M390.565 513.443C390.565 513.724 391.946 513.758 393.271 514.567C394.596 515.376 395.314 516.501 395.583 516.388C395.853 516.276 395.46 514.691 393.787 513.702C392.114 512.713 390.475 513.173 390.565 513.443Z" fill="#263238"/>
<path d="M389.79 521.603C390.059 521.603 389.947 520.086 388.667 518.85C387.387 517.613 385.95 517.49 385.917 517.726C385.883 517.962 386.961 518.501 387.949 519.524C388.937 520.547 389.509 521.682 389.79 521.603Z" fill="#263238"/>
<path d="M393.63 502.203C393.832 502.406 394.943 501.585 396.504 501.079C398.064 500.573 399.445 500.686 399.501 500.394C399.558 500.101 398.064 499.562 396.223 500.124C394.382 500.686 393.417 502.035 393.63 502.203Z" fill="#263238"/>
<path d="M392.563 495.133C393.562 495.046 394.519 494.693 395.336 494.11C396.27 493.565 397.136 492.913 397.918 492.166C398.379 491.719 398.811 491.242 399.209 490.738C399.454 490.451 399.655 490.129 399.804 489.783C399.914 489.526 399.935 489.239 399.864 488.968C399.793 488.697 399.633 488.458 399.411 488.288C399.206 488.15 398.971 488.061 398.726 488.028C398.481 487.995 398.231 488.018 397.997 488.097C397.646 488.229 397.313 488.406 397.009 488.625C396.469 488.985 395.962 489.391 395.493 489.839C394.711 490.606 394.052 491.489 393.54 492.458C392.984 493.3 392.701 494.293 392.731 495.302C392.889 495.302 393.203 494.279 394.157 492.818C394.711 491.985 395.371 491.23 396.122 490.57C396.565 490.156 397.042 489.781 397.548 489.446C398.075 489.086 398.569 488.895 398.816 489.109C399.063 489.322 398.928 489.221 398.872 489.435C398.751 489.687 398.6 489.925 398.423 490.143C398.075 490.62 397.7 491.078 397.301 491.514C396.593 492.251 395.819 492.921 394.988 493.515C394.144 493.998 393.334 494.539 392.563 495.133Z" fill="#263238"/>
<path d="M393.057 495.392C393.294 494.41 393.212 493.378 392.821 492.447C392.491 491.401 391.991 490.417 391.339 489.536C390.943 489.02 390.499 488.542 390.014 488.108C389.735 487.802 389.382 487.571 388.99 487.437C388.597 487.303 388.177 487.271 387.769 487.344C387.524 487.441 387.312 487.606 387.157 487.818C387.002 488.031 386.911 488.284 386.893 488.547C386.872 488.923 386.898 489.301 386.972 489.671C387.105 490.324 387.336 490.953 387.657 491.536C388.188 492.526 388.961 493.365 389.902 493.976C391.508 495.021 392.754 494.942 392.742 494.841C391.907 494.409 391.097 493.928 390.318 493.402C389.553 492.796 388.932 492.028 388.499 491.154C388.241 490.644 388.059 490.099 387.96 489.536C387.836 488.918 387.881 488.356 388.128 488.333C388.373 488.328 388.616 488.375 388.841 488.472C389.065 488.569 389.266 488.713 389.431 488.895C389.878 489.278 390.292 489.699 390.666 490.154C391.299 490.933 391.817 491.8 392.204 492.728C392.81 494.29 392.933 495.403 393.057 495.392Z" fill="#263238"/>
<path d="M472.452 343.506C481.534 343.719 490.145 345.001 496.399 351.587C504.695 360.332 514.945 372.797 515.484 381.429C516.427 394.344 508.568 398.177 502.955 401.335C500.427 402.706 497.575 403.363 494.703 403.235L389.768 402.437L386.467 384.644L454.344 367.896L451.526 342.325L472.452 343.506Z" fill="#263238"/>
<path d="M451.514 342.325L418.497 340.797C418.497 340.797 361.499 343.944 349.307 355.184C337.114 366.424 338.664 379.035 342.716 391.152C346.769 403.269 382.504 481.229 382.504 481.229C382.504 481.229 379.607 486.186 381.235 491.121C381.889 493.282 383.091 495.237 384.724 496.796C386.357 498.354 388.365 499.462 390.553 500.011L422.291 488.333C422.291 488.333 426.602 486.816 423.56 482.713C420.517 478.61 418.497 477.902 418.497 477.902V469.832C418.497 469.832 407.337 449.533 406.327 446.745C405.316 443.958 394.629 402.639 394.629 402.639L387.522 390.421C387.522 390.421 404.699 382.34 419.574 376.484L454.377 367.908L451.514 342.325Z" fill="#263238"/>
<path d="M397.963 486.872C398.031 486.951 399.03 486.152 400.747 485.051C405.23 482.141 410.283 480.224 415.567 479.431C416.674 479.323 417.776 479.157 418.867 478.936C417.747 478.806 416.614 478.828 415.499 479.004C412.809 479.291 410.168 479.926 407.641 480.892C405.108 481.849 402.711 483.134 400.512 484.714C399.57 485.316 398.713 486.042 397.963 486.872Z" fill="#455A64"/>
<path d="M382.111 481.297C382.798 480.722 383.415 480.069 383.952 479.352C385.019 478.093 386.445 476.306 387.938 474.283C389.431 472.26 390.711 470.349 391.586 468.955C392.122 468.237 392.56 467.451 392.889 466.617C392.265 467.259 391.708 467.964 391.227 468.719L387.444 473.923L383.615 479.083C383.032 479.761 382.527 480.504 382.111 481.297Z" fill="#455A64"/>
<path d="M370.481 379.26C370.481 379.361 371.603 379.609 373.478 380.227C375.874 381.024 378.169 382.099 380.315 383.43C382.453 384.778 384.427 386.37 386.198 388.173C387.556 389.556 388.297 390.511 388.376 390.421C387.885 389.476 387.257 388.609 386.512 387.847C384.804 385.917 382.827 384.244 380.641 382.879C378.457 381.518 376.09 380.473 373.613 379.777C372.6 379.452 371.544 379.278 370.481 379.26Z" fill="#455A64"/>
<path d="M402.937 434.415C402.923 434.182 402.881 433.952 402.813 433.729C402.678 433.223 402.521 432.605 402.319 431.796L400.422 424.703L393.922 401.38C392.608 396.828 391.474 392.49 390.205 388.556C388.863 385.134 386.83 382.027 384.233 379.429C382.519 377.668 380.618 376.1 378.563 374.753C377.822 374.281 377.25 373.932 376.846 373.719C376.647 373.594 376.436 373.488 376.217 373.404C376.217 373.404 377.014 373.944 378.462 374.944C380.439 376.363 382.277 377.966 383.952 379.732C386.457 382.31 388.416 385.369 389.712 388.724C390.935 392.591 392.058 396.986 393.371 401.515L400.006 424.872L402.095 431.908C402.342 432.684 402.532 433.313 402.69 433.808C402.748 434.019 402.831 434.223 402.937 434.415Z" fill="#455A64"/>
<path d="M432.137 374.921C432.306 374.921 433.002 368.751 433.686 361.119C434.371 353.487 434.809 347.271 434.63 347.26C434.45 347.249 433.765 353.419 433.08 361.062C432.395 368.706 431.969 374.899 432.137 374.921Z" fill="#455A64"/>
<path d="M487.08 391.411C487.181 391.411 487.686 390.455 488.719 388.994C490.071 387.094 491.685 385.395 493.513 383.947C495.355 382.519 497.393 381.365 499.564 380.519C501.237 379.867 502.326 379.609 502.303 379.507C501.316 379.552 500.342 379.754 499.418 380.103C494.847 381.627 490.941 384.684 488.36 388.758C487.791 389.566 487.358 390.462 487.08 391.411Z" fill="#455A64"/>
<path d="M466.861 368.975C466.861 369.077 468.321 368.177 470.746 367.076C477.092 364.189 484.13 363.175 491.032 364.154C493.67 364.536 495.265 365.008 495.287 364.895C494.937 364.698 494.558 364.558 494.164 364.48C493.149 364.163 492.114 363.912 491.066 363.726C484.078 362.491 476.879 363.527 470.521 366.683C469.564 367.149 468.642 367.683 467.759 368.279C467.429 368.468 467.127 368.703 466.861 368.975Z" fill="#455A64"/>
<path d="M387.815 384.633C388.09 384.603 388.364 384.558 388.634 384.498L390.969 383.981L399.524 382.059C406.743 380.44 416.735 378.271 427.815 376.068C438.896 373.865 448.955 372.044 456.253 370.819L464.897 369.335L467.243 368.908C467.516 368.865 467.786 368.805 468.052 368.728C467.773 368.72 467.495 368.743 467.221 368.796L464.863 369.099C462.809 369.38 459.845 369.819 456.185 370.392C448.865 371.516 438.784 373.28 427.692 375.472C416.6 377.664 406.619 379.912 399.423 381.643C395.819 382.508 392.912 383.228 390.913 383.756L388.601 384.374C388.33 384.431 388.066 384.517 387.815 384.633Z" fill="#455A64"/>
<path d="M454.332 370.92C454.753 369.77 455.237 368.645 455.781 367.548C456.438 366.407 457.246 365.359 458.183 364.435C459.344 363.303 460.569 362.241 461.854 361.254C464.233 359.497 466.748 357.933 469.376 356.578C470.493 356.056 471.566 355.448 472.587 354.757C471.422 355.131 470.295 355.613 469.219 356.196C466.502 357.452 463.921 358.985 461.517 360.77C460.207 361.772 458.969 362.865 457.813 364.041C456.865 365.023 456.063 366.136 455.433 367.346C455.022 368.16 454.71 369.021 454.501 369.908C454.39 370.234 454.333 370.576 454.332 370.92Z" fill="#455A64"/>
<path d="M337.451 386.802C337.316 386.937 339.068 388.713 340.437 391.411C341.807 394.108 342.245 396.558 342.436 396.525C342.333 394.645 341.836 392.807 340.977 391.132C340.119 389.457 338.917 387.982 337.451 386.802Z" fill="#263238"/>
<path d="M382.908 300.367C383.425 296.927 393.686 285.552 393.686 285.552C393.686 285.552 402.611 263.679 404.149 257.598C405.305 253.765 406.707 250.01 408.348 246.358C411.94 240.278 413.714 240.165 419.866 236.703L431.789 231.432L433.249 228.183C434.503 225.384 436.673 223.096 439.401 221.698L469.275 206.254L478.526 222.608C478.526 222.608 496.286 231.005 497.319 232.331C500.968 236.984 498.442 311.719 498.442 311.719C498.442 311.719 500.227 340.842 502.214 349.013C504.201 357.185 505.357 363.221 505.357 363.221L496.488 353.015C491.279 346.484 479.862 343.472 471.655 343.596L401.556 343.899L405.822 322.97L347.656 335.278C347.656 335.278 337.9 316.237 337.126 315.855C336.351 315.473 382.908 300.367 382.908 300.367Z" fill="#19B690"/>
<path d="M470.79 229.026C471.284 228.532 465.177 243.099 461.236 258.925C458.744 268.793 458.216 284.777 458.216 293.656L456.712 318.542V340.314L423.099 338.066L428.129 301.491C428.129 301.491 432.227 277.887 433.372 268.895C434.416 260.678 439.412 227.745 439.412 227.745C439.412 227.745 456.712 243.38 470.79 229.026Z" fill="white"/>
<path d="M396.2 314.169C396.251 313.887 396.251 313.598 396.2 313.315C396.12 312.554 395.974 311.802 395.762 311.067C395.041 308.604 393.717 306.359 391.912 304.537C390.1 302.723 387.86 301.397 385.4 300.681C384.667 300.462 383.916 300.311 383.155 300.232C382.616 300.232 382.313 300.232 382.302 300.232C382.29 300.232 383.48 300.456 385.277 301.086C387.625 301.88 389.758 303.206 391.51 304.961C393.263 306.716 394.587 308.851 395.381 311.202C395.965 312.989 396.088 314.181 396.2 314.169Z" fill="#263238"/>
<path d="M394.461 300.839C392.904 299.918 391.138 299.407 389.33 299.355C387.539 299.105 385.714 299.322 384.031 299.984C384.031 300.164 386.4 299.715 389.285 299.984C392.171 300.254 394.405 301.018 394.461 300.839Z" fill="#263238"/>
<path d="M496.466 231.656C501.186 233.711 505.358 236.849 508.642 240.817C511.926 244.785 514.232 249.471 515.372 254.496C518.515 267.332 531.998 319.812 529.225 327.657C526.452 335.503 472.564 343.213 472.564 343.213L466.176 316.237L493.547 308.74C493.547 308.74 493.199 283.765 492.851 273.413C492.503 263.061 496.466 231.656 496.466 231.656Z" fill="#19B690"/>
<path d="M466.883 320.025L457.296 322.543L462.988 343.337L472.418 342.921L466.883 320.025Z" fill="white"/>
<path d="M400.894 338.054L409.527 328.871L427.31 324.375C427.31 324.375 443.6 329.265 443.993 329.253C444.386 329.242 458.172 325.477 458.172 325.477L462.988 343.157L438.155 344.866L409.796 343.742C409.796 343.742 408.326 342.359 409.201 341.415C410.077 340.471 404.452 343.011 403.79 343.045C403.128 343.079 401.848 343.584 400.972 342.517C400.377 341.786 399.569 339.448 400.894 338.054Z" fill="#C78976"/>
<path d="M409.201 341.404C410.165 341.217 411.109 340.938 412.019 340.572C413.748 340.021 416.128 339.291 418.755 338.605C421.382 337.919 423.863 337.414 425.637 337.054C426.611 336.927 427.57 336.704 428.5 336.391C427.514 336.346 426.526 336.422 425.559 336.616C423.214 336.939 420.89 337.397 418.598 337.987C416.312 338.571 414.062 339.292 411.862 340.145C410.925 340.448 410.03 340.871 409.201 341.404Z" fill="#8B5D54"/>
<path d="M400.893 338.054C402.229 337.705 403.545 337.281 404.834 336.784C407.247 335.964 410.638 334.963 414.399 333.918C418.16 332.873 421.494 331.67 424.031 331.535C425.399 331.47 426.77 331.523 428.129 331.692C427.78 331.504 427.399 331.382 427.006 331.333C426.003 331.118 424.977 331.035 423.953 331.085C421.326 331.085 417.879 332.209 414.163 333.333C410.447 334.457 407.023 335.458 404.62 336.391C403.43 336.852 402.465 337.256 401.814 337.515C401.483 337.65 401.173 337.832 400.893 338.054Z" fill="#8B5D54"/>
<path d="M529.427 324.836C529.427 324.836 529.427 325.286 529.292 326.106C528.997 327.298 528.343 328.369 527.418 329.175C525.071 331.355 520.603 333.176 514.933 334.199C512.34 335.053 509.387 335.728 506.233 336.447C503.078 337.166 499.676 337.886 496.129 338.616C488.955 340.077 481.018 341.629 472.62 343.202L472.979 343.438L471.082 335.57C469.566 329.388 468.096 323.386 466.715 317.71L466.502 318.081L490.819 311.123C494.169 309.709 497.797 309.075 501.428 309.269C504.185 309.42 506.895 310.055 509.432 311.146C511.046 311.843 512.588 312.698 514.035 313.697L515.158 314.518L515.551 314.776C515.551 314.776 515.45 314.653 515.203 314.45C514.956 314.248 514.619 313.944 514.08 313.585C512.653 312.526 511.117 311.622 509.5 310.887C506.945 309.732 504.203 309.047 501.405 308.864C497.708 308.634 494.007 309.249 490.583 310.662L466.232 317.508L465.94 317.586L466.008 317.878C467.4 323.566 468.848 329.557 470.352 335.75C471.015 338.436 471.655 341.078 472.261 343.618L472.339 343.91H472.631C481.04 342.314 488.966 340.752 496.14 339.246C499.721 338.504 503.112 337.762 506.244 336.998C509.376 336.233 512.34 335.559 514.978 334.66C520.704 333.536 525.195 331.67 527.552 329.377C528.493 328.53 529.138 327.403 529.393 326.162C529.485 325.726 529.496 325.277 529.427 324.836Z" fill="#263238"/>
<path d="M492.065 310.539C492.143 310.617 493.052 309.774 494.703 308.673C499.015 305.787 504.112 304.304 509.297 304.424C511.273 304.424 512.497 304.683 512.52 304.582C511.495 304.201 510.413 303.996 509.32 303.975C504.012 303.595 498.743 305.13 494.467 308.302C493.55 308.912 492.738 309.667 492.065 310.539Z" fill="#263238"/>
<path d="M488.484 266.59C488.423 267.136 488.423 267.686 488.484 268.231C488.484 269.288 488.596 270.817 488.742 272.727C489.045 276.493 489.606 281.719 490.594 287.339C491.373 292.213 492.498 297.025 493.962 301.738C494.265 302.626 494.58 303.435 494.838 304.143L495.624 305.908C495.852 306.409 496.134 306.884 496.466 307.324C496.305 306.801 496.098 306.293 495.848 305.807C495.646 305.278 495.422 304.683 495.175 304.008C494.928 303.334 494.67 302.491 494.4 301.592C493.053 296.874 491.985 292.081 491.201 287.238C490.213 281.618 489.584 276.392 489.168 272.626C488.989 270.85 488.832 269.355 488.708 268.13C488.686 267.611 488.61 267.095 488.484 266.59Z" fill="#263238"/>
<path d="M463.763 253.9C463.763 253.9 463.886 253.586 464.167 253.035C464.582 252.254 465.188 251.593 465.93 251.113C466.479 250.735 467.108 250.488 467.768 250.391C468.427 250.294 469.1 250.348 469.735 250.551C470.539 250.829 471.257 251.311 471.819 251.949C472.382 252.587 472.77 253.36 472.946 254.193L473.103 255.024L473.463 254.26C474.834 251.318 476.03 248.296 477.044 245.212C478.831 240.075 479.723 234.668 479.682 229.229C479.682 228.183 479.536 227.25 479.48 226.419C479.424 225.587 479.233 224.901 479.11 224.339C478.989 223.747 478.812 223.167 478.582 222.608C478.991 224.796 479.217 227.014 479.256 229.24C479.159 234.6 478.215 239.911 476.46 244.976C475.455 248.034 474.286 251.036 472.957 253.968L473.485 254.035C473.284 253.113 472.844 252.26 472.209 251.561C471.575 250.863 470.768 250.344 469.87 250.056C469.172 249.851 468.436 249.809 467.719 249.936C467.002 250.063 466.324 250.354 465.739 250.787C464.981 251.32 464.383 252.051 464.01 252.9C463.915 253.125 463.84 253.359 463.785 253.597C463.752 253.81 463.752 253.9 463.763 253.9Z" fill="#263238"/>
<path d="M434.697 256.542C434.809 256.083 434.891 255.617 434.944 255.148C435.196 253.853 435.275 252.53 435.18 251.214C434.94 249.221 433.991 247.382 432.508 246.032C431.623 245.245 430.481 244.81 429.297 244.807C428.651 244.802 428.012 244.944 427.428 245.223C426.845 245.501 426.332 245.909 425.929 246.415L426.412 246.707L427.467 243.908C429.533 238.389 431.374 233.376 432.676 229.746C433.282 228.003 433.799 226.553 434.192 225.429C434.402 224.906 434.563 224.364 434.674 223.811C434.403 224.302 434.171 224.813 433.978 225.34C433.541 226.464 432.979 227.88 432.294 229.588C430.891 233.185 428.994 238.176 426.928 243.694L425.884 246.493L425.21 248.303L426.333 246.797C426.688 246.355 427.138 245.998 427.649 245.753C428.16 245.508 428.719 245.381 429.286 245.38C430.351 245.38 431.381 245.758 432.193 246.448C433.59 247.707 434.51 249.411 434.798 251.27C434.913 252.55 434.891 253.839 434.731 255.114C434.658 255.587 434.646 256.066 434.697 256.542Z" fill="#263238"/>
<path d="M414.804 259.442C414.647 259.442 412.143 275.83 409.19 296.084C406.238 316.339 404.015 332.783 404.172 332.805C404.329 332.828 406.833 316.429 409.785 296.163C412.738 275.897 414.961 259.464 414.804 259.442Z" fill="#263238"/>
<g opacity="0.3">
<path opacity="0.3" d="M476.685 245.403C476.535 249.955 475.545 254.441 473.766 258.632C472.497 257.059 471.082 255.395 469.14 254.923C466.726 254.35 464.279 255.845 462.539 257.655C462.842 255.831 463.565 254.104 464.65 252.608C465.183 251.872 465.879 251.271 466.683 250.849C467.488 250.428 468.379 250.199 469.286 250.18C470.198 250.199 471.078 250.522 471.785 251.099C472.493 251.675 472.988 252.471 473.193 253.361L476.561 245.493" fill="black"/>
</g>
<path d="M488.574 252.495C488.686 252.495 488.653 251.27 489.001 249.359C489.476 246.869 490.446 244.499 491.852 242.391C492.628 241.238 493.523 240.172 494.524 239.21C495.347 238.426 496.246 237.726 497.207 237.119C498.846 236.074 500.003 235.68 499.969 235.568C499.679 235.587 499.394 235.656 499.127 235.77C498.804 235.87 498.489 235.994 498.184 236.141C497.771 236.317 497.369 236.519 496.983 236.748C495.964 237.325 495.012 238.01 494.142 238.794C493.086 239.77 492.144 240.863 491.336 242.053C489.885 244.228 488.941 246.702 488.574 249.292C488.462 250.07 488.424 250.856 488.462 251.641C488.495 252.192 488.529 252.495 488.574 252.495Z" fill="#263238"/>
<g opacity="0.3">
<path opacity="0.3" d="M413.793 266.736L406.282 319.722L405.912 320.565C404.142 302.248 406.847 283.774 413.793 266.736Z" fill="black"/>
</g>
<path d="M372.108 297.186L396.526 339.898L456.712 341.213L456.858 343.933L398.592 343.506L396.74 343.438L335.206 343.562L322.767 322.093L306.881 299.299C306.644 298.961 306.505 298.564 306.478 298.152C306.451 297.74 306.538 297.329 306.729 296.963C306.921 296.597 307.209 296.291 307.563 296.079C307.916 295.866 308.321 295.755 308.734 295.758L370.166 295.994C370.567 296.001 370.958 296.116 371.299 296.325C371.641 296.535 371.92 296.832 372.108 297.186Z" fill="#E0E0E0"/>
<path d="M322.767 322.15C322.767 322.15 319.612 325.05 320.106 327.511C320.6 329.973 320.443 331.816 322.767 332.007C322.733 332.906 323.041 333.784 323.629 334.464C324.216 335.144 325.04 335.575 325.933 335.671C325.933 335.671 325.214 339.538 329.716 340.167C329.716 340.167 331.086 344.304 333.926 343.303C335.55 342.743 337.111 342.016 338.585 341.134L339.416 339.628C339.416 339.628 343.581 338.065 342.559 335.705C341.931 334.278 339.775 333.907 339.775 333.907C340.022 333.318 340.127 332.679 340.08 332.042C340.033 331.405 339.836 330.789 339.506 330.242C338.507 328.894 335.251 330.006 335.251 330.006C335.32 328.852 334.956 327.713 334.229 326.814C333.107 325.499 327.931 329.062 327.931 329.062L325.113 325.69L322.767 322.15Z" fill="#C78976"/>
<path d="M329.716 340.179C331.54 339.401 333.278 338.437 334.903 337.301C336.641 336.352 338.274 335.221 339.775 333.929C336.196 335.652 332.809 337.751 329.671 340.19L329.716 340.179Z" fill="#8B5D54"/>
<path d="M325.933 335.649C327.626 334.975 329.241 334.12 330.75 333.097C332.355 332.239 333.861 331.206 335.24 330.018C333.546 330.688 331.931 331.544 330.424 332.569C328.816 333.423 327.309 334.456 325.933 335.649Z" fill="#8B5D54"/>
<path d="M331.086 327.163C330.985 326.994 329.054 328.006 326.809 329.411C325.412 330.214 324.07 331.108 322.789 332.086C322.879 332.277 324.889 331.366 327.134 329.928C328.542 329.143 329.866 328.216 331.086 327.163Z" fill="#8B5D54"/>
<path d="M306.882 297.433C306.978 297.448 307.077 297.448 307.174 297.433H308.038H311.406L323.621 297.534L363.936 297.624H366.877C367.312 297.578 367.751 297.652 368.147 297.838C368.543 298.024 368.88 298.316 369.122 298.681C370.054 300.344 370.963 301.996 371.862 303.615L377.048 312.989L385.861 328.849C388.376 333.345 390.408 336.953 391.845 339.515L393.507 342.393L393.944 343.135C393.995 343.224 394.055 343.306 394.124 343.382C394.091 343.285 394.05 343.191 394.001 343.101C393.9 342.899 393.776 342.651 393.608 342.337C393.237 341.617 392.709 340.639 392.058 339.392L386.232 328.635C383.751 324.139 380.809 318.699 377.531 312.719C375.892 309.718 374.163 306.582 372.378 303.323L369.627 298.343C369.329 297.898 368.919 297.54 368.438 297.305C367.957 297.07 367.422 296.967 366.888 297.006H363.947L323.632 297.096L311.417 297.197H308.049H307.185L306.882 297.433Z" fill="#263238"/>
<path d="M350.182 318.935C350.464 319.346 350.622 319.829 350.637 320.327C350.651 320.826 350.523 321.317 350.266 321.744C350.009 322.171 349.635 322.515 349.188 322.735C348.741 322.955 348.241 323.041 347.747 322.984C347.252 322.927 346.784 322.728 346.4 322.412C346.015 322.096 345.729 321.676 345.576 321.202C345.423 320.727 345.41 320.219 345.538 319.737C345.666 319.256 345.93 318.821 346.298 318.485C346.873 318.031 347.605 317.824 348.333 317.908C349.06 317.992 349.725 318.362 350.182 318.935Z" fill="white"/>
<path d="M438.806 225.497L439.142 215.797C439.142 215.797 426.277 212.976 426.917 199.96C427.22 193.665 428.915 180.773 430.576 169.128C431.45 163.094 434.558 157.61 439.283 153.764C444.008 149.918 450.005 147.992 456.083 148.368L457.33 148.447C470.802 150.065 476.943 162.429 474.955 175.861L471.801 227.048C471.535 231.333 469.615 235.347 466.447 238.242C463.28 241.136 459.113 242.684 454.826 242.559C452.655 242.492 450.518 241.998 448.538 241.104C446.558 240.211 444.773 238.935 443.286 237.351C441.798 235.766 440.637 233.904 439.868 231.87C439.099 229.836 438.738 227.67 438.806 225.497Z" fill="#C78976"/>
<path d="M439.143 215.808C445.143 216.165 451.12 214.792 456.364 211.852C456.364 211.852 451.975 221.068 439.075 219.101L439.143 215.808Z" fill="#8B5D54"/>
<path d="M432.227 181.346C432.193 181.831 432.348 182.309 432.66 182.681C432.973 183.052 433.418 183.287 433.9 183.336C434.135 183.369 434.374 183.354 434.603 183.293C434.833 183.232 435.047 183.125 435.235 182.98C435.422 182.834 435.578 182.652 435.694 182.445C435.81 182.238 435.883 182.009 435.91 181.773C435.929 181.293 435.762 180.824 435.444 180.464C435.126 180.104 434.682 179.88 434.203 179.84C433.743 179.785 433.28 179.912 432.911 180.193C432.542 180.474 432.297 180.887 432.227 181.346Z" fill="#263238"/>
<path d="M432.979 175.659C433.193 175.917 434.663 174.962 436.662 175.085C438.66 175.209 440.03 176.311 440.288 176.075C440.546 175.839 440.198 175.524 439.581 175.018C438.76 174.369 437.759 173.988 436.715 173.928C435.67 173.868 434.633 174.13 433.743 174.681C433.103 175.119 432.867 175.546 432.979 175.659Z" fill="#263238"/>
<path d="M451.66 182.144C451.629 182.628 451.787 183.106 452.101 183.475C452.416 183.845 452.862 184.077 453.344 184.122C453.578 184.157 453.817 184.144 454.046 184.084C454.276 184.025 454.49 183.919 454.678 183.774C454.866 183.63 455.022 183.448 455.138 183.242C455.254 183.035 455.328 182.807 455.354 182.571C455.388 182.087 455.233 181.608 454.92 181.237C454.608 180.865 454.163 180.63 453.681 180.582C453.446 180.55 453.206 180.566 452.977 180.628C452.748 180.689 452.533 180.796 452.345 180.941C452.157 181.086 452 181.267 451.882 181.474C451.765 181.68 451.689 181.908 451.66 182.144Z" fill="#263238"/>
<path d="M452.581 177.244C452.794 177.502 454.265 176.547 456.263 176.67C458.262 176.794 459.631 177.895 459.89 177.659C460.148 177.423 459.8 177.109 459.182 176.603C458.363 175.933 457.353 175.54 456.297 175.479C455.262 175.413 454.232 175.677 453.356 176.232C452.704 176.704 452.435 177.131 452.581 177.244Z" fill="#263238"/>
<path d="M444.419 191.62C443.39 191.224 442.315 190.96 441.219 190.833C440.703 190.754 440.231 190.619 440.164 190.271C440.159 189.74 440.312 189.22 440.602 188.776L442.331 184.977C444.767 179.57 446.563 175.119 446.35 175.018C446.137 174.917 443.981 179.233 441.545 184.628C440.961 185.966 440.422 187.236 439.861 188.45C439.503 189.047 439.364 189.751 439.468 190.439C439.531 190.624 439.636 190.793 439.774 190.931C439.912 191.069 440.08 191.174 440.265 191.237C440.541 191.332 440.828 191.393 441.118 191.417C442.206 191.62 443.315 191.688 444.419 191.62Z" fill="#263238"/>
<path d="M450.189 193.328C449.864 193.328 449.729 195.464 447.776 196.891C445.822 198.319 443.532 197.936 443.498 198.24C443.498 198.375 443.992 198.689 444.958 198.779C446.228 198.872 447.49 198.519 448.528 197.779C449.519 197.059 450.194 195.984 450.414 194.778C450.571 193.912 450.358 193.328 450.189 193.328Z" fill="#263238"/>
<path d="M452.548 169.376C452.705 169.938 454.714 169.803 457.038 170.23C459.362 170.657 461.226 171.354 461.529 170.938C461.686 170.713 461.383 170.185 460.653 169.612C459.68 168.89 458.548 168.412 457.353 168.218C456.163 168.004 454.94 168.073 453.783 168.42C452.941 168.712 452.435 169.117 452.548 169.376Z" fill="#263238"/>
<path d="M434.068 169.915C434.393 170.398 435.797 170.005 437.436 170.084C439.075 170.162 440.478 170.578 440.804 170.084C440.961 169.859 440.804 169.387 440.175 168.96C439.395 168.379 438.452 168.06 437.481 168.049C436.509 168.003 435.547 168.262 434.73 168.791C434.146 169.229 433.922 169.724 434.068 169.915Z" fill="#263238"/>
<path d="M432.227 163.239C432.227 163.239 436.157 155.303 440.198 153.64C445.082 151.628 446.811 157.012 451.425 155.989C456.039 154.966 460.698 153.078 465.11 156.865C469.938 161.013 467.356 163.553 467.356 169.342C467.187 192.822 471.049 199.69 472.969 188.753C473.182 187.551 476.584 186.798 477.392 181.728C478.447 175.153 479.2 167.116 478.01 162.351C477.01 158.315 474.922 155.449 471.072 152.235C464.987 147.087 456.23 146.446 450.235 146.615C444.24 146.783 432.227 152.999 432.227 163.239Z" fill="#263238"/>
<path d="M472.093 188.349C472.137 187.873 472.277 187.41 472.505 186.99C472.733 186.57 473.044 186.2 473.418 185.904C473.793 185.607 474.224 185.39 474.686 185.265C475.147 185.141 475.628 185.112 476.101 185.179C478.515 185.561 481.131 187.101 480.659 192.114C479.829 200.982 471.094 198.319 471.105 198.06C471.117 197.802 471.712 192.058 472.093 188.349Z" fill="#C78976"/>
<path d="M473.351 194.902C473.351 194.902 473.497 195.025 473.744 195.171C474.087 195.357 474.488 195.406 474.866 195.306C475.843 195.048 476.764 193.632 476.966 192.035C477.056 191.278 476.976 190.51 476.73 189.787C476.673 189.502 476.549 189.235 476.367 189.008C476.185 188.781 475.952 188.601 475.686 188.484C475.512 188.423 475.323 188.423 475.149 188.484C474.976 188.545 474.828 188.664 474.731 188.821C474.597 189.068 474.63 189.248 474.586 189.259C474.541 189.27 474.406 189.091 474.507 188.731C474.585 188.518 474.726 188.334 474.911 188.203C475.174 188.044 475.487 187.991 475.787 188.056C476.144 188.162 476.468 188.358 476.728 188.626C476.988 188.894 477.174 189.224 477.269 189.585C477.577 190.39 477.682 191.259 477.572 192.114C477.347 193.89 476.281 195.486 474.967 195.733C474.722 195.779 474.47 195.77 474.229 195.706C473.988 195.641 473.765 195.524 473.575 195.362C473.339 195.126 473.317 194.913 473.351 194.902Z" fill="#8B5D54"/>
<path d="M472.969 171.107C471.829 171.926 470.5 172.444 469.107 172.613C468.407 172.679 467.707 172.487 467.139 172.073C466.57 171.659 466.172 171.052 466.02 170.365C465.952 169.747 466.143 169.027 465.773 168.533C465.402 168.038 464.414 168.049 463.662 168.083C462.361 168.1 461.094 167.669 460.073 166.863C459.051 166.057 458.336 164.924 458.049 163.654C457.623 164.07 457.057 164.31 456.463 164.329C455.869 164.348 455.289 164.143 454.838 163.756C453.965 162.951 453.209 162.028 452.592 161.013C452.277 160.509 451.842 160.09 451.328 159.792C450.813 159.494 450.234 159.327 449.64 159.305C448.998 159.477 448.339 159.579 447.675 159.608C446.553 159.428 446.036 158.034 445.924 156.865C445.812 155.697 445.767 154.325 444.801 153.64C443.836 152.954 442.713 153.257 441.624 153.359C440.535 153.46 439.165 153.111 438.963 152.044C438.934 151.758 438.962 151.469 439.047 151.195C439.132 150.92 439.271 150.666 439.457 150.447C440.246 149.417 441.359 148.684 442.616 148.365C443.873 148.047 445.201 148.163 446.384 148.694C446.931 147.259 447.885 146.015 449.129 145.116C450.373 144.217 451.852 143.703 453.385 143.636C454.918 143.569 456.436 143.953 457.754 144.74C459.071 145.527 460.13 146.682 460.799 148.065C461.794 147.265 462.968 146.718 464.22 146.471C465.472 146.224 466.765 146.283 467.989 146.644C469.213 147.005 470.331 147.657 471.249 148.544C472.167 149.432 472.857 150.528 473.261 151.74C474.367 151.521 475.513 151.633 476.556 152.061C477.599 152.49 478.493 153.215 479.127 154.149C479.761 155.082 480.107 156.181 480.122 157.31C480.137 158.438 479.82 159.546 479.211 160.496C480.009 160.954 480.679 161.606 481.157 162.392C481.636 163.178 481.909 164.072 481.95 164.992C481.86 166.835 479.963 168.566 478.212 167.971C478.4 168.344 478.514 168.751 478.545 169.168C478.577 169.586 478.526 170.005 478.396 170.403C478.266 170.8 478.058 171.169 477.786 171.486C477.514 171.803 477.181 172.064 476.808 172.253C476.435 172.442 476.029 172.555 475.612 172.587C475.195 172.619 474.776 172.568 474.379 172.437C473.982 172.307 473.614 172.099 473.297 171.827C472.98 171.554 472.72 171.221 472.531 170.848" fill="#263238"/>
<path d="M445.553 151.279C445.553 151.279 445.553 151.279 445.553 151.437C445.543 151.598 445.543 151.759 445.553 151.92C445.638 152.529 445.82 153.121 446.091 153.673C446.524 154.554 447.154 155.324 447.933 155.921C448.959 156.717 450.216 157.159 451.514 157.18L451.379 156.978C451.215 157.367 451.131 157.786 451.131 158.209C451.131 158.631 451.215 159.05 451.379 159.439C451.727 160.253 452.192 161.01 452.76 161.687C453.03 162.094 453.342 162.471 453.692 162.811C454.094 163.129 454.568 163.341 455.073 163.43C455.592 163.537 456.13 163.515 456.638 163.366C457.147 163.217 457.612 162.946 457.992 162.575L457.666 162.463C457.735 163.393 457.996 164.299 458.433 165.124C458.87 165.948 459.473 166.672 460.203 167.251C461.011 167.926 462.016 168.321 463.066 168.375C464.057 168.388 465.044 168.236 465.985 167.926L465.749 167.802C466.144 168.907 466.807 169.896 467.68 170.679C468.08 171.065 468.56 171.358 469.086 171.537C469.612 171.716 470.171 171.776 470.723 171.714C471.669 171.568 472.552 171.149 473.264 170.508C473.976 169.867 474.486 169.032 474.731 168.105L474.517 168.195C475.424 168.751 476.496 168.974 477.549 168.825C478.353 168.742 479.125 168.46 479.794 168.004C480.201 167.725 480.558 167.38 480.849 166.981C481.029 166.7 481.107 166.543 481.107 166.543C480.722 167.068 480.247 167.521 479.704 167.881C479.063 168.286 478.337 168.536 477.582 168.611C476.585 168.733 475.576 168.503 474.731 167.959L474.562 167.858V168.049C474.329 168.919 473.846 169.702 473.174 170.302C472.502 170.901 471.669 171.29 470.779 171.421C470.276 171.478 469.766 171.421 469.288 171.254C468.81 171.086 468.375 170.813 468.017 170.455C467.197 169.709 466.576 168.77 466.21 167.723L466.142 167.555H465.974C465.077 167.858 464.136 168.006 463.19 167.993C462.219 167.936 461.293 167.565 460.551 166.936C459.86 166.396 459.289 165.717 458.875 164.943C458.461 164.169 458.214 163.316 458.149 162.44V162.025L457.857 162.328C457.347 162.802 456.689 163.083 455.994 163.124C455.3 163.165 454.613 162.963 454.051 162.553C453.725 162.243 453.431 161.9 453.175 161.53C452.616 160.876 452.158 160.141 451.817 159.349C451.66 158.997 451.574 158.617 451.564 158.231C451.555 157.845 451.622 157.461 451.761 157.101L451.839 156.899H451.626C450.391 156.902 449.187 156.508 448.191 155.775C447.432 155.216 446.806 154.494 446.361 153.662C445.948 152.924 445.674 152.116 445.553 151.279Z" fill="#455A64"/>
<path d="M441.119 182.92C441.365 182.242 441.56 181.547 441.702 180.84C442.03 178.917 441.706 176.939 440.782 175.22C440.145 174.033 439.237 173.012 438.132 172.242C436.868 171.356 435.393 170.82 433.855 170.691C433.025 170.62 432.189 170.673 431.374 170.848C430.526 171.02 429.711 171.328 428.96 171.758C427.357 172.649 426.078 174.028 425.311 175.696C424.544 177.363 424.328 179.232 424.694 181.031C424.863 181.883 425.166 182.703 425.592 183.459C425.979 184.193 426.479 184.86 427.074 185.438C428.174 186.524 429.541 187.299 431.037 187.686C432.343 188.01 433.706 188.033 435.023 187.753C436.942 187.333 438.666 186.28 439.917 184.763C440.36 184.193 440.761 183.592 441.119 182.965C441.056 183.142 440.981 183.315 440.894 183.482C440.8 183.69 440.687 183.889 440.557 184.077C440.402 184.346 440.225 184.601 440.03 184.842C438.979 186.179 437.566 187.184 435.958 187.736C434.351 188.289 432.619 188.365 430.97 187.955C429.422 187.585 428 186.809 426.85 185.707C426.23 185.106 425.707 184.412 425.3 183.65C424.851 182.869 424.536 182.018 424.368 181.133C423.989 179.263 424.212 177.321 425.008 175.588C425.803 173.854 427.128 172.419 428.792 171.489C429.577 171.05 430.425 170.735 431.307 170.556C432.151 170.374 433.018 170.324 433.877 170.41C435.366 170.535 436.799 171.034 438.043 171.861C439.287 172.688 440.303 173.817 440.995 175.142C441.936 176.924 442.233 178.976 441.837 180.953C441.78 181.261 441.701 181.566 441.601 181.863C441.543 182.084 441.464 182.298 441.366 182.504C441.295 182.649 441.212 182.788 441.119 182.92Z" fill="#263238"/>
<path d="M464.032 184.269C464.263 183.586 464.458 182.892 464.616 182.189C464.934 180.264 464.606 178.288 463.684 176.569C463.051 175.382 462.147 174.362 461.046 173.591C459.788 172.675 458.306 172.116 456.757 171.972C455.931 171.896 455.098 171.949 454.288 172.129C453.437 172.304 452.618 172.611 451.863 173.04C450.26 173.927 448.982 175.305 448.216 176.971C447.451 178.638 447.238 180.505 447.608 182.302C447.941 183.979 448.771 185.518 449.988 186.719C451.011 187.74 452.274 188.487 453.661 188.891C455.048 189.296 456.514 189.345 457.925 189.034C459.852 188.623 461.582 187.569 462.831 186.044C463.271 185.477 463.673 184.88 464.032 184.257C463.968 184.436 463.89 184.609 463.797 184.774C463.707 184.983 463.598 185.182 463.471 185.37C463.311 185.638 463.131 185.894 462.932 186.134C461.692 187.722 459.944 188.833 457.981 189.282C456.526 189.616 455.009 189.577 453.573 189.169C452.136 188.76 450.826 187.995 449.763 186.944C449.14 186.347 448.613 185.657 448.203 184.898C447.763 184.108 447.449 183.255 447.271 182.369C446.889 180.494 447.119 178.545 447.928 176.81C448.736 175.076 450.08 173.648 451.762 172.736C452.545 172.293 453.394 171.978 454.276 171.803C455.121 171.621 455.988 171.572 456.847 171.657C458.44 171.797 459.967 172.359 461.271 173.287C462.4 174.095 463.323 175.158 463.965 176.389C464.903 178.172 465.197 180.225 464.796 182.2C464.744 182.507 464.665 182.808 464.56 183.1C464.503 183.324 464.424 183.543 464.324 183.752C464.24 183.931 464.143 184.104 464.032 184.269Z" fill="#263238"/>
<path d="M447.294 178.716C446.473 178.248 445.554 177.978 444.61 177.93C443.666 177.881 442.725 178.054 441.86 178.435C441.86 178.435 442.084 178.176 442.578 177.952C443.223 177.666 443.926 177.537 444.63 177.574C445.334 177.611 446.02 177.814 446.631 178.165C447.103 178.39 447.327 178.637 447.294 178.716Z" fill="#263238"/>
<path d="M472.901 186C471.474 185.465 470.092 184.815 468.77 184.055C467.388 183.411 466.06 182.659 464.796 181.807C466.221 182.347 467.602 182.997 468.927 183.752C470.304 184.404 471.633 185.155 472.901 186Z" fill="#263238"/>
<path d="M599.83 442.744C602.554 449.457 607.207 455.21 613.199 459.275C619.191 463.339 626.252 465.533 633.49 465.577C640.727 465.622 647.815 463.516 653.857 459.526C659.898 455.535 664.622 449.84 667.429 443.161C670.236 436.482 671.001 429.12 669.627 422.005C668.252 414.891 664.801 408.344 659.709 403.195C654.617 398.045 648.113 394.524 641.021 393.076C633.93 391.629 626.568 392.32 619.869 395.064C610.898 398.727 603.747 405.808 599.989 414.75C596.231 423.691 596.174 433.76 599.83 442.744Z" fill="#19B690"/>
<path d="M607.891 439.484C609.968 444.6 613.514 448.984 618.081 452.082C622.648 455.179 628.03 456.85 633.546 456.884C639.062 456.917 644.464 455.312 649.068 452.27C653.672 449.229 657.271 444.888 659.41 439.797C661.549 434.707 662.131 429.095 661.083 423.673C660.035 418.251 657.404 413.262 653.523 409.338C649.641 405.414 644.685 402.731 639.28 401.628C633.874 400.526 628.264 401.054 623.159 403.145C619.773 404.527 616.692 406.564 614.093 409.138C611.493 411.712 609.425 414.774 608.007 418.148C606.589 421.523 605.849 425.144 605.829 428.805C605.809 432.465 606.51 436.094 607.891 439.484Z" fill="#19B690"/>
<path d="M607.89 439.484C607.861 439.335 607.819 439.188 607.766 439.046L607.351 437.787L607.048 436.865C606.947 436.517 606.868 436.134 606.779 435.741C606.52 434.798 606.337 433.836 606.228 432.864C605.856 430.21 605.887 427.516 606.318 424.872C607.298 418.517 610.455 412.702 615.248 408.422C620.041 404.142 626.171 401.665 632.589 401.414C633.895 401.355 635.204 401.385 636.507 401.504C637.169 401.583 637.82 401.706 638.483 401.808C639.151 401.899 639.812 402.042 640.459 402.235C641.786 402.576 643.091 403.001 644.365 403.505C645.643 404.064 646.881 404.71 648.07 405.438C650.532 406.916 652.739 408.784 654.604 410.968C658.488 415.478 660.798 421.133 661.183 427.075C661.38 429.942 661.119 432.822 660.408 435.606C659.762 438.305 658.685 440.882 657.22 443.238C655.869 445.527 654.168 447.591 652.179 449.353C647.42 453.667 641.314 456.194 634.902 456.504C628.489 456.813 622.168 454.886 617.017 451.05C614.873 449.472 612.98 447.577 611.404 445.43C610.804 444.661 610.26 443.849 609.776 443.002C609.552 442.631 609.338 442.305 609.17 441.991C609.001 441.676 608.867 441.384 608.743 441.114L608.148 439.934C608.087 439.794 608.015 439.659 607.935 439.529C607.973 439.676 608.026 439.819 608.092 439.956L608.631 441.17L609.035 442.058C609.204 442.384 609.417 442.721 609.619 443.092C610.096 443.953 610.632 444.779 611.224 445.565C612.788 447.765 614.681 449.71 616.838 451.331C619.692 453.512 622.945 455.112 626.414 456.041C630.628 457.194 635.055 457.341 639.336 456.468C644.255 455.451 648.815 453.143 652.55 449.78C653.543 448.882 654.477 447.921 655.345 446.902C656.211 445.837 656.999 444.71 657.703 443.53C658.428 442.332 659.076 441.09 659.645 439.81C660.18 438.486 660.623 437.127 660.97 435.741C661.708 432.904 661.981 429.966 661.778 427.041C661.552 424.031 660.875 421.071 659.768 418.263C658.587 415.483 656.998 412.896 655.053 410.586C653.146 408.366 650.894 406.469 648.385 404.966C647.165 404.23 645.897 403.577 644.59 403.01C643.293 402.488 641.961 402.057 640.604 401.718C639.947 401.521 639.275 401.375 638.595 401.279C637.921 401.189 637.248 401.054 636.574 400.987C630.216 400.399 623.844 401.949 618.465 405.393C615.133 407.568 612.299 410.425 610.151 413.777C608.003 417.129 606.589 420.899 606.004 424.838C605.596 427.517 605.596 430.241 606.004 432.92C606.135 433.896 606.338 434.862 606.61 435.809C606.711 436.224 606.801 436.607 606.902 436.933L607.239 437.854C607.441 438.371 607.598 438.787 607.71 439.091C607.757 439.227 607.818 439.359 607.89 439.484Z" fill="#263238"/>
<g opacity="0.3">
<path opacity="0.3" d="M608.193 439.63C608.361 439.574 608.002 438.394 607.609 436.258C607.053 433.243 606.97 430.16 607.362 427.12C607.628 425.046 608.118 423.008 608.822 421.039C609.644 418.801 610.749 416.678 612.111 414.722C613.61 412.569 615.414 410.645 617.466 409.012C618.55 408.152 619.698 407.378 620.902 406.697C623.38 405.289 626.067 404.287 628.861 403.73C630.216 403.455 631.59 403.29 632.97 403.235C634.304 403.169 635.64 403.21 636.967 403.359C638.243 403.488 639.508 403.714 640.75 404.033C643.062 404.621 645.288 405.505 647.374 406.663C649.195 407.691 650.9 408.912 652.46 410.305C654.726 412.358 656.664 414.746 658.208 417.386C659.331 419.263 659.813 420.387 659.97 420.331C660.128 420.275 659.847 419.061 658.938 416.959C657.616 414.044 655.766 411.399 653.481 409.158C651.9 407.6 650.14 406.234 648.239 405.09C646.048 403.78 643.692 402.771 641.233 402.089C639.904 401.72 638.549 401.453 637.18 401.29C635.755 401.108 634.317 401.044 632.881 401.099C631.372 401.144 629.87 401.314 628.39 401.605C626.885 401.903 625.406 402.32 623.967 402.853C622.533 403.395 621.144 404.049 619.813 404.809C618.516 405.547 617.281 406.389 616.119 407.326C615.004 408.234 613.961 409.226 612.998 410.294C612.068 411.319 611.216 412.412 610.45 413.565C607.797 417.548 606.205 422.145 605.824 426.918C605.566 430.109 605.897 433.321 606.801 436.393C607.463 438.596 608.081 439.675 608.193 439.63Z" fill="black"/>
</g>
<g opacity="0.3">
<path opacity="0.3" d="M637.057 445.475L638.831 449.971L642.873 448.386L641.144 443.98C645.039 442.17 648.385 439.405 649.923 436.798L645.78 432.74C644.087 435.273 641.766 437.322 639.044 438.686L636.406 431.942C640.459 429.087 644.871 425.625 642.614 419.848C640.93 415.565 636.383 413.104 629.726 414.891L627.963 410.395L623.933 411.98L625.651 416.386C622.829 417.678 620.354 419.623 618.432 422.062L622.395 426.243C623.862 424.402 625.683 422.873 627.75 421.747L630.433 428.615C626.369 431.425 622.036 434.853 624.259 440.552C625.931 444.767 630.422 447.195 637.057 445.475ZM634.093 426.03L631.848 420.297C634.183 419.938 635.485 420.781 636.013 422.107C636.541 423.433 635.654 424.771 634.093 425.996V426.03ZM630.939 438.495C630.388 437.079 631.253 435.853 632.757 434.561L634.935 440.181C632.78 440.496 631.477 439.787 630.939 438.495Z" fill="black"/>
</g>
<path d="M496.309 488.58H566.543V501.349H496.309V488.58Z" fill="#19B690"/>
<path d="M559.66 501.439C560.049 497.225 560.049 492.985 559.66 488.771C559.271 492.985 559.271 497.225 559.66 501.439Z" fill="#263238"/>
<path d="M563.5 501.439C563.889 497.225 563.889 492.985 563.5 488.771C563.111 492.985 563.111 497.225 563.5 501.439Z" fill="#263238"/>
<path d="M551.23 501.439C551.619 497.225 551.619 492.985 551.23 488.771C550.84 492.985 550.84 497.225 551.23 501.439Z" fill="#263238"/>
<path d="M555.068 501.439C555.458 497.225 555.458 492.985 555.068 488.771C554.679 492.985 554.679 497.225 555.068 501.439Z" fill="#263238"/>
<path d="M542.787 501.439C543.176 497.225 543.176 492.985 542.787 488.771C542.398 492.985 542.398 497.225 542.787 501.439Z" fill="#263238"/>
<path d="M546.626 501.439C547.015 497.225 547.015 492.985 546.626 488.771C546.237 492.985 546.237 497.225 546.626 501.439Z" fill="#263238"/>
<path d="M534.39 501.439C534.779 497.225 534.779 492.985 534.39 488.771C534.001 492.985 534.001 497.225 534.39 501.439Z" fill="#263238"/>
<path d="M538.195 501.439C538.585 497.225 538.585 492.985 538.195 488.771C537.791 492.984 537.791 497.226 538.195 501.439Z" fill="#263238"/>
<path d="M525.913 501.439C526.302 497.225 526.302 492.985 525.913 488.771C525.524 492.985 525.524 497.225 525.913 501.439Z" fill="#263238"/>
<path d="M529.753 501.439C530.142 497.225 530.142 492.985 529.753 488.771C529.364 492.985 529.364 497.225 529.753 501.439Z" fill="#263238"/>
<path d="M517.471 501.439C517.86 497.225 517.86 492.985 517.471 488.771C517.082 492.985 517.082 497.225 517.471 501.439Z" fill="#263238"/>
<path d="M521.311 501.439C521.7 497.225 521.7 492.985 521.311 488.771C520.921 492.985 520.921 497.225 521.311 501.439Z" fill="#263238"/>
<path d="M509.028 501.439C509.418 497.225 509.418 492.985 509.028 488.771C508.639 492.985 508.639 497.225 509.028 501.439Z" fill="#263238"/>
<path d="M512.879 501.439C513.268 497.225 513.268 492.985 512.879 488.771C512.49 492.985 512.49 497.225 512.879 501.439Z" fill="#263238"/>
<path d="M500.597 501.439C500.986 497.225 500.986 492.985 500.597 488.771C500.208 492.985 500.208 497.225 500.597 501.439Z" fill="#263238"/>
<path d="M504.437 501.439C504.826 497.225 504.826 492.985 504.437 488.771C504.047 492.985 504.047 497.225 504.437 501.439Z" fill="#263238"/>
<path d="M496.319 488.58C496.319 488.749 512.149 488.873 531.672 488.873C551.195 488.873 567.036 488.749 567.036 488.58C567.036 488.412 551.207 488.288 531.672 488.288C512.138 488.288 496.319 488.423 496.319 488.58Z" fill="#263238"/>
<path d="M501.821 501.248H572.055V514.016H501.821V501.248Z" fill="#19B690"/>
<path d="M565.173 514.106C565.562 509.893 565.562 505.652 565.173 501.439C564.784 505.652 564.784 509.893 565.173 514.106Z" fill="#263238"/>
<path d="M569.013 514.106C569.402 509.893 569.402 505.652 569.013 501.439C568.624 505.652 568.624 509.893 569.013 514.106Z" fill="#263238"/>
<path d="M556.731 514.106C557.12 509.893 557.12 505.652 556.731 501.439C556.341 505.652 556.341 509.893 556.731 514.106Z" fill="#263238"/>
<path d="M560.57 514.106C560.96 509.893 560.96 505.652 560.57 501.439C560.181 505.652 560.181 509.893 560.57 514.106Z" fill="#263238"/>
<path d="M548.288 514.106C548.677 509.893 548.677 505.652 548.288 501.439C547.899 505.652 547.899 509.893 548.288 514.106Z" fill="#263238"/>
<path d="M552.139 514.106C552.528 509.893 552.528 505.652 552.139 501.439C551.75 505.652 551.75 509.893 552.139 514.106Z" fill="#263238"/>
<path d="M539.857 514.106C540.246 509.893 540.246 505.652 539.857 501.439C539.467 505.652 539.467 509.893 539.857 514.106Z" fill="#263238"/>
<path d="M543.696 514.106C544.086 509.893 544.086 505.652 543.696 501.439C543.307 505.652 543.307 509.893 543.696 514.106Z" fill="#263238"/>
<path d="M531.414 514.106C531.803 509.893 531.803 505.652 531.414 501.439C531.025 505.652 531.025 509.893 531.414 514.106Z" fill="#263238"/>
<path d="M535.254 514.106C535.643 509.893 535.643 505.652 535.254 501.439C534.865 505.652 534.865 509.893 535.254 514.106Z" fill="#263238"/>
<path d="M522.972 514.106C523.361 509.893 523.361 505.652 522.972 501.439C522.583 505.652 522.583 509.893 522.972 514.106Z" fill="#263238"/>
<path d="M526.822 514.106C527.212 509.893 527.212 505.652 526.822 501.439C526.433 505.652 526.433 509.893 526.822 514.106Z" fill="#263238"/>
<path d="M514.541 514.106C514.93 509.893 514.93 505.652 514.541 501.439C514.152 505.652 514.152 509.893 514.541 514.106Z" fill="#263238"/>
<path d="M518.38 514.106C518.769 509.893 518.769 505.652 518.38 501.439C517.991 505.652 517.991 509.893 518.38 514.106Z" fill="#263238"/>
<path d="M506.098 514.106C506.487 509.893 506.487 505.652 506.098 501.439C505.709 505.652 505.709 509.893 506.098 514.106Z" fill="#263238"/>
<path d="M509.938 514.106C510.327 509.893 510.327 505.652 509.938 501.439C509.548 505.652 509.548 509.893 509.938 514.106Z" fill="#263238"/>
<path d="M501.832 501.304C501.832 501.473 517.628 501.596 537.106 501.596C556.584 501.596 572.392 501.473 572.392 501.304C572.392 501.135 556.596 501.012 537.106 501.012C517.617 501.012 501.832 501.09 501.832 501.304Z" fill="#263238"/>
<path d="M506.334 514.106H576.568V526.875H506.334V514.106Z" fill="#19B690"/>
<path d="M569.686 526.965C570.075 522.751 570.075 518.511 569.686 514.297C569.296 518.511 569.296 522.751 569.686 526.965Z" fill="#263238"/>
<path d="M573.525 526.965C573.915 522.751 573.915 518.511 573.525 514.297C573.136 518.511 573.136 522.751 573.525 526.965Z" fill="#263238"/>
<path d="M561.243 526.965C561.632 522.751 561.632 518.511 561.243 514.297C560.854 518.511 560.854 522.751 561.243 526.965Z" fill="#263238"/>
<path d="M565.083 526.965C565.472 522.751 565.472 518.511 565.083 514.297C564.694 518.511 564.694 522.751 565.083 526.965Z" fill="#263238"/>
<path d="M552.801 526.965C553.19 522.751 553.19 518.511 552.801 514.297C552.412 518.511 552.412 522.751 552.801 526.965Z" fill="#263238"/>
<path d="M556.641 526.965C557.03 522.751 557.03 518.511 556.641 514.297C556.252 518.511 556.252 522.751 556.641 526.965Z" fill="#263238"/>
<path d="M544.37 526.965C544.759 522.751 544.759 518.511 544.37 514.297C543.981 518.511 543.981 522.751 544.37 526.965Z" fill="#263238"/>
<path d="M548.209 526.965C548.598 522.751 548.598 518.511 548.209 514.297C547.82 518.511 547.82 522.751 548.209 526.965Z" fill="#263238"/>
<path d="M535.928 526.965C536.317 522.751 536.317 518.511 535.928 514.297C535.539 518.511 535.539 522.751 535.928 526.965Z" fill="#263238"/>
<path d="M539.767 526.965C540.156 522.751 540.156 518.511 539.767 514.297C539.377 518.511 539.377 522.751 539.767 526.965Z" fill="#263238"/>
<path d="M527.485 526.965C527.875 522.751 527.875 518.511 527.485 514.297C527.096 518.511 527.096 522.751 527.485 526.965Z" fill="#263238"/>
<path d="M531.336 526.965C531.725 522.751 531.725 518.511 531.336 514.297C530.932 518.51 530.932 522.752 531.336 526.965Z" fill="#263238"/>
<path d="M519.054 526.965C519.443 522.751 519.443 518.511 519.054 514.297C518.665 518.511 518.665 522.751 519.054 526.965Z" fill="#263238"/>
<path d="M522.894 526.965C523.283 522.751 523.283 518.511 522.894 514.297C522.504 518.511 522.504 522.751 522.894 526.965Z" fill="#263238"/>
<path d="M510.611 526.965C511.001 522.751 511.001 518.511 510.611 514.297C510.222 518.511 510.222 522.751 510.611 526.965Z" fill="#263238"/>
<path d="M514.451 526.965C514.84 522.751 514.84 518.511 514.451 514.297C514.062 518.511 514.062 522.751 514.451 526.965Z" fill="#263238"/>
<path d="M506.322 514.106C506.322 514.275 522.118 514.399 541.596 514.399C561.075 514.399 576.882 514.275 576.882 514.106C576.882 513.938 561.086 513.814 541.596 513.814C522.107 513.814 506.322 513.949 506.322 514.106Z" fill="#263238"/>
<g opacity="0.3">
<path opacity="0.3" d="M562.456 501.383C551.823 503.813 540.883 504.609 530.011 503.743C519.233 503.024 508.355 501.439 497.555 501.574L562.456 501.383Z" fill="black"/>
</g>
<g opacity="0.3">
<path opacity="0.3" d="M575.703 514.275C565.07 516.706 554.13 517.502 543.258 516.635C532.48 515.916 521.602 514.331 510.802 514.466L575.703 514.275Z" fill="black"/>
</g>
<path d="M564.993 489.637C564.503 489.637 564.106 489.506 564.106 489.345C564.106 489.183 564.503 489.052 564.993 489.052C565.483 489.052 565.88 489.183 565.88 489.345C565.88 489.506 565.483 489.637 564.993 489.637Z" fill="white"/>
<path d="M554.361 489.378C557.034 489.768 559.749 489.768 562.422 489.378C559.749 488.989 557.034 488.989 554.361 489.378Z" fill="white"/>
<path d="M543.214 489.378C545.886 489.768 548.602 489.768 551.274 489.378C548.602 488.989 545.886 488.989 543.214 489.378Z" fill="white"/>
<path d="M281.509 477.61C278.953 484.389 278.463 491.775 280.101 498.833C281.74 505.891 285.433 512.304 290.714 517.26C295.994 522.215 302.624 525.491 309.765 526.672C316.905 527.854 324.236 526.888 330.828 523.896C337.42 520.905 342.977 516.023 346.797 509.868C350.616 503.713 352.526 496.562 352.284 489.32C352.043 482.078 349.66 475.07 345.439 469.184C341.218 463.298 335.347 458.798 328.571 456.254C319.501 452.84 309.448 453.171 300.623 457.176C291.798 461.181 284.922 468.531 281.509 477.61Z" fill="#19B690"/>
<path d="M289.648 480.679C287.698 485.845 287.323 491.474 288.57 496.853C289.817 502.233 292.63 507.121 296.653 510.9C300.676 514.678 305.728 517.176 311.17 518.078C316.612 518.98 322.199 518.246 327.224 515.967C332.249 513.689 336.486 509.969 339.398 505.279C342.31 500.589 343.767 495.139 343.584 489.619C343.402 484.1 341.587 478.759 338.371 474.272C335.155 469.785 330.681 466.354 325.517 464.414C322.095 463.123 318.453 462.519 314.798 462.637C311.143 462.755 307.547 463.594 304.216 465.104C300.885 466.615 297.883 468.768 295.384 471.44C292.884 474.112 290.935 477.252 289.648 480.679Z" fill="#19B690"/>
<path d="M289.648 480.679C289.729 480.549 289.8 480.414 289.861 480.274L290.411 479.071L290.816 478.183C290.973 477.857 291.186 477.531 291.388 477.16C291.849 476.297 292.371 475.467 292.949 474.676C294.479 472.476 296.334 470.52 298.45 468.877C303.481 464.884 309.742 462.767 316.161 462.888C322.579 463.009 328.757 465.36 333.634 469.54C334.632 470.387 335.57 471.304 336.441 472.282C336.879 472.788 337.271 473.328 337.698 473.845C338.107 474.375 338.482 474.93 338.821 475.508C339.561 476.66 340.229 477.858 340.819 479.094C341.374 480.376 341.842 481.694 342.222 483.039C343.025 485.797 343.374 488.667 343.255 491.536C343.053 497.491 340.908 503.216 337.148 507.834C335.35 510.074 333.2 512.007 330.782 513.556C329.611 514.315 328.393 514.999 327.134 515.601C325.897 516.162 324.626 516.642 323.328 517.04C322.038 517.408 320.726 517.689 319.399 517.883C318.095 518.038 316.782 518.109 315.469 518.097C310.538 518.037 305.711 516.668 301.481 514.129C298.121 512.092 295.23 509.366 292.997 506.131C290.764 502.896 289.24 499.225 288.525 495.358C288.018 492.725 287.908 490.032 288.2 487.366C288.288 486.394 288.442 485.429 288.66 484.478C288.75 484.062 288.806 483.668 288.896 483.354C288.986 483.039 289.098 482.702 289.176 482.421C289.334 481.881 289.457 481.465 289.558 481.151C289.606 481.008 289.64 480.861 289.659 480.712C289.595 480.846 289.542 480.985 289.502 481.128C289.39 481.443 289.244 481.859 289.064 482.387L288.761 483.32C288.66 483.668 288.581 484.051 288.492 484.444C288.246 485.4 288.074 486.373 287.975 487.355C287.633 490.041 287.709 492.763 288.2 495.425C288.892 499.353 290.411 503.089 292.656 506.383C294.902 509.678 297.822 512.456 301.223 514.533C306.695 517.834 313.115 519.2 319.455 518.411C320.809 518.223 322.148 517.942 323.463 517.568C324.809 517.182 326.129 516.709 327.414 516.152C328.702 515.547 329.947 514.856 331.142 514.084C333.609 512.504 335.804 510.534 337.642 508.25C339.524 505.888 341.038 503.255 342.133 500.439C343.154 497.598 343.744 494.62 343.884 491.604C343.997 488.673 343.637 485.743 342.817 482.927C342.096 480.188 340.916 477.592 339.326 475.25C338.98 474.656 338.585 474.093 338.147 473.564C337.721 473.024 337.316 472.44 336.867 471.968C335.977 470.971 335.017 470.039 333.993 469.18C330.164 465.923 325.537 463.746 320.589 462.874C316.668 462.199 312.648 462.366 308.796 463.364C304.945 464.362 301.349 466.168 298.248 468.663C296.131 470.348 294.287 472.35 292.78 474.598C292.203 475.394 291.693 476.236 291.253 477.116C291.051 477.498 290.849 477.835 290.692 478.161L290.322 479.071L289.816 480.296C289.749 480.418 289.692 480.546 289.648 480.679Z" fill="#263238"/>
<g opacity="0.3">
<path opacity="0.3" d="M289.749 481.072C289.907 481.139 290.446 480.027 291.613 478.183C293.245 475.595 295.263 473.271 297.597 471.293C299.201 469.957 300.944 468.796 302.795 467.831C304.927 466.745 307.192 465.94 309.531 465.437C310.783 465.156 312.056 464.971 313.337 464.886C314.671 464.78 316.011 464.78 317.345 464.886C318.721 464.993 320.087 465.204 321.431 465.516C322.811 465.855 324.165 466.291 325.484 466.82C326.794 467.375 328.062 468.025 329.279 468.764C330.464 469.483 331.59 470.295 332.647 471.192C333.667 472.051 334.617 472.991 335.487 474.002C336.337 474.969 337.114 475.998 337.811 477.082C339.103 479.085 340.133 481.246 340.876 483.511C341.523 485.504 341.948 487.562 342.144 489.648C342.408 492.696 342.207 495.765 341.549 498.753C341.078 500.888 340.685 502.046 340.842 502.125C340.999 502.203 341.605 501.113 342.346 498.977C343.323 495.919 343.726 492.707 343.536 489.502C343.416 487.282 343.039 485.083 342.414 482.949C341.696 480.496 340.65 478.152 339.304 475.98C338.584 474.795 337.773 473.668 336.879 472.608C335.955 471.5 334.941 470.47 333.848 469.529C332.721 468.552 331.52 467.665 330.255 466.876C327.639 465.259 324.776 464.082 321.779 463.391C318.923 462.722 315.978 462.513 313.056 462.773C309.114 463.111 305.288 464.279 301.829 466.201C299.898 467.288 298.097 468.593 296.463 470.091C294.107 472.254 292.17 474.834 290.749 477.7C289.918 479.768 289.648 480.982 289.749 481.072Z" fill="black"/>
</g>
<g opacity="0.3">
<path opacity="0.3" d="M306.948 504.957L305.174 509.453L309.216 511.038L310.978 506.665C315.065 507.992 319.387 508.239 322.284 507.374L322.003 501.574C319.042 502.289 315.947 502.219 313.022 501.371L315.671 494.627C320.577 495.302 326.168 495.751 328.425 489.985C330.097 485.703 328.425 480.813 322.34 477.621L324.102 473.125L320.061 471.54L318.343 475.947C315.391 474.976 312.252 474.718 309.182 475.193L309.249 480.96C311.583 480.603 313.964 480.714 316.255 481.286L313.56 488.153C308.666 487.445 303.164 487.029 300.93 492.705C299.269 496.864 300.874 501.709 306.948 504.957ZM317.984 488.681L320.229 482.949C322.171 484.264 322.564 485.77 322.048 487.108C321.531 488.445 319.96 488.816 317.984 488.681ZM307.229 495.695C307.779 494.279 309.249 493.976 311.225 494.043L308.98 499.663C307.195 498.393 306.723 496.988 307.229 495.684V495.695Z" fill="black"/>
</g>
<path d="M175.416 488.513H245.65V501.282H175.416V488.513Z" fill="#19B690"/>
<path d="M238.769 501.371C239.158 497.158 239.158 492.917 238.769 488.704C238.379 492.917 238.379 497.158 238.769 501.371Z" fill="#263238"/>
<path d="M242.608 501.371C242.998 497.158 242.998 492.917 242.608 488.704C242.219 492.917 242.219 497.158 242.608 501.371Z" fill="#263238"/>
<path d="M230.326 501.371C230.715 497.158 230.715 492.917 230.326 488.704C229.937 492.917 229.937 497.158 230.326 501.371Z" fill="#263238"/>
<path d="M234.166 501.371C234.555 497.158 234.555 492.917 234.166 488.704C233.777 492.917 233.777 497.158 234.166 501.371Z" fill="#263238"/>
<path d="M221.884 501.371C222.273 497.158 222.273 492.917 221.884 488.704C221.495 492.917 221.495 497.158 221.884 501.371Z" fill="#263238"/>
<path d="M225.734 501.371C226.124 497.158 226.124 492.917 225.734 488.704C225.345 492.917 225.345 497.158 225.734 501.371Z" fill="#263238"/>
<path d="M213.452 501.371C213.841 497.158 213.841 492.917 213.452 488.704C213.063 492.917 213.063 497.158 213.452 501.371Z" fill="#263238"/>
<path d="M217.292 501.371C217.681 497.158 217.681 492.917 217.292 488.704C216.903 492.917 216.903 497.158 217.292 501.371Z" fill="#263238"/>
<path d="M205.01 501.371C205.399 497.158 205.399 492.917 205.01 488.704C204.621 492.917 204.621 497.158 205.01 501.371Z" fill="#263238"/>
<path d="M208.817 501.371C209.206 497.158 209.206 492.917 208.817 488.704C208.427 492.917 208.427 497.158 208.817 501.371Z" fill="#263238"/>
<path d="M196.568 501.371C196.972 497.159 196.972 492.917 196.568 488.704C196.179 492.917 196.179 497.158 196.568 501.371Z" fill="#263238"/>
<path d="M200.418 501.371C200.807 497.158 200.807 492.917 200.418 488.704C200.029 492.917 200.029 497.158 200.418 501.371Z" fill="#263238"/>
<path d="M188.137 501.371C188.526 497.158 188.526 492.917 188.137 488.704C187.748 492.917 187.748 497.158 188.137 501.371Z" fill="#263238"/>
<path d="M191.976 501.371C192.365 497.158 192.365 492.917 191.976 488.704C191.586 492.917 191.586 497.158 191.976 501.371Z" fill="#263238"/>
<path d="M179.694 501.371C180.084 497.158 180.084 492.917 179.694 488.704C179.305 492.917 179.305 497.158 179.694 501.371Z" fill="#263238"/>
<path d="M183.533 501.371C183.922 497.158 183.922 492.917 183.533 488.704C183.144 492.917 183.144 497.158 183.533 501.371Z" fill="#263238"/>
<path d="M175.417 488.513C175.417 488.681 191.246 488.805 210.781 488.805C230.315 488.805 246.145 488.681 246.145 488.513C246.145 488.344 230.315 488.221 210.781 488.221C191.246 488.221 175.417 488.356 175.417 488.513Z" fill="#263238"/>
<path d="M180.918 501.18H251.152V513.949H180.918V501.18Z" fill="#19B690"/>
<path d="M244.27 514.039C244.659 509.825 244.659 505.585 244.27 501.371C243.88 505.585 243.88 509.825 244.27 514.039Z" fill="#263238"/>
<path d="M248.109 514.039C248.499 509.825 248.499 505.585 248.109 501.371C247.72 505.585 247.72 509.825 248.109 514.039Z" fill="#263238"/>
<path d="M235.827 514.039C236.216 509.825 236.216 505.585 235.827 501.371C235.438 505.585 235.438 509.825 235.827 514.039Z" fill="#263238"/>
<path d="M239.678 514.039C240.067 509.825 240.067 505.585 239.678 501.371C239.289 505.585 239.289 509.825 239.678 514.039Z" fill="#263238"/>
<path d="M227.397 514.039C227.786 509.825 227.786 505.585 227.397 501.371C227.007 505.585 227.007 509.825 227.397 514.039Z" fill="#263238"/>
<path d="M231.27 514.039C231.659 509.825 231.659 505.585 231.27 501.371C230.88 505.585 230.88 509.825 231.27 514.039Z" fill="#263238"/>
<path d="M218.92 514.039C219.309 509.825 219.309 505.585 218.92 501.371C218.531 505.585 218.531 509.825 218.92 514.039Z" fill="#263238"/>
<path d="M222.793 514.039C223.182 509.825 223.182 505.585 222.793 501.371C222.404 505.585 222.404 509.825 222.793 514.039Z" fill="#263238"/>
<path d="M210.523 514.039C210.912 509.825 210.912 505.585 210.523 501.371C210.118 505.584 210.118 509.826 210.523 514.039Z" fill="#263238"/>
<path d="M214.362 514.039C214.752 509.825 214.752 505.585 214.362 501.371C213.973 505.585 213.973 509.825 214.362 514.039Z" fill="#263238"/>
<path d="M202.08 514.039C202.469 509.825 202.469 505.585 202.08 501.371C201.691 505.585 201.691 509.825 202.08 514.039Z" fill="#263238"/>
<path d="M205.92 514.039C206.309 509.825 206.309 505.585 205.92 501.371C205.531 505.585 205.531 509.825 205.92 514.039Z" fill="#263238"/>
<path d="M193.638 514.039C194.027 509.825 194.027 505.585 193.638 501.371C193.249 505.585 193.249 509.825 193.638 514.039Z" fill="#263238"/>
<path d="M197.478 514.039C197.867 509.825 197.867 505.585 197.478 501.371C197.088 505.585 197.088 509.825 197.478 514.039Z" fill="#263238"/>
<path d="M185.24 514.039C185.63 509.825 185.63 505.585 185.24 501.371C184.851 505.585 184.851 509.825 185.24 514.039Z" fill="#263238"/>
<path d="M189.046 514.039C189.435 509.825 189.435 505.585 189.046 501.371C188.657 505.585 188.657 509.825 189.046 514.039Z" fill="#263238"/>
<path d="M180.929 501.18C180.929 501.349 196.714 501.473 216.203 501.473C235.693 501.473 251.478 501.304 251.478 501.18C251.478 501.057 235.682 500.888 216.203 500.888C196.725 500.888 180.929 501.023 180.929 501.18Z" fill="#263238"/>
<path d="M185.431 514.039H255.665V526.808H185.431V514.039Z" fill="#19B690"/>
<path d="M248.783 526.897C249.172 522.684 249.172 518.444 248.783 514.23C248.394 518.444 248.394 522.684 248.783 526.897Z" fill="#263238"/>
<path d="M252.6 526.897C252.989 522.684 252.989 518.444 252.6 514.23C252.21 518.444 252.21 522.684 252.6 526.897Z" fill="#263238"/>
<path d="M240.341 526.897C240.73 522.684 240.73 518.444 240.341 514.23C239.952 518.444 239.952 522.684 240.341 526.897Z" fill="#263238"/>
<path d="M244.18 526.897C244.584 522.685 244.584 518.443 244.18 514.23C243.791 518.444 243.791 522.684 244.18 526.897Z" fill="#263238"/>
<path d="M231.909 526.897C232.298 522.684 232.298 518.444 231.909 514.23C231.52 518.444 231.52 522.684 231.909 526.897Z" fill="#263238"/>
<path d="M235.76 526.897C236.149 522.684 236.149 518.444 235.76 514.23C235.371 518.444 235.371 522.684 235.76 526.897Z" fill="#263238"/>
<path d="M223.411 526.897C223.8 522.684 223.8 518.444 223.411 514.23C223.022 518.444 223.022 522.684 223.411 526.897Z" fill="#263238"/>
<path d="M227.307 526.897C227.696 522.684 227.696 518.444 227.307 514.23C226.917 518.444 226.917 522.684 227.307 526.897Z" fill="#263238"/>
<path d="M215.025 526.897C215.414 522.684 215.414 518.444 215.025 514.23C214.635 518.444 214.635 522.684 215.025 526.897Z" fill="#263238"/>
<path d="M218.92 526.897C219.309 522.684 219.309 518.444 218.92 514.23C218.531 518.444 218.531 522.684 218.92 526.897Z" fill="#263238"/>
<path d="M206.57 526.897C206.96 522.684 206.96 518.444 206.57 514.23C206.181 518.444 206.181 522.684 206.57 526.897Z" fill="#263238"/>
<path d="M210.433 526.897C210.822 522.684 210.822 518.444 210.433 514.23C210.044 518.444 210.044 522.684 210.433 526.897Z" fill="#263238"/>
<path d="M198.15 526.897C198.54 522.684 198.54 518.444 198.15 514.23C197.761 518.444 197.761 522.684 198.15 526.897Z" fill="#263238"/>
<path d="M201.99 526.897C202.38 522.684 202.38 518.444 201.99 514.23C201.601 518.444 201.601 522.684 201.99 526.897Z" fill="#263238"/>
<path d="M189.731 526.897C190.135 522.685 190.135 518.443 189.731 514.23C189.342 518.444 189.342 522.684 189.731 526.897Z" fill="#263238"/>
<path d="M193.559 526.897C193.948 522.684 193.948 518.444 193.559 514.23C193.169 518.444 193.169 522.684 193.559 526.897Z" fill="#263238"/>
<path d="M185.431 514.039C185.431 514.207 201.227 514.331 220.716 514.331C240.205 514.331 255.99 514.207 255.99 514.039C255.99 513.87 240.194 513.747 220.716 513.747C201.238 513.747 185.431 513.882 185.431 514.039Z" fill="#263238"/>
<g opacity="0.3">
<path opacity="0.3" d="M241.609 501.304C230.981 503.735 220.044 504.531 209.176 503.664C198.398 502.945 187.508 501.36 176.708 501.495L241.609 501.304Z" fill="black"/>
</g>
<g opacity="0.3">
<path opacity="0.3" d="M254.846 514.208C244.217 516.638 233.28 517.434 222.412 516.568C211.634 515.849 200.744 514.264 189.944 514.399L254.846 514.208Z" fill="black"/>
</g>
<path d="M244.091 489.569C243.601 489.569 243.204 489.439 243.204 489.277C243.204 489.116 243.601 488.985 244.091 488.985C244.58 488.985 244.978 489.116 244.978 489.277C244.978 489.439 244.58 489.569 244.091 489.569Z" fill="white"/>
<path d="M233.459 489.311C236.132 489.701 238.847 489.701 241.52 489.311C238.847 488.921 236.132 488.921 233.459 489.311Z" fill="white"/>
<path d="M222.288 489.311C224.961 489.701 227.676 489.701 230.349 489.311C227.676 488.921 224.961 488.921 222.288 489.311Z" fill="white"/>
<path d="M599.729 462.953H669.963V475.722H599.729V462.953Z" fill="#19B690"/>
<path d="M663.081 475.812C663.47 471.598 663.47 467.358 663.081 463.144C662.692 467.358 662.692 471.598 663.081 475.812Z" fill="#263238"/>
<path d="M666.864 475.812C667.254 471.598 667.254 467.358 666.864 463.144C666.475 467.358 666.475 471.598 666.864 475.812Z" fill="#263238"/>
<path d="M654.638 475.812C655.027 471.598 655.027 467.358 654.638 463.144C654.249 467.358 654.249 471.598 654.638 475.812Z" fill="#263238"/>
<path d="M658.478 475.812C658.867 471.598 658.867 467.358 658.478 463.144C658.088 467.358 658.088 471.598 658.478 475.812Z" fill="#263238"/>
<path d="M646.195 475.812C646.585 471.598 646.585 467.358 646.195 463.144C645.806 467.358 645.806 471.598 646.195 475.812Z" fill="#263238"/>
<path d="M650.024 475.812C650.414 471.598 650.414 467.358 650.024 463.144C649.635 467.358 649.635 471.598 650.024 475.812Z" fill="#263238"/>
<path d="M637.765 475.812C638.154 471.598 638.154 467.358 637.765 463.144C637.376 467.358 637.376 471.598 637.765 475.812Z" fill="#263238"/>
<path d="M641.604 475.812C641.993 471.598 641.993 467.358 641.604 463.144C641.214 467.358 641.214 471.598 641.604 475.812Z" fill="#263238"/>
<path d="M629.322 475.812C629.712 471.598 629.712 467.358 629.322 463.144C628.933 467.358 628.933 471.598 629.322 475.812Z" fill="#263238"/>
<path d="M633.184 475.812C633.573 471.598 633.573 467.358 633.184 463.144C632.794 467.358 632.794 471.598 633.184 475.812Z" fill="#263238"/>
<path d="M620.835 475.812C621.224 471.598 621.224 467.358 620.835 463.144C620.446 467.358 620.446 471.598 620.835 475.812Z" fill="#263238"/>
<path d="M624.731 475.812C625.12 471.598 625.12 467.358 624.731 463.144C624.326 467.357 624.326 471.599 624.731 475.812Z" fill="#263238"/>
<path d="M612.448 475.812C612.838 471.598 612.838 467.358 612.448 463.144C612.059 467.358 612.059 471.598 612.448 475.812Z" fill="#263238"/>
<path d="M616.288 475.812C616.677 471.598 616.677 467.358 616.288 463.144C615.899 467.358 615.899 471.598 616.288 475.812Z" fill="#263238"/>
<path d="M603.995 475.812C604.384 471.598 604.384 467.358 603.995 463.144C603.606 467.358 603.606 471.598 603.995 475.812Z" fill="#263238"/>
<path d="M607.846 475.812C608.235 471.598 608.235 467.358 607.846 463.144C607.457 467.358 607.457 471.598 607.846 475.812Z" fill="#263238"/>
<path d="M599.729 462.953C599.729 463.122 615.525 463.245 635.003 463.245C654.481 463.245 670.232 463.088 670.232 462.953C670.232 462.818 654.437 462.661 634.947 462.661C615.458 462.661 599.729 462.796 599.729 462.953Z" fill="#263238"/>
<path d="M604.321 475.924H674.555V488.693H604.321V475.924Z" fill="#19B690"/>
<path d="M667.672 488.783C668.061 484.569 668.061 480.329 667.672 476.115C667.283 480.329 667.283 484.569 667.672 488.783Z" fill="#263238"/>
<path d="M671.512 488.783C671.901 484.569 671.901 480.329 671.512 476.115C671.123 480.329 671.123 484.569 671.512 488.783Z" fill="#263238"/>
<path d="M659.23 488.783C659.619 484.569 659.619 480.329 659.23 476.115C658.84 480.329 658.84 484.569 659.23 488.783Z" fill="#263238"/>
<path d="M663.081 488.783C663.47 484.569 663.47 480.329 663.081 476.115C662.692 480.329 662.692 484.569 663.081 488.783Z" fill="#263238"/>
<path d="M650.799 488.783C651.188 484.569 651.188 480.329 650.799 476.115C650.41 480.329 650.41 484.569 650.799 488.783Z" fill="#263238"/>
<path d="M654.638 488.783C655.027 484.569 655.027 480.329 654.638 476.115C654.249 480.329 654.249 484.569 654.638 488.783Z" fill="#263238"/>
<path d="M642.357 488.783C642.746 484.569 642.746 480.329 642.357 476.115C641.967 480.329 641.967 484.569 642.357 488.783Z" fill="#263238"/>
<path d="M646.195 488.783C646.585 484.569 646.585 480.329 646.195 476.115C645.806 480.329 645.806 484.569 646.195 488.783Z" fill="#263238"/>
<path d="M633.914 488.783C634.318 484.57 634.318 480.328 633.914 476.115C633.524 480.329 633.524 484.569 633.914 488.783Z" fill="#263238"/>
<path d="M637.765 488.783C638.154 484.569 638.154 480.329 637.765 476.115C637.376 480.329 637.376 484.569 637.765 488.783Z" fill="#263238"/>
<path d="M625.483 488.783C625.872 484.569 625.872 480.329 625.483 476.115C625.093 480.329 625.093 484.569 625.483 488.783Z" fill="#263238"/>
<path d="M629.322 488.783C629.712 484.569 629.712 480.329 629.322 476.115C628.933 480.329 628.933 484.569 629.322 488.783Z" fill="#263238"/>
<path d="M617.04 488.783C617.429 484.569 617.429 480.329 617.04 476.115C616.651 480.329 616.651 484.569 617.04 488.783Z" fill="#263238"/>
<path d="M620.835 488.783C621.224 484.569 621.224 480.329 620.835 476.115C620.446 480.329 620.446 484.569 620.835 488.783Z" fill="#263238"/>
<path d="M608.608 488.783C608.998 484.569 608.998 480.329 608.608 476.115C608.219 480.329 608.219 484.569 608.608 488.783Z" fill="#263238"/>
<path d="M612.448 488.783C612.838 484.569 612.838 480.329 612.448 476.115C612.059 480.329 612.059 484.569 612.448 488.783Z" fill="#263238"/>
<path d="M604.32 475.924C604.32 476.093 620.116 476.216 639.606 476.216C659.095 476.216 674.88 476.093 674.88 475.924C674.88 475.756 659.084 475.632 639.606 475.632C620.127 475.632 604.32 475.767 604.32 475.924Z" fill="#263238"/>
<path d="M598.583 488.783H668.817V501.551H598.583V488.783Z" fill="#19B690"/>
<path d="M661.936 501.641C662.325 497.428 662.325 493.187 661.936 488.974C661.546 493.187 661.546 497.428 661.936 501.641Z" fill="#263238"/>
<path d="M665.742 501.641C666.133 497.417 666.133 493.165 665.742 488.94C665.352 493.154 665.352 497.394 665.742 501.607V501.641Z" fill="#263238"/>
<path d="M653.493 501.641C653.882 497.428 653.882 493.187 653.493 488.974C653.104 493.187 653.104 497.428 653.493 501.641Z" fill="#263238"/>
<path d="M657.332 501.641C657.721 497.428 657.721 493.187 657.332 488.974C656.943 493.187 656.943 497.428 657.332 501.641Z" fill="#263238"/>
<path d="M645.062 501.641C645.451 497.428 645.451 493.187 645.062 488.974C644.672 493.187 644.672 497.428 645.062 501.641Z" fill="#263238"/>
<path d="M648.901 501.641C649.292 497.417 649.292 493.165 648.901 488.94C648.512 493.154 648.512 497.394 648.901 501.607V501.641Z" fill="#263238"/>
<path d="M636.619 501.641C637.008 497.428 637.008 493.187 636.619 488.974C636.23 493.187 636.23 497.428 636.619 501.641Z" fill="#263238"/>
<path d="M640.459 501.641C640.848 497.428 640.848 493.187 640.459 488.974C640.07 493.187 640.07 497.428 640.459 501.641Z" fill="#263238"/>
<path d="M628.177 501.641C628.566 497.428 628.566 493.187 628.177 488.974C627.788 493.187 627.788 497.428 628.177 501.641Z" fill="#263238"/>
<path d="M632.061 501.641C632.452 497.417 632.452 493.165 632.061 488.94C631.672 493.154 631.672 497.394 632.061 501.607V501.641Z" fill="#263238"/>
<path d="M619.712 501.641C620.104 497.417 620.104 493.165 619.712 488.94C619.323 493.154 619.323 497.394 619.712 501.607V501.641Z" fill="#263238"/>
<path d="M623.585 501.641C623.974 497.428 623.974 493.187 623.585 488.974C623.196 493.187 623.196 497.428 623.585 501.641Z" fill="#263238"/>
<path d="M611.303 501.641C611.692 497.428 611.692 493.187 611.303 488.974C610.914 493.187 610.914 497.428 611.303 501.641Z" fill="#263238"/>
<path d="M615.143 501.641C615.532 497.428 615.532 493.187 615.143 488.974C614.753 493.187 614.753 497.428 615.143 501.641Z" fill="#263238"/>
<path d="M602.872 501.641C603.263 497.417 603.263 493.165 602.872 488.94C602.482 493.154 602.482 497.394 602.872 501.607V501.641Z" fill="#263238"/>
<path d="M606.712 501.641C607.101 497.428 607.101 493.187 606.712 488.974C606.308 493.187 606.308 497.428 606.712 501.641Z" fill="#263238"/>
<path d="M598.584 488.783C598.584 488.951 614.424 489.075 633.948 489.075C653.471 489.075 669.312 488.951 669.312 488.783C669.312 488.614 653.482 488.49 633.948 488.49C614.413 488.49 598.584 488.625 598.584 488.783Z" fill="#263238"/>
<path d="M604.084 501.45H674.318V514.219H604.084V501.45Z" fill="#19B690"/>
<path d="M667.437 514.309C667.826 510.095 667.826 505.855 667.437 501.641C667.047 505.855 667.047 510.095 667.437 514.309Z" fill="#263238"/>
<path d="M671.276 514.309C671.666 510.095 671.666 505.855 671.276 501.641C670.887 505.855 670.887 510.095 671.276 514.309Z" fill="#263238"/>
<path d="M659.005 514.309C659.394 510.095 659.394 505.855 659.005 501.641C658.616 505.855 658.616 510.095 659.005 514.309Z" fill="#263238"/>
<path d="M662.845 514.309C663.234 510.095 663.234 505.855 662.845 501.641C662.456 505.855 662.456 510.095 662.845 514.309Z" fill="#263238"/>
<path d="M650.563 514.309C650.952 510.095 650.952 505.855 650.563 501.641C650.173 505.855 650.173 510.095 650.563 514.309Z" fill="#263238"/>
<path d="M654.402 514.309C654.792 510.095 654.792 505.855 654.402 501.641C654.013 505.855 654.013 510.095 654.402 514.309Z" fill="#263238"/>
<path d="M642.165 514.309C642.554 510.095 642.554 505.855 642.165 501.641C641.776 505.855 641.776 510.095 642.165 514.309Z" fill="#263238"/>
<path d="M645.96 514.309C646.349 510.095 646.349 505.855 645.96 501.641C645.571 505.855 645.571 510.095 645.96 514.309Z" fill="#263238"/>
<path d="M633.69 514.309C634.079 510.095 634.079 505.855 633.69 501.641C633.3 505.855 633.3 510.095 633.69 514.309Z" fill="#263238"/>
<path d="M637.528 514.309C637.918 510.095 637.918 505.855 637.528 501.641C637.139 505.855 637.139 510.095 637.528 514.309Z" fill="#263238"/>
<path d="M625.247 514.309C625.636 510.095 625.636 505.855 625.247 501.641C624.858 505.855 624.858 510.095 625.247 514.309Z" fill="#263238"/>
<path d="M629.086 514.309C629.475 510.095 629.475 505.855 629.086 501.641C628.697 505.855 628.697 510.095 629.086 514.309Z" fill="#263238"/>
<path d="M616.805 514.309C617.194 510.095 617.194 505.855 616.805 501.641C616.416 505.855 616.416 510.095 616.805 514.309Z" fill="#263238"/>
<path d="M620.655 514.309C621.045 510.095 621.045 505.855 620.655 501.641C620.251 505.854 620.251 510.096 620.655 514.309Z" fill="#263238"/>
<path d="M608.373 514.309C608.762 510.095 608.762 505.855 608.373 501.641C607.984 505.855 607.984 510.095 608.373 514.309Z" fill="#263238"/>
<path d="M612.213 514.309C612.602 510.095 612.602 505.855 612.213 501.641C611.824 505.855 611.824 510.095 612.213 514.309Z" fill="#263238"/>
<path d="M604.096 501.45C604.096 501.607 619.892 501.742 639.37 501.742C658.849 501.742 674.645 501.607 674.645 501.45C674.645 501.293 658.86 501.158 639.37 501.158C619.881 501.158 604.096 501.304 604.096 501.45Z" fill="#263238"/>
<path d="M597.045 514.399H667.279V527.167H597.045V514.399Z" fill="#19B690"/>
<path d="M660.398 527.257C660.787 523.044 660.787 518.803 660.398 514.59C660.008 518.803 660.008 523.044 660.398 527.257Z" fill="#263238"/>
<path d="M664.237 527.257C664.627 523.044 664.627 518.803 664.237 514.59C663.848 518.803 663.848 523.044 664.237 527.257Z" fill="#263238"/>
<path d="M651.966 527.257C652.355 523.044 652.355 518.803 651.966 514.59C651.577 518.803 651.577 523.044 651.966 527.257Z" fill="#263238"/>
<path d="M655.806 527.257C656.195 523.044 656.195 518.803 655.806 514.59C655.417 518.803 655.417 523.044 655.806 527.257Z" fill="#263238"/>
<path d="M643.524 527.257C643.913 523.044 643.913 518.803 643.524 514.59C643.134 518.803 643.134 523.044 643.524 527.257Z" fill="#263238"/>
<path d="M647.363 527.257C647.753 523.044 647.753 518.803 647.363 514.59C646.974 518.803 646.974 523.044 647.363 527.257Z" fill="#263238"/>
<path d="M635.081 527.257C635.47 523.044 635.47 518.803 635.081 514.59C634.692 518.803 634.692 523.044 635.081 527.257Z" fill="#263238"/>
<path d="M638.932 527.257C639.321 523.044 639.321 518.803 638.932 514.59C638.528 518.802 638.528 523.044 638.932 527.257Z" fill="#263238"/>
<path d="M626.65 527.257C627.04 523.044 627.04 518.803 626.65 514.59C626.261 518.803 626.261 523.044 626.65 527.257Z" fill="#263238"/>
<path d="M630.489 527.257C630.879 523.044 630.879 518.803 630.489 514.59C630.1 518.803 630.1 523.044 630.489 527.257Z" fill="#263238"/>
<path d="M618.208 527.257C618.597 523.044 618.597 518.803 618.208 514.59C617.819 518.803 617.819 523.044 618.208 527.257Z" fill="#263238"/>
<path d="M622.047 527.257C622.436 523.044 622.436 518.803 622.047 514.59C621.658 518.803 621.658 523.044 622.047 527.257Z" fill="#263238"/>
<path d="M609.765 527.257C610.154 523.044 610.154 518.803 609.765 514.59C609.376 518.803 609.376 523.044 609.765 527.257Z" fill="#263238"/>
<path d="M613.616 527.257C614.006 523.044 614.006 518.803 613.616 514.59C613.227 518.803 613.227 523.044 613.616 527.257Z" fill="#263238"/>
<path d="M601.334 527.257C601.723 523.044 601.723 518.803 601.334 514.59C600.945 518.803 600.945 523.044 601.334 527.257Z" fill="#263238"/>
<path d="M605.117 527.257C605.506 523.044 605.506 518.803 605.117 514.59C604.728 518.803 604.728 523.044 605.117 527.257Z" fill="#263238"/>
<path d="M597.056 514.399C597.056 514.567 612.852 514.691 632.33 514.691C651.809 514.691 667.604 514.567 667.604 514.399C667.604 514.23 651.82 514.106 632.33 514.106C612.841 514.106 597.056 514.241 597.056 514.399Z" fill="#263238"/>
<g opacity="0.3">
<path opacity="0.3" d="M668.817 488.783C658.186 491.219 647.244 492.015 636.372 491.143C625.595 490.435 614.716 488.895 603.916 488.974L668.817 488.783Z" fill="black"/>
</g>
<g opacity="0.3">
<path opacity="0.3" d="M668.178 476.07C657.549 478.505 646.613 479.304 635.744 478.442C624.966 477.722 614.076 476.138 603.276 476.261L668.178 476.07Z" fill="black"/>
</g>
<g opacity="0.3">
<path opacity="0.3" d="M664.787 501.574C654.155 504.008 643.215 504.808 632.342 503.945C621.564 503.226 610.686 501.641 599.886 501.765L664.787 501.574Z" fill="black"/>
</g>
<g opacity="0.3">
<path opacity="0.3" d="M667.538 514.331C656.905 516.757 645.965 517.553 635.093 516.692C624.315 515.972 613.437 514.387 602.637 514.511L667.538 514.331Z" fill="black"/>
</g>
<path d="M668.672 471.687C669.061 469.372 669.061 467.009 668.672 464.695C668.283 467.009 668.283 469.372 668.672 471.687Z" fill="white"/>
<path d="M673.095 485.332C673.484 482.848 673.484 480.319 673.095 477.835C672.706 480.319 672.706 482.848 673.095 485.332Z" fill="white"/>
<path d="M666.797 498.46C667.186 496.263 667.186 494.015 666.797 491.817C666.408 494.015 666.408 496.263 666.797 498.46Z" fill="white"/>
<path d="M673.263 510.577C673.667 508.608 673.667 506.577 673.263 504.609C672.874 506.579 672.874 508.607 673.263 510.577Z" fill="white"/>
<path d="M647.543 476.981C647.543 477.138 652.73 477.273 659.129 477.273C665.528 477.273 670.715 477.138 670.715 476.981C666.86 476.684 662.993 476.587 659.129 476.688C655.265 476.587 651.397 476.684 647.543 476.981Z" fill="white"/>
<path d="M640.055 464.695C643.935 464.992 647.829 465.089 651.719 464.988C655.61 465.089 659.503 464.992 663.384 464.695C663.384 464.538 658.163 464.403 651.719 464.403C645.275 464.403 640.055 464.538 640.055 464.695Z" fill="white"/>
<path d="M628.817 464.875C631.354 465.265 633.936 465.265 636.474 464.875C633.936 464.485 631.354 464.485 628.817 464.875Z" fill="white"/>
</svg>
