<svg width="554" height="537" viewBox="0 0 554 537" fill="none" xmlns="http://www.w3.org/2000/svg">
<path d="M470.655 197.673C450.947 179.845 421.652 177.62 395.261 180.768C368.869 183.916 348.782 193.083 322.264 191.331C303.041 190.062 281.674 180.722 267.695 164.808C260.51 156.423 255.861 146.163 254.292 135.23C250.154 108.315 243.424 90.787 222.08 76.6263C198.536 60.9895 167.131 59.5826 140.786 69.7996C114.441 80.0166 93.0164 100.796 78.553 125.151C50.2141 172.961 48.5891 234.516 70.3706 285.636C92.1521 336.755 136.107 377.046 187.218 398.668C238.33 420.29 296.31 424.038 350.868 413.29C390.19 405.575 429.466 389.627 456.122 359.68C476.013 337.343 487.653 308.387 491.964 278.774C496.135 249.911 492.24 217.207 470.655 197.673Z" fill="#E8F9F5"/>
<path d="M542.178 528.756C542.178 528.929 431.749 529.055 295.551 529.055C159.354 529.055 48.9248 528.975 48.9248 528.756C48.9248 528.537 159.33 528.456 295.551 528.456C431.772 528.456 542.178 528.594 542.178 528.756Z" fill="#263238"/>
<path d="M234.159 154.038C234.159 154.038 293.857 216.619 292.808 230.515C291.759 244.41 278.391 247.409 274.034 246.867C269.678 246.325 236.844 209.758 236.844 209.758L234.159 154.038Z" fill="#19B690"/>
<g opacity="0.4">
<path opacity="0.4" d="M234.159 154.038C234.159 154.038 293.857 216.619 292.808 230.515C291.759 244.41 278.391 247.409 274.034 246.867C269.678 246.325 236.844 209.758 236.844 209.758L234.159 154.038Z" fill="black"/>
</g>
<path d="M265.967 463.222L282.159 517.408L300.345 507.526L290.008 457.917L265.967 463.222Z" fill="#985952"/>
<path d="M298.121 483.679L303.687 509.371C303.687 509.371 331.623 512.323 333.109 516.959L283.795 529.517L273.423 489.906L298.121 483.679Z" fill="#808080"/>
<path d="M287.898 511.089C287.461 511.354 287.136 511.771 286.987 512.261C286.838 512.75 286.876 513.278 287.091 513.741C287.338 514.189 287.748 514.524 288.235 514.676C288.723 514.829 289.25 514.787 289.707 514.56C290.171 514.279 290.514 513.835 290.669 513.315C290.824 512.796 290.782 512.237 290.549 511.747C290.241 511.307 289.775 511.004 289.248 510.9C288.722 510.797 288.176 510.902 287.725 511.193" fill="#E0E0E0"/>
<g opacity="0.4">
<path opacity="0.4" d="M283.796 529.517L282.874 525.515L330.493 514.941C330.493 514.941 332.925 515.344 333.075 516.947L283.796 529.517Z" fill="black"/>
</g>
<path d="M304.425 508.875C304.482 509.117 303.272 509.532 302.316 510.616C301.359 511.7 300.956 512.865 300.714 512.819C300.472 512.773 300.472 511.297 301.682 510.017C302.892 508.737 304.425 508.644 304.425 508.875Z" fill="#263238"/>
<path d="M310.141 509.694C310.256 509.913 309.323 510.593 308.758 511.816C308.193 513.038 308.239 514.18 307.997 514.238C307.755 514.295 307.26 512.957 307.997 511.447C308.735 509.936 310.083 509.463 310.141 509.694Z" fill="#263238"/>
<path d="M314.659 515.137C314.451 515.241 313.818 514.122 314.094 512.646C314.371 511.17 315.373 510.34 315.523 510.536C315.673 510.732 315.154 511.597 314.947 512.842C314.74 514.087 314.901 515.056 314.659 515.137Z" fill="#263238"/>
<path d="M302.465 503.167C302.465 503.421 301.221 503.363 299.884 503.801C298.547 504.24 297.579 504.954 297.418 504.77C297.256 504.585 298.04 503.478 299.63 502.983C301.221 502.487 302.581 502.948 302.465 503.167Z" fill="#263238"/>
<path d="M301.313 498.012C300.56 498.444 299.703 498.659 298.835 498.635C297.904 498.704 296.967 498.658 296.046 498.497C295.502 498.413 294.966 498.281 294.445 498.105C294.126 498.027 293.823 497.899 293.546 497.724C293.343 497.593 293.19 497.398 293.111 497.171C293.032 496.943 293.031 496.696 293.108 496.467C293.184 496.269 293.307 496.091 293.465 495.948C293.623 495.806 293.813 495.703 294.018 495.648C294.334 495.564 294.66 495.525 294.986 495.533C295.542 495.531 296.098 495.577 296.646 495.671C297.576 495.83 298.475 496.138 299.308 496.583C300.726 497.355 301.348 498.151 301.279 498.22C301.21 498.289 300.437 497.713 299.054 497.136C298.245 496.805 297.397 496.576 296.531 496.456C296.022 496.391 295.51 496.368 294.998 496.386C294.445 496.386 293.995 496.49 293.926 496.755C293.857 497.021 293.926 496.894 294.053 497.021C294.256 497.15 294.477 497.247 294.71 497.309C295.197 497.473 295.693 497.608 296.196 497.713C297.061 497.895 297.94 498 298.824 498.024C299.653 497.967 300.484 497.963 301.313 498.012Z" fill="#263238"/>
<path d="M301.06 498.439C300.991 498.497 300.288 497.759 299.804 496.225C299.525 495.322 299.404 494.378 299.446 493.434C299.473 492.871 299.554 492.311 299.688 491.762C299.742 491.402 299.887 491.062 300.109 490.774C300.331 490.485 300.622 490.258 300.956 490.113C301.169 490.068 301.39 490.085 301.594 490.16C301.798 490.236 301.976 490.367 302.108 490.54C302.309 490.796 302.472 491.079 302.592 491.382C302.826 491.912 302.97 492.477 303.019 493.054C303.121 494.011 302.983 494.978 302.616 495.868C301.982 497.401 301.048 497.943 301.014 497.863C301.399 497.153 301.741 496.422 302.039 495.672C302.286 494.854 302.353 493.992 302.235 493.146C302.163 492.656 302.023 492.179 301.82 491.728C301.613 491.22 301.302 490.851 301.129 490.955C300.956 491.059 300.564 491.52 300.472 491.981C300.332 492.471 300.239 492.973 300.195 493.481C300.123 494.344 300.173 495.214 300.345 496.064C300.691 497.54 301.187 498.37 301.06 498.439Z" fill="#263238"/>
<path d="M222.024 308.722C222.623 311.12 264.895 483.713 264.895 483.713L303.284 472.113L267.039 297.294L222.024 308.722Z" fill="#263238"/>
<path d="M216.365 88.1809L209.658 139.75C209.389 141.828 209.545 143.939 210.115 145.955C210.686 147.97 211.659 149.849 212.977 151.477C214.295 153.106 215.93 154.449 217.782 155.426C219.634 156.403 221.665 156.994 223.752 157.163C227.712 157.48 231.641 156.26 234.727 153.757C237.812 151.254 239.817 147.659 240.325 143.717C240.82 139.831 241.247 136.602 241.327 136.198C241.327 136.198 254.615 136.683 257.243 123.813C258.522 117.586 260.101 104.567 261.403 92.7704C262.072 86.6569 260.416 80.5156 256.764 75.5687C253.112 70.6219 247.733 67.2324 241.696 66.0749L240.452 65.8327C226.887 64.0338 217.794 74.5621 216.365 88.1809Z" fill="#985952"/>
<path d="M241.385 136.025C235.405 134.972 229.873 132.162 225.493 127.953C225.493 127.953 227.682 137.997 240.774 139.312L241.385 136.025Z" fill="#643E2A"/>
<path d="M257.716 100.058C257.626 100.538 257.353 100.963 256.955 101.245C256.557 101.527 256.065 101.643 255.584 101.569C255.113 101.5 254.69 101.249 254.405 100.868C254.119 100.488 253.996 100.01 254.062 99.5394C254.15 99.0587 254.422 98.6312 254.82 98.3488C255.219 98.0664 255.712 97.9516 256.194 98.0288C256.664 98.0973 257.088 98.3493 257.373 98.7296C257.658 99.1099 257.781 99.5876 257.716 100.058Z" fill="#263238"/>
<path d="M257.819 97.8328C257.554 98.0288 256.356 96.6796 254.362 96.3567C252.368 96.0338 250.732 96.6911 250.57 96.3567C250.409 96.0223 250.801 95.8378 251.515 95.5034C252.49 95.0785 253.572 94.9619 254.615 95.169C255.646 95.3579 256.588 95.8757 257.301 96.645C257.831 97.2793 257.957 97.7521 257.819 97.8328Z" fill="#263238"/>
<path d="M237.79 97.2216C237.7 97.704 237.426 98.1325 237.026 98.4166C236.626 98.7006 236.131 98.8179 235.646 98.7437C235.408 98.7167 235.178 98.6425 234.969 98.5253C234.76 98.4081 234.577 98.2503 234.43 98.0613C234.283 97.8722 234.175 97.6557 234.113 97.4243C234.05 97.193 234.035 96.9516 234.067 96.7142C234.157 96.2348 234.43 95.8092 234.828 95.5273C235.226 95.2454 235.717 95.1293 236.199 95.2035C236.437 95.2292 236.667 95.3021 236.877 95.4179C237.086 95.5338 237.27 95.6903 237.418 95.8782C237.566 96.0661 237.675 96.2817 237.739 96.5124C237.803 96.7431 237.82 96.9842 237.79 97.2216Z" fill="#263238"/>
<path d="M238.008 94.7192C237.732 94.9153 236.533 93.5661 234.551 93.2432C232.569 92.9203 230.921 93.5776 230.748 93.2432C230.575 92.9088 230.978 92.7358 231.704 92.3899C232.675 91.9645 233.753 91.8478 234.793 92.0554C235.825 92.2498 236.769 92.7665 237.49 93.5315C238.02 94.1657 238.147 94.6385 238.008 94.7192Z" fill="#263238"/>
<path d="M242.238 111.279C243.344 111.139 244.463 111.139 245.569 111.279C246.076 111.279 246.583 111.279 246.721 110.979C246.876 110.471 246.876 109.929 246.721 109.422L245.961 105.271C244.935 99.3895 244.301 94.5809 244.532 94.5463C244.762 94.5117 245.799 99.2511 246.837 105.132C247.067 106.585 247.298 107.969 247.517 109.295C247.718 109.964 247.678 110.683 247.401 111.325C247.293 111.49 247.148 111.629 246.979 111.731C246.809 111.833 246.619 111.895 246.422 111.913C246.131 111.944 245.837 111.944 245.546 111.913C244.422 111.831 243.312 111.618 242.238 111.279Z" fill="#263238"/>
<path d="M239.368 90.6832C239.069 91.1906 237.144 90.5564 234.758 90.3834C232.373 90.2104 230.379 90.4872 230.149 89.9452C230.045 89.6915 230.471 89.2418 231.301 88.8728C232.432 88.4111 233.658 88.2291 234.874 88.3423C236.096 88.4228 237.281 88.7945 238.331 89.4263C239.149 89.9452 239.507 90.441 239.368 90.6832Z" fill="#263238"/>
<path d="M258.741 90.6255C258.303 91.0061 257.024 90.268 255.388 89.9336C253.751 89.5992 252.299 89.6569 252.069 89.1264C251.976 88.8727 252.276 88.4576 252.967 88.1462C253.877 87.7887 254.871 87.7073 255.826 87.9124C256.782 88.1176 257.655 88.6 258.338 89.2994C258.833 89.9336 258.937 90.4295 258.741 90.6255Z" fill="#263238"/>
<path d="M215.593 97.9366C215.386 97.7982 207.238 93.6123 205.82 102.48C204.403 111.348 213.599 110.944 213.657 110.69C213.715 110.437 215.593 97.9366 215.593 97.9366Z" fill="#985952"/>
<path d="M211.479 106.92C211.479 106.92 211.317 107 211.029 107.081C210.836 107.132 210.635 107.145 210.437 107.117C210.239 107.089 210.048 107.022 209.877 106.92C208.989 106.435 208.436 104.821 208.655 103.206C208.752 102.442 209.02 101.709 209.439 101.062C209.565 100.798 209.754 100.57 209.989 100.397C210.224 100.224 210.498 100.112 210.787 100.07C210.971 100.052 211.156 100.098 211.309 100.201C211.463 100.304 211.576 100.458 211.628 100.635C211.709 100.9 211.628 101.073 211.628 101.096C211.628 101.119 211.836 100.969 211.824 100.6C211.808 100.369 211.715 100.15 211.559 99.9777C211.339 99.7623 211.048 99.6351 210.741 99.6202C210.362 99.6393 209.995 99.7553 209.674 99.9572C209.353 100.159 209.09 100.44 208.909 100.773C208.411 101.482 208.094 102.301 207.987 103.16C207.756 104.959 208.402 106.781 209.623 107.358C209.851 107.463 210.098 107.518 210.349 107.518C210.6 107.518 210.848 107.463 211.075 107.358C211.421 107.116 211.513 106.92 211.479 106.92Z" fill="#643E2A"/>
<path d="M210.741 96.6911C211.591 96.7973 212.395 97.1322 213.069 97.6603C213.743 98.1884 214.261 98.8897 214.567 99.6893C214.902 101.05 214.752 102.503 215.074 103.875C215.397 105.248 216.48 106.631 217.886 106.574C218.37 106.516 218.83 106.333 219.221 106.041C219.611 105.75 219.918 105.361 220.111 104.913C220.482 104.013 220.677 103.05 220.687 102.076C220.952 97.8558 220.871 93.6007 221.505 89.3917C221.967 85.1469 223.676 81.1342 226.415 77.8601C229.273 74.7466 233.767 72.9246 237.836 74.0547C240.532 74.7927 242.768 76.7069 245.419 77.6179C246.998 78.1434 248.675 78.3023 250.325 78.0825C251.974 77.8627 253.552 77.2701 254.938 76.3495C255.091 76.2501 255.253 76.1652 255.422 76.0958C255.904 75.8747 256.3 75.5006 256.548 75.0315C256.796 74.5623 256.882 74.0244 256.794 73.5012C256.749 73.1626 256.627 72.839 256.436 72.5556C251.999 66.5592 242.538 63.3303 235.07 63.757C227.602 64.1837 219.938 67.9314 215.582 74.0316C211.225 80.1318 210.349 89.5992 210.741 96.6911Z" fill="#263238"/>
<path d="M246.226 117.298C244.301 117.017 242.456 116.338 240.809 115.303C241.786 115.343 242.744 115.586 243.621 116.018C244.568 116.261 245.455 116.697 246.226 117.298Z" fill="#263238"/>
<path d="M255.86 127.238C255.689 128.113 255.314 128.935 254.765 129.637C253.514 131.386 251.862 132.809 249.948 133.788C248.052 134.75 246.031 135.441 243.943 135.841C243.096 136.077 242.219 136.19 241.339 136.175C242.15 135.856 242.987 135.605 243.84 135.426C245.855 134.911 247.809 134.184 249.671 133.258C251.507 132.313 253.125 130.993 254.419 129.383C255.399 128.126 255.768 127.192 255.86 127.238Z" fill="#643E2A"/>
<path d="M249.614 133.823C246.49 135.38 244.197 139.589 242.215 142.379C241.541 143.178 241.06 144.121 240.809 145.135C240.716 146.238 240.91 147.347 241.374 148.353C241.938 149.886 242.526 151.397 243.217 152.896C243.402 153.334 243.644 153.807 244.105 153.911C244.566 154.015 245.165 153.473 245.407 152.931C245.848 151.526 246.092 150.067 246.133 148.595C246.172 147.86 246.389 147.146 246.767 146.515C247.145 145.884 247.671 145.355 248.3 144.974" fill="#643E2A"/>
<path d="M254.546 145.331L251.515 143.025C251.332 142.873 251.097 142.799 250.86 142.819C250.623 142.838 250.403 142.949 250.247 143.129L248.634 144.997L249.487 149.713C250.478 155.767 246.029 154.822 246.029 154.822L245.672 153.669L243.701 146.288C243.31 142.76 243.586 142.345 245.303 139.796L249.06 134.422C249.438 133.857 249.995 133.436 250.641 133.227C251.287 133.018 251.985 133.033 252.622 133.269C258.015 135.264 269.643 138.862 270.957 143.44C273.343 151.766 275.267 173.019 275.302 173.422L258.833 174.956L258.914 160.784C257.465 159.88 256.374 158.503 255.825 156.886C255.134 154.384 254.546 145.354 254.546 145.354" fill="#985952"/>
<path d="M265.921 148.11C265.921 148.11 265.748 148.399 265.299 148.779C264.657 149.339 263.89 149.734 263.063 149.932C262.475 150.065 261.865 150.065 261.277 149.932C260.58 149.756 259.962 149.35 259.525 148.779C258.557 147.626 258.372 145.989 257.566 144.801C257.07 144.257 256.5 143.787 255.872 143.405C255.28 143.024 254.664 142.681 254.028 142.379C253.519 142.074 252.938 141.911 252.345 141.906C251.845 142.067 251.388 142.339 251.008 142.702C249.522 144.074 248.703 145.112 248.623 145.008C248.542 144.905 248.772 144.72 249.118 144.247C249.605 143.582 250.14 142.954 250.72 142.368C251.142 141.93 251.664 141.601 252.241 141.411C252.424 141.375 252.612 141.375 252.794 141.411C252.966 141.441 253.136 141.483 253.302 141.537C253.63 141.633 253.95 141.757 254.258 141.906C254.926 142.196 255.57 142.539 256.183 142.933C256.882 143.342 257.513 143.859 258.05 144.466C259.018 145.873 259.133 147.476 259.951 148.456C260.317 148.885 260.792 149.208 261.325 149.39C261.858 149.573 262.43 149.609 262.982 149.494C263.762 149.348 264.504 149.041 265.16 148.595C265.587 148.272 265.886 148.076 265.921 148.11Z" fill="#643E2A"/>
<path d="M264.1 153.115C260.952 152.93 257.885 152.043 255.123 150.52C256.66 150.8 258.171 151.209 259.64 151.743C261.162 152.077 262.654 152.536 264.1 153.115Z" fill="#643E2A"/>
<path d="M258.257 145.4C253.947 145.4 253.44 145.204 248.565 145.47C247.837 145.474 247.114 145.591 246.421 145.816C246.074 145.93 245.759 146.126 245.503 146.387C245.246 146.648 245.056 146.966 244.946 147.315C244.612 148.652 245.96 149.863 247.251 150.175C248.542 150.486 250.017 150.244 251.354 150.555C253.477 150.931 255.394 152.056 256.759 153.726C259.571 157.705 262.521 155.79 264.434 157.186L269.459 154.003L267.684 146.577L258.211 145.424" fill="#985952"/>
<path d="M264.918 157.22C264.482 157.018 264.021 156.875 263.547 156.794C262.188 156.777 260.842 156.539 259.559 156.09C258.704 155.658 257.956 155.039 257.37 154.28C256.782 153.427 256.025 152.705 255.145 152.158C254.163 151.578 253.098 151.151 251.988 150.889C250.756 150.698 249.512 150.591 248.265 150.567C247.575 150.526 246.911 150.286 246.352 149.877C245.794 149.468 245.366 148.907 245.119 148.26C245.026 147.923 245.022 147.567 245.106 147.228C245.191 146.888 245.362 146.577 245.603 146.323C246.033 145.859 246.59 145.534 247.205 145.389C248.272 145.216 249.351 145.127 250.432 145.124C251.423 145.124 252.356 145.124 253.209 145.124C254.915 145.124 256.275 145.239 257.22 145.285C257.714 145.276 258.208 145.315 258.695 145.4C258.21 145.501 257.714 145.54 257.22 145.516C256.275 145.516 254.915 145.516 253.209 145.516C252.368 145.516 251.446 145.516 250.455 145.62C249.411 145.635 248.371 145.735 247.343 145.919C246.364 146.127 245.361 147.072 245.684 148.087C245.908 148.615 246.277 149.069 246.748 149.395C247.219 149.722 247.773 149.908 248.346 149.932C249.613 149.957 250.876 150.073 252.126 150.278C253.298 150.563 254.418 151.03 255.445 151.662C256.368 152.258 257.154 153.045 257.75 153.968C258.279 154.688 258.96 155.283 259.744 155.71C260.978 156.17 262.269 156.457 263.581 156.563C263.953 156.63 264.309 156.767 264.63 156.967C264.838 157.116 264.93 157.197 264.918 157.22Z" fill="#643E2A"/>
<path d="M257.773 142.033C257.773 141.964 258.084 141.906 258.534 142.102C258.825 142.243 259.077 142.453 259.267 142.715C259.458 142.976 259.582 143.28 259.627 143.6C259.673 143.92 259.639 144.246 259.529 144.55C259.418 144.854 259.235 145.126 258.995 145.343C258.626 145.666 258.315 145.689 258.28 145.62C258.246 145.55 258.465 145.389 258.684 145.066C258.963 144.662 259.089 144.171 259.041 143.682C258.945 143.223 258.687 142.814 258.315 142.529C258.015 142.218 257.762 142.125 257.773 142.033Z" fill="#643E2A"/>
<path d="M267.419 335.337L246.398 387.84L266.797 391.426L289.547 346.142L267.419 335.337Z" fill="#985952"/>
<path d="M279.866 371.361L268.341 394.92C268.341 394.92 288.371 414.605 286.654 419.137L240.209 398.299L256.747 360.868L279.866 371.361Z" fill="#808080"/>
<path d="M254.834 386.468C254.324 386.393 253.804 386.513 253.377 386.803C252.95 387.094 252.648 387.534 252.529 388.036C252.437 388.544 252.545 389.069 252.831 389.499C253.117 389.929 253.558 390.231 254.062 390.342C254.601 390.41 255.146 390.276 255.591 389.965C256.036 389.654 256.349 389.188 256.471 388.659C256.506 388.122 256.331 387.593 255.982 387.184C255.633 386.774 255.139 386.518 254.604 386.468" fill="#E0E0E0"/>
<g opacity="0.4">
<path opacity="0.4" d="M240.164 398.334L241.835 394.563L285.836 415.965C285.836 415.965 287.495 417.787 286.608 419.148L240.164 398.334Z" fill="black"/>
</g>
<path d="M269.148 395.013C269.044 395.243 267.857 394.84 266.416 395.07C264.976 395.301 263.95 395.981 263.789 395.797C263.627 395.612 264.538 394.459 266.29 394.205C268.041 393.952 269.286 394.828 269.148 395.013Z" fill="#263238"/>
<path d="M273.112 399.222C273.112 399.464 271.96 399.406 270.715 400.017C269.471 400.628 268.837 401.551 268.618 401.436C268.399 401.32 268.825 399.983 270.335 399.245C271.845 398.507 273.205 399.002 273.112 399.222Z" fill="#263238"/>
<path d="M273.274 406.29C273.043 406.29 273.274 404.976 274.426 403.984C275.579 402.992 276.858 402.981 276.869 403.212C276.881 403.442 275.924 403.811 275.002 404.63C274.08 405.449 273.504 406.371 273.274 406.29Z" fill="#263238"/>
<path d="M271.188 389.362C271.003 389.524 270.104 388.739 268.779 388.209C267.454 387.678 266.278 387.678 266.255 387.425C266.232 387.171 267.546 386.802 269.09 387.425C270.635 388.047 271.349 389.224 271.188 389.362Z" fill="#263238"/>
<path d="M273.447 384.565C272.598 384.422 271.803 384.055 271.142 383.504C270.369 382.982 269.665 382.366 269.044 381.671C268.674 381.259 268.334 380.819 268.03 380.356C267.828 380.096 267.672 379.804 267.569 379.491C267.491 379.264 267.491 379.018 267.571 378.792C267.65 378.566 267.804 378.373 268.007 378.246C268.19 378.138 268.396 378.074 268.608 378.06C268.82 378.046 269.033 378.082 269.229 378.165C269.524 378.3 269.799 378.475 270.047 378.684C270.49 379.032 270.903 379.418 271.28 379.837C271.905 380.545 272.414 381.346 272.79 382.213C273.222 382.971 273.404 383.847 273.308 384.715C273.17 384.715 272.963 383.792 272.237 382.478C271.818 381.712 271.299 381.006 270.692 380.379C270.332 380.015 269.947 379.676 269.54 379.364C269.102 379.018 268.687 378.822 268.468 378.995C268.249 379.168 268.364 379.087 268.399 379.272C268.478 379.499 268.591 379.712 268.733 379.906C269.015 380.34 269.319 380.76 269.644 381.163C270.21 381.84 270.834 382.465 271.51 383.031C272.651 383.988 273.504 384.438 273.447 384.565Z" fill="#263238"/>
<path d="M272.997 384.749C272.854 383.891 272.991 383.01 273.389 382.236C273.734 381.354 274.229 380.538 274.852 379.825C275.22 379.401 275.629 379.015 276.074 378.672C276.339 378.422 276.663 378.245 277.016 378.156C277.369 378.067 277.739 378.07 278.091 378.165C278.292 378.266 278.462 378.421 278.582 378.612C278.702 378.803 278.767 379.023 278.771 379.249C278.767 379.577 278.716 379.903 278.621 380.218C278.471 380.772 278.238 381.301 277.929 381.786C277.402 382.594 276.691 383.266 275.855 383.746C275.496 384 275.09 384.18 274.66 384.275C274.231 384.37 273.787 384.378 273.354 384.3C274.099 383.982 274.826 383.624 275.532 383.227C276.23 382.733 276.816 382.096 277.249 381.359C277.494 380.932 277.68 380.475 277.803 379.998C277.952 379.48 277.941 378.995 277.733 378.961C277.525 378.942 277.314 378.968 277.116 379.035C276.918 379.103 276.735 379.211 276.581 379.353C276.169 379.653 275.783 379.989 275.429 380.356C274.836 380.99 274.336 381.704 273.942 382.478C273.273 383.815 273.135 384.83 272.997 384.749Z" fill="#263238"/>
<path d="M227.187 272.374L291.909 240.686C297.456 237.967 303.732 237.112 309.804 238.248C315.875 239.385 321.418 242.452 325.607 246.993C329.52 251.238 332.062 256.564 332.903 262.277C333.744 267.99 332.844 273.824 330.321 279.017L287.38 367.371L251.458 356.001L283.047 288.657L247.505 315.756C237.908 323.067 226.203 327.072 214.141 327.172L204.829 327.253C197.162 326.934 189.707 324.644 183.181 320.605C176.655 316.565 171.279 310.912 167.57 304.19L227.187 272.374Z" fill="#263238"/>
<path d="M287.38 367.348C287.38 367.348 287.149 367.348 286.711 367.175L284.81 366.61L277.561 364.396L251.377 356.243L251.123 356.163L251.238 355.909C257.577 342.348 265.483 325.454 274.023 307.177C277.054 300.742 279.992 294.492 282.781 288.542L283.219 288.899C266.923 301.053 252.333 311.144 241.569 317.786C237.389 320.445 233.039 322.825 228.547 324.912C227.331 325.462 226.065 325.89 224.766 326.192C224.43 326.271 224.086 326.317 223.741 326.331H223.395C223.395 326.331 223.868 326.331 224.743 326.077C226.021 325.732 227.267 325.277 228.466 324.716C232.913 322.561 237.223 320.135 241.373 317.451C252.068 310.728 266.601 300.581 282.862 288.426L283.807 287.723L283.311 288.784C280.522 294.723 277.549 300.984 274.576 307.419C265.99 325.685 258.049 342.555 251.676 356.105L251.527 355.771L277.641 364.12L284.856 366.426L286.734 367.06L287.38 367.348Z" fill="#455A64"/>
<path d="M295.217 274.035C292.463 275.843 289.956 278.002 287.76 280.458C285.722 283.049 284.036 285.899 282.747 288.934C282.886 287.961 283.174 287.016 283.6 286.132C285.463 281.729 288.597 277.983 292.601 275.373C293.398 274.793 294.28 274.341 295.217 274.035Z" fill="#455A64"/>
<path d="M158.005 399.06H251.1C251.721 399.057 252.319 399.296 252.767 399.726C253.214 400.157 253.477 400.745 253.498 401.366C253.505 401.687 253.449 402.005 253.332 402.304C253.215 402.602 253.04 402.874 252.817 403.104C252.594 403.334 252.327 403.517 252.032 403.642C251.737 403.767 251.421 403.833 251.1 403.834H158.005C157.371 403.831 156.764 403.577 156.317 403.128C155.87 402.678 155.619 402.07 155.619 401.436C155.622 400.805 155.875 400.2 156.322 399.755C156.769 399.31 157.374 399.06 158.005 399.06Z" fill="#E0E0E0"/>
<path d="M238.862 339.753H166.038C166.038 337.9 166.402 336.064 167.111 334.352C167.82 332.639 168.859 331.083 170.169 329.773C171.479 328.462 173.034 327.422 174.746 326.713C176.457 326.004 178.291 325.639 180.144 325.639H224.744C226.597 325.637 228.433 326.001 230.146 326.71C231.858 327.418 233.415 328.458 234.726 329.769C236.037 331.079 237.077 332.636 237.787 334.349C238.496 336.062 238.862 337.899 238.862 339.753Z" fill="#455A64"/>
<path d="M241.143 339.753H164.32V344.031H241.143V339.753Z" fill="#E0E0E0"/>
<path d="M171.154 344.043L152.369 529.309H156.795L179.717 344.043H171.154Z" fill="#E0E0E0"/>
<path d="M233.733 344.043L252.506 529.217L248.093 529.24L225.182 344.112L233.733 344.043Z" fill="#E0E0E0"/>
<path d="M207.572 342.406L204.403 529.298H199.874L197.892 341.898L207.572 342.406Z" fill="#E0E0E0"/>
<path d="M206.097 139.289L210.66 125.428L240.774 139.369L239.391 154.038L224.386 158.304L209.658 149.275L206.097 139.289Z" fill="#19B690"/>
<path d="M167.628 304.225C166.29 303.276 165.206 302.014 164.47 300.548C163.735 299.082 163.37 297.458 163.41 295.818C163.41 290.26 168.365 289.799 168.527 286.72C170.175 254.95 173.77 189.14 176.144 168.371C179.129 142.195 209.785 136.671 209.785 136.671L235.081 142.887V144.801C243.84 156.067 247.631 173.053 247.643 187.329L246.49 262.953L167.628 304.225Z" fill="#19B690"/>
<path d="M196.013 261.869C195.738 262.328 195.422 262.76 195.067 263.161C194.445 263.968 193.489 265.11 192.29 266.493C189.893 269.272 186.447 272.997 182.39 276.872C178.334 280.746 174.462 284.021 171.58 286.281C170.128 287.435 168.953 288.311 168.123 288.911C167.71 289.25 167.262 289.544 166.786 289.787C167.134 289.396 167.52 289.04 167.939 288.726L171.269 285.959C174.081 283.652 177.907 280.297 181.941 276.433C185.975 272.57 189.467 268.915 191.944 266.217L194.86 262.999C195.204 262.583 195.59 262.204 196.013 261.869Z" fill="#263238"/>
<g opacity="0.2">
<path opacity="0.2" d="M171.085 286.616C171.177 281.83 174.761 277.887 178.311 274.669C182.459 270.897 186.872 267.429 191.518 264.291C191.749 266.597 190.158 268.707 188.614 270.483C183.423 276.414 177.681 281.839 171.465 286.685" fill="black"/>
</g>
<path d="M215.374 136.994C215.486 135.614 215.8 134.258 216.308 132.969C216.619 131.624 217.123 130.33 217.806 129.129C217.694 130.51 217.379 131.866 216.872 133.154C216.555 134.498 216.051 135.79 215.374 136.994Z" fill="#263238"/>
<path d="M227.118 133.062C227.116 134.419 226.91 135.768 226.507 137.063C226.312 138.4 225.924 139.701 225.354 140.926C225.357 139.569 225.562 138.22 225.965 136.925C226.16 135.588 226.548 134.287 227.118 133.062Z" fill="#263238"/>
<path d="M235.865 137.432C235.902 138.651 235.797 139.87 235.554 141.065C235.515 142.288 235.337 143.503 235.023 144.685C234.762 143.469 234.762 142.212 235.023 140.995C235.055 139.762 235.342 138.549 235.865 137.432Z" fill="#263238"/>
<path d="M205.463 211.442C205.046 211.526 204.62 211.557 204.195 211.534C203.366 211.534 202.179 211.534 200.738 211.534C197.799 211.534 193.743 211.534 189.213 211.407C184.684 211.28 180.662 211.211 177.689 211.096C176.214 211.096 175.027 210.992 174.231 210.934C173.801 210.945 173.371 210.898 172.952 210.796C173.374 210.721 173.803 210.69 174.231 210.704C175.061 210.704 176.248 210.704 177.689 210.704C180.628 210.704 184.684 210.704 189.213 210.83C193.743 210.957 197.765 211.015 200.738 211.13L204.195 211.292C204.623 211.284 205.049 211.335 205.463 211.442Z" fill="#FAFAFA"/>
<path d="M199.044 201.767C199.044 201.94 193.282 201.94 186.136 201.767C178.991 201.594 173.252 201.363 173.252 201.19C173.252 201.017 179.014 201.017 186.148 201.19C193.282 201.363 199.044 201.605 199.044 201.767Z" fill="#FAFAFA"/>
<g opacity="0.2">
<path opacity="0.2" d="M188.084 186.856C197.304 206.944 208.575 224.98 221.678 242.761C225.055 247.374 228.674 251.987 233.549 254.858C238.423 257.729 241.616 256.968 246.537 254.028C241.086 252.286 239.622 251.721 235.012 248.389C230.517 244.876 226.595 240.686 223.384 235.969C211.859 220.102 200.611 203.762 189.064 187.894" fill="black"/>
</g>
<path d="M283.934 215.42C284.059 214.086 284.422 212.786 285.006 211.58C285.302 210.977 285.752 210.463 286.31 210.09C286.869 209.717 287.516 209.499 288.187 209.458C288.517 209.455 288.845 209.523 289.147 209.658C289.449 209.793 289.719 209.991 289.937 210.24C290.156 210.488 290.319 210.781 290.414 211.097C290.51 211.414 290.536 211.748 290.492 212.076C290.204 212.81 289.768 213.477 289.212 214.036C287.749 216.043 287.887 218.753 287.899 221.232C287.91 223.711 287.599 226.548 285.594 228.036" fill="#985952"/>
<path d="M192.498 157.532C190.188 159.147 188.227 161.212 186.734 163.604C185.241 165.996 184.247 168.665 183.81 171.451C183.373 174.237 183.503 177.082 184.192 179.817C184.881 182.551 186.114 185.118 187.819 187.364L229.93 242.854C234.367 248.629 240.664 252.692 247.752 254.354C254.841 256.017 262.285 255.176 268.825 251.975C274.387 249.247 279.024 244.942 282.16 239.597C285.295 234.251 286.79 228.101 286.458 221.912L277.181 163.563L254.523 164.969L256.667 212.491L221.609 162.64C218.419 158.109 213.564 155.027 208.108 154.07C202.652 153.112 197.039 154.357 192.498 157.532Z" fill="#19B690"/>
<path d="M283.265 238.46C277.687 237.157 276.742 236.154 271.176 234.897C269.516 234.505 267.384 233.432 268.122 231.668C268.327 231.221 268.665 230.848 269.09 230.6C269.515 230.352 270.006 230.242 270.496 230.284C272.663 230.469 276.155 231.76 278.252 231.956C278.771 231.956 278.759 231.484 278.529 231.126C275.137 230.102 271.668 229.354 268.156 228.889C267.662 228.823 267.197 228.613 266.82 228.286C266.443 227.96 266.17 227.529 266.034 227.049C265.898 226.569 265.905 226.059 266.055 225.583C266.205 225.106 266.491 224.684 266.877 224.369C267.34 224.131 267.845 223.986 268.364 223.942C270.6 224.265 270.6 224.265 272.974 224.68C279.646 225.833 278.736 224.518 278.736 224.518C278.736 224.011 271.141 223.273 267.211 222.8C266.36 222.808 265.538 222.495 264.907 221.924C264.625 221.501 264.498 220.993 264.546 220.487C264.594 219.981 264.815 219.507 265.172 219.145C265.508 218.753 265.918 218.432 266.379 218.201C266.84 217.969 267.342 217.831 267.857 217.796C272.202 217.715 286.469 219.306 286.469 219.306C286.469 219.306 288.336 221.843 287.76 227.044C287.172 232.74 283.265 238.46 283.265 238.46Z" fill="#985952"/>
<path d="M263.086 254.028C263.086 254.028 262.879 254.028 262.487 254.12L260.712 254.304C259.145 254.443 256.84 254.662 253.797 254.697C250.16 254.79 246.532 254.288 243.056 253.209C238.514 251.508 234.447 248.739 231.197 245.137C227.246 240.872 223.533 236.39 220.076 231.714C216.285 226.721 212.32 221.336 208.194 215.628C204.069 209.919 199.804 203.888 195.414 197.604L188.764 187.998C188.199 187.179 187.611 186.36 187.081 185.53L186.275 184.25C186.003 183.821 185.761 183.374 185.549 182.913C184.629 181.078 183.992 179.114 183.658 177.089C183.304 175.066 183.265 173.001 183.543 170.966C183.672 169.959 183.864 168.962 184.119 167.979C184.403 167.013 184.745 166.066 185.145 165.142C185.546 164.228 186.008 163.342 186.528 162.49C187.059 161.651 187.649 160.849 188.291 160.092C189.546 158.584 191.009 157.264 192.636 156.171C194.239 155.101 195.975 154.244 197.799 153.622C199.598 153.044 201.466 152.707 203.354 152.619C207.025 152.452 210.676 153.247 213.945 154.925C217.037 156.541 219.691 158.883 221.678 161.752C223.584 164.489 225.424 167.149 227.198 169.732L237.11 184.054L251.423 204.811L255.295 210.473C255.722 211.107 256.044 211.626 256.287 211.949L256.609 212.468C256.474 212.313 256.347 212.152 256.229 211.984L255.192 210.542L251.296 204.938L236.775 184.308L226.807 170.02L221.252 162.064C219.308 159.276 216.718 157.001 213.703 155.433C208.826 152.984 203.177 152.569 197.995 154.28C196.223 154.889 194.538 155.727 192.982 156.771C191.394 157.825 189.968 159.107 188.752 160.576C188.132 161.305 187.562 162.076 187.047 162.882C186.54 163.71 186.093 164.573 185.71 165.465C185.313 166.36 184.978 167.281 184.707 168.221C184.455 169.176 184.266 170.147 184.143 171.127C183.656 175.08 184.337 179.089 186.102 182.659C187.035 184.403 188.09 186.079 189.259 187.675L195.909 197.292C200.288 203.577 204.553 209.608 208.655 215.316C212.758 221.024 216.723 226.433 220.48 231.46C223.915 236.135 227.6 240.619 231.52 244.895C234.709 248.472 238.703 251.239 243.172 252.967C246.61 254.058 250.202 254.588 253.809 254.535C256.782 254.535 259.087 254.351 260.654 254.247L262.429 254.131C262.879 254.028 263.086 254.028 263.086 254.028Z" fill="#263238"/>
<path d="M259.076 229.904C260.524 223.677 259.482 217.129 256.171 211.661C256.84 212.331 257.39 213.111 257.796 213.967C258.899 215.971 259.644 218.153 259.998 220.413C260.358 222.67 260.326 224.971 259.905 227.217C259.783 228.153 259.502 229.061 259.076 229.904Z" fill="#263238"/>
<path d="M259.64 171.162C259.102 170.213 258.824 169.139 258.833 168.048C258.645 166.974 258.74 165.869 259.11 164.843C259.335 165.881 259.443 166.94 259.433 168.002C259.621 169.044 259.69 170.104 259.64 171.162Z" fill="#263238"/>
<path d="M265.887 170.585C264.917 168.674 264.633 166.489 265.08 164.393C265.352 165.402 265.507 166.439 265.541 167.483C265.772 168.501 265.888 169.542 265.887 170.585Z" fill="#263238"/>
<path d="M272.075 169.19C271.73 168.391 271.58 167.522 271.637 166.653C271.494 165.795 271.549 164.915 271.799 164.082C272.137 164.882 272.287 165.75 272.237 166.619C272.373 167.477 272.318 168.355 272.075 169.19Z" fill="#263238"/>
<path d="M233.917 182.094C234.009 182.221 226.864 187.341 217.955 193.522C209.047 199.703 201.752 204.603 201.648 204.465C201.544 204.327 208.701 199.207 217.61 193.026C226.518 186.845 233.825 181.955 233.917 182.094Z" fill="#FAFAFA"/>
<path d="M228.34 173.722C227.955 174.086 227.534 174.411 227.083 174.691L223.568 177.158C220.584 179.234 216.492 182.14 212.044 185.426C207.595 188.713 203.631 191.803 200.773 194.041C199.413 195.113 198.283 196.001 197.385 196.693C196.988 197.045 196.555 197.354 196.094 197.615C196.435 197.191 196.822 196.804 197.246 196.462C198.007 195.782 199.125 194.825 200.519 193.66C203.308 191.354 207.238 188.194 211.698 184.896C216.158 181.598 220.295 178.738 223.338 176.743C224.859 175.751 226.092 174.956 226.968 174.437C227.401 174.154 227.86 173.914 228.34 173.722Z" fill="#FAFAFA"/>
<path d="M335.887 31.042C325.607 28.7357 312.411 35.8852 308.862 45.5025C305.312 55.1199 309.161 67.0204 316.929 73.7433C310.89 81.5156 310.636 93.0702 315.776 101.488C320.916 109.906 330.758 114.957 340.612 114.899C345.542 114.765 350.389 113.588 354.832 111.446C359.276 109.303 363.215 106.244 366.392 102.468C370.586 104.536 375.272 105.395 379.926 104.951C384.58 104.507 389.018 102.776 392.746 99.9521C396.473 97.1283 399.342 93.3229 401.032 88.9613C402.722 84.5996 403.166 79.8537 402.315 75.254C413.931 70.9988 420.339 56.0885 415.407 44.6492C410.474 33.2099 395.215 27.7324 384.14 33.3367C384.382 20.9173 373.561 9.32804 361.16 8.7284C348.76 8.12876 336.866 18.6571 335.887 31.042Z" fill="#FAFAFA"/>
<path d="M335.887 31.042H335.714C335.714 30.9843 335.714 31.042 335.714 31.042H335.783H335.945H336.129C336.129 31.1342 336.002 31.042 335.933 31.1227C336.097 28.6334 336.677 26.1893 337.65 23.8924C338.563 21.8212 339.749 19.882 341.177 18.1266C343.002 15.8549 345.195 13.9059 347.665 12.3609C350.629 10.4699 353.974 9.25712 357.461 8.80915L358.879 8.64771H360.342C361.341 8.65307 362.338 8.72627 363.327 8.8668C365.39 9.16893 367.402 9.75086 369.308 10.5965C369.814 10.7974 370.303 11.0364 370.772 11.3115C371.244 11.5767 371.74 11.8304 372.213 12.1187C373.162 12.724 374.074 13.3863 374.944 14.1021C375.837 14.8251 376.691 15.595 377.502 16.4084C378.297 17.29 379.043 18.2139 379.738 19.176C382.74 23.2815 384.355 28.2382 384.348 33.3252L384.002 33.1061C389.138 30.6853 394.986 30.2459 400.425 31.8723C406.345 33.4512 411.427 37.2559 414.612 42.4928C416.169 45.3323 417.092 48.4763 417.317 51.7076C417.542 54.9388 417.063 58.1804 415.914 61.2085C414.792 64.3754 413.053 67.2877 410.797 69.7765C408.49 72.3401 405.606 74.3166 402.384 75.5423L402.58 75.2079C403.43 80.1074 402.85 85.1482 400.909 89.7261C398.951 94.458 395.598 98.4805 391.297 101.258C387.575 103.581 383.328 104.93 378.948 105.182C374.568 105.434 370.195 104.58 366.231 102.699L366.589 102.63C361.179 108.975 353.738 113.246 345.533 114.715C337.772 116.024 329.807 114.258 323.325 109.791C320.284 107.706 317.697 105.027 315.719 101.915C313.861 98.9124 312.652 95.5538 312.169 92.0555C311.685 88.7304 311.85 85.3431 312.653 82.0807C313.428 78.9963 314.82 76.1013 316.745 73.5704V73.8817C313.203 70.7136 310.516 66.7042 308.931 62.2233C308.19 60.1772 307.706 58.0467 307.49 55.881C307.253 53.8443 307.288 51.7851 307.594 49.7577C308.079 46.0797 309.63 42.6243 312.054 39.8175C314.08 37.4717 316.503 35.5006 319.211 33.9941C321.367 32.7804 323.672 31.8539 326.068 31.238C327.825 30.795 329.627 30.5551 331.439 30.5231C332.555 30.5054 333.67 30.5942 334.769 30.7883C335.507 30.9151 335.922 31.0074 335.922 31.0074L334.769 30.8575C333.671 30.6936 332.56 30.628 331.45 30.6614C329.652 30.717 327.866 30.9762 326.126 31.4341C323.758 32.0827 321.484 33.0362 319.361 34.2708C316.697 35.7686 314.314 37.7197 312.319 40.0366C309.952 42.8074 308.445 46.2105 307.986 49.8269C307.689 51.8205 307.658 53.8446 307.894 55.8464C308.134 57.9899 308.633 60.0964 309.38 62.1195C310.951 66.5257 313.606 70.4642 317.102 73.5704L317.263 73.7087L317.137 73.8817C315.257 76.3666 313.901 79.2066 313.149 82.2306C312.37 85.4344 312.214 88.758 312.688 92.0209C313.159 95.4432 314.337 98.73 316.145 101.673C318.091 104.718 320.631 107.338 323.613 109.376C329.983 113.748 337.801 115.472 345.418 114.185C353.502 112.736 360.834 108.526 366.162 102.272L366.312 102.099L366.519 102.203C370.392 104.034 374.663 104.864 378.939 104.616C383.216 104.368 387.362 103.051 390.998 100.785C395.202 98.0562 398.474 94.11 400.379 89.4724C402.286 85.0069 402.854 80.0831 402.015 75.3001V75.0579L402.257 74.9772C405.324 73.7355 408.086 71.846 410.355 69.4379C412.625 67.0298 414.348 64.1598 415.407 61.024C416.536 58.0758 417.011 54.9169 416.798 51.7667C416.585 48.6164 415.69 45.5503 414.174 42.7811C411.068 37.6722 406.115 33.9557 400.344 32.4027C395.03 30.8026 389.312 31.2257 384.29 33.5905L383.933 33.7634V33.3714C383.936 28.3991 382.362 23.5542 379.439 19.5335C378.755 18.583 378.02 17.6707 377.237 16.8005C376.449 15.9842 375.614 15.2142 374.736 14.4942C373.882 13.7862 372.986 13.1315 372.051 12.5338C371.579 12.2455 371.106 11.9919 370.634 11.7266C370.171 11.454 369.69 11.215 369.193 11.0117C367.319 10.1535 365.339 9.55223 363.304 9.22428C362.334 9.08952 361.356 9.01634 360.377 9.00518H358.936L357.53 9.15509C354.091 9.57789 350.789 10.7595 347.861 12.6146C343.465 15.2898 339.966 19.2165 337.812 23.8924C336.797 26.1589 336.147 28.572 335.887 31.042C335.968 31.042 336.071 30.9613 336.106 31.042H335.91H335.76H335.68H335.887Z" fill="#263238"/>
<path d="M355.365 41.6388C357.773 40.2949 360.55 39.7612 363.284 40.1163C364.922 40.3898 366.488 40.9891 367.889 41.8788C369.291 42.7685 370.5 43.9305 371.445 45.296C372.366 46.5568 373.024 47.9904 373.379 49.5112C373.734 51.032 373.779 52.6088 373.512 54.1475C373.184 55.6777 372.546 57.1242 371.637 58.3977C370.727 59.6712 369.567 60.7445 368.227 61.5512C366.065 62.9145 363.536 63.5771 360.984 63.4486L361.101 73.8284C361.072 74.2926 360.869 74.7286 360.532 75.0493C360.195 75.3699 359.75 75.5515 359.285 75.5576C358.821 75.5638 358.371 75.3941 358.026 75.0825C357.68 74.7709 357.466 74.3404 357.424 73.8771L357.269 61.2828C357.267 60.9976 357.331 60.7158 357.455 60.459C357.579 60.2022 357.76 59.9773 357.985 59.8014C358.209 59.6264 358.47 59.5063 358.749 59.4507C359.028 59.395 359.315 59.4054 359.589 59.481C360.72 59.7691 361.899 59.8206 363.051 59.6322C364.202 59.4438 365.303 59.0195 366.283 58.386C367.193 57.8468 367.982 57.1276 368.604 56.2724C369.226 55.4173 369.667 54.4441 369.899 53.4126C370.073 52.3617 370.032 51.2866 369.78 50.2519C369.527 49.2172 369.068 48.2443 368.43 47.3916C367.772 46.4253 366.925 45.6027 365.94 44.9737C364.955 44.3447 363.853 43.9223 362.7 43.7323C358.326 43.083 353.457 46.2927 352.128 50.7325C351.985 51.2007 351.662 51.5928 351.23 51.8227C350.797 52.0525 350.292 52.1011 349.824 51.9579C349.356 51.8146 348.964 51.4913 348.734 51.0589C348.505 50.6265 348.456 50.1206 348.599 49.6523C349.732 46.2053 352.158 43.3325 355.365 41.6388Z" fill="#19B690"/>
<path d="M361.739 81.4336C361.756 81.8441 361.65 82.2502 361.436 82.6006C361.222 82.9511 360.908 83.2299 360.535 83.402C360.163 83.5741 359.747 83.6316 359.342 83.5672C358.936 83.5028 358.559 83.3195 358.257 83.0405C357.956 82.7614 357.744 82.3991 357.649 81.9996C357.554 81.6 357.579 81.1811 357.721 80.7959C357.864 80.4106 358.118 80.0764 358.45 79.8356C358.783 79.5947 359.18 79.4581 359.59 79.4429C360.139 79.4226 360.673 79.6207 361.076 79.9938C361.479 80.367 361.717 80.8847 361.739 81.4336Z" fill="#19B690"/>
<path d="M293.523 88.7228C291.545 88.5036 289.546 88.8756 287.779 89.7919C286.012 90.7081 284.556 92.1276 283.595 93.8711C282.633 95.6147 282.21 97.6041 282.377 99.5884C282.545 101.573 283.296 103.463 284.536 105.02C285.776 106.578 287.449 107.733 289.345 108.34C291.24 108.946 293.273 108.978 295.186 108.429C297.1 107.881 298.808 106.778 300.095 105.26C301.382 103.741 302.191 101.875 302.42 99.8969C302.624 97.2539 301.819 94.6317 300.168 92.5583C298.518 90.485 296.143 89.1145 293.523 88.7228Z" fill="#FAFAFA"/>
<path d="M293.58 88.7343C294.411 88.763 295.231 88.9387 296.001 89.2533C297.798 89.9832 299.366 91.1827 300.542 92.7263C301.718 94.27 302.458 96.1012 302.685 98.0288C302.85 99.8599 302.478 101.699 301.613 103.322C301.153 104.196 300.571 104.999 299.884 105.709C299.179 106.461 298.367 107.105 297.476 107.623C295.622 108.798 293.421 109.302 291.241 109.053C289.061 108.803 287.031 107.814 285.49 106.251C284.732 105.551 284.087 104.738 283.577 103.841C283.059 103.001 282.67 102.087 282.425 101.131C281.94 99.3566 281.992 97.4785 282.574 95.734C283.225 93.9055 284.357 92.2863 285.849 91.0465C287.342 89.8067 289.141 88.992 291.057 88.6882C291.872 88.5388 292.708 88.5388 293.523 88.6882C293.523 88.7689 292.635 88.619 291.091 88.8843C288.91 89.3045 286.915 90.3972 285.386 92.0093C284.34 93.1003 283.553 94.4127 283.082 95.8493C282.554 97.5028 282.522 99.2748 282.989 100.946C283.508 102.799 284.525 104.474 285.928 105.79C287.382 107.256 289.292 108.183 291.343 108.418C293.394 108.652 295.463 108.181 297.211 107.081C298.065 106.596 298.842 105.986 299.516 105.271C300.171 104.605 300.726 103.847 301.164 103.022C302.005 101.504 302.378 99.7703 302.235 98.0403C302.082 96.5276 301.598 95.067 300.818 93.7621C299.687 91.8526 297.992 90.3415 295.966 89.4378C295.186 89.1547 294.389 88.9198 293.58 88.7343Z" fill="#263238"/>
<path d="M273.908 110.656C273.054 110.561 272.192 110.722 271.43 111.117C270.668 111.512 270.04 112.124 269.625 112.877C269.21 113.629 269.028 114.487 269.1 115.343C269.172 116.199 269.496 117.014 270.031 117.686C270.566 118.358 271.288 118.856 272.105 119.117C272.923 119.379 273.8 119.393 274.625 119.156C275.45 118.92 276.187 118.444 276.742 117.789C277.298 117.134 277.647 116.329 277.745 115.476C277.834 114.336 277.487 113.205 276.775 112.31C276.062 111.416 275.038 110.825 273.908 110.656Z" fill="#FAFAFA"/>
<path d="M273.931 110.667C274.296 110.615 274.669 110.671 275.003 110.829C275.803 111.133 276.505 111.651 277.033 112.326C277.561 113 277.895 113.807 277.999 114.657C278.078 115.478 277.914 116.305 277.526 117.033C277.097 117.864 276.425 118.545 275.6 118.985C274.775 119.425 273.836 119.604 272.907 119.498C271.978 119.392 271.104 119.005 270.399 118.39C269.695 117.774 269.194 116.959 268.964 116.053C268.752 115.255 268.78 114.413 269.044 113.631C269.293 112.968 269.687 112.369 270.197 111.878C270.914 111.165 271.845 110.707 272.847 110.575C273.209 110.507 273.583 110.535 273.931 110.656C273.931 110.714 273.539 110.656 272.894 110.806C271.979 111.015 271.149 111.493 270.508 112.178C270.03 112.657 269.688 113.254 269.516 113.908C269.344 114.562 269.348 115.251 269.528 115.903C269.714 116.715 270.147 117.449 270.767 118.004C271.387 118.56 272.164 118.909 272.991 119.004C273.818 119.099 274.654 118.935 275.384 118.534C276.113 118.134 276.701 117.516 277.065 116.768C277.388 116.173 277.548 115.503 277.527 114.826C277.507 114.15 277.308 113.491 276.95 112.916C276.491 112.097 275.785 111.443 274.933 111.048C274.311 110.76 273.919 110.714 273.931 110.667Z" fill="#263238"/>
</svg>
