<svg width="505" height="432" viewBox="0 0 505 432" fill="none" xmlns="http://www.w3.org/2000/svg">
<g clip-path="url(#clip0_86_10191)">
<path d="M135.446 29.3409L134.66 28.0362C128.025 17.0108 116.032 10.3629 103.385 11.1686C101.755 11.2665 100.134 11.4846 98.5347 11.821C87.0361 14.3066 77.0314 23.0747 72.8859 34.3089C70.4478 40.9143 69.7655 48.5212 65.1253 53.7664C59.1011 60.5904 48.8765 60.8057 39.8839 60.5219C30.8913 60.2381 20.6603 60.4795 14.662 67.3329C10.9369 71.6354 9.74367 77.7548 10.0444 83.486C10.8463 98.6998 21.3619 112.302 34.7231 119.064C48.0843 125.826 63.8254 126.433 78.4509 123.458C98.9422 119.289 118.428 107.846 130.14 90.1861C141.852 72.5259 144.817 48.4201 135.446 29.3409Z" fill="white"/>
<path d="M51.1621 333.949H64.1275V414.644H51.1621V333.949Z" fill="#AB5033"/>
<path d="M102.194 343.798C102.194 356.828 91.8076 367.379 78.8981 367.379C70.4025 367.379 62.9359 362.79 58.9206 355.923C55.0714 362.623 47.8705 367.111 39.6399 367.111C27.2295 367.111 17.1743 356.962 17.1743 344.468C17.1743 341.788 17.6385 339.176 18.5014 336.798C15.1497 333.348 13.0918 328.692 13.0918 323.5C13.0918 315.059 18.601 307.925 26.1673 305.513C27.1631 292.048 38.2796 281.464 51.8858 281.464C61.6752 281.464 70.1708 286.957 74.5183 295.063C76.4757 294.326 78.5668 293.957 80.7567 293.957C91.1108 293.957 99.4395 302.365 99.4395 312.815C99.4395 317.94 97.4157 322.629 94.1304 326.012C99.0749 330.266 102.194 336.664 102.194 343.798Z" fill="#8EAE1F"/>
<path d="M41.8262 350.248C41.8262 351.756 40.6316 352.978 39.138 352.978C37.6448 352.978 36.4336 351.756 36.4336 350.248C36.4336 348.741 37.6448 347.535 39.138 347.535C40.6316 347.535 41.8262 348.741 41.8262 350.248Z" fill="#5F8C10"/>
<path d="M41.8262 331.316C41.8262 332.823 40.6316 334.046 39.138 334.046C37.6448 334.046 36.4336 332.823 36.4336 331.316C36.4336 329.809 37.6448 328.603 39.138 328.603C40.6316 328.603 41.8262 329.809 41.8262 331.316Z" fill="#5F8C10"/>
<path d="M56.0488 339.618C56.0488 341.126 54.8542 342.348 53.3606 342.348C51.8675 342.348 50.6562 341.126 50.6562 339.618C50.6562 338.111 51.8675 336.905 53.3606 336.905C54.8542 336.905 56.0488 338.111 56.0488 339.618Z" fill="#5F8C10"/>
<path d="M63.0352 321.691C63.0352 323.199 61.8405 324.421 60.347 324.421C58.8538 324.421 57.6426 323.199 57.6426 321.691C57.6426 320.184 58.8538 318.978 60.347 318.978C61.8405 318.978 63.0352 320.184 63.0352 321.691Z" fill="#5F8C10"/>
<path d="M77.8906 305.731C77.8906 307.238 76.696 308.461 75.2024 308.461C73.7093 308.461 72.498 307.238 72.498 305.731C72.498 304.224 73.7093 303.018 75.2024 303.018C76.696 303.018 77.8906 304.224 77.8906 305.731Z" fill="#5F8C10"/>
<path d="M47.2188 307.345C47.2188 308.853 46.0241 310.075 44.5306 310.075C43.0374 310.075 41.8262 308.853 41.8262 307.345C41.8262 305.838 43.0374 304.632 44.5306 304.632C46.0241 304.632 47.2188 305.838 47.2188 307.345Z" fill="#5F8C10"/>
<path d="M90.4102 315.72C90.4102 317.227 89.2155 318.45 87.722 318.45C86.2288 318.45 85.0176 317.227 85.0176 315.72C85.0176 314.213 86.2288 313.007 87.722 313.007C89.2155 313.007 90.4102 314.213 90.4102 315.72Z" fill="#5F8C10"/>
<path d="M59.7383 298.727C59.7383 300.234 58.5437 301.457 57.0501 301.457C55.5569 301.457 54.3457 300.234 54.3457 298.727C54.3457 297.22 55.5569 296.014 57.0501 296.014C58.5437 296.014 59.7383 297.22 59.7383 298.727Z" fill="#5F8C10"/>
<path d="M28.5273 315.72C28.5273 317.227 27.3327 318.45 25.8392 318.45C24.346 318.45 23.1348 317.227 23.1348 315.72C23.1348 314.213 24.346 313.007 25.8392 313.007C27.3327 313.007 28.5273 314.213 28.5273 315.72Z" fill="#5F8C10"/>
<path d="M91.4863 344.351C91.4863 345.859 90.2917 347.081 88.7981 347.081C87.305 347.081 86.0938 345.859 86.0938 344.351C86.0938 342.844 87.305 341.638 88.7981 341.638C90.2917 341.638 91.4863 342.844 91.4863 344.351Z" fill="#5F8C10"/>
<path d="M81.8008 332.402C81.8008 333.909 80.6062 335.132 79.1126 335.132C77.6194 335.132 76.4082 333.909 76.4082 332.402C76.4082 330.895 77.6194 329.689 79.1126 329.689C80.6062 329.689 81.8008 330.895 81.8008 332.402Z" fill="#5F8C10"/>
<path d="M73.4981 350.248C73.4981 351.756 72.3034 352.978 70.8099 352.978C69.3167 352.978 68.1055 351.756 68.1055 350.248C68.1055 348.741 69.3167 347.535 70.8099 347.535C72.3034 347.535 73.4981 348.741 73.4981 350.248Z" fill="#5F8C10"/>
<path d="M13.0918 420.306C14.3835 412.035 29.41 405.522 47.8142 405.522C50.7819 405.522 53.6405 405.694 56.3546 406.014C62.3619 396.519 81.5056 389.589 104.232 389.589C131.843 389.589 154.135 399.769 154.135 412.388C154.135 415.176 152.982 417.836 150.969 420.306H13.0918Z" fill="#8EAE1F"/>
<path d="M440.869 333.949H453.835V414.644H440.869V333.949Z" fill="#AB5033"/>
<path d="M402.803 343.798C402.803 356.828 413.189 367.379 426.099 367.379C434.594 367.379 442.061 362.79 446.076 355.923C449.925 362.623 457.126 367.111 465.357 367.111C477.767 367.111 487.822 356.962 487.822 344.468C487.822 341.788 487.358 339.176 486.495 336.798C489.847 333.348 491.905 328.692 491.905 323.5C491.905 315.059 486.396 307.925 478.83 305.513C477.834 292.048 466.717 281.464 453.111 281.464C443.322 281.464 434.826 286.957 430.479 295.063C428.521 294.326 426.43 293.957 424.24 293.957C413.886 293.957 405.557 302.365 405.557 312.815C405.557 317.94 407.581 322.629 410.866 326.012C405.922 330.266 402.803 336.664 402.803 343.798Z" fill="#8EAE1F"/>
<path d="M463.17 350.248C463.17 351.756 464.365 352.978 465.858 352.978C467.351 352.978 468.563 351.756 468.563 350.248C468.563 348.741 467.351 347.535 465.858 347.535C464.365 347.535 463.17 348.741 463.17 350.248Z" fill="#5F8C10"/>
<path d="M463.17 331.316C463.17 332.823 464.365 334.046 465.858 334.046C467.351 334.046 468.563 332.823 468.563 331.316C468.563 329.809 467.351 328.603 465.858 328.603C464.365 328.603 463.17 329.809 463.17 331.316Z" fill="#5F8C10"/>
<path d="M448.949 339.618C448.949 341.126 450.144 342.348 451.637 342.348C453.131 342.348 454.342 341.126 454.342 339.618C454.342 338.111 453.131 336.905 451.637 336.905C450.144 336.905 448.949 338.111 448.949 339.618Z" fill="#5F8C10"/>
<path d="M441.961 321.691C441.961 323.199 443.156 324.421 444.649 324.421C446.142 324.421 447.353 323.199 447.353 321.691C447.353 320.184 446.142 318.978 444.649 318.978C443.156 318.978 441.961 320.184 441.961 321.691Z" fill="#5F8C10"/>
<path d="M427.105 305.731C427.105 307.238 428.3 308.461 429.794 308.461C431.287 308.461 432.498 307.238 432.498 305.731C432.498 304.224 431.287 303.018 429.794 303.018C428.3 303.018 427.105 304.224 427.105 305.731Z" fill="#5F8C10"/>
<path d="M457.777 307.345C457.777 308.853 458.972 310.075 460.466 310.075C461.959 310.075 463.17 308.853 463.17 307.345C463.17 305.838 461.959 304.632 460.466 304.632C458.972 304.632 457.777 305.838 457.777 307.345Z" fill="#5F8C10"/>
<path d="M414.586 315.72C414.586 317.227 415.781 318.45 417.274 318.45C418.767 318.45 419.979 317.227 419.979 315.72C419.979 314.213 418.767 313.007 417.274 313.007C415.781 313.007 414.586 314.213 414.586 315.72Z" fill="#5F8C10"/>
<path d="M445.26 298.727C445.26 300.234 446.454 301.457 447.948 301.457C449.441 301.457 450.652 300.234 450.652 298.727C450.652 297.22 449.441 296.014 447.948 296.014C446.454 296.014 445.26 297.22 445.26 298.727Z" fill="#5F8C10"/>
<path d="M476.469 315.72C476.469 317.227 477.663 318.45 479.157 318.45C480.65 318.45 481.861 317.227 481.861 315.72C481.861 314.213 480.65 313.007 479.157 313.007C477.663 313.007 476.469 314.213 476.469 315.72Z" fill="#5F8C10"/>
<path d="M413.51 344.351C413.51 345.859 414.704 347.081 416.198 347.081C417.691 347.081 418.902 345.859 418.902 344.351C418.902 342.844 417.691 341.638 416.198 341.638C414.704 341.638 413.51 342.844 413.51 344.351Z" fill="#5F8C10"/>
<path d="M423.195 332.402C423.195 333.909 424.39 335.132 425.884 335.132C427.377 335.132 428.588 333.909 428.588 332.402C428.588 330.895 427.377 329.689 425.884 329.689C424.39 329.689 423.195 330.895 423.195 332.402Z" fill="#5F8C10"/>
<path d="M431.498 350.248C431.498 351.756 432.693 352.978 434.186 352.978C435.679 352.978 436.891 351.756 436.891 350.248C436.891 348.741 435.679 347.535 434.186 347.535C432.693 347.535 431.498 348.741 431.498 350.248Z" fill="#5F8C10"/>
<path d="M491.906 420.306C490.615 412.035 475.588 405.522 457.184 405.522C454.216 405.522 451.358 405.694 448.644 406.014C442.636 396.519 423.493 389.589 400.766 389.589C373.155 389.589 350.863 399.769 350.863 412.388C350.863 415.176 352.017 417.836 354.029 420.306H491.906Z" fill="#8EAE1F"/>
<path d="M13.0918 420.307H491.907V432.238H13.0918V420.307Z" fill="#7A8490"/>
<path d="M62.2559 230.714H442.742V240.735H62.2559V230.714Z" fill="#994129"/>
<path d="M86.4102 240.735H153.549V341.395H86.4102V240.735Z" fill="#CE9557"/>
<path d="M351.449 240.735H418.588V341.395H351.449V240.735Z" fill="#CE9557"/>
<path d="M86.4102 351.416H153.549V408.791H86.4102V351.416Z" fill="#CE9557"/>
<path d="M351.449 351.416H418.588V408.791H351.449V351.416Z" fill="#CE9557"/>
<path opacity="0.08" d="M86.4102 240.735H91.1459V408.957H86.4102V240.735Z" fill="black"/>
<path opacity="0.08" d="M413.852 240.735H418.587V408.957H413.852V240.735Z" fill="black"/>
<path d="M71.5098 240.735H86.4091V408.957H71.5098V240.735Z" fill="#DAA561"/>
<path d="M418.588 240.735H433.487V408.957H418.588V240.735Z" fill="#DAA561"/>
<path opacity="0.08" d="M71.5098 240.735H433.486V247.78H71.5098V240.735Z" fill="black"/>
<path opacity="0.08" d="M71.5098 351.416H433.486V358.461H71.5098V351.416Z" fill="black"/>
<path d="M62.2559 341.395H442.742V351.416H62.2559V341.395Z" fill="#994129"/>
<path opacity="0.08" d="M146.254 230.714H153.548V408.958H146.254V230.714Z" fill="black"/>
<path opacity="0.08" d="M351.449 230.714H358.744V408.958H351.449V230.714Z" fill="black"/>
<path d="M71.5098 96.4427H433.486V230.714H71.5098V96.4427Z" fill="#CE9557"/>
<path d="M102.197 120.838H147.191V206.319H102.197V120.838Z" fill="#EFEFEF"/>
<path d="M149.018 208.164H100.365V118.992H149.018V208.164ZM104.022 204.473H145.361V122.683H104.022V204.473Z" fill="#AB5033"/>
<path d="M102.193 148.041H147.187V151.734H102.193V148.041Z" fill="#AB5033"/>
<path d="M122.863 120.838H126.522V149.888H122.863V120.838Z" fill="#AB5033"/>
<path d="M166.1 120.838H211.093V206.319H166.1V120.838Z" fill="#EFEFEF"/>
<path d="M212.922 208.164H164.27V118.992H212.922V208.164ZM167.926 204.473H209.265V122.683H167.926V204.473Z" fill="#AB5033"/>
<path d="M166.1 148.041H211.093V151.734H166.1V148.041Z" fill="#AB5033"/>
<path d="M186.768 120.838H190.426V149.888H186.768V120.838Z" fill="#AB5033"/>
<path d="M230.004 120.838H274.998V206.319H230.004V120.838Z" fill="#EFEFEF"/>
<path d="M276.826 208.164H228.174V118.992H276.826V208.164ZM231.831 204.473H273.169V122.683H231.831V204.473Z" fill="#AB5033"/>
<path d="M230.004 148.041H274.998V151.734H230.004V148.041Z" fill="#AB5033"/>
<path d="M250.67 120.838H254.328V149.888H250.67V120.838Z" fill="#AB5033"/>
<path d="M293.906 120.838H338.9V206.319H293.906V120.838Z" fill="#EFEFEF"/>
<path d="M340.73 208.164H292.078V118.992H340.73V208.164ZM295.735 204.473H337.074V122.683H295.735V204.473Z" fill="#AB5033"/>
<path d="M293.906 148.041H338.9V151.734H293.906V148.041Z" fill="#AB5033"/>
<path d="M314.574 120.838H318.233V149.888H314.574V120.838Z" fill="#AB5033"/>
<path d="M357.809 120.838H402.802V206.319H357.809V120.838Z" fill="#EFEFEF"/>
<path d="M404.633 208.164H355.98V118.992H404.633V208.164ZM359.637 204.473H400.976V122.683H359.637V204.473Z" fill="#AB5033"/>
<path d="M357.809 148.041H402.802V151.734H357.809V148.041Z" fill="#AB5033"/>
<path d="M378.475 120.838H382.133V149.888H378.475V120.838Z" fill="#AB5033"/>
<path opacity="0.08" d="M86.4102 96.4427H91.1459V230.714H86.4102V96.4427Z" fill="black"/>
<path opacity="0.08" d="M413.852 96.4427H418.587V230.714H413.852V96.4427Z" fill="black"/>
<path d="M71.5098 96.4427H86.4091V230.714H71.5098V96.4427Z" fill="#DAA561"/>
<path d="M418.588 96.4427H433.487V230.714H418.588V96.4427Z" fill="#DAA561"/>
<path d="M62.2559 77.4812H442.742V96.4427H62.2559V77.4812Z" fill="#994129"/>
<path d="M62.2559 408.954H442.742V420.303H62.2559V408.954Z" fill="#994129"/>
<path d="M153.549 230.714H351.445V408.958H153.549V230.714Z" fill="#B7773D"/>
<path d="M218.357 341.309V408.955H286.64V341.309C286.64 322.277 271.354 306.849 252.499 306.849H252.499C233.643 306.849 218.357 322.277 218.357 341.309Z" fill="#44433F"/>
<path d="M289.053 408.955H284.226V341.309C284.226 323.65 269.993 309.284 252.498 309.284C235.003 309.284 220.77 323.65 220.77 341.309V408.955H215.943V341.309C215.943 320.965 232.342 304.413 252.498 304.413C272.654 304.413 289.053 320.965 289.053 341.309V408.955Z" fill="#DAA561"/>
<path d="M153.549 244.401H171.878V395.263H153.549V244.401Z" fill="#CE9557"/>
<path d="M149.385 230.714H176.045V244.405H149.385V230.714Z" fill="#DAA561"/>
<path d="M149.385 395.267H176.045V408.957H149.385V395.267Z" fill="#DAA561"/>
<path d="M189.51 244.401H207.839V395.263H189.51V244.401Z" fill="#CE9557"/>
<path d="M185.346 230.714H212.006V244.405H185.346V230.714Z" fill="#DAA561"/>
<path d="M185.346 395.267H212.006V408.957H185.346V395.267Z" fill="#DAA561"/>
<path d="M297.158 244.401H315.488V395.263H297.158V244.401Z" fill="#CE9557"/>
<path d="M292.992 230.714H319.652V244.405H292.992V230.714Z" fill="#DAA561"/>
<path d="M292.992 395.267H319.652V408.957H292.992V395.267Z" fill="#DAA561"/>
<path d="M333.117 244.401H351.447V395.263H333.117V244.401Z" fill="#CE9557"/>
<path d="M328.951 230.714H355.611V244.405H328.951V230.714Z" fill="#DAA561"/>
<path d="M328.951 395.267H355.611V408.957H328.951V395.267Z" fill="#DAA561"/>
<path d="M147.832 196.601H357.16V216.046H147.832V196.601Z" fill="#994129"/>
<path d="M203.334 178.768H301.659V205.897H203.334V178.768Z" fill="#994129"/>
<path d="M141.582 210.106H363.415V230.71H141.582V210.106Z" fill="#AB5033"/>
<path d="M252.5 293.349C264.23 293.349 273.74 283.751 273.74 271.911C273.74 260.071 264.23 250.472 252.5 250.472C240.769 250.472 231.26 260.071 231.26 271.911C231.26 283.751 240.769 293.349 252.5 293.349Z" fill="#44433F"/>
<path d="M252.499 295.786C239.456 295.786 228.846 285.075 228.846 271.91C228.846 258.745 239.456 248.034 252.499 248.034C265.542 248.034 276.155 258.745 276.155 271.91C276.155 285.075 265.542 295.786 252.499 295.786ZM252.499 252.906C242.117 252.906 233.673 261.431 233.673 271.91C233.673 282.389 242.117 290.914 252.499 290.914C262.881 290.914 271.328 282.389 271.328 271.91C271.328 261.431 262.881 252.906 252.499 252.906Z" fill="#DAA561"/>
<path d="M214.596 194.65C214.942 195.084 215.407 195.301 215.992 195.301C216.577 195.301 217.04 195.084 217.381 194.65C217.722 194.216 217.893 193.624 217.893 192.872V187.693H219.967V192.939C219.967 194.298 219.594 195.343 218.851 196.073C218.106 196.803 217.153 197.166 215.992 197.166C214.831 197.166 213.875 196.799 213.127 196.065C212.378 195.331 212.004 194.291 212.004 192.939V187.693H214.078V192.872C214.078 193.624 214.25 194.216 214.596 194.65Z" fill="white"/>
<path d="M228.622 187.693H230.696V197.072H228.622L224.195 191.194V197.072H222.121V187.693H224.062L228.622 193.731V187.693Z" fill="white"/>
<path d="M232.982 187.693H235.056V197.072H232.982V187.693Z" fill="white"/>
<path d="M240.774 193.665L243.14 187.693H245.387L241.651 197.072H239.896L236.16 187.693H238.407L240.774 193.665Z" fill="white"/>
<path d="M253.19 187.693V189.558H248.564V191.49H252.725V193.276H248.564V195.221H253.337V197.072H246.49V187.693H253.19Z" fill="white"/>
<path d="M262.721 190.805C262.721 192.31 262.132 193.28 260.954 193.718L263.306 197.072H260.754L258.694 194.081H257.257V197.072H255.184V187.693H258.707C260.151 187.693 261.182 187.939 261.798 188.431C262.413 188.922 262.721 189.715 262.721 190.805ZM260.222 191.921C260.479 191.688 260.608 191.318 260.608 190.812C260.608 190.307 260.475 189.96 260.209 189.771C259.943 189.584 259.477 189.491 258.813 189.491H257.257V192.269H258.773C259.482 192.269 259.965 192.153 260.222 191.921Z" fill="white"/>
<path d="M267.022 189.567C266.823 189.732 266.723 189.951 266.723 190.223C266.723 190.496 266.845 190.713 267.089 190.874C267.332 191.035 267.895 191.226 268.777 191.445C269.659 191.664 270.343 191.994 270.831 192.432C271.319 192.87 271.563 193.51 271.563 194.351C271.563 195.191 271.25 195.873 270.625 196.397C270 196.921 269.178 197.183 268.159 197.183C266.687 197.183 265.362 196.633 264.184 195.532L265.42 194.001C266.421 194.888 267.348 195.33 268.199 195.33C268.579 195.33 268.879 195.247 269.096 195.083C269.313 194.916 269.421 194.693 269.421 194.411C269.421 194.128 269.306 193.905 269.076 193.74C268.845 193.574 268.389 193.407 267.707 193.237C266.625 192.978 265.834 192.64 265.334 192.224C264.833 191.806 264.582 191.155 264.582 190.264C264.582 189.375 264.9 188.688 265.533 188.205C266.166 187.722 266.957 187.48 267.906 187.48C268.526 187.48 269.147 187.587 269.767 187.802C270.388 188.017 270.928 188.321 271.389 188.714L270.339 190.245C269.533 189.627 268.699 189.318 267.839 189.318C267.494 189.318 267.222 189.401 267.022 189.567Z" fill="white"/>
<path d="M273.33 187.693H275.404V197.072H273.33V187.693Z" fill="white"/>
<path d="M281.626 189.504V197.072H279.553V189.504H276.92V187.693H284.259V189.504H281.626Z" fill="white"/>
<path d="M289.776 197.072H287.702V193.37L284.484 187.693H286.731L288.739 191.181L290.747 187.693H292.993L289.776 193.37V197.072Z" fill="white"/>
<path d="M100.191 265.269H139.768V316.857H100.191V265.269Z" fill="#EFEFEF"/>
<path d="M98.8691 318.193V263.934H141.092V318.193H98.8691ZM101.515 266.605V315.523H138.447V266.605H101.515Z" fill="#994129"/>
<path d="M118.66 265.269H121.305V316.857H118.66V265.269Z" fill="#994129"/>
<path d="M100.191 280.365H121.012V283.034H100.191V280.365Z" fill="#994129"/>
<path d="M365.229 265.269H404.806V316.857H365.229V265.269Z" fill="#EFEFEF"/>
<path d="M363.904 318.193V263.934H406.128V318.193H363.904ZM366.55 266.605V315.523H403.482V266.605H366.55Z" fill="#994129"/>
<path d="M383.693 265.269H386.338V316.857H383.693V265.269Z" fill="#994129"/>
<path d="M365.229 280.365H386.049V283.034H365.229V280.365Z" fill="#994129"/>
<path d="M100.191 363.675H139.772V396.532H100.191V363.675Z" fill="#EFEFEF"/>
<path d="M98.8672 397.868V362.339H141.092V397.868H98.8672ZM101.513 365.01V395.197H138.447V365.01H101.513Z" fill="#994129"/>
<path d="M118.658 363.675H121.303V396.535H118.658V363.675Z" fill="#994129"/>
<path d="M100.191 378.771H121.016V381.44H100.191V378.771Z" fill="#994129"/>
<path d="M365.225 363.675H404.805V396.532H365.225V363.675Z" fill="#EFEFEF"/>
<path d="M363.904 397.868V362.339H406.129V397.868H363.904ZM366.55 365.01V395.197H403.484V365.01H366.55Z" fill="#994129"/>
<path d="M383.693 363.675H386.338V396.535H383.693V363.675Z" fill="#994129"/>
<path d="M365.225 378.771H386.049V381.44H365.225V378.771Z" fill="#994129"/>
</g>
<defs>
<clipPath id="clip0_86_10191">
<rect width="505" height="432" fill="white"/>
</clipPath>
</defs>
</svg>
