<svg width="651" height="651" viewBox="0 0 651 651" fill="none" xmlns="http://www.w3.org/2000/svg">
<path d="M139.766 133.811C180.276 114.121 263.947 24.9761 301.156 96.0861C332.295 155.591 263.426 211.41 222.193 231.832C168.558 258.407 89.7216 247.913 47.2827 197.679C29.0318 176.049 22.4465 145.469 54.2851 139.778C65.027 137.854 83.263 144.865 95.4055 144.253C110.967 143.47 126.209 140.397 139.766 133.811Z" fill="white"/>
<path d="M279.266 202.695C276.389 209.687 259.45 209.205 241.703 201.888C223.957 194.571 211.888 182.97 214.765 175.978C215.442 174.364 217.369 168.31 219.296 167.476C225.91 164.677 238.5 170.966 252.132 176.59C264.827 181.798 279.344 185.196 281.597 192.084C282.951 196.276 280.086 200.703 279.266 202.695Z" fill="#19B690"/>
<path opacity="0.2" d="M281.597 192.084C282.677 197.565 280.295 200.196 279.266 202.695C278.238 205.195 275.23 206.836 271.024 207.409C270.499 207.498 269.968 207.559 269.436 207.591C266.211 207.78 262.975 207.61 259.788 207.083C259.332 207.083 258.877 206.94 258.408 206.862C254.667 206.19 250.981 205.241 247.38 204.023L246.078 203.581C244.633 203.073 243.149 202.513 241.664 201.901C240.18 201.289 238.774 200.599 237.381 199.987L236.183 199.414C232.901 197.791 229.738 195.938 226.717 193.868L225.65 193.113C223.013 191.249 220.598 189.091 218.45 186.681C218.124 186.316 217.825 185.965 217.538 185.6C214.739 182.059 213.632 178.673 214.739 175.978C215.468 174.247 217.03 168.323 219.27 167.463C222.024 166.687 224.94 166.687 227.694 167.463L228.996 167.776C235.506 169.442 243.708 173.153 252.08 176.603C261.949 180.679 273.628 184.91 279.357 189.793C279.698 190.079 280.024 190.384 280.334 190.704C280.791 191.13 281.213 191.591 281.597 192.084Z" fill="black"/>
<g opacity="0.2">
<path opacity="0.2" d="M229.647 166.656L229.048 167.75L218.476 186.668C218.15 186.303 217.851 185.952 217.564 185.587L227.72 167.437L228.514 166.031L229.647 166.656Z" fill="black"/>
</g>
<g opacity="0.2">
<path opacity="0.2" d="M237.641 174.377L226.743 193.907L225.676 193.152L236.508 173.778L237.641 174.377Z" fill="black"/>
</g>
<g opacity="0.2">
<path opacity="0.2" d="M257.679 185.574L247.38 204.023L246.078 203.581L256.494 184.884L257.679 185.574Z" fill="black"/>
</g>
<g opacity="0.2">
<path opacity="0.2" d="M248.357 180.366L237.407 199.987L236.209 199.414L247.224 179.676L248.357 180.366Z" fill="black"/>
</g>
<g opacity="0.2">
<path opacity="0.2" d="M269.827 189.142L259.788 207.083C259.333 207.083 258.877 206.94 258.408 206.862L268.681 188.491L269.827 189.142Z" fill="black"/>
</g>
<path d="M281.519 196.602C278.641 203.594 261.91 203.32 244.151 195.99C226.392 188.66 214.335 177.072 217.226 170.08C220.116 163.089 236.834 163.375 254.593 170.692C272.352 178.009 284.396 189.571 281.519 196.602Z" fill="#19B690"/>
<path opacity="0.2" d="M275.477 194.063C273.446 198.998 260.4 198.308 246.351 192.514C232.303 186.72 222.564 178.009 224.595 173.075C226.626 168.14 239.672 168.83 253.734 174.624C267.795 180.418 277.521 189.129 275.477 194.063Z" fill="white"/>
<path d="M369 139.496C373.635 145.472 364.807 159.938 349.613 171.695C334.418 183.452 318.365 188.139 313.743 182.111C312.675 180.731 308.352 176.109 308.613 173.947C309.485 166.825 321.19 159.039 332.856 150.003C343.715 141.592 353.857 130.682 360.953 132.153C365.263 133.103 367.685 137.804 369 139.496Z" fill="#19B690"/>
<path opacity="0.2" d="M360.953 132.205C366.253 134.002 367.346 137.413 369 139.496C370.653 141.579 370.588 145.056 369 149.001C368.817 149.483 368.596 149.964 368.362 150.459C366.935 153.354 365.188 156.079 363.154 158.584C362.88 158.948 362.581 159.3 362.281 159.664C359.833 162.585 357.169 165.318 354.313 167.841L353.311 168.713C352.152 169.716 350.928 170.718 349.665 171.695C348.402 172.671 347.139 173.596 345.863 174.468C345.512 174.728 345.134 174.976 344.783 175.223C341.74 177.264 338.555 179.083 335.252 180.666C334.848 180.874 334.458 181.043 334.08 181.225C331.145 182.583 328.066 183.605 324.901 184.272C324.432 184.376 323.977 184.454 323.521 184.519C319.055 185.183 315.566 184.519 313.782 182.163C312.636 180.679 308.274 176.369 308.652 174.012C309.333 171.226 310.781 168.687 312.831 166.682C313.118 166.357 313.43 166.031 313.756 165.693C318.456 160.823 325.734 155.602 332.895 150.069C341.345 143.559 350.824 135.499 357.894 132.973C358.32 132.817 358.755 132.682 359.196 132.57C359.772 132.405 360.359 132.284 360.953 132.205Z" fill="black"/>
<g opacity="0.2">
<path opacity="0.2" d="M313.066 164.625L313.717 165.693L324.862 184.272C324.393 184.376 323.937 184.454 323.482 184.519L312.792 166.656L311.959 165.354L313.066 164.625Z" fill="black"/>
</g>
<g opacity="0.2">
<path opacity="0.2" d="M323.729 161.526L335.213 180.666C334.809 180.874 334.419 181.043 334.041 181.225L322.609 162.19L323.729 161.526Z" fill="black"/>
</g>
<g opacity="0.2">
<path opacity="0.2" d="M343.403 149.73L354.275 167.854L353.272 168.726L342.283 150.394L343.403 149.73Z" fill="black"/>
</g>
<g opacity="0.2">
<path opacity="0.2" d="M334.263 155.211L345.824 174.468C345.473 174.728 345.095 174.976 344.744 175.223L333.13 155.875L334.263 155.211Z" fill="black"/>
</g>
<g opacity="0.2">
<path opacity="0.2" d="M352.543 140.941L363.115 158.584C362.841 158.948 362.542 159.3 362.242 159.664L351.423 141.619L352.543 140.941Z" fill="black"/>
</g>
<path d="M345.672 166.585C360.856 154.824 369.414 140.446 364.786 134.471C360.158 128.496 344.097 133.187 328.913 144.948C313.728 156.71 305.171 171.087 309.798 177.062C314.426 183.037 330.487 178.346 345.672 166.585Z" fill="#19B690"/>
<path opacity="0.2" d="M343.789 162.961C355.806 153.653 362.897 142.682 359.625 138.459C356.353 134.235 343.959 138.357 331.941 147.665C319.923 156.974 312.833 167.944 316.105 172.168C319.376 176.392 331.771 172.27 343.789 162.961Z" fill="white"/>
<path d="M306.153 111.503C304.668 120.07 285.451 123.69 263.681 119.784C241.912 115.878 225.494 105.814 227.017 97.2464C227.368 95.2543 227.98 88.0022 230.025 86.557C236.782 81.7916 252.484 85.7758 269.202 88.7443C284.826 91.5176 301.921 91.7389 306.153 98.939C308.717 103.366 306.582 109.056 306.153 111.503Z" fill="#19B690"/>
<path opacity="0.2" d="M306.153 98.952C308.757 104.863 306.687 108.392 306.153 111.464C305.619 114.537 302.637 117.102 298.054 118.794C297.494 119.016 296.908 119.198 296.31 119.38C292.725 120.388 289.039 120.995 285.321 121.19C284.787 121.19 284.266 121.19 283.719 121.281C279.339 121.442 274.952 121.281 270.595 120.8L269.072 120.604C267.314 120.383 265.504 120.123 263.694 119.797C261.885 119.472 260.127 119.107 258.395 118.703C257.901 118.599 257.406 118.469 256.911 118.352C252.82 117.342 248.808 116.036 244.907 114.446C244.425 114.264 243.969 114.055 243.513 113.873C240.089 112.415 236.84 110.577 233.827 108.392C233.371 108.066 232.954 107.741 232.525 107.402C228.488 104.108 226.418 100.566 227.004 97.2724C227.395 95.1371 227.707 88.1584 229.999 86.583C232.29 85.0076 235.571 84.5128 239.477 84.4998H241.04C248.852 84.7602 258.916 86.9345 269.189 88.7573C281.298 90.9187 295.476 92.8066 303.106 96.8948C303.554 97.132 303.988 97.3928 304.408 97.676C305.022 98.0553 305.605 98.4819 306.153 98.952Z" fill="black"/>
<g opacity="0.2">
<path opacity="0.2" d="M241.469 83.1718L241.053 84.5389L233.814 108.418C233.358 108.092 232.941 107.767 232.512 107.428L239.464 84.5258L240.011 82.7421L241.469 83.1718Z" fill="black"/>
</g>
<g opacity="0.2">
<path opacity="0.2" d="M252.354 89.838L244.893 114.433C244.411 114.25 243.956 114.042 243.5 113.86L250.921 89.3823L252.354 89.838Z" fill="black"/>
</g>
<g opacity="0.2">
<path opacity="0.2" d="M277.652 97.5458L270.582 120.839L269.059 120.643L276.207 97.1032L277.652 97.5458Z" fill="black"/>
</g>
<g opacity="0.2">
<path opacity="0.2" d="M265.894 93.9784L258.382 118.716C257.887 118.612 257.392 118.482 256.897 118.365L264.449 93.5096L265.894 93.9784Z" fill="black"/>
</g>
<g opacity="0.2">
<path opacity="0.2" d="M292.195 98.5614L285.308 121.229C284.774 121.229 284.253 121.229 283.706 121.32L290.75 98.1317L292.195 98.5614Z" fill="black"/>
</g>
<path d="M307.166 104.023C308.691 95.457 292.273 85.3714 270.496 81.4963C248.719 77.6212 229.83 81.4241 228.306 89.9903C226.782 98.5566 243.199 108.642 264.976 112.517C286.753 116.392 305.642 112.59 307.166 104.023Z" fill="#19B690"/>
<path opacity="0.2" d="M299.756 102.714C300.833 96.6608 287.737 89.2681 270.505 86.2018C253.274 83.1355 238.432 85.5567 237.355 91.6097C236.277 97.6627 249.373 105.055 266.605 108.122C283.836 111.188 298.679 108.767 299.756 102.714Z" fill="white"/>
<path d="M419.817 330.226L285.828 338.038C281.095 338.317 276.45 339.446 272.118 341.371L126.58 406.471C124.027 407.594 121.935 409.559 120.656 412.037C119.376 414.516 118.986 417.358 119.549 420.09L143.597 533.82C144.004 535.651 144.824 537.366 145.994 538.831C147.165 540.297 148.655 541.476 150.352 542.278C152.048 543.079 153.905 543.482 155.78 543.456C157.656 543.43 159.501 542.975 161.174 542.127L304.824 470.413L437.472 465.973C439.104 465.929 440.708 465.538 442.178 464.826C443.647 464.114 444.948 463.098 445.994 461.844C447.04 460.59 447.806 459.127 448.243 457.554C448.679 455.98 448.776 454.332 448.526 452.718L430.779 343.819C429.855 338.195 425.584 330.057 419.817 330.226Z" fill="#19B690"/>
<path opacity="0.1" d="M419.817 330.226L285.828 338.038C281.095 338.317 276.45 339.446 272.118 341.371L126.58 406.471C124.027 407.594 121.935 409.559 120.656 412.037C119.376 414.516 118.986 417.358 119.549 420.09L143.597 533.82C144.004 535.651 144.824 537.366 145.994 538.831C147.165 540.297 148.655 541.476 150.352 542.278C152.048 543.079 153.905 543.482 155.78 543.456C157.656 543.43 159.501 542.975 161.174 542.127L304.824 470.413L437.472 465.973C439.104 465.929 440.708 465.538 442.178 464.826C443.647 464.114 444.948 463.098 445.994 461.844C447.04 460.59 447.806 459.127 448.243 457.554C448.679 455.98 448.776 454.332 448.526 452.718L430.779 343.819C429.855 338.195 425.584 330.057 419.817 330.226Z" fill="black"/>
<path d="M150.874 256.174L80.5591 320.991L206.742 457.879L277.058 393.062L150.874 256.174Z" fill="#19B690"/>
<path opacity="0.5" d="M277.04 393.074L206.719 457.887L80.5547 321.008L126.698 278.472L150.876 256.182L154.899 260.556L277.04 393.074Z" fill="#FAFAFA"/>
<path d="M151.326 264.543L89.2822 321.735L207.312 449.777L269.356 392.584L151.326 264.543Z" stroke="#19B690" stroke-miterlimit="10"/>
<path d="M193.279 372.319C200.396 365.759 199.495 353.206 191.269 344.281C183.042 335.357 170.604 333.44 163.487 340C156.371 346.56 157.271 359.113 165.498 368.037C173.724 376.962 186.163 378.879 193.279 372.319Z" fill="#19B690"/>
<path opacity="0.1" d="M205.976 402.331L180.991 410.963L126.697 278.472L150.875 256.182L154.899 260.556L205.976 402.331Z" fill="black"/>
<path d="M210.844 202.546L120.939 235.144L184.401 410.167L274.305 377.569L210.844 202.546Z" fill="#19B690"/>
<path opacity="0.5" d="M210.844 202.546L120.939 235.144L184.401 410.167L274.305 377.569L210.844 202.546Z" fill="#FAFAFA"/>
<path d="M208.018 210.438L128.689 239.202L188.05 402.915L267.379 374.151L208.018 210.438Z" stroke="#19B690" stroke-miterlimit="10"/>
<path d="M205.066 326.043C214.165 322.744 218.187 310.819 214.05 299.408C209.912 287.997 199.182 281.421 190.083 284.72C180.984 288.02 176.962 299.945 181.099 311.356C185.237 322.767 195.967 329.343 205.066 326.043Z" fill="#19B690"/>
<path d="M420.689 334.848L288.536 342.296C283.851 342.553 279.255 343.678 274.982 345.616L131.58 410.351C129.054 411.493 126.993 413.462 125.739 415.934C124.484 418.406 124.11 421.231 124.679 423.944L148.727 537.726C149.115 539.546 149.914 541.253 151.064 542.716C152.214 544.179 153.685 545.359 155.362 546.165C157.039 546.971 158.879 547.381 160.74 547.365C162.6 547.349 164.433 546.907 166.096 546.072L307.623 474.761L438.448 470.621C440.068 470.57 441.658 470.174 443.112 469.459C444.567 468.744 445.852 467.728 446.882 466.477C447.912 465.226 448.664 463.77 449.086 462.206C449.509 460.641 449.593 459.005 449.333 457.406L431.535 348.519C430.61 342.843 426.392 334.692 420.689 334.848Z" fill="#19B690"/>
<path opacity="0.2" d="M293.913 362.216L407.304 355.238" stroke="black" stroke-width="2" stroke-linecap="round" stroke-linejoin="round"/>
<path opacity="0.2" d="M280.334 365.146L301.049 460.296" stroke="black" stroke-width="2" stroke-linecap="round" stroke-linejoin="round"/>
<path opacity="0.2" d="M142.218 451.052L156.826 524.237C156.826 524.237 168.023 495.203 142.218 451.052Z" fill="#FAFAFA"/>
<path opacity="0.2" d="M144.131 451.911C144.639 453.213 273.888 397.748 273.888 397.748C274.238 410.323 271.094 422.749 264.806 433.644C258.517 444.539 249.33 453.476 238.265 459.463C199.362 481.271 144.131 451.911 144.131 451.911Z" fill="#FAFAFA"/>
<path d="M229.985 454.072C233.077 454.072 235.584 451.566 235.584 448.474C235.584 445.382 233.077 442.875 229.985 442.875C226.893 442.875 224.387 445.382 224.387 448.474C224.387 451.566 226.893 454.072 229.985 454.072Z" fill="#19B690"/>
<path opacity="0.2" d="M273.954 397.748C273.954 397.748 289.982 421.874 286.102 462.965L273.954 397.748Z" fill="black"/>
<g opacity="0.2">
<path opacity="0.2" d="M136.033 422.304L139.015 420.989" stroke="#FAFAFA" stroke-linecap="round" stroke-linejoin="round"/>
<path opacity="0.2" d="M145.199 418.254L265.895 364.899" stroke="#FAFAFA" stroke-linecap="round" stroke-linejoin="round" stroke-dasharray="5.2 5.2"/>
<path opacity="0.2" d="M268.993 363.531L271.962 362.216" stroke="#FAFAFA" stroke-linecap="round" stroke-linejoin="round"/>
</g>
<path opacity="0.2" d="M297.715 383.608L411.106 376.617" stroke="black" stroke-width="2" stroke-linecap="round" stroke-linejoin="round"/>
<path opacity="0.2" d="M302.819 410.286L416.211 403.294" stroke="black" stroke-width="2" stroke-linecap="round" stroke-linejoin="round"/>
<path d="M391.355 220.767C391.355 220.767 388.504 251.143 377.216 253.76C370.225 255.27 362.937 254.541 356.384 251.677L347.204 244.62L342.726 260.244C342.726 260.244 347.621 266.897 357.842 262.288C357.842 262.288 376.07 270.308 386.147 262.288C396.225 254.268 399.454 232.264 399.454 232.264L391.355 220.767Z" fill="#B97964"/>
<path d="M400.43 206.055C400.43 206.055 392.553 192.631 396.133 168.297C399.714 143.962 420.116 140.955 427.993 142.712C435.87 144.47 442.315 152.035 447.68 166.435C453.044 180.835 455.023 184.585 463.968 182.059C472.912 179.533 496.713 171.643 503.34 178.66C505.246 180.577 506.651 182.934 507.43 185.523C508.209 188.112 508.338 190.853 507.806 193.503C507.806 193.503 540.916 185.457 538.051 214.986C535.187 244.516 487.404 272.079 441.951 242.901C396.498 213.723 400.43 206.055 400.43 206.055Z" fill="#263238"/>
<path d="M400.066 277.521C400.066 277.521 391.069 354.899 391.369 391.186C391.668 427.473 404.558 512.988 404.558 512.988H420.455C420.455 512.988 418.359 444.607 418.659 421.21C418.958 397.813 423.15 359.105 423.15 359.105C423.15 359.105 428.241 393.894 434.243 406.185C440.246 418.476 473.538 461.976 496.635 475.477L507.429 465.569C507.429 465.569 483.433 435.884 474.436 421.184C465.439 406.484 457.354 402.318 454.047 374.976C450.74 347.634 456.456 303.9 446.86 277.508L400.066 277.521Z" fill="#263238"/>
<path opacity="0.2" d="M423.15 359.105L416.237 310.058C416.237 310.058 410.781 339.536 421.523 375.536L423.15 359.105Z" fill="black"/>
<path d="M407.825 517.324L408.359 532.518L419.022 533.403L419.556 531.984V516.256L407.825 517.324Z" fill="#B97964"/>
<path d="M402.761 511.543L403.737 517.232L422.043 517.675L423.202 510.84L402.761 511.543Z" fill="#19B690"/>
<path d="M491.622 476.532L508.587 460.726L512.324 466.676L497.754 480.008L491.622 476.532Z" fill="#19B690"/>
<path d="M499.799 476.532L510.996 485.958L518.183 477.508L508.991 468.004L499.799 476.532Z" fill="#B97964"/>
<path d="M520.357 476.858L527.128 481.024C527.436 481.214 527.7 481.469 527.899 481.772C528.099 482.074 528.23 482.417 528.283 482.775C528.336 483.134 528.311 483.499 528.208 483.847C528.105 484.194 527.927 484.515 527.688 484.787C522.779 490.333 510.241 504.421 508.991 505.41C507.442 506.712 505.567 504.525 505.085 502.572C505.085 502.572 508.639 497.859 508.991 494.838C509.139 492.506 509.139 490.166 508.991 487.833C508.964 487.25 509.159 486.677 509.538 486.232L517.102 477.352C517.493 476.89 518.038 476.584 518.637 476.493C519.236 476.402 519.847 476.532 520.357 476.858Z" fill="#263238"/>
<path d="M421.627 533.82L423.033 541.632C423.097 541.989 423.083 542.356 422.991 542.707C422.898 543.058 422.73 543.385 422.498 543.664C422.266 543.943 421.976 544.168 421.648 544.323C421.319 544.478 420.961 544.56 420.598 544.561C413.19 544.561 394.337 544.64 392.761 544.379C390.795 544.054 391.147 541.241 392.306 539.601C392.306 539.601 398.178 539.106 400.638 537.322C402.469 535.887 404.208 534.339 405.846 532.687C406.265 532.277 406.823 532.04 407.409 532.023L419.062 531.75C419.667 531.728 420.26 531.925 420.731 532.306C421.202 532.686 421.52 533.224 421.627 533.82Z" fill="#263238"/>
<path d="M448.565 234.607L464.814 223.202C464.814 223.202 460.491 205.911 454.085 205.052C447.68 204.193 415.885 198.138 395.665 205.052C395.665 205.052 388.4 207.122 386.16 227.525L394.805 230.285C394.805 230.285 397.904 268.485 399.818 274.37H445.961C445.961 274.37 446.482 241.521 448.565 234.607Z" fill="#19B690"/>
<path d="M452.067 232.147C452.067 232.147 458.226 249.724 459.319 259.176C459.319 259.176 444.685 253.343 440.909 250.674L438.045 240.388L428.358 235.662L425.48 243.474L433.566 253.499C433.566 253.499 455.609 274.123 466.78 269.41C477.951 264.697 462.366 224.96 462.366 224.96L452.067 232.147Z" fill="#B97964"/>
<path d="M410.729 155.185C410.729 155.185 405.092 166.435 405.521 175.588C405.951 184.741 410.573 188.478 419.362 189.767C419.362 189.767 423.111 201.485 413.268 202.669C412.513 202.76 412.253 205.742 412.305 206.224C412.565 208.125 414.453 209.166 416.211 209.609C418.062 210.019 419.952 210.228 421.849 210.234C423.84 210.303 425.82 209.917 427.641 209.108C429.461 208.298 431.073 207.085 432.356 205.56C432.564 205.312 434.543 202.787 434.543 202.787C434.543 202.787 429.843 200.456 431.496 185.197C433.739 183.736 435.462 181.603 436.418 179.103C437.316 178.626 438.11 177.976 438.754 177.189C439.398 176.402 439.878 175.495 440.168 174.52C440.871 171.473 438.176 167.255 433.254 171.473C433.254 171.473 423.984 166.786 420.468 150.368C417.862 153.031 414.428 154.729 410.729 155.185Z" fill="#B97964"/>
<path d="M413.373 173.088L414.167 167.073L409.909 171.786C410.348 172.253 410.889 172.614 411.489 172.84C412.09 173.065 412.734 173.15 413.373 173.088Z" fill="#A24E3F"/>
<path d="M415.846 177.489C415.846 177.489 420.338 178.179 422.499 175.301" stroke="#222221" stroke-width="0.75" stroke-linecap="round" stroke-linejoin="round"/>
<path d="M420.338 158.649C421.358 158.359 422.437 158.35 423.461 158.623C424.486 158.895 425.417 159.44 426.158 160.198" stroke="#222221" stroke-linecap="round" stroke-linejoin="round"/>
<path d="M412.565 157.347C412.565 157.347 409.961 156.943 408.802 158.414" stroke="#222221" stroke-linecap="round" stroke-linejoin="round"/>
<path d="M422.148 166.565C422.031 167.476 421.445 168.14 420.846 168.062C420.247 167.984 419.844 167.19 419.961 166.278C420.078 165.367 420.664 164.703 421.263 164.781C421.862 164.859 422.265 165.653 422.148 166.565Z" fill="#222221"/>
<path d="M411.754 164.55C411.871 163.644 411.475 162.846 410.869 162.767C410.263 162.689 409.676 163.359 409.559 164.265C409.441 165.17 409.837 165.968 410.443 166.047C411.049 166.126 411.636 165.455 411.754 164.55Z" fill="#222221"/>
<path d="M421.275 164.781L419.218 163.883C419.245 164.108 419.33 164.322 419.466 164.504C419.601 164.686 419.782 164.83 419.989 164.92C420.197 165.011 420.425 165.046 420.651 165.022C420.876 164.997 421.091 164.914 421.275 164.781Z" fill="#222221"/>
<path d="M411.068 162.854L409.011 161.956C409.038 162.181 409.123 162.395 409.259 162.577C409.394 162.759 409.574 162.903 409.782 162.993C409.99 163.084 410.218 163.119 410.444 163.095C410.669 163.07 410.884 162.987 411.068 162.854Z" fill="#222221"/>
<path d="M398.204 272.339V277.769L448.201 278.185L446.86 271.727L398.204 272.339Z" fill="#19B690"/>
<path opacity="0.4" d="M398.204 272.339V277.769L448.201 278.185L446.86 271.727L398.204 272.339Z" fill="white"/>
<path d="M398.815 245.987L371.317 341.632C370.403 344.835 368.55 347.691 365.997 349.83C363.444 351.97 360.309 353.296 356.995 353.636C354.886 353.838 352.757 353.644 350.719 353.063L298.158 337.947C293.909 336.721 290.319 333.86 288.176 329.992C286.033 326.123 285.512 321.563 286.726 317.31L314.237 221.639C315.466 217.396 318.327 213.813 322.192 211.675C326.058 209.537 330.614 209.019 334.861 210.234L387.462 225.337C391.701 226.577 395.277 229.446 397.405 233.316C399.533 237.187 400.04 241.743 398.815 245.987Z" fill="#19B690"/>
<path opacity="0.2" d="M398.815 245.987L371.317 341.632C370.403 344.835 368.55 347.691 365.997 349.83C363.444 351.97 360.309 353.296 356.995 353.636C354.886 353.838 352.757 353.644 350.719 353.063L298.158 337.947C293.909 336.721 290.319 333.86 288.176 329.992C286.033 326.123 285.512 321.563 286.726 317.31L314.237 221.639C315.466 217.396 318.327 213.813 322.192 211.675C326.058 209.537 330.614 209.019 334.861 210.234L387.462 225.337C391.701 226.577 395.277 229.446 397.405 233.316C399.533 237.187 400.04 241.743 398.815 245.987Z" fill="black"/>
<path d="M394.245 247.12L366.747 342.778C366.052 345.213 364.809 347.457 363.115 349.339C361.42 351.221 359.318 352.69 356.969 353.636C354.86 353.838 352.731 353.644 350.693 353.063L298.158 337.947C293.909 336.721 290.319 333.86 288.176 329.992C286.033 326.123 285.512 321.563 286.726 317.31L314.237 221.639C314.933 219.208 316.176 216.968 317.871 215.09C319.566 213.213 321.668 211.747 324.015 210.807C326.125 210.592 328.255 210.787 330.291 211.38L382.788 226.548C387.029 227.766 390.615 230.614 392.762 234.469C394.909 238.324 395.442 242.873 394.245 247.12Z" fill="#19B690"/>
<path opacity="0.5" d="M394.245 247.12L366.747 342.778C366.052 345.213 364.809 347.457 363.115 349.339C361.42 351.221 359.318 352.69 356.969 353.636C354.86 353.838 352.731 353.644 350.693 353.063L298.158 337.947C293.909 336.721 290.319 333.86 288.176 329.992C286.033 326.123 285.512 321.563 286.726 317.31L314.237 221.639C314.933 219.208 316.176 216.968 317.871 215.09C319.566 213.213 321.668 211.747 324.015 210.807C326.125 210.592 328.255 210.787 330.291 211.38L382.788 226.548C387.029 227.766 390.615 230.614 392.762 234.469C394.909 238.324 395.442 242.873 394.245 247.12Z" fill="#FAFAFA"/>
<path d="M320.319 255.254L314.692 253.668L294.44 325.525L300.067 327.111L320.319 255.254Z" fill="#FAFAFA"/>
<path d="M308.144 329.393L302.52 327.765L322.766 255.934L328.377 257.549L308.144 329.393Z" fill="#FAFAFA"/>
<path d="M316.321 331.737L310.696 330.122L330.942 258.291L336.567 259.905L316.321 331.737Z" fill="#FAFAFA"/>
<path opacity="0.5" d="M369.308 269.319L363.682 267.733L343.429 339.59L349.056 341.176L369.308 269.319Z" fill="black"/>
<path d="M368.596 249.008L365.861 258.759L362.528 257.822C360.914 257.364 359.546 256.284 358.726 254.82C357.906 253.356 357.7 251.626 358.153 250.01L359.976 243.5L366.708 245.427C367.432 245.652 368.038 246.155 368.392 246.827C368.746 247.498 368.819 248.282 368.596 249.008Z" fill="#FAFAFA"/>
<path d="M366.994 244.229L360.263 242.302L362.281 235.167C362.506 234.367 362.887 233.619 363.402 232.965C363.916 232.312 364.555 231.767 365.28 231.361C366.006 230.954 366.804 230.695 367.63 230.598C368.456 230.5 369.293 230.566 370.093 230.793L373.556 231.769L370.535 242.276C370.435 242.639 370.263 242.979 370.03 243.275C369.796 243.571 369.506 243.817 369.176 243.999C368.846 244.181 368.483 244.295 368.108 244.335C367.734 244.374 367.355 244.338 366.994 244.229Z" fill="#FAFAFA"/>
<path d="M373.374 247.38L380.145 249.32L378.348 255.687C378.126 256.489 377.747 257.239 377.233 257.894C376.719 258.549 376.08 259.096 375.354 259.503C374.628 259.91 373.828 260.168 373.001 260.264C372.174 260.36 371.336 260.291 370.536 260.061L367.021 259.072L369.82 249.333C369.923 248.97 370.097 248.631 370.332 248.336C370.567 248.041 370.859 247.796 371.189 247.614C371.52 247.433 371.883 247.318 372.258 247.278C372.633 247.238 373.013 247.273 373.374 247.38Z" fill="#FAFAFA"/>
<path d="M382.541 240.87L380.496 248.109L373.726 246.169C373.001 245.957 372.389 245.468 372.023 244.807C371.658 244.146 371.568 243.368 371.773 242.641L374.794 232.134L378.166 233.084C378.964 233.308 379.711 233.687 380.363 234.2C381.015 234.712 381.56 235.348 381.966 236.071C382.372 236.794 382.632 237.59 382.73 238.413C382.829 239.237 382.765 240.072 382.541 240.87Z" fill="#FAFAFA"/>
</svg>
